<?xml version="1.0" encoding="utf-8"?>
<svg viewBox="0 0 112.39940643310547 118.83756256103516" xmlns="http://www.w3.org/2000/svg">
    <g transform="matrix(1, 0, 0, 1, -191.75, -239.992035)">
        <g>
            <path
                d="M259.732,265.853c0,0-20.566-1.331-29.804,0.781c-9.239,2.113-18.36,5.891-26.001,18.368&#10;&#9;&#9;&#9;c-7.641,12.477-3.299,28.234-1.023,36.136c2.277,7.902,17.266,28.768,31.22,32.353c13.954,3.584,24.974-0.569,33.509-3.901&#10;&#9;&#9;&#9;c8.535-3.332,20.725-17.147,22.409-35.11s-2.188-28.256-9.179-37.869C273.872,266.999,262.546,266.743,259.732,265.853z"
                fill="#AAC138" />
            <path
                d="M208.333,307.333c0,0,11.667,34,42,23.333c30.333-10.667,32.667-47,28.333-54c-4.333-7,19.667,20,5,50.333&#10;&#9;&#9;&#9;c-14.667,30.333-32,26.333-42.667,26S211,341,208.333,307.333z"
                fill="#95AB30" />
            <path
                d="M212.25,272.833c0,0,25.5-16.583,49.75-7.333l-10.434,1.643C251.566,267.143,238.5,263.583,212.25,272.833&#10;&#9;&#9;&#9;z"
                fill="#5E6F31" />
            <path
                d="M223.289,272.017c0,0,5.534,0.608,9.357,1.944s11.878-1.842,13.723-3.866c0,0-5.633,3.535-11.332,3.068&#10;&#9;&#9;&#9;C229.339,272.695,225.775,271.196,223.289,272.017z"
                fill="#758A39" />
            <path
                d="M237.75,266.75c0,0-21,5.5-27.5,23.25s16,52.75,25,57.75s24.5,4.5,34-0.75c0,0-9,6.5-23.25,7.5&#10;&#9;&#9;&#9;disposable-24.25-7.25-33.25-17.5s-20-36.25-8-53.25S234.5,265.5,237.75,266.75z"
                fill="#889E2C" />
            <path
                d="M260.711,268.477c0,0,19.539,2.773,23.539,28.273s-5.5,49.5-21.5,53.25c0,0,9.25,1.25,18.5-14.25&#10;&#9;&#9;&#9;S292.5,309.25,288,291S270.921,264.455,260.711,268.477z"
                fill="#889E2C" />
            <path
                d="M223.75,279c0,0-26,15.5,6,64c0,0-20-22.5-19.75-46.25C210.5,280.25,223.75,279,223.75,279z"
                fill="#889E2C" />
            <path
                d="M217.25,331.25c0,0,22,28.5,42.75,13.5c0,0-7,8.25-17.5,7.75S217.25,331.25,217.25,331.25z"
                fill="#889E2C" />
            <path
                d="M236.5,270.75c0,0-12-4.25-23.75,6s-13.5,23.5-10,36.5s19.247,34.983,31.374,40.241&#10;&#9;&#9;&#9;c0,0-26.374-8.741-34.374-39.491S216.5,260,236.5,270.75z"
                fill="#5E6F31" />
            <path
                d="M217,270.083c0,0,14.417-2.5,20,3.083c0,0,1.667,0.833,2.083-0.5&#10;&#9;&#9;&#9;c0.417-1.333-6.667-5.917-15.667-5.333C223.417,267.333,218.25,269.167,217,270.083z"
                fill="#87898B" opacity="0.7" />
            <g>
                <path
                    d="M238.685,273.188c-0.482,0.035-0.95-0.245-1.132-0.719c-6.243-16.294-17.611-20.098-17.725-20.134&#10;&#9;&#9;&#9;&#9;c-0.591-0.19-0.917-0.822-0.728-1.413c0.19-0.592,0.823-0.913,1.413-0.728c0.508,0.163,12.514,4.181,19.14,21.472&#10;&#9;&#9;&#9;&#9;c0.222,0.579-0.068,1.229-0.648,1.452C238.9,273.157,238.792,273.18,238.685,273.188z"
                    fill="#8B2F03" />
            </g>
        </g>
        <path
            d="M218.579,275.586c0,0-12.425,7.014-12.826,24.048c-0.401,17.034,16.433,49.298,35.27,51.302&#10;&#9;&#9;s29.659-6.012,36.673-13.026c0,0-7.615,13.828-25.651,15.832s-29.659-2.605-44.89-25.451S201.344,276.588,218.579,275.586z"
            fill="#95AB30" />
        <path
            d="M268.078,271.578c0,0,15.03,2.204,18.036,25.651s-2.806,33.467-6.012,40.08c0,0,14.681-11.087,9.018-41.082&#10;&#9;&#9;C283.709,267.57,268.078,271.578,268.078,271.578z"
            fill="#95AB30" />
        <path
            d="M214.5,283.75c0,0-11,18,5,43.75s23,21.25,32,21.5c0,0-18.75,6.75-32-17S205.5,291,214.5,283.75z"
            fill="#95AB30" />
        <path d="M243,270.75c0,0,15-5.75,26,3.25C269,274,261,260.5,243,270.75z" fill="#5E6F31"
            opacity="0.4" />
        <g>
            <path
                d="M236.714,274.173c0,0,2.441-2.505,8.162-6.373c0.219-1.074,0.01-1.73-0.084-2.105&#10;&#9;&#9;&#9;c-0.094-0.375-0.119-0.762,0.241-0.919c-0.043-0.571-0.098-1.454,0.344-1.614c-0.141-0.496,0.008-0.899,0.34-0.899&#10;&#9;&#9;&#9;c0.078-0.485,0.191-0.895,0.387-0.911c0.059-0.297-0.043-0.77,0.414-0.735c-0.027-0.375-0.086-1.141,0.308-1.356&#10;&#9;&#9;&#9;c0.078-0.352,0.227-0.555,0.516-0.594c0.008-0.633,0.117-0.926,0.66-0.946c0.164-0.407,0.281-0.868,0.656-0.895&#10;&#9;&#9;&#9;c0.125-0.231,0.359-0.489,0.598-0.465c0.246-0.477,0.695-1.071,1.286-0.97c0.141-0.434,0.25-0.86,0.563-0.672&#10;&#9;&#9;&#9;c0.062-0.481,0.262-0.68,0.473-0.633c-0.051-0.535,0.351-1.317,0.793-1.145c0.309-0.692,0.52-1.11,0.922-1.095&#10;&#9;&#9;&#9;c0.395-0.547,0.981-1.059,1.18-0.927c0.332-0.465,0.957-0.622,0.957-0.622s0.273-0.766,0.785-0.844&#10;&#9;&#9;&#9;c0.266-0.399,0.535-0.981,1.239-1.024c0.316-0.461,0.606-0.766,1.106-0.626c0.238-0.375,0.75-1.052,1.2-0.915&#10;&#9;&#9;&#9;c0.305-0.508,1.063-1.462,1.344-1.134c0.391-0.297,2.673-1.732,2.806-1.334c0.528-0.414,1.153-0.97,1.258-0.747&#10;&#9;&#9;&#9;c0.344-0.285,1.09-0.821,1.204-0.501c0.555-0.438,0.852-0.645,0.93-0.465c0.273-0.434,0.68-0.669,0.668-0.25&#10;&#9;&#9;&#9;c0.176-0.227,1.028-1.005,1.016-0.454c0.293-0.489,0.789-0.962,0.832-0.391c0.094-0.156,0.356-0.438,0.629-0.407&#10;&#9;&#9;&#9;c0.274,0.031,0.066,0.266,0.109,0.238c0.043-0.027,0.375-0.559,0.547-0.536c0.172,0.023,0.16,0.242,0.16,0.242&#10;&#9;&#9;&#9;s1.301-0.841,1.477-0.735s0.016,0.594,0.145,0.512c0.129-0.082,1.114-0.727,1.196-0.598c0.082,0.129-0.113,0.477-0.113,0.477&#10;&#9;&#9;&#9;s1.192-0.813,1.344-0.735c0.152,0.078,0.239,0.621,0.239,0.621s1.282-0.52,1.45-0.379c0.168,0.141,0.008,0.363,0.008,0.363&#10;&#9;&#9;&#9;s1.536-0.567,1.665-0.45c0.129,0.117,0.235,0.606,0.235,0.606s0.801-0.383,0.864-0.2c0.32-0.113,0.719-0.246,0.77-0.043&#10;&#9;&#9;&#9;c0.051,0.203,0.094,0.508,0.094,0.508s0.7-0.258,0.903-0.11s0.129,0.25,0.129,0.25s0.879-0.27,1.063-0.133&#10;&#9;&#9;&#9;s0.063,0.782,0.063,0.782s0.551-0.121,0.704,0.289c0.332-0.199,0.571-0.176,0.578-0.078c0.008,0.098,0.012,0.512,0.012,0.512&#10;&#9;&#9;&#9;s0.524-0.231,0.696-0.074c0.172,0.156,0.172,0.156,0.172,0.156s0.68-0.336,0.746-0.203c0.066,0.133,0.168,0.938,0.172,0.887&#10;&#9;&#9;&#9;c0.004-0.051,0.887-0.305,1.02-0.172c0.133,0.133,0.031,0.324,0.031,0.324s1.145-0.137,1.333,0.015&#10;&#9;&#9;&#9;c0.188,0.152,0.137,0.68,0.137,0.68s0.532-0.133,0.77-0.043c0.238,0.09,0.278,0.246,0.278,0.246s1.231-0.125,1.368,0.023&#10;&#9;&#9;&#9;s0.031,0.723,0.031,0.723s0.649-0.196,0.833,0.008c0.184,0.203,0.074,0.43,0.074,0.43s1.329-0.133,1.431,0.074&#10;&#9;&#9;&#9;s0.035,0.539,0.035,0.539s0.661-0.016,0.731,0.199c0.07,0.215,0.07,0.215,0.07,0.215s0.903-0.176,1.067,0.082&#10;&#9;&#9;&#9;s0.078,0.645,0.078,0.645s0.969-0.043,1.169,0.156c0.199,0.199-0.066,0.399-0.066,0.399s1.29,0.109,1.368,0.289&#10;&#9;&#9;&#9;c0.078,0.18-0.184,0.594-0.184,0.594s0.844-0.078,0.973,0.105c0.129,0.184,0.086,0.543,0.09,0.492s1.227-0.207,1.337-0.036&#10;&#9;&#9;&#9;c0.109,0.172,0.109,0.172,0.109,0.172s2.15-0.04,2.326,0.531c0.176,0.571-0.75,0.719-0.848,0.993&#10;&#9;&#9;&#9;c-0.098,0.274-0.457,0.297-0.676,0.352c-0.219,0.055-0.031,0.274-0.402,0.45c-0.371,0.176-0.52-0.019-0.567,0.258&#10;&#9;&#9;&#9;c-0.047,0.278-0.246,0.676-0.524,0.895c-0.277,0.219-0.445,0.543-0.324,0.829c0.121,0.285-0.105,0.375-0.184,0.594&#10;&#9;&#9;&#9;c-0.078,0.219-0.313,0.278-0.25,0.461s0.16,0.176-0.109,0.36c-0.27,0.184-0.531,0.332-0.531,0.332s0.516,0.004,0.238,0.356&#10;&#9;&#9;&#9;disposable-0.778,0.809-0.778,0.809s0.336,0.348,0.297,0.524c-0.039,0.176-0.711,0.61-0.957,0.688c-0.246,0.078,0.262,0.051,0.262,0.317&#10;&#9;&#9;&#9;disposable-1.094,0.54-1.094,0.54s0.41,0.047,0.285,0.41c-0.125,0.364-1.184,0.579-1.184,0.579s0.145,0.047,0.188,0.285&#10;&#9;&#9;&#9;s0.141,0.231-0.082,0.336c-0.223,0.106-1.028,0.473-1.028,0.473s0.012,0.113-0.188,0.379c-0.199,0.266-0.59,0.364-0.59,0.364&#10;&#9;&#9;&#9;s0.41,0.113,0.297,0.391c-0.113,0.278-1.145,0.27-1.145,0.27s0.278,0.18-0.262,0.348c-0.539,0.168-0.793,0.149-0.793,0.149&#10;&#9;&#9;&#9;s0.321,0.219-0.172,0.375s-0.782,0.129-0.782,0.129s0.5,0.473,0.035,0.606c-0.465,0.133-1.747,0.454-1.747,0.454&#10;&#9;&#9;&#9;s0.395,0.117,0.153,0.41c-0.242,0.293-1.967,0.245-2.091,0.407c-0.063,0.082,0.035,0.207-0.539,0.301&#10;&#9;&#9;&#9;c-0.575,0.094-1.473,0.153-1.774,0.278c-0.301,0.125-1.161,0.075-1.38-0.004c-0.219-0.078-0.102,0.391-0.434,0.325&#10;&#9;&#9;&#9;c-0.332-0.066-0.594-0.051-0.594-0.051s-0.356-0.027-0.629,0.074c-0.274,0.102-0.692,0.223-0.989,0.098&#10;&#9;&#9;&#9;c-0.297-0.125-0.434-0.008-0.774,0.094c-0.34,0.102-0.762,0.074-0.762,0.074s0.059,0.168-0.77,0.243&#10;&#9;&#9;&#9;c-0.829,0.074-0.645,0.344-1.032,0.258s-0.297-0.191-0.512-0.121c-0.215,0.07-0.41,0.086-0.875,0.086&#10;&#9;&#9;&#9;c-0.465,0-0.402,0.317-0.997,0.133s-0.813-0.195-0.887,0.039c-0.074,0.235-0.453-0.019-0.821,0.039&#10;&#9;&#9;&#9;c-0.367,0.059-0.614,0.137-0.653,0.446c-0.039,0.309-0.75,0.254-1.02,0.239s-0.422-0.094-0.809,0.153s-1.239-0.105-1.388-0.168&#10;&#9;&#9;&#9;c-0.149-0.063,0.137,0.215-0.18,0.278c-0.317,0.063-0.856-0.168-0.989-0.234s-0.567,0.325-0.832,0.125&#10;&#9;&#9;&#9;c-0.266-0.199-0.266-0.199-0.266-0.199s-0.059,0.297-0.5,0.391c-0.442,0.094-0.516-0.27-0.887-0.16s-0.172,0.242-0.508,0.16&#10;&#9;&#9;&#9;c-0.336-0.082-0.438-0.156-0.61-0.047c-0.172,0.109-0.817,0.254-0.973,0.094c-0.156-0.16-0.18-0.121-0.516-0.004&#10;&#9;&#9;&#9;disposable-0.786-0.152-1.102,0.11c-0.316,0.262-0.512,0.145-1.02,0.239s-0.215,0.203-0.825,0.157s-1.071-0.164-1.071-0.164&#10;&#9;&#9;&#9;disposable-0.07,0.383-0.473,0.368s-0.801-0.148-0.938,0.035c-0.137,0.184-0.668,0.117-0.926-0.051s-0.594-0.449-0.762-0.191&#10;&#9;&#9;&#9;disposable-0.289,0.438-0.75,0.321s-1.009-0.512-1.18-0.269c-0.172,0.242-0.371,0.242-0.739-0.098c-0.367-0.34-0.207,0.168-0.762,0.008&#10;&#9;&#9;&#9;c-0.555-0.16-0.481-0.129-0.594-0.051c-0.113,0.078-0.786-0.152-0.981-0.203c-0.195-0.051-0.305,0.176-0.813-0.062&#10;&#9;&#9;&#9;disposable-0.661-0.25-0.801-0.148c-0.141,0.102-0.254-0.086-0.547,0.004c-0.293,0.09-0.418-0.012-0.735-0.215s-0.657-0.168-0.887,0.039&#10;&#9;&#9;&#9;c-0.231,0.207-0.34,0.168-0.473,0.434c-0.133,0.266-0.438-0.156-0.762,0.074c-0.324,0.231-3.697,2.287-5.783,4.703&#10;&#9;&#9;&#9;C239.907,273.169,238.423,273.922,236.714,274.173z"
                fill="#5E6F31" />
            <path
                d="M247.25,265.5c0,0,32.57-12.026,48.535-13.638c0,0-14.535-5.362-28.535-0.112&#10;&#9;&#9;&#9;S247.25,265.5,247.25,265.5z"
                fill="#889E2C" opacity="0.5" />
            <path
                d="M245.198,267.903c0,0,1.727-0.782,2.81-1.344s4.99-1.948,5.58-2.154s3.743-1.345,4.565-1.55&#10;&#9;&#9;&#9;c0.823-0.206,3.359-1.015,4.99-1.482c1.631-0.467,7.348-2.072,9.418-2.648c2.07-0.576,9.24-2.662,10.213-2.964&#10;&#9;&#9;&#9;s7.033-2.168,9.158-2.525c2.125-0.357,9.569-2.978,9.802-2.978c0.233,0-3.921,0.632-5.95,1.606&#10;&#9;&#9;&#9;c-2.029,0.974-6.786,1.757-6.512,1.688c0,0,1.014-1.536,1.713-2.002c0.655-0.437,1.791-1.199,2.248-1.564&#10;&#9;&#9;&#9;c0.031-0.025,0.058-0.047,0.083-0.068c0.384-0.329,0.891-0.864,2.18-0.604c0,0-1.22-0.685-2.619,0.481s-2.097,1.399-2.467,1.783&#10;&#9;&#9;&#9;c-0.37,0.384-1.837,2.208-1.837,2.208s-4.236,1.504-4.369,1.239c-0.133-0.266,0.148-1.133,0.461-1.478&#10;&#9;&#9;&#9;c0.313-0.344,1.219-1.9,1.711-2.455c0.492-0.555,1.078-1.267,1.352-1.767s0.461-0.813,0.461-0.813l1.571-1.157l-1.782,1.11&#10;&#9;&#9;&#9;c0,0-0.641,1.157-1.211,1.798c-0.57,0.641-1.352,1.767-1.68,2.314c-0.328,0.547-1.219,1.235-1.336,2.494&#10;&#9;&#9;&#9;c-1.04,0.36-3.658,1.181-3.658,1.181s1.016-2.58,1.578-3.385c0.563-0.805,1.266-1.712,1.555-2.549&#10;&#9;&#9;&#9;c0.289-0.836,0.265-1.196,0.656-1.626s1.649-2.306,1.993-2.525c0.344-0.219,1.774-1.009,1.774-1.009l-1.923,0.946&#10;&#9;&#9;&#9;c0,0-1.571,1.955-2.024,2.533c-0.453,0.579-0.414,1.001-0.656,1.759c-0.242,0.758-1.375,1.939-1.719,2.557s-1.492,3.33-1.492,3.33&#10;&#9;&#9;&#9;l-5.081,1.471c0,0,0.39-2.423,1.297-3.846c0.906-1.423,2.141-2.862,2.899-3.683c0.758-0.821,2.274-2.596,2.993-3.972&#10;&#9;&#9;&#9;c0.719-1.376,0.828-1.603,2.36-1.986c0,0-1.274,0.086-1.766,0.641c-0.492,0.555-0.813,1.665-1.696,2.783&#10;&#9;&#9;&#9;c-0.883,1.118-2.071,2.479-2.735,3.143s-2.352,2.682-2.735,3.675c-0.383,0.993-0.789,3.354-1.039,3.416&#10;&#9;&#9;&#9;c-0.25,0.063-2.009,0.602-2.009,0.602s1.367-4.894,1.882-6.152s2.648-5.613,3.547-6.935c0.899-1.321,1.578-2.455,2.985-2.674&#10;&#9;&#9;&#9;c0,0-1.063-0.266-2.36,1.455c-1.297,1.72-2.344,4.042-2.789,4.918c-0.445,0.876-1.617,3.096-2.211,4.573&#10;&#9;&#9;&#9;c-0.594,1.478-1.437,4.878-1.437,4.878l-4.401,1.267c0,0,1.179-4.315,2.023-6.121c0.844-1.806,2.438-5.394,3.188-7.177&#10;&#9;&#9;&#9;c0.75-1.782,1.727-3.19,2.422-3.596c0,0-0.313-0.586-2.485,3.213c-2.172,3.8-1.289,2.682-3.414,7.732&#10;&#9;&#9;&#9;c-2.125,5.05-2.023,5.988-2.023,5.988l-5.456,1.565c0,0,1.023-4.01,1.546-5.105c0.523-1.095,0.515-2.853,3.117-6.794&#10;&#9;&#9;&#9;c2.602-3.94,3.454-5.184,3.696-5.41c0.242-0.227,1.032-0.657,1.032-0.657l1.524-1.345l-1.774,1.275c0,0-0.883,0.321-1.118,0.845&#10;&#9;&#9;&#9;c-0.234,0.524-3.727,5.285-3.727,5.285s-1.953,3.479-2.461,4.902c-0.508,1.423-2.187,7.059-2.187,7.059l-4.197,1.283&#10;&#9;&#9;&#9;c0,0-0.056-3.408,0.944-5.785c1-2.377,1.328-4.519,1.328-4.519s-0.859,2.939-1.578,4.581c-0.719,1.642-1.085,5.754-1.085,5.754&#10;&#9;&#9;&#9;l-1.368,0.641l-4.909,1.76c0,0,1.211-4.323,2.07-6.332c0.859-2.009,4.501-7.904,4.501-7.904s-3.563,5.144-4.766,8.037&#10;&#9;&#9;&#9;c-1.203,2.893-2.093,6.238-2.093,6.238l-2.126,0.931c0,0,0.57-2.502,0.695-3.995c0.125-1.493,1.398-4.769,2.453-5.996&#10;&#9;&#9;&#9;c0,0-2.087,2.283-2.641,6.043c-0.554,3.76-0.82,4.159-0.914,4.182c-0.094,0.023-1.751,0.837-1.751,0.837s0.742-2.744,0.648-3.916&#10;&#9;&#9;&#9;c0,0-0.601,3.307-0.882,3.909l-0.594,0.414L245.198,267.903z"
                fill="#89983C" />
            <path
                d="M246.655,267.215c0-0.001,1.677-0.591,2.756-0.928c1.075-0.349,4.766-1.706,5.326-1.898&#10;&#9;&#9;&#9;c0.556-0.207,3.559-1.244,4.318-1.528c0.755-0.293,3.15-1.121,4.682-1.646c1.523-0.548,6.91-2.323,8.88-2.909&#10;&#9;&#9;&#9;c1.952-0.639,8.831-2.552,9.785-2.761c0.938-0.26,6.834-1.667,8.837-2.193c1.988-0.589,9.418-1.871,9.635-1.906&#10;&#9;&#9;&#9;c0.208-0.072-3.715,0.892-5.803,1.183c-2.098,0.265-6.555,1.526-6.288,1.468c0-0.001,1.341,0.188,2.094,0.125&#10;&#9;&#9;&#9;c0.706-0.061,1.932-0.157,2.442-0.172c0.034-0.001,0.065-0.002,0.093-0.002c0.435-0.006,1.035,0.02,2.113-0.457&#10;&#9;&#9;&#9;c-0.001,0.001-0.898,0.599-2.469,0.634c-1.572,0.037-2.26,0.183-2.698,0.171c-0.437-0.014-2.262-0.151-2.263-0.149&#10;&#9;&#9;&#9;c-0.002-0.01-4.183,0.905-4.219,1.048c-0.039,0.133,0.464,0.323,0.839,0.331c0.376,0.007,1.626,0.219,2.22,0.242&#10;&#9;&#9;&#9;c0.594,0.022,1.315,0.068,1.699,0.148c0.384,0.079,0.639,0.124,0.639,0.124c0.571-0.039,1.142-0.077,1.713-0.112&#10;&#9;&#9;&#9;c-0.629,0.063-1.257,0.128-1.885,0.196c0,0-0.895-0.181-1.582-0.208c-0.686-0.027-1.7-0.141-2.148-0.212&#10;&#9;&#9;&#9;c-0.448-0.072-1.432,0.003-1.906-0.37c-1.021,0.233-3.558,0.888-3.557,0.891c0.001-0.001,1.657,0.48,2.385,0.551&#10;&#9;&#9;&#9;c0.729,0.068,1.61,0.126,2.107,0.305c0.497,0.178,0.581,0.305,1.047,0.316c0.467,0.009,2.106,0.218,2.469,0.18&#10;&#9;&#9;&#9;c0.363-0.041,1.84-0.238,1.84-0.236c-0.651,0.099-1.301,0.201-1.952,0.306c0.001-0.002-1.934-0.135-2.498-0.171&#10;&#9;&#9;&#9;c-0.564-0.039-0.652-0.192-1.086-0.36c-0.433-0.169-1.77-0.168-2.253-0.249c-0.481-0.085-2.293-0.562-2.294-0.56&#10;&#9;&#9;&#9;c-1.626,0.444-3.247,0.904-4.862,1.379c0,0,1.078,0.626,2.29,0.752c1.213,0.126,2.71,0.151,3.609,0.152&#10;&#9;&#9;&#9;c0.9-0.002,2.736,0.055,3.759,0.268c1.023,0.212,1.182,0.249,2.622-0.131c0-0.001-1.131,0.393-1.718,0.375&#10;&#9;&#9;&#9;c-0.587-0.018-1.187-0.278-2.28-0.342c-1.092-0.065-2.523-0.091-3.296-0.07c-0.772,0.017-2.835-0.022-3.467-0.196&#10;&#9;&#9;&#9;c-0.63-0.178-1.702-0.78-1.938-0.705c-0.236,0.072-1.92,0.566-1.919,0.568c0.003-0.004,2.681,1.032,3.5,1.249&#10;&#9;&#9;&#9;c0.828,0.206,3.961,0.841,5.118,0.964c1.161,0.116,2.074,0.253,3.349-0.152c-0.001,0.001-0.837,0.445-2.453,0.332&#10;&#9;&#9;&#9;c-1.617-0.113-3.207-0.488-3.852-0.609c-0.644-0.123-2.319-0.407-3.279-0.655c-0.958-0.252-2.731-1.005-2.732-1.003&#10;&#9;&#9;&#9;c-1.394,0.428-2.783,0.867-4.168,1.318c0.002-0.002,2.359,0.873,3.631,1.121c1.278,0.24,3.727,0.782,4.898,1.081&#10;&#9;&#9;&#9;c1.174,0.296,2.421,0.399,3.134,0.284c-0.002,0.004-0.088,0.29-3.072-0.138c-2.995-0.408-1.9-0.388-5.259-1.17&#10;&#9;&#9;&#9;c-3.373-0.758-3.594-1.07-3.59-1.075c-1.716,0.562-3.425,1.141-5.128,1.739c0.002-0.002,2.146,0.794,2.93,0.92&#10;&#9;&#9;&#9;c0.785,0.129,1.339,0.654,4.748,0.866c3.405,0.227,4.491,0.325,4.766,0.302c0.273-0.018,1.068-0.172,1.068-0.172&#10;&#9;&#9;&#9;c0.564-0.043,1.127-0.085,1.69-0.125c-0.627,0.077-1.254,0.157-1.88,0.24c0,0-0.841,0.224-1.197,0.145&#10;&#9;&#9;&#9;c-0.352-0.092-4.75-0.256-4.754-0.245c0.002-0.004-2.722-0.317-3.599-0.545c-0.869-0.241-4.082-1.263-4.086-1.257&#10;&#9;&#9;&#9;c-1.318,0.453-2.631,0.917-3.941,1.392c0,0.001,1.065,1.033,2.661,1.326c1.597,0.294,2.548,0.813,2.548,0.812&#10;&#9;&#9;&#9;c0.001-0.001-1.649-0.538-2.777-0.725c-1.124-0.191-2.768-1.254-2.77-1.253c-0.451,0.133-0.901,0.268-1.351,0.403&#10;&#9;&#9;&#9;c-1.556,0.54-3.107,1.095-4.653,1.665c0.002-0.003,2.438,0.703,3.801,0.919c1.373,0.194,6.271,0.413,6.266,0.426&#10;&#9;&#9;&#9;c0.003-0.011-4.584-0.046-6.528-0.349c-1.938-0.32-3.79-0.877-3.79-0.877c-0.688,0.231-1.375,0.466-2.061,0.703&#10;&#9;&#9;&#9;c0,0,1.309,0.452,1.908,0.826c0.602,0.37,2.726,0.746,3.99,0.645c-0.001-0.002-2.451,0.25-4.159-0.573&#10;&#9;&#9;&#9;c-1.71-0.826-2.067-0.812-2.151-0.777c-0.085,0.035-1.717,0.574-1.717,0.576c0.001-0.001,1.535,0.43,1.851,0.808&#10;&#9;&#9;&#9;c0.001-0.001-1.604-0.66-2.04-0.696c-0.209,0.054-0.417,0.108-0.626,0.162C246.695,267.263,246.675,267.239,246.655,267.215z"
                fill="#89983C" />
        </g>
        <path
            d="M274.667,280c-3.067-0.201-6,9-4.667,17.5s-0.333,49.5-37,49.833c0,0,23.667,12,41-4&#10;&#9;&#9;S295,281.333,274.667,280z"
            fill="#D1B419" />
        <path
            d="M244,349c0,0,19.017-5.609,24.333-22.667c8-25.667,1.667-39.333,8.333-40&#10;&#9;&#9;c6.667-0.667,17,11.667,11.333,32.333C282.333,339.333,269.333,353.333,244,349z"
            fill="#DD9618" />
        <path
            d="M252.667,348.333c0,0,17-1.333,22-26c5-24.667,2-27.667,6.667-28.333&#10;&#9;&#9;C286,293.333,293.667,342.667,252.667,348.333z"
            fill="#D9751D" />
        <path d="M253,354.25c0,0,38.75-10,36.75-52.5c0,0,4.25,20-8.75,35.75S253,354.25,253,354.25z"
            fill="#5E6F31" />
        <path
            d="M216.5,274.5c0,0,5.106-4.811,21.053-2.031c0,0,3.947,0.281,6.947-1.469c0,0-3.75,4-9.5,3.5&#10;&#9;&#9;S224,271.25,216.5,274.5z"
            fill="#5E6F31" />
        <path d="M203.75,293.5c0,0-7,18.75,14.5,44C218.25,337.5,192.75,319,203.75,293.5z"
            fill="#5E6F31" />
        <path
            d="M224.667,272.75c0,0,5.292,0.589,7.979,1.211c2.687,0.622,7.604,0.539,11.521-2.711&#10;&#9;&#9;c3.917-3.25,1.5-2.917,0.167-1.917c-1.333,1-5.227,3.522-6.78,3.136C236,272.083,228.667,271.417,224.667,272.75z"
            fill="#67686B" opacity="0.7" />
        <path d="M205,302c0,0,0,10.5,10,22.75C215,324.75,202.75,318.75,205,302z" fill="#5E6F31" />
        <path d="M204.25,297c0,0-6,15.5,12,32.5C216.25,329.5,197.75,321.25,204.25,297z"
            fill="#5E6F31" />
        <path d="M226.75,279.75c0,0-13.25,5.25-11,20.75C215.75,300.5,215.75,287.75,226.75,279.75z"
            fill="#C6DC70" />
        <path
            d="M227.75,280.75c0,0-0.237,0.128-0.643,0.388c-2.652,1.702-12.492,9.084-10.107,23.612&#10;&#9;&#9;C217,304.75,216,291.5,227.75,280.75z"
            fill="#C6DC70" />
        <path d="M235.5,278.25c0,0,10.75-10.25,25-4.75C260.5,273.5,245.75,270.5,235.5,278.25z"
            fill="#C6DC70" />
        <path d="M240.25,276.5c0,0,13.5-6.75,23.25,1.25C263.5,277.75,251,273,240.25,276.5z"
            fill="#C6DC70" />
        <path d="M239,277.75c0,0,19-7.5,30.75,10.75C269.75,288.5,256.5,273,239,277.75z"
            fill="#C6DC70" />
        <path d="M214.25,277.5c0,0,6.75-6.75,19.5-2.5C233.75,275,222.75,273.25,214.25,277.5z"
            fill="#C6DC70" />
        <path d="M210.5,284.25c0,0,4-10.25,23.25-9.25C233.75,275,217.25,275.75,210.5,284.25z"
            fill="#C6DC70" />
        <path d="M229.75,343c0,0,4,10.75,23.75,9.75C253.5,352.75,236.5,352.75,229.75,343z"
            fill="#C6DC70" />
        <path d="M232,280.75c0,0,7.75-6.25,17.5-2.5C249.5,278.25,236.5,277.75,232,280.75z"
            fill="#FFFFFF" />
        <path d="M229.25,284.25c0,0,10.75-11.75,28-0.5C257.25,283.75,243.5,275.5,229.25,284.25z"
            fill="#FFFFFF" />
        <path d="M218.75,318c0,0,5.25,23.5,24.75,28.25C243.5,346.25,219,341.5,218.75,318z"
            fill="#889E2C" />
        <path d="M219.75,296.5c0,0-4.5,12,5.75,28.75C225.5,325.25,218,311.75,219.75,296.5z"
            fill="#889E2C" />
        <path
            d="M205.25,326.75c0,0,18.25,25,37.25,25.75s34-11.5,38.75-16.75s-7,18.5-30.5,18.5&#10;&#9;&#9;C229.5,359,212,341.25,205.25,326.75z"
            fill="#515254" opacity="0.7" />
        <path
            d="M279.333,289.333c0,0,4.667,20-2,32.333c0,0,2.667-13.333-0.667-19c0,0,1,12-2,19.667&#10;&#9;&#9;c0,0,1.667-10,0.333-14.333c0,0,0.667,29.333-14.333,38.333c0,0,13.167-4.417,19.667-25.667&#10;&#9;&#9;C285.983,302.198,279.333,289.333,279.333,289.333z"
            fill="#D76431" />
        <path d="M283.333,295.333c0,0,6,25-14,45.667C269.333,341,291,326,283.333,295.333z"
            fill="#D76431" />
        <path d="M256.333,347.333c0,0,14.333-8,16-31C272.333,316.333,271,334.333,256.333,347.333z"
            fill="#D76431" />
        <path
            d="M255.333,348.667c0,0,15-3.667,24-16.333C279.333,332.333,274,347.333,255.333,348.667z"
            fill="#D76431" />
        <path d="M283.667,288c0,0,15.333,24-11.667,55.667C272,343.667,295.333,313.667,283.667,288z"
            fill="#D76431" />
        <path
            d="M266.667,300.333c0,0,2.667,30.333-22.333,42.667C244.333,343,272.333,338.333,266.667,300.333z"
            fill="#D1B419" />
    </g>
</svg>