<?xml version="1.0" encoding="utf-8"?>
<svg viewBox="0 0 98.71833801269531 98.98657989501953" xmlns="http://www.w3.org/2000/svg">
    <g transform="matrix(0.740183, 0, 0, 0.740183, 39.936943, 32.616417)">
        <g id="g22334" transform="matrix(1.333333, 0, 0, -1.333333, 7.70892, -25.01969)">
            <path style="fill:#5d0b64;fill-opacity:1;fill-rule:nonzero;stroke:none"
                d="m 0,0 c 0,0 1.933,6.669 6.397,8.071 4.464,1.402 8.73,-0.555 10.214,-2.33 1.483,-1.775 7.426,0.831 11.347,-6.113 4.19,-1.281 8.333,-4.098 9.659,-11.059 4.155,-2.433 4.527,-6.001 3.647,-9.626 3.317,-1.543 8.757,-9.11 4.077,-17.618 2.81,-2.392 5.684,-9.016 0.201,-15.48 0.639,-4.249 1.372,-8.596 -4.705,-12.448 -0.239,-4.702 -2.323,-6.849 -6.362,-6.919 -0.664,-2.863 -3.9,-4.975 -8.975,-4.34 -1.921,-3.113 -10.162,-5.457 -18.763,-0.677 -5.418,-1.181 -15.242,-1.842 -22.841,7.424 -6.611,0.682 -9.917,2.609 -12.029,5.845 -2.112,3.237 -1.826,6.304 -1.826,6.304 0,0 -5.977,-0.587 -9.194,7.392 -3.217,7.98 2.557,14.532 4.042,15.928 1.484,1.397 20.883,10.321 24.469,14.441 C -7.057,-17.086 0,0 0,0"
                id="path22336" />
        </g>
        <g id="g22338" transform="matrix(1.333333, 0, 0, -1.333333, 11.571896, -17.212744)">
            <path style="fill:#742385;fill-opacity:1;fill-rule:nonzero;stroke:none"
                d="M 0,0 C 0,0 3.535,11.907 14.761,11.276 25.987,10.646 25.584,0.566 24.199,-0.738 24.199,-0.738 12.991,6.813 0,0"
                id="path22340" />
        </g>
        <g id="g22342" transform="matrix(1.333333, 0, 0, -1.333333, 3.725094, -7.840339)">
            <path style="fill:#8a448d;fill-opacity:1;fill-rule:nonzero;stroke:none"
                d="M 0,0 C 0,0 3.983,10.836 17.886,9.739 31.789,8.643 34.651,1.635 32.509,-2.433 30.366,-6.5 28.818,-6.838 28.818,-6.838 c 0,0 -6.703,7.125 -14.594,6.789 C 6.332,-0.385 2.159,1.472 0,0"
                id="path22344" />
        </g>
        <g id="g22346" transform="matrix(1.333333, 0, 0, -1.333333, 32.214352, 16.095545)">
            <path style="fill:#742385;fill-opacity:1;fill-rule:nonzero;stroke:none"
                d="m 0,0 c 0,0 6.734,0.179 8.422,5.126 1.689,4.946 -3.188,8.939 -7.447,11.088 -4.26,2.148 -19.862,4.257 -22.342,1.738 -2.48,-2.52 -2.603,-6.553 -2.603,-6.553 0,0 16.319,-0.689 23.97,-11.399"
                id="path22348" />
        </g>
        <g id="g22350" transform="matrix(1.333333, 0, 0, -1.333333, -4.673466, 7.02572)">
            <path style="fill:#8a448d;fill-opacity:1;fill-rule:nonzero;stroke:none"
                d="m 0,0 c 0,0 3.549,-6.548 9.915,-12.124 6.366,-5.577 12.976,-9.431 17.848,-4.101 4.872,5.33 -1.33,13.113 -7.004,16.169 C 15.085,3 4.308,5.732 2.236,3.969 0.163,2.206 -0.971,2.817 0,0"
                id="path22352" />
        </g>
        <g id="g22354" transform="matrix(1.333333, 0, 0, -1.333333, -6.776676, 8.7557)">
            <path style="fill:#742385;fill-opacity:1;fill-rule:nonzero;stroke:none"
                d="m 0,0 c 0,0 -6.431,-2.88 -2.604,-12.896 3.828,-10.017 13.563,-18.579 18.807,-13.645 5.245,4.934 3.669,9.98 3.669,9.98 0,0 -7.502,3.016 -12.866,9.908 C 1.641,0.238 1.601,2.066 0,0"
                id="path22356" />
        </g>
        <g id="g22358" transform="matrix(1.333333, 0, 0, -1.333333, -13.676517, 16.49087)">
            <path style="fill:#8a448d;fill-opacity:1;fill-rule:nonzero;stroke:none"
                d="m 0,0 c 0,0 -8.294,-4.072 -8.767,-13.285 -0.473,-9.213 11.317,-16.588 15.682,-15.28 4.365,1.309 6.67,7.582 6.67,7.582 0,0 -5.79,2.387 -9.577,10.577 C 0.221,-2.217 1.083,0.832 1.083,0.832 Z"
                id="path22360" />
        </g>
        <g id="g22362" transform="matrix(1.333333, 0, 0, -1.333333, -24.704472, 25.125483)">
            <path style="fill:#742385;fill-opacity:1;fill-rule:nonzero;stroke:none"
                d="m 0,0 c 0,0 -6.151,-0.005 -8.975,-7.512 -2.824,-7.507 0.969,-12.332 5.235,-14.288 4.265,-1.956 10.354,2.279 10.354,2.279 0,0 -7.903,5.624 -6.941,11.938 C 0.634,-1.269 1.863,1.193 0,0"
                id="path22364" />
        </g>
        <g id="g22366" transform="matrix(1.333333, 0, 0, -1.333333, -5.763065, 67.993553)">
            <path style="fill:#8a448d;fill-opacity:1;fill-rule:nonzero;stroke:none"
                d="m 0,0 c 0,0 -8.009,-4.177 -14.293,0.916 -6.285,5.094 -5.562,9.877 -5.562,9.877 0,0 4.172,-1.857 7.682,-0.234 0,0 2.094,-6.984 12.173,-10.559"
                id="path22368" />
        </g>
        <g id="g22370" transform="matrix(1.333333, 0, 0, -1.333333, -1.484928, 53.770653)">
            <path style="fill:#742385;fill-opacity:1;fill-rule:nonzero;stroke:none"
                d="m 0,0 c 0,0 3.811,-7.421 12.051,-8.249 -4.016,-2.472 -8.131,-5.038 -15.26,-2.418 -7.128,2.62 -11.964,7.958 -12.173,10.559 2.218,0.221 4.284,1.792 4.284,1.792 0,0 7.833,-4.756 11.098,-1.684"
                id="path22372" />
        </g>
        <g id="g22374" transform="matrix(1.333333, 0, 0, -1.333333, 14.827755, 44.143883)">
            <path style="fill:#8a448d;fill-opacity:1;fill-rule:nonzero;stroke:none"
                d="m 0,0 c 0,0 3.799,-4.633 9.811,-6.066 0.267,-3.853 -0.985,-10.254 -9.994,-9.403 -9.009,0.851 -11.796,7.184 -12.051,8.249 0,0 4.953,4.847 4.441,6.977 0,0 3.48,-2.509 7.793,0.243"
                id="path22376" />
        </g>
        <g id="g22378" transform="matrix(1.333333, 0, 0, -1.333333, 32.344112, 28.658533)">
            <path style="fill:#742385;fill-opacity:1;fill-rule:nonzero;stroke:none"
                d="m 0,0 c 0,0 11.062,-6.008 4.537,-15.132 -6.526,-9.124 -16.941,2.342 -17.674,3.518 0,0 5.634,5.115 3.68,10.364 0,0 4.998,-3.132 9.457,1.25"
                id="path22380" />
        </g>
        <g id="g22382" transform="matrix(1.333333, 0, 0, -1.333333, 43.444027, 9.261224)">
            <path style="fill:#8a448d;fill-opacity:1;fill-rule:nonzero;stroke:none"
                d="m 0,0 c 0,0 12.219,-12.195 6.963,-17.513 -5.256,-5.318 -8.421,-1.954 -10.784,-0.632 0,0 -3.352,3.562 -4.504,3.597 0,0 3.952,3.532 -0.097,9.422 0,0 7.106,-0.216 8.422,5.126"
                id="path22384" />
        </g>
        <g id="g22386" transform="matrix(1.333333, 0, 0, -1.333333, 48.172543, -7.126319)">
            <path style="fill:#742385;fill-opacity:1;fill-rule:nonzero;stroke:none"
                d="m 0,0 c 0,0 4.656,-1.776 6.785,-7.608 2.129,-5.831 0.486,-12.413 -4.6,-12.162 0,0 -3.573,5.78 -5.731,7.479 0.495,3.638 -0.971,5.989 -0.971,5.989 0,0 3.416,1.722 4.517,6.302"
                id="path22388" />
        </g>
        <g id="g22390" transform="matrix(1.333333, 0, 0, -1.333333, 57.060848, 16.596674)">
            <path style="fill:#742385;fill-opacity:1;fill-rule:nonzero;stroke:none"
                d="m 0,0 c 0,0 6.383,-5 5.684,-12.188 -0.7,-7.187 -5.816,-7.896 -5.816,-7.896 0,0 -1.465,5.523 -3.909,7.328 2.194,2.624 3.167,6.151 -0.441,10.778 C -2.183,-2.24 0,0 0,0"
                id="path22392" />
        </g>
        <g id="g22394" transform="matrix(1.333333, 0, 0, -1.333333, 38.393185, 48.834953)">
            <path style="fill:#8a448d;fill-opacity:1;fill-rule:nonzero;stroke:none"
                d="M 0,0 C 4.727,6.872 -0.033,11.535 -0.033,11.535 6.071,6.831 9.96,11.422 9.96,11.422 13.165,6.231 17.546,-1.4 11.086,-5.24 4.625,-9.08 -0.309,-0.663 -0.309,-0.663 Z"
                id="path22396" />
        </g>
        <g id="g22398" transform="matrix(1.333333, 0, 0, -1.333333, 47.361813, 57.310051)">
            <path style="fill:#742385;fill-opacity:1;fill-rule:nonzero;stroke:none"
                d="m 0,0 c 0,0 1.152,-3.207 -2.009,-5.994 -3.16,-2.787 -7.91,-4.084 -14.235,2.837 0,0 2.533,4.248 2.009,5.994 0,0 4.61,-0.141 6.397,1.727 0,0 4.148,-5.797 7.838,-4.564"
                id="path22400" />
        </g>
        <g id="g22402" transform="matrix(1.333333, 0, 0, -1.333333, 35.619503, 68.357811)">
            <path style="fill:#8a448d;fill-opacity:1;fill-rule:nonzero;stroke:none"
                d="m 0,0 c 0,0 1.058,-6.28 -7.404,-6.406 -8.462,-0.127 -12.418,5.665 -13.262,6.363 l 4.889,2.735 c 0,0 5.529,-1.515 8.34,2.437 C -5.208,2.562 -2.392,0.361 0,0"
                id="path22404" />
        </g>
        <g id="g22406" transform="matrix(1.333333, 0, 0, -1.333333, 19.493343, 76.068108)">
            <path style="fill:#742385;fill-opacity:1;fill-rule:nonzero;stroke:none"
                d="m 0,0 c 0,0 -5.431,-4.736 -13.531,-2.471 -8.101,2.265 -10.184,6.462 -10.184,6.462 0,0 3.964,0.744 5.244,1.762 C -16.475,5.02 -10.725,4.46 -8.572,5.74 -6.436,3.272 -2.782,0.181 0,0"
                id="path22408" />
        </g>
        <g id="g22410" transform="matrix(1.333333, 0, 0, -1.333333, 61.696957, 41.087059)">
            <path style="fill:#8a448d;fill-opacity:1;fill-rule:nonzero;stroke:none"
                d="m 0,0 c 0,0 7.565,-4.075 5.16,-10.442 -2.404,-6.366 -4.988,-5.999 -4.988,-5.999 0,0 -2.915,5.279 -5.289,6.217 0,0 3.731,2.577 1.508,8.508 0,0 2.614,0.593 3.609,1.716"
                id="path22412" />
        </g>
        <g id="g22414" transform="matrix(1.333333, 0, 0, -1.333333, 44.147884, 66.054771)">
            <path style="fill:#742385;fill-opacity:1;fill-rule:nonzero;stroke:none"
                d="M 0,0 C 0,0 6.144,-9.703 11.814,-3.436 17.483,2.831 8.044,8.501 8.044,8.501 8.044,8.501 5.082,5.9 2.411,6.558 3.498,4.411 2.276,2.141 0,0"
                id="path22416" />
        </g>
        <g id="g22418" transform="matrix(1.333333, 0, 0, -1.333333, 34.159603, 74.208488)">
            <path style="fill:#742385;fill-opacity:1;fill-rule:nonzero;stroke:none"
                d="m 0,0 c 0,0 8.193,-8.708 14.637,0.899 0,0 -3.189,-0.575 -7.146,5.216 0,0 -3.062,-2.694 -6.396,-1.727 C 1.095,4.388 1.892,2.153 0,0"
                id="path22420" />
        </g>
        <g id="g22422" transform="matrix(1.333333, 0, 0, -1.333333, 19.493343, 76.068108)">
            <path style="fill:#8a448d;fill-opacity:1;fill-rule:nonzero;stroke:none"
                d="m 0,0 c 0,0 6.751,-2.416 11,1.395 0,0 2.601,-2.963 5.662,-3.441 0,0 -6.438,-6.243 -18.763,-0.677 0,0 -2.113,0.064 2.101,2.723"
                id="path22424" />
        </g>
        <g id="g22426" transform="matrix(1.333333, 0, 0, -1.333333, 10.92004, -16.84815)">
            <path style="fill:#42004d;fill-opacity:1;fill-rule:nonzero;stroke:none"
                d="m 0,0 c 0,0 2.597,9.532 11.979,11.457 9.382,1.925 15.713,-4.804 12.708,-11.921 0,0 -0.004,9.323 -7.563,10.419 C 9.564,11.05 3.021,4.521 0,0"
                id="path22428" />
        </g>
        <g id="g22430" transform="matrix(1.333333, 0, 0, -1.333333, 4.516781, -8.58512)">
            <path style="fill:#42004d;fill-opacity:1;fill-rule:nonzero;stroke:none"
                d="m 0,0 c 0,0 4.693,12.064 19.521,9.785 14.829,-2.278 16.154,-12.41 8.704,-17.181 0,0 6.03,8.659 -2.186,13.427 C 17.822,10.798 6.223,8.653 0,0"
                id="path22432" />
        </g>
        <g id="g22434" transform="matrix(1.333333, 0, 0, -1.333333, 0.255001, 0.896325)">
            <path style="fill:#42004d;fill-opacity:1;fill-rule:nonzero;stroke:none"
                d="m 0,0 c 0,0 0.548,5.366 4.18,7.85 3.632,2.484 13.496,1.319 19.746,-1.755 6.25,-3.074 10.218,-11.653 6.958,-14.533 -3.26,-2.881 -6.146,-2.985 -6.146,-2.985 0,0 7.682,2.938 5.815,7.897 C 28.686,1.432 19.713,6.608 13.975,7.552 8.236,8.495 2.149,7.431 0,0"
                id="path22436" />
        </g>
        <g id="g22438" transform="matrix(1.333333, 0, 0, -1.333333, -2.610111, 10.805017)">
            <path style="fill:#42004d;fill-opacity:1;fill-rule:nonzero;stroke:none"
                d="m 0,0 c 0,0 -2.601,2.963 -0.104,6.058 2.498,3.096 13.56,0.26 18.955,-2.5 5.394,-2.759 12.737,-10.961 7.673,-16.285 0,0 3.167,6.151 -3.763,12.129 C 15.831,5.38 3.691,7.577 1.712,5.715 -0.267,3.853 -0.646,0.885 0,0"
                id="path22440" />
        </g>
        <g id="g22442" transform="matrix(1.333333, 0, 0, -1.333333, 1.098263, 15.275231)">
            <path style="fill:#42004d;fill-opacity:1;fill-rule:nonzero;stroke:none"
                d="M 0,0 C 0,0 8.902,-10.652 17.312,-12.254 17.312,-12.254 6.26,-12.205 0,0"
                id="path22444" />
        </g>
        <g id="g22446" transform="matrix(1.333333, 0, 0, -1.333333, -3.703861, 8.84945)">
            <path style="fill:#42004d;fill-opacity:1;fill-rule:nonzero;stroke:none"
                d="m 0,0 c 0,0 -1.816,0.344 -4.208,-2.467 -2.393,-2.81 -1.079,-10.155 3.71,-17.029 4.788,-6.874 11.551,-8.906 15.095,-6.131 3.545,2.775 3.034,8.077 3.034,8.077 0,0 2.006,-6.693 -2.976,-9.328 -4.982,-2.636 -10.604,-1.023 -16.44,6.172 C -7.62,-13.512 -9.317,0.188 0,0"
                id="path22448" />
        </g>
        <g id="g22450" transform="matrix(1.333333, 0, 0, -1.333333, -14.119022, 18.399744)">
            <path style="fill:#42004d;fill-opacity:1;fill-rule:nonzero;stroke:none"
                d="m 0,0 c 0,0 -9.842,-4.41 -6.341,-15.666 3.502,-11.256 14.524,-12.265 18,-8.622 0,0 -5.996,-7.506 -15.533,1.242 C -13.411,-14.297 -6.693,-2.007 0,0"
                id="path22452" />
        </g>
        <g id="g22454" transform="matrix(1.333333, 0, 0, -1.333333, -24.704472, 25.125483)">
            <path style="fill:#42004d;fill-opacity:1;fill-rule:nonzero;stroke:none"
                d="m 0,0 c 0,0 -10.878,-3.705 -9.099,-14.717 1.779,-11.011 14.316,-6.491 14.444,-5.438 0,0 -5,-3.211 -11.11,1.3 C -11.875,-14.344 -7.054,-4.399 0,0"
                id="path22456" />
        </g>
        <g id="g22458" transform="matrix(1.333333, 0, 0, -1.333333, -30.808659, 53.005028)">
            <path style="fill:#42004d;fill-opacity:1;fill-rule:nonzero;stroke:none"
                d="m 0,0 c 0,0 -2.008,-2.822 2.629,-8.346 4.637,-5.524 15.259,-3.925 16.627,-3.198 0,0 -5.576,-3.194 -12.717,-0.958 -7.14,2.236 -9.525,9.133 -8.564,12.275 z"
                id="path22460" />
        </g>
        <g id="g22462" transform="matrix(1.333333, 0, 0, -1.333333, -34.837955, 21.228357)">
            <path style="fill:#42004d;fill-opacity:1;fill-rule:nonzero;stroke:none"
                d="m 0,0 c 0,0 -9.01,-5.492 -7.103,-15.45 1.907,-9.958 9.374,-7.783 9.374,-7.783 l 2.09,-0.833 c 0,0 -3.813,-2.094 -8.334,0.927 C -8.495,-20.117 -13.107,-7.482 0,0"
                id="path22464" />
        </g>
        <g id="g22466" transform="matrix(1.333333, 0, 0, -1.333333, 29.188961, -31.797857)">
            <path style="fill:#42004d;fill-opacity:1;fill-rule:nonzero;stroke:none"
                d="m 0,0 c 0,0 -5.912,4.698 -10.516,1.858 -4.604,-2.839 -8.191,-13.302 -8.191,-13.302 0,0 1.318,11.686 8.535,15.118 7.217,3.432 13.524,-4.065 13.524,-4.065 z"
                id="path22468" />
        </g>
        <g id="g22470" transform="matrix(1.333333, 0, 0, -1.333333, 43.799068, -23.40708)">
            <path style="fill:#42004d;fill-opacity:1;fill-rule:nonzero;stroke:none"
                d="m 0,0 c 0,0 4.103,-0.99 6.517,-3.755 2.415,-2.765 4.393,-7.246 1.465,-11.867 0,0 5.588,6.75 0.485,12.769 C 3.364,3.165 -0.71,1.944 -0.71,1.944 Z"
                id="path22472" />
        </g>
        <g id="g22474" transform="matrix(1.333333, 0, 0, -1.333333, 46.985043, -6.009131)">
            <path style="fill:#42004d;fill-opacity:1;fill-rule:nonzero;stroke:none"
                d="m 0,0 c 0,0 4.202,-0.897 6.418,-7.02 2.216,-6.123 -0.427,-10.848 -2.662,-11.645 0,0 5.046,1.577 5.327,7.623 0.28,6.047 -3.531,10.296 -8.745,12.666 z"
                id="path22476" />
        </g>
        <g id="g22478" transform="matrix(1.333333, 0, 0, -1.333333, 42.520382, 10.130212)">
            <path style="fill:#42004d;fill-opacity:1;fill-rule:nonzero;stroke:none"
                d="m 0,0 c 0,0 5.179,-3.522 6.627,-9.621 1.448,-6.1 -1.486,-10.912 -7.236,-10.352 0,0 4.452,-2.154 8.265,3.112 3.813,5.266 -0.644,13.572 -7.592,18.974 z"
                id="path22480" />
        </g>
        <g id="g22482" transform="matrix(1.333333, 0, 0, -1.333333, 32.344112, 28.658533)">
            <path style="fill:#42004d;fill-opacity:1;fill-rule:nonzero;stroke:none"
                d="m 0,0 c 0,0 10.555,-10.029 3.169,-15.859 -7.386,-5.831 -14.91,2.761 -15.55,3.838 l -1.449,-0.245 c 0,0 9.391,-10.378 17.255,-4.659 7.863,5.72 1.719,15.423 -2.418,18.432 z"
                id="path22484" />
        </g>
        <g id="g22486" transform="matrix(1.333333, 0, 0, -1.333333, -21.093571, 53.813805)">
            <path style="fill:#42004d;fill-opacity:1;fill-rule:nonzero;stroke:none"
                d="m 0,0 -1.344,0.041 c 0,0 8.372,-12.27 18.586,-11.428 0,0 -7.781,0.142 -17.242,11.387"
                id="path22488" />
        </g>
        <g id="g22490" transform="matrix(1.333333, 0, 0, -1.333333, 57.363827, 15.068017)">
            <path style="fill:#42004d;fill-opacity:1;fill-rule:nonzero;stroke:none"
                d="m 0,0 c 0,0 7.693,-6.194 6.242,-12.781 -1.45,-6.588 -6.601,-8.449 -6.601,-8.449 0,0 6.059,3.275 5.298,9.834 -0.761,6.559 -6.231,9.994 -6.231,9.994 z"
                id="path22492" />
        </g>
        <g id="g22494" transform="matrix(1.333333, 0, 0, -1.333333, 51.952145, 32.844566)">
            <path style="fill:#42004d;fill-opacity:1;fill-rule:nonzero;stroke:none"
                d="m 0,0 c 0,0 8.704,-10.838 1.982,-16.977 0,0 3.935,6.128 -2.977,15.854 z"
                id="path22496" />
        </g>
        <g id="g22498" transform="matrix(1.333333, 0, 0, -1.333333, 37.981686, 49.719383)">
            <path style="fill:#42004d;fill-opacity:1;fill-rule:nonzero;stroke:none"
                d="m 0,0 c 0,0 4.282,-7.724 9.823,-5.682 0,0 -4.534,-3.706 -10.626,4.553 z"
                id="path22500" />
        </g>
        <g id="g22502" transform="matrix(1.333333, 0, 0, -1.333333, 25.703732, 61.519676)">
            <path style="fill:#42004d;fill-opacity:1;fill-rule:nonzero;stroke:none"
                d="m 0,0 c 0,0 7.436,-8.3 14.607,-3.233 0,0 -6.543,-6.528 -15.207,2.482 z"
                id="path22504" />
        </g>
        <g id="g22506" transform="matrix(1.333333, 0, 0, -1.333333, 13.79974, 65.257805)">
            <path style="fill:#8a448d;fill-opacity:1;fill-rule:nonzero;stroke:none"
                d="m 0,0 c 0,0 -7.595,-3.229 -14.416,0.055 -6.82,3.284 -9.322,6.339 -9.322,6.339 0,0 5.504,-8.626 14.81,-9.198 9.306,-0.572 10.354,2.28 10.354,2.28 z"
                id="path22508" />
        </g>
        <g id="g22510" transform="matrix(1.333333, 0, 0, -1.333333, 33.942257, 30.885889)">
            <path style="fill:#8a448d;fill-opacity:1;fill-rule:nonzero;stroke:none"
                d="m 0,0 c 0,0 7.46,-7.532 2.483,-13.147 -4.977,-5.616 -10.511,-1.122 -10.511,-1.122 0,0 4.557,-1.869 7.968,2.833 C 3.351,-6.734 0,0 0,0"
                id="path22512" />
        </g>
        <g id="g22514" transform="matrix(1.333333, 0, 0, -1.333333, 49.103207, -4.022315)">
            <path style="fill:#8a448d;fill-opacity:1;fill-rule:nonzero;stroke:none"
                d="m 0,0 c 0,0 8.885,-8.056 2.703,-15.365 0,0 1.981,8.206 -2.703,15.365"
                id="path22516" />
        </g>
        <g id="g22518" transform="matrix(1.333333, 0, 0, -1.333333, 23.178585, -6.991218)">
            <path style="fill:#8a448d;fill-opacity:1;fill-rule:nonzero;stroke:none"
                d="m 0,0 c 0,0 14.793,-6.602 13.005,-11.642 0,0 -0.658,-2.671 -4.837,-4.178 0,0 5.605,4.155 1.957,7.438 C 6.477,-5.099 0,0 0,0"
                id="path22520" />
        </g>
        <g id="g22522" transform="matrix(1.333333, 0, 0, -1.333333, -5.654788, 26.603174)">
            <path style="fill:#8a448d;fill-opacity:1;fill-rule:nonzero;stroke:none"
                d="m 0,0 c 0,0 2.007,-6.693 7.68,-9.75 5.674,-3.056 9.155,0.779 9.266,4.428 0,0 2.42,-5.745 -3.592,-7.484 C 7.342,-14.545 0.674,-6.268 0,0"
                id="path22524" />
        </g>
        <g id="g22526" transform="matrix(1.333333, 0, 0, -1.333333, -33.242252, 36.142723)">
            <path style="fill:#8a448d;fill-opacity:1;fill-rule:nonzero;stroke:none"
                d="m 0,0 c 0,0 -1.887,-5.133 2.798,-9.12 4.684,-3.988 7.914,-2.068 7.914,-2.068 0,0 -3.481,-3.834 -9.416,0.095 C -4.64,-7.163 0,0 0,0"
                id="path22528" />
        </g>
        <g id="g22530" transform="matrix(1.333333, 0, 0, -1.333333, -1.484928, 53.770653)">
            <path style="fill:#42004d;fill-opacity:1;fill-rule:nonzero;stroke:none"
                d="m 0,0 c 0,0 4.521,-6.193 11.685,-7.661 7.164,-1.468 10.051,4.98 10.361,8.815 0,0 1.768,-5.052 -3.93,-9.107 -5.699,-4.055 -16.104,1.452 -19.478,7.418 z"
                id="path22532" />
        </g>
        <g id="g22534" transform="matrix(1.333333, 0, 0, -1.333333, 57.864925, -9.77848)">
            <path style="fill:#42004d;fill-opacity:1;fill-rule:nonzero;stroke:none"
                d="m 0,0 c 0,0 6.051,-6.432 1.063,-12.431 l -0.757,-2.765 c 0,0 6.688,4.987 4.163,10.446 C 1.944,0.71 0,0 0,0"
                id="path22536" />
        </g>
        <g id="g22538" transform="matrix(1.333333, 0, 0, -1.333333, 62.564754, 4.205407)">
            <path style="fill:#42004d;fill-opacity:1;fill-rule:nonzero;stroke:none"
                d="m 0,0 c 0,0 9.403,-9.994 2.249,-17.658 l -0.047,-1.536 c 0,0 6.473,4.224 5.147,11.185 C 6.023,-1.049 0.71,1.228 0.71,1.228 Z"
                id="path22540" />
        </g>
        <g id="g22542" transform="matrix(1.333333, 0, 0, -1.333333, 67.87616, 27.562983)">
            <path style="fill:#42004d;fill-opacity:1;fill-rule:nonzero;stroke:none"
                d="m 0,0 c 0,0 3.456,-3.277 2.652,-7.578 -0.803,-4.301 -3.114,-7.594 -3.114,-7.594 0,0 5.156,2.053 5.151,8.205 -0.004,6.151 -3.502,8.084 -3.502,8.084 z"
                id="path22544" />
        </g>
        <g id="g22546" transform="matrix(1.333333, 0, 0, -1.333333, 16.197201, 66.484367)">
            <path style="fill:#42004d;fill-opacity:1;fill-rule:nonzero;stroke:none"
                d="m 0,0 c 0,0 -6.798,-2.292 -10.726,-1.884 l 5.36,-0.74 c 0,0 8.617,-7.375 14.95,-4.588 6.332,2.786 4.983,5.807 4.983,5.807 0,0 -0.775,-3.341 -5.437,-4.929 -4.662,-1.588 -12.372,4.03 -12.372,4.03 0,0 2.229,0.605 3.242,2.304"
                id="path22548" />
        </g>
        <g id="g22550" transform="matrix(1.333333, 0, 0, -1.333333, 55.059444, 57.032066)">
            <path style="fill:#8a448d;fill-opacity:1;fill-rule:nonzero;stroke:none"
                d="m 0,0 c 0,0 5.644,-4.017 3.496,-8.276 -2.148,-4.26 -6.879,-1.809 -6.879,-1.809 0,0 4.708,-0.048 5.855,2.897 C 3.619,-4.243 0,0 0,0"
                id="path22552" />
        </g>
        <g id="g22554" transform="matrix(1.333333, 0, 0, -1.333333, 50.975033, 73.311272)">
            <path style="fill:#8a448d;fill-opacity:1;fill-rule:nonzero;stroke:none"
                d="m 0,0 c 0,0 -4.15,-3.718 -10.115,-0.749 0,0 7.99,-5.914 10.115,0.749"
                id="path22556" />
        </g>
        <g id="g22558" transform="matrix(1.333333, 0, 0, -1.333333, 39.31921, 77.313133)">
            <path style="fill:#742385;fill-opacity:1;fill-rule:nonzero;stroke:none"
                d="m 0,0 c 0,0 -6.839,-3.636 -14.13,-0.05 0,0 9.124,-6.526 14.13,0.05"
                id="path22560" />
        </g>
        <g id="g22562" transform="matrix(1.333333, 0, 0, -1.333333, 61.984188, 40.070641)">
            <path style="fill:#742385;fill-opacity:1;fill-rule:nonzero;stroke:none"
                d="M 0,0 C 0,0 6.732,-6.164 2.302,-12.757 2.302,-12.757 5.341,-7.66 0,0"
                id="path22564" />
        </g>
        <g id="g22566" transform="matrix(1.333333, 0, 0, -1.333333, 62.65942, 38.937828)">
            <path style="fill:#42004d;fill-opacity:1;fill-rule:nonzero;stroke:none"
                d="m 0,0 c 0,0 8.222,-7.358 4.554,-14.556 -2.556,-5.016 -5.372,-5.988 -5.372,-5.988 l -0.227,2.026 c 0,0 3.969,0.936 4.931,7.25 C 4.847,-4.953 0,0 0,0"
                id="path22568" />
        </g>
        <g id="g22570" transform="matrix(1.333333, 0, 0, -1.333333, 55.741634, 17.837885)">
            <path style="fill:#8a448d;fill-opacity:1;fill-rule:nonzero;stroke:none"
                d="m 0,0 c 0,0 6.029,-4.028 5.818,-10.942 0,0 -0.123,-4.033 -3.674,-7.001 0,0 5.065,8.496 -2.144,17.943"
                id="path22572" />
        </g>
        <g id="g22574" transform="matrix(1.333333, 0, 0, -1.333333, 50.686703, 36.522453)">
            <path style="fill:#742385;fill-opacity:1;fill-rule:nonzero;stroke:none"
                d="m 0,0 c 0,0 4.486,-7.345 -0.223,-10.47 -4.709,-3.124 -8.549,0.165 -8.549,0.165 0,0 5.434,-7.759 10.364,-3.68 C 6.522,-9.906 0,0 0,0"
                id="path22576" />
        </g>
        <g id="g22578" transform="matrix(1.333333, 0, 0, -1.333333, 33.795773, 69.327385)">
            <path style="fill:#742385;fill-opacity:1;fill-rule:nonzero;stroke:none"
                d="m 0,0 c 0,0 -4.22,-6.023 -13.106,-1.138 0,0 8.001,-2.359 13.106,1.138"
                id="path22580" />
        </g>
        <g id="g22582" transform="matrix(1.333333, 0, 0, -1.333333, 24.898067, 54.318504)">
            <path style="fill:#742385;fill-opacity:1;fill-rule:nonzero;stroke:none"
                d="m 0,0 c 0,0 0.203,-2.794 -3.609,-4.888 -3.812,-2.094 -9.422,-0.097 -14.362,4.955 0,0 7.739,-4.657 11.848,-2.283 4.109,2.373 4.081,4.585 4.081,4.585 0,0 2.38,-0.745 2.042,-2.369"
                id="path22584" />
        </g>
        <g id="g22586" transform="matrix(1.333333, 0, 0, -1.333333, 3.614681, 46.236961)">
            <path style="fill:#742385;fill-opacity:1;fill-rule:nonzero;stroke:none"
                d="m 0,0 c 0,0 -3.807,-5.074 -9.365,-4.52 -5.558,0.554 -9.822,8.853 -9.903,12.508 0,0 8.843,-15.744 19.268,-7.988"
                id="path22588" />
        </g>
        <g id="g22590" transform="matrix(1.333333, 0, 0, -1.333333, -12.126347, 70.746971)">
            <path style="fill:#42004d;fill-opacity:1;fill-rule:nonzero;stroke:none"
                d="m 0,0 c 0,0 5.051,-4.575 11.563,-5.35 6.512,-0.776 12.466,2.215 12.466,2.215 0,0 -1.694,-5.139 -10.709,-4.48 -9.015,0.66 -15.916,7.598 -15.916,7.598 z"
                id="path22592" />
        </g>
        <g id="g22594" transform="matrix(1.333333, 0, 0, -1.333333, 53.675472, 73.009117)">
            <path style="fill:#42004d;fill-opacity:1;fill-rule:nonzero;stroke:none"
                d="m 0,0 c 0,0 -0.833,-2.089 -4.715,-3.316 -3.882,-1.228 -7.181,0.891 -10.393,2.719 0,0 5.702,-5.268 10.731,-4.268 5.028,1.001 6.594,5.086 6.594,5.086 z"
                id="path22596" />
        </g>
        <g id="g22598" transform="matrix(1.333333, 0, 0, -1.333333, 43.765316, 78.602043)">
            <path style="fill:#42004d;fill-opacity:1;fill-rule:nonzero;stroke:none"
                d="m 0,0 c 0,0 -3.638,-5.848 -12.438,-4.427 -8.799,1.422 -9.2,4.029 -9.2,4.029 0,0 5.959,-3.161 10.778,-2.731 4.819,0.43 8.468,3.49 8.468,3.49 z"
                id="path22600" />
        </g>
        <g id="g22602" transform="matrix(1.333333, 0, 0, -1.333333, 46.405697, -20.636389)">
            <path style="fill:#42004d;fill-opacity:1;fill-rule:nonzero;stroke:none"
                d="m 0,0 c 0,0 7.227,-5.699 5.608,-11.513 0,0 5.012,6.768 -5.608,11.513"
                id="path22604" />
        </g>
        <g id="g22606" transform="matrix(1.333333, 0, 0, -1.333333, 58.911861, -6.286475)">
            <path style="fill:#42004d;fill-opacity:1;fill-rule:nonzero;stroke:none"
                d="m 0,0 c 0,0 3.159,-3.557 1.011,-7.816 0,0 0.99,4.103 -1.011,7.816"
                id="path22608" />
        </g>
        <g id="g22610" transform="matrix(1.333333, 0, 0, -1.333333, 63.999691, 7.581048)">
            <path style="fill:#42004d;fill-opacity:1;fill-rule:nonzero;stroke:none"
                d="m 0,0 c 0,0 5.813,-4.791 1.825,-12.647 0,0 2.009,5.994 -1.825,12.647"
                id="path22612" />
        </g>
        <g id="g22614" transform="matrix(1.333333, 0, 0, -1.333333, 67.968933, 28.719233)">
            <path style="fill:#42004d;fill-opacity:1;fill-rule:nonzero;stroke:none"
                d="M 0,0 C 0,0 4.306,-3.784 0.423,-11.354 0.423,-11.354 2.6,-6.135 0,0"
                id="path22616" />
        </g>
        <g id="g22618" transform="matrix(1.333333, 0, 0, -1.333333, 26.131771, -32.403664)">
            <path style="fill:#42004d;fill-opacity:1;fill-rule:nonzero;stroke:none"
                d="m 0,0 c 0,0 -4.696,3.603 -8.771,-0.79 0,0 3.65,3.061 8.771,0.79"
                id="path22620" />
        </g>
        <g id="g22622" transform="matrix(1.333333, 0, 0, -1.333333, -38.742252, 27.388819)">
            <path style="fill:#42004d;fill-opacity:1;fill-rule:nonzero;stroke:none"
                d="m 0,0 c 0,0 -6.009,-14.234 2.918,-17.774 0,0 -4.306,0.612 -5.754,6.711 C -4.284,-4.964 0,0 0,0"
                id="path22624" />
        </g>
        <g id="g22626" transform="matrix(1.333333, 0, 0, -1.333333, -23.695072, 21.439783)">
            <path style="fill:#42004d;fill-opacity:1;fill-rule:nonzero;stroke:none"
                d="m 0,0 c 0,0 -9.604,-6.051 -10.204,-13.145 -0.601,-7.094 3.449,-9.813 3.449,-9.813 0,0 -5.709,1.904 -5.486,9.202 C -12.019,-6.458 0,0 0,0"
                id="path22628" />
        </g>
        <g id="g22630" transform="matrix(1.333333, 0, 0, -1.333333, -4.673466, 7.02572)">
            <path style="fill:#42004d;fill-opacity:1;fill-rule:nonzero;stroke:none"
                d="m 0,0 c 0,0 -4.324,0.036 -6.659,-4.026 0,0 -3.579,-0.756 -5.616,-4.538 0,0 -6.804,-2.484 -9.232,-6.447 0,0 4.4,2.461 7.927,1.488 0,0 4.383,5.057 7.468,5.347 0,0 2.701,6.646 6.839,6.808 z"
                id="path22632" />
        </g>
        <g id="g22634" transform="matrix(1.333333, 0, 0, -1.333333, -28.535954, 58.328606)">
            <path style="fill:#42004d;fill-opacity:1;fill-rule:nonzero;stroke:none"
                d="M 0,0 C 0,0 5.498,-8.818 15.753,-6.632 15.753,-6.632 6.034,-7.008 0,0"
                id="path22636" />
        </g>
        <g id="g22638" transform="matrix(1.333333, 0, 0, -1.333333, 47.431087, 17.20019)">
            <path style="fill:#42004d;fill-opacity:1;fill-rule:nonzero;stroke:none"
                d="m 0,0 c 0,0 4.69,-6.967 1.575,-11.39 0,0 1.968,4.65 -1.575,11.39"
                id="path22640" />
        </g>
        <g id="g22642" transform="matrix(1.333333, 0, 0, -1.333333, 29.478756, -3.467139)">
            <path style="fill:#42004d;fill-opacity:1;fill-rule:nonzero;stroke:none"
                d="m 0,0 c 0,0 8.135,-4.285 7.442,-8.108 -0.693,-3.824 -2.934,-4.813 -2.934,-4.813 0,0 4.47,1.594 3.732,5.75 C 7.501,-3.016 0,0 0,0"
                id="path22644" />
        </g>
        <g id="g22646" transform="matrix(1.333333, 0, 0, -1.333333, 29.033199, 15.357903)">
            <path style="fill:#42004d;fill-opacity:1;fill-rule:nonzero;stroke:none"
                d="m 0,0 c 0,0 4.76,-4.662 2.041,-8.713 -2.718,-4.05 -10.039,-1.424 -10.039,-1.424 0,0 7.554,-1.287 9.382,1.925 C 3.212,-5 0,0 0,0"
                id="path22648" />
        </g>
        <g id="g22650" transform="matrix(1.333333, 0, 0, -1.333333, 16.940304, 33.699699)">
            <path style="fill:#42004d;fill-opacity:1;fill-rule:nonzero;stroke:none"
                d="m 0,0 c 0,0 0.826,-4.446 -3.347,-5.761 -4.173,-1.314 -8.927,3.54 -8.927,3.54 0,0 5.347,-4.296 8.368,-2.946 C -0.885,-3.818 0,0 0,0"
                id="path22652" />
        </g>
        <g id="g22654" transform="matrix(1.333333, 0, 0, -1.333333, 2.21014, 46.06591)">
            <path style="fill:#42004d;fill-opacity:1;fill-rule:nonzero;stroke:none"
                d="m 0,0 c 0,0 -4.837,-4.178 -9.94,-1.331 0,0 4.573,-4.465 9.94,1.331"
                id="path22656" />
        </g>
        <g id="g22658" transform="matrix(1.333333, 0, 0, -1.333333, 25.953487, 53.325523)">
            <path style="fill:#42004d;fill-opacity:1;fill-rule:nonzero;stroke:none"
                d="m 0,0 c 0,0 0.052,-4.615 -4.238,-6.599 -4.289,-1.984 -8.631,0.648 -8.631,0.648 0,0 5.232,-1.794 8.468,0.318 C -1.165,-3.521 0,0 0,0"
                id="path22660" />
        </g>
        <g id="g22662" transform="matrix(1.333333, 0, 0, -1.333333, 10.711361, 65.67617)">
            <path style="fill:#42004d;fill-opacity:1;fill-rule:nonzero;stroke:none"
                d="M 0,0 C 0,0 -8.794,-1.558 -14.537,2.365 -14.537,2.365 -9.336,-3.56 0,0"
                id="path22664" />
        </g>
        <g id="g22666" transform="matrix(1.333333, 0, 0, -1.333333, 15.311214, 74.530846)">
            <path style="fill:#42004d;fill-opacity:1;fill-rule:nonzero;stroke:none"
                d="m 0,0 c 0,0 -7.043,-4.014 -16.225,0.591 0,0 6.942,-2.423 16.225,-0.591"
                id="path22668" />
        </g>
        <g id="g22670" transform="matrix(1.333333, 0, 0, -1.333333, 40.180416, 78.492912)">
            <path style="fill:#42004d;fill-opacity:1;fill-rule:nonzero;stroke:none"
                d="m 0,0 c 0,0 -4.639,-3.992 -11.873,-1.656 0,0 5.733,-1.136 11.873,1.656"
                id="path22672" />
        </g>
        <g id="g22674" transform="matrix(1.333333, 0, 0, -1.333333, 34.180111, 2.058587)">
            <path style="fill:#ffffff;fill-opacity:1;fill-rule:nonzero;stroke:none"
                d="M 0,0 C 0,0 4.021,-3.679 1.792,-4.284 -0.437,-4.889 2.048,-2.177 0,0"
                id="path22676" />
        </g>
        <g id="g22678" transform="matrix(1.333333, 0, 0, -1.333333, 26.961178, 16.063623)">
            <path style="fill:#ffffff;fill-opacity:1;fill-rule:nonzero;stroke:none"
                d="M 0,0 C 0,0 4.114,-3.778 2.542,-4.883 0.971,-5.989 2.229,-2.567 0,0"
                id="path22680" />
        </g>
        <g id="g22682" transform="matrix(1.333333, 0, 0, -1.333333, 13.618404, 37.571129)">
            <path style="fill:#ffffff;fill-opacity:1;fill-rule:nonzero;stroke:none"
                d="m 0,0 c 0,0 -2.038,-3.782 -6.827,-0.08 0,0 2.916,-2.108 6.827,0.08"
                id="path22684" />
        </g>
        <g id="g22686" transform="matrix(1.333333, 0, 0, -1.333333, -16.62183, 41.647301)">
            <path style="fill:#ffffff;fill-opacity:1;fill-rule:nonzero;stroke:none"
                d="M 0,0 C 0,0 1.902,-3.807 4.556,-5.041 7.21,-6.275 1.436,-6.484 0,0"
                id="path22688" />
        </g>
        <g id="g22690" transform="matrix(1.333333, 0, 0, -1.333333, 36.15234, 38.257957)">
            <path style="fill:#ffffff;fill-opacity:1;fill-rule:nonzero;stroke:none"
                d="M 0,0 C 0,0 2.438,-5.168 -0.781,-6.704 -4,-8.24 1.32,-3.981 0,0"
                id="path22692" />
        </g>
        <g id="g22694" transform="matrix(1.333333, 0, 0, -1.333333, 19.395748, 58.251793)">
            <path style="fill:#ffffff;fill-opacity:1;fill-rule:nonzero;stroke:none"
                d="m 0,0 c 0,0 -4.424,-3.229 -8.922,0.56 0,0 5.209,-2.561 8.922,-0.56"
                id="path22696" />
        </g>
        <g id="g22698" transform="matrix(1.333333, 0, 0, -1.333333, 48.687374, 22.236475)">
            <path style="fill:#ffffff;fill-opacity:1;fill-rule:nonzero;stroke:none"
                d="m 0,0 c 0,0 1.931,-6.018 -2.929,-7.792 0,0 3.813,2.094 2.929,7.792"
                id="path22700" />
        </g>
        <g id="g22702" transform="matrix(1.333333, 0, 0, -1.333333, 43.907955, 61.305656)">
            <path style="fill:#ffffff;fill-opacity:1;fill-rule:nonzero;stroke:none"
                d="M 0,0 C 0,0 -1.543,-3.317 -3.62,-2.1 -5.698,-0.884 -1.711,-2.543 0,0"
                id="path22704" />
        </g>
        <g id="g22706" transform="matrix(1.333333, 0, 0, -1.333333, 53.959469, 46.874504)">
            <path style="fill:#ffffff;fill-opacity:1;fill-rule:nonzero;stroke:none"
                d="M 0,0 C 0,0 0.564,-3.573 -2.329,-3.87 -5.221,-4.166 0.104,-2.887 0,0"
                id="path22708" />
        </g>
        <g id="g22710" transform="matrix(1.333333, 0, 0, -1.333333, 7.588559, -25.100592)">
            <path style="fill:#42004d;fill-opacity:1;fill-rule:nonzero;stroke:none"
                d="m 0,0 c 0,0 -7.55,2.251 -9.703,-5.204 -2.154,-7.456 2.231,-12.004 2.231,-12.004 l 1.593,0.404 c 0,0 0.933,3.73 3.437,6.711 l 2.95,3.694 c 0,0 -0.618,2.99 -0.508,6.399"
                id="path22712" />
        </g>
        <g id="g22714" transform="matrix(1.333333, 0, 0, -1.333333, -5.349369, -18.161779)">
            <path style="fill:#42004d;fill-opacity:1;fill-rule:nonzero;stroke:none"
                d="m 0,0 c 0,0 -5.411,1.378 -9.969,-6.269 -4.559,-7.646 6.379,-13.025 6.379,-13.025 0,0 1.781,1.675 3.37,1.771 0,0 1.79,3.656 4.044,5.923 0,0 -3.518,6.604 -3.824,11.6"
                id="path22716" />
        </g>
        <g id="g22718" transform="matrix(1.333333, 0, 0, -1.333333, -40.717045, 27.008295)">
            <path style="fill:#42004d;fill-opacity:1;fill-rule:nonzero;stroke:none"
                d="m 0,0 c 0,0 -3.901,4.444 1.189,10.633 0,0 3.739,13.87 14.083,12.69 0,0 6.677,-7.989 8.991,-7.771 0,0 -3.947,-1.754 -4.156,-3.91 0,0 -5.073,-0.855 -6.61,-3.98 C 13.497,7.662 6.592,8.161 0,0"
                id="path22720" />
        </g>
        <g id="g22722" transform="matrix(1.333333, 0, 0, -1.333333, 4.278988, -23.906744)">
            <path style="fill:#5d0b64;fill-opacity:1;fill-rule:nonzero;stroke:none"
                d="m 0,0 c 0,0 -5.622,0.027 -5.649,-5.595 -0.027,-5.622 2.521,-7.141 2.521,-7.141 0,0 -3.594,9.769 3.128,12.736"
                id="path22724" />
        </g>
        <g id="g22726" transform="matrix(1.333333, 0, 0, -1.333333, 9.179806, -27.025396)">
            <path style="fill:#5d0b64;fill-opacity:1;fill-rule:nonzero;stroke:none"
                d="M 0,0 C 0,0 -4.802,-6.197 -3.983,-12.422 L 0.95,-6.661 Z" id="path22728" />
        </g>
        <g id="g22730" transform="matrix(1.333333, 0, 0, -1.333333, -12.580387, 5.759423)">
            <path style="fill:#5d0b64;fill-opacity:1;fill-rule:nonzero;stroke:none"
                d="m 0,0 c 0,0 -7.104,8.146 -13.303,3.433 -6.199,-4.713 -5.021,-8.641 -5.021,-8.641 0,0 2.244,7.428 7.753,8.414 C -5.062,4.191 0,0 0,0"
                id="path22732" />
        </g>
        <g id="g22734" transform="matrix(1.333333, 0, 0, -1.333333, -20.880741, 13.195642)">
            <path style="fill:#5d0b64;fill-opacity:1;fill-rule:nonzero;stroke:none"
                d="m 0,0 c 0,0 -7.489,4.986 -13.339,-2.477 0,0 5.78,5.158 13.339,2.477"
                id="path22736" />
        </g>
        <g id="g22738" transform="matrix(1.333333, 0, 0, -1.333333, -6.151615, -15.958838)">
            <path style="fill:#742385;fill-opacity:1;fill-rule:nonzero;stroke:none"
                d="m 0,0 c 0,0 -2.148,-4.26 2.609,-9.018 0,0 -1.598,-0.384 -1.677,-2.977 0,0 -4.817,7.5 -0.932,11.995"
                id="path22740" />
        </g>
        <g id="g22742" transform="matrix(1.333333, 0, 0, -1.333333, -20.63599, 11.472985)">
            <path style="fill:#742385;fill-opacity:1;fill-rule:nonzero;stroke:none"
                d="m 0,0 c 0,0 -5.386,3.048 -9.934,0.447 0,0 5.081,5.9 9.934,-0.447"
                id="path22744" />
        </g>
        <g id="g22746" transform="matrix(1.333333, 0, 0, -1.333333, 5.629086, -24.057775)">
            <path style="fill:#742385;fill-opacity:1;fill-rule:nonzero;stroke:none"
                d="m 0,0 c 0,0 -3.126,-3.221 -2.14,-8.729 0,0 -3.57,5.875 2.14,8.729"
                id="path22748" />
        </g>
        <g id="g22750" transform="matrix(1.333333, 0, 0, -1.333333, -24.59412, 15.196923)">
            <path style="fill:#742385;fill-opacity:1;fill-rule:nonzero;stroke:none"
                d="m 0,0 c 0,0 -8.183,-0.423 -10.884,-5.483 0,0 1.84,6.768 10.884,5.483"
                id="path22752" />
        </g>
        <g id="g22754" transform="matrix(1.333333, 0, 0, -1.333333, -14.381596, -10.827308)">
            <path style="fill:#5d0b64;fill-opacity:1;fill-rule:nonzero;stroke:none"
                d="M 0,0 C 0,0 -3.065,-5.962 2.556,-10.747 2.556,-10.747 -7.927,-4.66 0,0"
                id="path22756" />
        </g>
        <g id="g22758" transform="matrix(1.333333, 0, 0, -1.333333, -43.722172, 41.698235)">
            <path style="fill:#00a551;fill-opacity:1;fill-rule:nonzero;stroke:none"
                d="m 0,0 c 0,0 -5.213,8.087 0.98,13.956 0,0 -5.792,2.137 -8.655,-2.937 0,0 0.045,12.117 15.063,20.314 0,0 9.49,2.775 8.635,6.55 -0.854,3.775 -13.849,11.93 -16.569,11.304 0,0 3.133,6.464 7.194,5.82 0,0 10.143,-5.003 14.355,-13.039 0,0 1.569,-2.326 3.721,0.576 2.152,2.902 4.655,12.809 15.739,18.595 0,0 -2.53,-4.85 -1.127,-7.288 0,0 7.282,9.989 15.957,9.314 0,0 -4.744,-6.585 -5.567,-8.59 0,0 9.721,0.998 14.753,-4.311 0,0 -13.493,-2.574 -17.484,-4.542 0,0 6.078,-3.635 6.674,-10.968 0,0 -13.57,1.482 -17.229,-0.261 0,0 3.122,-1.762 4.355,-3.589 0,0 -7.283,0.405 -8.114,-0.156 0,0 -8.541,-13.497 -6.06,-20.042 0,0 -5.472,4.528 -4.935,8.032 0,0 -10.968,-17.068 -8.046,-22.832 0,0 -7.277,9.353 -3.761,17.043 C 9.879,12.949 -1.26,6.885 0,0"
                id="path22760" />
        </g>
        <g id="g22762" transform="matrix(1.333333, 0, 0, -1.333333, -38.906498, -29.726416)">
            <path style="fill:#007035;fill-opacity:1;fill-rule:nonzero;stroke:none"
                d="m 0,0 c 0,0 6.001,-0.626 11.791,-6.974 5.79,-6.347 5.971,-7.733 7.094,-10.292 0,0 1.656,1.569 1.369,3.335 0,0 -2.104,2.347 -4.154,5.04 -2.653,3.487 -4.895,5.553 -7.703,7.619 C 5.403,0.931 2.593,1.297 2.593,1.297 2.593,1.297 0.72,1.391 0,0"
                id="path22764" />
        </g>
        <g id="g22766" transform="matrix(1.333333, 0, 0, -1.333333, -31.122196, -17.889013)">
            <path style="fill:#007035;fill-opacity:1;fill-rule:nonzero;stroke:none"
                d="m 0,0 c 0,0 8.243,-4.843 9.278,-10.177 0,0 -2.29,0.265 -2.681,1.962 0,0 1.304,2.538 -6.597,8.215"
                id="path22768" />
        </g>
        <g id="g22770" transform="matrix(1.333333, 0, 0, -1.333333, -53.955143, 27.006342)">
            <path style="fill:#007035;fill-opacity:1;fill-rule:nonzero;stroke:none"
                d="m 0,0 c 0,0 0.676,6.161 7.456,7.547 6.095,1.247 9.228,5.32 11.228,7.273 0,0 -1.908,-6.112 -10.029,-11.882 0,0 -5.84,0.665 -8.655,-2.938"
                id="path22772" />
        </g>
        <g id="g22774" transform="matrix(1.333333, 0, 0, -1.333333, 10.229122, -39.819832)">
            <path style="fill:#007035;fill-opacity:1;fill-rule:nonzero;stroke:none"
                d="m 0,0 c 0,0 -5.181,-4.45 -6.265,-9.102 -1.084,-4.652 -3.248,-8.373 -3.248,-8.373 0,0 8.062,8.921 8.386,10.188 0,0 -0.924,2.788 1.127,7.287"
                id="path22776" />
        </g>
        <g id="g22778" transform="matrix(1.333333, 0, 0, -1.333333, 2.901852, -17.519873)">
            <path style="fill:#007035;fill-opacity:1;fill-rule:nonzero;stroke:none"
                d="m 0,0 c 0,0 7.019,12.253 20.325,18.751 0,0 -5.319,-7.764 -5.567,-8.59 C 14.758,10.161 7.099,7.805 0,0"
                id="path22780" />
        </g>
        <g id="g22782" transform="matrix(1.333333, 0, 0, -1.333333, 2.134274, -14.187507)">
            <path style="fill:#007035;fill-opacity:1;fill-rule:nonzero;stroke:none"
                d="m 0,0 c 0,0 10.541,6.055 15.386,1.332 l -2.783,2.476 c 0,0 14.232,3.973 17.483,4.542 0,0 -9.408,1.678 -19.164,-2.189 C 1.166,2.295 0,0 0,0"
                id="path22784" />
        </g>
        <g id="g22786" transform="matrix(1.333333, 0, 0, -1.333333, -0.14014, -7.426124)">
            <path style="fill:#007035;fill-opacity:1;fill-rule:nonzero;stroke:none"
                d="m 0,0 3.754,-2.35 c 0,0 7.959,1.889 17.229,0.26 0,0 -9.808,6.311 -20.983,2.09"
                id="path22788" />
        </g>
        <g id="g22790" transform="matrix(1.333333, 0, 0, -1.333333, -21.657047, -2.963386)">
            <path style="fill:#007035;fill-opacity:1;fill-rule:nonzero;stroke:none"
                d="m 0,0 c 0,0 -14.677,-4.171 -18.969,-11.891 0,0 5.372,6.79 18.969,11.891"
                id="path22792" />
        </g>
        <g id="g22794" transform="matrix(1.333333, 0, 0, -1.333333, -7.65369, -12.007667)">
            <path style="fill:#007035;fill-opacity:1;fill-rule:nonzero;stroke:none"
                d="M 0,0 C 0,0 1.816,10.272 8.337,16.028 8.337,16.028 0.223,9.951 0,0"
                id="path22796" />
        </g>
        <g id="g22798" transform="matrix(1.333333, 0, 0, -1.333333, -1.885868, -13.88819)">
            <path style="fill:#007035;fill-opacity:1;fill-rule:nonzero;stroke:none"
                d="M 0,0 C 0,0 6.663,11.581 16.577,18.118 16.577,18.118 4.277,10.424 0,0"
                id="path22800" />
        </g>
        <g id="g22802" transform="matrix(1.333333, 0, 0, -1.333333, -6.384037, -8.039222)">
            <path style="fill:#007035;fill-opacity:1;fill-rule:nonzero;stroke:none"
                d="M 0,0 C 0,0 12.818,8.044 21.245,1.364 21.245,1.364 12.549,6.656 0,0"
                id="path22804" />
        </g>
        <g id="g22806" transform="matrix(1.333333, 0, 0, -1.333333, -11.384769, 15.840478)">
            <path style="fill:#007035;fill-opacity:1;fill-rule:nonzero;stroke:none"
                d="M 0,0 C 0,0 -3.189,6.292 2.286,13.152 2.286,13.152 -1.596,6.613 0,0"
                id="path22808" />
        </g>
        <g id="g22810" transform="matrix(1.333333, 0, 0, -1.333333, -28.584599, 32.067223)">
            <path style="fill:#007035;fill-opacity:1;fill-rule:nonzero;stroke:none"
                d="M 0,0 C 0,0 -1.821,9.628 10.455,21.829 10.455,21.829 0.083,10.159 0,0"
                id="path22812" />
        </g>
        <g id="g22814" transform="matrix(1.333333, 0, 0, -1.333333, -39.816532, 23.76156)">
            <path style="fill:#007035;fill-opacity:1;fill-rule:nonzero;stroke:none"
                d="m 0,0 c 0,0 4.051,0.923 11.49,10.013 7.439,9.089 8.268,9.648 8.268,9.648 0,0 -6.35,-5.339 -9.793,-9.622 C 6.521,5.756 0,0 0,0"
                id="path22816" />
        </g>
        <g id="g22818" transform="matrix(1.333333, 0, 0, -1.333333, -43.905399, 11.441735)">
            <path style="fill:#007035;fill-opacity:1;fill-rule:nonzero;stroke:none"
                d="M 0,0 C 0,0 8.9,8.265 18.422,10.467 18.422,10.467 4.588,4.151 0,0"
                id="path22820" />
        </g>
        <g id="g22822" transform="matrix(1.333333, 0, 0, -1.333333, -36.396549, -27.19776)">
            <path style="fill:#007035;fill-opacity:1;fill-rule:nonzero;stroke:none"
                d="M 0,0 C 0,0 10.901,-2.749 17.002,-15.37 17.002,-15.37 9.694,-3.865 0,0"
                id="path22824" />
        </g>
        <g id="g22826" transform="matrix(1.333333, 0, 0, -1.333333, -51.498112, 17.769861)">
            <path style="fill:#007035;fill-opacity:1;fill-rule:nonzero;stroke:none"
                d="m 0,0 c 0,0 7.826,14.327 24.559,16.567 l -1.954,2.451 C 22.605,19.018 7.267,15.156 0,0"
                id="path22828" />
        </g>
        <g id="g22830" transform="matrix(1.333333, 0, 0, -1.333333, -13.12891, -7.308936)">
            <path style="fill:#007035;fill-opacity:1;fill-rule:nonzero;stroke:none"
                d="m 0,0 c 0,0 2.605,5.527 4.899,10.844 2.293,5.317 5.431,8.489 12.27,13.102 0,0 -10.03,-4.353 -14.418,-13.495 C -1.637,1.309 -1.586,4.81 -1.586,4.81 Z"
                id="path22832" />
        </g>
        <g id="g22834" transform="matrix(1.333333, 0, 0, -1.333333, -43.636112, -23.922522)">
            <path style="fill:#005926;fill-opacity:1;fill-rule:nonzero;stroke:none"
                d="m 0,0 c 0,0 2.55,2.926 4.345,4.288 1.795,1.362 4.331,0.509 4.331,0.509 0,0 -1.121,2.109 -4.512,0.877 -3.391,-1.232 -5.723,-5.821 -5.723,-5.821 0,0 0.523,-0.552 1.559,0.147"
                id="path22836" />
        </g>
        <g id="g22838" transform="matrix(1.333333, 0, 0, -1.333333, -45.715153, -23.726233)">
            <path style="fill:#005926;fill-opacity:1;fill-rule:nonzero;stroke:none"
                d="m 0,0 c 0,0 9.841,-2.182 16.551,-8.889 0,0 -9.477,8.685 -15.27,9.225 z"
                id="path22840" />
        </g>
        <g id="g22842" transform="matrix(1.333333, 0, 0, -1.333333, -34.858646, -31.644049)">
            <path style="fill:#005926;fill-opacity:1;fill-rule:nonzero;stroke:none"
                d="m 0,0 c 0,0 8.399,-0.284 16.613,-15.701 0,0 -10.539,15.734 -17.296,15.021 z"
                id="path22844" />
        </g>
        <g id="g22846" transform="matrix(1.333333, 0, 0, -1.333333, 10.229122, -39.819832)">
            <path style="fill:#005926;fill-opacity:1;fill-rule:nonzero;stroke:none"
                d="m 0,0 c 0,0 -3.116,-4.942 -3.943,-8.968 -0.827,-4.026 -4.278,-6.957 -4.278,-6.957 0,0 5.755,6.083 7.094,8.638 0,0 -0.887,2.511 1.127,7.287"
                id="path22848" />
        </g>
        <g id="g22850" transform="matrix(1.333333, 0, 0, -1.333333, 7.867795, -22.3776)">
            <path style="fill:#005926;fill-opacity:1;fill-rule:nonzero;stroke:none"
                d="m 0,0 c 0,0 10.272,10.925 16.922,15.26 0,0 -5.847,-8.282 -5.889,-8.742 C 11.033,6.518 5.592,4.451 0,0"
                id="path22852" />
        </g>
        <g id="g22854" transform="matrix(1.333333, 0, 0, -1.333333, 8.610531, -17.551123)">
            <path style="fill:#005926;fill-opacity:1;fill-rule:nonzero;stroke:none"
                d="M 0,0 C 0,0 12.638,6.188 20.774,4.967 L 7.746,1.285 c 0,0 2.287,-0.624 4.405,-4.322 0,0 -4.99,5.832 -12.151,3.037"
                id="path22856" />
        </g>
        <g id="g22858" transform="matrix(1.333333, 0, 0, -1.333333, -53.830143, 26.680994)">
            <path style="fill:#005926;fill-opacity:1;fill-rule:nonzero;stroke:none"
                d="m 0,0 c 0,0 2.265,4.242 9.014,6.307 6.75,2.065 9.011,6.983 9.011,6.983 0,0 -3.571,-6.329 -6.18,-7.938 C 9.236,3.743 2.824,3.413 0,0"
                id="path22860" />
        </g>
        <g id="g22862" transform="matrix(1.333333, 0, 0, -1.333333, -28.299442, -4.614417)">
            <path style="fill:#005926;fill-opacity:1;fill-rule:nonzero;stroke:none"
                d="m 0,0 c 0,0 3.473,2.116 7.16,-0.221 0,0 -1.429,4.69 -5.883,7.717 0,0 3.123,-3.849 2.816,-4.735 C 3.786,1.875 1.171,1.393 0,0"
                id="path22864" />
        </g>
        <g id="g22866" transform="matrix(1.333333, 0, 0, -1.333333, -12.333866, -9.855811)">
            <path style="fill:#005926;fill-opacity:1;fill-rule:nonzero;stroke:none"
                d="m 0,0 c -0.088,0.242 0.698,5.447 2.724,9.15 0,0 -2.288,-3.202 -3.162,-5.148 C -1.311,2.056 -2.169,3.663 -2.169,3.663 Z"
                id="path22868" />
        </g>
        <g id="g22870" transform="matrix(1.333333, 0, 0, -1.333333, -48.728642, 12.785485)">
            <path style="fill:#005926;fill-opacity:1;fill-rule:nonzero;stroke:none"
                d="m 0,0 c 0,0 6.923,11.531 19.159,15.186 l 1.2,-0.774 C 20.359,14.412 9.311,12.237 0,0"
                id="path22872" />
        </g>
        <g id="g22874" transform="matrix(1.333333, 0, 0, -1.333333, -22.518559, -21.07926)">
            <path style="fill:#005926;fill-opacity:1;fill-rule:nonzero;stroke:none"
                d="m 0,0 c 0,0 5.853,-5.324 6.73,-10.312 0,0 0.258,0.4 0.583,1.147 0,0 -1.728,5.468 -7.313,9.165"
                id="path22876" />
        </g>
        <g id="g22878" transform="matrix(1.333333, 0, 0, -1.333333, -28.192142, 36.225426)">
            <path style="fill:#30b575;fill-opacity:1;fill-rule:nonzero;stroke:none"
                d="m 0,0 c 0,0 0.591,5.978 5.622,11.633 5.031,5.656 4.777,14.079 4.777,14.079 0,0 -8.302,-11.833 -9.385,-16.785 C -0.068,3.975 0,0 0,0"
                id="path22880" />
        </g>
        <g id="g22882" transform="matrix(1.333333, 0, 0, -1.333333, -43.661991, 13.689935)">
            <path style="fill:#30b575;fill-opacity:1;fill-rule:nonzero;stroke:none"
                d="m 0,0 c 0,0 6.892,7.665 16.767,10.908 0,0 -5.524,-4.329 -7.635,-7.16 C 7.021,0.917 0,0 0,0"
                id="path22884" />
        </g>
        <g id="g22886" transform="matrix(1.333333, 0, 0, -1.333333, -40.238529, -25.343115)">
            <path style="fill:#30b575;fill-opacity:1;fill-rule:nonzero;stroke:none"
                d="M 0,0 C 0,0 8.329,-1.619 17.357,-12.617 17.357,-12.617 7.333,3.137 0,0"
                id="path22888" />
        </g>
        <g id="g22890" transform="matrix(1.333333, 0, 0, -1.333333, -10.443424, 13.2622)">
            <path style="fill:#30b575;fill-opacity:1;fill-rule:nonzero;stroke:none"
                d="m 0,0 c 0,0 -1.244,7.805 2.746,13.513 0,0 3.843,-1.227 1.556,-5.585 C 2.014,3.57 0,0 0,0"
                id="path22892" />
        </g>
        <g id="g22894" transform="matrix(1.333333, 0, 0, -1.333333, -2.622379, -10.50962)">
            <path style="fill:#30b575;fill-opacity:1;fill-rule:nonzero;stroke:none"
                d="m 0,0 c 0,0 13.043,7.19 21.646,-2.286 0,0 -0.267,6.656 -8.131,7.583 C 5.652,6.225 0,0 0,0"
                id="path22896" />
        </g>
        <g id="g22898" transform="matrix(1.333333, 0, 0, -1.333333, -7.369693, -10.791999)">
            <path style="fill:#30b575;fill-opacity:1;fill-rule:nonzero;stroke:none"
                d="m 0,0 c 0,0 3.486,4.965 4.938,9.965 1.452,5.001 4.758,9.04 4.758,9.04 0,0 -5.835,-6.549 -7.245,-10.717 C 1.041,4.12 0,0 0,0"
                id="path22900" />
        </g>
        <g id="g22902" transform="matrix(1.333333, 0, 0, -1.333333, 11.245785, -21.741217)">
            <path style="fill:#30b575;fill-opacity:1;fill-rule:nonzero;stroke:none"
                d="M 0,0 C 0,0 10.456,6.852 21.662,3.354 21.662,3.354 10.102,12.444 0,0"
                id="path22904" />
        </g>
        <g id="g22906" transform="matrix(1.333333, 0, 0, -1.333333, -28.045719, 23.527826)">
            <path style="fill:#8dca80;fill-opacity:1;fill-rule:nonzero;stroke:none"
                d="M 0,0 C 0,0 2.558,9.768 9.509,15.26 9.509,15.26 1.377,10.177 0,0"
                id="path22908" />
        </g>
        <g id="g22910" transform="matrix(1.333333, 0, 0, -1.333333, -27.07056, 27.159021)">
            <path style="fill:#8dca80;fill-opacity:1;fill-rule:nonzero;stroke:none"
                d="M 0,0 C 0,0 3.018,10.279 8.532,16.41 8.532,16.41 0.851,9.319 0,0"
                id="path22912" />
        </g>
        <g id="g22914" transform="matrix(1.333333, 0, 0, -1.333333, -8.33704, -1.695655)">
            <path style="fill:#8dca80;fill-opacity:1;fill-rule:nonzero;stroke:none"
                d="m 0,0 c 0,0 -3.137,-9.655 -1.79,-15.079 0,0 -3.28,8.141 1.79,15.079"
                id="path22916" />
        </g>
        <g id="g22918" transform="matrix(1.333333, 0, 0, -1.333333, -4.126102, -9.361182)">
            <path style="fill:#8dca80;fill-opacity:1;fill-rule:nonzero;stroke:none"
                d="m 0,0 c 0,0 7.926,4.643 15.796,2.513 0,0 -4.774,2.308 -9.62,0.849 C 1.33,1.903 0,0 0,0"
                id="path22920" />
        </g>
        <g id="g22922" transform="matrix(1.333333, 0, 0, -1.333333, 7.252682, -19.315588)">
            <path style="fill:#8dca80;fill-opacity:1;fill-rule:nonzero;stroke:none"
                d="M 0,0 C 0,0 10.803,6.785 20.583,6.145 20.583,6.145 8.258,7.279 0,0"
                id="path22924" />
        </g>
        <g id="g22926" transform="matrix(1.333333, 0, 0, -1.333333, -50.384037, 18.626612)">
            <path style="fill:#8dca80;fill-opacity:1;fill-rule:nonzero;stroke:none"
                d="M 0,0 C 0,0 10.504,10.805 21.808,14.611 21.808,14.611 6.578,10.067 0,0"
                id="path22928" />
        </g>
        <g id="g22930" transform="matrix(1.333333, 0, 0, -1.333333, -39.596012, -26.178717)">
            <path style="fill:#8dca80;fill-opacity:1;fill-rule:nonzero;stroke:none"
                d="M 0,0 C 0,0 4.83,0.142 12.941,-8.158 12.941,-8.158 4.124,2.38 0,0"
                id="path22932" />
        </g>
        <g id="g22934" transform="matrix(1.333333, 0, 0, -1.333333, -7.656375, -6.84571)">
            <path style="fill:#005926;fill-opacity:1;fill-rule:nonzero;stroke:none"
                d="m 0,0 c 0,0 8.05,-1.204 4.937,-6.722 l -1.963,-4.541 c 0,0 2.564,4.544 1.162,7.218 C 2.735,-1.372 0,0 0,0"
                id="path22936" />
        </g>
        <g id="g22938" transform="matrix(1.333333, 0, 0, -1.333333, -4.45148, -6.863288)">
            <path style="fill:#005926;fill-opacity:1;fill-rule:nonzero;stroke:none"
                d="m 0,0 c 0,0 4.292,0.066 6.987,-1.928 0,0 10.812,1.47 15.257,0.247 0,0 -9.021,1.152 -13.182,1.361 C 4.901,-0.112 0,0 0,0"
                id="path22940" />
        </g>
        <g id="g22942" transform="matrix(1.333333, 0, 0, -1.333333, -4.45148, -6.863288)">
            <path style="fill:#005926;fill-opacity:1;fill-rule:nonzero;stroke:none"
                d="M 0,0 C 0,0 8.425,2.115 14.134,0.915 14.134,0.915 4.065,-0.625 0,0"
                id="path22944" />
        </g>
        <g id="g22946" transform="matrix(1.333333, 0, 0, -1.333333, -14.180424, -13.636237)">
            <path style="fill:#005926;fill-opacity:1;fill-rule:nonzero;stroke:none"
                d="m 0,0 c 0,0 3.098,-2.358 0.652,-5.214 0,0 1.237,2.191 -0.652,5.214"
                id="path22948" />
        </g>
        <g id="g22950" transform="matrix(1.333333, 0, 0, -1.333333, -20.781864, -7.775733)">
            <path style="fill:#005926;fill-opacity:1;fill-rule:nonzero;stroke:none"
                d="m 0,0 c 0,0 1.698,-3.076 4.497,-1.414 0,0 -2.483,-2.354 -5.044,-0.01 z"
                id="path22952" />
        </g>
        <g id="g22954" transform="matrix(1.333333, 0, 0, -1.333333, -21.389286, -8.97428)">
            <path style="fill:#005926;fill-opacity:1;fill-rule:nonzero;stroke:none"
                d="M 0,0 C 0,0 2.219,-3.177 4.207,-2.213 4.207,-2.213 1.218,-3.928 0,0"
                id="path22956" />
        </g>
        <g id="g22958" transform="matrix(1.333333, 0, 0, -1.333333, 7.317502, -30.04801)">
            <path style="fill:#005926;fill-opacity:1;fill-rule:nonzero;stroke:none"
                d="m 0,0 c 0,0 9.022,10.513 17.013,9.355 0,0 -8.552,-0.104 -17.057,-10.742 z"
                id="path22960" />
        </g>
        <g id="g22962" transform="matrix(1.333333, 0, 0, -1.333333, -4.156131, -14.869636)">
            <path style="fill:#00a551;fill-opacity:1;fill-rule:nonzero;stroke:none"
                d="m 0,0 c 0,0 7.061,11.549 15.561,16.83 0,0 0.482,0.627 4.097,2.085 0,0 -11.126,-6.752 -17.958,-19.2 z"
                id="path22964" />
        </g>
        <g id="g22966" transform="matrix(1.333333, 0, 0, -1.333333, -2.063053, -4.018073)">
            <path style="fill:#005926;fill-opacity:1;fill-rule:nonzero;stroke:none"
                d="m 0,0 c 0,0 5.455,-2.854 9.551,-3.383 0,0 -6.551,-3.188 -8.873,-0.08 0,0 0.75,2.24 -0.678,3.463"
                id="path22968" />
        </g>
        <g id="g22970" transform="matrix(1.333333, 0, 0, -1.333333, -5.519351, -6.310401)">
            <path style="fill:#30b575;fill-opacity:1;fill-rule:nonzero;stroke:none"
                d="m 0,0 c 0,0 2.673,-0.609 3.69,-2.788 1.017,-2.179 5.944,-2.776 8.126,-2.435 0,0 -2.799,1.58 -6.346,3.485 C 1.923,0.167 0,0 0,0"
                id="path22972" />
        </g>
        <g id="g22974" transform="matrix(1.333333, 0, 0, -1.333333, -7.373661, -7.271003)">
            <path style="fill:#007035;fill-opacity:1;fill-rule:nonzero;stroke:none"
                d="m 0,0 c 0,0 7.916,-2.124 13.207,-5.943 0,0 -2.471,2.604 -6.506,4.055 C 2.62,-0.419 0,0 0,0"
                id="path22976" />
        </g>
    </g>
</svg>