<?xml version="1.0" encoding="utf-8"?>
<svg viewBox="0 0 348 419" xmlns="http://www.w3.org/2000/svg">
    <g transform="matrix(1, 0, 0, 1, 10.246685, 1.176034)">
        <g transform="matrix(1.113632, 0, 0, 1.113632, -546.640076, -164.727829)">
            <path
                d="M531.807,216.695&#10;&#9;&#9;c-0.045,0-0.091-0.001-0.137-0.002c-6.889-0.265-29.366-2.021-29.366-13.498c0-11.599,23.728-12.5,31-12.5&#10;&#9;&#9;c1.933,0,3.499,1.566,3.5,3.499s-1.566,3.5-3.499,3.501c-12.926,0.007-24.001,3.03-24.001,5.5c0,2.842,11.211,6.063,22.634,6.502&#10;&#9;&#9;c1.932,0.074,3.438,1.701,3.363,3.632C535.23,215.215,533.678,216.695,531.807,216.695z"
                fill="none" stroke="#0E291C" stroke-miterlimit="10" stroke-width="22" />
        </g>
        <g transform="matrix(1.113632, 0, 0, 1.113632, -546.640076, -164.727829)">
            <path
                d="M531.807,234.695&#10;&#9;&#9;c-0.045,0-0.091-0.001-0.137-0.002c-6.889-0.265-29.366-2.021-29.366-13.498c0-11.599,23.728-12.5,31-12.5&#10;&#9;&#9;c1.933,0,3.499,1.566,3.5,3.499s-1.566,3.5-3.499,3.501c-12.926,0.007-24.001,3.03-24.001,5.5c0,2.842,11.211,6.063,22.634,6.502&#10;&#9;&#9;c1.932,0.074,3.438,1.701,3.363,3.632C535.23,233.215,533.678,234.695,531.807,234.695z"
                fill="none" stroke="#0E291C" stroke-miterlimit="10" stroke-width="22" />
        </g>
        <g transform="matrix(1.113632, 0, 0, 1.113632, -546.640076, -164.727829)">
            <path
                d="M531.807,252.695&#10;&#9;&#9;c-0.045,0-0.091-0.001-0.137-0.002c-6.889-0.265-29.366-2.021-29.366-13.498c0-11.599,23.728-12.5,31-12.5&#10;&#9;&#9;c1.933,0,3.499,1.566,3.5,3.499s-1.566,3.5-3.499,3.501c-12.926,0.007-24.001,3.03-24.001,5.5c0,2.842,11.211,6.063,22.634,6.502&#10;&#9;&#9;c1.932,0.074,3.438,1.701,3.363,3.632C535.23,251.215,533.678,252.695,531.807,252.695z"
                fill="none" stroke="#0E291C" stroke-miterlimit="10" stroke-width="22" />
        </g>
        <g transform="matrix(1.113632, 0, 0, 1.113632, -546.640076, -164.727829)">
            <path
                d="M531.807,270.695&#10;&#9;&#9;c-0.045,0-0.091-0.001-0.137-0.002c-6.889-0.265-29.366-2.021-29.366-13.498c0-11.599,23.728-12.5,31-12.5&#10;&#9;&#9;c1.933,0,3.499,1.566,3.5,3.499s-1.566,3.5-3.499,3.501c-12.926,0.007-24.001,3.03-24.001,5.5c0,2.842,11.211,6.063,22.634,6.502&#10;&#9;&#9;c1.932,0.074,3.438,1.701,3.363,3.632C535.23,269.215,533.678,270.695,531.807,270.695z"
                fill="none" stroke="#0E291C" stroke-miterlimit="10" stroke-width="22" />
        </g>
        <g transform="matrix(1.113632, 0, 0, 1.113632, -546.640076, -164.727829)">
            <path
                d="M531.807,288.695&#10;&#9;&#9;c-0.045,0-0.091-0.001-0.137-0.002c-6.889-0.265-29.366-2.021-29.366-13.498c0-11.599,23.728-12.5,31-12.5&#10;&#9;&#9;c1.933,0,3.499,1.566,3.5,3.499s-1.566,3.5-3.499,3.501c-12.926,0.007-24.001,3.03-24.001,5.5c0,2.842,11.211,6.063,22.634,6.502&#10;&#9;&#9;c1.932,0.074,3.438,1.701,3.363,3.632C535.23,287.215,533.678,288.695,531.807,288.695z"
                fill="none" stroke="#0E291C" stroke-miterlimit="10" stroke-width="22" />
        </g>
        <g transform="matrix(1.113632, 0, 0, 1.113632, -546.640076, -164.727829)">
            <path
                d="M531.807,306.695&#10;&#9;&#9;c-0.045,0-0.091-0.001-0.137-0.002c-6.889-0.265-29.366-2.021-29.366-13.498c0-11.599,23.728-12.5,31-12.5&#10;&#9;&#9;c1.933,0,3.499,1.566,3.5,3.499s-1.566,3.5-3.499,3.501c-12.926,0.007-24.001,3.03-24.001,5.5c0,2.842,11.211,6.063,22.634,6.502&#10;&#9;&#9;c1.932,0.074,3.438,1.701,3.363,3.632C535.23,305.215,533.678,306.695,531.807,306.695z"
                fill="none" stroke="#0E291C" stroke-miterlimit="10" stroke-width="22" />
        </g>
        <g transform="matrix(1.113632, 0, 0, 1.113632, -546.640076, -164.727829)">
            <path
                d="M531.807,324.695&#10;&#9;&#9;c-0.045,0-0.091-0.001-0.137-0.002c-6.889-0.265-29.366-2.021-29.366-13.498c0-11.599,23.728-12.5,31-12.5&#10;&#9;&#9;c1.933,0,3.499,1.566,3.5,3.499s-1.566,3.5-3.499,3.501c-12.926,0.007-24.001,3.03-24.001,5.5c0,2.842,11.211,6.063,22.634,6.502&#10;&#9;&#9;c1.932,0.074,3.438,1.701,3.363,3.632C535.23,323.215,533.678,324.695,531.807,324.695z"
                fill="none" stroke="#0E291C" stroke-miterlimit="10" stroke-width="22" />
        </g>
        <g transform="matrix(1.113632, 0, 0, 1.113632, -546.640076, -164.727829)">
            <path
                d="M531.807,342.695&#10;&#9;&#9;c-0.045,0-0.091-0.001-0.137-0.002c-6.889-0.265-29.366-2.021-29.366-13.498c0-11.599,23.728-12.5,31-12.5&#10;&#9;&#9;c1.933,0,3.499,1.566,3.5,3.499s-1.566,3.5-3.499,3.501c-12.926,0.007-24.001,3.03-24.001,5.5c0,2.842,11.211,6.063,22.634,6.502&#10;&#9;&#9;c1.932,0.074,3.438,1.701,3.363,3.632C535.23,341.215,533.678,342.695,531.807,342.695z"
                fill="none" stroke="#0E291C" stroke-miterlimit="10" stroke-width="22" />
        </g>
        <g transform="matrix(1.113632, 0, 0, 1.113632, -546.640076, -164.727829)">
            <path
                d="M531.807,360.695&#10;&#9;&#9;c-0.045,0-0.091-0.001-0.137-0.002c-6.889-0.265-29.366-2.021-29.366-13.498c0-11.599,23.728-12.5,31-12.5&#10;&#9;&#9;c1.933,0,3.499,1.566,3.5,3.499s-1.566,3.5-3.499,3.501c-12.926,0.007-24.001,3.03-24.001,5.5c0,2.842,11.211,6.063,22.634,6.502&#10;&#9;&#9;c1.932,0.074,3.438,1.701,3.363,3.632C535.23,359.215,533.678,360.695,531.807,360.695z"
                fill="none" stroke="#0E291C" stroke-miterlimit="10" stroke-width="22" />
        </g>
        <g transform="matrix(1.113632, 0, 0, 1.113632, -546.640076, -164.727829)">
            <path
                d="M531.807,378.695&#10;&#9;&#9;c-0.045,0-0.091-0.001-0.137-0.002c-6.889-0.265-29.366-2.021-29.366-13.498c0-11.599,23.728-12.5,31-12.5&#10;&#9;&#9;c1.933,0,3.499,1.566,3.5,3.499s-1.566,3.5-3.499,3.501c-12.926,0.007-24.001,3.03-24.001,5.5c0,2.842,11.211,6.063,22.634,6.502&#10;&#9;&#9;c1.932,0.074,3.438,1.701,3.363,3.632C535.23,377.215,533.678,378.695,531.807,378.695z"
                fill="none" stroke="#0E291C" stroke-miterlimit="10" stroke-width="22" />
        </g>
        <g transform="matrix(1.113632, 0, 0, 1.113632, -546.640076, -164.727829)">
            <path
                d="M531.807,396.695&#10;&#9;&#9;c-0.045,0-0.091-0.001-0.137-0.002c-6.889-0.265-29.366-2.021-29.366-13.498c0-11.599,23.728-12.5,31-12.5&#10;&#9;&#9;c1.933,0,3.499,1.566,3.5,3.499s-1.566,3.5-3.499,3.501c-12.926,0.007-24.001,3.03-24.001,5.5c0,2.842,11.211,6.063,22.634,6.502&#10;&#9;&#9;c1.932,0.074,3.438,1.701,3.363,3.632C535.23,395.215,533.678,396.695,531.807,396.695z"
                fill="none" stroke="#0E291C" stroke-miterlimit="10" stroke-width="22" />
        </g>
        <g transform="matrix(1.113632, 0, 0, 1.113632, -546.640076, -164.727829)">
            <path
                d="M531.807,414.695&#10;&#9;&#9;c-0.045,0-0.091-0.001-0.137-0.002c-6.889-0.265-29.366-2.021-29.366-13.498c0-11.599,23.728-12.5,31-12.5&#10;&#9;&#9;c1.933,0,3.499,1.566,3.5,3.499s-1.566,3.5-3.499,3.501c-12.926,0.007-24.001,3.03-24.001,5.5c0,2.842,11.211,6.063,22.634,6.502&#10;&#9;&#9;c1.932,0.074,3.438,1.701,3.363,3.632C535.23,413.215,533.678,414.695,531.807,414.695z"
                fill="none" stroke="#0E291C" stroke-miterlimit="10" stroke-width="22" />
        </g>
        <g transform="matrix(1.113632, 0, 0, 1.113632, -546.640076, -164.727829)">
            <path
                d="M531.807,432.695&#10;&#9;&#9;c-0.045,0-0.091-0.001-0.137-0.002c-6.889-0.265-29.366-2.021-29.366-13.498c0-11.599,23.728-12.5,31-12.5&#10;&#9;&#9;c1.933,0,3.499,1.566,3.5,3.499s-1.566,3.5-3.499,3.501c-12.926,0.007-24.001,3.03-24.001,5.5c0,2.842,11.211,6.063,22.634,6.502&#10;&#9;&#9;c1.932,0.074,3.438,1.701,3.363,3.632C535.23,431.215,533.678,432.695,531.807,432.695z"
                fill="none" stroke="#0E291C" stroke-miterlimit="10" stroke-width="22" />
        </g>
        <g transform="matrix(1.113632, 0, 0, 1.113632, -546.640076, -164.727829)">
            <path
                d="M531.807,450.695&#10;&#9;&#9;c-0.045,0-0.091-0.001-0.137-0.002c-6.889-0.265-29.366-2.021-29.366-13.498c0-11.599,23.728-12.5,31-12.5&#10;&#9;&#9;c1.933,0,3.499,1.566,3.5,3.499s-1.566,3.5-3.499,3.501c-12.926,0.007-24.001,3.03-24.001,5.5c0,2.842,11.211,6.063,22.634,6.502&#10;&#9;&#9;c1.932,0.074,3.438,1.701,3.363,3.632C535.23,449.215,533.678,450.695,531.807,450.695z"
                fill="none" stroke="#0E291C" stroke-miterlimit="10" stroke-width="22" />
        </g>
        <g transform="matrix(1.113632, 0, 0, 1.113632, -546.640076, -164.727829)">
            <path
                d="M531.807,470.195&#10;&#9;&#9;c-0.045,0-0.091-0.001-0.137-0.002c-6.889-0.265-29.366-2.021-29.366-13.498c0-11.599,23.728-12.5,31-12.5&#10;&#9;&#9;c1.933,0,3.499,1.566,3.5,3.499s-1.566,3.5-3.499,3.501c-12.926,0.007-24.001,3.03-24.001,5.5c0,2.842,11.211,6.063,22.634,6.502&#10;&#9;&#9;c1.932,0.074,3.438,1.701,3.363,3.632C535.23,468.715,533.678,470.195,531.807,470.195z"
                fill="none" stroke="#0E291C" stroke-miterlimit="10" stroke-width="22" />
        </g>
        <path
            d="M 325.674 382.84 C 325.674 394.526 316.2 404 304.514 404 L 47.265 404 C 35.58 404 26.106 394.526 26.106 382.84 L 26.106 33.16 C 26.106 21.475 35.58 12.001 47.265 12.001 L 304.514 12.001 C 316.2 12.001 325.674 21.475 325.674 33.16 L 325.674 382.84 Z"
            fill="none" stroke="#0E281B" stroke-miterlimit="10" stroke-width="24" />
        <path
            d="M 325.674 382.84 C 325.674 394.526 316.2 404 304.514 404 L 47.265 404 C 35.58 404 26.106 394.526 26.106 382.84 L 26.106 33.16 C 26.106 21.475 35.58 12.001 47.265 12.001 L 304.514 12.001 C 316.2 12.001 325.674 21.475 325.674 33.16 L 325.674 382.84 Z"
            fill="#EC008C" />
        <g transform="matrix(1.113632, 0, 0, 1.113632, -546.640076, -164.727829)">
            <g>
                <path
                    d="M764.305,165.695c6.617,0,12,5.383,12,12v314c0,6.617-5.383,12-12,12h-231c-6.617,0-12-5.383-12-12v-314&#10;&#9;&#9;&#9;c0-6.617,5.383-12,12-12H764.305 M764.305,158.695h-231c-10.493,0-19,8.507-19,19v314c0,10.493,8.507,19,19,19h231&#10;&#9;&#9;&#9;c10.493,0,19-8.507,19-19v-314C783.305,167.202,774.798,158.695,764.305,158.695L764.305,158.695z"
                    fill="#A90065" />
            </g>
        </g>
        <circle cx="48.936" cy="52.649" fill="#6B003F" r="7.796" />
        <circle cx="48.936" cy="72.191" fill="#6B003F" r="7.796"
            transform="matrix(1, 0, 0, 0.999999, 0, 0.503176)" />
        <circle cx="46.755" cy="89.465" fill="#6B003F" r="7.456"
            transform="matrix(1.045578, 0, 0, 1.045579, 0.049676, -0.803394)" />
        <circle cx="48.936" cy="112.281" fill="#6B003F" r="7.796"
            transform="matrix(1, 0, 0, 0.999999, 0, 0.503215)" />
        <circle cx="46.755" cy="127.808" fill="#6B003F" r="7.456"
            transform="matrix(1.045578, 0, 0, 1.045577, 0.049676, -0.803169)" />
        <circle cx="48.936" cy="152.876" fill="#6B003F" r="7.796" />
        <circle cx="48.156" cy="172.942" fill="#6B003F" r="7.796"
            transform="matrix(1, 0, 0, 0.999998, 0.779943, -0.02057)" />
        <circle cx="48.156" cy="192.988" fill="#6B003F" r="7.796"
            transform="matrix(1, 0, 0, 0.999998, 0.779943, -0.020531)" />
        <circle cx="48.936" cy="213.011" fill="#6B003F" r="7.796" />
        <circle cx="48.936" cy="233.057" fill="#6B003F" r="7.796" />
        <circle cx="48.156" cy="253.123" fill="#6B003F" r="7.796"
            transform="matrix(1, 0, 0, 0.999998, 0.779943, -0.020413)" />
        <circle cx="48.156" cy="273.169" fill="#6B003F" r="7.796"
            transform="matrix(1, 0, 0, 1.000004, 0.779943, -0.021947)" />
        <circle cx="48.156" cy="293.214" fill="#6B003F" r="7.796"
            transform="matrix(1, 0, 0, 1.000004, 0.779943, -0.022026)" />
        <circle cx="578.701" cy="288.267" fill="#6B003F" r="7"
            transform="matrix(1.113632, 0, 0, 1.113634, -595.523682, -7.786573)" />
        <circle cx="48.936" cy="333.284" fill="#6B003F" r="7.796" />
        <circle cx="48.936" cy="353.329" fill="#6B003F" r="7.796" />
        <g transform="matrix(1.113632, 0, 0, 1.113632, -546.640076, -164.727829)">
            <g opacity="0.5">
                <path
                    d="M531.141,219.362c-0.045,0-0.091-0.001-0.137-0.002c-6.889-0.265-29.366-2.021-29.366-13.498&#10;&#9;&#9;&#9;c0-11.599,23.728-12.5,31-12.5c1.933,0,3.499,1.566,3.5,3.499s-1.566,3.5-3.499,3.501c-12.926,0.007-24.001,3.03-24.001,5.5&#10;&#9;&#9;&#9;c0,2.842,11.211,6.063,22.634,6.502c1.932,0.074,3.438,1.701,3.363,3.632C534.563,217.882,533.011,219.362,531.141,219.362z"
                    fill="#086597" />
            </g>
            <g opacity="0.5">
                <path
                    d="M531.141,237.362c-0.045,0-0.091-0.001-0.137-0.002c-6.889-0.265-29.366-2.021-29.366-13.498&#10;&#9;&#9;&#9;c0-11.599,23.728-12.5,31-12.5c1.933,0,3.499,1.566,3.5,3.499s-1.566,3.5-3.499,3.501c-12.926,0.007-24.001,3.03-24.001,5.5&#10;&#9;&#9;&#9;c0,2.842,11.211,6.063,22.634,6.502c1.932,0.074,3.438,1.701,3.363,3.632C534.563,235.882,533.011,237.362,531.141,237.362z"
                    fill="#086597" />
            </g>
            <g opacity="0.5">
                <path
                    d="M531.141,255.362c-0.045,0-0.091-0.001-0.137-0.002c-6.889-0.265-29.366-2.021-29.366-13.498&#10;&#9;&#9;&#9;c0-11.599,23.728-12.5,31-12.5c1.933,0,3.499,1.566,3.5,3.499s-1.566,3.5-3.499,3.501c-12.926,0.007-24.001,3.03-24.001,5.5&#10;&#9;&#9;&#9;c0,2.842,11.211,6.063,22.634,6.502c1.932,0.074,3.438,1.701,3.363,3.632C534.563,253.882,533.011,255.362,531.141,255.362z"
                    fill="#086597" />
            </g>
            <g opacity="0.5">
                <path
                    d="M531.141,273.362c-0.045,0-0.091-0.001-0.137-0.002c-6.889-0.265-29.366-2.021-29.366-13.498&#10;&#9;&#9;&#9;c0-11.599,23.728-12.5,31-12.5c1.933,0,3.499,1.566,3.5,3.499s-1.566,3.5-3.499,3.501c-12.926,0.007-24.001,3.03-24.001,5.5&#10;&#9;&#9;&#9;c0,2.842,11.211,6.063,22.634,6.502c1.932,0.074,3.438,1.701,3.363,3.632C534.563,271.882,533.011,273.362,531.141,273.362z"
                    fill="#086597" />
            </g>
            <g opacity="0.5">
                <path
                    d="M531.141,291.362c-0.045,0-0.091-0.001-0.137-0.002c-6.889-0.265-29.366-2.021-29.366-13.498&#10;&#9;&#9;&#9;c0-11.599,23.728-12.5,31-12.5c1.933,0,3.499,1.566,3.5,3.499s-1.566,3.5-3.499,3.501c-12.926,0.007-24.001,3.03-24.001,5.5&#10;&#9;&#9;&#9;c0,2.842,11.211,6.063,22.634,6.502c1.932,0.074,3.438,1.701,3.363,3.632C534.563,289.882,533.011,291.362,531.141,291.362z"
                    fill="#086597" />
            </g>
            <g opacity="0.5">
                <path
                    d="M531.141,309.362c-0.045,0-0.091-0.001-0.137-0.002c-6.889-0.265-29.366-2.021-29.366-13.498&#10;&#9;&#9;&#9;c0-11.599,23.728-12.5,31-12.5c1.933,0,3.499,1.566,3.5,3.499s-1.566,3.5-3.499,3.501c-12.926,0.007-24.001,3.03-24.001,5.5&#10;&#9;&#9;&#9;c0,2.842,11.211,6.063,22.634,6.502c1.932,0.074,3.438,1.701,3.363,3.632C534.563,307.882,533.011,309.362,531.141,309.362z"
                    fill="#086597" />
            </g>
            <g opacity="0.5">
                <path
                    d="M531.141,327.362c-0.045,0-0.091-0.001-0.137-0.002c-6.889-0.265-29.366-2.021-29.366-13.498&#10;&#9;&#9;&#9;c0-11.599,23.728-12.5,31-12.5c1.933,0,3.499,1.566,3.5,3.499s-1.566,3.5-3.499,3.501c-12.926,0.007-24.001,3.03-24.001,5.5&#10;&#9;&#9;&#9;c0,2.842,11.211,6.063,22.634,6.502c1.932,0.074,3.438,1.701,3.363,3.632C534.563,325.882,533.011,327.362,531.141,327.362z"
                    fill="#086597" />
            </g>
            <g opacity="0.5">
                <path
                    d="M531.141,345.362c-0.045,0-0.091-0.001-0.137-0.002c-6.889-0.265-29.366-2.021-29.366-13.498&#10;&#9;&#9;&#9;c0-11.599,23.728-12.5,31-12.5c1.933,0,3.499,1.566,3.5,3.499s-1.566,3.5-3.499,3.501c-12.926,0.007-24.001,3.03-24.001,5.5&#10;&#9;&#9;&#9;c0,2.842,11.211,6.063,22.634,6.502c1.932,0.074,3.438,1.701,3.363,3.632C534.563,343.882,533.011,345.362,531.141,345.362z"
                    fill="#086597" />
            </g>
            <g opacity="0.5">
                <path
                    d="M531.141,363.362c-0.045,0-0.091-0.001-0.137-0.002c-6.889-0.265-29.366-2.021-29.366-13.498&#10;&#9;&#9;&#9;c0-11.599,23.728-12.5,31-12.5c1.933,0,3.499,1.566,3.5,3.499s-1.566,3.5-3.499,3.501c-12.926,0.007-24.001,3.03-24.001,5.5&#10;&#9;&#9;&#9;c0,2.842,11.211,6.063,22.634,6.502c1.932,0.074,3.438,1.701,3.363,3.632C534.563,361.882,533.011,363.362,531.141,363.362z"
                    fill="#086597" />
            </g>
            <g opacity="0.5">
                <path
                    d="M531.141,381.362c-0.045,0-0.091-0.001-0.137-0.002c-6.889-0.265-29.366-2.021-29.366-13.498&#10;&#9;&#9;&#9;c0-11.599,23.728-12.5,31-12.5c1.933,0,3.499,1.566,3.5,3.499s-1.566,3.5-3.499,3.501c-12.926,0.007-24.001,3.03-24.001,5.5&#10;&#9;&#9;&#9;c0,2.842,11.211,6.063,22.634,6.502c1.932,0.074,3.438,1.701,3.363,3.632C534.563,379.882,533.011,381.362,531.141,381.362z"
                    fill="#086597" />
            </g>
            <g opacity="0.5">
                <path
                    d="M531.141,399.362c-0.045,0-0.091-0.001-0.137-0.002c-6.889-0.265-29.366-2.021-29.366-13.498&#10;&#9;&#9;&#9;c0-11.599,23.728-12.5,31-12.5c1.933,0,3.499,1.566,3.5,3.499s-1.566,3.5-3.499,3.501c-12.926,0.007-24.001,3.03-24.001,5.5&#10;&#9;&#9;&#9;c0,2.842,11.211,6.063,22.634,6.502c1.932,0.074,3.438,1.701,3.363,3.632C534.563,397.882,533.011,399.362,531.141,399.362z"
                    fill="#086597" />
            </g>
            <g opacity="0.5">
                <path
                    d="M531.141,417.362c-0.045,0-0.091-0.001-0.137-0.002c-6.889-0.265-29.366-2.021-29.366-13.498&#10;&#9;&#9;&#9;c0-11.599,23.728-12.5,31-12.5c1.933,0,3.499,1.566,3.5,3.499s-1.566,3.5-3.499,3.501c-12.926,0.007-24.001,3.03-24.001,5.5&#10;&#9;&#9;&#9;c0,2.842,11.211,6.063,22.634,6.502c1.932,0.074,3.438,1.701,3.363,3.632C534.563,415.882,533.011,417.362,531.141,417.362z"
                    fill="#086597" />
            </g>
            <g opacity="0.5">
                <path
                    d="M531.141,435.362c-0.045,0-0.091-0.001-0.137-0.002c-6.889-0.265-29.366-2.021-29.366-13.498&#10;&#9;&#9;&#9;c0-11.599,23.728-12.5,31-12.5c1.933,0,3.499,1.566,3.5,3.499s-1.566,3.5-3.499,3.501c-12.926,0.007-24.001,3.03-24.001,5.5&#10;&#9;&#9;&#9;c0,2.842,11.211,6.063,22.634,6.502c1.932,0.074,3.438,1.701,3.363,3.632C534.563,433.882,533.011,435.362,531.141,435.362z"
                    fill="#086597" />
            </g>
            <g opacity="0.5">
                <path
                    d="M531.141,453.362c-0.045,0-0.091-0.001-0.137-0.002c-6.889-0.265-29.366-2.021-29.366-13.498&#10;&#9;&#9;&#9;c0-11.599,23.728-12.5,31-12.5c1.933,0,3.499,1.566,3.5,3.499s-1.566,3.5-3.499,3.501c-12.926,0.007-24.001,3.03-24.001,5.5&#10;&#9;&#9;&#9;c0,2.842,11.211,6.063,22.634,6.502c1.932,0.074,3.438,1.701,3.363,3.632C534.563,451.882,533.011,453.362,531.141,453.362z"
                    fill="#086597" />
            </g>
            <g opacity="0.5">
                <path
                    d="M531.141,472.862c-0.045,0-0.091-0.001-0.137-0.002c-6.889-0.265-29.366-2.021-29.366-13.498&#10;&#9;&#9;&#9;c0-11.599,23.728-12.5,31-12.5c1.933,0,3.499,1.566,3.5,3.499s-1.566,3.5-3.499,3.501c-12.926,0.007-24.001,3.03-24.001,5.5&#10;&#9;&#9;&#9;c0,2.842,11.211,6.063,22.634,6.502c1.932,0.074,3.438,1.701,3.363,3.632C534.563,471.382,533.011,472.862,531.141,472.862z"
                    fill="#086597" />
            </g>
        </g>
        <g transform="matrix(1.113632, 0, 0, 1.113632, -546.640076, -164.727829)">
            <path
                d="M531.807,216.695c-0.045,0-0.091-0.001-0.137-0.002&#10;&#9;&#9;c-6.889-0.265-29.366-2.021-29.366-13.498c0-11.599,23.728-12.5,31-12.5c1.933,0,3.499,1.566,3.5,3.499s-1.566,3.5-3.499,3.501&#10;&#9;&#9;c-12.926,0.007-24.001,3.03-24.001,5.5c0,2.842,11.211,6.063,22.634,6.502c1.932,0.074,3.438,1.701,3.363,3.632&#10;&#9;&#9;C535.23,215.215,533.678,216.695,531.807,216.695z"
                fill="#9C9EA1" stroke="#67686B" stroke-miterlimit="10" />
        </g>
        <g transform="matrix(1.113632, 0, 0, 1.113632, -546.640076, -164.727829)">
            <path
                d="M531.807,234.695c-0.045,0-0.091-0.001-0.137-0.002&#10;&#9;&#9;c-6.889-0.265-29.366-2.021-29.366-13.498c0-11.599,23.728-12.5,31-12.5c1.933,0,3.499,1.566,3.5,3.499s-1.566,3.5-3.499,3.501&#10;&#9;&#9;c-12.926,0.007-24.001,3.03-24.001,5.5c0,2.842,11.211,6.063,22.634,6.502c1.932,0.074,3.438,1.701,3.363,3.632&#10;&#9;&#9;C535.23,233.215,533.678,234.695,531.807,234.695z"
                fill="#9C9EA1" stroke="#67686B" stroke-miterlimit="10" />
        </g>
        <g transform="matrix(1.113632, 0, 0, 1.113632, -546.640076, -164.727829)">
            <path
                d="M531.807,252.695c-0.045,0-0.091-0.001-0.137-0.002&#10;&#9;&#9;c-6.889-0.265-29.366-2.021-29.366-13.498c0-11.599,23.728-12.5,31-12.5c1.933,0,3.499,1.566,3.5,3.499s-1.566,3.5-3.499,3.501&#10;&#9;&#9;c-12.926,0.007-24.001,3.03-24.001,5.5c0,2.842,11.211,6.063,22.634,6.502c1.932,0.074,3.438,1.701,3.363,3.632&#10;&#9;&#9;C535.23,251.215,533.678,252.695,531.807,252.695z"
                fill="#9C9EA1" stroke="#67686B" stroke-miterlimit="10" />
        </g>
        <g transform="matrix(1.113632, 0, 0, 1.113632, -546.640076, -164.727829)">
            <path
                d="M531.807,270.695c-0.045,0-0.091-0.001-0.137-0.002&#10;&#9;&#9;c-6.889-0.265-29.366-2.021-29.366-13.498c0-11.599,23.728-12.5,31-12.5c1.933,0,3.499,1.566,3.5,3.499s-1.566,3.5-3.499,3.501&#10;&#9;&#9;c-12.926,0.007-24.001,3.03-24.001,5.5c0,2.842,11.211,6.063,22.634,6.502c1.932,0.074,3.438,1.701,3.363,3.632&#10;&#9;&#9;C535.23,269.215,533.678,270.695,531.807,270.695z"
                fill="#9C9EA1" stroke="#67686B" stroke-miterlimit="10" />
        </g>
        <g transform="matrix(1.113632, 0, 0, 1.113632, -546.640076, -164.727829)">
            <path
                d="M531.807,288.695c-0.045,0-0.091-0.001-0.137-0.002&#10;&#9;&#9;c-6.889-0.265-29.366-2.021-29.366-13.498c0-11.599,23.728-12.5,31-12.5c1.933,0,3.499,1.566,3.5,3.499s-1.566,3.5-3.499,3.501&#10;&#9;&#9;c-12.926,0.007-24.001,3.03-24.001,5.5c0,2.842,11.211,6.063,22.634,6.502c1.932,0.074,3.438,1.701,3.363,3.632&#10;&#9;&#9;C535.23,287.215,533.678,288.695,531.807,288.695z"
                fill="#9C9EA1" stroke="#67686B" stroke-miterlimit="10" />
        </g>
        <g transform="matrix(1.113632, 0, 0, 1.113632, -546.640076, -164.727829)">
            <path
                d="M531.807,306.695c-0.045,0-0.091-0.001-0.137-0.002&#10;&#9;&#9;c-6.889-0.265-29.366-2.021-29.366-13.498c0-11.599,23.728-12.5,31-12.5c1.933,0,3.499,1.566,3.5,3.499s-1.566,3.5-3.499,3.501&#10;&#9;&#9;c-12.926,0.007-24.001,3.03-24.001,5.5c0,2.842,11.211,6.063,22.634,6.502c1.932,0.074,3.438,1.701,3.363,3.632&#10;&#9;&#9;C535.23,305.215,533.678,306.695,531.807,306.695z"
                fill="#9C9EA1" stroke="#67686B" stroke-miterlimit="10" />
        </g>
        <g transform="matrix(1.113632, 0, 0, 1.113632, -546.640076, -164.727829)">
            <path
                d="M531.807,324.695c-0.045,0-0.091-0.001-0.137-0.002&#10;&#9;&#9;c-6.889-0.265-29.366-2.021-29.366-13.498c0-11.599,23.728-12.5,31-12.5c1.933,0,3.499,1.566,3.5,3.499s-1.566,3.5-3.499,3.501&#10;&#9;&#9;c-12.926,0.007-24.001,3.03-24.001,5.5c0,2.842,11.211,6.063,22.634,6.502c1.932,0.074,3.438,1.701,3.363,3.632&#10;&#9;&#9;C535.23,323.215,533.678,324.695,531.807,324.695z"
                fill="#9C9EA1" stroke="#67686B" stroke-miterlimit="10" />
        </g>
        <g transform="matrix(1.113632, 0, 0, 1.113632, -546.640076, -164.727829)">
            <path
                d="M531.807,342.695c-0.045,0-0.091-0.001-0.137-0.002&#10;&#9;&#9;c-6.889-0.265-29.366-2.021-29.366-13.498c0-11.599,23.728-12.5,31-12.5c1.933,0,3.499,1.566,3.5,3.499s-1.566,3.5-3.499,3.501&#10;&#9;&#9;c-12.926,0.007-24.001,3.03-24.001,5.5c0,2.842,11.211,6.063,22.634,6.502c1.932,0.074,3.438,1.701,3.363,3.632&#10;&#9;&#9;C535.23,341.215,533.678,342.695,531.807,342.695z"
                fill="#9C9EA1" stroke="#67686B" stroke-miterlimit="10" />
        </g>
        <g transform="matrix(1.113632, 0, 0, 1.113632, -546.640076, -164.727829)">
            <path
                d="M531.807,360.695c-0.045,0-0.091-0.001-0.137-0.002&#10;&#9;&#9;c-6.889-0.265-29.366-2.021-29.366-13.498c0-11.599,23.728-12.5,31-12.5c1.933,0,3.499,1.566,3.5,3.499s-1.566,3.5-3.499,3.501&#10;&#9;&#9;c-12.926,0.007-24.001,3.03-24.001,5.5c0,2.842,11.211,6.063,22.634,6.502c1.932,0.074,3.438,1.701,3.363,3.632&#10;&#9;&#9;C535.23,359.215,533.678,360.695,531.807,360.695z"
                fill="#9C9EA1" stroke="#67686B" stroke-miterlimit="10" />
        </g>
        <g transform="matrix(1.113632, 0, 0, 1.113632, -546.640076, -164.727829)">
            <path
                d="M531.807,378.695c-0.045,0-0.091-0.001-0.137-0.002&#10;&#9;&#9;c-6.889-0.265-29.366-2.021-29.366-13.498c0-11.599,23.728-12.5,31-12.5c1.933,0,3.499,1.566,3.5,3.499s-1.566,3.5-3.499,3.501&#10;&#9;&#9;c-12.926,0.007-24.001,3.03-24.001,5.5c0,2.842,11.211,6.063,22.634,6.502c1.932,0.074,3.438,1.701,3.363,3.632&#10;&#9;&#9;C535.23,377.215,533.678,378.695,531.807,378.695z"
                fill="#9C9EA1" stroke="#67686B" stroke-miterlimit="10" />
        </g>
        <g transform="matrix(1.113632, 0, 0, 1.113632, -546.640076, -164.727829)">
            <path
                d="M531.807,396.695c-0.045,0-0.091-0.001-0.137-0.002&#10;&#9;&#9;c-6.889-0.265-29.366-2.021-29.366-13.498c0-11.599,23.728-12.5,31-12.5c1.933,0,3.499,1.566,3.5,3.499s-1.566,3.5-3.499,3.501&#10;&#9;&#9;c-12.926,0.007-24.001,3.03-24.001,5.5c0,2.842,11.211,6.063,22.634,6.502c1.932,0.074,3.438,1.701,3.363,3.632&#10;&#9;&#9;C535.23,395.215,533.678,396.695,531.807,396.695z"
                fill="#9C9EA1" stroke="#67686B" stroke-miterlimit="10" />
        </g>
        <g transform="matrix(1.113632, 0, 0, 1.113632, -546.640076, -164.727829)">
            <path
                d="M531.807,414.695c-0.045,0-0.091-0.001-0.137-0.002&#10;&#9;&#9;c-6.889-0.265-29.366-2.021-29.366-13.498c0-11.599,23.728-12.5,31-12.5c1.933,0,3.499,1.566,3.5,3.499s-1.566,3.5-3.499,3.501&#10;&#9;&#9;c-12.926,0.007-24.001,3.03-24.001,5.5c0,2.842,11.211,6.063,22.634,6.502c1.932,0.074,3.438,1.701,3.363,3.632&#10;&#9;&#9;C535.23,413.215,533.678,414.695,531.807,414.695z"
                fill="#9C9EA1" stroke="#67686B" stroke-miterlimit="10" />
        </g>
        <g transform="matrix(1.113632, 0, 0, 1.113632, -546.640076, -164.727829)">
            <path
                d="M531.807,432.695c-0.045,0-0.091-0.001-0.137-0.002&#10;&#9;&#9;c-6.889-0.265-29.366-2.021-29.366-13.498c0-11.599,23.728-12.5,31-12.5c1.933,0,3.499,1.566,3.5,3.499s-1.566,3.5-3.499,3.501&#10;&#9;&#9;c-12.926,0.007-24.001,3.03-24.001,5.5c0,2.842,11.211,6.063,22.634,6.502c1.932,0.074,3.438,1.701,3.363,3.632&#10;&#9;&#9;C535.23,431.215,533.678,432.695,531.807,432.695z"
                fill="#9C9EA1" stroke="#67686B" stroke-miterlimit="10" />
        </g>
        <g transform="matrix(1.113632, 0, 0, 1.113632, -546.640076, -164.727829)">
            <path
                d="M531.807,450.695c-0.045,0-0.091-0.001-0.137-0.002&#10;&#9;&#9;c-6.889-0.265-29.366-2.021-29.366-13.498c0-11.599,23.728-12.5,31-12.5c1.933,0,3.499,1.566,3.5,3.499s-1.566,3.5-3.499,3.501&#10;&#9;&#9;c-12.926,0.007-24.001,3.03-24.001,5.5c0,2.842,11.211,6.063,22.634,6.502c1.932,0.074,3.438,1.701,3.363,3.632&#10;&#9;&#9;C535.23,449.215,533.678,450.695,531.807,450.695z"
                fill="#9C9EA1" stroke="#67686B" stroke-miterlimit="10" />
        </g>
        <g transform="matrix(1.113632, 0, 0, 1.113632, -546.640076, -164.727829)">
            <path
                d="M531.807,470.195c-0.045,0-0.091-0.001-0.137-0.002&#10;&#9;&#9;c-6.889-0.265-29.366-2.021-29.366-13.498c0-11.599,23.728-12.5,31-12.5c1.933,0,3.499,1.566,3.5,3.499s-1.566,3.5-3.499,3.501&#10;&#9;&#9;c-12.926,0.007-24.001,3.03-24.001,5.5c0,2.842,11.211,6.063,22.634,6.502c1.932,0.074,3.438,1.701,3.363,3.632&#10;&#9;&#9;C535.23,468.715,533.678,470.195,531.807,470.195z"
                fill="#9C9EA1" stroke="#67686B" stroke-miterlimit="10" />
        </g>
        <path
            d="M 285.026 74.921 C 285.026 63.236 275.552 53.762 263.866 53.762 L 99.05 53.762 C 87.364 53.762 77.89 63.236 77.89 74.921 L 77.89 125.592 C 77.89 137.277 87.364 146.751 99.05 146.751 L 263.866 146.751 C 275.552 146.751 285.026 137.277 285.026 125.592 L 285.026 74.921 Z"
            fill="#A90065" />
        <polygon fill="#FFFFFF"
            points="137.469 129.49 137.469 129.49 86.242 129.49 86.242 129.49 86.242 72.694 86.242 72.694 137.469 72.694 137.469 72.694" />
        <g transform="matrix(1.113632, 0, 0, 1.113632, -546.640076, -164.727829)" />
    </g>
</svg>