<?xml version="1.0" encoding="utf-8"?>
<svg viewBox="0 0 348 419" xmlns="http://www.w3.org/2000/svg">
    <g transform="matrix(1, 0, 0, 1, -923.066895, -112.119003)">
        <defs>
            <rect height="623.998" id="SVGID_25_" width="368" x="908.131" y="8.945" />
        </defs>
        <g>
            <path
                d="M968.549,191.138&#10;&#9;&#9;&#9;c-0.051,0-0.102-0.001-0.152-0.003c-7.678-0.296-32.73-2.253-32.73-15.044c0-12.927,26.446-13.932,34.551-13.932&#10;&#9;&#9;&#9;c2.154,0,3.9,1.746,3.9,3.9s-1.745,3.901-3.899,3.902c-14.407,0.008-26.751,3.377-26.751,6.13c0,3.168,12.496,6.758,25.227,7.247&#10;&#9;&#9;&#9;c2.153,0.083,3.831,1.896,3.749,4.048C972.364,189.488,970.634,191.138,968.549,191.138z"
                fill="none" stroke="#0E291C" stroke-miterlimit="10" stroke-width="22" />
        </g>
        <path
            d="M1258.89,496.642&#10;&#9;&#9;c0,11.696-9.481,21.177-21.177,21.177H980.249c-11.696,0-21.177-9.481-21.177-21.177V146.67c0-11.696,9.481-21.177,21.177-21.177&#10;&#9;&#9;h257.464c11.696,0,21.177,9.481,21.177,21.177V496.642z"
            fill="none" stroke="#0E281B" stroke-miterlimit="10" stroke-width="24" />
        <path
            d="M1258.89,496.642c0,11.696-9.481,21.177-21.177,21.177H980.249&#10;&#9;&#9;c-11.696,0-21.177-9.481-21.177-21.177V146.67c0-11.696,9.481-21.177,21.177-21.177h257.464c11.696,0,21.177,9.481,21.177,21.177&#10;&#9;&#9;V496.642z"
            fill="#D3C1B4" />
        <g>
            <path
                d="M980.249,514.319c-9.747,0-17.677-7.93-17.677-17.677V146.67c0-9.747,7.93-17.677,17.677-17.677h257.464&#10;&#9;&#9;&#9;c9.747,0,17.677,7.93,17.677,17.677v349.972c0,9.747-7.93,17.677-17.677,17.677H980.249z"
                fill="#D3C1B4" />
            <g>
                <path
                    d="M1237.713,132.493c7.817,0,14.177,6.36,14.177,14.177v349.973c0,7.817-6.36,14.177-14.177,14.177H980.249&#10;&#9;&#9;&#9;&#9;c-7.817,0-14.177-6.36-14.177-14.177V146.67c0-7.817,6.36-14.177,14.177-14.177H1237.713 M1237.713,125.493H980.249&#10;&#9;&#9;&#9;&#9;c-11.696,0-21.177,9.481-21.177,21.177v349.973c0,11.696,9.481,21.177,21.177,21.177h257.464&#10;&#9;&#9;&#9;&#9;c11.696,0,21.177-9.481,21.177-21.177V146.67C1258.89,134.974,1249.409,125.493,1237.713,125.493L1237.713,125.493z"
                    fill="#FFFFFF" />
            </g>
        </g>
        <g>
            <path
                d="M 923.423 531.194 L 923.423 112.119 C 942.475 112.119 957.974 127.619 957.974 146.67 L 957.974 496.642 C 957.974 515.695 942.475 531.194 923.423 531.194 Z M 923.423 138.868 L 923.423 504.444 C 927.725 504.444 931.225 500.944 931.225 496.642 L 931.225 146.67 C 931.225 142.368 927.725 138.868 923.423 138.868 Z"
                fill="#0E281B" />
        </g>
        <g transform="matrix(1.016763, 0, 0, 1, -15.834407, 0)">
            <path style="fill: rgb(0, 136, 205);"
                d="M 944.599 496.642 C 944.599 508.338 935.912 518.627 924.216 518.627 L 923.422 131.956 C 935.118 131.956 944.599 134.974 944.599 146.67 L 944.599 496.642 Z" />
        </g>
        <g>
            <g>
                <path style="fill: rgb(8, 101, 151);"
                    d="M 923.422 133.295 C 930.797 133.295 936.797 139.295 936.797 146.67 L 936.797 496.642 C 936.797 504.017 930.797 510.017 923.422 510.017 L 923.422 133.295 M 923.422 125.493 L 923.422 517.819 C 935.118 517.819 944.599 508.338 944.599 496.642 L 944.599 146.67 C 944.599 134.974 935.118 125.493 923.422 125.493 L 923.422 125.493 Z" />
            </g>
        </g>
        <circle cx="971.89" cy="166.175" fill="#48484A" r="7.802" />
        <circle cx="971.89" cy="186.237" fill="#48484A" r="7.802" />
        <circle cx="971.89" cy="206.299" fill="#48484A" r="7.802" />
        <circle cx="971.89" cy="226.361" fill="#48484A" r="7.802" />
        <circle cx="971.89" cy="246.423" fill="#48484A" r="7.802" />
        <circle cx="971.89" cy="266.485" fill="#48484A" r="7.802" />
        <circle cx="971.89" cy="286.548" fill="#48484A" r="7.802" />
        <circle cx="971.89" cy="306.61" fill="#48484A" r="7.802" />
        <circle cx="971.89" cy="326.672" fill="#48484A" r="7.802" />
        <circle cx="971.89" cy="346.734" fill="#48484A" r="7.802" />
        <circle cx="971.89" cy="366.796" fill="#48484A" r="7.802" />
        <circle cx="971.89" cy="386.858" fill="#48484A" r="7.802" />
        <circle cx="971.89" cy="406.92" fill="#48484A" r="7.802" />
        <circle cx="971.89" cy="426.982" fill="#48484A" r="7.802" />
        <circle cx="971.89" cy="447.044" fill="#48484A" r="7.802" />
        <circle cx="971.89" cy="467.107" fill="#48484A" r="7.802" />
        <circle cx="935.057" cy="166.175" fill="#48484A" r="7.802" />
        <circle cx="935.057" cy="186.237" fill="#48484A" r="7.802" />
        <circle cx="935.057" cy="206.299" fill="#48484A" r="7.802" />
        <circle cx="935.057" cy="226.361" fill="#48484A" r="7.802" />
        <circle cx="935.057" cy="246.423" fill="#48484A" r="7.802" />
        <circle cx="935.057" cy="266.485" fill="#48484A" r="7.802" />
        <circle cx="935.057" cy="286.548" fill="#48484A" r="7.802" />
        <circle cx="935.057" cy="306.61" fill="#48484A" r="7.802" />
        <circle cx="935.057" cy="326.672" fill="#48484A" r="7.802" />
        <circle cx="935.057" cy="346.734" fill="#48484A" r="7.802" />
        <circle cx="935.057" cy="366.796" fill="#48484A" r="7.802" />
        <circle cx="935.057" cy="386.858" fill="#48484A" r="7.802" />
        <circle cx="935.057" cy="406.92" fill="#48484A" r="7.802" />
        <circle cx="935.057" cy="426.982" fill="#48484A" r="7.802" />
        <circle cx="935.057" cy="447.044" fill="#48484A" r="7.802" />
        <circle cx="935.057" cy="467.107" fill="#48484A" r="7.802" />
        <g>
            <path
                d="M973.977,167.612c0,2.347-1.903,4.25-4.25,4.25h-34&#10;&#9;&#9;&#9;c-2.347,0-4.25-1.903-4.25-4.25l0,0c0-2.347,1.903-4.25,4.25-4.25h34C972.074,163.362,973.977,165.264,973.977,167.612&#10;&#9;&#9;&#9;L973.977,167.612z"
                fill="#9C9EA1" stroke="#67686B" stroke-miterlimit="10" />
            <path
                d="M973.977,187.501c0,2.347-1.903,4.25-4.25,4.25h-34&#10;&#9;&#9;&#9;c-2.347,0-4.25-1.903-4.25-4.25l0,0c0-2.347,1.903-4.25,4.25-4.25h34C972.074,183.251,973.977,185.153,973.977,187.501&#10;&#9;&#9;&#9;L973.977,187.501z"
                fill="#9C9EA1" stroke="#67686B" stroke-miterlimit="10" />
            <path
                d="M973.977,207.389c0,2.347-1.903,4.25-4.25,4.25h-34&#10;&#9;&#9;&#9;c-2.347,0-4.25-1.903-4.25-4.25l0,0c0-2.347,1.903-4.25,4.25-4.25h34C972.074,203.139,973.977,205.042,973.977,207.389&#10;&#9;&#9;&#9;L973.977,207.389z"
                fill="#9C9EA1" stroke="#67686B" stroke-miterlimit="10" />
            <path
                d="M973.977,227.278c0,2.347-1.903,4.25-4.25,4.25h-34&#10;&#9;&#9;&#9;c-2.347,0-4.25-1.903-4.25-4.25l0,0c0-2.347,1.903-4.25,4.25-4.25h34C972.074,223.028,973.977,224.931,973.977,227.278&#10;&#9;&#9;&#9;L973.977,227.278z"
                fill="#9C9EA1" stroke="#67686B" stroke-miterlimit="10" />
            <path
                d="M973.977,247.167c0,2.347-1.903,4.25-4.25,4.25h-34&#10;&#9;&#9;&#9;c-2.347,0-4.25-1.903-4.25-4.25l0,0c0-2.347,1.903-4.25,4.25-4.25h34C972.074,242.917,973.977,244.82,973.977,247.167&#10;&#9;&#9;&#9;L973.977,247.167z"
                fill="#9C9EA1" stroke="#67686B" stroke-miterlimit="10" />
            <path
                d="M973.977,267.056c0,2.347-1.903,4.25-4.25,4.25h-34&#10;&#9;&#9;&#9;c-2.347,0-4.25-1.903-4.25-4.25l0,0c0-2.347,1.903-4.25,4.25-4.25h34C972.074,262.806,973.977,264.709,973.977,267.056&#10;&#9;&#9;&#9;L973.977,267.056z"
                fill="#9C9EA1" stroke="#67686B" stroke-miterlimit="10" />
            <path
                d="M973.977,286.945c0,2.347-1.903,4.25-4.25,4.25h-34&#10;&#9;&#9;&#9;c-2.347,0-4.25-1.903-4.25-4.25l0,0c0-2.347,1.903-4.25,4.25-4.25h34C972.074,282.695,973.977,284.598,973.977,286.945&#10;&#9;&#9;&#9;L973.977,286.945z"
                fill="#9C9EA1" stroke="#67686B" stroke-miterlimit="10" />
            <path
                d="M973.977,306.834c0,2.347-1.903,4.25-4.25,4.25h-34&#10;&#9;&#9;&#9;c-2.347,0-4.25-1.903-4.25-4.25l0,0c0-2.347,1.903-4.25,4.25-4.25h34C972.074,302.584,973.977,304.487,973.977,306.834&#10;&#9;&#9;&#9;L973.977,306.834z"
                fill="#9C9EA1" stroke="#67686B" stroke-miterlimit="10" />
            <path
                d="M973.977,326.723c0,2.347-1.903,4.25-4.25,4.25h-34&#10;&#9;&#9;&#9;c-2.347,0-4.25-1.903-4.25-4.25l0,0c0-2.347,1.903-4.25,4.25-4.25h34C972.074,322.473,973.977,324.376,973.977,326.723&#10;&#9;&#9;&#9;L973.977,326.723z"
                fill="#9C9EA1" stroke="#67686B" stroke-miterlimit="10" />
            <path
                d="M973.977,346.612c0,2.347-1.903,4.25-4.25,4.25h-34&#10;&#9;&#9;&#9;c-2.347,0-4.25-1.903-4.25-4.25l0,0c0-2.347,1.903-4.25,4.25-4.25h34C972.074,342.362,973.977,344.264,973.977,346.612&#10;&#9;&#9;&#9;L973.977,346.612z"
                fill="#9C9EA1" stroke="#67686B" stroke-miterlimit="10" />
            <path
                d="M973.977,366.501c0,2.347-1.903,4.25-4.25,4.25h-34&#10;&#9;&#9;&#9;c-2.347,0-4.25-1.903-4.25-4.25l0,0c0-2.347,1.903-4.25,4.25-4.25h34C972.074,362.251,973.977,364.153,973.977,366.501&#10;&#9;&#9;&#9;L973.977,366.501z"
                fill="#9C9EA1" stroke="#67686B" stroke-miterlimit="10" />
            <path
                d="M973.977,386.389c0,2.347-1.903,4.25-4.25,4.25h-34&#10;&#9;&#9;&#9;c-2.347,0-4.25-1.903-4.25-4.25l0,0c0-2.347,1.903-4.25,4.25-4.25h34C972.074,382.139,973.977,384.042,973.977,386.389&#10;&#9;&#9;&#9;L973.977,386.389z"
                fill="#9C9EA1" stroke="#67686B" stroke-miterlimit="10" />
            <path
                d="M973.977,406.278c0,2.347-1.903,4.25-4.25,4.25h-34&#10;&#9;&#9;&#9;c-2.347,0-4.25-1.903-4.25-4.25l0,0c0-2.347,1.903-4.25,4.25-4.25h34C972.074,402.028,973.977,403.931,973.977,406.278&#10;&#9;&#9;&#9;L973.977,406.278z"
                fill="#9C9EA1" stroke="#67686B" stroke-miterlimit="10" />
            <path
                d="M973.977,426.167c0,2.347-1.903,4.25-4.25,4.25h-34&#10;&#9;&#9;&#9;c-2.347,0-4.25-1.903-4.25-4.25l0,0c0-2.347,1.903-4.25,4.25-4.25h34C972.074,421.917,973.977,423.82,973.977,426.167&#10;&#9;&#9;&#9;L973.977,426.167z"
                fill="#9C9EA1" stroke="#67686B" stroke-miterlimit="10" />
            <path
                d="M973.977,446.056c0,2.347-1.903,4.25-4.25,4.25h-34&#10;&#9;&#9;&#9;c-2.347,0-4.25-1.903-4.25-4.25l0,0c0-2.347,1.903-4.25,4.25-4.25h34C972.074,441.806,973.977,443.709,973.977,446.056&#10;&#9;&#9;&#9;L973.977,446.056z"
                fill="#9C9EA1" stroke="#67686B" stroke-miterlimit="10" />
            <path
                d="M973.977,465.945c0,2.347-1.903,4.25-4.25,4.25h-34&#10;&#9;&#9;&#9;c-2.347,0-4.25-1.903-4.25-4.25l0,0c0-2.347,1.903-4.25,4.25-4.25h34C972.074,461.695,973.977,463.598,973.977,465.945&#10;&#9;&#9;&#9;L973.977,465.945z"
                fill="#9C9EA1" stroke="#67686B" stroke-miterlimit="10" />
        </g>
    </g>
    <line fill="none" stroke="#ED1C24" stroke-linecap="round" stroke-miterlimit="10"
        stroke-width="2" x1="294.076" x2="294.076" y1="38.576" y2="377.244" />
    <polygon fill="#ED1C24"
        points="81.238 361.909 75.988 354.577 69.905 361.909 69.905 8.576 81.238 8.576" />
</svg>