<?xml version="1.0" encoding="utf-8"?>
<svg viewBox="0 0 348 419" xmlns="http://www.w3.org/2000/svg">
    <g transform="matrix(0.994898, 0, 0, 0.994898, 10.720659, 1.231369)">
        <g transform="matrix(1.113636, 0, 0, 1.113636, -8.747043, -2.607506)">
            <g transform="matrix(1, 0, 0, 1, -67.007996, -144.680099)">
                <path
                    d="M115.807,216.695&#10;&#9;&#9;c-0.045,0-0.091-0.001-0.137-0.002c-6.889-0.265-29.366-2.021-29.366-13.498c0-11.599,23.728-12.5,31-12.5&#10;&#9;&#9;c1.933,0,3.499,1.566,3.5,3.499s-1.566,3.5-3.499,3.501c-12.926,0.007-24.001,3.03-24.001,5.5c0,2.842,11.211,6.063,22.634,6.502&#10;&#9;&#9;c1.932,0.074,3.438,1.701,3.363,3.632C119.23,215.215,117.678,216.695,115.807,216.695z"
                    fill="none" stroke="#0E291C" stroke-miterlimit="10" stroke-width="22" />
            </g>
            <g transform="matrix(1, 0, 0, 1, -67.007996, -144.680099)">
                <path
                    d="M115.807,234.695&#10;&#9;&#9;c-0.045,0-0.091-0.001-0.137-0.002c-6.889-0.265-29.366-2.021-29.366-13.498c0-11.599,23.728-12.5,31-12.5&#10;&#9;&#9;c1.933,0,3.499,1.566,3.5,3.499s-1.566,3.5-3.499,3.501c-12.926,0.007-24.001,3.03-24.001,5.5c0,2.842,11.211,6.063,22.634,6.502&#10;&#9;&#9;c1.932,0.074,3.438,1.701,3.363,3.632C119.23,233.215,117.678,234.695,115.807,234.695z"
                    fill="none" stroke="#0E291C" stroke-miterlimit="10" stroke-width="22" />
            </g>
            <g transform="matrix(1, 0, 0, 1, -67.007996, -144.680099)">
                <path
                    d="M115.807,252.695&#10;&#9;&#9;c-0.045,0-0.091-0.001-0.137-0.002c-6.889-0.265-29.366-2.021-29.366-13.498c0-11.599,23.728-12.5,31-12.5&#10;&#9;&#9;c1.933,0,3.499,1.566,3.5,3.499s-1.566,3.5-3.499,3.501c-12.926,0.007-24.001,3.03-24.001,5.5c0,2.842,11.211,6.063,22.634,6.502&#10;&#9;&#9;c1.932,0.074,3.438,1.701,3.363,3.632C119.23,251.215,117.678,252.695,115.807,252.695z"
                    fill="none" stroke="#0E291C" stroke-miterlimit="10" stroke-width="22" />
            </g>
            <g transform="matrix(1, 0, 0, 1, -67.007996, -144.680099)">
                <path
                    d="M115.807,270.695&#10;&#9;&#9;c-0.045,0-0.091-0.001-0.137-0.002c-6.889-0.265-29.366-2.021-29.366-13.498c0-11.599,23.728-12.5,31-12.5&#10;&#9;&#9;c1.933,0,3.499,1.566,3.5,3.499s-1.566,3.5-3.499,3.501c-12.926,0.007-24.001,3.03-24.001,5.5c0,2.842,11.211,6.063,22.634,6.502&#10;&#9;&#9;c1.932,0.074,3.438,1.701,3.363,3.632C119.23,269.215,117.678,270.695,115.807,270.695z"
                    fill="none" stroke="#0E291C" stroke-miterlimit="10" stroke-width="22" />
            </g>
            <g transform="matrix(1, 0, 0, 1, -67.007996, -144.680099)">
                <path
                    d="M115.807,288.695&#10;&#9;&#9;c-0.045,0-0.091-0.001-0.137-0.002c-6.889-0.265-29.366-2.021-29.366-13.498c0-11.599,23.728-12.5,31-12.5&#10;&#9;&#9;c1.933,0,3.499,1.566,3.5,3.499s-1.566,3.5-3.499,3.501c-12.926,0.007-24.001,3.03-24.001,5.5c0,2.842,11.211,6.063,22.634,6.502&#10;&#9;&#9;c1.932,0.074,3.438,1.701,3.363,3.632C119.23,287.215,117.678,288.695,115.807,288.695z"
                    fill="none" stroke="#0E291C" stroke-miterlimit="10" stroke-width="22" />
            </g>
            <g transform="matrix(1, 0, 0, 1, -67.007996, -144.680099)">
                <path
                    d="M115.807,306.695&#10;&#9;&#9;c-0.045,0-0.091-0.001-0.137-0.002c-6.889-0.265-29.366-2.021-29.366-13.498c0-11.599,23.728-12.5,31-12.5&#10;&#9;&#9;c1.933,0,3.499,1.566,3.5,3.499s-1.566,3.5-3.499,3.501c-12.926,0.007-24.001,3.03-24.001,5.5c0,2.842,11.211,6.063,22.634,6.502&#10;&#9;&#9;c1.932,0.074,3.438,1.701,3.363,3.632C119.23,305.215,117.678,306.695,115.807,306.695z"
                    fill="none" stroke="#0E291C" stroke-miterlimit="10" stroke-width="22" />
            </g>
            <g transform="matrix(1, 0, 0, 1, -67.007996, -144.680099)">
                <path
                    d="M115.807,324.695&#10;&#9;&#9;c-0.045,0-0.091-0.001-0.137-0.002c-6.889-0.265-29.366-2.021-29.366-13.498c0-11.599,23.728-12.5,31-12.5&#10;&#9;&#9;c1.933,0,3.499,1.566,3.5,3.499s-1.566,3.5-3.499,3.501c-12.926,0.007-24.001,3.03-24.001,5.5c0,2.842,11.211,6.063,22.634,6.502&#10;&#9;&#9;c1.932,0.074,3.438,1.701,3.363,3.632C119.23,323.215,117.678,324.695,115.807,324.695z"
                    fill="none" stroke="#0E291C" stroke-miterlimit="10" stroke-width="22" />
            </g>
            <g transform="matrix(1, 0, 0, 1, -67.007996, -144.680099)">
                <path
                    d="M115.807,342.695&#10;&#9;&#9;c-0.045,0-0.091-0.001-0.137-0.002c-6.889-0.265-29.366-2.021-29.366-13.498c0-11.599,23.728-12.5,31-12.5&#10;&#9;&#9;c1.933,0,3.499,1.566,3.5,3.499s-1.566,3.5-3.499,3.501c-12.926,0.007-24.001,3.03-24.001,5.5c0,2.842,11.211,6.063,22.634,6.502&#10;&#9;&#9;c1.932,0.074,3.438,1.701,3.363,3.632C119.23,341.215,117.678,342.695,115.807,342.695z"
                    fill="none" stroke="#0E291C" stroke-miterlimit="10" stroke-width="22" />
            </g>
            <g transform="matrix(1, 0, 0, 1, -67.007996, -144.680099)">
                <path
                    d="M115.807,360.695&#10;&#9;&#9;c-0.045,0-0.091-0.001-0.137-0.002c-6.889-0.265-29.366-2.021-29.366-13.498c0-11.599,23.728-12.5,31-12.5&#10;&#9;&#9;c1.933,0,3.499,1.566,3.5,3.499s-1.566,3.5-3.499,3.501c-12.926,0.007-24.001,3.03-24.001,5.5c0,2.842,11.211,6.063,22.634,6.502&#10;&#9;&#9;c1.932,0.074,3.438,1.701,3.363,3.632C119.23,359.215,117.678,360.695,115.807,360.695z"
                    fill="none" stroke="#0E291C" stroke-miterlimit="10" stroke-width="22" />
            </g>
            <g transform="matrix(1, 0, 0, 1, -67.007996, -144.680099)">
                <path
                    d="M115.807,378.695&#10;&#9;&#9;c-0.045,0-0.091-0.001-0.137-0.002c-6.889-0.265-29.366-2.021-29.366-13.498c0-11.599,23.728-12.5,31-12.5&#10;&#9;&#9;c1.933,0,3.499,1.566,3.5,3.499s-1.566,3.5-3.499,3.501c-12.926,0.007-24.001,3.03-24.001,5.5c0,2.842,11.211,6.063,22.634,6.502&#10;&#9;&#9;c1.932,0.074,3.438,1.701,3.363,3.632C119.23,377.215,117.678,378.695,115.807,378.695z"
                    fill="none" stroke="#0E291C" stroke-miterlimit="10" stroke-width="22" />
            </g>
            <g transform="matrix(1, 0, 0, 1, -67.007996, -144.680099)">
                <path
                    d="M115.807,396.695&#10;&#9;&#9;c-0.045,0-0.091-0.001-0.137-0.002c-6.889-0.265-29.366-2.021-29.366-13.498c0-11.599,23.728-12.5,31-12.5&#10;&#9;&#9;c1.933,0,3.499,1.566,3.5,3.499s-1.566,3.5-3.499,3.501c-12.926,0.007-24.001,3.03-24.001,5.5c0,2.842,11.211,6.063,22.634,6.502&#10;&#9;&#9;c1.932,0.074,3.438,1.701,3.363,3.632C119.23,395.215,117.678,396.695,115.807,396.695z"
                    fill="none" stroke="#0E291C" stroke-miterlimit="10" stroke-width="22" />
            </g>
            <g transform="matrix(1, 0, 0, 1, -67.007996, -144.680099)">
                <path
                    d="M115.807,414.695&#10;&#9;&#9;c-0.045,0-0.091-0.001-0.137-0.002c-6.889-0.265-29.366-2.021-29.366-13.498c0-11.599,23.728-12.5,31-12.5&#10;&#9;&#9;c1.933,0,3.499,1.566,3.5,3.499s-1.566,3.5-3.499,3.501c-12.926,0.007-24.001,3.03-24.001,5.5c0,2.842,11.211,6.063,22.634,6.502&#10;&#9;&#9;c1.932,0.074,3.438,1.701,3.363,3.632C119.23,413.215,117.678,414.695,115.807,414.695z"
                    fill="none" stroke="#0E291C" stroke-miterlimit="10" stroke-width="22" />
            </g>
            <g transform="matrix(1, 0, 0, 1, -67.007996, -144.680099)">
                <path
                    d="M115.807,432.695&#10;&#9;&#9;c-0.045,0-0.091-0.001-0.137-0.002c-6.889-0.265-29.366-2.021-29.366-13.498c0-11.599,23.728-12.5,31-12.5&#10;&#9;&#9;c1.933,0,3.499,1.566,3.5,3.499s-1.566,3.5-3.499,3.501c-12.926,0.007-24.001,3.03-24.001,5.5c0,2.842,11.211,6.063,22.634,6.502&#10;&#9;&#9;c1.932,0.074,3.438,1.701,3.363,3.632C119.23,431.215,117.678,432.695,115.807,432.695z"
                    fill="none" stroke="#0E291C" stroke-miterlimit="10" stroke-width="22" />
            </g>
            <g transform="matrix(1, 0, 0, 1, -67.007996, -144.680099)">
                <path
                    d="M115.807,450.695&#10;&#9;&#9;c-0.045,0-0.091-0.001-0.137-0.002c-6.889-0.265-29.366-2.021-29.366-13.498c0-11.599,23.728-12.5,31-12.5&#10;&#9;&#9;c1.933,0,3.499,1.566,3.5,3.499s-1.566,3.5-3.499,3.501c-12.926,0.007-24.001,3.03-24.001,5.5c0,2.842,11.211,6.063,22.634,6.502&#10;&#9;&#9;c1.932,0.074,3.438,1.701,3.363,3.632C119.23,449.215,117.678,450.695,115.807,450.695z"
                    fill="none" stroke="#0E291C" stroke-miterlimit="10" stroke-width="22" />
            </g>
            <g transform="matrix(1, 0, 0, 1, -67.007996, -144.680099)">
                <path
                    d="M115.807,470.195&#10;&#9;&#9;c-0.045,0-0.091-0.001-0.137-0.002c-6.889-0.265-29.366-2.021-29.366-13.498c0-11.599,23.728-12.5,31-12.5&#10;&#9;&#9;c1.933,0,3.499,1.566,3.5,3.499s-1.566,3.5-3.499,3.501c-12.926,0.007-24.001,3.03-24.001,5.5c0,2.842,11.211,6.063,22.634,6.502&#10;&#9;&#9;c1.932,0.074,3.438,1.701,3.363,3.632C119.23,468.715,117.678,470.195,115.807,470.195z"
                    fill="none" stroke="#0E291C" stroke-miterlimit="10" stroke-width="22" />
            </g>
            <path
                d="M 300.297 347.015 C 300.297 357.508 291.79 366.015 281.297 366.015 L 50.297 366.015 C 39.804 366.015 31.297 357.508 31.297 347.015 L 31.297 33.015 C 31.297 22.522 39.804 14.015 50.297 14.015 L 281.297 14.015 C 291.79 14.015 300.297 22.522 300.297 33.015 L 300.297 347.015 Z"
                fill="none" stroke="#0E281B" stroke-miterlimit="10" stroke-width="24" />
            <path
                d="M 300.297 347.015 C 300.297 357.508 291.79 366.015 281.297 366.015 L 50.297 366.015 C 39.804 366.015 31.297 357.508 31.297 347.015 L 31.297 33.015 C 31.297 22.522 39.804 14.015 50.297 14.015 L 281.297 14.015 C 291.79 14.015 300.297 22.522 300.297 33.015 L 300.297 347.015 Z"
                fill="#0088CD" />
            <g transform="matrix(1, 0, 0, 1, -67.007996, -144.680099)">
                <path
                    d="M348.305,164.695c7.168,0,13,5.832,13,13v314c0,7.168-5.832,13-13,13h-231c-7.168,0-13-5.832-13-13v-314&#10;&#9;&#9;c0-7.168,5.832-13,13-13H348.305 M348.305,158.695h-231c-10.493,0-19,8.507-19,19v314c0,10.493,8.507,19,19,19h231&#10;&#9;&#9;c10.493,0,19-8.507,19-19v-314C367.305,167.202,358.798,158.695,348.305,158.695L348.305,158.695z"
                    fill="#086597" />
            </g>
            <circle cx="51.797" cy="50.515" fill="#00456C" r="7" />
            <circle cx="51.797" cy="68.515" fill="#00456C" r="7" />
            <circle cx="51.797" cy="86.515" fill="#00456C" r="7" />
            <circle cx="51.797" cy="104.515" fill="#00456C" r="7" />
            <circle cx="51.797" cy="122.515" fill="#00456C" r="7" />
            <circle cx="51.797" cy="140.515" fill="#00456C" r="7" />
            <circle cx="51.797" cy="158.515" fill="#00456C" r="7" />
            <circle cx="51.797" cy="176.515" fill="#00456C" r="7" />
            <circle cx="51.797" cy="194.515" fill="#00456C" r="7" />
            <circle cx="51.797" cy="212.515" fill="#00456C" r="7" />
            <circle cx="51.797" cy="230.515" fill="#00456C" r="7" />
            <circle cx="51.797" cy="248.515" fill="#00456C" r="7" />
            <circle cx="51.797" cy="266.515" fill="#00456C" r="7" />
            <circle cx="51.797" cy="284.515" fill="#00456C" r="7" />
            <circle cx="51.797" cy="302.515" fill="#00456C" r="7" />
            <circle cx="51.797" cy="320.515" fill="#00456C" r="7" />
            <g transform="matrix(1, 0, 0, 1, -67.007996, -144.680099)">
                <g opacity="0.5">
                    <path
                        d="M115.141,219.362c-0.045,0-0.091-0.001-0.137-0.002c-6.889-0.265-29.366-2.021-29.366-13.498&#10;&#9;&#9;&#9;c0-11.599,23.728-12.5,31-12.5c1.933,0,3.499,1.566,3.5,3.499s-1.566,3.5-3.499,3.501c-12.926,0.007-24.001,3.03-24.001,5.5&#10;&#9;&#9;&#9;c0,2.842,11.211,6.063,22.634,6.502c1.932,0.074,3.438,1.701,3.363,3.632C118.563,217.882,117.011,219.362,115.141,219.362z"
                        fill="#086597" />
                </g>
                <g opacity="0.5">
                    <path
                        d="M115.141,237.362c-0.045,0-0.091-0.001-0.137-0.002c-6.889-0.265-29.366-2.021-29.366-13.498&#10;&#9;&#9;&#9;c0-11.599,23.728-12.5,31-12.5c1.933,0,3.499,1.566,3.5,3.499s-1.566,3.5-3.499,3.501c-12.926,0.007-24.001,3.03-24.001,5.5&#10;&#9;&#9;&#9;c0,2.842,11.211,6.063,22.634,6.502c1.932,0.074,3.438,1.701,3.363,3.632C118.563,235.882,117.011,237.362,115.141,237.362z"
                        fill="#086597" />
                </g>
                <g opacity="0.5">
                    <path
                        d="M115.141,255.362c-0.045,0-0.091-0.001-0.137-0.002c-6.889-0.265-29.366-2.021-29.366-13.498&#10;&#9;&#9;&#9;c0-11.599,23.728-12.5,31-12.5c1.933,0,3.499,1.566,3.5,3.499s-1.566,3.5-3.499,3.501c-12.926,0.007-24.001,3.03-24.001,5.5&#10;&#9;&#9;&#9;c0,2.842,11.211,6.063,22.634,6.502c1.932,0.074,3.438,1.701,3.363,3.632C118.563,253.882,117.011,255.362,115.141,255.362z"
                        fill="#086597" />
                </g>
                <g opacity="0.5">
                    <path
                        d="M115.141,273.362c-0.045,0-0.091-0.001-0.137-0.002c-6.889-0.265-29.366-2.021-29.366-13.498&#10;&#9;&#9;&#9;c0-11.599,23.728-12.5,31-12.5c1.933,0,3.499,1.566,3.5,3.499s-1.566,3.5-3.499,3.501c-12.926,0.007-24.001,3.03-24.001,5.5&#10;&#9;&#9;&#9;c0,2.842,11.211,6.063,22.634,6.502c1.932,0.074,3.438,1.701,3.363,3.632C118.563,271.882,117.011,273.362,115.141,273.362z"
                        fill="#086597" />
                </g>
                <g opacity="0.5">
                    <path
                        d="M115.141,291.362c-0.045,0-0.091-0.001-0.137-0.002c-6.889-0.265-29.366-2.021-29.366-13.498&#10;&#9;&#9;&#9;c0-11.599,23.728-12.5,31-12.5c1.933,0,3.499,1.566,3.5,3.499s-1.566,3.5-3.499,3.501c-12.926,0.007-24.001,3.03-24.001,5.5&#10;&#9;&#9;&#9;c0,2.842,11.211,6.063,22.634,6.502c1.932,0.074,3.438,1.701,3.363,3.632C118.563,289.882,117.011,291.362,115.141,291.362z"
                        fill="#086597" />
                </g>
                <g opacity="0.5">
                    <path
                        d="M115.141,309.362c-0.045,0-0.091-0.001-0.137-0.002c-6.889-0.265-29.366-2.021-29.366-13.498&#10;&#9;&#9;&#9;c0-11.599,23.728-12.5,31-12.5c1.933,0,3.499,1.566,3.5,3.499s-1.566,3.5-3.499,3.501c-12.926,0.007-24.001,3.03-24.001,5.5&#10;&#9;&#9;&#9;c0,2.842,11.211,6.063,22.634,6.502c1.932,0.074,3.438,1.701,3.363,3.632C118.563,307.882,117.011,309.362,115.141,309.362z"
                        fill="#086597" />
                </g>
                <g opacity="0.5">
                    <path
                        d="M115.141,327.362c-0.045,0-0.091-0.001-0.137-0.002c-6.889-0.265-29.366-2.021-29.366-13.498&#10;&#9;&#9;&#9;c0-11.599,23.728-12.5,31-12.5c1.933,0,3.499,1.566,3.5,3.499s-1.566,3.5-3.499,3.501c-12.926,0.007-24.001,3.03-24.001,5.5&#10;&#9;&#9;&#9;c0,2.842,11.211,6.063,22.634,6.502c1.932,0.074,3.438,1.701,3.363,3.632C118.563,325.882,117.011,327.362,115.141,327.362z"
                        fill="#086597" />
                </g>
                <g opacity="0.5">
                    <path
                        d="M115.141,345.362c-0.045,0-0.091-0.001-0.137-0.002c-6.889-0.265-29.366-2.021-29.366-13.498&#10;&#9;&#9;&#9;c0-11.599,23.728-12.5,31-12.5c1.933,0,3.499,1.566,3.5,3.499s-1.566,3.5-3.499,3.501c-12.926,0.007-24.001,3.03-24.001,5.5&#10;&#9;&#9;&#9;c0,2.842,11.211,6.063,22.634,6.502c1.932,0.074,3.438,1.701,3.363,3.632C118.563,343.882,117.011,345.362,115.141,345.362z"
                        fill="#086597" />
                </g>
                <g opacity="0.5">
                    <path
                        d="M115.141,363.362c-0.045,0-0.091-0.001-0.137-0.002c-6.889-0.265-29.366-2.021-29.366-13.498&#10;&#9;&#9;&#9;c0-11.599,23.728-12.5,31-12.5c1.933,0,3.499,1.566,3.5,3.499s-1.566,3.5-3.499,3.501c-12.926,0.007-24.001,3.03-24.001,5.5&#10;&#9;&#9;&#9;c0,2.842,11.211,6.063,22.634,6.502c1.932,0.074,3.438,1.701,3.363,3.632C118.563,361.882,117.011,363.362,115.141,363.362z"
                        fill="#086597" />
                </g>
                <g opacity="0.5">
                    <path
                        d="M115.141,381.362c-0.045,0-0.091-0.001-0.137-0.002c-6.889-0.265-29.366-2.021-29.366-13.498&#10;&#9;&#9;&#9;c0-11.599,23.728-12.5,31-12.5c1.933,0,3.499,1.566,3.5,3.499s-1.566,3.5-3.499,3.501c-12.926,0.007-24.001,3.03-24.001,5.5&#10;&#9;&#9;&#9;c0,2.842,11.211,6.063,22.634,6.502c1.932,0.074,3.438,1.701,3.363,3.632C118.563,379.882,117.011,381.362,115.141,381.362z"
                        fill="#086597" />
                </g>
                <g opacity="0.5">
                    <path
                        d="M115.141,399.362c-0.045,0-0.091-0.001-0.137-0.002c-6.889-0.265-29.366-2.021-29.366-13.498&#10;&#9;&#9;&#9;c0-11.599,23.728-12.5,31-12.5c1.933,0,3.499,1.566,3.5,3.499s-1.566,3.5-3.499,3.501c-12.926,0.007-24.001,3.03-24.001,5.5&#10;&#9;&#9;&#9;c0,2.842,11.211,6.063,22.634,6.502c1.932,0.074,3.438,1.701,3.363,3.632C118.563,397.882,117.011,399.362,115.141,399.362z"
                        fill="#086597" />
                </g>
                <g opacity="0.5">
                    <path
                        d="M115.141,417.362c-0.045,0-0.091-0.001-0.137-0.002c-6.889-0.265-29.366-2.021-29.366-13.498&#10;&#9;&#9;&#9;c0-11.599,23.728-12.5,31-12.5c1.933,0,3.499,1.566,3.5,3.499s-1.566,3.5-3.499,3.501c-12.926,0.007-24.001,3.03-24.001,5.5&#10;&#9;&#9;&#9;c0,2.842,11.211,6.063,22.634,6.502c1.932,0.074,3.438,1.701,3.363,3.632C118.563,415.882,117.011,417.362,115.141,417.362z"
                        fill="#086597" />
                </g>
                <g opacity="0.5">
                    <path
                        d="M115.141,435.362c-0.045,0-0.091-0.001-0.137-0.002c-6.889-0.265-29.366-2.021-29.366-13.498&#10;&#9;&#9;&#9;c0-11.599,23.728-12.5,31-12.5c1.933,0,3.499,1.566,3.5,3.499s-1.566,3.5-3.499,3.501c-12.926,0.007-24.001,3.03-24.001,5.5&#10;&#9;&#9;&#9;c0,2.842,11.211,6.063,22.634,6.502c1.932,0.074,3.438,1.701,3.363,3.632C118.563,433.882,117.011,435.362,115.141,435.362z"
                        fill="#086597" />
                </g>
                <g opacity="0.5">
                    <path
                        d="M115.141,453.362c-0.045,0-0.091-0.001-0.137-0.002c-6.889-0.265-29.366-2.021-29.366-13.498&#10;&#9;&#9;&#9;c0-11.599,23.728-12.5,31-12.5c1.933,0,3.499,1.566,3.5,3.499s-1.566,3.5-3.499,3.501c-12.926,0.007-24.001,3.03-24.001,5.5&#10;&#9;&#9;&#9;c0,2.842,11.211,6.063,22.634,6.502c1.932,0.074,3.438,1.701,3.363,3.632C118.563,451.882,117.011,453.362,115.141,453.362z"
                        fill="#086597" />
                </g>
                <g opacity="0.5">
                    <path
                        d="M115.141,472.862c-0.045,0-0.091-0.001-0.137-0.002c-6.889-0.265-29.366-2.021-29.366-13.498&#10;&#9;&#9;&#9;c0-11.599,23.728-12.5,31-12.5c1.933,0,3.499,1.566,3.5,3.499s-1.566,3.5-3.499,3.501c-12.926,0.007-24.001,3.03-24.001,5.5&#10;&#9;&#9;&#9;c0,2.842,11.211,6.063,22.634,6.502c1.932,0.074,3.438,1.701,3.363,3.632C118.563,471.382,117.011,472.862,115.141,472.862z"
                        fill="#086597" />
                </g>
            </g>
            <g transform="matrix(1, 0, 0, 1, -67.007996, -144.680099)">
                <path
                    d="M115.807,216.695c-0.045,0-0.091-0.001-0.137-0.002&#10;&#9;&#9;c-6.889-0.265-29.366-2.021-29.366-13.498c0-11.599,23.728-12.5,31-12.5c1.933,0,3.499,1.566,3.5,3.499s-1.566,3.5-3.499,3.501&#10;&#9;&#9;c-12.926,0.007-24.001,3.03-24.001,5.5c0,2.842,11.211,6.063,22.634,6.502c1.932,0.074,3.438,1.701,3.363,3.632&#10;&#9;&#9;C119.23,215.215,117.678,216.695,115.807,216.695z"
                    fill="#9C9EA1" stroke="#67686B" stroke-miterlimit="10" />
            </g>
            <g transform="matrix(1, 0, 0, 1, -67.007996, -144.680099)">
                <path
                    d="M115.807,234.695c-0.045,0-0.091-0.001-0.137-0.002&#10;&#9;&#9;c-6.889-0.265-29.366-2.021-29.366-13.498c0-11.599,23.728-12.5,31-12.5c1.933,0,3.499,1.566,3.5,3.499s-1.566,3.5-3.499,3.501&#10;&#9;&#9;c-12.926,0.007-24.001,3.03-24.001,5.5c0,2.842,11.211,6.063,22.634,6.502c1.932,0.074,3.438,1.701,3.363,3.632&#10;&#9;&#9;C119.23,233.215,117.678,234.695,115.807,234.695z"
                    fill="#9C9EA1" stroke="#67686B" stroke-miterlimit="10" />
            </g>
            <g transform="matrix(1, 0, 0, 1, -67.007996, -144.680099)">
                <path
                    d="M115.807,252.695c-0.045,0-0.091-0.001-0.137-0.002&#10;&#9;&#9;c-6.889-0.265-29.366-2.021-29.366-13.498c0-11.599,23.728-12.5,31-12.5c1.933,0,3.499,1.566,3.5,3.499s-1.566,3.5-3.499,3.501&#10;&#9;&#9;c-12.926,0.007-24.001,3.03-24.001,5.5c0,2.842,11.211,6.063,22.634,6.502c1.932,0.074,3.438,1.701,3.363,3.632&#10;&#9;&#9;C119.23,251.215,117.678,252.695,115.807,252.695z"
                    fill="#9C9EA1" stroke="#67686B" stroke-miterlimit="10" />
            </g>
            <g transform="matrix(1, 0, 0, 1, -67.007996, -144.680099)">
                <path
                    d="M115.807,270.695c-0.045,0-0.091-0.001-0.137-0.002&#10;&#9;&#9;c-6.889-0.265-29.366-2.021-29.366-13.498c0-11.599,23.728-12.5,31-12.5c1.933,0,3.499,1.566,3.5,3.499s-1.566,3.5-3.499,3.501&#10;&#9;&#9;c-12.926,0.007-24.001,3.03-24.001,5.5c0,2.842,11.211,6.063,22.634,6.502c1.932,0.074,3.438,1.701,3.363,3.632&#10;&#9;&#9;C119.23,269.215,117.678,270.695,115.807,270.695z"
                    fill="#9C9EA1" stroke="#67686B" stroke-miterlimit="10" />
            </g>
            <g transform="matrix(1, 0, 0, 1, -67.007996, -144.680099)">
                <path
                    d="M115.807,288.695c-0.045,0-0.091-0.001-0.137-0.002&#10;&#9;&#9;c-6.889-0.265-29.366-2.021-29.366-13.498c0-11.599,23.728-12.5,31-12.5c1.933,0,3.499,1.566,3.5,3.499s-1.566,3.5-3.499,3.501&#10;&#9;&#9;c-12.926,0.007-24.001,3.03-24.001,5.5c0,2.842,11.211,6.063,22.634,6.502c1.932,0.074,3.438,1.701,3.363,3.632&#10;&#9;&#9;C119.23,287.215,117.678,288.695,115.807,288.695z"
                    fill="#9C9EA1" stroke="#67686B" stroke-miterlimit="10" />
            </g>
            <g transform="matrix(1, 0, 0, 1, -67.007996, -144.680099)">
                <path
                    d="M115.807,306.695c-0.045,0-0.091-0.001-0.137-0.002&#10;&#9;&#9;c-6.889-0.265-29.366-2.021-29.366-13.498c0-11.599,23.728-12.5,31-12.5c1.933,0,3.499,1.566,3.5,3.499s-1.566,3.5-3.499,3.501&#10;&#9;&#9;c-12.926,0.007-24.001,3.03-24.001,5.5c0,2.842,11.211,6.063,22.634,6.502c1.932,0.074,3.438,1.701,3.363,3.632&#10;&#9;&#9;C119.23,305.215,117.678,306.695,115.807,306.695z"
                    fill="#9C9EA1" stroke="#67686B" stroke-miterlimit="10" />
            </g>
            <g transform="matrix(1, 0, 0, 1, -67.007996, -144.680099)">
                <path
                    d="M115.807,324.695c-0.045,0-0.091-0.001-0.137-0.002&#10;&#9;&#9;c-6.889-0.265-29.366-2.021-29.366-13.498c0-11.599,23.728-12.5,31-12.5c1.933,0,3.499,1.566,3.5,3.499s-1.566,3.5-3.499,3.501&#10;&#9;&#9;c-12.926,0.007-24.001,3.03-24.001,5.5c0,2.842,11.211,6.063,22.634,6.502c1.932,0.074,3.438,1.701,3.363,3.632&#10;&#9;&#9;C119.23,323.215,117.678,324.695,115.807,324.695z"
                    fill="#9C9EA1" stroke="#67686B" stroke-miterlimit="10" />
            </g>
            <g transform="matrix(1, 0, 0, 1, -67.007996, -144.680099)">
                <path
                    d="M115.807,342.695c-0.045,0-0.091-0.001-0.137-0.002&#10;&#9;&#9;c-6.889-0.265-29.366-2.021-29.366-13.498c0-11.599,23.728-12.5,31-12.5c1.933,0,3.499,1.566,3.5,3.499s-1.566,3.5-3.499,3.501&#10;&#9;&#9;c-12.926,0.007-24.001,3.03-24.001,5.5c0,2.842,11.211,6.063,22.634,6.502c1.932,0.074,3.438,1.701,3.363,3.632&#10;&#9;&#9;C119.23,341.215,117.678,342.695,115.807,342.695z"
                    fill="#9C9EA1" stroke="#67686B" stroke-miterlimit="10" />
            </g>
            <g transform="matrix(1, 0, 0, 1, -67.007996, -144.680099)">
                <path
                    d="M115.807,360.695c-0.045,0-0.091-0.001-0.137-0.002&#10;&#9;&#9;c-6.889-0.265-29.366-2.021-29.366-13.498c0-11.599,23.728-12.5,31-12.5c1.933,0,3.499,1.566,3.5,3.499s-1.566,3.5-3.499,3.501&#10;&#9;&#9;c-12.926,0.007-24.001,3.03-24.001,5.5c0,2.842,11.211,6.063,22.634,6.502c1.932,0.074,3.438,1.701,3.363,3.632&#10;&#9;&#9;C119.23,359.215,117.678,360.695,115.807,360.695z"
                    fill="#9C9EA1" stroke="#67686B" stroke-miterlimit="10" />
            </g>
            <g transform="matrix(1, 0, 0, 1, -67.007996, -144.680099)">
                <path
                    d="M115.807,378.695c-0.045,0-0.091-0.001-0.137-0.002&#10;&#9;&#9;c-6.889-0.265-29.366-2.021-29.366-13.498c0-11.599,23.728-12.5,31-12.5c1.933,0,3.499,1.566,3.5,3.499s-1.566,3.5-3.499,3.501&#10;&#9;&#9;c-12.926,0.007-24.001,3.03-24.001,5.5c0,2.842,11.211,6.063,22.634,6.502c1.932,0.074,3.438,1.701,3.363,3.632&#10;&#9;&#9;C119.23,377.215,117.678,378.695,115.807,378.695z"
                    fill="#9C9EA1" stroke="#67686B" stroke-miterlimit="10" />
            </g>
            <g transform="matrix(1, 0, 0, 1, -67.007996, -144.680099)">
                <path
                    d="M115.807,396.695c-0.045,0-0.091-0.001-0.137-0.002&#10;&#9;&#9;c-6.889-0.265-29.366-2.021-29.366-13.498c0-11.599,23.728-12.5,31-12.5c1.933,0,3.499,1.566,3.5,3.499s-1.566,3.5-3.499,3.501&#10;&#9;&#9;c-12.926,0.007-24.001,3.03-24.001,5.5c0,2.842,11.211,6.063,22.634,6.502c1.932,0.074,3.438,1.701,3.363,3.632&#10;&#9;&#9;C119.23,395.215,117.678,396.695,115.807,396.695z"
                    fill="#9C9EA1" stroke="#67686B" stroke-miterlimit="10" />
            </g>
            <g transform="matrix(1, 0, 0, 1, -67.007996, -144.680099)">
                <path
                    d="M115.807,414.695c-0.045,0-0.091-0.001-0.137-0.002&#10;&#9;&#9;c-6.889-0.265-29.366-2.021-29.366-13.498c0-11.599,23.728-12.5,31-12.5c1.933,0,3.499,1.566,3.5,3.499s-1.566,3.5-3.499,3.501&#10;&#9;&#9;c-12.926,0.007-24.001,3.03-24.001,5.5c0,2.842,11.211,6.063,22.634,6.502c1.932,0.074,3.438,1.701,3.363,3.632&#10;&#9;&#9;C119.23,413.215,117.678,414.695,115.807,414.695z"
                    fill="#9C9EA1" stroke="#67686B" stroke-miterlimit="10" />
            </g>
            <g transform="matrix(1, 0, 0, 1, -67.007996, -144.680099)">
                <path
                    d="M115.807,432.695c-0.045,0-0.091-0.001-0.137-0.002&#10;&#9;&#9;c-6.889-0.265-29.366-2.021-29.366-13.498c0-11.599,23.728-12.5,31-12.5c1.933,0,3.499,1.566,3.5,3.499s-1.566,3.5-3.499,3.501&#10;&#9;&#9;c-12.926,0.007-24.001,3.03-24.001,5.5c0,2.842,11.211,6.063,22.634,6.502c1.932,0.074,3.438,1.701,3.363,3.632&#10;&#9;&#9;C119.23,431.215,117.678,432.695,115.807,432.695z"
                    fill="#9C9EA1" stroke="#67686B" stroke-miterlimit="10" />
            </g>
            <g transform="matrix(1, 0, 0, 1, -67.007996, -144.680099)">
                <path
                    d="M115.807,450.695c-0.045,0-0.091-0.001-0.137-0.002&#10;&#9;&#9;c-6.889-0.265-29.366-2.021-29.366-13.498c0-11.599,23.728-12.5,31-12.5c1.933,0,3.499,1.566,3.5,3.499s-1.566,3.5-3.499,3.501&#10;&#9;&#9;c-12.926,0.007-24.001,3.03-24.001,5.5c0,2.842,11.211,6.063,22.634,6.502c1.932,0.074,3.438,1.701,3.363,3.632&#10;&#9;&#9;C119.23,449.215,117.678,450.695,115.807,450.695z"
                    fill="#9C9EA1" stroke="#67686B" stroke-miterlimit="10" />
            </g>
            <g transform="matrix(1, 0, 0, 1, -67.007996, -144.680099)">
                <path
                    d="M115.807,470.195c-0.045,0-0.091-0.001-0.137-0.002&#10;&#9;&#9;c-6.889-0.265-29.366-2.021-29.366-13.498c0-11.599,23.728-12.5,31-12.5c1.933,0,3.499,1.566,3.5,3.499s-1.566,3.5-3.499,3.501&#10;&#9;&#9;c-12.926,0.007-24.001,3.03-24.001,5.5c0,2.842,11.211,6.063,22.634,6.502c1.932,0.074,3.438,1.701,3.363,3.632&#10;&#9;&#9;C119.23,468.715,117.678,470.195,115.807,470.195z"
                    fill="#9C9EA1" stroke="#67686B" stroke-miterlimit="10" />
            </g>
            <path
                d="M 263.797 70.515 C 263.797 60.022 255.29 51.515 244.797 51.515 L 96.797 51.515 C 86.304 51.515 77.797 60.022 77.797 70.515 L 77.797 116.015 C 77.797 126.508 86.304 135.015 96.797 135.015 L 244.797 135.015 C 255.29 135.015 263.797 126.508 263.797 116.015 L 263.797 70.515 Z"
                fill="#00456C" />
            <polygon fill="#FFFFFF"
                points="131.297 119.515 131.297 119.515 85.297 119.515 85.297 119.515 85.297 68.515 85.297 68.515 131.297 68.515 131.297 68.515" />
        </g>
    </g>
</svg>