<?xml version="1.0" encoding="utf-8"?>
<svg id="svg2" version="1.1" viewBox="0 0 111 50" xmlns="http://www.w3.org/2000/svg">
    <defs id="defs6">
        <linearGradient gradientTransform="matrix(0,8.9399061,-8.9399061,0,124.90447,592.0976)"
            gradientUnits="userSpaceOnUse" id="linearGradient2308" spreadMethod="pad" x1="0" x2="1"
            y1="0" y2="0">
            <stop style="stop-opacity:0;stop-color:#ffffff" id="stop2310" offset="0" />
            <stop style="stop-opacity:1;stop-color:#ffffff" id="stop2312" offset="1" />
        </linearGradient>
        <linearGradient gradientTransform="matrix(-10.075322,0,0,-10.075322,124.92826,593.1145)"
            gradientUnits="userSpaceOnUse" id="linearGradient2424" spreadMethod="pad" x1="0" x2="1"
            y1="0" y2="0">
            <stop style="stop-opacity:1;stop-color:#ffffff" id="stop2426" offset="0" />
            <stop style="stop-opacity:0;stop-color:#ffffff" id="stop2428" offset="1" />
        </linearGradient>
        <linearGradient gradientTransform="matrix(0,-13.274903,13.274903,0,134.25114,602.64343)"
            gradientUnits="userSpaceOnUse" id="linearGradient2592" spreadMethod="pad" x1="0" x2="1"
            y1="0" y2="0">
            <stop style="stop-opacity:1;stop-color:#ffffff" id="stop2594" offset="0" />
            <stop style="stop-opacity:0;stop-color:#ffffff" id="stop2596" offset="1" />
        </linearGradient>
        <linearGradient gradientTransform="matrix(0,8.9399061,-8.9399061,0,117.17867,580.27722)"
            gradientUnits="userSpaceOnUse" id="linearGradient2756" spreadMethod="pad" x1="0" x2="1"
            y1="0" y2="0">
            <stop style="stop-opacity:0;stop-color:#ffffff" id="stop2758" offset="0" />
            <stop style="stop-opacity:1;stop-color:#ffffff" id="stop2760" offset="1" />
        </linearGradient>
        <linearGradient gradientTransform="matrix(0,8.9399061,-8.9399061,0,76.862579,580.27722)"
            gradientUnits="userSpaceOnUse" id="linearGradient2990" spreadMethod="pad" x1="0" x2="1"
            y1="0" y2="0">
            <stop style="stop-opacity:0;stop-color:#ffffff" id="stop2992" offset="0" />
            <stop style="stop-opacity:1;stop-color:#ffffff" id="stop2994" offset="1" />
        </linearGradient>
        <linearGradient gradientTransform="matrix(-10.075322,0,0,-10.075322,119.42628,581.29413)"
            gradientUnits="userSpaceOnUse" id="linearGradient3060" spreadMethod="pad" x1="0" x2="1"
            y1="0" y2="0">
            <stop style="stop-opacity:1;stop-color:#ffffff" id="stop3062" offset="0" />
            <stop style="stop-opacity:0;stop-color:#ffffff" id="stop3064" offset="1" />
        </linearGradient>
        <linearGradient gradientTransform="matrix(-10.075322,0,0,-10.075322,76.886368,581.29413)"
            gradientUnits="userSpaceOnUse" id="linearGradient3106" spreadMethod="pad" x1="0" x2="1"
            y1="0" y2="0">
            <stop style="stop-opacity:1;stop-color:#ffffff" id="stop3108" offset="0" />
            <stop style="stop-opacity:0;stop-color:#ffffff" id="stop3110" offset="1" />
        </linearGradient>
        <linearGradient gradientTransform="matrix(-27.225538,0,0,-27.225538,103.99093,581.20905)"
            gradientUnits="userSpaceOnUse" id="linearGradient3160" spreadMethod="pad" x1="0" x2="1"
            y1="0" y2="0">
            <stop style="stop-opacity:1;stop-color:#ffffff" id="stop3162" offset="0" />
            <stop style="stop-opacity:0;stop-color:#ffffff" id="stop3164" offset="1" />
        </linearGradient>
        <clipPath clipPathUnits="userSpaceOnUse" id="path-1">
            <path d="m 0,858.898 612.288,0 L 612.288,0 0,0 0,858.898 Z" id="path-2" />
        </clipPath>
        <clipPath clipPathUnits="userSpaceOnUse" id="path-3">
            <path d="m 133.911,604.515 0.68,0 0,-15.74 -0.68,0 0,15.74 z" id="path-4" />
        </clipPath>
        <clipPath clipPathUnits="userSpaceOnUse" id="path-5">
            <path
                d="m 133.911,589.031 c 0,-0.141 0.114,-0.256 0.255,-0.256 l 0.17,0 c 0.141,0 0.255,0.115 0.255,0.256 l 0,15.229 c 0,0.141 -0.114,0.255 -0.255,0.255 l -0.17,0 c -0.141,0 -0.255,-0.114 -0.255,-0.255 l 0,-15.229 z"
                id="path-6" />
        </clipPath>
        <mask height="1" id="mask-1" maskUnits="userSpaceOnUse" width="1" x="0" y="0">
            <g id="g-1">
                <g id="g-2">
                    <g id="g-3">
                        <g id="g-4">
                            <path style="stroke: none; fill: url(#gradient-1);"
                                d="m -32768,32767 65535,0 0,-65535 -65535,0 0,65535 z"
                                id="path-7" />
                        </g>
                    </g>
                </g>
            </g>
        </mask>
        <linearGradient gradientTransform="matrix(0,-13.274903,13.274903,0,134.25114,602.64343)"
            gradientUnits="userSpaceOnUse" id="gradient-1" spreadMethod="pad" x1="0" x2="1" y1="0"
            y2="0">
            <stop style="stop-opacity:1;stop-color:#ffffff" id="stop-1" offset="0" />
            <stop style="stop-opacity:0;stop-color:#ffffff" id="stop-2" offset="1" />
        </linearGradient>
        <clipPath clipPathUnits="userSpaceOnUse" id="path-8">
            <path d="m 46.1048,571.999 87.0682,0 0,-3.127 -87.0682,0 0,3.127 z" id="path-9" />
        </clipPath>
        <clipPath clipPathUnits="userSpaceOnUse" id="path-10">
            <path
                d="m 46.105,570.436 c 0,-0.864 19.491,-1.564 43.534,-1.564 24.043,0 43.534,0.7 43.534,1.564 0,0.863 -19.491,1.563 -43.534,1.563 -24.043,0 -43.534,-0.7 -43.534,-1.563"
                id="path-11" />
        </clipPath>
        <mask height="1" id="mask-2" maskUnits="userSpaceOnUse" width="1" x="0" y="0">
            <g id="g-5">
                <g id="g-6">
                    <g id="g-7">
                        <g id="g-8">
                            <path style="stroke: none; fill: url(#gradient-3);"
                                d="m -32768,32767 65535,0 0,-65535 -65535,0 0,65535 z"
                                id="path-12" />
                        </g>
                    </g>
                </g>
            </g>
        </mask>
        <radialGradient cx="0" cy="0"
            gradientTransform="matrix(-43.534275,0,0,-1.5633415,89.63903,570.43579)"
            gradientUnits="userSpaceOnUse" id="gradient-3" r="1" spreadMethod="pad">
            <stop style="stop-opacity:0.82258335;stop-color:#ffffff" id="stop-5" offset="0" />
            <stop style="stop-opacity:0.82258335;stop-color:#ffffff" id="stop-6" offset="0.7737" />
            <stop style="stop-opacity:0;stop-color:#ffffff" id="stop-7" offset="1" />
        </radialGradient>
    </defs>
    <g clip-path="url(#path-1)" id="g-9"
        transform="matrix(1.25, 0, 0, -1.25, -57.897217, 761.003967)">
        <g id="g-10">
            <g id="g-11" />
            <g id="g-12">
                <g style="opacity:0.60000598" clip-path="url(#path-3)" id="g-13">
                    <g id="g-14">
                        <g clip-path="url(#path-5)" id="g-15">
                            <g id="g-16">
                                <g id="g-17" />
                                <g id="g-18" mask="url(#mask-1)">
                                    <g id="g-19">
                                        <path style="stroke: none; fill: rgb(35, 31, 32);"
                                            d="m 133.911,589.031 c 0,-0.141 0.114,-0.256 0.255,-0.256 l 0.17,0 c 0.141,0 0.255,0.115 0.255,0.256 l 0,15.229 c 0,0.141 -0.114,0.255 -0.255,0.255 l -0.17,0 c -0.141,0 -0.255,-0.114 -0.255,-0.255 l 0,-15.229 z"
                                            id="path-13" />
                                    </g>
                                </g>
                            </g>
                        </g>
                    </g>
                </g>
            </g>
        </g>
        <g id="g-20">
            <g id="g-21" />
            <g id="g-22">
                <g clip-path="url(#path-8)" id="g-23">
                    <g id="g-24">
                        <g clip-path="url(#path-10)" id="g-25">
                            <g id="g-26">
                                <g id="g-27" />
                                <g id="g-28" mask="url(#mask-2)">
                                    <g id="g-29">
                                        <path style="stroke: none; fill: rgb(35, 31, 32);"
                                            d="m 46.105,570.436 c 0,-0.864 19.491,-1.564 43.534,-1.564 24.043,0 43.534,0.7 43.534,1.564 0,0.863 -19.491,1.563 -43.534,1.563 -24.043,0 -43.534,-0.7 -43.534,-1.563"
                                            id="path-14" />
                                    </g>
                                </g>
                            </g>
                        </g>
                    </g>
                </g>
            </g>
        </g>
        <g id="g2696" transform="translate(122.1982,574.5834)">
            <path style="fill-opacity: 1; fill-rule: nonzero; stroke: none; fill: rgb(35, 31, 32);"
                d="m 0,0 c -0.121,0 -0.239,0.03 -0.345,0.085 l -66.016,0 C -66.45,0.03 -66.552,0 -66.66,0 l -2.298,0 c -0.357,0 -0.627,0.325 -0.627,0.755 l 0,2.382 c 0,0.431 0.27,0.756 0.627,0.756 l 0.052,0 c 0.119,2.003 0.582,4.786 2.017,7.477 2.621,4.916 6.943,5.746 9.264,6.193 l 0.176,0.035 c 0.428,3.028 1.229,8.638 5.057,11.871 3.055,2.579 9.595,4.118 17.495,4.118 1.046,0 2.09,-0.029 3.105,-0.087 8.087,-0.465 10.53,-4.137 11.664,-6.858 1.088,-2.613 1.976,-6.775 2.245,-8.106 0.644,0.014 1.969,0.037 3.584,0.037 3.033,0 7.177,-0.083 9.697,-0.478 4.033,-0.633 6.487,-3.183 7.724,-8.028 C 3.66,7.96 3.964,5.62 4.13,3.893 l 0.464,0 c 0.416,0 0.755,-0.339 0.755,-0.756 l 0,-2.382 C 5.349,0.339 5.01,0 4.594,0 L 0,0 Z"
                id="path2698" />
        </g>
        <g id="g2700" transform="translate(87.3012,608.6709)">
            <path style="fill-opacity: 1; fill-rule: nonzero; stroke: none; fill: rgb(35, 31, 32);"
                d="m 0,0 c -3.003,0 -13.162,-0.305 -17.817,-4.237 -3.828,-3.232 -4.728,-8.668 -5.18,-11.83 -2.293,-0.444 -6.772,-1.419 -9.436,-6.415 -1.387,-2.601 -1.891,-5.279 -2.049,-7.297 -0.422,-0.178 -0.706,-0.623 -0.706,-1.171 l 0,-2.382 c 0,-0.716 0.485,-1.256 1.128,-1.256 l 2.297,0 c 0.146,0 0.287,0.03 0.417,0.085 l 3.879,0 61.912,0 c 0.143,-0.055 0.296,-0.085 0.452,-0.085 l 4.594,0 c 0.692,0 1.255,0.563 1.255,1.256 l 0,2.382 c 0,0.692 -0.563,1.255 -1.255,1.255 l -0.011,0 c -0.176,1.689 -0.476,3.839 -0.977,5.799 -0.813,3.185 -2.541,7.521 -8.131,8.397 -2.552,0.401 -6.725,0.485 -9.776,0.485 -1.318,0 -2.452,-0.016 -3.176,-0.029 -0.344,1.649 -1.18,5.367 -2.189,7.789 -1.186,2.846 -3.73,6.684 -12.097,7.165 C 2.11,-0.03 1.055,0 0,0 m 0,-1 c 1.044,0 2.075,-0.03 3.077,-0.087 7.402,-0.426 9.954,-3.488 11.23,-6.551 1.277,-3.063 2.298,-8.423 2.298,-8.423 0,0 1.703,0.047 3.991,0.047 3.051,0 7.142,-0.084 9.621,-0.473 4.339,-0.68 6.296,-3.658 7.317,-7.657 0.576,-2.254 0.881,-4.777 1.038,-6.551 l 0.919,0 c 0.141,0 0.255,-0.114 0.255,-0.255 l 0,-2.382 c 0,-0.141 -0.114,-0.256 -0.255,-0.256 l -4.594,0 c -0.075,0 -0.141,0.034 -0.188,0.085 l -62.176,0 -4.202,0 c -0.024,-0.051 -0.057,-0.085 -0.094,-0.085 l -2.297,0 c -0.071,0 -0.128,0.115 -0.128,0.256 l 0,2.382 c 0,0.141 0.057,0.255 0.128,0.255 l 0.527,0 c 0.074,2.05 0.49,4.944 1.982,7.742 2.723,5.105 7.402,5.616 9.444,6.041 0.426,2.978 1.106,8.678 4.935,11.911 C -13.862,-2.205 -6.671,-1 0,-1"
                id="path2702" />
        </g>
        <g id="g2704" transform="translate(126.0266,575.6788)">
            <path style="fill-opacity: 1; fill-rule: nonzero; stroke: none; fill: rgb(35, 31, 32);"
                d="m 0,0 c 0,0 -0.17,4.85 -1.191,8.848 -1.021,3.999 -2.978,6.977 -7.317,7.657 -4.339,0.681 -13.613,0.426 -13.613,0.426 0,0 -1.021,5.36 -2.297,8.423 -1.276,3.063 -3.828,6.126 -11.23,6.551 -7.402,0.425 -16.421,-0.681 -20.249,-3.914 -3.829,-3.233 -4.51,-8.933 -4.935,-11.911 -2.042,-0.425 -6.721,-0.936 -9.444,-6.041 -2.722,-5.104 -1.872,-10.549 -1.872,-10.549 l 5.956,0 65.511,0 L 0,0 Z"
                id="path2706" />
        </g>
    </g>
</svg>