<?xml version="1.0" encoding="utf-8"?>
<svg id="svg2" version="1.1" viewBox="0 0 111 50" xmlns="http://www.w3.org/2000/svg">
    <defs id="defs6">
        <clipPath clipPathUnits="userSpaceOnUse" id="clipPath2268">
            <path
                d="m 109.535,588.776 c 0,-2.773 2.248,-5.021 5.021,-5.021 l 0,0 c 2.772,0 5.019,2.248 5.019,5.021 l 0,0 c 0,2.771 -2.247,5.019 -5.019,5.019 l 0,0 c -2.773,0 -5.021,-2.248 -5.021,-5.019"
                id="path2270" />
        </clipPath>
        <clipPath clipPathUnits="userSpaceOnUse" id="clipPath2288">
            <path
                d="m 109.535,588.776 c 0,-2.773 2.248,-5.021 5.021,-5.021 2.772,0 5.019,2.248 5.019,5.021 0,2.771 -2.247,5.019 -5.019,5.019 -2.773,0 -5.021,-2.248 -5.021,-5.019"
                id="path2290" />
        </clipPath>
        <clipPath clipPathUnits="userSpaceOnUse" id="clipPath2296">
            <path
                d="m 129.153,598.223 -1.921,-0.45 c 0,0 -0.451,0.93 -1.502,1.231 -0.03,0.871 -0.06,1.982 -0.06,1.982 0,0 -0.871,0.15 -1.501,-0.061 0,-0.45 -0.06,-1.861 -0.06,-1.861 0,0 -1.381,-0.18 -1.862,-1.321 -0.841,0.18 -1.621,0.45 -1.621,0.45 0,0 -0.331,-0.57 -0.421,-1.021 0.601,-0.18 1.652,-0.69 1.652,-0.69 0,0 -0.24,-1.232 0.69,-2.222 -0.21,-0.421 -1.051,-1.141 -1.051,-1.141 0,0 0.421,-0.541 0.811,-0.721 0.511,0.48 1.411,1.171 1.411,1.171 0,0 1.081,-0.511 2.282,0.06 0.331,-0.39 1.262,-1.531 1.262,-1.531 0,0 0.63,0.39 1.021,0.84 -0.451,0.511 -1.202,1.382 -1.202,1.382 0,0 0.781,0.81 0.721,2.131 0.901,0.301 1.802,0.631 1.802,0.631 0,0 -0.06,0.751 -0.451,1.141"
                id="path2298" />
        </clipPath>
        <linearGradient gradientTransform="matrix(0,8.9399061,-8.9399061,0,124.90447,592.0976)"
            gradientUnits="userSpaceOnUse" id="linearGradient2308" spreadMethod="pad" x1="0" x2="1"
            y1="0" y2="0">
            <stop style="stop-opacity:0;stop-color:#ffffff" id="stop2310" offset="0" />
            <stop style="stop-opacity:1;stop-color:#ffffff" id="stop2312" offset="1" />
        </linearGradient>
        <mask height="1" id="mask2314" maskUnits="userSpaceOnUse" width="1" x="0" y="0">
            <g id="g2316">
                <g id="g2318">
                    <g id="g2320">
                        <g id="g2322">
                            <path style="fill:url(#linearGradient2308);stroke:none"
                                d="m -32768,32767 65535,0 0,-65535 -65535,0 0,65535 z"
                                id="path2324" />
                        </g>
                    </g>
                </g>
            </g>
        </mask>
        <linearGradient gradientTransform="matrix(0,8.9399061,-8.9399061,0,124.90447,592.0976)"
            gradientUnits="userSpaceOnUse" id="linearGradient2330" spreadMethod="pad" x1="0" x2="1"
            y1="0" y2="0">
            <stop style="stop-opacity:1;stop-color:#231f20" id="stop2332" offset="0" />
            <stop style="stop-opacity:1;stop-color:#ffffff" id="stop2334" offset="1" />
        </linearGradient>
        <clipPath clipPathUnits="userSpaceOnUse" id="clipPath2572">
            <path d="m 0,858.898 612.288,0 L 612.288,0 0,0 0,858.898 Z" id="path2574" />
        </clipPath>
        <clipPath clipPathUnits="userSpaceOnUse" id="clipPath2580">
            <path d="m 133.911,604.515 0.68,0 0,-15.74 -0.68,0 0,15.74 z" id="path2582" />
        </clipPath>
        <clipPath clipPathUnits="userSpaceOnUse" id="clipPath2584">
            <path
                d="m 133.911,589.031 c 0,-0.141 0.114,-0.256 0.255,-0.256 l 0.17,0 c 0.141,0 0.255,0.115 0.255,0.256 l 0,15.229 c 0,0.141 -0.114,0.255 -0.255,0.255 l -0.17,0 c -0.141,0 -0.255,-0.114 -0.255,-0.255 l 0,-15.229 z"
                id="path2586" />
        </clipPath>
        <linearGradient gradientTransform="matrix(0,-13.274903,13.274903,0,134.25114,602.64343)"
            gradientUnits="userSpaceOnUse" id="linearGradient2592" spreadMethod="pad" x1="0" x2="1"
            y1="0" y2="0">
            <stop style="stop-opacity:1;stop-color:#ffffff" id="stop2594" offset="0" />
            <stop style="stop-opacity:0;stop-color:#ffffff" id="stop2596" offset="1" />
        </linearGradient>
        <mask height="1" id="mask2598" maskUnits="userSpaceOnUse" width="1" x="0" y="0">
            <g id="g2600">
                <g id="g2602">
                    <g id="g2604">
                        <g id="g2606">
                            <path style="fill:url(#linearGradient2592);stroke:none"
                                d="m -32768,32767 65535,0 0,-65535 -65535,0 0,65535 z"
                                id="path2608" />
                        </g>
                    </g>
                </g>
            </g>
        </mask>
        <linearGradient gradientTransform="matrix(0,-13.274903,13.274903,0,134.25114,602.64343)"
            gradientUnits="userSpaceOnUse" id="linearGradient2610" spreadMethod="pad" x1="0" x2="1"
            y1="0" y2="0">
            <stop style="stop-opacity:1;stop-color:#231f20" id="stop2612" offset="0" />
            <stop style="stop-opacity:1;stop-color:#ffffff" id="stop2614" offset="1" />
        </linearGradient>
        <radialGradient cx="0" cy="0"
            gradientTransform="matrix(-43.534275,0,0,-1.5633415,89.63903,570.43579)"
            gradientUnits="userSpaceOnUse" id="radialGradient2650" r="1" spreadMethod="pad">
            <stop style="stop-opacity:0.82258335;stop-color:#ffffff" id="stop2652" offset="0" />
            <stop style="stop-opacity:0.82258335;stop-color:#ffffff" id="stop2654"
                offset="0.7737" />
            <stop style="stop-opacity:0;stop-color:#ffffff" id="stop2656" offset="1" />
        </radialGradient>
        <clipPath clipPathUnits="userSpaceOnUse" id="clipPath2716">
            <path
                d="m 104.332,576.955 c 0,-2.772 2.247,-5.019 5.019,-5.019 l 0,0 c 2.772,0 5.02,2.247 5.02,5.019 l 0,0 c 0,2.772 -2.248,5.02 -5.02,5.02 l 0,0 c -2.772,0 -5.019,-2.248 -5.019,-5.02"
                id="path2718" />
        </clipPath>
        <clipPath clipPathUnits="userSpaceOnUse" id="clipPath2736">
            <path
                d="m 104.332,576.955 c 0,-2.772 2.247,-5.019 5.019,-5.019 2.772,0 5.02,2.247 5.02,5.019 0,2.772 -2.248,5.02 -5.02,5.02 -2.772,0 -5.019,-2.248 -5.019,-5.02"
                id="path2738" />
        </clipPath>
        <clipPath clipPathUnits="userSpaceOnUse" id="clipPath2744">
            <path
                d="m 121.427,586.403 -1.921,-0.451 c 0,0 -0.451,0.931 -1.502,1.231 -0.03,0.871 -0.06,1.982 -0.06,1.982 0,0 -0.87,0.15 -1.501,-0.06 0,-0.45 -0.06,-1.862 -0.06,-1.862 0,0 -1.381,-0.18 -1.862,-1.321 -0.84,0.18 -1.621,0.451 -1.621,0.451 0,0 -0.33,-0.571 -0.421,-1.021 0.601,-0.18 1.652,-0.691 1.652,-0.691 0,0 -0.24,-1.231 0.691,-2.222 -0.211,-0.42 -1.051,-1.141 -1.051,-1.141 0,0 0.42,-0.54 0.81,-0.72 0.511,0.48 1.412,1.171 1.412,1.171 0,0 1.081,-0.511 2.282,0.06 0.33,-0.391 1.261,-1.532 1.261,-1.532 0,0 0.63,0.391 1.021,0.841 -0.451,0.51 -1.201,1.381 -1.201,1.381 0,0 0.78,0.811 0.72,2.132 0.901,0.3 1.802,0.631 1.802,0.631 0,0 -0.06,0.75 -0.451,1.141"
                id="path2746" />
        </clipPath>
        <linearGradient gradientTransform="matrix(0,8.9399061,-8.9399061,0,117.17867,580.27722)"
            gradientUnits="userSpaceOnUse" id="linearGradient2756" spreadMethod="pad" x1="0" x2="1"
            y1="0" y2="0">
            <stop style="stop-opacity:0;stop-color:#ffffff" id="stop2758" offset="0" />
            <stop style="stop-opacity:1;stop-color:#ffffff" id="stop2760" offset="1" />
        </linearGradient>
        <mask height="1" id="mask2762" maskUnits="userSpaceOnUse" width="1" x="0" y="0">
            <g id="g2764">
                <g id="g2766">
                    <g id="g2768">
                        <g id="g2770">
                            <path style="fill:url(#linearGradient2756);stroke:none"
                                d="m -32768,32767 65535,0 0,-65535 -65535,0 0,65535 z"
                                id="path2772" />
                        </g>
                    </g>
                </g>
            </g>
        </mask>
        <linearGradient gradientTransform="matrix(0,8.9399061,-8.9399061,0,117.17867,580.27722)"
            gradientUnits="userSpaceOnUse" id="linearGradient2778" spreadMethod="pad" x1="0" x2="1"
            y1="0" y2="0">
            <stop style="stop-opacity:1;stop-color:#231f20" id="stop2780" offset="0" />
            <stop style="stop-opacity:1;stop-color:#ffffff" id="stop2782" offset="1" />
        </linearGradient>
        <clipPath clipPathUnits="userSpaceOnUse" id="clipPath2938">
            <path d="m 0,858.898 612.288,0 L 612.288,0 0,0 0,858.898 Z" id="path2940" />
        </clipPath>
        <clipPath clipPathUnits="userSpaceOnUse" id="clipPath2950">
            <path
                d="m 61.493,576.955 c 0,-2.772 2.248,-5.019 5.021,-5.019 l 0,0 c 2.772,0 5.019,2.247 5.019,5.019 l 0,0 c 0,2.772 -2.247,5.02 -5.019,5.02 l 0,0 c -2.773,0 -5.021,-2.248 -5.021,-5.02"
                id="path2952" />
        </clipPath>
        <clipPath clipPathUnits="userSpaceOnUse" id="clipPath2970">
            <path
                d="m 61.493,576.955 c 0,-2.772 2.248,-5.019 5.021,-5.019 2.772,0 5.019,2.247 5.019,5.019 0,2.772 -2.247,5.02 -5.019,5.02 -2.773,0 -5.021,-2.248 -5.021,-5.02"
                id="path2972" />
        </clipPath>
        <clipPath clipPathUnits="userSpaceOnUse" id="clipPath2978">
            <path
                d="m 81.111,586.403 -1.921,-0.451 c 0,0 -0.451,0.931 -1.502,1.231 -0.03,0.871 -0.06,1.982 -0.06,1.982 0,0 -0.871,0.15 -1.501,-0.06 0,-0.45 -0.06,-1.862 -0.06,-1.862 0,0 -1.381,-0.18 -1.862,-1.321 -0.841,0.18 -1.621,0.451 -1.621,0.451 0,0 -0.331,-0.571 -0.421,-1.021 0.601,-0.18 1.652,-0.691 1.652,-0.691 0,0 -0.24,-1.231 0.69,-2.222 -0.21,-0.42 -1.05,-1.141 -1.05,-1.141 0,0 0.42,-0.54 0.81,-0.72 0.511,0.48 1.412,1.171 1.412,1.171 0,0 1.08,-0.511 2.282,0.06 0.33,-0.391 1.261,-1.532 1.261,-1.532 0,0 0.63,0.391 1.021,0.841 -0.451,0.51 -1.201,1.381 -1.201,1.381 0,0 0.78,0.811 0.72,2.132 0.901,0.3 1.802,0.631 1.802,0.631 0,0 -0.06,0.75 -0.451,1.141"
                id="path2980" />
        </clipPath>
        <linearGradient gradientTransform="matrix(0,8.9399061,-8.9399061,0,76.862579,580.27722)"
            gradientUnits="userSpaceOnUse" id="linearGradient2990" spreadMethod="pad" x1="0" x2="1"
            y1="0" y2="0">
            <stop style="stop-opacity:0;stop-color:#ffffff" id="stop2992" offset="0" />
            <stop style="stop-opacity:1;stop-color:#ffffff" id="stop2994" offset="1" />
        </linearGradient>
        <mask height="1" id="mask2996" maskUnits="userSpaceOnUse" width="1" x="0" y="0">
            <g id="g2998">
                <g id="g3000">
                    <g id="g3002">
                        <g id="g3004">
                            <path style="fill:url(#linearGradient2990);stroke:none"
                                d="m -32768,32767 65535,0 0,-65535 -65535,0 0,65535 z"
                                id="path3006" />
                        </g>
                    </g>
                </g>
            </g>
        </mask>
        <linearGradient gradientTransform="matrix(0,8.9399061,-8.9399061,0,76.862579,580.27722)"
            gradientUnits="userSpaceOnUse" id="linearGradient3012" spreadMethod="pad" x1="0" x2="1"
            y1="0" y2="0">
            <stop style="stop-opacity:1;stop-color:#231f20" id="stop3014" offset="0" />
            <stop style="stop-opacity:1;stop-color:#ffffff" id="stop3016" offset="1" />
        </linearGradient>
        <clipPath clipPathUnits="userSpaceOnUse" id="clipPath3024">
            <path d="m 0,858.898 612.288,0 L 612.288,0 0,0 0,858.898 Z" id="path3026" />
        </clipPath>
        <clipPath clipPathUnits="userSpaceOnUse" id="clipPath3048">
            <path
                d="m 109.351,583.846 c 0,0 7.487,0.086 7.231,-8.592 l 0,0 2.723,0.17 c 0,0 1.957,9.528 -9.869,11.911 l 0,0 -0.085,-3.489 z"
                id="path3050" />
        </clipPath>
        <linearGradient gradientTransform="matrix(-10.075322,0,0,-10.075322,119.42628,581.29413)"
            gradientUnits="userSpaceOnUse" id="linearGradient3060" spreadMethod="pad" x1="0" x2="1"
            y1="0" y2="0">
            <stop style="stop-opacity:1;stop-color:#ffffff" id="stop3062" offset="0" />
            <stop style="stop-opacity:0;stop-color:#ffffff" id="stop3064" offset="1" />
        </linearGradient>
        <mask height="1" id="mask3066" maskUnits="userSpaceOnUse" width="1" x="0" y="0">
            <g id="g3068">
                <g id="g3070">
                    <g id="g3072">
                        <g id="g3074">
                            <path style="fill:url(#linearGradient3060);stroke:none"
                                d="m -32768,32767 65535,0 0,-65535 -65535,0 0,65535 z"
                                id="path3076" />
                        </g>
                    </g>
                </g>
            </g>
        </mask>
        <linearGradient gradientTransform="matrix(-10.075322,0,0,-10.075322,119.42628,581.29413)"
            gradientUnits="userSpaceOnUse" id="linearGradient3082" spreadMethod="pad" x1="0" x2="1"
            y1="0" y2="0">
            <stop style="stop-opacity:1;stop-color:#ffffff" id="stop3084" offset="0" />
            <stop style="stop-opacity:1;stop-color:#ffffff" id="stop3086" offset="1" />
        </linearGradient>
        <clipPath clipPathUnits="userSpaceOnUse" id="clipPath3094">
            <path
                d="m 66.811,583.846 c 0,0 7.487,0.086 7.232,-8.592 l 0,0 2.723,0.17 c 0,0 1.956,9.528 -9.87,11.911 l 0,0 -0.085,-3.489 z"
                id="path3096" />
        </clipPath>
        <linearGradient gradientTransform="matrix(-10.075322,0,0,-10.075322,76.886368,581.29413)"
            gradientUnits="userSpaceOnUse" id="linearGradient3106" spreadMethod="pad" x1="0" x2="1"
            y1="0" y2="0">
            <stop style="stop-opacity:1;stop-color:#ffffff" id="stop3108" offset="0" />
            <stop style="stop-opacity:0;stop-color:#ffffff" id="stop3110" offset="1" />
        </linearGradient>
        <mask height="1" id="mask3112" maskUnits="userSpaceOnUse" width="1" x="0" y="0">
            <g id="g3114">
                <g id="g3116">
                    <g id="g3118">
                        <g id="g3120">
                            <path style="fill:url(#linearGradient3106);stroke:none"
                                d="m -32768,32767 65535,0 0,-65535 -65535,0 0,65535 z"
                                id="path3122" />
                        </g>
                    </g>
                </g>
            </g>
        </mask>
        <linearGradient gradientTransform="matrix(-10.075322,0,0,-10.075322,76.886368,581.29413)"
            gradientUnits="userSpaceOnUse" id="linearGradient3128" spreadMethod="pad" x1="0" x2="1"
            y1="0" y2="0">
            <stop style="stop-opacity:1;stop-color:#ffffff" id="stop3130" offset="0" />
            <stop style="stop-opacity:1;stop-color:#ffffff" id="stop3132" offset="1" />
        </linearGradient>
        <clipPath clipPathUnits="userSpaceOnUse" id="clipPath3140">
            <path d="m 0,858.898 612.288,0 L 612.288,0 0,0 0,858.898 Z" id="path3142" />
        </clipPath>
        <clipPath clipPathUnits="userSpaceOnUse" id="clipPath3148">
            <path d="m 76.7654,585.888 27.2256,0 0,-9.358 -27.2256,0 0,9.358 z" id="path3150" />
        </clipPath>
        <clipPath clipPathUnits="userSpaceOnUse" id="clipPath3152">
            <path
                d="m 103.991,585.888 c 0,0 -4.85,-2.977 -4.935,-9.273 -1.871,0 -22.291,-0.085 -22.291,-0.085 l 0,0.595 21.611,0 c 0,0 0,6.551 5.615,8.763"
                id="path3154" />
        </clipPath>
        <linearGradient gradientTransform="matrix(-27.225538,0,0,-27.225538,103.99093,581.20905)"
            gradientUnits="userSpaceOnUse" id="linearGradient3160" spreadMethod="pad" x1="0" x2="1"
            y1="0" y2="0">
            <stop style="stop-opacity:1;stop-color:#ffffff" id="stop3162" offset="0" />
            <stop style="stop-opacity:0;stop-color:#ffffff" id="stop3164" offset="1" />
        </linearGradient>
        <mask height="1" id="mask3166" maskUnits="userSpaceOnUse" width="1" x="0" y="0">
            <g id="g3168">
                <g id="g3170">
                    <g id="g3172">
                        <g id="g3174">
                            <path style="fill:url(#linearGradient3160);stroke:none"
                                d="m -32768,32767 65535,0 0,-65535 -65535,0 0,65535 z"
                                id="path3176" />
                        </g>
                    </g>
                </g>
            </g>
        </mask>
        <linearGradient gradientTransform="matrix(-27.225538,0,0,-27.225538,103.99093,581.20905)"
            gradientUnits="userSpaceOnUse" id="linearGradient3178" spreadMethod="pad" x1="0" x2="1"
            y1="0" y2="0">
            <stop style="stop-opacity:1;stop-color:#231f20" id="stop3180" offset="0" />
            <stop style="stop-opacity:1;stop-color:#ffffff" id="stop3182" offset="1" />
        </linearGradient>
    </defs>
    <g id="g10" transform="matrix(1.25,0,0,-1.25,0,1073.6225)">
        <g id="g2264" transform="matrix(1, 0, 0, 1, -46.105, 250.227142)">
            <g clip-path="url(#clipPath2268)" id="g2266">
                <g id="g2272" transform="translate(120.2153,596.2814)">
                    <path style="fill:#aeb0b3;fill-opacity:1;fill-rule:nonzero;stroke:none"
                        d="m 0,0 c 0,-2.609 2.115,-4.724 4.724,-4.724 2.609,0 4.724,2.115 4.724,4.724 0,2.609 -2.115,4.724 -4.724,4.724 C 2.115,4.724 0,2.609 0,0"
                        id="path2274" />
                </g>
                <g id="g2276" transform="translate(120.7758,596.2814)">
                    <path style="fill:#85878a;fill-opacity:1;fill-rule:nonzero;stroke:none"
                        d="M 0,0 C 0,-2.3 1.864,-4.164 4.164,-4.164 6.463,-4.164 8.327,-2.3 8.327,0 8.327,2.3 6.463,4.164 4.164,4.164 1.864,4.164 0,2.3 0,0"
                        id="path2278" />
                </g>
                <g id="g2280" transform="translate(129.1533,598.2231)">
                    <path style="fill:#aeb0b3;fill-opacity:1;fill-rule:nonzero;stroke:none"
                        d="m 0,0 -1.922,-0.45 c 0,0 -0.45,0.93 -1.501,1.231 -0.03,0.87 -0.06,1.981 -0.06,1.981 0,0 -0.871,0.151 -1.501,-0.06 0,-0.45 -0.061,-1.861 -0.061,-1.861 0,0 -1.381,-0.18 -1.861,-1.321 -0.841,0.18 -1.622,0.45 -1.622,0.45 0,0 -0.33,-0.571 -0.42,-1.021 0.601,-0.18 1.651,-0.691 1.651,-0.691 0,0 -0.24,-1.231 0.691,-2.222 -0.21,-0.42 -1.051,-1.141 -1.051,-1.141 0,0 0.421,-0.54 0.811,-0.72 0.51,0.48 1.411,1.171 1.411,1.171 0,0 1.081,-0.511 2.282,0.06 0.33,-0.39 1.261,-1.531 1.261,-1.531 0,0 0.631,0.39 1.021,0.84 -0.45,0.511 -1.201,1.381 -1.201,1.381 0,0 0.781,0.811 0.721,2.132 0.901,0.301 1.801,0.631 1.801,0.631 0,0 -0.06,0.751 -0.45,1.141"
                        id="path2282" />
                </g>
            </g>
        </g>
        <g id="g2284" transform="matrix(1, 0, 0, 1, -46.105, 250.227142)">
            <g clip-path="url(#clipPath2288)" id="g2286">
                <g id="g2292">
                    <g clip-path="url(#clipPath2296)" id="g2294">
                        <g id="g2300">
                            <g id="g2302" />
                            <g id="g2326" mask="url(#mask2314)">
                                <g id="g2328">
                                    <path style="fill:url(#linearGradient2330);stroke:none"
                                        d="m 129.153,598.223 -1.921,-0.45 c 0,0 -0.451,0.93 -1.502,1.231 -0.03,0.871 -0.06,1.982 -0.06,1.982 0,0 -0.871,0.15 -1.501,-0.061 0,-0.45 -0.06,-1.861 -0.06,-1.861 0,0 -1.381,-0.18 -1.862,-1.321 -0.841,0.18 -1.621,0.45 -1.621,0.45 0,0 -0.331,-0.57 -0.421,-1.021 0.601,-0.18 1.652,-0.69 1.652,-0.69 0,0 -0.24,-1.232 0.69,-2.222 -0.21,-0.421 -1.051,-1.141 -1.051,-1.141 0,0 0.421,-0.541 0.811,-0.721 0.511,0.48 1.411,1.171 1.411,1.171 0,0 1.081,-0.511 2.282,0.06 0.331,-0.39 1.262,-1.531 1.262,-1.531 0,0 0.63,0.39 1.021,0.84 -0.451,0.511 -1.202,1.382 -1.202,1.382 0,0 0.781,0.81 0.721,2.131 0.901,0.301 1.802,0.631 1.802,0.631 0,0 -0.06,0.751 -0.451,1.141"
                                        id="path2336" />
                                </g>
                            </g>
                        </g>
                    </g>
                </g>
            </g>
        </g>
        <g id="g2568" transform="matrix(1, 0, 0, 1, -46.105, 250.227142)">
            <g clip-path="url(#clipPath2572)" id="g2570">
                <g id="g2576">
                    <g id="g2578" />
                    <g id="g2616">
                        <g style="opacity:0.60000598" clip-path="url(#clipPath2580)" id="g2618">
                            <g id="g2620">
                                <g clip-path="url(#clipPath2584)" id="g2622">
                                    <g id="g2624">
                                        <g id="g2626" />
                                        <g id="g2628" mask="url(#mask2598)">
                                            <g id="g2630">
                                                <path
                                                    style="fill:url(#linearGradient2610);stroke:none"
                                                    d="m 133.911,589.031 c 0,-0.141 0.114,-0.256 0.255,-0.256 l 0.17,0 c 0.141,0 0.255,0.115 0.255,0.256 l 0,15.229 c 0,0.141 -0.114,0.255 -0.255,0.255 l -0.17,0 c -0.141,0 -0.255,-0.114 -0.255,-0.255 l 0,-15.229 z"
                                                    id="path2632" />
                                            </g>
                                        </g>
                                    </g>
                                </g>
                            </g>
                        </g>
                    </g>
                </g>
                <g id="g2708" transform="translate(102.4595,576.9551)">
                    <path style="fill:#231f20;fill-opacity:1;fill-rule:nonzero;stroke:none"
                        d="m 0,0 c 0,-3.806 3.085,-6.891 6.891,-6.891 3.807,0 6.892,3.085 6.892,6.891 0,3.806 -3.085,6.891 -6.892,6.891 C 3.085,6.891 0,3.806 0,0"
                        id="path2710" />
                </g>
            </g>
        </g>
        <g id="g2712" transform="matrix(1, 0, 0, 1, -46.105, 250.227142)">
            <g clip-path="url(#clipPath2716)" id="g2714">
                <g id="g2720" transform="translate(112.4895,584.461)">
                    <path style="fill:#aeb0b3;fill-opacity:1;fill-rule:nonzero;stroke:none"
                        d="m 0,0 c 0,-2.609 2.115,-4.724 4.724,-4.724 2.609,0 4.724,2.115 4.724,4.724 0,2.609 -2.115,4.724 -4.724,4.724 C 2.115,4.724 0,2.609 0,0"
                        id="path2722" />
                </g>
                <g id="g2724" transform="translate(113.05,584.461)">
                    <path style="fill:#85878a;fill-opacity:1;fill-rule:nonzero;stroke:none"
                        d="M 0,0 C 0,-2.3 1.864,-4.164 4.164,-4.164 6.463,-4.164 8.327,-2.3 8.327,0 8.327,2.3 6.463,4.164 4.164,4.164 1.864,4.164 0,2.3 0,0"
                        id="path2726" />
                </g>
                <g id="g2728" transform="translate(121.4275,586.4027)">
                    <path style="fill:#aeb0b3;fill-opacity:1;fill-rule:nonzero;stroke:none"
                        d="m 0,0 -1.922,-0.45 c 0,0 -0.45,0.93 -1.501,1.231 -0.03,0.87 -0.06,1.981 -0.06,1.981 0,0 -0.871,0.151 -1.501,-0.06 0,-0.45 -0.061,-1.861 -0.061,-1.861 0,0 -1.381,-0.18 -1.861,-1.321 -0.841,0.18 -1.622,0.45 -1.622,0.45 0,0 -0.33,-0.571 -0.42,-1.021 0.601,-0.18 1.651,-0.691 1.651,-0.691 0,0 -0.24,-1.231 0.691,-2.222 -0.21,-0.42 -1.051,-1.141 -1.051,-1.141 0,0 0.421,-0.54 0.811,-0.72 0.51,0.48 1.411,1.171 1.411,1.171 0,0 1.081,-0.511 2.282,0.06 0.33,-0.39 1.261,-1.531 1.261,-1.531 0,0 0.631,0.39 1.021,0.84 -0.45,0.511 -1.201,1.381 -1.201,1.381 0,0 0.781,0.811 0.721,2.132 0.901,0.301 1.801,0.631 1.801,0.631 0,0 -0.06,0.751 -0.45,1.141"
                        id="path2730" />
                </g>
            </g>
        </g>
        <g id="g2732" transform="matrix(1, 0, 0, 1, -46.105, 250.227142)">
            <g clip-path="url(#clipPath2736)" id="g2734">
                <g id="g2740">
                    <g clip-path="url(#clipPath2744)" id="g2742">
                        <g id="g2748">
                            <g id="g2750" />
                            <g id="g2774" mask="url(#mask2762)">
                                <g id="g2776">
                                    <path style="fill:url(#linearGradient2778);stroke:none"
                                        d="m 121.427,586.403 -1.921,-0.451 c 0,0 -0.451,0.931 -1.502,1.231 -0.03,0.871 -0.06,1.982 -0.06,1.982 0,0 -0.87,0.15 -1.501,-0.06 0,-0.45 -0.06,-1.862 -0.06,-1.862 0,0 -1.381,-0.18 -1.862,-1.321 -0.84,0.18 -1.621,0.451 -1.621,0.451 0,0 -0.33,-0.571 -0.421,-1.021 0.601,-0.18 1.652,-0.691 1.652,-0.691 0,0 -0.24,-1.231 0.691,-2.222 -0.211,-0.42 -1.051,-1.141 -1.051,-1.141 0,0 0.42,-0.54 0.81,-0.72 0.511,0.48 1.412,1.171 1.412,1.171 0,0 1.081,-0.511 2.282,0.06 0.33,-0.391 1.261,-1.532 1.261,-1.532 0,0 0.63,0.391 1.021,0.841 -0.451,0.51 -1.201,1.381 -1.201,1.381 0,0 0.78,0.811 0.72,2.132 0.901,0.3 1.802,0.631 1.802,0.631 0,0 -0.06,0.75 -0.451,1.141"
                                        id="path2784" />
                                </g>
                            </g>
                        </g>
                    </g>
                </g>
            </g>
        </g>
        <g id="g2786" transform="matrix(1, 0, 0, 1, -46.105, 250.227142)">
            <g id="g2788">
                <g id="g2794">
                    <g id="g2796">
                        <path style="stroke: none; fill: rgb(255, 255, 255);"
                            d="m 119.597,590.027 c -0.555,-0.506 -0.184,-1.818 0.829,-2.929 l 0,0 c 1.014,-1.111 2.285,-1.601 2.841,-1.095 l 0,0 c 0.555,0.507 0.184,1.818 -0.829,2.93 l 0,0 c -0.742,0.813 -1.622,1.294 -2.259,1.294 l 0,0 c -0.233,0 -0.433,-0.064 -0.582,-0.2"
                            id="path2804" />
                    </g>
                </g>
            </g>
        </g>
        <g id="g2806" transform="matrix(1, 0, 0, 1, -46.105, 250.227142)">
            <g id="g2808">
                <g id="g2814">
                    <g id="g2816">
                        <path style="stroke: none; fill: rgb(255, 255, 255);"
                            d="m 122.763,583.99 c -0.502,-0.236 -0.628,-1.023 -0.281,-1.76 l 0,0 c 0.345,-0.738 1.032,-1.145 1.534,-0.909 l 0,0 c 0.501,0.235 0.627,1.023 0.28,1.76 l 0,0 c -0.279,0.596 -0.781,0.976 -1.228,0.976 l 0,0 c -0.106,0 -0.209,-0.022 -0.305,-0.067"
                            id="path2824" />
                    </g>
                </g>
            </g>
        </g>
        <g id="g2866" transform="matrix(1, 0, 0, 1, -46.105, 250.227142)">
            <g id="g2868">
                <g id="g2874">
                    <g id="g2876">
                        <path style="stroke: none;"
                            d="m 87.667,590.483 c -0.124,0 -0.224,-0.115 -0.224,-0.256 l 0,0 0,-0.85 c 0,-0.142 0.1,-0.256 0.224,-0.256 l 0,0 2.913,0 c 0.123,0 0.224,0.114 0.224,0.256 l 0,0 0,0.85 c 0,0.141 -0.101,0.256 -0.224,0.256 l 0,0 -2.913,0 z"
                            id="path2888" />
                    </g>
                </g>
            </g>
        </g>
        <g id="g2890" transform="matrix(1, 0, 0, 1, -46.105, 250.227142)">
            <g id="g2892">
                <g id="g2898">
                    <g id="g2900">
                        <path style="stroke: none;"
                            d="m 81.86,590.483 c -0.124,0 -0.224,-0.115 -0.224,-0.256 l 0,0 0,-0.85 c 0,-0.142 0.1,-0.256 0.224,-0.256 l 0,0 2.913,0 c 0.124,0 0.224,0.114 0.224,0.256 l 0,0 0,0.85 c 0,0.141 -0.1,0.256 -0.224,0.256 l 0,0 -2.913,0 z"
                            id="path2912" />
                    </g>
                </g>
            </g>
        </g>
        <g id="g2914" transform="matrix(1, 0, 0, 1, -46.105, 250.227142)">
            <g id="g2916">
                <g id="g2922">
                    <g id="g2924">
                        <path style="stroke: none; fill: rgb(244, 154, 0);"
                            d="m 103.31,590.143 c 0,-0.447 0.534,-0.809 1.192,-0.809 l 0,0 c 0.658,0 1.19,0.362 1.19,0.809 l 0,0 c 0,0.446 -0.532,0.808 -1.19,0.808 l 0,0 c -0.658,0 -1.192,-0.362 -1.192,-0.808"
                            id="path2932" />
                    </g>
                </g>
            </g>
        </g>
        <g id="g2934" transform="matrix(1, 0, 0, 1, -46.105, 250.227142)">
            <g clip-path="url(#clipPath2938)" id="g2936">
                <g id="g2942" transform="translate(59.6218,576.9551)">
                    <path style="fill:#231f20;fill-opacity:1;fill-rule:nonzero;stroke:none"
                        d="m 0,0 c 0,-3.806 3.085,-6.891 6.891,-6.891 3.807,0 6.892,3.085 6.892,6.891 0,3.806 -3.085,6.891 -6.892,6.891 C 3.085,6.891 0,3.806 0,0"
                        id="path2944" />
                </g>
            </g>
        </g>
        <g id="g2946" transform="matrix(1, 0, 0, 1, -46.105, 250.227142)">
            <g clip-path="url(#clipPath2950)" id="g2948">
                <g id="g2954" transform="translate(72.1734,584.461)">
                    <path style="fill:#aeb0b3;fill-opacity:1;fill-rule:nonzero;stroke:none"
                        d="m 0,0 c 0,-2.609 2.115,-4.724 4.724,-4.724 2.609,0 4.724,2.115 4.724,4.724 0,2.609 -2.115,4.724 -4.724,4.724 C 2.115,4.724 0,2.609 0,0"
                        id="path2956" />
                </g>
                <g id="g2958" transform="translate(72.7339,584.461)">
                    <path style="fill:#85878a;fill-opacity:1;fill-rule:nonzero;stroke:none"
                        d="M 0,0 C 0,-2.3 1.864,-4.164 4.164,-4.164 6.463,-4.164 8.327,-2.3 8.327,0 8.327,2.3 6.463,4.164 4.164,4.164 1.864,4.164 0,2.3 0,0"
                        id="path2960" />
                </g>
                <g id="g2962" transform="translate(81.1114,586.4027)">
                    <path style="fill:#aeb0b3;fill-opacity:1;fill-rule:nonzero;stroke:none"
                        d="m 0,0 -1.922,-0.45 c 0,0 -0.45,0.93 -1.501,1.231 -0.03,0.87 -0.06,1.981 -0.06,1.981 0,0 -0.871,0.151 -1.501,-0.06 0,-0.45 -0.061,-1.861 -0.061,-1.861 0,0 -1.381,-0.18 -1.861,-1.321 -0.841,0.18 -1.622,0.45 -1.622,0.45 0,0 -0.33,-0.571 -0.42,-1.021 0.601,-0.18 1.651,-0.691 1.651,-0.691 0,0 -0.24,-1.231 0.691,-2.222 -0.21,-0.42 -1.051,-1.141 -1.051,-1.141 0,0 0.421,-0.54 0.811,-0.72 0.51,0.48 1.411,1.171 1.411,1.171 0,0 1.081,-0.511 2.282,0.06 0.33,-0.39 1.261,-1.531 1.261,-1.531 0,0 0.631,0.39 1.021,0.84 -0.45,0.511 -1.201,1.381 -1.201,1.381 0,0 0.781,0.811 0.721,2.132 0.901,0.301 1.801,0.631 1.801,0.631 0,0 -0.06,0.751 -0.45,1.141"
                        id="path2964" />
                </g>
            </g>
        </g>
        <g id="g2966" transform="matrix(1, 0, 0, 1, -46.105, 250.227142)">
            <g clip-path="url(#clipPath2970)" id="g2968">
                <g id="g2974">
                    <g clip-path="url(#clipPath2978)" id="g2976">
                        <g id="g2982">
                            <g id="g2984" />
                            <g id="g3008" mask="url(#mask2996)">
                                <g id="g3010">
                                    <path style="fill:url(#linearGradient3012);stroke:none"
                                        d="m 81.111,586.403 -1.921,-0.451 c 0,0 -0.451,0.931 -1.502,1.231 -0.03,0.871 -0.06,1.982 -0.06,1.982 0,0 -0.871,0.15 -1.501,-0.06 0,-0.45 -0.06,-1.862 -0.06,-1.862 0,0 -1.381,-0.18 -1.862,-1.321 -0.841,0.18 -1.621,0.451 -1.621,0.451 0,0 -0.331,-0.571 -0.421,-1.021 0.601,-0.18 1.652,-0.691 1.652,-0.691 0,0 -0.24,-1.231 0.69,-2.222 -0.21,-0.42 -1.05,-1.141 -1.05,-1.141 0,0 0.42,-0.54 0.81,-0.72 0.511,0.48 1.412,1.171 1.412,1.171 0,0 1.08,-0.511 2.282,0.06 0.33,-0.391 1.261,-1.532 1.261,-1.532 0,0 0.63,0.391 1.021,0.841 -0.451,0.51 -1.201,1.381 -1.201,1.381 0,0 0.78,0.811 0.72,2.132 0.901,0.3 1.802,0.631 1.802,0.631 0,0 -0.06,0.75 -0.451,1.141"
                                        id="path3018" />
                                </g>
                            </g>
                        </g>
                    </g>
                </g>
            </g>
        </g>
        <g id="g3020" transform="matrix(1, 0, 0, 1, -46.105, 250.227142)">
            <g clip-path="url(#clipPath3024)" id="g3022">
                <g id="g3028" transform="translate(64.6203,576.9551)">
                    <path
                        style="fill:none;stroke:#85878a;stroke-width:1;stroke-linecap:butt;stroke-linejoin:miter;stroke-miterlimit:10;stroke-dasharray:none;stroke-opacity:1"
                        d="m 0,0 c 0,-1.046 0.848,-1.893 1.893,-1.893 1.046,0 1.893,0.847 1.893,1.893 0,1.045 -0.847,1.893 -1.893,1.893 C 0.848,1.893 0,1.045 0,0 Z"
                        id="path3030" />
                </g>
                <g id="g3032" transform="translate(65.5668,576.9763)">
                    <path
                        style="fill:none;stroke:#87898b;stroke-width:1;stroke-linecap:butt;stroke-linejoin:miter;stroke-miterlimit:10;stroke-dasharray:none;stroke-opacity:1"
                        d="m 0,0 c 0,-0.564 0.457,-1.021 1.021,-1.021 0.564,0 1.021,0.457 1.021,1.021 0,0.564 -0.457,1.021 -1.021,1.021 C 0.457,1.021 0,0.564 0,0 Z"
                        id="path3034" />
                </g>
                <g id="g3036" transform="translate(107.3303,576.9551)">
                    <path
                        style="fill:none;stroke:#85878a;stroke-width:1;stroke-linecap:butt;stroke-linejoin:miter;stroke-miterlimit:10;stroke-dasharray:none;stroke-opacity:1"
                        d="m 0,0 c 0,-1.046 0.848,-1.893 1.893,-1.893 1.046,0 1.893,0.847 1.893,1.893 0,1.045 -0.847,1.893 -1.893,1.893 C 0.848,1.893 0,1.045 0,0 Z"
                        id="path3038" />
                </g>
                <g id="g3040" transform="translate(108.2768,576.9763)">
                    <path
                        style="fill:none;stroke:#87898b;stroke-width:1;stroke-linecap:butt;stroke-linejoin:miter;stroke-miterlimit:10;stroke-dasharray:none;stroke-opacity:1"
                        d="m 0,0 c 0,-0.564 0.457,-1.021 1.021,-1.021 0.564,0 1.021,0.457 1.021,1.021 0,0.564 -0.457,1.021 -1.021,1.021 C 0.457,1.021 0,0.564 0,0 Z"
                        id="path3042" />
                </g>
            </g>
        </g>
        <g id="g3044" transform="matrix(1, 0, 0, 1, -46.105, 250.227142)">
            <g clip-path="url(#clipPath3048)" id="g3046">
                <g id="g3052">
                    <g id="g3054" />
                    <g id="g3078" mask="url(#mask3066)">
                        <g id="g3080">
                            <path style="fill:url(#linearGradient3082);stroke:none"
                                d="m 109.351,583.846 c 0,0 7.487,0.086 7.231,-8.592 l 0,0 2.723,0.17 c 0,0 1.957,9.528 -9.869,11.911 l 0,0 -0.085,-3.489 z"
                                id="path3088" />
                        </g>
                    </g>
                </g>
            </g>
        </g>
        <g id="g3090" transform="matrix(1, 0, 0, 1, -46.105, 250.227142)">
            <g clip-path="url(#clipPath3094)" id="g3092">
                <g id="g3098">
                    <g id="g3100" />
                    <g id="g3124" mask="url(#mask3112)">
                        <g id="g3126">
                            <path style="fill:url(#linearGradient3128);stroke:none"
                                d="m 66.811,583.846 c 0,0 7.487,0.086 7.232,-8.592 l 0,0 2.723,0.17 c 0,0 1.956,9.528 -9.87,11.911 l 0,0 -0.085,-3.489 z"
                                id="path3134" />
                        </g>
                    </g>
                </g>
            </g>
        </g>
        <g id="g3136" transform="matrix(1, 0, 0, 1, -46.105, 250.227142)">
            <g clip-path="url(#clipPath3140)" id="g3138">
                <g id="g3144">
                    <g id="g3146" />
                    <g id="g3184">
                        <g clip-path="url(#clipPath3148)" id="g3186">
                            <g id="g3188">
                                <g clip-path="url(#clipPath3152)" id="g3190">
                                    <g id="g3192">
                                        <g id="g3194" />
                                        <g id="g3196" mask="url(#mask3166)">
                                            <g id="g3198">
                                                <path
                                                    style="fill:url(#linearGradient3178);stroke:none"
                                                    d="m 103.991,585.888 c 0,0 -4.85,-2.977 -4.935,-9.273 -1.871,0 -22.291,-0.085 -22.291,-0.085 l 0,0.595 21.611,0 c 0,0 0,6.551 5.615,8.763"
                                                    id="path3200" />
                                            </g>
                                        </g>
                                    </g>
                                </g>
                            </g>
                        </g>
                    </g>
                </g>
            </g>
        </g>
        <g id="g3202" transform="matrix(1, 0, 0, 1, -46.105, 250.227142)">
            <g id="g3204">
                <g id="g3210">
                    <g id="g3212">
                        <path style="stroke: none;"
                            d="m 122.198,577.976 c -0.141,0 -0.255,-0.114 -0.255,-0.255 l 0,0 0,-2.382 c 0,-0.142 0.114,-0.256 0.255,-0.256 l 0,0 4.594,0 c 0.141,0 0.256,0.114 0.256,0.256 l 0,0 0,2.382 c 0,0.141 -0.115,0.255 -0.256,0.255 l 0,0 -4.594,0 z"
                            id="path3224" />
                    </g>
                </g>
            </g>
        </g>
        <g id="g3226" transform="matrix(1, 0, 0, 1, -46.105, 250.227142)">
            <g id="g3228">
                <g id="g3234">
                    <g id="g3236">
                        <path style="stroke: none;"
                            d="m 53.24,577.976 c -0.07,0 -0.127,-0.114 -0.127,-0.255 l 0,0 0,-2.382 c 0,-0.142 0.057,-0.256 0.127,-0.256 l 0,0 2.298,0 c 0.07,0 0.128,0.114 0.128,0.256 l 0,0 0,2.382 c 0,0.141 -0.058,0.255 -0.128,0.255 l 0,0 -2.298,0 z"
                            id="path3248" />
                    </g>
                </g>
            </g>
        </g>
    </g>
</svg>