<?xml version="1.0" encoding="utf-8"?>
<svg viewBox="0 0 180 180" xmlns="http://www.w3.org/2000/svg">
    <g transform="matrix(1, 0, 0, 1, -58.424053, -62.544674)">
        <g>
            <path
                d="M134.622,161.775c3.262,19.73,21.9,33.08,41.63,29.819s33.08-21.9,29.819-41.63&#10;&#9;&#9;&#9;disposable-22.02-25.584-41.75-22.323C144.591,130.902,131.361,142.045,134.622,161.775z"
                fill="#E6183F" />
            <path
                d="M151,135c0,0,34.333-17.333,49.333,5.667c0,0-2.667-15-32.333-13.667c0,0-15,2-24,8.333l3.333,2.333&#10;&#9;&#9;&#9;l4.741-1.885"
                fill="#86001B" />
            <path
                d="M186,156c0,0-5.333-26.5-31.167-16.833c0,0,6.065-7.562,15.874-5.785&#10;&#9;&#9;&#9;C180.516,135.158,190.095,143.769,186,156z"
                fill="#BC0F31" />
            <path
                d="M154.968,187.124c0,0,9.216-48.942-11.512-46.875c0,0-0.213-5.402,9.595-3.625&#10;&#9;&#9;&#9;C162.861,138.401,182.712,169.109,154.968,187.124z"
                fill="#BC0F31" />
            <path
                d="M152.806,187.485c0,0,9.216-48.942-11.512-46.875c0,0-0.213-5.402,9.595-3.625&#10;&#9;&#9;&#9;C160.699,138.761,180.55,169.469,152.806,187.485z"
                fill="#86001B" />
            <path
                d="M194.132,133.247c0,0-11.564-8.283-37.313-1.648c-25.749,6.635-19.447,34.478-12.626,44.905&#10;&#9;&#9;&#9;c6.821,10.426,28.584,16.683,41.49,10.472c0,0-24.035,2.614-33.108-13.217c-9.074-15.831-9.91-8.556-10.022-7.179&#10;&#9;&#9;&#9;c0,0-5.916-27.567,14.428-31.949S187.467,129.931,194.132,133.247z"
                fill="#BC0F31" />
            <ellipse cx="166.508" cy="140.872" fill="#FFFFFF" rx="3.688" ry="2.012"
                transform="matrix(1 -0.0042 0.0042 1 -0.5861 0.6957)" />
            <ellipse cx="168.285" cy="142.155" fill="#FFFFFF" opacity="0.2" rx="6.873" ry="4.739"
                transform="matrix(-0.9955 -0.0943 0.0943 -0.9955 322.4213 299.54)" />
            <path
                d="M164.365,136.129c0,0-9.809-42.895-27.095-59.067c0,0,3.477-3.633,6.454-4.125&#10;&#9;&#9;&#9;c2.977-0.492,18.587,32.269,24.392,61.213C168.115,134.15,167.618,135.251,164.365,136.129z"
                fill="#522413" />
        </g>
        <g>
            <path
                d="M95.022,149.41c-6.459,18.926,3.647,39.505,22.573,45.964c18.926,6.459,39.505-3.647,45.964-22.573&#10;&#9;&#9;&#9;disposable-7.299-32.957-26.225-39.416C118.409,126.925,101.481,130.484,95.022,149.41z"
                fill="#E6183F" />
            <path
                d="M143.02,168.625c0,0,7.646-26.625-22.687-31.292c0,0,12.111-2.075,19.912,4.13&#10;&#9;&#9;&#9;C148.047,147.668,152.413,159.786,143.02,168.625z"
                fill="#BC0F31" />
            <path
                d="M160.948,152.425c0,0-6.27-12.768-32.095-19.101c-25.825-6.334-33.443,21.178-32.365,33.591&#10;&#9;&#9;&#9;c1.078,12.413,17.293,28.22,31.601,28.852c0,0-22.412-9.066-22.918-27.306c-0.506-18.24-4.684-12.226-5.434-11.065&#10;&#9;&#9;&#9;c0,0,7.827-27.086,27.825-21.324C147.558,141.833,156.644,146.351,160.948,152.425z"
                fill="#BC0F31" />
            <ellipse cx="133.003" cy="146.077" fill="#FFFFFF" rx="3.688" ry="2.012"
                transform="matrix(0.883 0.4693 -0.4693 0.883 84.1194 -45.3354)" />
            <ellipse cx="131.343" cy="148.344" fill="#FFFFFF" opacity="0.2" rx="8.214" ry="5.7"
                transform="matrix(-0.9464 -0.323 0.323 -0.9464 207.7327 331.1602)" />
            <path
                d="M134,139.667c0,0,13.833-43.5,3.426-63.641c0,0,4.782-1.556,7.638-0.582&#10;&#9;&#9;&#9;c2.856,0.975,1.113,37.222-7.465,65.47C137.599,140.914,137.281,140.432,134,139.667z"
                fill="#522413" />
        </g>
        <path
            d="M107.512,136.358c0,0-19.7-31.519-0.691-46.253s24.935-17.453,34.144-14.338c0,0,15.41,5.567,4.015,20.781&#10;&#9;&#9;C133.585,111.763,108.015,111.353,107.512,136.358z"
            fill="#5DAA3E" />
        <path
            d="M105.156,129.272c0,0-2.25-24.512,16.881-36.407s15.907-15.384,15.907-15.384s-7.474,9.594-18.818,15.211&#10;&#9;&#9;S99.649,110.408,105.156,129.272z"
            fill="#40802D" />
        <path
            d="M136.212,80.32c0,0-17.394,1.716-25.159,9.086C111.053,89.406,119.144,84.011,136.212,80.32z&#10;&#9;&#9;"
            fill="#3E7E2C" opacity="0.7" />
        <path
            d="M126.565,88.58c0,0-13.771-0.911-23.373,9.37C103.192,97.95,110.251,91.567,126.565,88.58z"
            fill="#3E7E2C" opacity="0.7" />
        <path
            d="M100.735,107.63c0,0,1.611-9.54,15.433-11.825C116.168,95.805,104.742,98.564,100.735,107.63&#10;&#9;&#9;z"
            fill="#3E7E2C" opacity="0.7" />
        <path
            d="M101.145,117.125c0,0-2.152-7.759,5.562-11.932&#10;&#9;&#9;C106.707,105.194,100.59,110.262,101.145,117.125z"
            fill="#3E7E2C" opacity="0.7" />
        <path
            d="M139.226,75.765c0,0,10.197,2.082,8.115,12.279c-2.082,10.197-8.996,13.948-21.273,20.325&#10;&#9;&#9;c-12.276,6.376-21.219,15.389-19.165,26.062c0,0,2.746-14.944,13.705-20.523s27.043-11.715,28.894-25.062&#10;&#9;&#9;S141.182,74.468,139.226,75.765z"
            fill="#1C5113" />
        <path
            d="M141.716,76.802c0,0-3.76,0.042-5.504,3.518C136.212,80.32,137.254,74.352,141.716,76.802z"
            fill="#1C5113" />
        <path
            d="M105.911,132.789c0,0-8.708-26.381,8.697-36.793s19.993-12.289,21.783-15.483&#10;&#9;&#9;c1.79-3.194,3.816-6.717,8.134-1.634c4.318,5.082,6.558,16.883-8.213,25.7S106.542,117.326,105.911,132.789z"
            fill="#3E7E2C" opacity="0.7" />
        <path
            d="M104.239,123.569c0,0-6.374-14.016,5.816-26.174s20.604-10.253,25.175-20.336&#10;&#9;&#9;c0,0-5.544-2.905-15.802,5.166S92.095,100.944,104.239,123.569z"
            fill="#1C5113" opacity="0.5" />
        <path
            d="M110.605,107.737c0,0,5.753-14.282,11.297-12.3C127.446,97.418,113.624,99.703,110.605,107.737z"
            fill="#FFFFFF" />
        <path
            d="M126.8,88.252c0,0,5.271-4.928,7.157-9.297C135.843,74.585,140.818,80.139,126.8,88.252z"
            fill="#3E7E2C" opacity="0.7" />
        <path
            d="M95.667,153c0,0-2.333,24.333,14,34s35.946,5.636,43.14,0.485c0,0-20.403,18.928-45.14,2.849&#10;&#9;&#9;C87.667,177.333,95.667,153,95.667,153z"
            fill="#86001B" opacity="0.6" />
        <path
            d="M152.806,187.485L157,185c0,0,24,11,37.333-4.333&#10;&#9;&#9;C194.333,180.667,180.946,201.636,152.806,187.485z"
            fill="#86001B" opacity="0.6" />
        <path d="M119,137.333c0,0,18.333-1,27,15.667C146,153,137.333,133.333,119,137.333z"
            fill="#86001B" />
        <path
            d="M149.667,138.333c0,0,19.667-7.667,33.667,3C183.333,141.333,165.667,126,149.667,138.333z"
            fill="#86001B" />
        <path d="M196.333,135.667c0,0,15,13.667,5.667,35C202,170.667,214.333,150,196.333,135.667z"
            fill="#86001B" />
        <path
            d="M159.333,149.667c0,0,8,7.333,5,21.333c-4.328,20.196-28.975,20.902-25.333,20.667&#10;&#9;&#9;c10.333-0.667,18.245-11.806,20.333-19C162.333,162.333,160.687,154.743,159.333,149.667z"
            fill="#EE3957" />
        <path
            d="M198.333,147.333c0,0,8,7.333,5,21.333c-4.328,20.196-28.975,20.902-25.333,20.667&#10;&#9;&#9;c10.333-0.667,18.245-11.806,20.333-19C201.333,160,199.687,152.409,198.333,147.333z"
            fill="#EE3957" />
        <path
            d="M115.667,135.667c0,0-22.333,6.667-20,32.667C95.667,168.333,87.333,140.667,115.667,135.667z"
            fill="#86001B" />
        <path
            d="M143.333,135.667c0,0,5.5,3,9.333,5.333c0,0,2.667-5.167,15.833-5C168.5,136,149.833,130,143.333,135.667z"
            fill="#86001B" />
        <path
            d="M120.333,137.333c0,0,16.667-2,26.333,19.167C146.667,156.5,141.5,131.667,120.333,137.333z"
            fill="#86001B" />
    </g>
</svg>