<?xml version="1.0" encoding="utf-8"?>
<svg viewBox="0 0 84.23248291015625 130.6408233642578" xmlns="http://www.w3.org/2000/svg">
    <g transform="matrix(1, 0, 0, 1, -131.070007, -72.445)">
        <g>
            <path
                d="M134.622,161.775c3.262,19.73,21.9,33.08,41.63,29.819s33.08-21.9,29.819-41.63&#10;&#9;&#9;&#9;disposable-22.02-25.584-41.75-22.323C144.591,130.902,131.361,142.045,134.622,161.775z"
                fill="#E6183F" />
            <path
                d="M151,135c0,0,34.333-17.333,49.333,5.667c0,0-2.667-15-32.333-13.667c0,0-15,2-24,8.333l3.333,2.333&#10;&#9;&#9;&#9;l4.741-1.885"
                fill="#86001B" />
            <path
                d="M186,156c0,0-5.333-26.5-31.167-16.833c0,0,6.065-7.562,15.874-5.785&#10;&#9;&#9;&#9;C180.516,135.158,190.095,143.769,186,156z"
                fill="#BC0F31" />
            <path
                d="M194.132,133.247c0,0-11.564-8.283-37.313-1.648c-25.749,6.635-19.447,34.478-12.626,44.905&#10;&#9;&#9;&#9;c6.821,10.426,28.584,16.683,41.49,10.472c0,0-24.035,2.614-33.108-13.217c-9.074-15.831-9.91-8.556-10.022-7.179&#10;&#9;&#9;&#9;c0,0-5.916-27.567,14.428-31.949S187.467,129.931,194.132,133.247z"
                fill="#BC0F31" />
            <ellipse cx="166.508" cy="140.872" fill="#FFFFFF" rx="3.688" ry="2.012"
                transform="matrix(1 -0.0042 0.0042 1 -0.5861 0.6957)" />
            <ellipse cx="168.285" cy="142.155" fill="#FFFFFF" opacity="0.2" rx="6.873" ry="4.739"
                transform="matrix(-0.9955 -0.0943 0.0943 -0.9955 322.4213 299.54)" />
            <path
                d="M164.365,136.129c0,0-9.809-42.895-27.095-59.067c0,0,3.477-3.633,6.454-4.125&#10;&#9;&#9;&#9;c2.977-0.492,18.587,32.269,24.392,61.213C168.115,134.15,167.618,135.251,164.365,136.129z"
                fill="#522413" />
        </g>
        <path
            d="M152.806,187.485L157,185c0,0,24,11,37.333-4.333&#10;&#9;&#9;C194.333,180.667,180.946,201.636,152.806,187.485z"
            fill="#86001B" opacity="0.6" />
        <path
            d="M149.667,138.333c0,0,19.667-7.667,33.667,3C183.333,141.333,165.667,126,149.667,138.333z"
            fill="#86001B" />
        <path d="M196.333,135.667c0,0,15,13.667,5.667,35C202,170.667,214.333,150,196.333,135.667z"
            fill="#86001B" />
        <path
            d="M198.333,147.333c0,0,8,7.333,5,21.333c-4.328,20.196-28.975,20.902-25.333,20.667&#10;&#9;&#9;c10.333-0.667,18.245-11.806,20.333-19C201.333,160,199.687,152.409,198.333,147.333z"
            fill="#EE3957" />
        <path
            d="M143.333,135.667c0,0,5.5,3,9.333,5.333c0,0,2.667-5.167,15.833-5C168.5,136,149.833,130,143.333,135.667z"
            fill="#86001B" />
    </g>
</svg>