<?xml version="1.0" encoding="utf-8"?>
<svg viewBox="0 0 367 553" xmlns="http://www.w3.org/2000/svg">
    <g transform="matrix(0.965359, 0, 0, 0.85225, 238.589996, 270.220001)">
        <g opacity="0.7"
            transform="matrix(0.127543, -2.468352, 1.06574, -0.091215, -290.87146, 1512.629272)" />
        <g transform="matrix(0.127543, -2.468352, 1.06574, -0.091215, -290.87146, 1512.629272)" />
    </g>
    <g transform="matrix(1, 0, 0, 1, 386.963287, 266.594421)">
        <polygon style="fill: rgb(173, 209, 54);" opacity="0.6"
            points="-90.145 32.026 -98.342 37.651 -93.345 45.931 -103.006 47.115 -102.44 56.983 -111.351 53.456 -115.345 62.649 -121.465 55.221 -129.106 61.634 -131.037 52.004 -140.574 54.171 -137.863 44.546 -147.114 41.965 -140.39 34.552 -147.235 27.817 -138.038 24.31 -140.903 14.965 -131.338 16.174 -129.574 6.355 -121.831 11.999 -115.841 3.961 -111.695 12.746 -102.85 8.327 -103.252 18.244 -93.577 18.457 -98.433 27.232"
            transform="matrix(0.817012, -0.576621, 0.576621, 0.817012, -40.923223, -62.344724)" />
        <polygon style="stroke: rgb(114, 191, 69);" fill="none" opacity="0.7"
            points="-82.789 31.699 -93.079 38.757 -86.802 49.152 -98.933 50.639 -98.218 63.024 -109.408 58.598 -114.422 70.138 -122.105 60.812 -131.699 68.864 -134.113 56.775 -146.09 59.494 -142.686 47.412 -154.302 44.174 -145.858 34.865 -154.45 26.415 -142.901 22.013 -146.507 10.283 -134.496 11.797 -132.281 -0.525 -122.561 6.557 -115.041 -3.532 -109.839 7.495 -98.735 1.95 -99.241 14.397 -87.094 14.663 -93.193 25.679"
            stroke-miterlimit="10"
            transform="matrix(0.817013, -0.57662, 0.57662, 0.817013, -40.909034, -62.30432)" />
        <polygon style="fill-rule: evenodd; stroke: rgb(114, 191, 69);" fill="none"
            points="-75.972 31.316 -88.179 39.69 -80.734 52.014 -95.118 53.777 -94.27 68.466 -107.54 63.217 -113.484 76.904 -122.597 65.845 -133.973 75.39 -136.843 61.055 -151.044 64.279 -147.006 49.952 -160.782 46.111 -150.769 35.074 -160.959 25.05 -147.263 19.829 -151.536 5.918 -137.292 7.715 -134.668 -6.897 -123.143 1.499 -114.223 -10.466 -108.053 2.613 -94.882 -3.964 -95.484 10.797 -81.078 11.113 -88.311 24.177"
            stroke-miterlimit="10"
            transform="matrix(0.817013, -0.576619, 0.576619, 0.817013, -40.832331, -62.230826)" />
    </g>
</svg>