<?xml version="1.0" encoding="utf-8"?>
<svg viewBox="0 0 104.88822174072266 108.91207122802734" xmlns="http://www.w3.org/2000/svg">
    <g transform="matrix(1, 0, 0, 1, -78.38298, -252.259995)">
        <path
            d="M143.72,255.741c0,0,12.073,2.46,18.262,7.032c6.19,4.573,11.822,17.98,14.971,22.623&#10;&#9;&#9;c3.149,4.643,3.333,19.24,2.532,30.667s-10.581,29.296-25.636,36.031c-15.055,6.735-34.252,5.352-45.946-0.462&#10;&#9;&#9;disposable-21.148-20.047-24.123-30.321c-2.975-10.275-5.397-22.996,2.603-38.847s13.976-20.552,23.767-24.732&#10;&#9;&#9;S136.339,252.26,143.72,255.741z"
            fill="#F89F1B" />
        <path
            d="M 143.303 257.424 C 145.647 258.346 149.307 259.089 153.063 260.603 C 155.691 261.662 158.367 263.098 160.671 265.237 C 166.266 270.432 169.804 278.716 170.45 280.374 C 171.097 282.032 179.672 291.113 176.2 305.491 C 178.591 316.844 175.534 329.387 167.797 336.866 C 161.898 344.911 151.694 350.926 142.621 353.265 C 140.652 353.615 123.847 357.044 112.298 350.922 C 103.552 347.625 93.955 340.393 89.712 327.866 C 85.1 319.15 82.514 312.517 83.23 303.983 C 83.6 293.631 88.758 279.823 93.694 276.211 C 100.304 266.02 109.741 259.718 115.794 258.362 C 123.353 256.362 135.628 254.406 143.303 257.424 Z"
            fill="#FFFAC9" />
        <path
            d="M130.411,298.637l10.61-34.62c0,0,2.486-4.316-2.396-4.964c-4.882-0.648-7.184-1.508-9.004-1.314&#10;&#9;&#9;c-1.821,0.194-3.324,0.989-5.749,1.349c-2.425,0.36-6.222,0.6-6.17,2.88c0.053,2.28,9.35,36.138,9.976,36.884&#10;&#9;&#9;C128.303,299.598,129.389,300.486,130.411,298.637z"
            fill="#F48120" />
        <path
            d="M142.503,262.309c0,0,0.715-1.994,4.536-1.169c3.822,0.825,5.218,2.009,7.512,2.565&#10;&#9;&#9;c2.294,0.556,5.885,4.58,8.381,7.26c2.495,2.68,4.584,7.5,4.021,9.49c-0.563,1.99-1.62,2.319-5.071,4.376&#10;&#9;&#9;c-3.451,2.057-28.386,15.712-29.602,15.74c-1.216,0.028-0.795-1.503,0.34-5.027C133.757,292.019,142.503,262.309,142.503,262.309z"
            fill="#F48120" />
        <path
            d="M167.483,283.637c0,0,3.03-0.526,4.853,5.972c1.823,6.498,4.448,14.804-0.392,15.98&#10;&#9;&#9;c-4.84,1.176-38.918,0.897-38.918,0.897s-2.754-0.697-1.449-3.465c0,0,2.535-2.188,6.594-4.259&#10;&#9;&#9;C142.23,296.691,167.483,283.637,167.483,283.637z"
            fill="#F48120" />
        <path
            d="M134.266,307.522l36.659,0.068c0,0,3.649-0.084,3.768,5.085s-2.012,18.299-9.402,21.055&#10;&#9;&#9;c-1.676-0.113-3.369-0.987-5.999-2.904c-2.63-1.917-24.306-18.453-25.861-19.938S131.378,307.589,134.266,307.522z"
            fill="#F48120" />
        <path
            d="M134.544,312.991c-0.467-0.446-2.644-2.525-1.454,2.923c1.19,5.448,6.07,32.411,7.166,33.754&#10;&#9;&#9;c1.096,1.344,9.114-0.514,13.612-3.356s10.902-8.769,9.18-10.859C161.328,333.365,134.544,312.991,134.544,312.991z"
            fill="#F48120" />
        <path
            d="M138.563,348.796l-6.735-34.829c0,0,0.089-2.74-1.272-2.404s-2.111,0.809-4.7,7.257&#10;&#9;&#9;c-2.589,6.448-13.09,26.007-12.433,28.122c0.657,2.114,6.073,6.096,12.465,6.253S139.255,352.43,138.563,348.796z"
            fill="#F48120" />
        <path
            d="M112.183,345.905l15.496-33.82c0,0,2.079-2.177,0.828-3.67s-2.142-0.559-4.844,1.024&#10;&#9;&#9;S94.078,325.94,94.078,325.94s-3.005,1.59,0.628,7.439c3.633,5.848,8.447,10.148,12.29,11.885S111.146,347.146,112.183,345.905z"
            fill="#F48120" />
        <path
            d="M126.153,305.275c-0.443-1.613-1.877-2.238-6.133-2.14s-31.787,0.124-32.996,0.456&#10;&#9;&#9;c-1.209,0.332-2.815,3.259-0.635,12.031s4.64,9.932,6.298,9.285c1.658-0.647,32.003-17.165,32.003-17.165&#10;&#9;&#9;S126.651,307.089,126.153,305.275z"
            fill="#F48120" />
        <path
            d="M124.552,301.814c-0.479-0.609-12.428-11.274-16.758-14.368c-4.33-3.094-9.971-10.265-13.56-7.597&#10;&#9;&#9;c-3.589,2.668-10.029,13.616-7.418,21.313c0.781,0.895,3.677,1.132,6.417,1.221c2.74,0.089,29.199-0.216,29.963-0.082&#10;&#9;&#9;C123.958,302.436,125.492,303.009,124.552,301.814z"
            fill="#F48120" />
        <path
            d="M126.303,298.579c-0.853-2.671-8.63-31.287-9.609-34.154c-0.979-2.867-2.813-3.281-5.964-1.384&#10;&#9;&#9;c-3.15,1.898-7.376,3.364-11.821,8.486c-4.445,5.122-2.921,5.239-0.755,6.862c2.167,1.623,24.03,19.676,25.74,21.31&#10;&#9;&#9;C125.606,301.333,127.122,301.146,126.303,298.579z"
            fill="#F48120" />
        <path d="M123.362,296.365c0,0-19.112-26.115-15.362-29.115S118.223,275.981,123.362,296.365z"
            fill="#EC7020" />
        <path d="M98.5,274c0,0-3.25,0.25,3.75,6s22.5,19.25,22.5,19.25S100.5,264.75,98.5,274z"
            fill="#EC7020" />
        <path
            d="M87.5,295.25c0,0,28.913,3.342,33.831,5.421c0,0-26.331,1.579-30.831,0.829S87.5,295.25,87.5,295.25z"
            fill="#EC7020" />
        <path
            d="M88,317.25c0,0,1.25,7,4.5,6.5s32.25-15.5,32.5-17s-4.25-2-7-1.25S91.75,318.25,88,317.25z"
            fill="#EC7020" />
        <path
            d="M99,336.5c0,0,8.25,11.5,11.5,9s13.993-29.915,16-33.5s1.25-4.75-1.75-1S101.75,336.75,99,336.5z"
            fill="#EC7020" />
        <path
            d="M118,340.25c0,0-2,7,4.25,8s11-3.25,9.75-15s-1.5-20.75-1.5-20.75s7,32,6.5,35.5s-5.75,5-15,3.25&#10;&#9;&#9;S118,340.25,118,340.25z"
            fill="#EC7020" />
        <path
            d="M134.25,315.25c0.192,0.767,5,30.5,8.75,30.5s-8.25-25-3.75-24s24.25,17.25,21,13.25&#10;&#9;&#9;S133,310.25,134.25,315.25z"
            fill="#EC7020" />
        <path
            d="M137.5,310.75c0,0,22,23,27.25,20.75s8.75-11.25,8.5-15.75s-2.75,5-7.75,6.5S137.5,310.75,137.5,310.75z"
            fill="#EC7020" />
        <path
            d="M135.75,301.75c0,0-7.5,3.75,3,4.25s29.25,0,33-2s2.25-6,1-11s-1.75,0.5-3.5,3.5S142.75,303,135.75,301.75z&#10;&#9;&#9;"
            fill="#EC7020" />
        <path
            d="M133.25,297.25c0,0-2.921,4.196,2.25,1s26.5-13.25,28.75-17s-0.25-5.25-2.5-9.5s-4.25-6-5-4.25&#10;&#9;&#9;s3.5,6.5,0.75,10.5S133.25,297.25,133.25,297.25z"
            fill="#EC7020" />
        <path
            d="M121.5,260.75c-2.845-0.178-3.5,0.75-3,3.25s8.824,28.359,9.412,31.804C128.5,299.25,129.25,300,130.75,295&#10;&#9;&#9;disposable-3.75-14-2-23.5s5.25-11.75,3.5-12.5S125.5,261,121.5,260.75z"
            fill="#EC7020" />
        <path
            d="M134.631,303.559c0,0,2.514-3.1,6.149-3.792C144.414,299.075,137.505,302.884,134.631,303.559z"
            fill="#F9A11B" />
        <path
            d="M136.158,303.828c0,0,9.677-2.505,9.249-1.278C144.979,303.777,136.158,303.828,136.158,303.828z"
            fill="#F9A11B" />
        <path
            d="M139.913,301.764c0,0,9.32-4.778,8.599-3.088C147.79,300.366,139.913,301.764,139.913,301.764z"
            fill="#F9A11B" />
        <path
            d="M141.203,304.929c0,0,10.31-1.454,9.73-0.224C150.352,305.935,141.203,304.929,141.203,304.929z"
            fill="#F9A11B" />
        <path d="M145.072,301.189c0,0,7.966-4.138,8.754-2.94S145.072,301.189,145.072,301.189z"
            fill="#F9A11B" />
        <path
            d="M146.627,302.674c0,0,8.005-2.466,7.881-1.246C154.384,302.648,146.627,302.674,146.627,302.674z"
            fill="#F9A11B" />
        <path
            d="M146.798,296.89c0,0,6.135-4.4,7.075-3.205C154.813,294.88,146.798,296.89,146.798,296.89z"
            fill="#F9A11B" />
        <path d="M150.298,296.962c0,0,7.365-3.82,7.701-2.459S150.298,296.962,150.298,296.962z"
            fill="#F9A11B" />
        <path d="M135.503,308.406c0,0,9.861-1.14,10.044,0.225S135.503,308.406,135.503,308.406z"
            fill="#F9A11B" />
        <path
            d="M139.95,309.977c0.46,0.142,10.656,0.363,10.535,1.735C150.365,313.083,139.95,309.977,139.95,309.977z"
            fill="#F9A11B" />
        <path d="M134.902,308.724c0,0,10.27,3.414,9.234,4.655S134.902,308.724,134.902,308.724z"
            fill="#F9A11B" />
        <path
            d="M137.564,312.009c0,0,7.645,8.342,8.685,7.253C147.288,318.174,137.564,312.009,137.564,312.009z"
            fill="#F9A11B" />
        <path
            d="M143.697,314.149c0,0,10.259,2.958,9.838,4.489C153.114,320.169,143.697,314.149,143.697,314.149z"
            fill="#F9A11B" />
        <path
            d="M145.324,312.135c0,0,11.267,0.501,10.698,2.187C155.452,316.008,145.324,312.135,145.324,312.135z"
            fill="#F9A11B" />
        <path
            d="M151.786,315.332c0,0,9.489,2.519,8.145,3.615C158.587,320.043,151.786,315.332,151.786,315.332z"
            fill="#F9A11B" />
        <path
            d="M146.354,323.823c0,0,8.933,4.814,8.045,5.899C153.511,330.807,146.354,323.823,146.354,323.823z"
            fill="#F9A11B" />
        <path
            d="M151.815,329.781c0,0,7.89,5.75,6.702,6.995C157.328,338.02,151.815,329.781,151.815,329.781z"
            fill="#F9A11B" />
        <path
            d="M148.117,327.737c0,0,6.861,7.295,5.669,8.387C152.594,337.216,148.117,327.737,148.117,327.737z"
            fill="#F9A11B" />
        <path
            d="M141.232,319.378c0,0,6.985,6.075,5.949,7.316C146.144,327.935,141.232,319.378,141.232,319.378z"
            fill="#F9A11B" />
        <path d="M130.036,315.377c0,0-4.693,7.561-3.618,7.993S130.036,315.377,130.036,315.377z"
            fill="#F9A11B" />
        <path
            d="M130.987,317.028c0,0,3.113,9.663,1.751,9.999C131.377,327.362,130.987,317.028,130.987,317.028z"
            fill="#F9A11B" />
        <path
            d="M129.982,319.637c0,0,1.344,12.137-0.48,12.179C127.678,331.858,129.982,319.637,129.982,319.637z"
            fill="#F9A11B" />
        <path
            d="M118.703,338.454c0,0-4.693,7.561-3.3,8.594C116.796,348.08,118.703,338.454,118.703,338.454z"
            fill="#F9A11B" />
        <path
            d="M119.707,342.385c0,0-1.957,7.498-0.122,7.912C121.42,350.712,119.707,342.385,119.707,342.385z"
            fill="#F9A11B" />
        <path
            d="M121.073,335.661c0,0-3.084,4.786-1.401,5.204C121.354,341.283,121.073,335.661,121.073,335.661z"
            fill="#F9A11B" />
        <path
            d="M125.802,309.847c0,0-7.853,2.462-7.065,3.661C119.525,314.706,125.802,309.847,125.802,309.847z"
            fill="#F9A11B" />
        <path
            d="M125.709,312.434c0,0-6.458,10.188-4.637,9.994C122.893,322.234,125.709,312.434,125.709,312.434z"
            fill="#F9A11B" />
        <path
            d="M123.284,312.795c0,0-9.943,4.184-9.154,5.382C114.918,319.376,123.284,312.795,123.284,312.795z"
            fill="#F9A11B" />
        <path
            d="M123.315,314.163c0,0-7.288,7.165-5.446,7.883C119.711,322.764,123.315,314.163,123.315,314.163z"
            fill="#F9A11B" />
        <path
            d="M118.97,317.001c0,0-9.755,5.701-8.363,6.733C112,324.767,118.97,317.001,118.97,317.001z"
            fill="#F9A11B" />
        <path d="M121.564,304.164c0,0-11.43-0.953-10.946,0.252S121.564,304.164,121.564,304.164z"
            fill="#F9A11B" />
        <path d="M121.758,305.985c0,0-13.074,0.301-11.961,2.405S121.758,305.985,121.758,305.985z"
            fill="#F9A11B" />
        <path
            d="M123.451,306.859c0,0-12.827,4.402-11.894,5.293C112.49,313.043,123.451,306.859,123.451,306.859z"
            fill="#F9A11B" />
        <path
            d="M111.254,305.619c0,0-8.856-1.469-8.821,0.051C102.468,307.19,111.254,305.619,111.254,305.619z"
            fill="#F9A11B" />
        <path
            d="M113.474,309.522c0,0-11.667,1.942-10.427,2.978C104.288,313.536,113.474,309.522,113.474,309.522z"
            fill="#F9A11B" />
        <path
            d="M121.331,300.671c0,0-7.49-8.193-8.671-6.645C111.479,295.574,121.331,300.671,121.331,300.671z"
            fill="#F9A11B" />
        <path
            d="M117.817,299.992c0,0-9.725-6.164-9.676-4.036C108.191,298.084,117.817,299.992,117.817,299.992z"
            fill="#F9A11B" />
        <path d="M115.855,300.645c0,0-7.813-2.406-7.47-0.741S115.855,300.645,115.855,300.645z"
            fill="#F9A11B" />
        <path
            d="M111.773,295.111c0,0-6.971-5.467-7.551-4.237C103.642,292.105,111.773,295.111,111.773,295.111z"
            fill="#F9A11B" />
        <path
            d="M109.11,298.367c0,0-6.756-2.734-6.264-1.225C103.336,298.652,109.11,298.367,109.11,298.367z"
            fill="#F9A11B" />
        <path
            d="M124.574,296.185c0,0-1.475-11.222-2.692-11.194C120.667,285.02,124.574,296.185,124.574,296.185z"
            fill="#F9A11B" />
        <path
            d="M123.362,296.365c-0.011-0.456-8.129-9.547-7.465-7.129C116.56,291.655,123.362,296.365,123.362,296.365z"
            fill="#F9A11B" />
        <path
            d="M123.154,293.937c0,0-2.522-10.437-4.042-10.402C117.591,283.57,123.154,293.937,123.154,293.937z"
            fill="#F9A11B" />
        <path d="M120.032,290.51c0,0-4.018-9.338-5.209-8.246S120.032,290.51,120.032,290.51z"
            fill="#F9A11B" />
        <path
            d="M122.642,271.741c0,0-2.615-7.849-1.554-8.026C122.149,263.539,122.642,271.741,122.642,271.741z"
            fill="#F9A11B" />
        <path
            d="M124.138,270.642c0,0-2.076-10.904-0.252-10.946C125.71,259.654,124.138,270.642,124.138,270.642z"
            fill="#F9A11B" />
        <path
            d="M132.928,282.456c0,0,3.795-6.932,3.321-7.682C135.776,274.024,132.928,282.456,132.928,282.456z"
            fill="#F9A11B" />
        <path
            d="M131.881,283.24c0,0,3.428-9.662,1.441-10.072C131.336,272.758,131.881,283.24,131.881,283.24z"
            fill="#F9A11B" />
        <path
            d="M130.407,285.252c0,0,1.113-11.129-1.61-10.458C126.074,275.465,130.407,285.252,130.407,285.252z"
            fill="#F9A11B" />
        <path
            d="M141.251,293.824c0,0,8.487-7.953,9.289-6.146C151.342,289.484,141.251,293.824,141.251,293.824z"
            fill="#F9A11B" />
        <path
            d="M138.536,294.799c0,0,6.571-11.863,8.427-10.537C148.819,285.588,138.536,294.799,138.536,294.799z"
            fill="#F9A11B" />
        <path
            d="M139.032,289.92c0,0,3.276-9.658,4.655-9.234C145.065,281.111,139.032,289.92,139.032,289.92z"
            fill="#F9A11B" />
        <path
            d="M143.633,284.947c0,0,3.905-8.76,5.291-8.031C150.309,277.644,143.633,284.947,143.633,284.947z"
            fill="#F9A11B" />
        <path
            d="M134.325,296.873c0,0,2.318-11.613,3.845-11.344C139.698,285.798,134.325,296.873,134.325,296.873z"
            fill="#F9A11B" />
        <path
            d="M133.773,299.32c0,0,8.129-3.686,6.899-4.266C139.441,294.474,133.773,299.32,133.773,299.32z"
            fill="#F9A11B" />
        <path
            d="M129.167,297.449c0,0,3.269-9.962,1.89-10.387C129.678,286.637,129.167,297.449,129.167,297.449z"
            fill="#F9A11B" />
        <path d="M127.912,295.804c0,0-2.519-10.285-1.002-10.472S127.912,295.804,127.912,295.804z"
            fill="#F9A11B" />
        <path
            d="M128.85,290.307c0,0-0.05-0.205-0.128-0.551c-0.422-1.855-1.673-7.749-0.517-7.648&#10;&#9;&#9;c1.372,0.12,0.595,7.993,0.595,7.993"
            fill="#F9A11B" />
    </g>
</svg>