<?xml version="1.0" encoding="utf-8"?>
<svg viewBox="0 0 92.81669616699219 147.0044708251953" xmlns="http://www.w3.org/2000/svg">
    <g transform="matrix(1, 0, 0, 1, -313.076996, -223.087006)">
        <g>
            <g>
                <path
                    d="M351.188,260.977c-0.482,0.035-0.95-0.245-1.132-0.719c-6.243-16.294-17.611-20.098-17.725-20.134&#10;&#9;&#9;&#9;&#9;c-0.591-0.19-0.917-0.822-0.728-1.413c0.19-0.592,0.823-0.913,1.413-0.728c0.508,0.163,12.514,4.181,19.14,21.472&#10;&#9;&#9;&#9;&#9;c0.222,0.579-0.068,1.229-0.648,1.452C351.402,260.945,351.294,260.969,351.188,260.977z"
                    fill="#8B2F03" />
            </g>
            <path
                d="M398.523,238.151c0,0-4.077-9.465-23.08-9.945c-19.003-0.48-30.168,13.675-25.187,27.769&#10;&#9;&#9;&#9;c0,0,3.893,4.409,12.633-1.868C371.629,247.829,383.728,233.606,398.523,238.151z"
                fill="#689933" />
            <path
                d="M350.256,255.975c0,0,3.21-15.072,19.013-19.803s28.21,0.553,28.21,0.553s-12.636-5.831-28.652-1.46&#10;&#9;&#9;&#9;C352.81,239.637,350.256,255.975,350.256,255.975z"
                fill="#93B532" />
            <path
                d="M350.908,252.077c0,0,2.945-11.015,12.058-14.784C362.966,237.293,352.37,240.044,350.908,252.077z"
                fill="#93B532" />
            <path
                d="M351.657,255.872c0,0,5.322,2.144,12.609-3.463C364.266,252.409,358.183,256.518,351.657,255.872z"
                fill="#93B532" />
            <path
                d="M373.81,244.289c0,0,10.039-10.316,21.241-7.385C395.051,236.904,384.379,232.243,373.81,244.289z"
                fill="#93B532" />
            <path
                d="M358.721,233.192c0,0,17.379-10.105,35.311,1.346C394.032,234.538,378.69,223.835,358.721,233.192z"
                fill="#93B532" />
            <path
                d="M355.098,236.276c0,0-8.145,6.703-5.079,17.745C350.018,254.021,347.65,244.805,355.098,236.276z"
                fill="#93B532" />
            <path
                d="M355.816,244.768c0,0,4.271-5.76,15.653-2.936C371.469,241.832,360.63,240,355.816,244.768z"
                fill="#93B532" />
            <path
                d="M365.069,237.796c0,0,2.668-3.295,11.283,0.203C376.352,237.998,369.802,235.757,365.069,237.796z"
                fill="#93B532" />
            <path
                d="M373.419,230.045c0,0-6.583,1.142-8.772,7.124C364.647,237.169,364.902,231.704,373.419,230.045z"
                fill="#93B532" />
            <path
                d="M371.988,234.845c0,0,2.244-5.236,11.575-3.481C383.563,231.364,376.594,229.811,371.988,234.845z"
                fill="#93B532" />
            <path
                d="M376.277,234.436c0,0,0.176,1.114,7.163,1.633C383.44,236.068,378.487,235.118,376.277,234.436z"
                fill="#93B532" />
            <path
                d="M350.866,254.052c0,0,4.461,1.925,13.433-5.026C364.299,249.026,356.87,253.986,350.866,254.052z"
                fill="#93B532" />
            <path
                d="M313.077,258.793c0,0,0.081-7.433,12.594-13.037s23.881,0.712,24.486,11.477c0,0-1.365,4.017-8.927,2.27&#10;&#9;&#9;&#9;C333.667,257.755,321.659,251.653,313.077,258.793z"
                fill="#689933" />
            <path
                d="M350.157,257.232c0,0-6.328-9.138-18.161-7.892c-11.833,1.246-18.621,8.214-18.621,8.214&#10;&#9;&#9;&#9;s6.788-7.395,18.663-8.94C343.913,247.068,350.157,257.232,350.157,257.232z"
                fill="#93B532" />
            <path
                d="M348.639,254.819c0,0-5.024-6.512-12.137-6.486C336.502,248.333,344.319,247.218,348.639,254.819z"
                fill="#93B532" />
            <path
                d="M349.196,257.553c0,0-2.946,2.907-9.355,1.202C339.841,258.755,345.032,259.798,349.196,257.553z"
                fill="#93B532" />
            <path
                d="M331.231,256.005c0,0-9.55-4.074-16.19,0.993C315.041,256.997,320.847,250.927,331.231,256.005z"
                fill="#93B532" />
            <path
                d="M338.187,244.423c0,0-14.376-1.892-23.126,10.716C315.061,255.139,322.295,243.75,338.187,244.423z"
                fill="#93B532" />
            <path
                d="M341.456,245.468c0,0,7.285,2.196,8.315,10.397C349.771,255.865,348.785,249.073,341.456,245.468z"
                fill="#93B532" />
            <path
                d="M343.339,251.319c0,0-4.445-2.646-11.234,2.399C332.105,253.719,338.81,249.485,343.339,251.319z"
                fill="#93B532" />
            <path
                d="M335.242,249.252c0,0-2.692-1.451-7.453,3.273C327.79,252.525,331.526,249.212,335.242,249.252z"
                fill="#93B532" />
            <path
                d="M327.53,246.416c0,0,4.699-1.071,7.819,2.302C335.349,248.718,333.659,245.152,327.53,246.416z"
                fill="#93B532" />
            <path
                d="M329.817,249.213c0,0-2.949-2.86-8.672,0.902C321.145,250.116,325.351,247.144,329.817,249.213z"
                fill="#93B532" />
            <path
                d="M326.848,250.133c0,0,0.193,0.79-4.313,3.079C322.536,253.212,325.568,251.202,326.848,250.133z"
                fill="#93B532" />
            <path
                d="M349.216,256.122c0,0-2.433,2.522-10.338,0.391C338.878,256.513,345.201,257.748,349.216,256.122z"
                fill="#93B532" />
            <path
                d="M353.156,259.893c-4.119-0.026-13.215,2.099-14.78,19.492c-1.565,17.392-3.559,17.351-7.96,25.187&#10;&#9;&#9;&#9;disposable-13.523,26.911-4.14,44.249c9.383,17.338,24.896,11.69,32.508,10.754c7.611-0.936,20.358,4.136,29.815-6.513&#10;&#9;&#9;&#9;s13.367-27.087,4.022-41.987c-9.345-14.9-14.945-15.614-18.795-27.35C369.975,271.989,367.243,259.983,353.156,259.893z"
                fill="#FFD43C" />
            <path
                d="M322,321.333c0,0,7,25,27,21.333c20-3.667,42.667-5.333,37.667-32.667c0,0,12.333,31.333-2,41.333&#10;&#9;&#9;&#9;c-14.333,10-43.167,11-46.417,10.167S319.333,346,322,321.333z"
                fill="#FDCC35" />
            <path
                d="M344.132,266.754c0,0-2.678,2.263-3.857,11.364s0.433,15.555-4.237,23.599&#10;&#9;&#9;&#9;c-4.671,8.043-10.96,19.21-8.729,34.07s12.241,23.325,20.121,22.182c7.881-1.143,16.669-3.48,24.131-0.649&#10;&#9;&#9;&#9;c0,0-18.796-0.307-23.569,2.485c-4.772,2.793-21.128-1.075-23.85-24.537c-2.722-23.462,12.686-32.483,13.846-45.714&#10;&#9;&#9;&#9;C339.147,276.323,339.925,269.505,344.132,266.754z"
                fill="#FABD3D" />
            <path
                d="M377.269,293.8c0,0,19.805,17.886,20.062,36.834c0.256,18.949-15.631,27.254-18.698,26.165&#10;&#9;&#9;&#9;c0,0,17.48-5.981,16.973-26.414C395.098,309.953,377.269,293.8,377.269,293.8z"
                fill="#FABD3D" />
            <path
                d="M328.104,327.277c0,0-1.504,22.083,13.602,28.295C341.707,355.573,330.534,348.695,328.104,327.277z"
                fill="#FABD3D" />
            <path
                d="M353.107,263.089c0,0-11.855,1.429-12.08,13.659c-0.256,13.916,0.604,21.74-3.438,26.732&#10;&#9;&#9;&#9;c0,0,4.641-0.717,4.379-23.609C341.815,266.546,353.107,263.089,353.107,263.089z"
                fill="#FABD3D" />
            <path d="M378,296c0,0,8.413,8.02,12.487,20.866C390.487,316.866,389.242,303.811,378,296z"
                fill="#FABD3D" />
            <path d="M352.333,266.339c0,0-5.029,0.558-6.07,6.832S341.623,268.817,352.333,266.339z"
                fill="#FFF052" />
            <path
                d="M340.559,307.957c0,0-10.597,11.672-5.85,22.59c4.747,10.919,1.867-12.908,22.298-18.542&#10;&#9;&#9;&#9;S352.755,295.041,340.559,307.957z"
                fill="#FFF052" opacity="0.6" />
            <path
                d="M339.884,316.645c0,0,5.323-6.777,13.978-9.104&#10;&#9;&#9;&#9;C362.518,305.214,343.682,301.905,339.884,316.645z"
                fill="#FFFFFF" opacity="0.6" />
        </g>
        <path
            d="M356.5,262.5c0,0,4.5-0.75,9.5,15.75s8.25,18,2.5,19s-4.25,3,6.5,9.75s15.75,17.5,12.75,31&#10;&#9;&#9;disposable-12,17-24.5,16.25s-11,3-1.75,4.25s14.25,1.75,21-2s18.25-14.5,14.25-30.25s-9-21.75-16-28.5s-9-18.75-11.25-24.5&#10;&#9;&#9;S364.25,260.25,356.5,262.5z"
            fill="#FABD3D" />
        <path
            d="M363.75,265.75c0,0,3.75,2.25,8.25,17.5s8,18,14.5,24.5s12.5,26,4,41c0,0,13-12.25,4-31.75&#10;&#9;&#9;disposable-15-18.25-18.5-28.75S369.25,267.75,363.75,265.75z"
            fill="#E0AA37" />
        <path
            d="M351.507,260.906c0,0-6.757,1.094-9.757,8.344S339.25,294,336.5,299s-16.75,23-12.5,38.5&#10;&#9;&#9;s10.25,24,19.75,22.75s21.25-3,24.5-1c0,0-11,0.75-18.75,3.25s-22.75,2.5-28.25-22s5.5-34.5,10-42.25S336,279,338,271&#10;&#9;&#9;S344.514,259.061,351.507,260.906z"
            fill="#E0AA37" />
        <path
            d="M337.5,283.75c0,0-1.75,12.25-8,20.5s-9.5,18-7.75,31.75c0,0-5.75-16.75,4.25-31S337.5,283.75,337.5,283.75&#10;&#9;&#9;z"
            fill="#DB8435" />
        <path
            d="M358.784,359.575c0,0,11.216-1.575,17.466-2.325s16.75-7,20-20c0,0,2.25,9.75-11.75,19.25&#10;&#9;&#9;C372,361.75,369.818,357.649,358.784,359.575z"
            fill="#DB8435" />
        <path d="M369.75,299.25c0,0,19.75,2.25,26.5,20C396.25,319.25,391.5,296.75,369.75,299.25z"
            fill="#DB8435" />
        <path
            d="M320.75,337.25c0,0,7.25,23,17.5,24.25s19.25-3.75,26.5-2.5c0,0-11.495,3.114-18.75,4.5&#10;&#9;&#9;C323.75,367.75,320.75,337.25,320.75,337.25z"
            fill="#DB8435" />
        <path
            d="M349.25,261.25c0,0,6.75-2.25,10.5,2.75s11.75,28.75,8.75,30.5s-6.75,2.75-5.25,4.75S358.5,296,363,293&#10;&#9;&#9;disposable-0.25-15.25-3.5-23.25S352.5,261.25,349.25,261.25z"
            fill="#FFF052" />
        <path d="M355.75,266c0,0,7.25,10.25,7.75,20.25L355.75,266z" fill="#FFF052" />
        <path d="M355.75,269.5c0,0,3.25,6.75,4.25,12.5C360,282,355.75,274.25,355.75,269.5z"
            fill="#FFF052" />
        <path
            d="M390.167,311.833c0,0,11.5,15.333,3.167,30.5C385,357.5,376,356,374.5,356.167c0,0,11.5-2.333,17.5-15.667&#10;&#9;&#9;S390.167,311.833,390.167,311.833z"
            fill="#DB8435" />
        <path
            d="M323,338c0,0,6.333,21.333,15.667,22.167c9.333,0.833,19.5-2.5,19.5-2.5s-14.833,3.167-20.833,0.667&#10;&#9;&#9;S323,338,323,338z"
            fill="#DB8435" />
        <path d="M322.5,324.5c0,0,0.833-13,9.5-21.333C332,303.167,324.167,312.5,322.5,324.5z"
            fill="#DB8435" />
        <path
            d="M348.167,261.5c0,0,8.5-2.667,14.167,1.833c5.667,4.5,7.667,10.667,13,25.167&#10;&#9;&#9;c5.333,14.5,8.167,12.167,11.5,15.333c3.333,3.167,3.667,4.333,4.5,5.167c0.833,0.833-3-4.167-8.833-11.833&#10;&#9;&#9;c-5.833-7.667-6.333-9.5-9.833-19.833c-3.5-10.333-8.667-16.667-15.167-17.5C351,259,348.167,261.5,348.167,261.5z"
            fill="#DB8435" />
        <path
            d="M351.833,260.167c0,0-7.333-1.833-11.167,3.667c-3.833,5.5-4.333,22.667-7.167,29.833&#10;&#9;&#9;c0,0,2.667-3.167,3.667-13.667S340.833,259.167,351.833,260.167z"
            fill="#DB8435" />
        <path
            d="M345,260.833c0,0,3.833-0.25,4.333,0s4.667-0.917,4.667-0.917S348.167,259.083,345,260.833z"
            fill="#DB8435" />
        <path
            d="M332,337.5c0,0,4.5,16.75,16,17.5s22.5,2,22.5,2s-6-5-14.75-4.75S340.5,353.25,332,337.5z"
            fill="#FABD3D" />
        <path d="M373.75,309c0,0,18.25,12.5,9,33.5c0,0,10.25-8,6.25-21S373.75,309,373.75,309z"
            fill="#FABD3D" />
        <path d="M380.25,318.5c0,0,8.25,12,0.25,25C380.5,343.5,385.25,332,380.25,318.5z"
            fill="#FABD3D" />
        <path d="M344.5,277.5c0,0,0.75,14.75-2.5,19.75C342,297.25,344.25,279.5,344.5,277.5z"
            fill="#FABD3D" />
        <path d="M335.5,312.75c0,0,5.25-13,19.75-11.75C355.25,301,341,297,335.5,312.75z"
            fill="#FFF052" />
        <path d="M342.5,327.75c0,0,3.25-13.5,17.75-13.75C360.25,314,348.75,315.75,342.5,327.75z"
            fill="#FFF052" />
    </g>
</svg>