<?xml version="1.0" encoding="utf-8"?>
<svg viewBox="0 0 109.98509979248047 182.68255615234375" xmlns="http://www.w3.org/2000/svg">
    <g transform="matrix(0.839677, 0, 0, 0.839677, -27.451118, 23.357599)">
        <g id="g21950" transform="matrix(1.333333, 0, 0, -1.333333, 75.075409, 59.399311)">
            <path style="fill:#fcbe36;fill-opacity:1;fill-rule:nonzero;stroke:none"
                d="m 0,0 c 0,0 -13.407,-5.838 -14.488,-15.353 0,0 -1.946,3.244 -4.974,2.379 0,0 2.451,-3.028 0.721,-7.425 -1.709,-4.343 -5.91,-7.28 -1.586,-14.848 0,0 -1.729,3.027 -5.189,2.379 0,0 3.82,-8.217 3.676,-12.326 -0.395,-11.24 3.892,-12.542 4.973,-12.758 0,0 -4.757,2.162 -7.352,-1.081 0,0 6.487,1.513 7.785,-4.758 1.297,-6.271 4.973,-14.704 11.677,-16.866 0,0 -5.839,0.648 -7.136,-3.46 0,0 7.352,1.946 14.272,-2.162 6.919,-4.109 14.92,-4.758 22.272,-4.109 7.352,0.649 15.623,6.198 20.111,9.515 1.657,1.225 6.487,0.864 6.487,0.864 0,0 -1.514,4.541 -5.623,4.109 0,0 9.563,2.812 10.38,10.163 0.432,3.893 6.487,9.082 6.487,9.082 0,0 -3.243,2.163 -5.838,0.217 0,0 5.719,4.715 3.892,14.055 -0.649,3.316 3.892,12.11 3.892,12.11 0,0 -3.676,1.729 -6.054,-0.649 0,0 1.297,9.592 -2.812,15.569 -1.585,2.307 -0.864,8.433 -0.864,8.433 0,0 -2.595,-0.288 -2.812,-4.541 0,0 -9.298,6.92 -10.379,14.272 z"
                id="path21952" />
        </g>
        <g id="g21954" transform="matrix(1.333333, 0, 0, -1.333333, 75.073334, 59.370502)">
            <path style="fill:#b96f12;fill-opacity:1;fill-rule:nonzero;stroke:none"
                d="m 0,0 41.509,2.937 c 0.076,0.005 0.142,-0.048 0.155,-0.12 l 10e-4,-0.006 c 0.067,-0.364 0.128,-0.729 0.227,-1.087 0.084,-0.361 0.207,-0.712 0.325,-1.064 0.125,-0.349 0.262,-0.695 0.415,-1.034 0.152,-0.339 0.313,-0.675 0.489,-1.003 0.695,-1.317 1.546,-2.551 2.48,-3.716 0.932,-1.167 1.956,-2.261 3.026,-3.305 1.074,-1.037 2.202,-2.032 3.383,-2.935 l -0.297,-0.14 c 0.049,0.972 0.222,1.963 0.677,2.858 0.228,0.444 0.533,0.858 0.919,1.19 0.194,0.165 0.404,0.313 0.633,0.428 0.114,0.059 0.233,0.11 0.355,0.153 0.125,0.043 0.24,0.078 0.391,0.101 0.106,0.015 0.204,-0.058 0.22,-0.164 0.002,-0.016 0.002,-0.032 10e-4,-0.047 l -10e-4,-0.01 c -0.105,-1.013 -0.155,-2.042 -0.155,-3.063 0.004,-1.022 0.058,-2.045 0.232,-3.043 0.089,-0.497 0.211,-0.987 0.39,-1.448 0.168,-0.459 0.461,-0.852 0.748,-1.306 0.267,-0.45 0.519,-0.909 0.738,-1.384 0.219,-0.474 0.422,-0.956 0.593,-1.448 0.704,-1.967 1.064,-4.032 1.235,-6.098 0.08,-1.034 0.116,-2.072 0.1,-3.108 -0.016,-1.039 -0.069,-2.07 -0.194,-3.11 l -0.358,0.178 c 0.402,0.395 0.876,0.727 1.401,0.941 0.521,0.223 1.083,0.334 1.64,0.366 0.559,0.03 1.118,-0.019 1.661,-0.127 0.272,-0.053 0.54,-0.12 0.805,-0.201 0.266,-0.083 0.521,-0.172 0.786,-0.291 0.103,-0.046 0.15,-0.168 0.103,-0.272 l -0.003,-0.007 -0.003,-0.006 c -1.046,-2.08 -2.006,-4.217 -2.799,-6.405 -0.392,-1.095 -0.742,-2.208 -0.966,-3.339 -0.108,-0.563 -0.185,-1.141 -0.166,-1.694 0.02,-0.549 0.183,-1.131 0.245,-1.72 0.08,-0.585 0.137,-1.175 0.155,-1.767 0.029,-0.591 0.013,-1.184 -0.02,-1.775 -0.077,-1.183 -0.285,-2.358 -0.627,-3.494 -0.167,-0.569 -0.38,-1.124 -0.616,-1.669 -0.238,-0.543 -0.509,-1.073 -0.814,-1.582 -0.304,-0.51 -0.64,-1.001 -1.01,-1.466 -0.373,-0.467 -0.762,-0.907 -1.225,-1.313 l -0.248,0.316 c 0.436,0.32 0.93,0.572 1.458,0.705 0.525,0.142 1.075,0.171 1.609,0.125 0.535,-0.049 1.059,-0.172 1.56,-0.35 0.251,-0.089 0.496,-0.191 0.736,-0.305 0.242,-0.116 0.472,-0.236 0.706,-0.386 0.091,-0.059 0.118,-0.18 0.06,-0.272 -0.01,-0.016 -0.022,-0.029 -0.036,-0.041 l -0.005,-0.005 c -0.826,-0.724 -1.62,-1.502 -2.376,-2.306 -0.755,-0.807 -1.473,-1.649 -2.122,-2.538 -0.642,-0.891 -1.226,-1.834 -1.607,-2.849 -0.096,-0.252 -0.175,-0.515 -0.23,-0.768 -0.034,-0.123 -0.051,-0.265 -0.073,-0.402 l -0.062,-0.411 c -0.071,-0.565 -0.229,-1.114 -0.402,-1.654 -0.201,-0.53 -0.421,-1.056 -0.712,-1.544 -0.276,-0.495 -0.603,-0.96 -0.957,-1.4 -0.71,-0.881 -1.544,-1.651 -2.441,-2.328 -0.898,-0.677 -1.86,-1.261 -2.857,-1.772 -1.003,-0.505 -2.029,-0.946 -3.108,-1.287 l -0.067,0.337 c 0.643,0.059 1.305,0.021 1.928,-0.173 0.624,-0.185 1.204,-0.508 1.701,-0.919 0.5,-0.41 0.926,-0.9 1.283,-1.431 0.179,-0.265 0.342,-0.541 0.489,-0.824 0.145,-0.287 0.278,-0.572 0.387,-0.884 0.029,-0.08 -0.013,-0.168 -0.094,-0.197 -0.02,-0.007 -0.04,-0.01 -0.06,-0.008 h -0.006 c -1.377,0.083 -2.777,0.082 -4.142,-0.101 -0.677,-0.099 -1.366,-0.238 -1.957,-0.543 -0.286,-0.152 -0.559,-0.384 -0.845,-0.582 l -0.851,-0.611 c -2.279,-1.613 -4.634,-3.126 -7.091,-4.459 -1.229,-0.666 -2.482,-1.287 -3.767,-1.841 -1.284,-0.552 -2.598,-1.042 -3.945,-1.424 -1.343,-0.385 -2.73,-0.662 -4.124,-0.775 -1.392,-0.118 -2.788,-0.179 -4.185,-0.197 -1.398,-0.009 -2.795,0.048 -4.188,0.157 -1.392,0.126 -2.777,0.315 -4.15,0.58 -1.368,0.285 -2.727,0.623 -4.051,1.072 -1.319,0.461 -2.626,0.963 -3.869,1.612 -1.253,0.621 -2.417,1.4 -3.693,1.95 -1.276,0.551 -2.612,0.961 -3.977,1.22 -1.364,0.266 -2.756,0.379 -4.145,0.368 -1.386,-0.017 -2.783,-0.149 -4.127,-0.464 l -0.008,-0.002 c -0.046,-0.01 -0.091,0.018 -0.102,0.064 -0.004,0.017 -0.003,0.034 0.003,0.05 0.066,0.169 0.114,0.346 0.197,0.509 0.071,0.168 0.159,0.328 0.252,0.485 0.096,0.154 0.197,0.308 0.313,0.449 0.111,0.144 0.236,0.277 0.365,0.407 0.523,0.51 1.163,0.887 1.838,1.146 0.676,0.264 1.389,0.415 2.104,0.501 0.718,0.082 1.437,0.102 2.163,0.04 l -0.044,-0.203 c -0.633,0.21 -1.248,0.471 -1.839,0.779 -0.587,0.316 -1.147,0.679 -1.681,1.077 -1.062,0.806 -2.001,1.76 -2.833,2.796 -1.658,2.082 -2.895,4.465 -3.851,6.934 -0.478,1.237 -0.881,2.502 -1.213,3.786 -0.174,0.639 -0.301,1.298 -0.456,1.928 -0.16,0.628 -0.393,1.238 -0.721,1.792 -0.329,0.553 -0.749,1.051 -1.258,1.442 -0.509,0.389 -1.088,0.688 -1.705,0.875 -0.614,0.194 -1.26,0.289 -1.908,0.311 -0.645,0.021 -1.305,-0.025 -1.928,-0.153 l -0.013,-0.003 c -0.085,-0.017 -0.168,0.038 -0.185,0.123 -0.011,0.05 0.005,0.1 0.037,0.136 0.115,0.128 0.217,0.267 0.343,0.384 0.119,0.125 0.246,0.241 0.38,0.35 0.131,0.112 0.275,0.209 0.417,0.306 0.146,0.092 0.293,0.182 0.448,0.256 0.616,0.314 1.297,0.478 1.977,0.537 0.681,0.052 1.365,0.005 2.032,-0.118 0.333,-0.061 0.663,-0.139 0.988,-0.234 0.326,-0.097 0.643,-0.203 0.964,-0.342 0.087,-0.038 0.128,-0.14 0.09,-0.227 -0.033,-0.077 -0.114,-0.117 -0.193,-0.102 l -0.003,0.001 c -0.592,0.117 -1.151,0.373 -1.639,0.716 -0.492,0.342 -0.909,0.777 -1.267,1.247 -0.713,0.95 -1.169,2.053 -1.493,3.171 -0.168,0.56 -0.282,1.132 -0.392,1.704 -0.096,0.574 -0.177,1.15 -0.231,1.728 -0.111,1.156 -0.148,2.316 -0.131,3.476 0.007,0.58 0.05,1.152 0.004,1.711 -0.039,0.564 -0.127,1.128 -0.238,1.688 -0.222,1.12 -0.533,2.226 -0.884,3.319 -0.706,2.184 -1.555,4.33 -2.498,6.423 l -0.001,0.003 c -0.038,0.084 0,0.184 0.084,0.222 0.013,0.006 0.026,0.01 0.039,0.012 0.513,0.093 1.042,0.118 1.563,0.057 0.522,-0.064 1.031,-0.214 1.503,-0.442 0.471,-0.23 0.905,-0.53 1.289,-0.881 0.192,-0.176 0.372,-0.364 0.54,-0.562 0.169,-0.201 0.322,-0.404 0.464,-0.638 0.045,-0.075 0.021,-0.172 -0.054,-0.218 -0.075,-0.045 -0.173,-0.021 -0.218,0.054 l -0.002,0.004 -0.002,0.003 c -0.243,0.435 -0.476,0.876 -0.691,1.327 -0.212,0.452 -0.406,0.913 -0.576,1.384 -0.162,0.474 -0.314,0.952 -0.415,1.445 -0.111,0.489 -0.177,0.99 -0.205,1.492 -0.056,1.006 0.076,2.023 0.382,2.98 0.299,0.96 0.746,1.861 1.227,2.729 0.48,0.87 0.991,1.716 1.425,2.598 0.214,0.435 0.421,0.892 0.579,1.349 0.161,0.461 0.288,0.933 0.371,1.414 0.167,0.959 0.163,1.951 -0.041,2.904 -0.099,0.477 -0.246,0.944 -0.436,1.392 -0.191,0.445 -0.424,0.885 -0.709,1.263 l -0.003,0.004 c -0.039,0.052 -0.029,0.125 0.023,0.164 0.012,0.009 0.026,0.016 0.039,0.02 0.489,0.133 1.007,0.188 1.512,0.117 0.507,-0.061 0.993,-0.238 1.435,-0.481 0.442,-0.245 0.843,-0.556 1.201,-0.907 0.358,-0.353 0.678,-0.736 0.951,-1.166 l -0.2,-0.043 c 0.209,1.841 0.903,3.601 1.874,5.161 0.972,1.566 2.201,2.955 3.546,4.201 1.35,1.244 2.82,2.351 4.357,3.348 1.54,0.993 3.14,1.895 4.81,2.65 C -0.005,-0.001 -0.002,0 0,0 m 0.007,-0.043 c -1.658,-0.767 -3.248,-1.681 -4.775,-2.685 -1.524,-1.008 -2.98,-2.124 -4.312,-3.374 -1.327,-1.25 -2.535,-2.64 -3.481,-4.196 -0.944,-1.552 -1.618,-3.283 -1.818,-5.089 -0.007,-0.059 -0.06,-0.102 -0.119,-0.095 -0.034,0.003 -0.062,0.022 -0.079,0.049 l -0.002,0.003 c -0.257,0.402 -0.575,0.781 -0.921,1.118 -0.346,0.339 -0.733,0.636 -1.155,0.868 -0.422,0.23 -0.88,0.395 -1.355,0.45 -0.473,0.065 -0.957,0.011 -1.418,-0.116 l 0.06,0.188 c 0.312,-0.412 0.545,-0.854 0.746,-1.317 0.197,-0.462 0.351,-0.944 0.454,-1.436 0.213,-0.983 0.22,-2.008 0.051,-2.997 -0.084,-0.495 -0.213,-0.982 -0.378,-1.456 -0.166,-0.479 -0.366,-0.926 -0.586,-1.38 -0.437,-0.896 -0.948,-1.748 -1.421,-2.614 -0.474,-0.863 -0.908,-1.748 -1.195,-2.681 -0.293,-0.93 -0.416,-1.909 -0.358,-2.879 0.028,-0.486 0.094,-0.97 0.204,-1.445 0.099,-0.477 0.25,-0.943 0.409,-1.405 0.168,-0.46 0.36,-0.911 0.569,-1.354 0.213,-0.443 0.445,-0.875 0.686,-1.304 l -0.276,-0.157 c -0.121,0.199 -0.273,0.402 -0.432,0.588 -0.159,0.187 -0.331,0.365 -0.513,0.531 -0.364,0.33 -0.773,0.611 -1.214,0.824 -0.441,0.211 -0.915,0.349 -1.4,0.407 -0.485,0.054 -0.979,0.03 -1.462,-0.059 l 0.122,0.237 c 0.958,-2.107 1.816,-4.253 2.537,-6.454 0.356,-1.101 0.675,-2.217 0.906,-3.357 0.114,-0.571 0.207,-1.148 0.25,-1.734 0.049,-0.592 0.008,-1.174 0.003,-1.746 -0.011,-1.145 0.018,-2.292 0.125,-3.432 0.051,-0.57 0.129,-1.136 0.221,-1.699 0.106,-0.561 0.216,-1.121 0.378,-1.667 0.312,-1.09 0.751,-2.156 1.424,-3.058 0.664,-0.895 1.598,-1.621 2.687,-1.838 l -0.106,-0.328 c -0.29,0.127 -0.605,0.235 -0.917,0.328 -0.313,0.093 -0.632,0.169 -0.953,0.23 -0.642,0.12 -1.297,0.166 -1.944,0.119 -0.644,-0.054 -1.283,-0.206 -1.856,-0.496 -0.145,-0.069 -0.282,-0.152 -0.419,-0.237 -0.132,-0.09 -0.266,-0.179 -0.388,-0.284 -0.125,-0.1 -0.244,-0.208 -0.355,-0.324 -0.119,-0.109 -0.215,-0.24 -0.323,-0.359 l -0.162,0.256 c 0.672,0.135 1.339,0.178 2.013,0.154 0.671,-0.025 1.344,-0.126 1.988,-0.331 0.647,-0.199 1.259,-0.516 1.797,-0.931 0.539,-0.416 0.983,-0.947 1.326,-1.529 0.344,-0.584 0.584,-1.221 0.747,-1.872 0.158,-0.653 0.278,-1.292 0.449,-1.928 0.325,-1.275 0.721,-2.532 1.191,-3.76 0.94,-2.453 2.158,-4.819 3.787,-6.882 0.819,-1.026 1.741,-1.97 2.782,-2.767 0.524,-0.392 1.073,-0.751 1.648,-1.064 0.58,-0.304 1.182,-0.562 1.802,-0.771 0.055,-0.018 0.084,-0.077 0.066,-0.132 -0.016,-0.046 -0.062,-0.074 -0.109,-0.07 -0.699,0.062 -1.415,0.046 -2.117,-0.032 -0.702,-0.082 -1.4,-0.228 -2.058,-0.481 -0.658,-0.25 -1.275,-0.611 -1.779,-1.099 -0.124,-0.124 -0.244,-0.251 -0.351,-0.389 -0.112,-0.134 -0.208,-0.281 -0.301,-0.428 -0.09,-0.151 -0.175,-0.303 -0.244,-0.465 -0.08,-0.156 -0.126,-0.326 -0.191,-0.489 l -0.106,0.112 c 1.373,0.316 2.771,0.441 4.171,0.454 1.399,0.006 2.801,-0.114 4.174,-0.386 1.374,-0.266 2.718,-0.685 4.001,-1.244 1.29,-0.552 2.461,-1.33 3.707,-1.943 1.234,-0.64 2.539,-1.137 3.851,-1.592 1.32,-0.442 2.673,-0.775 4.035,-1.055 1.367,-0.259 2.747,-0.444 4.133,-0.565 1.388,-0.104 2.779,-0.157 4.171,-0.143 1.392,0.021 2.783,0.086 4.169,0.208 1.386,0.116 2.747,0.393 4.083,0.779 1.335,0.383 2.639,0.873 3.914,1.426 1.275,0.555 2.522,1.175 3.742,1.844 2.44,1.338 4.78,2.855 7.046,4.472 l 0.846,0.612 c 0.286,0.199 0.545,0.427 0.874,0.606 0.653,0.338 1.355,0.477 2.051,0.584 1.4,0.193 2.804,0.2 4.208,0.122 l -0.16,-0.206 c -0.1,0.28 -0.232,0.565 -0.372,0.837 -0.143,0.272 -0.301,0.537 -0.474,0.79 -0.344,0.508 -0.752,0.973 -1.225,1.356 -0.47,0.385 -1.01,0.683 -1.589,0.852 -0.578,0.178 -1.193,0.21 -1.796,0.152 -0.095,-0.009 -0.179,0.061 -0.188,0.155 -0.008,0.083 0.044,0.157 0.119,0.181 l 0.002,0.001 c 1.041,0.332 2.063,0.774 3.043,1.274 0.978,0.507 1.921,1.085 2.796,1.75 1.75,1.317 3.235,3.046 3.965,5.105 0.165,0.517 0.317,1.042 0.383,1.582 l 0.063,0.413 c 0.022,0.138 0.037,0.273 0.075,0.418 0.063,0.29 0.145,0.561 0.247,0.829 0.401,1.07 1.001,2.034 1.656,2.945 0.661,0.907 1.388,1.76 2.151,2.577 0.767,0.815 1.562,1.596 2.407,2.338 l 0.019,-0.317 c -0.202,0.129 -0.431,0.25 -0.656,0.358 -0.228,0.108 -0.461,0.204 -0.698,0.288 -0.474,0.168 -0.966,0.284 -1.462,0.328 -0.496,0.043 -0.997,0.015 -1.472,-0.114 -0.478,-0.12 -0.922,-0.347 -1.319,-0.639 -0.09,-0.066 -0.216,-0.046 -0.281,0.043 -0.062,0.085 -0.049,0.202 0.029,0.27 l 0.003,0.003 c 0.417,0.366 0.809,0.805 1.165,1.253 0.358,0.451 0.684,0.928 0.979,1.423 0.296,0.495 0.559,1.01 0.79,1.538 0.229,0.53 0.436,1.069 0.598,1.623 0.332,1.106 0.534,2.25 0.609,3.403 0.031,0.577 0.047,1.155 0.018,1.733 -0.018,0.578 -0.074,1.155 -0.152,1.729 -0.06,0.575 -0.222,1.13 -0.249,1.752 -0.021,0.619 0.06,1.209 0.171,1.794 0.231,1.166 0.586,2.293 0.981,3.401 0.801,2.213 1.761,4.355 2.817,6.457 l 0.097,-0.285 c -0.228,0.101 -0.482,0.191 -0.731,0.268 -0.251,0.076 -0.506,0.14 -0.763,0.191 -0.514,0.101 -1.039,0.146 -1.556,0.118 -0.517,-0.03 -1.03,-0.132 -1.501,-0.334 -0.474,-0.194 -0.899,-0.493 -1.266,-0.852 -0.083,-0.082 -0.217,-0.081 -0.299,0.003 -0.047,0.047 -0.066,0.113 -0.059,0.175 0.12,1.006 0.173,2.036 0.188,3.058 0.015,1.024 -0.021,2.049 -0.1,3.069 -0.17,2.037 -0.527,4.068 -1.215,5.987 -0.167,0.481 -0.365,0.95 -0.579,1.411 -0.213,0.461 -0.458,0.906 -0.716,1.341 -0.263,0.415 -0.593,0.859 -0.782,1.373 -0.193,0.5 -0.317,1.016 -0.408,1.533 -0.175,1.035 -0.224,2.078 -0.224,3.116 0.004,1.04 0.059,2.072 0.171,3.109 l 0.22,-0.221 c -0.087,-0.012 -0.204,-0.043 -0.304,-0.079 -0.104,-0.036 -0.207,-0.08 -0.306,-0.131 -0.2,-0.099 -0.386,-0.228 -0.558,-0.373 -0.343,-0.293 -0.62,-0.663 -0.831,-1.071 -0.423,-0.819 -0.597,-1.761 -0.648,-2.699 v -0.004 c -0.006,-0.101 -0.093,-0.18 -0.195,-0.174 -0.039,0.002 -0.074,0.016 -0.103,0.038 -1.201,0.927 -2.325,1.928 -3.406,2.981 -1.076,1.057 -2.104,2.165 -3.041,3.35 -0.939,1.181 -1.796,2.435 -2.498,3.778 -0.177,0.335 -0.34,0.678 -0.493,1.024 -0.154,0.347 -0.293,0.7 -0.419,1.058 -0.119,0.36 -0.244,0.72 -0.328,1.091 -0.1,0.367 -0.162,0.743 -0.228,1.118 l 0.155,-0.125 z"
                id="path21956" />
        </g>
        <g id="g21958" transform="matrix(1.333333, 0, 0, -1.333333, 75.075409, 59.399311)">
            <path style="fill:#fcbe36;fill-opacity:1;fill-rule:nonzero;stroke:none"
                d="m 0,0 c 0,0 -13.407,-5.838 -14.488,-15.353 0,0 -1.946,3.244 -4.974,2.379 0,0 2.595,-1.082 1.514,-5.623 -1.081,-4.541 -6.703,-9.082 -2.379,-16.65 0,0 -1.729,3.027 -5.189,2.379 0,0 3.46,-1.082 3.676,-12.326 0.216,-11.244 3.892,-12.542 4.973,-12.758 0,0 -4.757,2.162 -7.352,-1.081 0,0 6.487,1.513 7.785,-4.758 1.297,-6.271 4.973,-14.704 11.677,-16.866 0,0 -5.839,0.648 -7.136,-3.46 0,0 7.352,1.946 14.272,-2.162 6.919,-4.109 14.92,-4.758 22.272,-4.109 7.352,0.649 15.569,6.271 20.111,9.515 4.541,3.243 6.487,0.864 6.487,0.864 0,0 -1.514,4.541 -5.623,4.109 0,0 8.434,3.027 10.38,10.163 1.946,7.136 6.487,9.082 6.487,9.082 0,0 -3.243,2.163 -5.838,0.217 0,0 4.108,4.541 3.892,14.055 -0.216,9.515 3.892,12.11 3.892,12.11 0,0 -3.676,1.729 -6.054,-0.649 0,0 0.432,9.082 -2.812,15.569 -3.243,6.487 -0.864,8.433 -0.864,8.433 0,0 -3.244,-1.297 -2.812,-4.541 0,0 -9.298,6.92 -10.379,14.272 z"
                id="path21960" />
        </g>
        <g id="g21962" transform="matrix(1.333333, 0, 0, -1.333333, 130.432587, 55.651173)">
            <path style="fill:#f8b22a;fill-opacity:1;fill-rule:nonzero;stroke:none"
                d="m 0,0 -41.518,-2.811 c 0,0 -13.407,-5.839 -14.488,-15.353 0,0 -1.515,2.525 -3.951,2.525 -0.325,0 -0.666,-0.045 -1.022,-0.146 0,0 2.594,-1.082 1.513,-5.623 -1.081,-4.541 -6.703,-9.082 -2.378,-16.65 0,0 0,0 0,0 -0.01,0.016 -1.421,2.469 -4.234,2.47 -0.303,0 -0.621,-0.029 -0.956,-0.092 0,0 3.46,-1.081 3.676,-12.325 0.174,-9.032 2.58,-11.646 4.08,-12.438 0.551,-0.165 0.893,-0.32 0.893,-0.32 -0.212,0.042 -0.525,0.127 -0.893,0.32 -0.623,0.187 -1.512,0.386 -2.476,0.386 -1.361,0 -2.871,-0.397 -3.983,-1.787 0,0 0.688,0.16 1.66,0.16 2.014,0 5.25,-0.688 6.125,-4.918 1.297,-6.271 4.973,-14.704 11.677,-16.866 0,0 -0.337,0.037 -0.866,0.037 -1.675,0 -5.284,-0.375 -6.27,-3.497 0,0 1.74,0.46 4.324,0.46 2.727,0 6.394,-0.513 9.948,-2.623 5.449,-3.235 11.571,-4.325 17.516,-4.325 1.604,0 3.194,0.079 4.756,0.217 7.352,0.649 15.57,6.271 20.111,9.514 1.841,1.315 3.255,1.706 4.286,1.706 1.513,0 2.201,-0.841 2.201,-0.841 0,0 -1.38,4.138 -5.078,4.138 -0.176,0 -0.358,-0.009 -0.544,-0.029 0,0 8.433,3.027 10.379,10.163 1.946,7.136 6.487,9.082 6.487,9.082 0,0 -1.543,1.029 -3.351,1.029 -0.814,0 -1.682,-0.209 -2.487,-0.813 0,0 4.108,4.541 3.892,14.056 -0.216,9.514 3.892,12.109 3.892,12.109 0,0 -1.291,0.608 -2.837,0.608 -1.064,0 -2.248,-0.287 -3.217,-1.256 0,0 0.432,9.082 -2.811,15.569 -3.244,6.487 -0.865,8.433 -0.865,8.433 0,0 -3.244,-1.297 -2.812,-4.541 0,0 -9.298,6.92 -10.379,14.272 m -4.821,-7.342 c 3.391,-6.607 9.526,-11.432 11.021,-12.545 0.404,-0.301 0.832,-0.552 1.278,-0.755 0.101,-0.215 0.207,-0.433 0.317,-0.653 1.96,-3.921 2.165,-10.081 2.08,-12.105 -0.108,-2.255 0.876,-4.38 2.57,-5.76 -0.306,-1.81 -0.467,-3.866 -0.414,-6.193 0.131,-5.767 -1.768,-8.727 -2.16,-9.275 -2.313,-2.314 -2.559,-5.759 -0.861,-8.451 -0.481,-1.097 -0.914,-2.303 -1.275,-3.627 -0.776,-2.843 -4.664,-4.904 -6.014,-5.424 -3.109,-1.069 -4.975,-4.121 -4.632,-7.323 -3.624,-2.48 -9.846,-6.356 -14.571,-6.773 -1.428,-0.126 -2.822,-0.19 -4.141,-0.19 -5.591,0 -10.152,1.094 -13.943,3.344 -1.275,0.757 -2.622,1.4 -4.026,1.923 -0.741,2 -2.385,3.649 -4.534,4.343 -2.835,0.914 -5.767,5.802 -6.971,11.623 -0.162,0.779 -0.376,1.524 -0.639,2.23 0.005,0.013 0.009,0.027 0.013,0.041 1.087,3.368 -0.512,7.013 -3.717,8.499 -0.309,0.781 -0.845,2.678 -0.919,6.542 -0.036,1.859 -0.157,3.539 -0.347,5.056 2.022,2.184 2.494,5.509 0.939,8.23 -1.117,1.955 -0.898,2.703 0.832,6.025 0.628,1.206 1.319,2.534 1.838,4.028 2.201,1.005 3.765,3.103 4.046,5.578 0.386,3.391 5.476,7.291 9.329,9.248 l 34.901,2.364"
                id="path21964" />
        </g>
        <g id="g21966" transform="matrix(1.333333, 0, 0, -1.333333, 130.432587, 55.651173)">
            <path style="fill:#f7a51c;fill-opacity:1;fill-rule:nonzero;stroke:none"
                d="m 0,0 -41.518,-2.811 c 0,0 -13.407,-5.839 -14.488,-15.353 0,0 -1.515,2.525 -3.951,2.525 -0.325,0 -0.666,-0.045 -1.022,-0.146 0,0 2.594,-1.082 1.513,-5.623 -1.081,-4.541 -6.703,-9.082 -2.378,-16.65 -0.006,0.009 -1.417,2.469 -4.234,2.47 -0.303,0 -0.621,-0.029 -0.956,-0.092 0,0 3.46,-1.081 3.676,-12.325 0.174,-9.033 2.58,-11.647 4.08,-12.438 0.551,-0.165 0.893,-0.32 0.893,-0.32 -0.212,0.042 -0.526,0.127 -0.893,0.32 -0.623,0.187 -1.512,0.386 -2.476,0.386 -1.361,0 -2.871,-0.397 -3.983,-1.787 0,0 0.688,0.16 1.66,0.16 2.014,0 5.25,-0.688 6.125,-4.918 1.297,-6.271 4.973,-14.704 11.677,-16.866 0,0 -0.337,0.037 -0.866,0.037 -1.675,0 -5.284,-0.375 -6.27,-3.497 0,0 1.74,0.46 4.324,0.46 2.727,0 6.394,-0.513 9.948,-2.623 5.45,-3.235 11.57,-4.325 17.516,-4.325 1.604,0 3.195,0.079 4.756,0.217 7.352,0.649 15.57,6.271 20.111,9.514 1.841,1.315 3.255,1.706 4.286,1.706 1.513,0 2.201,-0.841 2.201,-0.841 0,0 -1.38,4.138 -5.078,4.138 -0.176,0 -0.358,-0.009 -0.544,-0.029 0,0 8.433,3.027 10.379,10.163 1.946,7.136 6.487,9.082 6.487,9.082 0,0 -1.543,1.029 -3.351,1.029 -0.814,0 -1.682,-0.209 -2.487,-0.813 0,0 4.108,4.541 3.892,14.056 -0.216,9.514 3.892,12.109 3.892,12.109 0,0 -1.291,0.608 -2.837,0.608 -1.064,0 -2.248,-0.287 -3.217,-1.256 0,0 0.432,9.082 -2.811,15.569 -3.244,6.487 -0.865,8.433 -0.865,8.433 0,0 -3.244,-1.297 -2.812,-4.541 0,0 -9.298,6.92 -10.379,14.272 m -2.955,-4.209 c 2.833,-7.069 10.013,-12.577 10.946,-13.272 0.51,-0.379 1.09,-0.623 1.691,-0.73 0.23,-0.557 0.494,-1.138 0.796,-1.742 2.723,-5.446 2.397,-13.515 2.393,-13.59 -0.078,-1.651 0.866,-3.18 2.377,-3.848 0.191,-0.085 0.386,-0.153 0.584,-0.206 -0.54,-2.052 -0.872,-4.583 -0.802,-7.688 0.167,-7.33 -2.576,-10.927 -2.881,-11.303 -1.43,-1.499 -1.431,-3.795 -0.058,-5.353 0.173,-0.197 0.363,-0.371 0.564,-0.524 -0.781,-1.397 -1.489,-3.06 -2.026,-5.03 -1.362,-4.994 -7.824,-7.433 -7.872,-7.451 -1.905,-0.684 -2.999,-2.683 -2.548,-4.657 0.086,-0.374 0.222,-0.726 0.4,-1.047 -3.348,-2.389 -11.375,-7.995 -17.827,-8.565 -1.516,-0.133 -2.998,-0.201 -4.405,-0.201 -6.06,0 -11.267,1.267 -15.474,3.765 -1.607,0.954 -3.347,1.701 -5.178,2.232 -0.02,1.684 -1.108,3.221 -2.772,3.757 -4.529,1.461 -7.777,8.019 -8.988,13.871 -0.216,1.045 -0.547,2.004 -0.982,2.867 0.182,0.285 0.331,0.597 0.439,0.933 0.624,1.934 -0.301,4.028 -2.151,4.869 -0.095,0.043 -0.363,0.161 -0.764,0.303 -0.381,0.418 -1.74,2.363 -1.866,8.891 -0.048,2.481 -0.245,4.584 -0.55,6.369 0.017,0.009 0.033,0.019 0.05,0.028 1.917,1.097 2.583,3.54 1.488,5.457 -1.93,3.377 -1.061,5.374 0.775,8.9 0.787,1.511 1.601,3.074 2.021,4.84 0.01,0.042 0.02,0.084 0.03,0.126 0.117,0.013 0.234,0.031 0.351,0.054 1.709,0.337 2.966,1.807 3.162,3.538 0.63,5.539 8.04,10.19 11.518,11.864 l 37.559,2.543"
                id="path21968" />
        </g>
        <g id="g21970" transform="matrix(1.333333, 0, 0, -1.333333, 158.687958, 100.917137)">
            <path style="fill:#f7a321;fill-opacity:1;fill-rule:nonzero;stroke:none"
                d="m 0,0 c 0,0 -6.703,-2.811 -6.92,-9.082 -0.216,-6.271 3.46,-10.379 1.081,-15.137 0,0 4.758,3.244 3.244,12.11 C -4.109,-3.244 0,0 0,0"
                id="path21972" />
        </g>
        <g id="g21974" transform="matrix(1.333333, 0, 0, -1.333333, 50.279877, 113.314903)">
            <path style="fill:#ffdd58;fill-opacity:1;fill-rule:nonzero;stroke:none"
                d="m 0,0 c 0,0 5.406,-4.541 5.838,-10.596 0,0 5.19,11.461 13.407,12.758 0,0 -8.217,1.947 -11.46,-2.594 0,0 -1.082,6.271 2.162,10.163 0,0 -5.19,-4.541 -5.19,-9.299 C 4.757,0.432 2.379,2.379 0,0"
                id="path21976" />
        </g>
        <g id="g21978" transform="matrix(1.333333, 0, 0, -1.333333, 75.940277, 87.942833)">
            <path style="fill:#ffdd58;fill-opacity:1;fill-rule:nonzero;stroke:none"
                d="m 0,0 c 0,0 8.217,-7.568 9.731,-14.704 0,0 3.027,11.028 12.758,12.758 0,0 -7.785,2.378 -10.596,0 0,0 -0.865,4.973 1.514,8.433 0,0 -3.676,-3.243 -4.757,-6.919 0,0 -4.758,1.946 -8.65,0.432"
                id="path21980" />
        </g>
        <g id="g21982" transform="matrix(1.333333, 0, 0, -1.333333, 57.776154, 79.293266)">
            <path style="fill:#ffdd58;fill-opacity:1;fill-rule:nonzero;stroke:none"
                d="m 0,0 c 0,0 3.244,0.216 4.541,-3.46 0,0 4.109,5.406 8.866,7.136 0,0 -2.811,1.514 -6.271,-1.514 0,0 -0.865,3.893 2.162,6.488 0,0 -4.973,-3.028 -5.622,-7.136 C 3.676,1.514 2.379,3.027 0,0"
                id="path21984" />
        </g>
        <g id="g21986" transform="matrix(1.333333, 0, 0, -1.333333, 127.261078, 93.709129)">
            <path style="fill:#ffdd58;fill-opacity:1;fill-rule:nonzero;stroke:none"
                d="m 0,0 c 0,0 7.136,-4.541 6.703,-11.677 0,0 4.541,5.622 8.218,6.92 0,0 -2.379,1.946 -3.893,0.648 0,0 2.595,7.569 -0.432,11.894 0,0 -0.649,-7.569 -3.244,-10.596 0,0 -3.676,4.973 -7.352,2.811"
                id="path21988" />
        </g>
        <g id="g21990" transform="matrix(1.333333, 0, 0, -1.333333, 141.965363, 118.504601)">
            <path style="fill:#ffdd58;fill-opacity:1;fill-rule:nonzero;stroke:none"
                d="m 0,0 c 0,0 6.703,-3.46 5.622,-11.461 0,0 4.541,3.893 3.244,13.191 l -1.73,-4.974 c 0,0 -1.514,2.812 -7.136,3.244"
                id="path21992" />
        </g>
        <g id="g21994" transform="matrix(1.333333, 0, 0, -1.333333, 110.826874, 138.686966)">
            <path style="fill:#ffdd58;fill-opacity:1;fill-rule:nonzero;stroke:none"
                d="m 0,0 c 0,0 6.703,-5.622 4.109,-13.191 0,0 7.135,11.461 19.894,10.812 0,0 -8.866,3.244 -14.705,-0.648 0,0 1.946,7.784 6.487,9.73 0,0 -7.135,-1.081 -10.163,-8 0,0 -0.648,2.811 -5.622,1.297"
                id="path21996" />
        </g>
        <g id="g21998" transform="matrix(1.333333, 0, 0, -1.333333, 63.830841, 132.63237)">
            <path style="fill:#ffdd58;fill-opacity:1;fill-rule:nonzero;stroke:none"
                d="m 0,0 c 0,0 9.298,-4.757 8.866,-16.867 0,0 7.784,12.326 17.948,14.272 0,0 -7.785,0.433 -11.245,-1.946 0,0 2.379,7.785 -0.216,11.893 0,0 -5.622,-6.703 -6.703,-11.677 0,0 -3.244,6.055 -8.65,4.325"
                id="path22000" />
        </g>
        <g id="g22002" transform="matrix(1.333333, 0, 0, -1.333333, 96.987518, 114.468224)">
            <path style="fill:#ffdd58;fill-opacity:1;fill-rule:nonzero;stroke:none"
                d="m 0,0 c 0,0 7.352,-0.865 7.136,-12.758 0,0 4.973,12.326 15.785,11.028 0,0 -6.487,1.73 -9.73,0.433 0,0 0.865,6.703 2.811,8.865 0,0 -7.352,-2.378 -8.65,-7.136 C 7.352,0.432 3.676,3.244 0,0"
                id="path22004" />
        </g>
        <g id="g22006" transform="matrix(1.333333, 0, 0, -1.333333, 81.706573, 159.157516)">
            <path style="fill:#ffdd58;fill-opacity:1;fill-rule:nonzero;stroke:none"
                d="m 0,0 c 0,0 7.136,-3.027 6.703,-11.461 0,0 6.055,11.893 15.137,11.245 0,0 -6.487,1.946 -10.163,-0.649 0,0 -0.216,7.136 2.811,10.38 0,0 -5.622,-3.677 -7.352,-9.515 0,0 -2.162,3.244 -7.136,0"
                id="path22008" />
        </g>
        <g id="g22010" transform="matrix(1.333333, 0, 0, -1.333333, 59.217743, 146.759964)">
            <path style="fill:#ffdd58;fill-opacity:1;fill-rule:nonzero;stroke:none"
                d="m 0,0 c 0,0 -2.379,-9.515 8.65,-12.542 0,0 1.729,6.055 -1.298,11.461 L 6.703,-6.703 c 0,0 -6.919,1.513 -6.703,6.703"
                id="path22012" />
        </g>
        <g id="g22014" transform="matrix(1.333333, 0, 0, -1.333333, 76.805267, 168.095505)">
            <path style="fill:#ffdd58;fill-opacity:1;fill-rule:nonzero;stroke:none"
                d="M 0,0 C 0,0 5.622,3.892 8.217,-5.622 8.217,-5.622 3.892,-3.46 0,0"
                id="path22016" />
        </g>
        <g id="g22018" transform="matrix(1.333333, 0, 0, -1.333333, 94.681, 175.303513)">
            <path style="fill:#ffdd58;fill-opacity:1;fill-rule:nonzero;stroke:none"
                d="M 0,0 C 0,0 9.082,7.136 14.921,5.622 L 10.163,1.081 c 0,0 7.352,-0.216 9.515,1.081 0,0 -8.217,-4.973 -19.678,-2.162"
                id="path22020" />
        </g>
        <g id="g22022" transform="matrix(1.333333, 0, 0, -1.333333, 120.05307, 160.599258)">
            <path style="fill:#ffdd58;fill-opacity:1;fill-rule:nonzero;stroke:none"
                d="M 0,0 C 0,0 8.433,1.73 13.407,6.055 13.407,6.055 11.677,-2.162 0,0"
                id="path22024" />
        </g>
        <g id="g22026" transform="matrix(1.333333, 0, 0, -1.333333, 32.692474, 38.351948)">
            <path style="fill:#00aa4f;fill-opacity:1;fill-rule:nonzero;stroke:none"
                d="m 0,0 c 0,0 10.163,13.623 38.058,2.811 0,0 -5.406,16.218 -11.677,22.057 -6.271,5.838 -6.271,9.082 -6.271,9.082 0,0 -9.803,3.82 -13.046,7.063 0,0 23.858,5.046 43.536,-22.849 0,0 1.514,27.354 26.165,31.463 0,0 -10.38,-5.73 -14.056,-16.11 -3.676,-10.379 -1.946,-12.758 -1.946,-12.758 0,0 25.625,14.272 27.138,-11.461 0,0 -17.839,17.083 -21.948,-14.272 0,0 20.687,15.57 26.742,-8.217 0,0 -19.39,17.732 -25.228,-10.163 0,0 -3.244,-2.595 -3.028,-7.568 0,0 -4.108,3.892 -4.324,8.001 0,0 -2.163,-1.298 -1.73,-4.541 l -1.298,2.378 c 0,0 -1.297,-3.243 -2.595,-5.838 0,0 0.433,3.027 -0.216,5.19 0,0 -2.162,-4.325 -4.757,-4.974 0,0 0.216,1.514 0.216,4.109 0,0 -1.946,-2.812 -3.46,-3.028 0,0 0.433,1.73 0.433,4.541 0,0 -1.73,-1.946 -4.109,-2.595 l -0.432,2.812 c 0,0 -4.758,-1.947 -3.893,-4.325 0,0 -2.162,2.811 -3.676,7.136 C 33.085,-17.732 27.679,4.541 0,0"
                id="path22028" />
        </g>
        <g id="g22030" transform="matrix(1.333333, 0, 0, -1.333333, 63.542572, 42.100056)">
            <path style="fill:#007534;fill-opacity:1;fill-rule:nonzero;stroke:none"
                d="m 0,0 c 0,0 24.435,10.163 29.625,-17.732 0,0 -5.839,15.353 -17.516,17.516 0,0 10.164,-5.19 10.164,-18.381 0,0 -3.028,19.246 -22.273,18.597"
                id="path22032" />
        </g>
        <g id="g22034" transform="matrix(1.333333, 0, 0, -1.333333, 69.59726, 87.366173)">
            <path style="fill:#b96f12;fill-opacity:1;fill-rule:nonzero;stroke:none"
                d="m 0,0 c 0,0 5.622,-3.892 8.866,-9.947 3.243,-6.055 6.703,-9.731 6.703,-9.731 0,0 -3.243,7.352 -6.703,12.758 C 5.406,-1.514 0,0 0,0"
                id="path22036" />
        </g>
        <g id="g22038" transform="matrix(1.333333, 0, 0, -1.333333, 91.221222, 111.008354)">
            <path style="fill:#b96f12;fill-opacity:1;fill-rule:nonzero;stroke:none"
                d="m 0,0 c 0,0 7.136,16.65 20.326,12.974 0,0 5.623,11.461 13.84,13.407 0,0 -9.947,0.216 -14.488,-10.812 C 19.678,15.569 3.027,17.948 0,0"
                id="path22040" />
        </g>
        <g id="g22042" transform="matrix(1.333333, 0, 0, -1.333333, 121.206268, 93.132469)">
            <path style="fill:#b96f12;fill-opacity:1;fill-rule:nonzero;stroke:none"
                d="m 0,0 c 0,0 9.298,-3.892 8.433,-19.029 0,0 7.569,10.596 13.191,12.758 0,0 -6.055,-1.081 -10.38,-7.352 0,0 -1.946,11.461 -11.244,13.623"
                id="path22044" />
        </g>
        <g id="g22046" transform="matrix(1.333333, 0, 0, -1.333333, 47.396698, 117.063042)">
            <path style="fill:#b96f12;fill-opacity:1;fill-rule:nonzero;stroke:none"
                d="m 0,0 c 0,0 5.406,-5.622 6.271,-10.812 0,0 9.947,17.083 24.435,13.191 0,0 -16.002,4.973 -23.786,-10.38 0,0 -2.811,6.055 -6.92,8.001"
                id="path22048" />
        </g>
        <g id="g22050" transform="matrix(1.333333, 0, 0, -1.333333, 91.79776, 113.891563)">
            <path style="fill:#b96f12;fill-opacity:1;fill-rule:nonzero;stroke:none"
                d="m 0,0 c 0,0 5.622,-1.946 6.271,-6.703 0.649,-4.758 1.081,-7.569 3.676,-10.596 2.595,-3.028 7.568,-5.839 5.838,-16.867 0,0 3.677,8.001 -2.378,15.786 -6.055,7.784 -3.892,8.649 -5.19,12.974 C 6.92,-1.081 0,0 0,0"
                id="path22052" />
        </g>
        <g id="g22054" transform="matrix(1.333333, 0, 0, -1.333333, 74.498688, 161.464249)">
            <path style="fill:#b96f12;fill-opacity:1;fill-rule:nonzero;stroke:none"
                d="m 0,0 c 0,0 4.109,9.082 11.244,13.191 7.136,4.108 11.677,5.189 11.677,5.189 0,0 -9.298,-0.865 -13.839,-4.757 C 4.541,9.731 0.432,6.055 0,0"
                id="path22056" />
        </g>
        <g id="g22058" transform="matrix(1.333333, 0, 0, -1.333333, 57.487762, 132.05571)">
            <path style="fill:#b96f12;fill-opacity:1;fill-rule:nonzero;stroke:none"
                d="m 0,0 c 0,0 12.326,-9.298 12.326,-19.245 0,0 0.648,16.65 -12.326,19.245"
                id="path22060" />
        </g>
        <g id="g22062" transform="matrix(1.333333, 0, 0, -1.333333, 115.439911, 160.599258)">
            <path style="fill:#b96f12;fill-opacity:1;fill-rule:nonzero;stroke:none"
                d="M 0,0 C 0,0 9.082,14.488 24.219,12.109 24.219,12.109 8.001,18.38 0,0"
                id="path22064" />
        </g>
        <g id="g22066" transform="matrix(1.333333, 0, 0, -1.333333, 135.045624, 119.657921)">
            <path style="fill:#b96f12;fill-opacity:1;fill-rule:nonzero;stroke:none"
                d="M 0,0 C 0,0 10.379,-5.19 9.947,-17.299 9.947,-17.299 8.65,-6.703 0,0"
                id="path22068" />
        </g>
        <g id="g22070" transform="matrix(1.333333, 0, 0, -1.333333, 106.502045, 134.362198)">
            <path style="fill:#b96f12;fill-opacity:1;fill-rule:nonzero;stroke:none"
                d="m 0,0 c 0,0 7.568,15.785 19.462,11.893 l 0.216,-1.73 C 19.678,10.163 11.677,15.569 0,0"
                id="path22072" />
        </g>
        <g id="g22074" transform="matrix(1.333333, 0, 0, -1.333333, 92.37442, 175.303513)">
            <path style="fill:#b96f12;fill-opacity:1;fill-rule:nonzero;stroke:none"
                d="M 0,0 C 0,0 5.19,10.38 16.002,10.163 16.002,10.163 5.406,15.353 0,0"
                id="path22076" />
        </g>
        <g id="g22078" transform="matrix(1.333333, 0, 0, -1.333333, 116.8815, 161.175827)">
            <path style="fill:#b96f12;fill-opacity:1;fill-rule:nonzero;stroke:none"
                d="M 0,0 C 0,0 6.271,-4.757 4.757,-9.515 4.757,-9.515 8.65,-1.081 0,0"
                id="path22080" />
        </g>
        <g id="g22082" transform="matrix(1.333333, 0, 0, -1.333333, 72.576569, 83.233696)">
            <path style="fill:#febf38;fill-opacity:1;fill-rule:nonzero;stroke:none"
                d="m 0,0 c 0,0 4.613,11.172 17.732,14.128 0,0 6.631,-0.361 14.488,-17.588 0,0 -18.164,15.353 -32.22,3.46"
                id="path22084" />
        </g>
        <g id="g22086" transform="matrix(1.333333, 0, 0, -1.333333, 129.279266, 55.651173)">
            <path style="fill:#febf38;fill-opacity:1;fill-rule:nonzero;stroke:none"
                d="m 0,0 c 0,0 -13.623,-1.946 -13.191,-14.92 l 5.623,-6.055 9.298,8.217 c 0,0 -4.974,7.568 -1.73,12.758"
                id="path22088" />
        </g>
        <g id="g22090" transform="matrix(1.333333, 0, 0, -1.333333, 111.115204, 76.698387)">
            <path style="fill:#ffdd58;fill-opacity:1;fill-rule:nonzero;stroke:none"
                d="m 0,0 c 0,0 4.109,-4.757 5.19,-8.433 0,0 2.378,5.838 6.054,7.568 0,0 -3.243,0.216 -4.541,-1.514 0,0 0,4.325 -1.513,5.19 0,0 0.216,-3.892 -0.865,-4.973 0,0 -1.081,3.027 -4.325,2.162"
                id="path22092" />
        </g>
        <g id="g22094" transform="matrix(1.333333, 0, 0, -1.333333, 75.075409, 82.752983)">
            <path style="fill:#b96f12;fill-opacity:1;fill-rule:nonzero;stroke:none"
                d="M 0,0 C 0,0 2.595,8.433 10.596,9.298 10.596,9.298 4.109,8.001 0,0"
                id="path22096" />
        </g>
        <g id="g22098" transform="matrix(1.333333, 0, 0, -1.333333, 53.162933, 106.395317)">
            <path style="fill:#b96f12;fill-opacity:1;fill-rule:nonzero;stroke:none"
                d="M 0,0 C 0,0 0.216,8.433 5.19,11.461 5.19,11.461 -0.649,11.028 0,0"
                id="path22100" />
        </g>
        <g id="g22102" transform="matrix(1.333333, 0, 0, -1.333333, 58.064423, 135.803848)">
            <path style="fill:#b96f12;fill-opacity:1;fill-rule:nonzero;stroke:none"
                d="M 0,0 C 0,0 8.65,-2.162 10.379,-13.623 10.379,-13.623 8.433,-4.109 0,0"
                id="path22104" />
        </g>
        <g id="g22106" transform="matrix(1.333333, 0, 0, -1.333333, 109.385223, 134.650436)">
            <path style="fill:#b96f12;fill-opacity:1;fill-rule:nonzero;stroke:none"
                d="M 0,0 C 0,0 3.027,7.136 10.812,9.082 10.812,9.082 3.244,6.055 0,0"
                id="path22108" />
        </g>
        <g id="g22110" transform="matrix(1.333333, 0, 0, -1.333333, 119.76474, 95.72744)">
            <path style="fill:#b96f12;fill-opacity:1;fill-rule:nonzero;stroke:none"
                d="M 0,0 C 0,0 6.92,-2.162 8.433,-14.704 8.433,-14.704 6.055,-3.46 0,0"
                id="path22112" />
        </g>
        <g id="g22114" transform="matrix(1.333333, 0, 0, -1.333333, 93.239349, 111.585014)">
            <path style="fill:#b96f12;fill-opacity:1;fill-rule:nonzero;stroke:none"
                d="M 0,0 C 0,0 4.973,11.893 13.839,12.326 13.839,12.326 4.757,14.056 0,0"
                id="path22116" />
        </g>
        <g id="g22118" transform="matrix(1.333333, 0, 0, -1.333333, 121.206268, 93.132469)">
            <path style="fill:#b96f12;fill-opacity:1;fill-rule:nonzero;stroke:none"
                d="M 0,0 C 0,0 3.892,11.244 12.974,11.244 12.974,11.244 2.811,12.109 0,0"
                id="path22120" />
        </g>
        <g id="g22122" transform="matrix(1.333333, 0, 0, -1.333333, 134.468964, 121.676231)">
            <path style="fill:#b96f12;fill-opacity:1;fill-rule:nonzero;stroke:none"
                d="M 0,0 C 0,0 6.055,-1.514 8.866,-14.056 8.866,-14.056 6.271,-4.325 0,0"
                id="path22124" />
        </g>
        <g id="g22126" transform="matrix(1.333333, 0, 0, -1.333333, 117.746552, 158.581009)">
            <path style="fill:#b96f12;fill-opacity:1;fill-rule:nonzero;stroke:none"
                d="M 0,0 C 0,0 9.731,11.677 19.029,9.082 19.029,9.082 10.379,9.947 0,0"
                id="path22128" />
        </g>
        <g id="g22130" transform="matrix(1.333333, 0, 0, -1.333333, 75.651886, 161.752487)">
            <path style="fill:#b96f12;fill-opacity:1;fill-rule:nonzero;stroke:none"
                d="M 0,0 C 0,0 4.325,13.623 21.191,17.083 21.191,17.083 5.838,13.191 0,0"
                id="path22132" />
        </g>
        <g id="g22134" transform="matrix(1.333333, 0, 0, -1.333333, 92.37442, 115.333153)">
            <path style="fill:#b96f12;fill-opacity:1;fill-rule:nonzero;stroke:none"
                d="m 0,0 c 0,0 5.838,-1.946 6.487,-12.542 0,0 -1.73,9.947 -6.487,12.542"
                id="path22136" />
        </g>
        <g id="g22138" transform="matrix(1.333333, 0, 0, -1.333333, 55.757904, 131.478958)">
            <path style="fill:#b96f12;fill-opacity:1;fill-rule:nonzero;stroke:none"
                d="M 0,0 C 0,0 8.217,12.326 19.678,11.893 19.678,11.893 7.785,9.731 0,0"
                id="path22140" />
        </g>
        <g id="g22142" transform="matrix(1.333333, 0, 0, -1.333333, 44.225067, 137.533646)">
            <path style="fill:#b96f12;fill-opacity:1;fill-rule:nonzero;stroke:none"
                d="M 0,0 C 0,0 3.892,2.379 9.947,-0.216 9.947,-0.216 3.892,4.109 0,0"
                id="path22144" />
        </g>
        <g id="g22146" transform="matrix(1.333333, 0, 0, -1.333333, 41.053619, 103.223686)">
            <path style="fill:#b96f12;fill-opacity:1;fill-rule:nonzero;stroke:none"
                d="M 0,0 C 0,0 4.757,0.432 7.136,-3.892 7.136,-3.892 3.46,-0.216 0,0"
                id="path22148" />
        </g>
        <g id="g22150" transform="matrix(1.333333, 0, 0, -1.333333, 49.126556, 76.698387)">
            <path style="fill:#b96f12;fill-opacity:1;fill-rule:nonzero;stroke:none"
                d="M 0,0 C 0,0 4.757,-0.649 5.622,-5.19 5.622,-5.19 6.271,0.865 0,0"
                id="path22152" />
        </g>
        <g id="g22154" transform="matrix(1.333333, 0, 0, -1.333333, 59.217743, 171.555313)">
            <path style="fill:#b96f12;fill-opacity:1;fill-rule:nonzero;stroke:none"
                d="M 0,0 C 0,0 2.379,5.838 9.298,4.757 9.298,4.757 3.244,2.811 0,0"
                id="path22156" />
        </g>
        <g id="g22158" transform="matrix(1.333333, 0, 0, -1.333333, 132.450836, 161.175827)">
            <path style="fill:#b96f12;fill-opacity:1;fill-rule:nonzero;stroke:none"
                d="m 0,0 c 0,0 4.757,1.081 7.136,-2.811 0,0 0,5.406 -7.136,2.811" id="path22160" />
        </g>
        <g id="g22162" transform="matrix(1.333333, 0, 0, -1.333333, 150.326569, 137.821915)">
            <path style="fill:#b96f12;fill-opacity:1;fill-rule:nonzero;stroke:none"
                d="M 0,0 C 0,0 1.279,2.558 5.013,2.299 5.341,2.277 5.688,2.232 6.055,2.162 6.055,2.162 0.649,5.19 0,0"
                id="path22164" />
        </g>
        <g id="g22166" transform="matrix(1.333333, 0, 0, -1.333333, 150.614838, 105.818565)">
            <path style="fill:#b96f12;fill-opacity:1;fill-rule:nonzero;stroke:none"
                d="M 0,0 C 0,0 3.027,5.19 7.785,4.541 7.785,4.541 -0.216,8.217 0,0"
                id="path22168" />
        </g>
        <g id="g22170" transform="matrix(1.333333, 0, 0, -1.333333, 146.290192, 78.716606)">
            <path style="fill:#b96f12;fill-opacity:1;fill-rule:nonzero;stroke:none"
                d="M 0,0 C 0,0 -1.73,5.406 1.297,7.568 1.297,7.568 -4.974,5.622 0,0"
                id="path22172" />
        </g>
        <g id="g22174" transform="matrix(1.333333, 0, 0, -1.333333, 128.414276, 57.957661)">
            <path style="fill:#b96f12;fill-opacity:1;fill-rule:nonzero;stroke:none"
                d="m 0,0 c 0,0 -0.432,-6.271 6.271,-9.731 6.703,-3.46 6.703,-4.973 6.703,-4.973 0,0 -2.378,6.487 -6.703,8.866 C 1.946,-3.46 3.027,0.865 3.027,0.865 Z"
                id="path22176" />
        </g>
        <g id="g22178" transform="matrix(1.333333, 0, 0, -1.333333, 108.232025, 73.238579)">
            <path style="fill:#007534;fill-opacity:1;fill-rule:nonzero;stroke:none"
                d="M 0,0 C 0,0 13.118,35.463 36.04,12.974 36.04,12.974 10.163,17.299 0,0"
                id="path22180" />
        </g>
        <g id="g22182" transform="matrix(1.333333, 0, 0, -1.333333, 109.961884, 59.975971)">
            <path style="fill:#007534;fill-opacity:1;fill-rule:nonzero;stroke:none"
                d="m 0,0 c 0,0 11.785,45.41 29.949,25.516 0,0 -6.595,12.542 -18.488,5.622 C -0.432,24.219 0,0 0,0"
                id="path22184" />
        </g>
        <g id="g22186" transform="matrix(1.333333, 0, 0, -1.333333, 109.673676, 0.005513)">
            <path style="fill:#007534;fill-opacity:1;fill-rule:nonzero;stroke:none"
                d="m 0,0 c -1.352,-4.618 -2.039,-10.487 -2.323,-16.636 0.733,1.329 1.701,2.506 2.976,3.463 0.441,3.431 1.004,6.609 1.726,9.281 4.324,16.001 16.65,24.759 16.65,24.759 C 19.029,20.867 5.19,17.732 0,0"
                id="path22188" />
        </g>
        <g id="g22190" transform="matrix(1.333333, 0, 0, -1.333333, 59.506073, -6.914165)">
            <path style="fill:#007534;fill-opacity:1;fill-rule:nonzero;stroke:none"
                d="m 0,0 c 0,0 20.975,-5.622 28.76,-25.3 0,0 -12.542,18.813 -24.651,21.84 0,0 0.865,-3.676 4.541,-7.136 3.676,-3.46 9.082,-18.38 9.298,-20.542 0,0 -5.839,13.839 -11.893,19.245 C 0,-6.487 0,0 0,0"
                id="path22192" />
        </g>
        <g id="g22194" transform="matrix(1.333333, 0, 0, -1.333333, 45.090179, 34.027149)">
            <path style="fill:#007534;fill-opacity:1;fill-rule:nonzero;stroke:none"
                d="M 0,0 C 0,0 28.544,6.271 41.734,-11.028 41.734,-11.028 24.435,9.515 0,0"
                id="path22196" />
        </g>
        <g id="g22198" transform="matrix(1.333333, 0, 0, -1.333333, 131.874176, 54.497761)">
            <path style="fill:#007534;fill-opacity:1;fill-rule:nonzero;stroke:none"
                d="m 0,0 c 0,0 -7.352,-3.027 -6.703,-10.163 0,0 -6.055,8.001 6.703,10.163"
                id="path22200" />
        </g>
        <g id="g22202" transform="matrix(1.333333, 0, 0, -1.333333, 111.403534, 78.139946)">
            <path style="fill:#007534;fill-opacity:1;fill-rule:nonzero;stroke:none"
                d="m 0,0 c 0,0 0.432,10.379 8.433,15.569 0,0 -6.703,-2.811 -11.605,-11.605 0,0 2.163,-1.946 3.172,-3.964"
                id="path22204" />
        </g>
        <g id="g22206" transform="matrix(1.333333, 0, 0, -1.333333, 99.294037, 46.424854)">
            <path style="fill:#007534;fill-opacity:1;fill-rule:nonzero;stroke:none"
                d="m 0,0 c 0,0 3.46,24.651 16.218,27.679 12.758,3.027 20.651,-2.812 21.732,-12.326 0,0 0.324,19.245 -19.57,15.569 C -1.514,27.246 0,0 0,0"
                id="path22208" />
        </g>
        <g id="g22210" transform="matrix(1.333333, 0, 0, -1.333333, 115.728302, 10.096577)">
            <path style="fill:#007534;fill-opacity:1;fill-rule:nonzero;stroke:none"
                d="m 0,0 c 0,0 1.946,20.435 14.488,28.435 0,0 -16.65,-7.027 -20.11,-30.814 0,0 1.081,-0.865 2.378,0 C -1.946,-1.514 0,0 0,0"
                id="path22212" />
        </g>
        <g id="g22214" transform="matrix(1.333333, 0, 0, -1.333333, 42.110809, -16.332623)">
            <path style="fill:#007534;fill-opacity:1;fill-rule:nonzero;stroke:none"
                d="m 0,0 c 0,0 3.099,-6.199 15.858,-9.01 12.758,-2.811 22.056,-16.218 25.083,-21.408 0,0 -6.703,19.029 -24.867,24.003 C 2.883,-2.09 0,0 0,0"
                id="path22216" />
        </g>
        <g id="g22218" transform="matrix(1.333333, 0, 0, -1.333333, 74.210297, 14.133106)">
            <path style="fill:#007534;fill-opacity:1;fill-rule:nonzero;stroke:none"
                d="M 0,0 C 0,0 10.163,-2.811 15.569,-20.543 15.569,-20.543 8.866,-6.703 0,0"
                id="path22220" />
        </g>
        <g id="g22222" transform="matrix(1.333333, 0, 0, -1.333333, 111.403534, 78.139946)">
            <path style="fill:#004b21;fill-opacity:1;fill-rule:nonzero;stroke:none"
                d="m 0,0 c 0,0 9.01,27.246 33.661,16.65 0,0 -23.065,14.056 -34.31,-14.271 l 0.433,-1.298"
                id="path22224" />
        </g>
        <g id="g22226" transform="matrix(1.333333, 0, 0, -1.333333, 73.057098, 41.235157)">
            <path style="fill:#004b21;fill-opacity:1;fill-rule:nonzero;stroke:none"
                d="m 0,0 c 0,0 15.497,-2.307 17.371,-17.371 0,0 2.523,0.504 5.118,-2.739 0,0 -2.379,21.624 -22.489,20.11"
                id="path22228" />
        </g>
        <g id="g22230" transform="matrix(1.333333, 0, 0, -1.333333, 120.629791, 44.983295)">
            <path style="fill:#004b21;fill-opacity:1;fill-rule:nonzero;stroke:none"
                d="m 0,0 c 0,0 -4.974,-1.73 -9.082,-16.65 0,0 5.838,37.625 20.759,37.409 9.298,-1.297 10.271,-6.487 10.271,-6.487 0,0 -3.568,5.19 -11.352,2.378 C 2.811,13.839 0.649,2.379 0,0"
                id="path22232" />
        </g>
        <g id="g22234" transform="matrix(1.333333, 0, 0, -1.333333, 135.045624, -27.817242)">
            <path style="fill:#004b21;fill-opacity:1;fill-rule:nonzero;stroke:none"
                d="m 0,0 c 0,0 -12.974,-10.271 -13.839,-26.273 0,0 -11.245,-2.811 -13.407,-27.895 0,0 -1.514,20.11 8.649,28.327 0,0 3.893,18.273 18.597,25.841"
                id="path22236" />
        </g>
        <g id="g22238" transform="matrix(1.333333, 0, 0, -1.333333, 60.082733, -4.319286)">
            <path style="fill:#004b21;fill-opacity:1;fill-rule:nonzero;stroke:none"
                d="m 0,0 c 0,0 0.865,-9.731 11.893,-15.137 11.028,-5.406 14.272,-19.245 14.272,-19.245 0,0 4.108,-4.109 7.568,-12.326 0,0 -1.297,6.704 -7.352,16.435 0,0 -3.243,12.541 -13.407,19.029 C 2.811,-4.757 0,0 0,0"
                id="path22240" />
        </g>
        <g id="g22242" transform="matrix(1.333333, 0, 0, -1.333333, 42.110809, -16.332623)">
            <path style="fill:#004b21;fill-opacity:1;fill-rule:nonzero;stroke:none"
                d="m 0,0 c 0,0 6.127,-7.28 16.074,-10.524 9.947,-3.243 20.759,-9.082 25.732,-21.84 0,0 -5.838,18.597 -20.326,22.489 C 6.992,-5.983 0,0 0,0"
                id="path22244" />
        </g>
        <g id="g22246" transform="matrix(1.333333, 0, 0, -1.333333, 55.757904, 79.869835)">
            <path style="fill:#b96f12;fill-opacity:1;fill-rule:nonzero;stroke:none"
                d="m 0,0 c 0,0 4.325,11.028 16.65,12.542 l -1.513,3.676 C 15.137,16.218 2.379,13.623 0,0"
                id="path22248" />
        </g>
        <g id="g22250" transform="matrix(1.333333, 0, 0, -1.333333, 32.692474, 38.351948)">
            <path style="fill:#004b21;fill-opacity:1;fill-rule:nonzero;stroke:none"
                d="m 0,0 c 0,0 26.381,2.595 35.68,-25.3 0,0 1.297,1.946 6.919,4.109 0,0 -16.867,29.408 -42.599,21.191"
                id="path22252" />
        </g>
        <g id="g22254" transform="matrix(1.333333, 0, 0, -1.333333, 51.721527, 104.377007)">
            <path style="fill:#b96f12;fill-opacity:1;fill-rule:nonzero;stroke:none"
                d="m 0,0 c 0,0 1.73,11.028 11.461,14.056 0,0 3.027,-0.433 5.406,3.243 2.378,3.676 8.649,11.605 17.083,12.686 0,0 -10.812,-0.144 -18.381,-12.037 0,0 -1.946,-1.514 -5.622,-3.027 C 6.271,13.407 0,10.596 0,0"
                id="path22256" />
        </g>
        <g id="g22258" transform="matrix(1.333333, 0, 0, -1.333333, 98.525238, 65.261681)">
            <path style="fill:#b96f12;fill-opacity:1;fill-rule:nonzero;stroke:none"
                d="m 0,0 c 0,0 12.47,-8.361 14.2,-18.741 l -1.082,-0.432 c 0,0 -2.739,10.74 -13.118,19.173"
                id="path22260" />
        </g>
        <g id="g22262" transform="matrix(1.333333, 0, 0, -1.333333, 58.641083, 90.249413)">
            <path style="fill:#f7a321;fill-opacity:1;fill-rule:nonzero;stroke:none"
                d="m 0,0 c 0,0 -7.136,-6.271 -4.109,-16.65 0,0 -0.648,10.379 4.109,16.65"
                id="path22264" />
        </g>
        <g id="g22266" transform="matrix(1.333333, 0, 0, -1.333333, 109.385223, 134.650436)">
            <path style="fill:#f7a321;fill-opacity:1;fill-rule:nonzero;stroke:none"
                d="m 0,0 c 0,0 9.947,-7.352 4.757,-17.299 0,0 1.946,9.731 -4.757,17.299"
                id="path22268" />
        </g>
        <g id="g22270" transform="matrix(1.333333, 0, 0, -1.333333, 59.217743, 131.478958)">
            <path style="fill:#f7a321;fill-opacity:1;fill-rule:nonzero;stroke:none"
                d="m 0,0 c 0,0 10.812,-3.892 11.461,-18.38 0,0 4.541,13.623 -11.461,18.38"
                id="path22272" />
        </g>
        <g id="g22274" transform="matrix(1.333333, 0, 0, -1.333333, 77.958466, 159.445938)">
            <path style="fill:#f7a321;fill-opacity:1;fill-rule:nonzero;stroke:none"
                d="m 0,0 c 0,0 9.947,-0.432 9.515,-11.244 0,0 -1.73,8.217 -9.515,11.244"
                id="path22276" />
        </g>
        <g id="g22278" transform="matrix(1.333333, 0, 0, -1.333333, 56.334564, 126.289268)">
            <path style="fill:#f7a321;fill-opacity:1;fill-rule:nonzero;stroke:none"
                d="M 0,0 C 0,0 3.244,14.272 20.759,11.461 20.759,11.461 6.92,9.731 0,0"
                id="path22280" />
        </g>
        <g id="g22282" transform="matrix(1.333333, 0, 0, -1.333333, 70.75058, 86.501122)">
            <path style="fill:#f7a321;fill-opacity:1;fill-rule:nonzero;stroke:none"
                d="M 0,0 C 0,0 10.812,-0.865 13.623,-15.785 13.623,-15.785 6.271,-1.73 0,0"
                id="path22284" />
        </g>
        <g id="g22286" transform="matrix(1.333333, 0, 0, -1.333333, 89.491241, 115.044884)">
            <path style="fill:#f7a321;fill-opacity:1;fill-rule:nonzero;stroke:none"
                d="M 0,0 C 0,0 4.541,-1.946 6.055,-9.947 6.055,-9.947 3.027,-3.244 0,0"
                id="path22288" />
        </g>
        <g id="g22290" transform="matrix(1.333333, 0, 0, -1.333333, 52.874725, 79.004845)">
            <path style="fill:#f7a321;fill-opacity:1;fill-rule:nonzero;stroke:none"
                d="m 0,0 c 0,0 2.811,-3.892 -0.432,-9.947 -3.244,-6.055 -0.433,-11.677 -0.433,-11.677 0,0 -6.271,3.892 -3.676,10.163 C -1.946,-5.19 0.649,-5.406 0,0"
                id="path22292" />
        </g>
        <g id="g22294" transform="matrix(1.333333, 0, 0, -1.333333, 73.922028, 172.420364)">
            <path style="fill:#b96f12;fill-opacity:1;fill-rule:nonzero;stroke:none"
                d="m 0,0 c 0,0 20.326,-12.542 36.977,-1.081 0,0 -1.731,-6.504 -20.543,-5.622 C 2.595,-6.055 0,0 0,0"
                id="path22296" />
        </g>
        <g id="g22298" transform="matrix(1.333333, 0, 0, -1.333333, 59.217743, 171.555313)">
            <path style="fill:#b96f12;fill-opacity:1;fill-rule:nonzero;stroke:none"
                d="M 0,0 C 0,0 8.001,2.595 15.569,-3.46 15.569,-3.46 5.838,1.514 0,0"
                id="path22300" />
        </g>
        <g id="g22302" transform="matrix(1.333333, 0, 0, -1.333333, 143.406952, 166.077286)">
            <path style="fill:#b96f12;fill-opacity:1;fill-rule:nonzero;stroke:none"
                d="m 0,0 c 0,0 -6.055,3.244 -16.434,-6.92 0,0 9.298,7.136 16.434,6.92"
                id="path22304" />
        </g>
        <g id="g22306" transform="matrix(1.333333, 0, 0, -1.333333, 92.662689, 177.033401)">
            <path style="fill:#b96f12;fill-opacity:1;fill-rule:nonzero;stroke:none"
                d="M 0,0 C 0,0 2.811,10.163 14.488,10.38 14.488,10.38 5.622,9.731 0,0"
                id="path22308" />
        </g>
        <g id="g22310" transform="matrix(1.333333, 0, 0, -1.333333, 113.074677, 29.92403)">
            <path style="fill:#62b446;fill-opacity:1;fill-rule:nonzero;stroke:none"
                d="M 0,0 C 0,0 8.25,21 23.5,10.5 23.5,10.5 11,18.5 0,0" id="path22312" />
        </g>
        <g id="g22314" transform="matrix(1.333333, 0, 0, -1.333333, 112.074677, 61.257374)">
            <path style="fill:#62b446;fill-opacity:1;fill-rule:nonzero;stroke:none"
                d="M 0,0 C 0,0 7.75,19.25 24.25,13.5 24.25,13.5 10,16 0,0" id="path22316" />
        </g>
        <g id="g22318" transform="matrix(1.333333, 0, 0, -1.333333, 101.408051, 42.257374)">
            <path style="fill:#62b446;fill-opacity:1;fill-rule:nonzero;stroke:none"
                d="M 0,0 C 0,0 -0.25,25.25 20.75,25 20.75,25 5,26 0,0" id="path22320" />
        </g>
        <g id="g22322" transform="matrix(1.333333, 0, 0, -1.333333, 54.741364, -16.075939)">
            <path style="fill:#62b446;fill-opacity:1;fill-rule:nonzero;stroke:none"
                d="M 0,0 C 0,0 19.25,-4 32,-24 32,-24 23.75,-2 0,0" id="path22324" />
        </g>
        <g id="g22326" transform="matrix(1.333333, 0, 0, -1.333333, 37.741364, 36.92403)">
            <path style="fill:#62b446;fill-opacity:1;fill-rule:nonzero;stroke:none"
                d="M 0,0 C 0,0 28.25,13 49.5,-13.25 49.5,-13.25 33.75,6.5 0,0" id="path22328" />
        </g>
        <g id="g22330" transform="matrix(1.333333, 0, 0, -1.333333, 121.408051, -20.409283)">
            <path style="fill:#62b446;fill-opacity:1;fill-rule:nonzero;stroke:none"
                d="M 0,0 C 0,0 -6.25,-4.25 -9.25,-17 -9.25,-17 -10,-5 0,0" id="path22332" />
        </g>
    </g>
</svg>