<?xml version="1.0" encoding="utf-8"?>
<svg viewBox="0 0 98.4500732421875 98.45006561279297" xmlns="http://www.w3.org/2000/svg">
    <g transform="matrix(1, 0, 0, 1, -229.530975, -101.170006)">
        <path
            d="M280.555,113.358c0,0-1.933-6.669-6.397-8.071s-8.73,0.554-10.213,2.33s-7.426-0.831-11.347,6.113&#10;&#9;&#9;c-4.19,1.281-8.333,4.099-9.659,11.059c-4.155,2.433-4.527,6.001-3.647,9.627c-3.317,1.543-8.757,9.11-4.077,17.617&#10;&#9;&#9;c-2.811,2.392-5.684,9.016-0.201,15.481c-0.639,4.249-1.372,8.596,4.705,12.448c0.239,4.702,2.323,6.849,6.362,6.919&#10;&#9;&#9;c0.664,2.863,3.9,4.975,8.975,4.34c1.921,3.113,10.162,5.457,18.763,0.678c5.418,1.18,15.242,1.842,22.841-7.424&#10;&#9;&#9;c6.611-0.682,9.916-2.609,12.028-5.845c2.112-3.236,1.826-6.303,1.826-6.303s5.977,0.587,9.194-7.393s-2.557-14.532-4.042-15.928&#10;&#9;&#9;c-1.484-1.396-20.883-10.321-24.469-14.44S280.555,113.358,280.555,113.358z"
            fill="#EC1B33" />
        <path
            d="M277.658,119.214c0,0-3.535-11.907-14.761-11.276c-11.226,0.631-10.823,10.71-9.438,12.014&#10;&#9;&#9;C253.459,119.951,264.667,112.401,277.658,119.214z"
            fill="#C51235" />
        <path
            d="M283.543,126.243c0,0-3.983-10.836-17.886-9.739c-13.903,1.097-16.765,8.104-14.623,12.172&#10;&#9;&#9;c2.142,4.068,3.691,4.405,3.691,4.405s6.703-7.125,14.595-6.788C277.211,126.628,281.383,124.771,283.543,126.243z"
            fill="#E6183F" />
        <path
            d="M262.176,144.195c0,0-6.734-0.179-8.422-5.126c-1.689-4.947,3.188-8.94,7.447-11.088&#10;&#9;&#9;c4.26-2.148,19.862-4.258,22.342-1.738c2.48,2.52,2.603,6.553,2.603,6.553S269.827,133.485,262.176,144.195z"
            fill="#C51235" />
        <path
            d="M289.842,137.392c0,0-3.549,6.548-9.915,12.124c-6.366,5.576-12.976,9.43-17.849,4.1&#10;&#9;&#9;c-4.872-5.33,1.33-13.112,7.004-16.169s16.451-5.788,18.524-4.025C289.678,135.187,290.813,134.576,289.842,137.392z"
            fill="#E6183F" />
        <path
            d="M291.419,138.69c0,0,6.431,2.88,2.604,12.896s-13.563,18.579-18.807,13.645s-3.668-9.98-3.668-9.98&#10;&#9;&#9;s7.501-3.016,12.866-9.908C289.778,138.452,289.818,136.624,291.419,138.69z"
            fill="#C51235" />
        <path
            d="M296.594,144.491c0,0,8.294,4.072,8.767,13.285c0.473,9.213-11.316,16.588-15.682,15.28&#10;&#9;&#9;c-4.365-1.309-6.671-7.582-6.671-7.582s5.79-2.387,9.577-10.576c3.787-8.189,2.925-11.239,2.925-11.239L296.594,144.491z"
            fill="#E6183F" />
        <path
            d="M304.865,150.967c0,0,6.152,0.005,8.975,7.512c2.824,7.507-0.97,12.332-5.235,14.288&#10;&#9;&#9;c-4.266,1.956-10.354-2.28-10.354-2.28s7.902-5.623,6.941-11.938C304.231,152.236,303.002,149.775,304.865,150.967z"
            fill="#C51235" />
        <path
            d="M290.659,183.118c0,0,8.009,4.177,14.293-0.916s5.562-9.877,5.562-9.877s-4.172,1.857-7.682,0.234&#10;&#9;&#9;C302.832,172.559,300.738,179.543,290.659,183.118z"
            fill="#E6183F" />
        <path
            d="M287.45,172.451c0,0-3.811,7.421-12.051,8.249c4.016,2.473,8.131,5.038,15.26,2.418&#10;&#9;&#9;c7.129-2.62,11.964-7.958,12.173-10.559c-2.217-0.221-4.284-1.792-4.284-1.792S290.716,175.524,287.45,172.451z"
            fill="#C51235" />
        <path
            d="M275.216,165.231c0,0-3.799,4.633-9.811,6.066c-0.267,3.853,0.985,10.254,9.994,9.403&#10;&#9;&#9;c9.009-0.851,11.795-7.184,12.051-8.249c0,0-4.953-4.847-4.442-6.977C283.008,165.474,279.529,167.983,275.216,165.231z"
            fill="#E6183F" />
        <path
            d="M262.078,153.617c0,0-11.062,6.008-4.537,15.132s16.941-2.343,17.674-3.518c0,0-5.634-5.115-3.68-10.364&#10;&#9;&#9;C271.536,154.867,266.537,157.999,262.078,153.617z"
            fill="#C51235" />
        <path
            d="M253.753,139.069c0,0-12.219,12.195-6.963,17.513c5.256,5.318,8.422,1.954,10.784,0.632&#10;&#9;&#9;c0,0,3.352-3.562,4.504-3.597c0,0-3.952-3.532,0.097-9.422C262.176,144.195,255.07,144.412,253.753,139.069z"
            fill="#E6183F" />
        <path
            d="M250.207,126.778c0,0-4.656,1.776-6.785,7.608s-0.487,12.414,4.6,12.163c0,0,3.572-5.78,5.731-7.479&#10;&#9;&#9;c-0.495-3.637,0.971-5.989,0.971-5.989S251.308,131.358,250.207,126.778z"
            fill="#C51235" />
        <path
            d="M243.541,144.571c0,0-6.383,5-5.684,12.188s5.815,7.896,5.815,7.896s1.466-5.523,3.91-7.328&#10;&#9;&#9;c-2.195-2.624-3.167-6.151,0.44-10.778C245.724,146.811,243.541,144.571,243.541,144.571z"
            fill="#C51235" />
        <path
            d="M257.542,168.749c-4.727-6.872,0.033-11.535,0.033-11.535c-6.104,4.703-9.993,0.112-9.993,0.112&#10;&#9;&#9;c-3.206,5.192-7.587,12.822-1.126,16.662c6.461,3.84,11.394-4.576,11.394-4.576L257.542,168.749z"
            fill="#E6183F" />
        <path
            d="M250.815,175.106c0,0-1.152,3.207,2.009,5.994c3.161,2.787,7.91,4.084,14.235-2.837&#10;&#9;&#9;c0,0-2.532-4.248-2.009-5.994c0,0-4.609,0.141-6.396-1.727C258.654,170.542,254.505,176.339,250.815,175.106z"
            fill="#C51235" />
        <path
            d="M259.622,183.392c0,0-1.058,6.28,7.404,6.406s12.418-5.665,13.262-6.363l-4.889-2.734&#10;&#9;&#9;c0,0-5.529,1.514-8.34-2.437C264.83,180.83,262.014,183.03,259.622,183.392z"
            fill="#E6183F" />
        <path
            d="M271.716,189.174c0,0,5.431,4.736,13.531,2.471c8.101-2.265,10.183-6.462,10.183-6.462&#10;&#9;&#9;disposable-3.963-0.744-5.244-1.762c-1.996,0.734-7.746,1.293-9.899,0.013C278.153,185.902,274.498,188.993,271.716,189.174z"
            fill="#C51235" />
        <path
            d="M240.064,162.939c0,0-7.565,4.075-5.16,10.442c2.405,6.366,4.989,5.999,4.989,5.999&#10;&#9;&#9;s2.915-5.279,5.289-6.216c0,0-3.731-2.577-1.509-8.508C243.672,164.655,241.059,164.062,240.064,162.939z"
            fill="#E6183F" />
        <path
            d="M253.226,181.664c0,0-6.144,9.703-11.814,3.436s3.769-11.937,3.769-11.937s2.963,2.601,5.634,1.943&#10;&#9;&#9;C249.727,177.253,250.95,179.523,253.226,181.664z"
            fill="#C51235" />
        <path
            d="M260.717,187.779c0,0-8.193,8.708-14.637-0.899c0,0,3.189,0.576,7.146-5.216c0,0,3.062,2.694,6.396,1.727&#10;&#9;&#9;C259.622,183.392,258.825,185.627,260.717,187.779z"
            fill="#C51235" />
        <path
            d="M271.716,189.174c0,0-6.751,2.416-11-1.395c0,0-2.601,2.963-5.662,3.441c0,0,6.438,6.243,18.763,0.678&#10;&#9;&#9;C273.818,191.898,275.93,191.833,271.716,189.174z"
            fill="#E6183F" />
        <path
            d="M278.147,119.487c0,0-2.597-9.532-11.979-11.457s-15.713,4.804-12.708,11.921c0,0,0.004-9.323,7.564-10.419&#10;&#9;&#9;C268.583,108.437,275.125,114.966,278.147,119.487z"
            fill="#800017" />
        <path
            d="M282.949,125.684c0,0-4.693-12.064-19.521-9.785c-14.828,2.278-16.153,12.411-8.703,17.182&#10;&#9;&#9;c0,0-6.031-8.659,2.186-13.427C265.127,114.886,276.726,117.031,282.949,125.684z"
            fill="#800017" />
        <path
            d="M286.145,132.796c0,0-0.548-5.366-4.18-7.85s-13.496-1.319-19.746,1.755&#10;&#9;&#9;c-6.25,3.074-10.217,11.653-6.958,14.533c3.26,2.88,6.146,2.984,6.146,2.984s-7.683-2.938-5.815-7.896&#10;&#9;&#9;c1.867-4.959,10.84-10.134,16.579-11.078S283.996,125.364,286.145,132.796z"
            fill="#800017" />
        <path
            d="M288.294,140.227c0,0,2.601-2.963,0.104-6.058c-2.497-3.096-13.56-0.259-18.955,2.5&#10;&#9;&#9;disposable-12.738,10.961-7.673,16.285c0,0-3.167-6.151,3.763-12.129s19.07-8.174,21.049-6.312&#10;&#9;&#9;C288.561,136.374,288.94,139.342,288.294,140.227z"
            fill="#800017" />
        <path
            d="M285.513,143.58c0,0-8.902,10.652-17.312,12.254C268.201,155.833,279.253,155.785,285.513,143.58z"
            fill="#800017" />
        <path
            d="M289.114,138.76c0,0,1.816-0.344,4.208,2.467s1.078,10.155-3.71,17.029&#10;&#9;&#9;c-4.788,6.874-11.551,8.906-15.095,6.131s-3.034-8.077-3.034-8.077s-2.007,6.693,2.976,9.329s10.604,1.022,16.44-6.172&#10;&#9;&#9;C296.735,152.272,298.432,138.572,289.114,138.76z"
            fill="#800017" />
        <path
            d="M296.926,145.923c0,0,9.842,4.41,6.341,15.666s-14.524,12.265-17.999,8.622c0,0,5.996,7.506,15.533-1.242&#10;&#9;&#9;C310.337,160.22,303.619,147.93,296.926,145.923z"
            fill="#800017" />
        <path
            d="M304.865,150.967c0,0,10.878,3.705,9.099,14.717s-14.315,6.492-14.444,5.438c0,0,5,3.212,11.11-1.3&#10;&#9;&#9;C316.74,165.311,311.919,155.366,304.865,150.967z"
            fill="#800017" />
        <path
            d="M309.443,171.877c0,0,2.008,2.822-2.629,8.346c-4.637,5.524-15.259,3.925-16.627,3.198&#10;&#9;&#9;c0,0,5.576,3.194,12.716,0.958c7.14-2.236,9.525-9.133,8.565-12.275L309.443,171.877z"
            fill="#800017" />
        <path
            d="M312.465,148.044c0,0,9.01,5.492,7.103,15.45c-1.907,9.958-9.374,7.783-9.374,7.783l-2.089,0.833&#10;&#9;&#9;c0,0,3.812,2.094,8.334-0.927C320.96,168.162,325.572,155.526,312.465,148.044z"
            fill="#800017" />
        <path
            d="M264.445,108.275c0,0,5.912-4.698,10.516-1.858s8.191,13.303,8.191,13.303s-1.317-11.686-8.534-15.118&#10;&#9;&#9;c-7.217-3.432-13.524,4.065-13.524,4.065L264.445,108.275z"
            fill="#800017" />
        <path
            d="M253.487,114.568c0,0-4.103,0.99-6.517,3.755c-2.415,2.765-4.393,7.246-1.464,11.867&#10;&#9;&#9;c0,0-5.588-6.75-0.485-12.769c5.103-6.019,9.177-4.797,9.177-4.797L253.487,114.568z"
            fill="#800017" />
        <path
            d="M251.098,127.616c0,0-4.202,0.897-6.418,7.02s0.427,10.848,2.662,11.645c0,0-5.046-1.576-5.326-7.623&#10;&#9;&#9;c-0.28-6.047,3.531-10.296,8.745-12.665L251.098,127.616z"
            fill="#800017" />
        <path
            d="M254.446,139.721c0,0-5.179,3.522-6.627,9.621c-1.448,6.099,1.486,10.912,7.236,10.352&#10;&#9;&#9;c0,0-4.452,2.154-8.265-3.112s0.644-13.572,7.591-18.974L254.446,139.721z"
            fill="#800017" />
        <path
            d="M262.078,153.617c0,0-10.555,10.029-3.169,15.859c7.386,5.83,14.91-2.761,15.55-3.838l1.449,0.244&#10;&#9;&#9;c0,0-9.391,10.378-17.255,4.659c-7.864-5.719-1.72-15.422,2.418-18.432L262.078,153.617z"
            fill="#800017" />
        <path
            d="M302.157,172.484l1.344-0.041c0,0-8.372,12.27-18.586,11.428&#10;&#9;&#9;C284.915,183.87,292.696,183.729,302.157,172.484z"
            fill="#800017" />
        <path
            d="M243.314,143.424c0,0-7.693,6.194-6.242,12.781c1.45,6.588,6.601,8.449,6.601,8.449&#10;&#9;&#9;disposable-6.059-3.275-5.298-9.834c0.761-6.559,6.231-9.994,6.231-9.994L243.314,143.424z"
            fill="#800017" />
        <path
            d="M247.372,156.757c0,0-8.704,10.838-1.982,16.977c0,0-3.935-6.128,2.977-15.854L247.372,156.757z"
            fill="#800017" />
        <path
            d="M257.85,169.413c0,0-4.282,7.724-9.823,5.682c0,0,4.534,3.706,10.626-4.553L257.85,169.413z"
            fill="#800017" />
        <path
            d="M267.059,178.263c0,0-7.436,8.3-14.607,3.233c0,0,6.543,6.529,15.207-2.482L267.059,178.263z"
            fill="#800017" />
        <path
            d="M275.987,181.067c0,0,7.595,3.229,14.416-0.055s9.322-6.339,9.322-6.339s-5.504,8.626-14.81,9.198&#10;&#9;&#9;disposable-10.354-2.28-10.354-2.28L275.987,181.067z"
            fill="#E6183F" />
        <path
            d="M260.88,155.288c0,0-7.46,7.532-2.483,13.147c4.977,5.615,10.511,1.121,10.511,1.121&#10;&#9;&#9;disposable-4.557,1.869-7.968-2.833C257.529,162.022,260.88,155.288,260.88,155.288z"
            fill="#E6183F" />
        <path
            d="M249.509,129.106c0,0-8.885,8.056-2.703,15.365C246.806,144.471,244.825,136.266,249.509,129.106z"
            fill="#E6183F" />
        <path
            d="M268.953,126.88c0,0-14.793,6.602-13.005,11.642c0,0,0.658,2.671,4.837,4.178c0,0-5.605-4.154-1.957-7.437&#10;&#9;&#9;C262.476,131.979,268.953,126.88,268.953,126.88z"
            fill="#E6183F" />
        <path
            d="M290.578,152.076c0,0-2.007,6.693-7.68,9.749c-5.674,3.056-9.155-0.778-9.266-4.427&#10;&#9;&#9;c0,0-2.42,5.745,3.592,7.484S289.904,158.344,290.578,152.076z"
            fill="#E6183F" />
        <path
            d="M311.268,159.23c0,0,1.887,5.133-2.798,9.12c-4.684,3.987-7.915,2.067-7.915,2.067s3.481,3.835,9.416-0.095&#10;&#9;&#9;C315.908,166.394,311.268,159.23,311.268,159.23z"
            fill="#E6183F" />
        <path
            d="M287.45,172.451c0,0-4.521,6.193-11.685,7.661s-10.052-4.98-10.361-8.815c0,0-1.768,5.052,3.93,9.107&#10;&#9;&#9;c5.698,4.055,16.103-1.452,19.477-7.418L287.45,172.451z"
            fill="#800017" />
        <path
            d="M242.938,124.789c0,0-6.051,6.432-1.063,12.431l0.757,2.764c0,0-6.688-4.986-4.163-10.446&#10;&#9;&#9;C240.994,124.08,242.938,124.789,242.938,124.789z"
            fill="#800017" />
        <path
            d="M239.413,135.277c0,0-9.403,9.994-2.249,17.658l0.047,1.536c0,0-6.472-4.224-5.147-11.185&#10;&#9;&#9;s6.639-9.237,6.639-9.237L239.413,135.277z"
            fill="#800017" />
        <path
            d="M235.429,152.796c0,0-3.456,3.277-2.652,7.578s3.115,7.594,3.115,7.594s-5.157-2.053-5.152-8.205&#10;&#9;&#9;c0.005-6.152,3.502-8.084,3.502-8.084L235.429,152.796z"
            fill="#800017" />
        <path
            d="M274.189,181.986c0,0,6.798,2.292,10.726,1.884l-5.36,0.74c0,0-8.618,7.375-14.95,4.589&#10;&#9;&#9;c-6.332-2.787-4.983-5.807-4.983-5.807s0.775,3.34,5.437,4.928s12.372-4.029,12.372-4.029S275.202,183.686,274.189,181.986z"
            fill="#800017" />
        <path
            d="M245.042,174.897c0,0-5.644,4.017-3.496,8.276c2.148,4.26,6.879,1.809,6.879,1.809&#10;&#9;&#9;disposable-4.708,0.047-5.855-2.897C241.423,179.141,245.042,174.897,245.042,174.897z"
            fill="#E6183F" />
        <path
            d="M248.105,187.107c0,0,4.15,3.718,10.115,0.749C258.22,187.856,250.231,193.77,248.105,187.107z"
            fill="#E6183F" />
        <path
            d="M256.847,190.108c0,0,6.839,3.636,14.13,0.05C270.977,190.158,261.853,196.684,256.847,190.108z"
            fill="#C51235" />
        <path
            d="M239.848,162.176c0,0-6.732,6.164-2.302,12.757C237.546,174.934,234.507,169.836,239.848,162.176z"
            fill="#C51235" />
        <path
            d="M239.342,161.327c0,0-8.222,7.358-4.554,14.556c2.556,5.016,5.373,5.988,5.373,5.988l0.227-2.025&#10;&#9;&#9;c0,0-3.969-0.936-4.931-7.251C234.495,166.28,239.342,161.327,239.342,161.327z"
            fill="#800017" />
        <path
            d="M244.53,145.502c0,0-6.029,4.028-5.818,10.942c0,0,0.123,4.033,3.674,7.001&#10;&#9;&#9;C242.386,163.444,237.321,154.948,244.53,145.502z"
            fill="#E6183F" />
        <path
            d="M248.321,159.515c0,0-4.486,7.345,0.223,10.47c4.709,3.124,8.549-0.164,8.549-0.164&#10;&#9;&#9;disposable-5.434,7.759-10.364,3.68C241.799,169.421,248.321,159.515,248.321,159.515z"
            fill="#C51235" />
        <path
            d="M260.99,184.119c0,0,4.22,6.023,13.106,1.138C274.096,185.257,266.094,187.616,260.99,184.119z"
            fill="#C51235" />
        <path
            d="M267.663,172.862c0,0-0.203,2.794,3.609,4.888c3.812,2.094,9.422,0.097,14.362-4.955&#10;&#9;&#9;c0,0-7.74,4.657-11.849,2.283c-4.109-2.374-4.081-4.585-4.081-4.585S267.325,171.239,267.663,172.862z"
            fill="#C51235" />
        <path
            d="M283.626,166.801c0,0,3.807,5.074,9.365,4.52c5.558-0.554,9.822-8.854,9.903-12.508&#10;&#9;&#9;C302.893,158.813,294.05,174.557,283.626,166.801z"
            fill="#C51235" />
        <path
            d="M295.431,185.184c0,0-5.051,4.575-11.563,5.35c-6.512,0.775-12.466-2.215-12.466-2.215&#10;&#9;&#9;s1.694,5.139,10.709,4.479c9.015-0.659,15.916-7.598,15.916-7.598L295.431,185.184z"
            fill="#800017" />
        <path
            d="M246.08,186.88c0,0,0.833,2.089,4.715,3.316c3.882,1.227,7.181-0.892,10.394-2.72&#10;&#9;&#9;c0,0-5.702,5.268-10.731,4.268c-5.028-1-6.595-5.085-6.595-5.085L246.08,186.88z"
            fill="#800017" />
        <path
            d="M253.512,191.075c0,0,3.638,5.848,12.438,4.427c8.799-1.422,9.2-4.029,9.2-4.029s-5.959,3.161-10.778,2.731&#10;&#9;&#9;c-4.819-0.43-8.468-3.49-8.468-3.49L253.512,191.075z"
            fill="#800017" />
        <path
            d="M251.532,116.646c0,0-7.227,5.699-5.608,11.513C245.924,128.158,240.912,121.391,251.532,116.646z"
            fill="#BE1227" />
        <path
            d="M242.153,127.408c0,0-3.16,3.556-1.011,7.816C241.141,135.225,240.151,131.122,242.153,127.408z"
            fill="#BE1227" />
        <path
            d="M238.337,137.809c0,0-5.813,4.791-1.825,12.647C236.512,150.456,234.503,144.462,238.337,137.809z"
            fill="#BE1227" />
        <path
            d="M235.36,153.663c0,0-4.306,3.784-0.423,11.354C234.937,165.017,232.759,159.797,235.36,153.663z"
            fill="#BE1227" />
        <path
            d="M266.738,107.82c0,0,4.696-3.603,8.771,0.79C275.508,108.61,271.859,105.55,266.738,107.82z"
            fill="#BE1227" />
        <path
            d="M315.393,152.665c0,0,6.009,14.234-2.918,17.774c0,0,4.307-0.612,5.755-6.711&#10;&#9;&#9;C319.677,157.628,315.393,152.665,315.393,152.665z"
            fill="#BE1227" />
        <path
            d="M304.108,148.203c0,0,9.604,6.051,10.204,13.145c0.601,7.094-3.449,9.813-3.449,9.813&#10;&#9;&#9;s5.709-1.904,5.486-9.202C316.127,154.661,304.108,148.203,304.108,148.203z"
            fill="#BE1227" />
        <path
            d="M289.842,137.392c0,0,4.324-0.036,6.659,4.026c0,0,3.579,0.756,5.617,4.538c0,0,6.804,2.484,9.231,6.447&#10;&#9;&#9;c0,0-4.4-2.461-7.927-1.488c0,0-4.383-5.057-7.468-5.347c0,0-2.702-6.646-6.839-6.808L289.842,137.392z"
            fill="#BE1227" />
        <path
            d="M307.738,175.87c0,0-5.498,8.818-15.753,6.632C291.986,182.501,301.705,182.878,307.738,175.87z"
            fill="#800017" />
        <path
            d="M250.763,145.023c0,0-4.689,6.967-1.575,11.39C249.188,156.413,247.22,151.763,250.763,145.023z"
            fill="#800017" />
        <path
            d="M264.227,129.523c0,0-8.135,4.285-7.442,8.108s2.934,4.812,2.934,4.812s-4.47-1.594-3.732-5.749&#10;&#9;&#9;S264.227,129.523,264.227,129.523z"
            fill="#800017" />
        <path
            d="M264.562,143.642c0,0-4.76,4.662-2.041,8.713c2.719,4.05,10.039,1.424,10.039,1.424&#10;&#9;&#9;disposable-7.554,1.288-9.382-1.925C261.35,148.641,264.562,143.642,264.562,143.642z"
            fill="#800017" />
        <path
            d="M273.631,157.398c0,0-0.826,4.446,3.347,5.761c4.173,1.315,8.927-3.54,8.927-3.54s-5.348,4.296-8.368,2.946&#10;&#9;&#9;C274.517,161.216,273.631,157.398,273.631,157.398z"
            fill="#800017" />
        <path
            d="M284.679,166.673c0,0,4.837,4.178,9.94,1.331C294.619,168.004,290.046,172.468,284.679,166.673z"
            fill="#800017" />
        <path
            d="M266.871,172.117c0,0-0.052,4.615,4.238,6.599c4.29,1.984,8.631-0.648,8.631-0.648&#10;&#9;&#9;disposable-5.232,1.793-8.468-0.319S266.871,172.117,266.871,172.117z"
            fill="#800017" />
        <path
            d="M278.303,181.38c0,0,8.794,1.558,14.537-2.365C292.84,179.015,287.639,184.94,278.303,181.38z"
            fill="#800017" />
        <path
            d="M274.853,188.021c0,0,7.043,4.014,16.225-0.591C291.079,187.431,284.136,189.853,274.853,188.021z"
            fill="#800017" />
        <path
            d="M256.201,190.993c0,0,4.639,3.992,11.873,1.657C268.074,192.649,262.342,193.785,256.201,190.993z"
            fill="#800017" />
        <path
            d="M260.701,133.667c0,0-4.021,3.679-1.792,4.284C261.139,138.556,258.653,135.844,260.701,133.667z"
            fill="#FFFFFF" />
        <path
            d="M266.116,144.171c0,0-4.114,3.778-2.542,4.883C265.145,150.16,263.887,146.738,266.116,144.171z"
            fill="#FFFFFF" />
        <path
            d="M276.123,160.302c0,0,2.038,3.783,6.827,0.08C282.949,160.382,280.034,162.489,276.123,160.302z"
            fill="#FFFFFF" />
        <path d="M298.803,163.359c0,0-1.902,3.806-4.556,5.041S297.367,169.842,298.803,163.359z"
            fill="#FFFFFF" />
        <path
            d="M259.222,160.817c0,0-2.438,5.168,0.781,6.704C263.222,169.057,257.902,164.798,259.222,160.817z"
            fill="#FFFFFF" />
        <path
            d="M271.79,175.812c0,0,4.424,3.229,8.922-0.56C280.711,175.252,275.503,177.813,271.79,175.812z"
            fill="#FFFFFF" />
        <path
            d="M249.821,148.801c0,0-1.931,6.018,2.929,7.792C252.75,156.593,248.937,154.498,249.821,148.801z"
            fill="#FFFFFF" />
        <path
            d="M253.405,178.103c0,0,1.543,3.317,3.62,2.1C259.103,178.986,255.117,180.645,253.405,178.103z"
            fill="#FFFFFF" />
        <path
            d="M245.867,167.279c0,0-0.564,3.573,2.329,3.87C251.088,171.445,245.763,170.166,245.867,167.279z"
            fill="#FFFFFF" />
        <path
            d="M280.645,113.298c0,0,7.55-2.251,9.703,5.204c2.154,7.456-2.232,12.003-2.232,12.003l-1.593-0.403&#10;&#9;&#9;c0,0-0.933-3.73-3.437-6.711l-2.95-3.694C280.137,119.697,280.755,116.707,280.645,113.298z"
            fill="#800017" />
        <path
            d="M290.349,118.502c0,0,5.411-1.378,9.969,6.269c4.558,7.646-6.379,13.026-6.379,13.026&#10;&#9;&#9;disposable-1.781-1.676-3.37-1.772c0,0-1.79-3.656-4.045-5.923C286.524,130.102,290.043,123.498,290.349,118.502z"
            fill="#800017" />
        <path
            d="M316.874,152.379c0,0,3.901-4.444-1.189-10.633c0,0-3.739-13.871-14.083-12.69c0,0-6.677,7.989-8.99,7.771&#10;&#9;&#9;c0,0,3.946,1.754,4.156,3.91c0,0,5.072,0.855,6.609,3.98C303.377,144.717,310.282,144.218,316.874,152.379z"
            fill="#800017" />
        <path
            d="M283.127,114.193c0,0,5.622-0.027,5.649,5.595s-2.522,7.141-2.522,7.141S289.85,117.16,283.127,114.193z"
            fill="#EC1B33" />
        <path d="M279.452,111.854c0,0,4.802,6.197,3.983,12.422l-4.933-5.761L279.452,111.854z"
            fill="#EC1B33" />
        <path
            d="M295.772,136.443c0,0,7.104-8.146,13.303-3.433c6.199,4.713,5.021,8.641,5.021,8.641&#10;&#9;&#9;disposable-2.245-7.429-7.753-8.414C300.834,132.252,295.772,136.443,295.772,136.443z"
            fill="#EC1B33" />
        <path
            d="M301.997,142.02c0,0,7.489-4.986,13.339,2.477C315.336,144.497,309.556,139.339,301.997,142.02z"
            fill="#EC1B33" />
        <path
            d="M290.95,120.154c0,0,2.148,4.26-2.609,9.018c0,0,1.598,0.384,1.677,2.977&#10;&#9;&#9;C290.018,132.149,294.836,124.649,290.95,120.154z"
            fill="#C51235" />
        <path
            d="M301.814,140.728c0,0,5.386-3.048,9.934-0.447C311.748,140.281,306.666,134.381,301.814,140.728z"
            fill="#C51235" />
        <path
            d="M282.115,114.08c0,0,3.126,3.221,2.14,8.729C284.255,122.809,287.824,116.933,282.115,114.08z"
            fill="#C51235" />
        <path
            d="M304.782,143.521c0,0,8.183,0.423,10.884,5.483C315.666,149.004,313.826,142.236,304.782,143.521z"
            fill="#C51235" />
        <path
            d="M297.123,124.003c0,0,3.065,5.962-2.556,10.747C294.567,134.749,305.05,128.663,297.123,124.003z"
            fill="#EC1B33" />
    </g>
</svg>