<?xml version="1.0" encoding="utf-8"?>
<svg viewBox="0 0 367 553" xmlns="http://www.w3.org/2000/svg">
    <g transform="matrix(1, 0, 0, 1, -114.675941, -109.310867)">
        <polygon fill="#ED1C25" opacity="0.6"
            points="411.766 380.43 403.434 385.99 408.481 394.176 398.677 395.345 399.223 405.1 390.196 401.613 386.118 410.701 379.932 403.358 372.163 409.698 370.231 400.178 360.551 402.32 363.327 392.805 353.952 390.254 360.794 382.927 353.87 376.268 363.209 372.802 360.328 363.564 370.027 364.76 371.845 355.054 379.682 360.632 385.781 352.686 389.962 361.371 398.946 357.003 398.511 366.805 408.323 367.017 403.372 375.69"
            transform="matrix(0.816204, -0.577764, 0.577764, 0.816204, -150.168273, 291.332262)" />
        <polygon fill="none" opacity="0.7"
            points="419.227 380.106 408.769 387.084 415.106 397.359 402.797 398.828 403.488 411.071 392.15 406.695 387.031 418.104 379.264 408.885 369.511 416.844 367.096 404.894 354.939 407.582 358.426 395.639 346.654 392.437 355.245 383.235 346.553 374.882 358.28 370.53 354.658 358.935 366.835 360.432 369.117 348.252 378.956 355.252 386.613 345.279 391.858 356.18 403.137 350.698 402.588 363.003 414.908 363.266 408.69 374.155"
            stroke="#ED1C25" stroke-miterlimit="10"
            transform="matrix(0.816205, -0.577763, 0.577763, 0.816205, -150.15376, 291.372597)" />
        <polygon fill="none"
            points="426.142 379.724 413.735 388.001 421.253 400.184 406.658 401.928 407.477 416.447 394.032 411.259 387.962 424.789 378.751 413.857 367.185 423.293 364.313 409.122 349.901 412.308 354.036 398.145 340.075 394.35 350.262 383.439 339.955 373.53 353.862 368.37 349.568 354.617 364.01 356.393 366.714 341.95 378.38 350.25 387.462 338.422 393.684 351.35 407.06 344.849 406.408 359.441 421.02 359.754 413.647 372.668"
            stroke="#ED1C25" stroke-miterlimit="10"
            transform="matrix(0.816205, -0.577762, 0.577762, 0.816205, -150.074892, 291.44807)" />
    </g>
</svg>