<?xml version="1.0" encoding="utf-8"?>
<svg viewBox="0 0 116.15499877929688 145.93142700195312" xmlns="http://www.w3.org/2000/svg">
    <g transform="matrix(1, 0, 0, 1, -318.067749, -81.946899)">
        <g>
            <g>
                <g>
                    <g>
                        <path
                            d="M354.669,178.38c0,0-33.873-56.184-1.486-64.733s35.741-4.539,46.8-0.86&#10;&#9;&#9;&#9;&#9;&#9;&#9;c11.059,3.679,18.435,13.756,16.21,24.95C407.06,183.675,381.558,226.768,354.669,178.38z"
                            fill="#EC1C24" />
                    </g>
                    <path
                        d="M351.875,130.5c0,0-6.375,2.875-0.125,21.5s15.875,40.25,23.875,43.875c0,0-7.25,0.625-12.625-5.625&#10;&#9;&#9;&#9;&#9;&#9;disposable-16.875-24.375-21.75-43.75s1.625-28.375,5.625-30.875L351.875,130.5z"
                        fill="#CD181F" />
                    <path
                        d="M351.125,119.625c0,0-12.25,10.75-3,34.25s19.25,42.125,28.75,43.875c0,0-7,1.375-14.375-8.125&#10;&#9;&#9;&#9;&#9;&#9;disposable-19.113-29.651-22-44.5c-3.5-18,0-28.5,10.875-32.375L351.125,119.625z"
                        fill="#B21217" />
                    <path
                        d="M380.5,118.25c0,0,20.25,2.5,19.75,18.75s-10.75,54.75-20,56.75s-17.25-3.5-17.25-3.5s5.75,9.5,18,8.75&#10;&#9;&#9;&#9;&#9;&#9;s22.75-22,30.25-44.75S417.5,121.75,398,113S380.5,118.25,380.5,118.25z"
                        fill="#CD181F" />
                    <path
                        d="M402.25,117.25c0,0,8.375,4.75,6,18.875s-10.125,49.75-19.875,57.125s-20.875,1.375-20.875,1.375&#10;&#9;&#9;&#9;&#9;&#9;s9.75,7.875,18.125,3S401.25,184.5,410,160.25s7.97-34.708,0.5-40.25C406.625,117.125,402.25,117.25,402.25,117.25z"
                        fill="#B21217" />
                    <path
                        d="M347,120.5c0,0-7.5,5.25-5.5,20s10.125,30.75,13.875,37.625c0,0-13.75-19.375-15.5-38.25&#10;&#9;&#9;&#9;&#9;&#9;s4.692-23.522,9-24.875L347,120.5z"
                        fill="#97080C" />
                    <path
                        d="M404.125,116.5c0,0,8.125,5.125,9.125,16.5s-7.75,39.375-15.875,52.25s-14.5,13.875-17.5,14.125&#10;&#9;&#9;&#9;&#9;&#9;c0,0,7.625,1.625,18.625-13.75s18.375-45.75,18-52.875S411.5,117.875,404.125,116.5z"
                        fill="#97080C" />
                    <path
                        d="M341.25,123c0,0,4.25-0.75,6.125,0.625c0,0-5.625,7.125-3.125,15.875c0,0,3.75-6.625,16.25-12.875&#10;&#9;&#9;&#9;&#9;&#9;c0,0-2.5,6.75,1.375,12.25c0,0,1.625-12.25,15.75-15.75c0,0,8.375,1,10,9.375c0,0,1-7.125-3.25-11.125&#10;&#9;&#9;&#9;&#9;&#9;c0,0,12.625,4.75,15.625,11.75c0,0,4.625-11,1.875-15.25c0,0,8.25,0.875,12.375,7.625c0,0-2-8-14.75-12.625&#10;&#9;&#9;&#9;&#9;&#9;S350,111.25,341.25,123z"
                        fill="#B21217" />
                    <path
                        d="M384.625,120.375c0,0,9.828,4.308,14.351,8.217c0,0-7.976-9.467-15.851-10.592L384.625,120.375z"
                        fill="#97080C" />
                    <path
                        d="M348.75,132.25c0,0,7.375-4.875,11.75-5.625c0,0,0.5,4.25,2.375,6c0,0-0.75-6.875,2.625-10.5&#10;&#9;&#9;&#9;&#9;&#9;C365.5,122.125,353.125,127.125,348.75,132.25z"
                        fill="#97080C" />
                    <g>
                        <path
                            d="M364.62,115.063c0,0,10.137,5.731,21.593,2.033c11.457-3.698-6.829-6.107-11.485-5.801&#10;&#9;&#9;&#9;&#9;&#9;&#9;S359.497,111.875,364.62,115.063z"
                            fill="#F9B9A2" />
                    </g>
                    <g>
                        <path
                            d="M369.271,111.742c-3.108,0.966,7.384,3.762,13.33,1.696&#10;&#9;&#9;&#9;&#9;&#9;&#9;C388.546,111.372,373.802,110.333,369.271,111.742z"
                            fill="#93983C" />
                    </g>
                    <path
                        d="M348,123.667c0,0-7.5,6.167-3.833,21.667C347.833,160.833,358,179.5,361,184.5&#10;&#9;&#9;&#9;&#9;&#9;c0,0-15.833-23.167-18.667-41.667c-2.833-18.5,5.5-22.667,5.5-22.667L348,123.667z"
                        fill="#97080C" />
                    <path
                        d="M402.25,117.25c0,0,10.917,3.25,10.417,21.25S396.5,185.167,396.5,185.167s14-27.5,14.5-46.167&#10;&#9;&#9;&#9;&#9;&#9;S402.25,117.25,402.25,117.25z"
                        fill="#97080C" />
                    <path
                        d="M349.167,125.5c0,0-7.167,8.5-0.333,29c6.833,20.5,11.667,27.333,11.667,27.333&#10;&#9;&#9;&#9;&#9;&#9;disposable-12.333-19.5-15.333-34.833S349.167,125.5,349.167,125.5z"
                        fill="#B21217" />
                    <path
                        d="M404,121.167c0,0,11.625,9.917,2.5,37C406.5,158.167,413.5,135.5,404,121.167z"
                        fill="#B21217" />
                    <path
                        d="M350.5,131.167c0,0-5.667,9,2.833,30.5C353.333,161.667,342,143,350.5,131.167z"
                        fill="#B21217" />
                </g>
                <g>
                    <ellipse cx="404.956" cy="121.578" fill="#B21217" rx="2.625" ry="4.438"
                        transform="matrix(0.981 -0.1942 0.1942 0.981 -15.8995 80.9441)" />
                    <ellipse cx="404.956" cy="121.578" fill="#CD181F" rx="1.996" ry="3.375"
                        transform="matrix(0.981 -0.1942 0.1942 0.981 -15.8995 80.9441)" />
                    <ellipse cx="405.256" cy="122.347" fill="#D89315" rx="1.516" ry="2.563"
                        transform="matrix(0.981 -0.1942 0.1942 0.981 -16.0431 81.0168)" />
                    <ellipse cx="405.131" cy="122.722" fill="#231F20" rx="1.141" ry="1.929"
                        transform="matrix(0.981 -0.1942 0.1942 0.981 -16.1183 80.9997)" />
                    <ellipse cx="405.256" cy="122.347" fill="#E2D100" rx="1.141" ry="1.929"
                        transform="matrix(0.981 -0.1942 0.1942 0.981 -16.0431 81.0168)" />
                </g>
                <g>
                    <ellipse cx="381.076" cy="123.231" fill="#B21217" rx="2.625" ry="4.438"
                        transform="matrix(0.981 -0.1942 0.1942 0.981 -16.6751 76.3386)" />
                    <ellipse cx="381.076" cy="123.231" fill="#CD181F" rx="1.996" ry="3.375"
                        transform="matrix(0.981 -0.1942 0.1942 0.981 -16.6751 76.3386)" />
                    <ellipse cx="381.375" cy="124" fill="#D89315" rx="1.516" ry="2.563"
                        transform="matrix(0.981 -0.1942 0.1942 0.981 -16.8187 76.4114)" />
                    <ellipse cx="381.533" cy="124.169" fill="#231F20" rx="1.238" ry="1.929"
                        transform="matrix(0.981 -0.1942 0.1942 0.981 -16.8484 76.4453)" />
                    <ellipse cx="381.375" cy="124" fill="#E2D100" rx="1.141" ry="1.929"
                        transform="matrix(0.981 -0.1942 0.1942 0.981 -16.8187 76.4114)" />
                </g>
                <path
                    d="M335.049,127.389c0,0,0.2-9.619,8.617-11.022c0,0-3.607-5.01-8.818-2.405c0,0,6.814-10.02,23.848-8.417&#10;&#9;&#9;&#9;&#9;c0,0,9.419,3.006,10.822-0.601c1.403-3.607-4.81-17.635-7.415-18.637c0,0,6.212-3.607,9.218-0.802c0,0,5.611,9.82,4.609,18.838&#10;&#9;&#9;&#9;&#9;c0,0,0,2.806,3.407,1.603s11.022-8.016,23.447-6.613c0,0-4.81,2.605-5.01,5.411c0,0,11.623-4.208,18.437,1.202&#10;&#9;&#9;&#9;&#9;c0,0-7.615,2.806-9.419,4.008c0,0,8.617,4.609,9.82,11.824c0,0-12.625-5.411-17.034-6.012c0,0,3.006,6.413-0.601,12.826&#10;&#9;&#9;&#9;&#9;c0,0-10.421-8.818-14.429-9.419c0,0,1.603,3.206,1.603,5.411c0,0-5.812-4.409-6.814-4.409c0,0-14.629,6.413-16.232,13.226&#10;&#9;&#9;&#9;&#9;c0,0-2.004-6.814,0.401-9.419c0,0-18.637,8.016-19.439,14.429c0,0-0.802-11.824,6.413-16.232&#10;&#9;&#9;&#9;&#9;C350.479,122.179,337.854,120.976,335.049,127.389z"
                    fill="#00A551" />
                <path
                    d="M368,85c0,0,4.625,3.875,5.875,12.375s0.625,9.75,0.125,12.5c0,0,2.25-0.375,3-2&#10;&#9;&#9;&#9;&#9;c0,0-0.432-3.121-0.625-6.5c-0.25-4.375-0.952-7.342-2.125-10.625c-1.25-3.5-3.375-5.375-3.375-5.375S369.375,84.25,368,85z"
                    fill="#007035" />
                <path
                    d="M367.875,95.625c0,0,4.125,8.625,2,13.625c0,0-1.75-1.5-1.125-3.125&#10;&#9;&#9;&#9;&#9;C368.75,106.125,371.25,104.75,367.875,95.625z"
                    fill="#007035" />
                <path
                    d="M344.375,137.375c0,0,0.125-5,8.625-9.125s11.5-4.625,13.625-7.875c0,0-2.206,3.691-7.75,6.25&#10;&#9;&#9;&#9;&#9;C352.375,129.625,346.625,132.375,344.375,137.375z"
                    fill="#007035" />
                <path
                    d="M335.375,126.25c0,0,2.875-3.75,8.125-4s8.25-0.125,10.75-2.5c0,0-3.25,1-6.625,0.875&#10;&#9;&#9;&#9;&#9;S337.875,121.25,335.375,126.25z"
                    fill="#007035" />
                <path
                    d="M334.848,113.962c0,0,4.006-4.729,10.402-2.087c5.75,2.375,10.625,0.75,13.375,0.25c0,0-5,4-14.959,4.242&#10;&#9;&#9;&#9;&#9;C343.666,116.367,339.197,112.55,334.848,113.962z"
                    fill="#007035" />
                <path
                    d="M402.784,99.333c0,0-6.784,0.792-10.284,4.042s-7.375,5.125-7.375,5.125s11.673-2.887,12.649-3.756&#10;&#9;&#9;&#9;&#9;C397.774,104.744,398.568,101.916,402.784,99.333z"
                    fill="#007035" />
                <path
                    d="M388.875,110.125c0,0,12.671-6.232,27.336-4.179c0,0-8.752,3.462-9.419,4.008&#10;&#9;&#9;&#9;&#9;C406.792,109.954,399.125,107.625,388.875,110.125z"
                    fill="#007035" />
                <path
                    d="M387,111.875c0,0,12.125,0.875,13.5,7.5l-0.923-3.609c0,0,14.02,4.665,17.034,6.012&#10;&#9;&#9;&#9;&#9;c0,0-6.861-6.653-17.111-8.903S387,111.875,387,111.875z"
                    fill="#007035" />
                <path
                    d="M382.75,115.125l1.797,4.048c0,0,7.655,2.885,14.429,9.419&#10;&#9;&#9;&#9;&#9;C398.976,128.592,394.375,117.875,382.75,115.125z"
                    fill="#007035" />
                <path
                    d="M363.375,132.25c0,0,1.549-5.026,15.962-12.075c0,0-8.837,1.45-12.587,5.7S363.375,132.25,363.375,132.25&#10;&#9;&#9;&#9;&#9;z"
                    fill="#007035" />
                <path
                    d="M367.5,108.875c0,0-14.5-4.75-22.375-0.75C345.125,108.125,353.375,105.5,367.5,108.875z"
                    fill="#007035" />
                <path
                    d="M380,109.125c0,0,7.25-7.5,15.875-8.625C395.875,100.5,385.75,101,380,109.125z"
                    fill="#007035" />
                <path
                    d="M384.375,110.375c0,0,12-5.875,23.875-5.75C408.25,104.625,393.75,104.125,384.375,110.375z"
                    fill="#007035" />
                <path
                    d="M379.125,112.125c0,0,15.125,0.5,18.375,10.75C397.5,122.875,393.25,113.625,379.125,112.125z"
                    fill="#007035" />
                <path
                    d="M366,124.875c0,0,0.875-7,9.25-9.625C375.25,115.25,368.375,118.5,366,124.875z"
                    fill="#007035" />
                <path
                    d="M348.5,127.75c0,0,3.875-9,20.875-12.25C369.375,115.5,354.25,119.375,348.5,127.75z"
                    fill="#007035" />
                <path
                    d="M345,117.875c0,0,3.875,1.5,15.125-1.875s12.25-3.375,12.25-3.375s-8.25,0.875-13.5,2.5&#10;&#9;&#9;&#9;&#9;S345,117.875,345,117.875z"
                    fill="#007035" />
                <path
                    d="M347.625,108.5c0,0,12-1.875,21.125,1.625C368.75,110.125,353.75,107.625,347.625,108.5z"
                    fill="#007035" />
                <path
                    d="M368.5,87.625c0,0,7.5,8.375,5.5,22.25C374,109.875,374.375,96.25,368.5,87.625z"
                    fill="#007035" />
                <path
                    d="M340.25,109.25c0,0,14.5-7.5,29.625,0l-0.25-3.125C369.625,106.125,354.75,100.75,340.25,109.25z"
                    fill="#007035" />
                <path
                    d="M374.625,109.75c0,0,5.25-3.125,10.125-6.25s9.25-4,17.5-4c0,0-10.75-2-19.5,3.125s-6.75,2.25-6.75,2.25&#10;&#9;&#9;&#9;&#9;L374.625,109.75z"
                    fill="#007035" />
                <g>
                    <ellipse cx="346.75" cy="140.938" fill="#B21217" rx="2.625" ry="4.438" />
                    <ellipse cx="346.75" cy="140.938" fill="#CD181F" rx="1.996" ry="3.375" />
                    <ellipse cx="346.894" cy="141.75" fill="#D89315" rx="1.516" ry="2.563" />
                    <ellipse cx="347.061" cy="142.125" fill="#231F20" rx="1.141" ry="1.929" />
                    <ellipse cx="346.894" cy="141.75" fill="#E2D100" rx="1.141" ry="1.929" />
                </g>
                <g>
                    <ellipse cx="356.606" cy="152.313" fill="#B21217" rx="2.625" ry="4.438"
                        transform="matrix(0.9933 -0.1154 0.1154 0.9933 -15.1955 42.1734)" />
                    <ellipse cx="356.606" cy="152.313" fill="#CD181F" rx="1.996" ry="3.375"
                        transform="matrix(0.9933 -0.1154 0.1154 0.9933 -15.1955 42.1734)" />
                    <ellipse cx="356.843" cy="153.103" fill="#D89315" rx="1.516" ry="2.563"
                        transform="matrix(0.9933 -0.1154 0.1154 0.9933 -15.2851 42.2061)" />
                    <ellipse cx="356.843" cy="153.103" fill="#E2D100" rx="1.141" ry="1.929"
                        transform="matrix(0.9933 -0.1154 0.1154 0.9933 -15.2851 42.2061)" />
                    <ellipse cx="355.561" cy="167.826" fill="#E2D100" rx="1.141" ry="1.929"
                        transform="matrix(0.9286 -0.3711 0.3711 0.9286 -36.8905 143.9307)" />
                    <ellipse cx="365.659" cy="182.459" fill="#E2D100" rx="1.141" ry="1.929"
                        transform="matrix(0.9286 -0.3711 0.3711 0.9286 -41.5998 148.7232)" />
                    <ellipse cx="379.291" cy="181.561" fill="#E2D100" rx="1.141" ry="1.929"
                        transform="matrix(0.9983 -0.0587 0.0587 0.9983 -10.0034 22.5769)" />
                    <ellipse cx="391.083" cy="181.915" fill="#E2D100" rx="1.141" ry="1.929"
                        transform="matrix(0.9617 0.274 -0.274 0.9617 64.8217 -100.2063)" />
                    <ellipse cx="383.615" cy="193.854" fill="#E2D100" rx="0.708" ry="1.197"
                        transform="matrix(0.9617 0.274 -0.274 0.9617 67.8074 -97.7027)" />
                    <ellipse cx="375.51" cy="193.47" fill="#E2D100" rx="1.141" ry="1.929"
                        transform="matrix(0.968 -0.251 0.251 0.968 -36.5363 100.4316)" />
                    <ellipse cx="365.939" cy="166.928" fill="#E2D100" rx="1.141" ry="1.929"
                        transform="matrix(0.9985 -0.0552 0.0552 0.9985 -8.6496 20.4366)" />
                    <ellipse cx="384.625" cy="152.5" fill="#E2D100" rx="1.141" ry="1.929" />
                    <ellipse cx="371.25" cy="153.625" fill="#E2D100" rx="1.141" ry="1.929" />
                    <ellipse cx="408.375" cy="139.5" fill="#E2D100" rx="1.141" ry="1.929"
                        transform="matrix(0.9939 0.1099 -0.1099 0.9939 17.809 -44.0445)" />
                    <ellipse cx="398.039" cy="153.168" fill="#E2D100" rx="1.141" ry="1.929"
                        transform="matrix(0.9939 0.1099 -0.1099 0.9939 19.2488 -42.8254)" />
                    <ellipse cx="410.511" cy="153.528" fill="#E2D100" rx="0.644" ry="1.929"
                        transform="matrix(0.973 0.2308 -0.2308 0.973 46.5194 -90.6035)" />
                    <ellipse cx="346.347" cy="155.206" fill="#E2D100" rx="0.644" ry="1.929"
                        transform="matrix(0.9407 -0.3393 0.3393 0.9407 -32.1157 126.7273)" />
                    <ellipse cx="401.875" cy="168.125" fill="#E2D100" rx="1.141" ry="1.929"
                        transform="matrix(0.9451 0.3267 -0.3267 0.9451 76.9674 -122.0553)" />
                    <ellipse cx="389.641" cy="166.7" fill="#E2D100" rx="1.141" ry="1.929"
                        transform="matrix(0.9877 0.1563 -0.1563 0.9877 30.8459 -58.8549)" />
                    <ellipse cx="379.099" cy="166.069" fill="#E2D100" rx="1.141" ry="1.929"
                        transform="matrix(0.9984 0.056 -0.056 0.9984 9.8958 -20.9709)" />
                    <ellipse cx="356.843" cy="153.103" fill="#E2D100" rx="1.141" ry="1.929"
                        transform="matrix(0.9933 -0.1154 0.1154 0.9933 -15.2851 42.2061)" />
                </g>
                <g>
                    <ellipse cx="355.125" cy="167.125" fill="#B21217" rx="2.625" ry="4.438"
                        transform="matrix(0.9286 -0.3711 0.3711 0.9286 -36.6615 143.719)" />
                    <ellipse cx="355.125" cy="167.125" fill="#CD181F" rx="1.996" ry="3.375"
                        transform="matrix(0.9286 -0.3711 0.3711 0.9286 -36.6615 143.719)" />
                    <ellipse cx="355.561" cy="167.826" fill="#D89315" rx="1.516" ry="2.563"
                        transform="matrix(0.9286 -0.3711 0.3711 0.9286 -36.8905 143.9307)" />
                </g>
                <g>
                    <ellipse cx="365.224" cy="181.758" fill="#B21217" rx="2.625" ry="4.438"
                        transform="matrix(0.9286 -0.3711 0.3711 0.9286 -41.3708 148.5115)" />
                    <ellipse cx="365.224" cy="181.758" fill="#CD181F" rx="1.996" ry="3.375"
                        transform="matrix(0.9286 -0.3711 0.3711 0.9286 -41.3708 148.5115)" />
                    <ellipse cx="365.659" cy="182.459" fill="#D89315" rx="1.516" ry="2.563"
                        transform="matrix(0.9286 -0.3711 0.3711 0.9286 -41.5998 148.7232)" />
                </g>
                <g>
                    <ellipse cx="379.099" cy="180.758" fill="#B21217" rx="2.625" ry="4.438"
                        transform="matrix(0.9983 -0.0587 0.0587 0.9983 -9.9566 22.5643)" />
                    <ellipse cx="379.099" cy="180.758" fill="#CD181F" rx="1.996" ry="3.375"
                        transform="matrix(0.9983 -0.0587 0.0587 0.9983 -9.9566 22.5643)" />
                    <ellipse cx="379.291" cy="181.561" fill="#D89315" rx="1.516" ry="2.563"
                        transform="matrix(0.9983 -0.0587 0.0587 0.9983 -10.0034 22.5769)" />
                </g>
                <g>
                    <ellipse cx="391.167" cy="181.094" fill="#B21217" rx="2.625" ry="4.438"
                        transform="matrix(0.9617 0.274 -0.274 0.9617 64.5999 -100.2607)" />
                    <ellipse cx="391.167" cy="181.094" fill="#CD181F" rx="1.996" ry="3.375"
                        transform="matrix(0.9617 0.274 -0.274 0.9617 64.5999 -100.2607)" />
                    <ellipse cx="391.083" cy="181.915" fill="#D89315" rx="1.516" ry="2.563"
                        transform="matrix(0.9617 0.274 -0.274 0.9617 64.8217 -100.2063)" />
                </g>
                <g>
                    <ellipse cx="383.667" cy="193.344" fill="#B21217" rx="1.63" ry="2.755"
                        transform="matrix(0.9617 0.274 -0.274 0.9617 67.6697 -97.7365)" />
                    <ellipse cx="383.667" cy="193.344" fill="#CD181F" rx="1.24" ry="2.095"
                        transform="matrix(0.9617 0.274 -0.274 0.9617 67.6697 -97.7365)" />
                    <ellipse cx="383.615" cy="193.854" fill="#D89315" rx="0.941" ry="1.591"
                        transform="matrix(0.9617 0.274 -0.274 0.9617 67.8074 -97.7027)" />
                </g>
                <g>
                    <ellipse cx="375.167" cy="192.719" fill="#B21217" rx="2.625" ry="4.438"
                        transform="matrix(0.968 -0.251 0.251 0.968 -36.359 100.3213)" />
                    <ellipse cx="375.167" cy="192.719" fill="#CD181F" rx="1.996" ry="3.375"
                        transform="matrix(0.968 -0.251 0.251 0.968 -36.359 100.3213)" />
                    <ellipse cx="375.51" cy="193.47" fill="#D89315" rx="1.516" ry="2.563"
                        transform="matrix(0.968 -0.251 0.251 0.968 -36.5363 100.4316)" />
                </g>
                <g>
                    <ellipse cx="365.75" cy="166.125" fill="#B21217" rx="2.625" ry="4.438"
                        transform="matrix(0.9985 -0.0552 0.0552 0.9985 -8.6056 20.425)" />
                    <ellipse cx="365.75" cy="166.125" fill="#CD181F" rx="1.996" ry="3.375"
                        transform="matrix(0.9985 -0.0552 0.0552 0.9985 -8.6056 20.425)" />
                    <ellipse cx="365.939" cy="166.928" fill="#D89315" rx="1.516" ry="2.563"
                        transform="matrix(0.9985 -0.0552 0.0552 0.9985 -8.6496 20.4366)" />
                </g>
                <g>
                    <ellipse cx="362.231" cy="139.313" fill="#B21217" rx="2.625" ry="4.438" />
                    <ellipse cx="362.231" cy="139.313" fill="#CD181F" rx="1.996" ry="3.375" />
                    <ellipse cx="362.375" cy="140.125" fill="#D89315" rx="1.516" ry="2.563" />
                    <ellipse cx="362.478" cy="140.375" fill="#231F20" rx="1.141" ry="1.929" />
                    <ellipse cx="362.375" cy="140.125" fill="#E2D100" rx="1.141" ry="1.929" />
                </g>
                <g>
                    <ellipse cx="377.356" cy="138.688" fill="#B21217" rx="2.625" ry="4.438" />
                    <ellipse cx="377.356" cy="138.688" fill="#CD181F" rx="1.996" ry="3.375" />
                    <ellipse cx="377.5" cy="139.5" fill="#D89315" rx="1.516" ry="2.563" />
                    <ellipse cx="377.728" cy="139.75" fill="#231F20" rx="1.141" ry="1.929" />
                    <ellipse cx="377.5" cy="139.5" fill="#E2D100" rx="1.141" ry="1.929" />
                </g>
                <g>
                    <ellipse cx="384.481" cy="151.688" fill="#B21217" rx="2.625" ry="4.438" />
                    <ellipse cx="384.481" cy="151.688" fill="#CD181F" rx="1.996" ry="3.375" />
                    <ellipse cx="384.625" cy="152.5" fill="#D89315" rx="1.516" ry="2.563" />
                </g>
                <g>
                    <ellipse cx="371.106" cy="152.813" fill="#B21217" rx="2.625" ry="4.438" />
                    <ellipse cx="371.106" cy="152.813" fill="#CD181F" rx="1.996" ry="3.375" />
                    <ellipse cx="371.25" cy="153.625" fill="#D89315" rx="1.516" ry="2.563" />
                </g>
                <g>
                    <ellipse cx="392.583" cy="138.75" fill="#B21217" rx="2.625" ry="4.438" />
                    <ellipse cx="392.583" cy="138.75" fill="#CD181F" rx="1.996" ry="3.375" />
                    <ellipse cx="392.727" cy="139.563" fill="#D89315" rx="1.516" ry="2.563" />
                    <ellipse cx="392.769" cy="139.854" fill="#231F20" rx="1.141" ry="1.929" />
                    <ellipse cx="392.644" cy="139.604" fill="#E2D100" rx="1.141" ry="1.929" />
                </g>
                <g>
                    <ellipse cx="408.321" cy="138.677" fill="#B21217" rx="2.625" ry="4.438"
                        transform="matrix(0.9939 0.1099 -0.1099 0.9939 17.7181 -44.0435)" />
                    <ellipse cx="408.321" cy="138.677" fill="#CD181F" rx="1.996" ry="3.375"
                        transform="matrix(0.9939 0.1099 -0.1099 0.9939 17.7181 -44.0435)" />
                    <ellipse cx="408.375" cy="139.5" fill="#D89315" rx="1.516" ry="2.563"
                        transform="matrix(0.9939 0.1099 -0.1099 0.9939 17.809 -44.0445)" />
                </g>
                <g>
                    <ellipse cx="397.984" cy="152.344" fill="#B21217" rx="2.625" ry="4.438"
                        transform="matrix(0.9939 0.1099 -0.1099 0.9939 19.1579 -42.8245)" />
                    <ellipse cx="397.984" cy="152.344" fill="#CD181F" rx="1.996" ry="3.375"
                        transform="matrix(0.9939 0.1099 -0.1099 0.9939 19.1579 -42.8245)" />
                    <ellipse cx="398.039" cy="153.168" fill="#D89315" rx="1.516" ry="2.563"
                        transform="matrix(0.9939 0.1099 -0.1099 0.9939 19.2488 -42.8254)" />
                </g>
                <g>
                    <ellipse cx="410.62" cy="152.719" fill="#B21217" rx="1.482" ry="4.438"
                        transform="matrix(0.973 0.2308 -0.2308 0.973 46.3355 -90.6504)" />
                    <ellipse cx="410.62" cy="152.719" fill="#CD181F" rx="1.127" ry="3.375"
                        transform="matrix(0.973 0.2308 -0.2308 0.973 46.3355 -90.6504)" />
                    <ellipse cx="410.511" cy="153.528" fill="#D89315" rx="0.856" ry="2.563"
                        transform="matrix(0.973 0.2308 -0.2308 0.973 46.5194 -90.6035)" />
                </g>
                <g>
                    <ellipse cx="345.995" cy="154.469" fill="#B21217" rx="1.482" ry="4.438"
                        transform="matrix(0.9407 -0.3393 0.3393 0.9407 -31.8867 126.564)" />
                    <ellipse cx="345.995" cy="154.469" fill="#CD181F" rx="1.127" ry="3.375"
                        transform="matrix(0.9407 -0.3393 0.3393 0.9407 -31.8867 126.564)" />
                    <ellipse cx="346.347" cy="155.206" fill="#D89315" rx="0.856" ry="2.563"
                        transform="matrix(0.9407 -0.3393 0.3393 0.9407 -32.1157 126.7273)" />
                </g>
                <g>
                    <ellipse cx="402.004" cy="167.31" fill="#B21217" rx="2.625" ry="4.438"
                        transform="matrix(0.9451 0.3267 -0.3267 0.9451 76.7082 -122.1421)" />
                    <ellipse cx="402.004" cy="167.31" fill="#CD181F" rx="1.996" ry="3.375"
                        transform="matrix(0.9451 0.3267 -0.3267 0.9451 76.7082 -122.1421)" />
                    <ellipse cx="401.875" cy="168.125" fill="#D89315" rx="1.516" ry="2.563"
                        transform="matrix(0.9451 0.3267 -0.3267 0.9451 76.9674 -122.0553)" />
                </g>
                <g>
                    <ellipse cx="389.625" cy="165.875" fill="#B21217" rx="2.625" ry="4.438"
                        transform="matrix(0.9877 0.1563 -0.1563 0.9877 30.7167 -58.8627)" />
                    <ellipse cx="389.625" cy="165.875" fill="#CD181F" rx="1.996" ry="3.375"
                        transform="matrix(0.9877 0.1563 -0.1563 0.9877 30.7167 -58.8627)" />
                    <ellipse cx="389.641" cy="166.7" fill="#D89315" rx="1.516" ry="2.563"
                        transform="matrix(0.9877 0.1563 -0.1563 0.9877 30.8459 -58.8549)" />
                </g>
                <g>
                    <ellipse cx="379" cy="165.25" fill="#B21217" rx="2.625" ry="4.438"
                        transform="matrix(0.9984 0.056 -0.056 0.9984 9.8497 -20.9666)" />
                    <ellipse cx="379" cy="165.25" fill="#CD181F" rx="1.996" ry="3.375"
                        transform="matrix(0.9984 0.056 -0.056 0.9984 9.8497 -20.9666)" />
                    <ellipse cx="379.099" cy="166.069" fill="#D89315" rx="1.516" ry="2.563"
                        transform="matrix(0.9984 0.056 -0.056 0.9984 9.8958 -20.9709)" />
                </g>
                <path
                    d="M362.625,86.625c0,0,3.75-1,6-1.125s3.875,2,3.875,2s0.25-2.375-3.25-3.25s-8,1.625-8,1.625&#10;&#9;&#9;&#9;&#9;S361.375,86.625,362.625,86.625z"
                    fill="#005926" />
                <path
                    d="M361.25,85.875c0,0,6.938,7.313,8.75,16.625c0,0-3-12.5-7.5-16.188L361.25,85.875z"
                    fill="#005926" />
                <path
                    d="M371.321,85.505c0,0,6.804,4.932,4.991,22.307c0,0,0.063-18.938-5.938-22.125L371.321,85.505z"
                    fill="#005926" />
                <path
                    d="M402.784,99.333c0,0-5.346,2.354-8.284,5.229s-7.438,3.375-7.438,3.375s8.173-1.825,10.711-3.194&#10;&#9;&#9;&#9;&#9;C397.774,104.744,398.443,102.166,402.784,99.333z"
                    fill="#005926" />
                <path
                    d="M394,109.188c0,0,14.625-3.313,22.563-3.188c0,0-9.479,3.596-9.771,3.954&#10;&#9;&#9;&#9;&#9;C406.792,109.954,401.125,108.625,394,109.188z"
                    fill="#005926" />
                <path
                    d="M392.438,112.5c0,0,13.938,1.938,20,7.5l-12.86-4.234c0,0,1.548,1.797,1.235,6.047&#10;&#9;&#9;&#9;&#9;C400.813,121.813,399.938,114.188,392.438,112.5z"
                    fill="#005926" />
                <path
                    d="M363.105,133.401c0,0,0.145-4.151,4.458-7.276s11.775-5.95,11.775-5.95s-9.837,5.2-12.525,8.2&#10;&#9;&#9;&#9;&#9;S363.105,133.401,363.105,133.401z"
                    fill="#005926" />
                <path
                    d="M344.067,138.411c0,0,2.996-5.286,8.308-7.849s12-6.375,13.813-9.5c0,0-3.563,3.188-9,5.75&#10;&#9;&#9;&#9;&#9;S345.133,132.572,344.067,138.411z"
                    fill="#005926" />
                <path
                    d="M335.049,127.389c0,0,3.264-4.514,9.389-4.452s10.188-2.75,11.625-4.188c0,0-3.625,2.75-7.813,2.438&#10;&#9;&#9;&#9;&#9;S335.972,122.591,335.049,127.389z"
                    fill="#005926" />
                <path
                    d="M335.063,113.813c0,0,4.25-2.25,11-0.188s11.375-0.75,11.375-0.75s-6.5,3.25-9.563,3.125&#10;&#9;&#9;&#9;&#9;S339.313,112.563,335.063,113.813z"
                    fill="#005926" />
                <path
                    d="M364.063,105.063c0,0,4.063,0.188,5.813,4.188c0,0,1.438-4.688-0.563-9.688c0,0,0.438,4.938-0.313,5.5&#10;&#9;&#9;&#9;&#9;S365.813,104.563,364.063,105.063z"
                    fill="#005926" />
                <path
                    d="M376.188,108.5c0.063-0.25,3.625-4.125,7.375-6.063c0,0-3.688,1.375-5.5,2.5s-1.625-0.688-1.625-0.688&#10;&#9;&#9;&#9;&#9;L376.188,108.5z"
                    fill="#005926" />
                <path
                    d="M344.063,107.313c0,0,12.188-5.688,24.375-1.875L369,106.75C369,106.75,358.625,102.375,344.063,107.313z&#10;&#9;&#9;&#9;&#9;"
                    fill="#005926" />
                <path
                    d="M374.563,97.25c0,0,1.875,7.688-0.188,12.313c0,0,0.438-0.188,1.125-0.625&#10;&#9;&#9;&#9;&#9;C375.5,108.938,377.125,103.438,374.563,97.25z"
                    fill="#005926" />
                <path
                    d="M360,144c0,0,3.583,3.417,5.5-2c0,0-0.917,2.167-2.833,2.583C360.75,145,360,144,360,144z"
                    fill="#F16C4F" />
                <path
                    d="M375,143.167c0,0,3.75,3.25,5.333-1.667C380.333,141.5,379,145.5,375,143.167z"
                    fill="#F16C4F" />
                <path
                    d="M379.083,127c0,0,2.5,2.75,4.333,0.25C383.417,127.25,382,129.25,379.083,127z"
                    fill="#F16C4F" />
                <path
                    d="M389.167,140.583c0,0,0.5,4.75,3.917,4.417c3.417-0.333,3.417-4.75,3.417-4.75s-0.5,4.25-3.75,3.917&#10;&#9;&#9;&#9;&#9;C389.5,143.833,389.167,140.583,389.167,140.583z"
                    fill="#F16C4F" />
                <path
                    d="M381.333,154.083c0,0,0.917,4.167,4.083,3.75c3.167-0.417,2.917-4.083,2.917-4.083&#10;&#9;&#9;&#9;&#9;disposable-1.083,3.833-3.583,3.333S381.333,154.083,381.333,154.083z"
                    fill="#F16C4F" />
                <path
                    d="M368.333,155.5c0,0,1,3.917,3.667,3.667s3.083-4.583,3.083-4.583s-1.167,4-3.5,3.667&#10;&#9;&#9;&#9;&#9;C369.25,157.917,368.333,155.5,368.333,155.5z"
                    fill="#F16C4F" />
                <path
                    d="M354.25,156.25c0,0,3.167,3.75,5.167-0.667c0,0-1.333,1.833-2.917,1.583S354.25,156.25,354.25,156.25z"
                    fill="#F16C4F" />
                <path
                    d="M376.167,168.833c0,0,1.25,2.25,3,2s2.25-1.917,2.25-1.917s-0.583,3.083-2.75,2.833&#10;&#9;&#9;&#9;&#9;C376.5,171.5,376.167,168.833,376.167,168.833z"
                    fill="#F16C4F" />
                <path
                    d="M386.917,169.333c0,0,0.5,2.083,2.417,2.083c1.917,0,3.083-2.5,3.083-2.5s-1.167,2.167-3,2.083&#10;&#9;&#9;&#9;&#9;C387.583,170.917,386.917,169.333,386.917,169.333z"
                    fill="#F16C4F" />
                <path
                    d="M395.167,155.167c0,0,0.333,3,2.667,3.083c2.333,0.083,2.75-2.167,2.75-2.167s-1.167,1.833-3,1.75&#10;&#9;&#9;&#9;&#9;C395.75,157.75,395.167,155.167,395.167,155.167z"
                    fill="#F16C4F" />
                <path
                    d="M363.5,169.583c0,0,0.167,2.083,2.167,2.333s3.417-2.833,3.417-2.833s-1.583,2.25-3.417,2.333&#10;&#9;&#9;&#9;&#9;C363.833,171.5,363.5,169.583,363.5,169.583z"
                    fill="#F16C4F" />
                <path
                    d="M376.333,183.5c0,0,0.833,3.167,3.5,2.5c2.667-0.667,3.167-4,3.167-4s0,4.667-2.667,5.167&#10;&#9;&#9;&#9;&#9;C377.667,187.667,376.333,183.5,376.333,183.5z"
                    fill="#F16C4F" />
                <path
                    d="M347,130.5c0,0,3.833-4.625,11.167-6.5c7.333-1.875,11.833-9,11.833-9s-13.5,5.167-17.167,8.667&#10;&#9;&#9;&#9;&#9;C349.167,127.167,347,130.5,347,130.5z"
                    fill="#30B575" />
                <path
                    d="M346.833,110c0,0,10-2.5,20,0.333c0,0-7,0.5-10.333,1.667S346.833,110,346.833,110z"
                    fill="#30B575" />
                <path
                    d="M365.333,87.167c0,0,6,6,7.333,20.167C372.667,107.333,373.167,88.667,365.333,87.167z"
                    fill="#30B575" />
                <path
                    d="M367.667,123.667c0,0,3.333-7.167,9.833-9.667c0,0,2.5,3.167-1.833,5.5&#10;&#9;&#9;&#9;&#9;C371.333,121.833,367.667,123.667,367.667,123.667z"
                    fill="#30B575" />
                <path
                    d="M382.5,112.167c0,0,14.833,1.333,16.667,14c0,0,3.5-5.667-2.5-10.833&#10;&#9;&#9;&#9;&#9;C390.667,110.167,382.5,112.167,382.5,112.167z"
                    fill="#30B575" />
                <path
                    d="M379.667,110c0,0,5.667-2.167,9.667-5.5s9-4.833,9-4.833s-8.5,2.167-12,4.833S379.667,110,379.667,110z"
                    fill="#30B575" />
                <path
                    d="M395.833,111c0,0,12.5,0.167,19.833,9.333C415.667,120.333,411.167,106.333,395.833,111z"
                    fill="#30B575" />
                <path
                    d="M336,124.167c0,0,3.167-4.167,7.833-4C343.833,120.167,336.5,118.667,336,124.167z"
                    fill="#30B575" />
                <path
                    d="M352.417,122.667c0,0,7.583-6.667,16.417-7.333C368.833,115.333,359.25,115,352.417,122.667z"
                    fill="#8DCA80" />
                <path
                    d="M351.5,125.333c0,0,8.25-6.833,16.25-8.833C367.75,116.5,357.417,118.083,351.5,125.333z"
                    fill="#8DCA80" />
                <path
                    d="M375.25,115.25c0,0-8,6.25-9.917,11.5C365.333,126.75,367.167,118.167,375.25,115.25z"
                    fill="#8DCA80" />
                <path
                    d="M381.083,112.25c0,0,9.167,0.583,14.5,6.75c0,0-2.667-4.583-7.5-6.083&#10;&#9;&#9;&#9;&#9;C383.25,111.417,381.083,112.25,381.083,112.25z"
                    fill="#8DCA80" />
                <path
                    d="M392.333,110.833c0,0,12.75,0.417,20.5,6.417C412.833,117.25,403.25,109.417,392.333,110.833z"
                    fill="#8DCA80" />
                <path
                    d="M340.583,110.25c0,0,14.75-3.083,26.25,0.083C366.833,110.333,351.667,105.583,340.583,110.25z"
                    fill="#8DCA80" />
                <path
                    d="M366.083,86.917c0,0,4.083,2.583,6.167,14C372.25,100.917,370.833,87.25,366.083,86.917z"
                    fill="#8DCA80" />
                <path
                    d="M377.833,112.333c0,0,6,5.5,0.333,8.333L374,123.333c0,0,4.667-2.333,5-5.333&#10;&#9;&#9;&#9;&#9;S377.833,112.333,377.833,112.333z"
                    fill="#005926" />
                <path
                    d="M379.833,113.667c0,0,3.595,2.345,4.714,5.506c0,0,9.786,4.827,12.786,8.327c0,0-6.833-6-10.167-8.5&#10;&#9;&#9;&#9;&#9;C383.833,116.5,379.833,113.667,379.833,113.667z"
                    fill="#005926" />
                <path
                    d="M379.833,113.667c0,0,8.167,2.958,12.229,7.146C392.063,120.813,382.854,116.458,379.833,113.667z"
                    fill="#005926" />
                <path
                    d="M376.625,105.375c0,0,1.25,3.688-2.375,4.688C374.25,110.063,376.5,108.938,376.625,105.375z"
                    fill="#005926" />
                <path
                    d="M370.063,106.25c0,0-0.313,3.5,2.938,3.688c0,0-3.375,0.563-4.188-2.813L370.063,106.25z"
                    fill="#005926" />
                <path
                    d="M370.188,105.25c0,0,0.063,3.875,2.25,4.188C372.438,109.438,369,109.188,370.188,105.25z"
                    fill="#005926" />
                <path
                    d="M396.875,104.188c0,0,13.359-3.67,19.336,1.759c0,0-7.148-4.696-20.148-0.634L396.875,104.188z"
                    fill="#005926" />
                <path
                    d="M383.375,108.813c0,0,12.313-5.625,22.313-5.25c0,0,0.75-0.25,4.563,0.563c0,0-13-0.625-25.625,5.875&#10;&#9;&#9;&#9;&#9;L383.375,108.813z"
                    fill="#00A551" />
                <path
                    d="M380.125,116.438c0,0,2.926,5.417,6.026,8.146c0,0-7.213-1.021-7.401-4.896&#10;&#9;&#9;&#9;&#9;C378.75,119.688,380.625,118.25,380.125,116.438z"
                    fill="#005926" />
                <path
                    d="M378.938,113.563c0,0,1.875,2,1.5,4.375s3.375,5.625,5.375,6.563c0,0-1.438-2.875-3.313-6.438&#10;&#9;&#9;&#9;&#9;S378.938,113.563,378.938,113.563z"
                    fill="#30B575" />
                <path
                    d="M378.188,112.188c0,0,5.375,6.188,7.625,12.313c0,0-0.592-3.541-3.125-7&#10;&#9;&#9;&#9;&#9;C380.125,114,378.188,112.188,378.188,112.188z"
                    fill="#007035" />
            </g>
            <path
                d="M373.875,111.313c0,0,0.75,1.938-3.313,4.813C370.563,116.125,375,114.188,373.875,111.313z"
                fill="#005926" />
            <path
                d="M374.125,110.938c0,0,2.25,2.813-4,5.813c0,0,3.938-1.313,4.625-3.688S374.125,110.938,374.125,110.938z"
                fill="#005926" />
            <path
                d="M372.25,110.063c0,0-7.75-0.125-19.313,4.688C352.938,114.75,361.313,108.375,372.25,110.063z"
                fill="#005926" />
            <path
                d="M365.563,105.438c0,0,2.375,3.25,5,3.938C370.563,109.375,367.063,105.625,365.563,105.438z"
                fill="#005926" />
            <path
                d="M358.25,104.625c0,0,9.313,3.75,12.938,5.125c0,0-6.313-4.438-9-5.063S358.25,104.625,358.25,104.625z"
                fill="#005926" />
            <path
                d="M375.5,109.375c0,0,2.625-1.5,7.438-4.688s8-4.75,14.938-5.25c0,0-6.188-0.25-12.375,2.813&#10;&#9;&#9;&#9;S376.25,108.375,375.5,109.375z"
                fill="#005926" />
            <path
                d="M350.313,105.5c0,0,9.438-0.313,15.688,1.938C366,107.438,359.25,104.438,350.313,105.5z"
                fill="#005926" />
            <path d="M379.875,118c0,0-0.438,3.25,2.438,5C382.313,123,378,122.313,379.875,118z"
                fill="#007035" />
            <path
                d="M364.667,134.667c0,0,3.833-9.333,12.833-11C377.5,123.667,368.333,123.167,364.667,134.667z"
                fill="#F16C4F" />
            <path
                d="M389.167,124.333c0,0,10,3.667,10.333,11.5C399.5,135.833,398,129.333,389.167,124.333z"
                fill="#F16C4F" />
            <path
                d="M358.333,128.333c0,0-8.5,3.667-9.167,7.5C349.167,135.833,351.167,132.833,358.333,128.333z"
                fill="#F16C4F" />
            <path d="M372.333,189c0,0,2.833-3,4.833,1C377.167,190,375.667,184,372.333,189z"
                fill="#F16C4F" />
            <path d="M387.5,181.667c0,0,0.333-4,3-5C390.5,176.667,387.5,175.667,387.5,181.667z"
                fill="#F16C4F" />
            <path d="M362.667,177c0,0,2.667-2.167,5,2.5C367.667,179.5,365.667,173.5,362.667,177z"
                fill="#F16C4F" />
            <path
                d="M398.667,167.167c0,0,1.574-5.435,4.787-4.051C403.454,163.116,400.167,159.167,398.667,167.167z"
                fill="#EC1C24" />
            <path
                d="M405.167,138.667c0,0,1.167-6.833,4.5-4C409.667,134.667,405.167,130.5,405.167,138.667z"
                fill="#EC1C24" />
            <path
                d="M352.167,164.333c0,0,2.125-4.365,5.396,1.818C357.563,166.151,354.667,157.5,352.167,164.333z"
                fill="#EC1C24" />
            <path d="M345.5,137.333c0,0,3-3,4,2.333C349.5,139.667,349.333,132,345.5,137.333z"
                fill="#EC1C24" />
        </g>
        <ellipse cx="356.718" cy="153.353" fill="#231F20" rx="1.141" ry="1.929"
            transform="matrix(0.9933 -0.1154 0.1154 0.9933 -15.3148 42.1933)" />
        <ellipse cx="355.436" cy="168.076" fill="#231F20" rx="1.141" ry="1.929"
            transform="matrix(0.9286 -0.3711 0.3711 0.9286 -36.9922 143.9021)" />
        <ellipse cx="365.534" cy="182.709" fill="#231F20" rx="1.141" ry="1.929"
            transform="matrix(0.9286 -0.3711 0.3711 0.9286 -41.7015 148.6946)" />
        <ellipse cx="379.166" cy="181.811" fill="#231F20" rx="1.141" ry="1.929"
            transform="matrix(0.9983 -0.0587 0.0587 0.9983 -10.0183 22.57)" />
        <ellipse cx="390.958" cy="182.165" fill="#231F20" rx="1.141" ry="1.929"
            transform="matrix(0.9617 0.274 -0.274 0.9617 64.8854 -100.1625)" />
        <ellipse cx="383.49" cy="194.104" fill="#231F20" rx="0.708" ry="1.197"
            transform="matrix(0.9617 0.274 -0.274 0.9617 67.8711 -97.6589)" />
        <ellipse cx="375.385" cy="193.72" fill="#231F20" rx="1.141" ry="1.929"
            transform="matrix(0.968 -0.251 0.251 0.968 -36.6031 100.4082)" />
        <ellipse cx="365.814" cy="167.178" fill="#231F20" rx="1.141" ry="1.929"
            transform="matrix(0.9985 -0.0552 0.0552 0.9985 -8.6636 20.4301)" />
        <ellipse cx="384.5" cy="152.75" fill="#231F20" rx="1.141" ry="1.929" />
        <ellipse cx="371.125" cy="153.875" fill="#231F20" rx="1.141" ry="1.929" />
        <ellipse cx="408.25" cy="139.75" fill="#231F20" rx="1.141" ry="1.929"
            transform="matrix(0.9939 0.1099 -0.1099 0.9939 17.8357 -44.0292)" />
        <ellipse cx="397.914" cy="153.418" fill="#231F20" rx="1.141" ry="1.929"
            transform="matrix(0.9939 0.1099 -0.1099 0.9939 19.2755 -42.8102)" />
        <ellipse cx="410.386" cy="153.778" fill="#231F20" rx="0.644" ry="1.929"
            transform="matrix(0.973 0.2308 -0.2308 0.973 46.5737 -90.5679)" />
        <ellipse cx="346.222" cy="155.456" fill="#231F20" rx="0.644" ry="1.929"
            transform="matrix(0.9407 -0.3393 0.3393 0.9407 -32.208 126.6997)" />
        <ellipse cx="401.75" cy="168.375" fill="#231F20" rx="1.141" ry="1.929"
            transform="matrix(0.9451 0.3267 -0.3267 0.9451 77.0422 -122.0007)" />
        <ellipse cx="389.516" cy="166.95" fill="#231F20" rx="1.141" ry="1.929"
            transform="matrix(0.9877 0.1563 -0.1563 0.9877 30.8834 -58.8323)" />
        <ellipse cx="378.974" cy="166.319" fill="#231F20" rx="1.141" ry="1.929"
            transform="matrix(0.9984 0.056 -0.056 0.9984 9.9096 -20.9635)" />
        <ellipse cx="355.436" cy="168.076" fill="#231F20" rx="1.141" ry="1.929"
            transform="matrix(0.9286 -0.3711 0.3711 0.9286 -36.9922 143.9021)" />
        <ellipse cx="365.534" cy="182.709" fill="#231F20" rx="1.141" ry="1.929"
            transform="matrix(0.9286 -0.3711 0.3711 0.9286 -41.7015 148.6946)" />
        <ellipse cx="379.166" cy="181.811" fill="#231F20" rx="1.141" ry="1.929"
            transform="matrix(0.9983 -0.0587 0.0587 0.9983 -10.0183 22.57)" />
        <ellipse cx="390.958" cy="182.165" fill="#231F20" rx="1.141" ry="1.929"
            transform="matrix(0.9617 0.274 -0.274 0.9617 64.8854 -100.1625)" />
        <ellipse cx="383.49" cy="194.104" fill="#231F20" rx="0.708" ry="1.197"
            transform="matrix(0.9617 0.274 -0.274 0.9617 67.8711 -97.6589)" />
        <ellipse cx="375.385" cy="193.72" fill="#231F20" rx="1.141" ry="1.929"
            transform="matrix(0.968 -0.251 0.251 0.968 -36.6031 100.4082)" />
        <ellipse cx="365.814" cy="167.178" fill="#231F20" rx="1.141" ry="1.929"
            transform="matrix(0.9985 -0.0552 0.0552 0.9985 -8.6636 20.4301)" />
        <ellipse cx="384.5" cy="152.75" fill="#231F20" rx="1.141" ry="1.929" />
        <ellipse cx="371.125" cy="153.875" fill="#231F20" rx="1.141" ry="1.929" />
        <ellipse cx="408.25" cy="139.75" fill="#231F20" rx="1.141" ry="1.929"
            transform="matrix(0.9939 0.1099 -0.1099 0.9939 17.8357 -44.0292)" />
        <ellipse cx="397.914" cy="153.418" fill="#231F20" rx="1.141" ry="1.929"
            transform="matrix(0.9939 0.1099 -0.1099 0.9939 19.2755 -42.8102)" />
        <ellipse cx="410.386" cy="153.778" fill="#231F20" rx="0.644" ry="1.929"
            transform="matrix(0.973 0.2308 -0.2308 0.973 46.5737 -90.5679)" />
        <ellipse cx="346.222" cy="155.456" fill="#231F20" rx="0.644" ry="1.929"
            transform="matrix(0.9407 -0.3393 0.3393 0.9407 -32.208 126.6997)" />
        <ellipse cx="401.75" cy="168.375" fill="#231F20" rx="1.141" ry="1.929"
            transform="matrix(0.9451 0.3267 -0.3267 0.9451 77.0422 -122.0007)" />
        <ellipse cx="389.516" cy="166.95" fill="#231F20" rx="1.141" ry="1.929"
            transform="matrix(0.9877 0.1563 -0.1563 0.9877 30.8834 -58.8323)" />
        <ellipse cx="378.974" cy="166.319" fill="#231F20" rx="1.141" ry="1.929"
            transform="matrix(0.9984 0.056 -0.056 0.9984 9.9096 -20.9635)" />
        <ellipse cx="355.436" cy="168.076" fill="#231F20" rx="1.141" ry="1.929"
            transform="matrix(0.9286 -0.3711 0.3711 0.9286 -36.9922 143.9021)" />
        <ellipse cx="365.534" cy="182.709" fill="#231F20" rx="1.141" ry="1.929"
            transform="matrix(0.9286 -0.3711 0.3711 0.9286 -41.7015 148.6946)" />
        <ellipse cx="379.166" cy="181.811" fill="#231F20" rx="1.141" ry="1.929"
            transform="matrix(0.9983 -0.0587 0.0587 0.9983 -10.0183 22.57)" />
        <ellipse cx="390.958" cy="182.165" fill="#231F20" rx="1.141" ry="1.929"
            transform="matrix(0.9617 0.274 -0.274 0.9617 64.8854 -100.1625)" />
        <ellipse cx="383.49" cy="194.104" fill="#231F20" rx="0.708" ry="1.197"
            transform="matrix(0.9617 0.274 -0.274 0.9617 67.8711 -97.6589)" />
        <ellipse cx="375.385" cy="193.72" fill="#231F20" rx="1.141" ry="1.929"
            transform="matrix(0.968 -0.251 0.251 0.968 -36.6031 100.4082)" />
        <ellipse cx="365.814" cy="167.178" fill="#231F20" rx="1.141" ry="1.929"
            transform="matrix(0.9985 -0.0552 0.0552 0.9985 -8.6636 20.4301)" />
        <ellipse cx="384.5" cy="152.75" fill="#231F20" rx="1.141" ry="1.929" />
        <ellipse cx="371.125" cy="153.875" fill="#231F20" rx="1.141" ry="1.929" />
        <ellipse cx="408.25" cy="139.75" fill="#231F20" rx="1.141" ry="1.929"
            transform="matrix(0.9939 0.1099 -0.1099 0.9939 17.8357 -44.0292)" />
        <ellipse cx="397.914" cy="153.418" fill="#231F20" rx="1.141" ry="1.929"
            transform="matrix(0.9939 0.1099 -0.1099 0.9939 19.2755 -42.8102)" />
        <ellipse cx="410.386" cy="153.778" fill="#231F20" rx="0.644" ry="1.929"
            transform="matrix(0.973 0.2308 -0.2308 0.973 46.5737 -90.5679)" />
        <ellipse cx="346.222" cy="155.456" fill="#231F20" rx="0.644" ry="1.929"
            transform="matrix(0.9407 -0.3393 0.3393 0.9407 -32.208 126.6997)" />
        <ellipse cx="401.75" cy="168.375" fill="#231F20" rx="1.141" ry="1.929"
            transform="matrix(0.9451 0.3267 -0.3267 0.9451 77.0422 -122.0007)" />
        <ellipse cx="389.516" cy="166.95" fill="#231F20" rx="1.141" ry="1.929"
            transform="matrix(0.9877 0.1563 -0.1563 0.9877 30.8834 -58.8323)" />
        <ellipse cx="378.974" cy="166.319" fill="#231F20" rx="1.141" ry="1.929"
            transform="matrix(0.9984 0.056 -0.056 0.9984 9.9096 -20.9635)" />
        <ellipse cx="356.843" cy="153.103" fill="#E2D100" rx="1.141" ry="1.929"
            transform="matrix(0.9933 -0.1154 0.1154 0.9933 -15.2851 42.2061)" />
        <ellipse cx="355.561" cy="167.826" fill="#E2D100" rx="1.141" ry="1.929"
            transform="matrix(0.9286 -0.3711 0.3711 0.9286 -36.8905 143.9307)" />
        <ellipse cx="365.659" cy="182.459" fill="#E2D100" rx="1.141" ry="1.929"
            transform="matrix(0.9286 -0.3711 0.3711 0.9286 -41.5998 148.7232)" />
        <ellipse cx="379.291" cy="181.561" fill="#E2D100" rx="1.141" ry="1.929"
            transform="matrix(0.9983 -0.0587 0.0587 0.9983 -10.0034 22.5769)" />
        <ellipse cx="391.083" cy="181.915" fill="#E2D100" rx="1.141" ry="1.929"
            transform="matrix(0.9617 0.274 -0.274 0.9617 64.8217 -100.2063)" />
        <ellipse cx="383.615" cy="193.854" fill="#E2D100" rx="0.708" ry="1.197"
            transform="matrix(0.9617 0.274 -0.274 0.9617 67.8074 -97.7027)" />
        <ellipse cx="375.51" cy="193.47" fill="#E2D100" rx="1.141" ry="1.929"
            transform="matrix(0.968 -0.251 0.251 0.968 -36.5363 100.4316)" />
        <ellipse cx="365.939" cy="166.928" fill="#E2D100" rx="1.141" ry="1.929"
            transform="matrix(0.9985 -0.0552 0.0552 0.9985 -8.6496 20.4366)" />
        <ellipse cx="384.625" cy="152.5" fill="#E2D100" rx="1.141" ry="1.929" />
        <ellipse cx="371.25" cy="153.625" fill="#E2D100" rx="1.141" ry="1.929" />
        <ellipse cx="408.375" cy="139.5" fill="#E2D100" rx="1.141" ry="1.929"
            transform="matrix(0.9939 0.1099 -0.1099 0.9939 17.809 -44.0445)" />
        <ellipse cx="398.039" cy="153.168" fill="#E2D100" rx="1.141" ry="1.929"
            transform="matrix(0.9939 0.1099 -0.1099 0.9939 19.2488 -42.8254)" />
        <ellipse cx="410.511" cy="153.528" fill="#E2D100" rx="0.644" ry="1.929"
            transform="matrix(0.973 0.2308 -0.2308 0.973 46.5194 -90.6035)" />
        <ellipse cx="346.347" cy="155.206" fill="#E2D100" rx="0.644" ry="1.929"
            transform="matrix(0.9407 -0.3393 0.3393 0.9407 -32.1157 126.7273)" />
        <ellipse cx="401.875" cy="168.125" fill="#E2D100" rx="1.141" ry="1.929"
            transform="matrix(0.9451 0.3267 -0.3267 0.9451 76.9674 -122.0553)" />
        <ellipse cx="389.641" cy="166.7" fill="#E2D100" rx="1.141" ry="1.929"
            transform="matrix(0.9877 0.1563 -0.1563 0.9877 30.8459 -58.8549)" />
        <ellipse cx="379.099" cy="166.069" fill="#E2D100" rx="1.141" ry="1.929"
            transform="matrix(0.9984 0.056 -0.056 0.9984 9.8958 -20.9709)" />
        <ellipse cx="355.561" cy="167.826" fill="#E2D100" rx="1.141" ry="1.929"
            transform="matrix(0.9286 -0.3711 0.3711 0.9286 -36.8905 143.9307)" />
        <ellipse cx="365.659" cy="182.459" fill="#E2D100" rx="1.141" ry="1.929"
            transform="matrix(0.9286 -0.3711 0.3711 0.9286 -41.5998 148.7232)" />
        <ellipse cx="379.291" cy="181.561" fill="#E2D100" rx="1.141" ry="1.929"
            transform="matrix(0.9983 -0.0587 0.0587 0.9983 -10.0034 22.5769)" />
        <ellipse cx="391.083" cy="181.915" fill="#E2D100" rx="1.141" ry="1.929"
            transform="matrix(0.9617 0.274 -0.274 0.9617 64.8217 -100.2063)" />
        <ellipse cx="383.615" cy="193.854" fill="#E2D100" rx="0.708" ry="1.197"
            transform="matrix(0.9617 0.274 -0.274 0.9617 67.8074 -97.7027)" />
        <ellipse cx="375.51" cy="193.47" fill="#E2D100" rx="1.141" ry="1.929"
            transform="matrix(0.968 -0.251 0.251 0.968 -36.5363 100.4316)" />
        <ellipse cx="365.939" cy="166.928" fill="#E2D100" rx="1.141" ry="1.929"
            transform="matrix(0.9985 -0.0552 0.0552 0.9985 -8.6496 20.4366)" />
        <ellipse cx="384.625" cy="152.5" fill="#E2D100" rx="1.141" ry="1.929" />
        <ellipse cx="371.25" cy="153.625" fill="#E2D100" rx="1.141" ry="1.929" />
        <ellipse cx="408.375" cy="139.5" fill="#E2D100" rx="1.141" ry="1.929"
            transform="matrix(0.9939 0.1099 -0.1099 0.9939 17.809 -44.0445)" />
        <ellipse cx="398.039" cy="153.168" fill="#E2D100" rx="1.141" ry="1.929"
            transform="matrix(0.9939 0.1099 -0.1099 0.9939 19.2488 -42.8254)" />
        <ellipse cx="410.511" cy="153.528" fill="#E2D100" rx="0.644" ry="1.929"
            transform="matrix(0.973 0.2308 -0.2308 0.973 46.5194 -90.6035)" />
        <ellipse cx="346.347" cy="155.206" fill="#E2D100" rx="0.644" ry="1.929"
            transform="matrix(0.9407 -0.3393 0.3393 0.9407 -32.1157 126.7273)" />
        <ellipse cx="401.875" cy="168.125" fill="#E2D100" rx="1.141" ry="1.929"
            transform="matrix(0.9451 0.3267 -0.3267 0.9451 76.9674 -122.0553)" />
        <ellipse cx="389.641" cy="166.7" fill="#E2D100" rx="1.141" ry="1.929"
            transform="matrix(0.9877 0.1563 -0.1563 0.9877 30.8459 -58.8549)" />
        <ellipse cx="379.099" cy="166.069" fill="#E2D100" rx="1.141" ry="1.929"
            transform="matrix(0.9984 0.056 -0.056 0.9984 9.8958 -20.9709)" />
        <ellipse cx="355.561" cy="167.826" fill="#E2D100" rx="1.141" ry="1.929"
            transform="matrix(0.9286 -0.3711 0.3711 0.9286 -36.8905 143.9307)" />
        <ellipse cx="365.659" cy="182.459" fill="#E2D100" rx="1.141" ry="1.929"
            transform="matrix(0.9286 -0.3711 0.3711 0.9286 -41.5998 148.7232)" />
        <ellipse cx="379.291" cy="181.561" fill="#E2D100" rx="1.141" ry="1.929"
            transform="matrix(0.9983 -0.0587 0.0587 0.9983 -10.0034 22.5769)" />
        <ellipse cx="391.083" cy="181.915" fill="#E2D100" rx="1.141" ry="1.929"
            transform="matrix(0.9617 0.274 -0.274 0.9617 64.8217 -100.2063)" />
        <ellipse cx="383.615" cy="193.854" fill="#E2D100" rx="0.708" ry="1.197"
            transform="matrix(0.9617 0.274 -0.274 0.9617 67.8074 -97.7027)" />
        <ellipse cx="375.51" cy="193.47" fill="#E2D100" rx="1.141" ry="1.929"
            transform="matrix(0.968 -0.251 0.251 0.968 -36.5363 100.4316)" />
        <ellipse cx="365.939" cy="166.928" fill="#E2D100" rx="1.141" ry="1.929"
            transform="matrix(0.9985 -0.0552 0.0552 0.9985 -8.6496 20.4366)" />
        <ellipse cx="384.625" cy="152.5" fill="#E2D100" rx="1.141" ry="1.929" />
        <ellipse cx="371.25" cy="153.625" fill="#E2D100" rx="1.141" ry="1.929" />
        <ellipse cx="408.375" cy="139.5" fill="#E2D100" rx="1.141" ry="1.929"
            transform="matrix(0.9939 0.1099 -0.1099 0.9939 17.809 -44.0445)" />
        <ellipse cx="398.039" cy="153.168" fill="#E2D100" rx="1.141" ry="1.929"
            transform="matrix(0.9939 0.1099 -0.1099 0.9939 19.2488 -42.8254)" />
        <ellipse cx="410.511" cy="153.528" fill="#E2D100" rx="0.644" ry="1.929"
            transform="matrix(0.973 0.2308 -0.2308 0.973 46.5194 -90.6035)" />
        <ellipse cx="346.347" cy="155.206" fill="#E2D100" rx="0.644" ry="1.929"
            transform="matrix(0.9407 -0.3393 0.3393 0.9407 -32.1157 126.7273)" />
        <ellipse cx="401.875" cy="168.125" fill="#E2D100" rx="1.141" ry="1.929"
            transform="matrix(0.9451 0.3267 -0.3267 0.9451 76.9674 -122.0553)" />
        <ellipse cx="389.641" cy="166.7" fill="#E2D100" rx="1.141" ry="1.929"
            transform="matrix(0.9877 0.1563 -0.1563 0.9877 30.8459 -58.8549)" />
        <ellipse cx="379.099" cy="166.069" fill="#E2D100" rx="1.141" ry="1.929"
            transform="matrix(0.9984 0.056 -0.056 0.9984 9.8958 -20.9709)" />
    </g>
</svg>