<?xml version="1.0" encoding="utf-8"?>
<svg viewBox="0 0 367 553" xmlns="http://www.w3.org/2000/svg">
    <g transform="matrix(1, 0, 0, 1, -26.976999, -137)">
        <rect fill="#B2B1B0" height="137.292" stroke="#95918B" stroke-miterlimit="10"
            stroke-width="0.5" width="368.333" x="24.846" y="546.542" />
        <rect fill="#E0E2DC" height="60.667" stroke="#95918B" stroke-miterlimit="10"
            stroke-width="0.5" width="367.333" x="26.679" y="481" />
        <rect fill="#80B6C3" height="344.333" width="368.5" x="25.012" y="137" />
        <path
            d="M342.439,354.5c-0.078,0-0.154,0.007-0.231,0.012&#10;&#9;&#9;c-0.255-2.233-1.475-4.17-3.234-5.388c0.06-0.384,0.1-0.775,0.1-1.176c0-4.205-3.409-7.615-7.615-7.615&#10;&#9;&#9;c-2.97,0-5.536,1.704-6.792,4.184c-1.409-0.747-3.013-1.174-4.719-1.174c-3.659,0-6.853,1.953-8.624,4.868&#10;&#9;&#9;c-0.793-0.28-1.643-0.441-2.533-0.441c-4.205,0-7.615,3.409-7.615,7.615s3.409,7.615,7.615,7.615c1.826,0,32.451,0,33.646,0&#10;&#9;&#9;c2.249,0,4.073-2.178,4.073-4.427C346.512,356.323,344.689,354.5,342.439,354.5z"
            fill="#FFFFFF" />
        <path
            d="M229.773,389.167c-0.078,0-0.154,0.007-0.231,0.012&#10;&#9;&#9;c-0.255-2.233-1.475-4.171-3.234-5.388c0.06-0.384,0.1-0.775,0.1-1.176c0-4.205-3.409-7.615-7.615-7.615&#10;&#9;&#9;c-2.97,0-5.536,1.704-6.792,4.184c-1.409-0.747-3.013-1.174-4.719-1.174c-3.659,0-6.853,1.953-8.624,4.868&#10;&#9;&#9;c-0.793-0.28-1.643-0.441-2.533-0.441c-4.205,0-7.615,3.409-7.615,7.615s3.409,7.615,7.615,7.615c1.826,0,32.451,0,33.646,0&#10;&#9;&#9;c2.249,0,4.073-2.178,4.073-4.427S232.022,389.167,229.773,389.167z"
            fill="#FFFFFF" />
        <path
            d="M282.603,410.292c-0.049,0-0.097,0.005-0.146,0.007&#10;&#9;&#9;c-0.162-1.412-0.933-2.637-2.045-3.407c0.038-0.243,0.063-0.49,0.063-0.743c0-2.659-2.156-4.815-4.815-4.815&#10;&#9;&#9;c-1.878,0-3.501,1.078-4.295,2.646c-0.891-0.472-1.905-0.742-2.984-0.742c-2.314,0-4.334,1.235-5.453,3.078&#10;&#9;&#9;c-0.502-0.177-1.039-0.279-1.602-0.279c-2.659,0-4.815,2.156-4.815,4.815s2.156,4.815,4.815,4.815c1.155,0,20.52,0,21.276,0&#10;&#9;&#9;c1.422,0,2.576-1.377,2.576-2.799S284.026,410.292,282.603,410.292z"
            fill="#FFFFFF" />
        <path
            d="M130.845,328.333c-0.147,0-0.29,0.014-0.435,0.022&#10;&#9;&#9;c-0.481-4.203-2.776-7.85-6.087-10.143c0.112-0.723,0.188-1.458,0.188-2.213c0-7.916-6.417-14.333-14.333-14.333&#10;&#9;&#9;c-5.59,0-10.421,3.208-12.784,7.876c-2.652-1.406-5.672-2.209-8.883-2.209c-6.887,0-12.9,3.677-16.232,9.163&#10;&#9;&#9;c-1.494-0.527-3.093-0.829-4.768-0.829c-7.916,0-14.333,6.417-14.333,14.333s6.417,14.333,14.333,14.333c3.437,0,61.084,0,63.333,0&#10;&#9;&#9;c4.234,0,7.667-4.099,7.667-8.333S135.08,328.333,130.845,328.333z"
            fill="#FFFFFF" />
        <g>
            <rect fill="#DDD9D4" height="54.231" stroke="#CBC6BD" stroke-miterlimit="10"
                width="23.439" x="95.255" y="406.718" />
            <g>
                <path
                    d="M108.047,417.116c0,0.179-0.147,0.326-0.326,0.326H97.419c-0.179,0-0.326-0.147-0.326-0.326v-7.315&#10;&#9;&#9;&#9;&#9;c0-0.179,0.147-0.326,0.326-0.326h10.302c0.179,0,0.326,0.147,0.326,0.326V417.116z"
                    fill="#FFFFFF" />
                <path
                    d="M108.047,417.116c0,0.179-0.147,0.326-0.326,0.326H97.419&#10;&#9;&#9;&#9;&#9;c-0.179,0-0.326-0.147-0.326-0.326v-7.315c0-0.179,0.147-0.326,0.326-0.326h10.302c0.179,0,0.326,0.147,0.326,0.326V417.116z"
                    fill="none" stroke="#B6B8BA" stroke-miterlimit="10" />
            </g>
            <path
                d="M99.545,415.967c0,0.179-0.147,0.326-0.326,0.326h-1.264c-0.179,0-0.326-0.147-0.326-0.326v-5.323&#10;&#9;&#9;&#9;c0-0.179,0.147-0.326,0.326-0.326h1.264c0.179,0,0.326,0.147,0.326,0.326V415.967z"
                fill="#A0DCEF" />
            <path
                d="M102.149,415.967c0,0.179-0.147,0.326-0.326,0.326h-1.264c-0.179,0-0.326-0.147-0.326-0.326v-5.323&#10;&#9;&#9;&#9;c0-0.179,0.147-0.326,0.326-0.326h1.264c0.179,0,0.326,0.147,0.326,0.326V415.967z"
                fill="#A0DCEF" />
            <path
                d="M104.753,415.967c0,0.179-0.147,0.326-0.326,0.326h-1.264c-0.179,0-0.326-0.147-0.326-0.326v-5.323&#10;&#9;&#9;&#9;c0-0.179,0.147-0.326,0.326-0.326h1.264c0.179,0,0.326,0.147,0.326,0.326V415.967z"
                fill="#A0DCEF" />
            <g>
                <g>
                    <path
                        d="M117.238,417.124c0,0.174-0.08,0.317-0.178,0.317h-5.619c-0.098,0-0.178-0.143-0.178-0.317v-7.121&#10;&#9;&#9;&#9;&#9;&#9;c0-0.174,0.08-0.317,0.178-0.317h5.619c0.098,0,0.178,0.143,0.178,0.317V417.124z"
                        fill="#FFFFFF" />
                    <path
                        d="M117.238,417.124c0,0.174-0.08,0.317-0.178,0.317h-5.619&#10;&#9;&#9;&#9;&#9;&#9;c-0.098,0-0.178-0.143-0.178-0.317v-7.121c0-0.174,0.08-0.317,0.178-0.317h5.619c0.098,0,0.178,0.143,0.178,0.317V417.124z"
                        fill="none" stroke="#B6B8BA" stroke-miterlimit="10" />
                </g>
                <path
                    d="M113.715,415.967c0,0.179-0.147,0.326-0.326,0.326h-1.264c-0.179,0-0.326-0.147-0.326-0.326v-5.323&#10;&#9;&#9;&#9;&#9;c0-0.179,0.147-0.326,0.326-0.326h1.264c0.179,0,0.326,0.147,0.326,0.326V415.967z"
                    fill="#A0DCEF" />
                <path
                    d="M114.404,412.386v3.581c0,0.179,0.147,0.326,0.326,0.326h1.264c0.179,0,0.326-0.147,0.326-0.326v-3.581&#10;&#9;&#9;&#9;&#9;H114.404z"
                    fill="#A0DCEF" />
                <path
                    d="M116.319,411.697v-1.053c0-0.179-0.147-0.326-0.326-0.326h-1.264c-0.179,0-0.326,0.147-0.326,0.326v1.053&#10;&#9;&#9;&#9;&#9;H116.319z"
                    fill="#A0DCEF" />
            </g>
            <g>
                <g>
                    <path
                        d="M117.047,430.759c0,0.174-0.08,0.317-0.178,0.317h-5.619c-0.098,0-0.178-0.143-0.178-0.317v-7.121&#10;&#9;&#9;&#9;&#9;&#9;c0-0.174,0.08-0.317,0.178-0.317h5.619c0.098,0,0.178,0.143,0.178,0.317V430.759z"
                        fill="#FFFFFF" />
                    <path
                        d="M117.047,430.759c0,0.174-0.08,0.317-0.178,0.317h-5.619&#10;&#9;&#9;&#9;&#9;&#9;c-0.098,0-0.178-0.143-0.178-0.317v-7.121c0-0.174,0.08-0.317,0.178-0.317h5.619c0.098,0,0.178,0.143,0.178,0.317V430.759z"
                        fill="none" stroke="#B6B8BA" stroke-miterlimit="10" />
                </g>
                <path
                    d="M113.524,429.601c0,0.179-0.147,0.326-0.326,0.326h-1.264c-0.179,0-0.326-0.147-0.326-0.326v-5.323&#10;&#9;&#9;&#9;&#9;c0-0.179,0.147-0.326,0.326-0.326h1.264c0.179,0,0.326,0.147,0.326,0.326V429.601z"
                    fill="#A0DCEF" />
                <path
                    d="M114.213,426.02v3.581c0,0.179,0.147,0.326,0.326,0.326h1.264c0.179,0,0.326-0.147,0.326-0.326v-3.581&#10;&#9;&#9;&#9;&#9;H114.213z"
                    fill="#A0DCEF" />
                <path
                    d="M116.128,425.331v-1.053c0-0.179-0.147-0.326-0.326-0.326h-1.264c-0.179,0-0.326,0.147-0.326,0.326v1.053&#10;&#9;&#9;&#9;&#9;H116.128z"
                    fill="#A0DCEF" />
            </g>
            <g>
                <g>
                    <path
                        d="M117.238,444.393c0,0.174-0.08,0.317-0.178,0.317h-5.619c-0.098,0-0.178-0.143-0.178-0.317v-7.121&#10;&#9;&#9;&#9;&#9;&#9;c0-0.174,0.08-0.317,0.178-0.317h5.619c0.098,0,0.178,0.143,0.178,0.317V444.393z"
                        fill="#FFFFFF" />
                    <path
                        d="M117.238,444.393c0,0.174-0.08,0.317-0.178,0.317h-5.619&#10;&#9;&#9;&#9;&#9;&#9;c-0.098,0-0.178-0.143-0.178-0.317v-7.121c0-0.174,0.08-0.317,0.178-0.317h5.619c0.098,0,0.178,0.143,0.178,0.317V444.393z"
                        fill="none" stroke="#B6B8BA" stroke-miterlimit="10" />
                </g>
                <path
                    d="M113.715,443.235c0,0.179-0.147,0.326-0.326,0.326h-1.264c-0.179,0-0.326-0.147-0.326-0.326v-5.323&#10;&#9;&#9;&#9;&#9;c0-0.179,0.147-0.326,0.326-0.326h1.264c0.179,0,0.326,0.147,0.326,0.326V443.235z"
                    fill="#A0DCEF" />
                <path
                    d="M114.404,439.655v3.581c0,0.179,0.147,0.326,0.326,0.326h1.264c0.179,0,0.326-0.147,0.326-0.326v-3.581&#10;&#9;&#9;&#9;&#9;H114.404z"
                    fill="#A0DCEF" />
                <path
                    d="M116.319,438.965v-1.053c0-0.179-0.147-0.326-0.326-0.326h-1.264c-0.179,0-0.326,0.147-0.326,0.326v1.053&#10;&#9;&#9;&#9;&#9;H116.319z"
                    fill="#A0DCEF" />
            </g>
            <g>
                <g>
                    <path
                        d="M117.009,458.257c0,0.174-0.08,0.317-0.178,0.317h-5.619c-0.098,0-0.178-0.143-0.178-0.317v-7.121&#10;&#9;&#9;&#9;&#9;&#9;c0-0.174,0.08-0.317,0.178-0.317h5.619c0.098,0,0.178,0.143,0.178,0.317V458.257z"
                        fill="#FFFFFF" />
                    <path
                        d="M117.009,458.257c0,0.174-0.08,0.317-0.178,0.317h-5.619&#10;&#9;&#9;&#9;&#9;&#9;c-0.098,0-0.178-0.143-0.178-0.317v-7.121c0-0.174,0.08-0.317,0.178-0.317h5.619c0.098,0,0.178,0.143,0.178,0.317V458.257z"
                        fill="none" stroke="#B6B8BA" stroke-miterlimit="10" />
                </g>
                <path
                    d="M113.485,457.1c0,0.179-0.147,0.326-0.326,0.326h-1.264c-0.179,0-0.326-0.147-0.326-0.326v-5.323&#10;&#9;&#9;&#9;&#9;c0-0.179,0.147-0.326,0.326-0.326h1.264c0.179,0,0.326,0.147,0.326,0.326V457.1z"
                    fill="#A0DCEF" />
                <path
                    d="M114.175,453.519v3.581c0,0.179,0.147,0.326,0.326,0.326h1.264c0.179,0,0.326-0.147,0.326-0.326v-3.581&#10;&#9;&#9;&#9;&#9;H114.175z"
                    fill="#A0DCEF" />
                <path
                    d="M116.09,452.829v-1.053c0-0.179-0.147-0.326-0.326-0.326H114.5c-0.179,0-0.326,0.147-0.326,0.326v1.053&#10;&#9;&#9;&#9;&#9;H116.09z"
                    fill="#A0DCEF" />
            </g>
            <path
                d="M107.357,415.967c0,0.179-0.147,0.326-0.326,0.326h-1.264c-0.179,0-0.326-0.147-0.326-0.326v-5.323&#10;&#9;&#9;&#9;c0-0.179,0.147-0.326,0.326-0.326h1.264c0.179,0,0.326,0.147,0.326,0.326V415.967z"
                fill="#A0DCEF" />
            <g>
                <path
                    d="M108.047,430.827c0,0.179-0.147,0.326-0.326,0.326H97.419c-0.179,0-0.326-0.147-0.326-0.326v-7.315&#10;&#9;&#9;&#9;&#9;c0-0.179,0.147-0.326,0.326-0.326h10.302c0.179,0,0.326,0.147,0.326,0.326V430.827z"
                    fill="#FFFFFF" />
                <path
                    d="M108.047,430.827c0,0.179-0.147,0.326-0.326,0.326H97.419&#10;&#9;&#9;&#9;&#9;c-0.179,0-0.326-0.147-0.326-0.326v-7.315c0-0.179,0.147-0.326,0.326-0.326h10.302c0.179,0,0.326,0.147,0.326,0.326V430.827z"
                    fill="none" stroke="#B6B8BA" stroke-miterlimit="10" />
            </g>
            <path
                d="M99.545,429.678c0,0.179-0.147,0.326-0.326,0.326h-1.264c-0.179,0-0.326-0.147-0.326-0.326v-5.323&#10;&#9;&#9;&#9;c0-0.179,0.147-0.326,0.326-0.326h1.264c0.179,0,0.326,0.147,0.326,0.326V429.678z"
                fill="#A0DCEF" />
            <path
                d="M102.149,429.678c0,0.179-0.147,0.326-0.326,0.326h-1.264c-0.179,0-0.326-0.147-0.326-0.326v-5.323&#10;&#9;&#9;&#9;c0-0.179,0.147-0.326,0.326-0.326h1.264c0.179,0,0.326,0.147,0.326,0.326V429.678z"
                fill="#A0DCEF" />
            <path
                d="M104.753,429.678c0,0.179-0.147,0.326-0.326,0.326h-1.264c-0.179,0-0.326-0.147-0.326-0.326v-5.323&#10;&#9;&#9;&#9;c0-0.179,0.147-0.326,0.326-0.326h1.264c0.179,0,0.326,0.147,0.326,0.326V429.678z"
                fill="#A0DCEF" />
            <path
                d="M107.357,429.678c0,0.179-0.147,0.326-0.326,0.326h-1.264c-0.179,0-0.326-0.147-0.326-0.326v-5.323&#10;&#9;&#9;&#9;c0-0.179,0.147-0.326,0.326-0.326h1.264c0.179,0,0.326,0.147,0.326,0.326V429.678z"
                fill="#A0DCEF" />
            <g>
                <path
                    d="M108.047,444.538c0,0.179-0.147,0.326-0.326,0.326H97.419c-0.179,0-0.326-0.147-0.326-0.326v-7.315&#10;&#9;&#9;&#9;&#9;c0-0.179,0.147-0.326,0.326-0.326h10.302c0.179,0,0.326,0.147,0.326,0.326V444.538z"
                    fill="#FFFFFF" />
                <path
                    d="M108.047,444.538c0,0.179-0.147,0.326-0.326,0.326H97.419&#10;&#9;&#9;&#9;&#9;c-0.179,0-0.326-0.147-0.326-0.326v-7.315c0-0.179,0.147-0.326,0.326-0.326h10.302c0.179,0,0.326,0.147,0.326,0.326V444.538z"
                    fill="none" stroke="#B6B8BA" stroke-miterlimit="10" />
            </g>
            <path
                d="M99.545,443.389c0,0.179-0.147,0.326-0.326,0.326h-1.264c-0.179,0-0.326-0.147-0.326-0.326v-5.323&#10;&#9;&#9;&#9;c0-0.179,0.147-0.326,0.326-0.326h1.264c0.179,0,0.326,0.147,0.326,0.326V443.389z"
                fill="#A0DCEF" />
            <path
                d="M102.149,443.389c0,0.179-0.147,0.326-0.326,0.326h-1.264c-0.179,0-0.326-0.147-0.326-0.326v-5.323&#10;&#9;&#9;&#9;c0-0.179,0.147-0.326,0.326-0.326h1.264c0.179,0,0.326,0.147,0.326,0.326V443.389z"
                fill="#A0DCEF" />
            <path
                d="M104.753,443.389c0,0.179-0.147,0.326-0.326,0.326h-1.264c-0.179,0-0.326-0.147-0.326-0.326v-5.323&#10;&#9;&#9;&#9;c0-0.179,0.147-0.326,0.326-0.326h1.264c0.179,0,0.326,0.147,0.326,0.326V443.389z"
                fill="#A0DCEF" />
            <path
                d="M107.357,443.389c0,0.179-0.147,0.326-0.326,0.326h-1.264c-0.179,0-0.326-0.147-0.326-0.326v-5.323&#10;&#9;&#9;&#9;c0-0.179,0.147-0.326,0.326-0.326h1.264c0.179,0,0.326,0.147,0.326,0.326V443.389z"
                fill="#A0DCEF" />
            <g>
                <path
                    d="M108.047,458.249c0,0.179-0.147,0.326-0.326,0.326H97.419c-0.179,0-0.326-0.147-0.326-0.326v-7.315&#10;&#9;&#9;&#9;&#9;c0-0.179,0.147-0.326,0.326-0.326h10.302c0.179,0,0.326,0.147,0.326,0.326V458.249z"
                    fill="#FFFFFF" />
                <path
                    d="M108.047,458.249c0,0.179-0.147,0.326-0.326,0.326H97.419&#10;&#9;&#9;&#9;&#9;c-0.179,0-0.326-0.147-0.326-0.326v-7.315c0-0.179,0.147-0.326,0.326-0.326h10.302c0.179,0,0.326,0.147,0.326,0.326V458.249z"
                    fill="none" stroke="#B6B8BA" stroke-miterlimit="10" />
            </g>
            <path
                d="M99.545,457.1c0,0.179-0.147,0.326-0.326,0.326h-1.264c-0.179,0-0.326-0.147-0.326-0.326v-5.323&#10;&#9;&#9;&#9;c0-0.179,0.147-0.326,0.326-0.326h1.264c0.179,0,0.326,0.147,0.326,0.326V457.1z"
                fill="#A0DCEF" />
            <path
                d="M102.149,457.1c0,0.179-0.147,0.326-0.326,0.326h-1.264c-0.179,0-0.326-0.147-0.326-0.326v-5.323&#10;&#9;&#9;&#9;c0-0.179,0.147-0.326,0.326-0.326h1.264c0.179,0,0.326,0.147,0.326,0.326V457.1z"
                fill="#A0DCEF" />
            <path
                d="M104.753,457.1c0,0.179-0.147,0.326-0.326,0.326h-1.264c-0.179,0-0.326-0.147-0.326-0.326v-5.323&#10;&#9;&#9;&#9;c0-0.179,0.147-0.326,0.326-0.326h1.264c0.179,0,0.326,0.147,0.326,0.326V457.1z"
                fill="#A0DCEF" />
            <path
                d="M107.357,457.1c0,0.179-0.147,0.326-0.326,0.326h-1.264c-0.179,0-0.326-0.147-0.326-0.326v-5.323&#10;&#9;&#9;&#9;c0-0.179,0.147-0.326,0.326-0.326h1.264c0.179,0,0.326,0.147,0.326,0.326V457.1z"
                fill="#A0DCEF" />
            <polygon fill="#ECE5E6"
                points="93.953,405.033 95.255,406.718 &#10;&#9;&#9;&#9;118.694,406.718 118.694,405.033 &#9;&#9;"
                stroke="#B8BABC" stroke-linejoin="round" stroke-miterlimit="10" />
            <rect fill="#B8BABC" height="0.383" width="23.515" x="95.255" y="406.718" />
        </g>
        <path
            d="&#10;&#9;&#9;M360.345,467.5c0,0-273-1-273,0s0-37.667,0-37.667s12-0.667,14,6c0,0,2.333-8.333,14.333-7c12,1.333,10.667,8,10.667,8&#10;&#9;&#9;s11.667-0.667,14.667,9.667c0,0,6.333,0,7.667,6.667c0,0,1-4.333-1.333-6.667c0,0,10.333-7.667,20,0.333c0,0,2.333-3.667,7-1.667&#10;&#9;&#9;c0,0,4.667-7,12.667-1.333c0,0,0.667-8,12.667-11.667c12-3.667,16,5,16,5s1.333-3.667,5.333-3.667s4.333,3.667,4.333,3.667&#10;&#9;&#9;s5-3,11.333,0s5,6.667,5,6.667s2.333-4.333,7-4c4.667,0.333,5.667,5.333,5.667,5.333s3-6,10.667-4.667&#10;&#9;&#9;c7.667,1.333,7.667,6.667,7.667,6.667s2-2.333,5.667-0.667c3.667,1.667,3,4.333,3,4.333s1.167-3.667,4-3.667&#10;&#9;&#9;c2.833,0,3.333,1.5,3.333,1.5s0.5-2.833,3-3.5c2.5-0.667,4.167,2.167,4.167,2.167s1-3.5,5.167-3.667c4.167-0.167,6.167,5,6.167,5&#10;&#9;&#9;disposable-0.167-4.167,3.833-6.167s9.667,0.333,9.667,0.333s-0.5-3.833,2.833-5.167c3.333-1.333,7.5,2,7.5,2s-0.167-2.167,1.833-2.667&#10;&#9;&#9;s3,1.833,3,1.833s0.5-4.167,5.5-4.667s7.167,5,7.167,5s3-2.833,7.167,1c0,0,1.833-2.833,5.167-0.833L360.345,467.5z"
            fill="#45B986" opacity="0.7" stroke="#00A15C" stroke-linejoin="round"
            stroke-miterlimit="10" />
        <g>
            <rect fill="#DDD9D4" height="53.901" stroke="#CBC6BD" stroke-miterlimit="10"
                width="23.296" x="318.973" y="417.887" />
            <g>
                <path
                    d="M331.687,428.222c0,0.178-0.146,0.324-0.324,0.324h-10.239c-0.178,0-0.324-0.146-0.324-0.324v-7.27&#10;&#9;&#9;&#9;&#9;c0-0.178,0.146-0.324,0.324-0.324h10.239c0.178,0,0.324,0.146,0.324,0.324V428.222z"
                    fill="#FFFFFF" />
                <path
                    d="M331.687,428.222c0,0.178-0.146,0.324-0.324,0.324h-10.239&#10;&#9;&#9;&#9;&#9;c-0.178,0-0.324-0.146-0.324-0.324v-7.27c0-0.178,0.146-0.324,0.324-0.324h10.239c0.178,0,0.324,0.146,0.324,0.324V428.222z"
                    fill="none" stroke="#B6B8BA" stroke-miterlimit="10" />
            </g>
            <path
                d="M323.236,427.08c0,0.178-0.146,0.324-0.324,0.324h-1.256c-0.178,0-0.324-0.146-0.324-0.324v-5.291&#10;&#9;&#9;&#9;c0-0.178,0.146-0.324,0.324-0.324h1.256c0.178,0,0.324,0.146,0.324,0.324V427.08z"
                fill="#A0DCEF" />
            <path
                d="M325.825,427.08c0,0.178-0.146,0.324-0.324,0.324h-1.256c-0.178,0-0.324-0.146-0.324-0.324v-5.291&#10;&#9;&#9;&#9;c0-0.178,0.146-0.324,0.324-0.324h1.256c0.178,0,0.324,0.146,0.324,0.324V427.08z"
                fill="#A0DCEF" />
            <path
                d="M328.413,427.08c0,0.178-0.146,0.324-0.324,0.324h-1.256c-0.178,0-0.324-0.146-0.324-0.324v-5.291&#10;&#9;&#9;&#9;c0-0.178,0.146-0.324,0.324-0.324h1.256c0.178,0,0.324,0.146,0.324,0.324V427.08z"
                fill="#A0DCEF" />
            <g>
                <g>
                    <path
                        d="M340.823,428.23c0,0.173-0.079,0.315-0.177,0.315h-5.585c-0.097,0-0.177-0.142-0.177-0.315v-7.078&#10;&#9;&#9;&#9;&#9;&#9;c0-0.173,0.079-0.315,0.177-0.315h5.585c0.097,0,0.177,0.142,0.177,0.315V428.23z"
                        fill="#FFFFFF" />
                    <path
                        d="M340.823,428.23c0,0.173-0.079,0.315-0.177,0.315h-5.585&#10;&#9;&#9;&#9;&#9;&#9;c-0.097,0-0.177-0.142-0.177-0.315v-7.078c0-0.173,0.079-0.315,0.177-0.315h5.585c0.097,0,0.177,0.142,0.177,0.315V428.23z"
                        fill="none" stroke="#B6B8BA" stroke-miterlimit="10" />
                </g>
                <path
                    d="M337.321,427.08c0,0.178-0.146,0.324-0.324,0.324h-1.256c-0.178,0-0.324-0.146-0.324-0.324v-5.291&#10;&#9;&#9;&#9;&#9;c0-0.178,0.146-0.324,0.324-0.324h1.256c0.178,0,0.324,0.146,0.324,0.324V427.08z"
                    fill="#A0DCEF" />
                <path
                    d="M338.006,423.521v3.559c0,0.178,0.146,0.324,0.324,0.324h1.256c0.178,0,0.324-0.146,0.324-0.324v-3.559&#10;&#9;&#9;&#9;&#9;H338.006z"
                    fill="#A0DCEF" />
                <path
                    d="M339.909,422.835v-1.047c0-0.178-0.146-0.324-0.324-0.324h-1.256c-0.178,0-0.324,0.146-0.324,0.324v1.047&#10;&#9;&#9;&#9;&#9;H339.909z"
                    fill="#A0DCEF" />
            </g>
            <g>
                <g>
                    <path
                        d="M340.633,441.782c0,0.173-0.079,0.315-0.177,0.315h-5.585c-0.097,0-0.177-0.142-0.177-0.315v-7.078&#10;&#9;&#9;&#9;&#9;&#9;c0-0.173,0.079-0.315,0.177-0.315h5.585c0.097,0,0.177,0.142,0.177,0.315V441.782z"
                        fill="#FFFFFF" />
                    <path
                        d="M340.633,441.782c0,0.173-0.079,0.315-0.177,0.315h-5.585&#10;&#9;&#9;&#9;&#9;&#9;c-0.097,0-0.177-0.142-0.177-0.315v-7.078c0-0.173,0.079-0.315,0.177-0.315h5.585c0.097,0,0.177,0.142,0.177,0.315V441.782z"
                        fill="none" stroke="#B6B8BA" stroke-miterlimit="10" />
                </g>
                <path
                    d="M337.13,440.631c0,0.178-0.146,0.324-0.324,0.324h-1.256c-0.178,0-0.324-0.146-0.324-0.324v-5.291&#10;&#9;&#9;&#9;&#9;c0-0.178,0.146-0.324,0.324-0.324h1.256c0.178,0,0.324,0.146,0.324,0.324V440.631z"
                    fill="#A0DCEF" />
                <path
                    d="M337.816,437.072v3.559c0,0.178,0.146,0.324,0.324,0.324h1.256c0.178,0,0.324-0.146,0.324-0.324v-3.559&#10;&#9;&#9;&#9;&#9;H337.816z"
                    fill="#A0DCEF" />
                <path
                    d="M339.719,436.387v-1.047c0-0.178-0.146-0.324-0.324-0.324h-1.256c-0.178,0-0.324,0.146-0.324,0.324v1.047&#10;&#9;&#9;&#9;&#9;H339.719z"
                    fill="#A0DCEF" />
            </g>
            <g>
                <g>
                    <path
                        d="M340.823,455.333c0,0.173-0.079,0.315-0.177,0.315h-5.585c-0.097,0-0.177-0.142-0.177-0.315v-7.078&#10;&#9;&#9;&#9;&#9;&#9;c0-0.173,0.079-0.315,0.177-0.315h5.585c0.097,0,0.177,0.142,0.177,0.315V455.333z"
                        fill="#FFFFFF" />
                    <path
                        d="M340.823,455.333c0,0.173-0.079,0.315-0.177,0.315h-5.585&#10;&#9;&#9;&#9;&#9;&#9;c-0.097,0-0.177-0.142-0.177-0.315v-7.078c0-0.173,0.079-0.315,0.177-0.315h5.585c0.097,0,0.177,0.142,0.177,0.315V455.333z"
                        fill="none" stroke="#B6B8BA" stroke-miterlimit="10" />
                </g>
                <path
                    d="M337.321,454.182c0,0.178-0.146,0.324-0.324,0.324h-1.256c-0.178,0-0.324-0.146-0.324-0.324v-5.291&#10;&#9;&#9;&#9;&#9;c0-0.178,0.146-0.324,0.324-0.324h1.256c0.178,0,0.324,0.146,0.324,0.324V454.182z"
                    fill="#A0DCEF" />
                <path
                    d="M338.006,450.623v3.559c0,0.178,0.146,0.324,0.324,0.324h1.256c0.178,0,0.324-0.146,0.324-0.324v-3.559&#10;&#9;&#9;&#9;&#9;H338.006z"
                    fill="#A0DCEF" />
                <path
                    d="M339.909,449.938v-1.047c0-0.178-0.146-0.324-0.324-0.324h-1.256c-0.178,0-0.324,0.146-0.324,0.324v1.047&#10;&#9;&#9;&#9;&#9;H339.909z"
                    fill="#A0DCEF" />
            </g>
            <g>
                <g>
                    <path
                        d="M340.594,469.113c0,0.173-0.079,0.315-0.177,0.315h-5.585c-0.097,0-0.177-0.142-0.177-0.315v-7.078&#10;&#9;&#9;&#9;&#9;&#9;c0-0.173,0.079-0.315,0.177-0.315h5.585c0.097,0,0.177,0.142,0.177,0.315V469.113z"
                        fill="#FFFFFF" />
                    <path
                        d="M340.594,469.113c0,0.173-0.079,0.315-0.177,0.315h-5.585&#10;&#9;&#9;&#9;&#9;&#9;c-0.097,0-0.177-0.142-0.177-0.315v-7.078c0-0.173,0.079-0.315,0.177-0.315h5.585c0.097,0,0.177,0.142,0.177,0.315V469.113z"
                        fill="none" stroke="#B6B8BA" stroke-miterlimit="10" />
                </g>
                <path
                    d="M337.092,467.962c0,0.178-0.146,0.324-0.324,0.324h-1.256c-0.178,0-0.324-0.146-0.324-0.324v-5.291&#10;&#9;&#9;&#9;&#9;c0-0.178,0.146-0.324,0.324-0.324h1.256c0.178,0,0.324,0.146,0.324,0.324V467.962z"
                    fill="#A0DCEF" />
                <path
                    d="M337.778,464.403v3.559c0,0.178,0.146,0.324,0.324,0.324h1.256c0.178,0,0.324-0.146,0.324-0.324v-3.559&#10;&#9;&#9;&#9;&#9;H337.778z"
                    fill="#A0DCEF" />
                <path
                    d="M339.681,463.718v-1.047c0-0.178-0.146-0.324-0.324-0.324h-1.256c-0.178,0-0.324,0.146-0.324,0.324v1.047&#10;&#9;&#9;&#9;&#9;H339.681z"
                    fill="#A0DCEF" />
            </g>
            <path
                d="M331.002,427.08c0,0.178-0.146,0.324-0.324,0.324h-1.256c-0.178,0-0.324-0.146-0.324-0.324v-5.291&#10;&#9;&#9;&#9;c0-0.178,0.146-0.324,0.324-0.324h1.256c0.178,0,0.324,0.146,0.324,0.324V427.08z"
                fill="#A0DCEF" />
            <g>
                <path
                    d="M331.687,441.849c0,0.178-0.146,0.324-0.324,0.324h-10.239c-0.178,0-0.324-0.146-0.324-0.324v-7.27&#10;&#9;&#9;&#9;&#9;c0-0.178,0.146-0.324,0.324-0.324h10.239c0.178,0,0.324,0.146,0.324,0.324V441.849z"
                    fill="#FFFFFF" />
                <path
                    d="M331.687,441.849c0,0.178-0.146,0.324-0.324,0.324h-10.239&#10;&#9;&#9;&#9;&#9;c-0.178,0-0.324-0.146-0.324-0.324v-7.27c0-0.178,0.146-0.324,0.324-0.324h10.239c0.178,0,0.324,0.146,0.324,0.324V441.849z"
                    fill="none" stroke="#B6B8BA" stroke-miterlimit="10" />
            </g>
            <path
                d="M323.236,440.707c0,0.178-0.146,0.324-0.324,0.324h-1.256c-0.178,0-0.324-0.146-0.324-0.324v-5.291&#10;&#9;&#9;&#9;c0-0.178,0.146-0.324,0.324-0.324h1.256c0.178,0,0.324,0.146,0.324,0.324V440.707z"
                fill="#A0DCEF" />
            <path
                d="M325.825,440.707c0,0.178-0.146,0.324-0.324,0.324h-1.256c-0.178,0-0.324-0.146-0.324-0.324v-5.291&#10;&#9;&#9;&#9;c0-0.178,0.146-0.324,0.324-0.324h1.256c0.178,0,0.324,0.146,0.324,0.324V440.707z"
                fill="#A0DCEF" />
            <path
                d="M328.413,440.707c0,0.178-0.146,0.324-0.324,0.324h-1.256c-0.178,0-0.324-0.146-0.324-0.324v-5.291&#10;&#9;&#9;&#9;c0-0.178,0.146-0.324,0.324-0.324h1.256c0.178,0,0.324,0.146,0.324,0.324V440.707z"
                fill="#A0DCEF" />
            <path
                d="M331.002,440.707c0,0.178-0.146,0.324-0.324,0.324h-1.256c-0.178,0-0.324-0.146-0.324-0.324v-5.291&#10;&#9;&#9;&#9;c0-0.178,0.146-0.324,0.324-0.324h1.256c0.178,0,0.324,0.146,0.324,0.324V440.707z"
                fill="#A0DCEF" />
            <g>
                <path
                    d="M331.687,455.477c0,0.178-0.146,0.324-0.324,0.324h-10.239c-0.178,0-0.324-0.146-0.324-0.324v-7.27&#10;&#9;&#9;&#9;&#9;c0-0.178,0.146-0.324,0.324-0.324h10.239c0.178,0,0.324,0.146,0.324,0.324V455.477z"
                    fill="#FFFFFF" />
                <path
                    d="M331.687,455.477c0,0.178-0.146,0.324-0.324,0.324h-10.239&#10;&#9;&#9;&#9;&#9;c-0.178,0-0.324-0.146-0.324-0.324v-7.27c0-0.178,0.146-0.324,0.324-0.324h10.239c0.178,0,0.324,0.146,0.324,0.324V455.477z"
                    fill="none" stroke="#B6B8BA" stroke-miterlimit="10" />
            </g>
            <path
                d="M323.236,454.335c0,0.178-0.146,0.324-0.324,0.324h-1.256c-0.178,0-0.324-0.146-0.324-0.324v-5.291&#10;&#9;&#9;&#9;c0-0.178,0.146-0.324,0.324-0.324h1.256c0.178,0,0.324,0.146,0.324,0.324V454.335z"
                fill="#A0DCEF" />
            <path
                d="M325.825,454.335c0,0.178-0.146,0.324-0.324,0.324h-1.256c-0.178,0-0.324-0.146-0.324-0.324v-5.291&#10;&#9;&#9;&#9;c0-0.178,0.146-0.324,0.324-0.324h1.256c0.178,0,0.324,0.146,0.324,0.324V454.335z"
                fill="#A0DCEF" />
            <path
                d="M328.413,454.335c0,0.178-0.146,0.324-0.324,0.324h-1.256c-0.178,0-0.324-0.146-0.324-0.324v-5.291&#10;&#9;&#9;&#9;c0-0.178,0.146-0.324,0.324-0.324h1.256c0.178,0,0.324,0.146,0.324,0.324V454.335z"
                fill="#A0DCEF" />
            <path
                d="M331.002,454.335c0,0.178-0.146,0.324-0.324,0.324h-1.256c-0.178,0-0.324-0.146-0.324-0.324v-5.291&#10;&#9;&#9;&#9;c0-0.178,0.146-0.324,0.324-0.324h1.256c0.178,0,0.324,0.146,0.324,0.324V454.335z"
                fill="#A0DCEF" />
            <g>
                <path
                    d="M331.687,469.104c0,0.178-0.146,0.324-0.324,0.324h-10.239c-0.178,0-0.324-0.146-0.324-0.324v-7.27&#10;&#9;&#9;&#9;&#9;c0-0.178,0.146-0.324,0.324-0.324h10.239c0.178,0,0.324,0.146,0.324,0.324V469.104z"
                    fill="#FFFFFF" />
                <path
                    d="M331.687,469.104c0,0.178-0.146,0.324-0.324,0.324h-10.239&#10;&#9;&#9;&#9;&#9;c-0.178,0-0.324-0.146-0.324-0.324v-7.27c0-0.178,0.146-0.324,0.324-0.324h10.239c0.178,0,0.324,0.146,0.324,0.324V469.104z"
                    fill="none" stroke="#B6B8BA" stroke-miterlimit="10" />
            </g>
            <path
                d="M323.236,467.962c0,0.178-0.146,0.324-0.324,0.324h-1.256c-0.178,0-0.324-0.146-0.324-0.324v-5.291&#10;&#9;&#9;&#9;c0-0.178,0.146-0.324,0.324-0.324h1.256c0.178,0,0.324,0.146,0.324,0.324V467.962z"
                fill="#A0DCEF" />
            <path
                d="M325.825,467.962c0,0.178-0.146,0.324-0.324,0.324h-1.256c-0.178,0-0.324-0.146-0.324-0.324v-5.291&#10;&#9;&#9;&#9;c0-0.178,0.146-0.324,0.324-0.324h1.256c0.178,0,0.324,0.146,0.324,0.324V467.962z"
                fill="#A0DCEF" />
            <path
                d="M328.413,467.962c0,0.178-0.146,0.324-0.324,0.324h-1.256c-0.178,0-0.324-0.146-0.324-0.324v-5.291&#10;&#9;&#9;&#9;c0-0.178,0.146-0.324,0.324-0.324h1.256c0.178,0,0.324,0.146,0.324,0.324V467.962z"
                fill="#A0DCEF" />
            <path
                d="M331.002,467.962c0,0.178-0.146,0.324-0.324,0.324h-1.256c-0.178,0-0.324-0.146-0.324-0.324v-5.291&#10;&#9;&#9;&#9;c0-0.178,0.146-0.324,0.324-0.324h1.256c0.178,0,0.324,0.146,0.324,0.324V467.962z"
                fill="#A0DCEF" />
            <polygon fill="#ECE5E6"
                points="317.679,416.212 &#10;&#9;&#9;&#9;318.973,417.887 342.269,417.887 342.269,416.212 &#9;&#9;"
                stroke="#B8BABC" stroke-linejoin="round" stroke-miterlimit="10" />
            <rect fill="#B8BABC" height="0.381" width="23.372" x="318.973" y="417.887" />
        </g>
        <path
            d="&#10;&#9;&#9;M87.179,480.667c0,0,273-1,273,0s0-37.667,0-37.667s-12-0.667-14,6c0,0-2.333-8.333-14.333-7s-10.667,8-10.667,8&#10;&#9;&#9;disposable-11.667-0.667-14.667,9.667c0,0-6.333,0-7.667,6.667c0,0-1-4.333,1.333-6.667c0,0-10.333-7.667-20,0.333c0,0-2.333-3.667-7-1.667&#10;&#9;&#9;c0,0-4.667-7-12.667-1.333c0,0-0.667-8-12.667-11.667c-12-3.667-16,5-16,5s-1.333-3.667-5.333-3.667s-4.333,3.667-4.333,3.667&#10;&#9;&#9;disposable-5-3-11.333,0c-6.333,3-5,6.667-5,6.667s-2.333-4.333-7-4c-4.667,0.333-5.667,5.333-5.667,5.333s-3-6-10.667-4.667&#10;&#9;&#9;c-7.667,1.333-7.667,6.667-7.667,6.667s-2-2.333-5.667-0.667c-3.667,1.667-3,4.333-3,4.333s-1.167-3.667-4-3.667&#10;&#9;&#9;disposable-3.333,1.5-3.333,1.5s-0.5-2.833-3-3.5c-2.5-0.667-4.167,2.167-4.167,2.167s-1-3.5-5.167-3.667c-4.167-0.167-6.167,5-6.167,5&#10;&#9;&#9;s0.167-4.167-3.833-6.167S126.845,456,126.845,456s0.5-3.833-2.833-5.167c-3.333-1.333-7.5,2-7.5,2s0.167-2.167-1.833-2.667&#10;&#9;&#9;disposable-3,1.833-3,1.833s-0.5-4.167-5.5-4.667s-7.167,5-7.167,5s-3-2.833-7.167,1c0,0-1.833-2.833-5.167-0.833L87.179,480.667z"
            fill="#45B986" stroke="#00A15C" stroke-linejoin="round" stroke-miterlimit="10" />
        <g>
            <path
                d="M148.567,542.111&#10;&#9;&#9;&#9;c-0.191,0.224-0.493,0.406-0.675,0.406h-17.008c-0.182,0-0.174-0.182,0.016-0.406l2.391-2.807&#10;&#9;&#9;&#9;c0.191-0.224,0.493-0.406,0.675-0.406h17.008c0.182,0,0.174,0.182-0.016,0.406L148.567,542.111z"
                fill="#E0E2DC" stroke="#95918B" stroke-miterlimit="10" stroke-width="0.5" />
            <path
                d="M130.567,542.111&#10;&#9;&#9;&#9;c-0.191,0.224-0.493,0.406-0.675,0.406h-17.008c-0.182,0-0.174-0.182,0.016-0.406l2.391-2.807&#10;&#9;&#9;&#9;c0.191-0.224,0.493-0.406,0.675-0.406h17.008c0.182,0,0.174,0.182-0.016,0.406L130.567,542.111z"
                fill="#E0E2DC" stroke="#95918B" stroke-miterlimit="10" stroke-width="0.5" />
            <path
                d="M112.567,542.111&#10;&#9;&#9;&#9;c-0.191,0.224-0.493,0.406-0.675,0.406H94.884c-0.182,0-0.174-0.182,0.016-0.406l2.391-2.807c0.191-0.224,0.493-0.406,0.675-0.406&#10;&#9;&#9;&#9;h17.008c0.182,0,0.174,0.182-0.016,0.406L112.567,542.111z"
                fill="#E0E2DC" stroke="#95918B" stroke-miterlimit="10" stroke-width="0.5" />
            <path
                d="M94.567,542.111&#10;&#9;&#9;&#9;c-0.191,0.224-0.493,0.406-0.675,0.406H76.884c-0.182,0-0.174-0.182,0.016-0.406l2.391-2.807c0.191-0.224,0.493-0.406,0.675-0.406&#10;&#9;&#9;&#9;h17.008c0.182,0,0.174,0.182-0.016,0.406L94.567,542.111z"
                fill="#E0E2DC" stroke="#95918B" stroke-miterlimit="10" stroke-width="0.5" />
            <path
                d="M76.567,542.111&#10;&#9;&#9;&#9;c-0.191,0.224-0.493,0.406-0.675,0.406H58.884c-0.182,0-0.174-0.182,0.016-0.406l2.391-2.807c0.191-0.224,0.493-0.406,0.675-0.406&#10;&#9;&#9;&#9;h17.008c0.182,0,0.174,0.182-0.016,0.406L76.567,542.111z"
                fill="#E0E2DC" stroke="#95918B" stroke-miterlimit="10" stroke-width="0.5" />
            <path
                d="M58.567,542.111&#10;&#9;&#9;&#9;c-0.191,0.224-0.493,0.406-0.675,0.406H40.884c-0.182,0-0.174-0.182,0.016-0.406l2.391-2.807c0.191-0.224,0.493-0.406,0.675-0.406&#10;&#9;&#9;&#9;h17.008c0.182,0,0.174,0.182-0.016,0.406L58.567,542.111z"
                fill="#E0E2DC" stroke="#95918B" stroke-miterlimit="10" stroke-width="0.5" />
            <path
                d="M42.974,538.898H25.966&#10;&#9;&#9;&#9;c-0.182,0-0.484,0.182-0.675,0.406l-0.279,0.327v2.885h14.88c0.182,0,0.484-0.182,0.675-0.406l2.391-2.807&#10;&#9;&#9;&#9;C43.148,539.08,43.156,538.898,42.974,538.898z"
                fill="#E0E2DC" stroke="#95918B" stroke-miterlimit="10" stroke-width="0.5" />
            <path
                d="M148.494,542.988&#10;&#9;&#9;&#9;c-0.003-0.201-0.153-0.365-0.335-0.365h-17.008c-0.182,0-0.327,0.163-0.324,0.365l0.037,2.522&#10;&#9;&#9;&#9;c0.003,0.201,0.153,0.365,0.335,0.365h17.008c0.182,0,0.327-0.163,0.324-0.365L148.494,542.988z"
                fill="#7C7E7D" stroke="#95918B" stroke-miterlimit="10" stroke-width="0.5" />
            <path
                d="M151.298,539.246&#10;&#9;&#9;&#9;c-0.001-0.201-0.026-0.332-0.056-0.294l-2.86,3.603c-0.031,0.039-0.055,0.232-0.054,0.433l0.006,2.515&#10;&#9;&#9;&#9;c0,0.201,0.026,0.332,0.056,0.294l2.86-3.603c0.031-0.039,0.055-0.232,0.054-0.433L151.298,539.246z"
                fill="#7C7E7D" stroke="#95918B" stroke-miterlimit="10" stroke-width="0.5" />
            <path
                d="M130.494,542.988&#10;&#9;&#9;&#9;c-0.003-0.201-0.153-0.365-0.335-0.365h-17.008c-0.182,0-0.327,0.163-0.324,0.365l0.037,2.522&#10;&#9;&#9;&#9;c0.003,0.201,0.153,0.365,0.335,0.365h17.008c0.182,0,0.327-0.163,0.324-0.365L130.494,542.988z"
                fill="#7C7E7D" stroke="#95918B" stroke-miterlimit="10" stroke-width="0.5" />
            <path
                d="M112.494,542.988&#10;&#9;&#9;&#9;c-0.003-0.201-0.153-0.365-0.335-0.365H95.151c-0.182,0-0.327,0.163-0.324,0.365l0.037,2.522c0.003,0.201,0.153,0.365,0.335,0.365&#10;&#9;&#9;&#9;h17.008c0.182,0,0.327-0.163,0.324-0.365L112.494,542.988z"
                fill="#7C7E7D" stroke="#95918B" stroke-miterlimit="10" stroke-width="0.5" />
            <path
                d="M94.494,542.988&#10;&#9;&#9;&#9;c-0.003-0.201-0.153-0.365-0.335-0.365H77.151c-0.182,0-0.327,0.163-0.324,0.365l0.037,2.522c0.003,0.201,0.153,0.365,0.335,0.365&#10;&#9;&#9;&#9;h17.008c0.182,0,0.327-0.163,0.324-0.365L94.494,542.988z"
                fill="#7C7E7D" stroke="#95918B" stroke-miterlimit="10" stroke-width="0.5" />
            <path
                d="M76.494,542.988&#10;&#9;&#9;&#9;c-0.003-0.201-0.153-0.365-0.335-0.365H59.151c-0.182,0-0.327,0.163-0.324,0.365l0.037,2.522c0.003,0.201,0.153,0.365,0.335,0.365&#10;&#9;&#9;&#9;h17.008c0.182,0,0.327-0.163,0.324-0.365L76.494,542.988z"
                fill="#7C7E7D" stroke="#95918B" stroke-miterlimit="10" stroke-width="0.5" />
            <path
                d="M58.494,542.988&#10;&#9;&#9;&#9;c-0.003-0.201-0.153-0.365-0.335-0.365H41.151c-0.182,0-0.327,0.163-0.324,0.365l0.037,2.522c0.003,0.201,0.153,0.365,0.335,0.365&#10;&#9;&#9;&#9;h17.008c0.182,0,0.327-0.163,0.324-0.365L58.494,542.988z"
                fill="#7C7E7D" stroke="#95918B" stroke-miterlimit="10" stroke-width="0.5" />
            <path
                d="M40.494,542.988&#10;&#9;&#9;&#9;c-0.003-0.201-0.153-0.365-0.334-0.365h-14.88l-0.434,0.465v2.787h15.361c0.182,0,0.327-0.163,0.324-0.365L40.494,542.988z"
                fill="#7C7E7D" stroke="#95918B" stroke-miterlimit="10" stroke-width="0.5" />
            <path
                d="M269.499,542.111&#10;&#9;&#9;&#9;c0.191,0.224,0.493,0.406,0.675,0.406h17.008c0.182,0,0.174-0.182-0.016-0.406l-2.391-2.807c-0.191-0.224-0.493-0.406-0.675-0.406&#10;&#9;&#9;&#9;h-17.008c-0.182,0-0.174,0.182,0.016,0.406L269.499,542.111z"
                fill="#E0E2DC" stroke="#95918B" stroke-miterlimit="10" stroke-width="0.5" />
            <path
                d="M287.499,542.111&#10;&#9;&#9;&#9;c0.191,0.224,0.493,0.406,0.675,0.406h17.008c0.182,0,0.174-0.182-0.016-0.406l-2.391-2.807c-0.191-0.224-0.493-0.406-0.675-0.406&#10;&#9;&#9;&#9;h-17.008c-0.182,0-0.174,0.182,0.016,0.406L287.499,542.111z"
                fill="#E0E2DC" stroke="#95918B" stroke-miterlimit="10" stroke-width="0.5" />
            <path
                d="M305.499,542.111&#10;&#9;&#9;&#9;c0.191,0.224,0.493,0.406,0.675,0.406h17.008c0.182,0,0.174-0.182-0.016-0.406l-2.391-2.807c-0.191-0.224-0.493-0.406-0.675-0.406&#10;&#9;&#9;&#9;h-17.008c-0.182,0-0.174,0.182,0.016,0.406L305.499,542.111z"
                fill="#E0E2DC" stroke="#95918B" stroke-miterlimit="10" stroke-width="0.5" />
            <path
                d="M323.499,542.111&#10;&#9;&#9;&#9;c0.191,0.224,0.493,0.406,0.675,0.406h17.008c0.182,0,0.174-0.182-0.016-0.406l-2.391-2.807c-0.191-0.224-0.493-0.406-0.675-0.406&#10;&#9;&#9;&#9;h-17.008c-0.182,0-0.174,0.182,0.016,0.406L323.499,542.111z"
                fill="#E0E2DC" stroke="#95918B" stroke-miterlimit="10" stroke-width="0.5" />
            <path
                d="M341.499,542.111&#10;&#9;&#9;&#9;c0.191,0.224,0.493,0.406,0.675,0.406h17.008c0.182,0,0.174-0.182-0.016-0.406l-2.391-2.807c-0.191-0.224-0.493-0.406-0.675-0.406&#10;&#9;&#9;&#9;h-17.008c-0.182,0-0.174,0.182,0.016,0.406L341.499,542.111z"
                fill="#E0E2DC" stroke="#95918B" stroke-miterlimit="10" stroke-width="0.5" />
            <path
                d="M359.499,542.111&#10;&#9;&#9;&#9;c0.191,0.224,0.493,0.406,0.675,0.406h17.008c0.182,0,0.174-0.182-0.016-0.406l-2.391-2.807c-0.191-0.224-0.493-0.406-0.675-0.406&#10;&#9;&#9;&#9;h-17.008c-0.182,0-0.174,0.182,0.016,0.406L359.499,542.111z"
                fill="#E0E2DC" stroke="#95918B" stroke-miterlimit="10" stroke-width="0.5" />
            <path
                d="M375.092,538.898H392.1&#10;&#9;&#9;&#9;c0.182,0,0.484,0.182,0.675,0.406l0.279,0.327v2.885h-14.88c-0.182,0-0.484-0.182-0.675-0.406l-2.391-2.807&#10;&#9;&#9;&#9;C374.918,539.08,374.91,538.898,375.092,538.898z"
                fill="#E0E2DC" stroke="#95918B" stroke-miterlimit="10" stroke-width="0.5" />
            <path
                d="M269.572,542.988&#10;&#9;&#9;&#9;c0.003-0.201,0.153-0.365,0.335-0.365h17.008c0.182,0,0.327,0.163,0.324,0.365l-0.037,2.522c-0.003,0.201-0.153,0.365-0.335,0.365&#10;&#9;&#9;&#9;h-17.008c-0.182,0-0.327-0.163-0.324-0.365L269.572,542.988z"
                fill="#7C7E7D" stroke="#95918B" stroke-miterlimit="10" stroke-width="0.5" />
            <path
                d="M266.768,539.246&#10;&#9;&#9;&#9;c0-0.201,0.026-0.332,0.056-0.294l2.86,3.603c0.031,0.039,0.055,0.232,0.054,0.433l-0.006,2.515&#10;&#9;&#9;&#9;c-0.001,0.201-0.026,0.332-0.056,0.294l-2.86-3.603c-0.031-0.039-0.055-0.232-0.054-0.433L266.768,539.246z"
                fill="#7C7E7D" stroke="#95918B" stroke-miterlimit="10" stroke-width="0.5" />
            <path
                d="M287.572,542.988&#10;&#9;&#9;&#9;c0.003-0.201,0.153-0.365,0.335-0.365h17.008c0.182,0,0.327,0.163,0.324,0.365l-0.037,2.522c-0.003,0.201-0.153,0.365-0.335,0.365&#10;&#9;&#9;&#9;h-17.008c-0.182,0-0.327-0.163-0.324-0.365L287.572,542.988z"
                fill="#7C7E7D" stroke="#95918B" stroke-miterlimit="10" stroke-width="0.5" />
            <path
                d="M305.572,542.988&#10;&#9;&#9;&#9;c0.003-0.201,0.153-0.365,0.335-0.365h17.008c0.182,0,0.327,0.163,0.324,0.365l-0.037,2.522c-0.003,0.201-0.153,0.365-0.335,0.365&#10;&#9;&#9;&#9;h-17.008c-0.182,0-0.327-0.163-0.324-0.365L305.572,542.988z"
                fill="#7C7E7D" stroke="#95918B" stroke-miterlimit="10" stroke-width="0.5" />
            <path
                d="M323.572,542.988&#10;&#9;&#9;&#9;c0.003-0.201,0.153-0.365,0.335-0.365h17.008c0.182,0,0.327,0.163,0.324,0.365l-0.037,2.522c-0.003,0.201-0.153,0.365-0.335,0.365&#10;&#9;&#9;&#9;h-17.008c-0.182,0-0.327-0.163-0.324-0.365L323.572,542.988z"
                fill="#7C7E7D" stroke="#95918B" stroke-miterlimit="10" stroke-width="0.5" />
            <path
                d="M341.572,542.988&#10;&#9;&#9;&#9;c0.003-0.201,0.153-0.365,0.335-0.365h17.008c0.182,0,0.327,0.163,0.324,0.365l-0.037,2.522c-0.003,0.201-0.153,0.365-0.335,0.365&#10;&#9;&#9;&#9;h-17.008c-0.182,0-0.327-0.163-0.324-0.365L341.572,542.988z"
                fill="#7C7E7D" stroke="#95918B" stroke-miterlimit="10" stroke-width="0.5" />
            <path
                d="M359.572,542.988&#10;&#9;&#9;&#9;c0.003-0.201,0.153-0.365,0.335-0.365h17.008c0.182,0,0.327,0.163,0.324,0.365l-0.037,2.522c-0.003,0.201-0.153,0.365-0.335,0.365&#10;&#9;&#9;&#9;h-17.008c-0.182,0-0.327-0.163-0.324-0.365L359.572,542.988z"
                fill="#7C7E7D" stroke="#95918B" stroke-miterlimit="10" stroke-width="0.5" />
            <path
                d="M377.572,542.988&#10;&#9;&#9;&#9;c0.003-0.201,0.153-0.365,0.334-0.365h14.88l0.434,0.465v2.787h-15.361c-0.182,0-0.327-0.163-0.324-0.365L377.572,542.988z"
                fill="#7C7E7D" stroke="#95918B" stroke-miterlimit="10" stroke-width="0.5" />
        </g>
        <path
            d="M316.462,666.674c1.184,2.525,0.467,4.618-1.627,4.618H111.3&#10;&#9;&#9;c-2.095,0-2.693-2.092-1.365-4.618l14.126-26.873c0.984-1.871,3.185-3.36,4.936-3.36h170.119c1.751,0,3.868,1.489,4.745,3.36&#10;&#9;&#9;L316.462,666.674z"
            fill="#FFFFFF" />
        <path
            d="M102.621,661.551c-2.992,5.327-5.507,9.741-5.551,9.741h-4.218&#10;&#9;&#9;c-0.043,0,2.444-4.414,5.489-9.741l32.399-56.688c2.256-3.947,4.08-7.088,4.117-7.088h3.525c0.036,0-1.699,3.141-3.916,7.088&#10;&#9;&#9;L102.621,661.551z"
            fill="#FFFFFF" />
        <path
            d="M291.363,583.739c1.884,3.059,3.467,5.595,3.494,5.595h2.655&#10;&#9;&#9;c0.027,0-1.539-2.535-3.455-5.595l-20.395-32.56c-1.42-2.267-2.569-4.071-2.591-4.071h-2.219c-0.023,0,1.069,1.804,2.465,4.071&#10;&#9;&#9;L291.363,583.739z"
            fill="#FFFFFF" />
        <path
            d="M293.486,617.674c0.689,1.47-0.033,2.681-1.625,2.681H137.165&#10;&#9;&#9;c-1.592,0-2.246-1.212-1.473-2.681l8.506-16.181c0.612-1.165,2.224-2.095,3.609-2.095h134.6c1.385,0,2.944,0.93,3.491,2.095&#10;&#9;&#9;L293.486,617.674z"
            fill="#FFFFFF" />
        <path
            d="M279.282,587.383c0.45,0.96-0.22,1.75-1.504,1.75H153.02&#10;&#9;&#9;c-1.284,0-1.91-0.789-1.405-1.75l5.678-10.803c0.417-0.794,1.681-1.43,2.827-1.43h111.352c1.146,0,2.373,0.636,2.746,1.43&#10;&#9;&#9;L279.282,587.383z"
            fill="#FFFFFF" />
        <path
            d="M269.633,566.805c0.317,0.676-0.295,1.231-1.371,1.231h-104.53&#10;&#9;&#9;c-1.076,0-1.656-0.555-1.301-1.231l4.059-7.721c0.303-0.576,1.338-1.038,2.315-1.038h94.951c0.977,0,1.986,0.462,2.256,1.038&#10;&#9;&#9;L269.633,566.805z"
            fill="#FFFFFF" />
        <path
            d="M262.65,551.913c0.235,0.502-0.322,0.913-1.248,0.913h-89.946&#10;&#9;&#9;c-0.926,0-1.46-0.411-1.196-0.913l3.045-5.792c0.23-0.437,1.104-0.788,1.956-0.788h82.762c0.852,0,1.707,0.351,1.911,0.788&#10;&#9;&#9;L262.65,551.913z"
            fill="#FFFFFF" />
        <g>
            <path
                d="M298.233,529.833c0,1.749-1.418,3.167-3.167,3.167l0,0&#10;&#9;&#9;&#9;c-1.749,0-3.167-1.418-3.167-3.167v-78c0-1.749,1.418-3.167,3.167-3.167l0,0c1.749,0,3.167,1.418,3.167,3.167V529.833z"
                stroke="#95918B" stroke-miterlimit="10" stroke-width="0.5" />
            <path
                d="M292.012,530c0,0,1,0.833,3.167,0.667&#10;&#9;&#9;&#9;c2.167-0.167,3-1.167,3-1.167l3.667,3.667c0,0-2.667,2.667-6.333,2.667c-4.503,0-7-2.167-7-2.167L292.012,530z"
                stroke="#95918B" stroke-miterlimit="10" stroke-width="0.5" />
            <path
                d="M310.4,448c0,2.209-1.791,4-4,4h-22.667&#10;&#9;&#9;&#9;c-2.209,0-4-1.791-4-4v-50c0-2.209,1.791-4,4-4H306.4c2.209,0,4,1.791,4,4V448z"
                fill="#95918B" stroke="#000000" stroke-miterlimit="10" stroke-width="0.5" />
            <g>
                <circle cx="295.067" cy="410" fill="#BC282F" r="11.333" />
            </g>
            <g>
                <circle cx="295.067" cy="410" fill="none" r="11.333" stroke="#000000"
                    stroke-miterlimit="10" />
            </g>
            <path
                d="M295.274,399.699c0.627,0.024,1.128,0.279,1.403,0.856c0.283,0.592,0.211,1.167-0.186,1.7&#10;&#9;&#9;&#9;c-0.326,0.437-0.278,0.571,0.243,0.722c0.169,0.049,0.34,0.091,0.512,0.126c0.528,0.11,0.948,0.359,1.238,0.837&#10;&#9;&#9;&#9;c0.442,0.729,0.926,1.434,1.362,2.167c0.096,0.162,0.131,0.416,0.083,0.597c-0.22,0.824-0.477,1.638-0.729,2.454&#10;&#9;&#9;&#9;c-0.117,0.378-0.496,0.61-0.807,0.512c-0.348-0.109-0.504-0.401-0.387-0.821c0.185-0.665,0.415-1.317,0.589-1.984&#10;&#9;&#9;&#9;c0.051-0.194,0.029-0.446-0.055-0.627c-0.164-0.35-0.389-0.673-0.601-1c-0.121-0.186-0.304-0.286-0.444-0.046&#10;&#9;&#9;&#9;c-0.355,0.609-0.794,1.196-0.65,1.973c0.269,1.455,0.523,2.914,0.803,4.367c0.346,1.796,0.715,3.587,1.069,5.381&#10;&#9;&#9;&#9;c0.095,0.48,0.186,0.963,0.25,1.448c0.065,0.5-0.222,0.884-0.68,0.961c-0.393,0.066-0.807-0.217-0.908-0.676&#10;&#9;&#9;&#9;c-0.183-0.834-0.334-1.674-0.5-2.512c-0.359-1.809-0.719-3.617-1.077-5.426c-0.048-0.24-0.146-0.437-0.428-0.443&#10;&#9;&#9;&#9;c-0.271-0.006-0.365,0.18-0.407,0.409c-0.12,0.653-0.241,1.307-0.358,1.961c-0.316,1.765-0.628,3.531-0.947,5.295&#10;&#9;&#9;&#9;c-0.051,0.283-0.122,0.563-0.195,0.842c-0.094,0.36-0.478,0.597-0.881,0.556c-0.344-0.035-0.714-0.403-0.698-0.771&#10;&#9;&#9;&#9;c0.019-0.424,0.089-0.848,0.164-1.267c0.474-2.645,0.955-5.288,1.434-7.932c0.136-0.753,0.283-1.504,0.396-2.261&#10;&#9;&#9;&#9;c0.032-0.213,0.01-0.459-0.069-0.659c-0.16-0.407-0.364-0.798-0.57-1.185c-0.156-0.293-0.33-0.307-0.547-0.053&#10;&#9;&#9;&#9;c-0.195,0.229-0.373,0.472-0.556,0.71c-0.216,0.28-0.268,0.581-0.147,0.921c0.223,0.627,0.432,1.259,0.648,1.888&#10;&#9;&#9;&#9;c0.153,0.445,0.018,0.803-0.354,0.938c-0.321,0.117-0.663-0.103-0.809-0.533c-0.279-0.819-0.579-1.633-0.808-2.466&#10;&#9;&#9;&#9;c-0.067-0.242,0.005-0.584,0.136-0.809c0.366-0.626,0.808-1.208,1.198-1.821c0.324-0.51,0.77-0.814,1.358-0.928&#10;&#9;&#9;&#9;c0.185-0.036,0.37-0.078,0.547-0.139c0.421-0.146,0.481-0.351,0.204-0.697c-0.323-0.405-0.451-0.848-0.348-1.367&#10;&#9;&#9;&#9;C293.907,400.174,294.524,399.672,295.274,399.699z"
                fill="#5E0000" />
            <circle cx="295.067" cy="436" fill="#4A9D3E" r="11.333" />
            <path
                d="M293.52,434.236c-0.757,0.712-1.419,1.336-2.083,1.959c-0.235,0.22-0.497,0.324-0.806,0.157&#10;&#9;&#9;&#9;c-0.258-0.139-0.434-0.354-0.363-0.651c0.043-0.18,0.167-0.364,0.302-0.497c0.872-0.857,1.753-1.705,2.64-2.546&#10;&#9;&#9;&#9;c0.242-0.23,0.338-0.456,0.306-0.813c-0.048-0.545-0.019-1.104,0.051-1.648c0.03-0.228,0.239-0.438,0.386-0.643&#10;&#9;&#9;&#9;c0.362-0.507,0.341-0.771-0.11-1.121c-0.681-0.529-0.854-1.436-0.419-2.206c0.372-0.659,1.22-0.967,1.963-0.712&#10;&#9;&#9;&#9;c0.813,0.279,1.301,1.073,1.102,1.907c-0.08,0.336-0.289,0.652-0.482,0.949c-0.241,0.372-0.206,0.58,0.2,0.738&#10;&#9;&#9;&#9;c0.907,0.352,1.501,1.116,2.237,1.691c0.263,0.206,0.497,0.45,0.756,0.661c0.369,0.301,0.593,0.653,0.626,1.154&#10;&#9;&#9;&#9;c0.056,0.843,0.172,1.682,0.259,2.523c0.046,0.446-0.163,0.742-0.549,0.795c-0.393,0.054-0.687-0.201-0.745-0.658&#10;&#9;&#9;&#9;c-0.085-0.679-0.178-1.357-0.237-2.038c-0.038-0.438-0.159-0.795-0.542-1.064c-0.329-0.232-0.612-0.529-0.979-0.854&#10;&#9;&#9;&#9;c-0.025,0.212-0.048,0.313-0.047,0.414c0.005,1.628-0.032,3.259,0.048,4.884c0.023,0.456,0.372,0.906,0.608,1.339&#10;&#9;&#9;&#9;c0.886,1.627,1.786,3.246,2.684,4.867c0.169,0.305,0.36,0.599,0.518,0.909c0.241,0.471,0.11,0.973-0.293,1.201&#10;&#9;&#9;&#9;c-0.392,0.221-0.944,0.096-1.195-0.329c-0.649-1.098-1.277-2.208-1.901-3.32c-0.649-1.159-1.279-2.329-1.927-3.488&#10;&#9;&#9;&#9;c-0.201-0.36-0.522-0.383-0.875-0.066c-0.379,0.341-0.74,0.703-1.111,1.053c-0.225,0.212-0.435,0.445-0.683,0.627&#10;&#9;&#9;&#9;c-0.669,0.492-0.881,1.256-1.209,1.954c-0.479,1.022-0.955,2.045-1.447,3.061c-0.255,0.526-0.68,0.696-1.15,0.499&#10;&#9;&#9;&#9;c-0.444-0.187-0.659-0.716-0.46-1.227c0.151-0.387,0.359-0.751,0.53-1.13c0.409-0.904,0.824-1.806,1.213-2.718&#10;&#9;&#9;&#9;c0.318-0.748,0.82-1.346,1.408-1.889c0.424-0.392,0.812-0.823,1.249-1.199c0.459-0.395,0.65-0.871,0.601-1.462&#10;&#9;&#9;&#9;C293.573,434.982,293.552,434.665,293.52,434.236z"
                fill="#B0D236" />
        </g>
        <path
            d="M87.335,682.331&#10;&#9;&#9;c-0.384,0.451-0.992,0.817-1.358,0.817H51.745c-0.366,0-0.351-0.366,0.033-0.817l4.812-5.649c0.384-0.451,0.992-0.817,1.358-0.817&#10;&#9;&#9;H92.18c0.366,0,0.351,0.366-0.033,0.817L87.335,682.331z"
            fill="#E0E2DC" stroke="#95918B" stroke-miterlimit="10" stroke-width="0.5" />
        <path
            d="M55.952,675.866&#10;&#9;&#9;H24.179v7.282h25.57c0.366,0,0.974-0.366,1.358-0.817l4.812-5.649C56.303,676.231,56.318,675.866,55.952,675.866z"
            fill="#E0E2DC" stroke="#95918B" stroke-miterlimit="10" stroke-width="0.5" />
        <path
            d="M87.188,684.097&#10;&#9;&#9;c-0.006-0.405-0.307-0.734-0.673-0.734H52.283c-0.366,0-0.658,0.329-0.652,0.734l0.074,5.077c0.006,0.405,0.307,0.734,0.673,0.734&#10;&#9;&#9;H86.61c0.366,0,0.658-0.329,0.652-0.734L87.188,684.097z"
            fill="#7C7E7D" stroke="#95918B" stroke-miterlimit="10" stroke-width="0.5" />
        <path
            d="M92.667,676.945&#10;&#9;&#9;c-0.001-0.404-0.051-0.672-0.111-0.599l-5.65,6.885c-0.06,0.074-0.109,0.461-0.108,0.865l0.012,5.062&#10;&#9;&#9;c0.001,0.404,0.051,0.672,0.111,0.599l5.65-6.885c0.06-0.074,0.109-0.461,0.108-0.865L92.667,676.945z"
            fill="#7C7E7D" stroke="#95918B" stroke-miterlimit="10" stroke-width="0.5" />
        <path
            d="M50.96,684.097&#10;&#9;&#9;c-0.006-0.405-0.307-0.734-0.673-0.734H24.179v6.545h26.203c0.366,0,0.658-0.329,0.652-0.734L50.96,684.097z"
            fill="#7C7E7D" stroke="#95918B" stroke-miterlimit="10" stroke-width="0.5" />
        <path
            d="M330.731,682.331&#10;&#9;&#9;c0.384,0.451,0.992,0.817,1.358,0.817h34.232c0.366,0,0.351-0.366-0.033-0.817l-4.812-5.649c-0.384-0.451-0.992-0.817-1.358-0.817&#10;&#9;&#9;h-34.232c-0.366,0-0.351,0.366,0.033,0.817L330.731,682.331z"
            fill="#E0E2DC" stroke="#95918B" stroke-miterlimit="10" stroke-width="0.5" />
        <path
            d="M395.179,675.866&#10;&#9;&#9;h-33.065c-0.366,0-0.351,0.366,0.033,0.817l4.812,5.649c0.384,0.451,0.992,0.817,1.358,0.817h26.862V675.866z"
            fill="#E0E2DC" stroke="#95918B" stroke-miterlimit="10" stroke-width="0.5" />
        <path
            d="M330.878,684.097&#10;&#9;&#9;c0.006-0.405,0.307-0.734,0.673-0.734h34.232c0.366,0,0.658,0.329,0.652,0.734l-0.074,5.077c-0.006,0.405-0.307,0.734-0.673,0.734&#10;&#9;&#9;h-34.232c-0.366,0-0.658-0.329-0.652-0.734L330.878,684.097z"
            fill="#7C7E7D" stroke="#95918B" stroke-miterlimit="10" stroke-width="0.5" />
        <path
            d="M325.483,676.945&#10;&#9;&#9;c0.001-0.404,0.053-0.672,0.116-0.599l5.89,6.885c0.063,0.074,0.113,0.461,0.112,0.865l-0.013,5.062&#10;&#9;&#9;c-0.001,0.404-0.053,0.672-0.116,0.599l-5.89-6.885c-0.063-0.074-0.113-0.461-0.112-0.865L325.483,676.945z"
            fill="#7C7E7D" stroke="#95918B" stroke-miterlimit="10" stroke-width="0.5" />
        <path
            d="M395.179,683.363&#10;&#9;&#9;h-27.4c-0.366,0-0.667,0.329-0.673,0.734l-0.074,5.077c-0.006,0.405,0.286,0.734,0.652,0.734h27.495V683.363z"
            fill="#7C7E7D" stroke="#95918B" stroke-miterlimit="10" stroke-width="0.5" />
        <g>
            <g>
                <path
                    d="M 116.448 642.915 C 116.448 642.915 115.802 624.518 111.929 609.349 C 108.056 594.18 100.633 582.883 84.172 580.301 C 67.712 577.719 32.532 578.687 32.532 578.687 C 32.532 578.687 28.659 558.354 23.818 546.735 C 18.977 535.116 24.399 644.85 24.399 644.85 L 113.865 644.85 L 116.448 642.915 Z"
                    fill="#EC1C24" />
                <circle cx="53.189" cy="638.074" fill="#231F20" r="26.143" />
                <g transform="matrix(1, 0, 0, 1, -30.231873, 28.122671)">
                    <defs>
                        <circle cx="53.189" cy="638.074" id="SVGID_6_" r="19.042" />
                    </defs>
                    <circle cx="83.016" cy="609.6" fill="#AEB0B3" r="17.921" />
                    <circle cx="83.016" cy="609.6" fill="#85878A" r="15.795" />
                    <path
                        d="M99.001,602.234l-7.29,1.709c0,0-1.709-3.531-5.695-4.67&#10;&#9;&#9;&#9;&#9;&#9;c-0.114-3.303-0.228-7.518-0.228-7.518s-3.303-0.57-5.695,0.228c0,1.709-0.228,7.062-0.228,7.062s-5.24,0.683-7.062,5.012&#10;&#9;&#9;&#9;&#9;&#9;c-3.189-0.683-6.151-1.709-6.151-1.709s-1.253,2.164-1.595,3.873c2.278,0.683,6.265,2.62,6.265,2.62s-0.911,4.67,2.62,8.429&#10;&#9;&#9;&#9;&#9;&#9;c-0.797,1.595-3.987,4.328-3.987,4.328s1.595,2.05,3.075,2.734c1.936-1.823,5.354-4.442,5.354-4.442s4.101,1.936,8.657-0.228&#10;&#9;&#9;&#9;&#9;&#9;c1.253,1.481,4.784,5.809,4.784,5.809s2.392-1.481,3.873-3.189c-1.709-1.936-4.556-5.24-4.556-5.24s2.962-3.075,2.734-8.087&#10;&#9;&#9;&#9;&#9;&#9;c3.417-1.139,6.834-2.392,6.834-2.392S100.482,603.715,99.001,602.234z"
                        fill="#AEB0B3" />
                    <path
                        d="M99.001,602.234l-7.29,1.709c0,0-1.709-3.531-5.695-4.67&#10;&#9;&#9;&#9;&#9;&#9;c-0.114-3.303-0.228-7.518-0.228-7.518s-3.303-0.57-5.695,0.228c0,1.709-0.228,7.062-0.228,7.062s-5.24,0.683-7.062,5.012&#10;&#9;&#9;&#9;&#9;&#9;c-3.189-0.683-6.151-1.709-6.151-1.709s-1.253,2.164-1.595,3.873c2.278,0.683,6.265,2.62,6.265,2.62s-0.911,4.67,2.62,8.429&#10;&#9;&#9;&#9;&#9;&#9;c-0.797,1.595-3.987,4.328-3.987,4.328s1.595,2.05,3.075,2.734c1.936-1.823,5.354-4.442,5.354-4.442s4.101,1.936,8.657-0.228&#10;&#9;&#9;&#9;&#9;&#9;c1.253,1.481,4.784,5.809,4.784,5.809s2.392-1.481,3.873-3.189c-1.709-1.936-4.556-5.24-4.556-5.24s2.962-3.075,2.734-8.087&#10;&#9;&#9;&#9;&#9;&#9;c3.417-1.139,6.834-2.392,6.834-2.392S100.482,603.715,99.001,602.234z" />
                </g>
                <path
                    d="M92.061,588.485c-2.107,1.922-0.7,6.896,3.143,11.111c3.843,4.215,8.667,6.074,10.775,4.152&#10;&#9;&#9;&#9;&#9;c2.107-1.922,0.7-6.896-3.143-11.111C98.992,588.422,94.168,586.563,92.061,588.485z"
                    fill="#FFFFFF" />
                <path
                    d="M104.066,611.387c-1.902,0.893-2.379,3.883-1.067,6.679c1.313,2.796,3.918,4.339,5.82,3.447&#10;&#9;&#9;&#9;&#9;c1.902-0.893,2.379-3.883,1.067-6.679C108.573,612.037,105.968,610.494,104.066,611.387z"
                    fill="#FFFFFF" />
                <ellipse cx="34.792" cy="588.048" fill="#FFFFFF" rx="4.519" ry="3.066" />
                <circle cx="52.705" cy="638.074" fill="none" r="7.181" stroke="#85878A"
                    stroke-miterlimit="10" />
                <circle cx="52.987" cy="637.993" fill="none" r="3.873" stroke="#87898B"
                    stroke-miterlimit="10" />
                <path
                    d="M90.951,643.883c0,0,7.423-36.148-37.439-45.185l-0.323,13.233c0,0,28.402-0.323,27.434,32.598&#10;&#9;&#9;&#9;&#9;L90.951,643.883z"
                    fill="#FFFFFF" />
                <path
                    d="M100.956,644.206c0,0.535,0.433,0.968,0.968,0.968h17.429c0.535,0,0.968-0.434,0.968-0.968&#10;&#9;&#9;&#9;&#9;v-9.037c0-0.535-0.434-0.968-0.968-0.968h-17.429c-0.535,0-0.968,0.433-0.968,0.968V644.206z"
                    fill="#FFFFFF" />
            </g>
        </g>
        <polygon fill="#FFFFFF"
            points="393.605 594.317 328.286 594.506 325.048 591.363 393.197 591.363" />
        <polygon fill="#FFFFFF"
            points="393.556 600.031 333.143 600.22 329.905 597.077 393.337 596.888" />
        <circle style="fill: none;" cx="295.067" cy="436" r="11.333" stroke="#000000"
            stroke-miterlimit="10" />
        <g>
            <rect fill="#DDD9D4" height="118" stroke="#CBC6BD" stroke-miterlimit="10" width="51"
                x="342.845" y="386.333" />
            <g>
                <path
                    d="M370.679,408.958c0,0.39-0.319,0.709-0.709,0.709h-22.416c-0.39,0-0.709-0.319-0.709-0.709v-15.916&#10;&#9;&#9;&#9;&#9;c0-0.39,0.319-0.709,0.709-0.709h22.416c0.39,0,0.709,0.319,0.709,0.709V408.958z"
                    fill="#FFFFFF" />
                <path
                    d="M370.679,408.958c0,0.39-0.319,0.709-0.709,0.709h-22.416&#10;&#9;&#9;&#9;&#9;c-0.39,0-0.709-0.319-0.709-0.709v-15.916c0-0.39,0.319-0.709,0.709-0.709h22.416c0.39,0,0.709,0.319,0.709,0.709V408.958z"
                    fill="none" stroke="#B6B8BA" stroke-miterlimit="10" />
            </g>
            <path
                d="M352.179,406.458c0,0.39-0.319,0.709-0.709,0.709h-2.749c-0.39,0-0.709-0.319-0.709-0.709v-11.583&#10;&#9;&#9;&#9;c0-0.39,0.319-0.709,0.709-0.709h2.749c0.39,0,0.709,0.319,0.709,0.709V406.458z"
                fill="#A0DCEF" />
            <path
                d="M357.845,406.458c0,0.39-0.319,0.709-0.709,0.709h-2.749c-0.39,0-0.709-0.319-0.709-0.709v-11.583&#10;&#9;&#9;&#9;c0-0.39,0.319-0.709,0.709-0.709h2.749c0.39,0,0.709,0.319,0.709,0.709V406.458z"
                fill="#A0DCEF" />
            <path
                d="M363.512,406.458c0,0.39-0.319,0.709-0.709,0.709h-2.749c-0.39,0-0.709-0.319-0.709-0.709v-11.583&#10;&#9;&#9;&#9;c0-0.39,0.319-0.709,0.709-0.709h2.749c0.39,0,0.709,0.319,0.709,0.709V406.458z"
                fill="#A0DCEF" />
            <g>
                <g>
                    <path
                        d="M390.679,408.977c0,0.379-0.174,0.69-0.387,0.69h-12.227c-0.213,0-0.387-0.31-0.387-0.69v-15.495&#10;&#9;&#9;&#9;&#9;&#9;c0-0.379,0.174-0.69,0.387-0.69h12.227c0.213,0,0.387,0.31,0.387,0.69V408.977z"
                        fill="#FFFFFF" />
                    <path
                        d="M390.679,408.977c0,0.379-0.174,0.69-0.387,0.69h-12.227&#10;&#9;&#9;&#9;&#9;&#9;c-0.213,0-0.387-0.31-0.387-0.69v-15.495c0-0.379,0.174-0.69,0.387-0.69h12.227c0.213,0,0.387,0.31,0.387,0.69V408.977z"
                        fill="none" stroke="#B6B8BA" stroke-miterlimit="10" />
                </g>
                <path
                    d="M383.012,406.458c0,0.39-0.319,0.709-0.709,0.709h-2.749c-0.39,0-0.709-0.319-0.709-0.709v-11.583&#10;&#9;&#9;&#9;&#9;c0-0.39,0.319-0.709,0.709-0.709h2.749c0.39,0,0.709,0.319,0.709,0.709V406.458z"
                    fill="#A0DCEF" />
                <path
                    d="M384.512,398.667v7.791c0,0.39,0.319,0.709,0.709,0.709h2.749c0.39,0,0.709-0.319,0.709-0.709v-7.791&#10;&#9;&#9;&#9;&#9;H384.512z"
                    fill="#A0DCEF" />
                <path
                    d="M388.679,397.167v-2.291c0-0.39-0.319-0.709-0.709-0.709h-2.749c-0.39,0-0.709,0.319-0.709,0.709v2.291&#10;&#9;&#9;&#9;&#9;H388.679z"
                    fill="#A0DCEF" />
            </g>
            <g>
                <g>
                    <path
                        d="M390.262,438.643c0,0.379-0.174,0.69-0.387,0.69h-12.227c-0.213,0-0.387-0.31-0.387-0.69v-15.495&#10;&#9;&#9;&#9;&#9;&#9;c0-0.379,0.174-0.69,0.387-0.69h12.227c0.213,0,0.387,0.31,0.387,0.69V438.643z"
                        fill="#FFFFFF" />
                    <path
                        d="M390.262,438.643c0,0.379-0.174,0.69-0.387,0.69h-12.227&#10;&#9;&#9;&#9;&#9;&#9;c-0.213,0-0.387-0.31-0.387-0.69v-15.495c0-0.379,0.174-0.69,0.387-0.69h12.227c0.213,0,0.387,0.31,0.387,0.69V438.643z"
                        fill="none" stroke="#B6B8BA" stroke-miterlimit="10" />
                </g>
                <path
                    d="M382.595,436.125c0,0.39-0.319,0.709-0.709,0.709h-2.749c-0.39,0-0.709-0.319-0.709-0.709v-11.583&#10;&#9;&#9;&#9;&#9;c0-0.39,0.319-0.709,0.709-0.709h2.749c0.39,0,0.709,0.319,0.709,0.709V436.125z"
                    fill="#A0DCEF" />
                <path
                    d="M384.095,428.333v7.791c0,0.39,0.319,0.709,0.709,0.709h2.749c0.39,0,0.709-0.319,0.709-0.709v-7.791&#10;&#9;&#9;&#9;&#9;H384.095z"
                    fill="#A0DCEF" />
                <path
                    d="M388.262,426.833v-2.291c0-0.39-0.319-0.709-0.709-0.709h-2.749c-0.39,0-0.709,0.319-0.709,0.709v2.291&#10;&#9;&#9;&#9;&#9;H388.262z"
                    fill="#A0DCEF" />
            </g>
            <g>
                <g>
                    <path
                        d="M390.679,468.31c0,0.379-0.174,0.69-0.387,0.69h-12.227c-0.213,0-0.387-0.31-0.387-0.69v-15.495&#10;&#9;&#9;&#9;&#9;&#9;c0-0.379,0.174-0.69,0.387-0.69h12.227c0.213,0,0.387,0.31,0.387,0.69V468.31z"
                        fill="#FFFFFF" />
                    <path
                        d="M390.679,468.31c0,0.379-0.174,0.69-0.387,0.69h-12.227&#10;&#9;&#9;&#9;&#9;&#9;c-0.213,0-0.387-0.31-0.387-0.69v-15.495c0-0.379,0.174-0.69,0.387-0.69h12.227c0.213,0,0.387,0.31,0.387,0.69V468.31z"
                        fill="none" stroke="#B6B8BA" stroke-miterlimit="10" />
                </g>
                <path
                    d="M383.012,465.791c0,0.39-0.319,0.709-0.709,0.709h-2.749c-0.39,0-0.709-0.319-0.709-0.709v-11.583&#10;&#9;&#9;&#9;&#9;c0-0.39,0.319-0.709,0.709-0.709h2.749c0.39,0,0.709,0.319,0.709,0.709V465.791z"
                    fill="#A0DCEF" />
                <path
                    d="M384.512,458v7.791c0,0.39,0.319,0.709,0.709,0.709h2.749c0.39,0,0.709-0.319,0.709-0.709V458H384.512z"
                    fill="#A0DCEF" />
                <path
                    d="M388.679,456.5v-2.291c0-0.39-0.319-0.709-0.709-0.709h-2.749c-0.39,0-0.709,0.319-0.709,0.709v2.291&#10;&#9;&#9;&#9;&#9;H388.679z"
                    fill="#A0DCEF" />
            </g>
            <g>
                <g>
                    <path
                        d="M390.179,498.477c0,0.379-0.174,0.69-0.387,0.69h-12.227c-0.213,0-0.387-0.31-0.387-0.69v-15.495&#10;&#9;&#9;&#9;&#9;&#9;c0-0.379,0.174-0.69,0.387-0.69h12.227c0.213,0,0.387,0.31,0.387,0.69V498.477z"
                        fill="#FFFFFF" />
                    <path
                        d="M390.179,498.477c0,0.379-0.174,0.69-0.387,0.69h-12.227&#10;&#9;&#9;&#9;&#9;&#9;c-0.213,0-0.387-0.31-0.387-0.69v-15.495c0-0.379,0.174-0.69,0.387-0.69h12.227c0.213,0,0.387,0.31,0.387,0.69V498.477z"
                        fill="none" stroke="#B6B8BA" stroke-miterlimit="10" />
                </g>
                <path
                    d="M382.512,495.958c0,0.39-0.319,0.709-0.709,0.709h-2.749c-0.39,0-0.709-0.319-0.709-0.709v-11.583&#10;&#9;&#9;&#9;&#9;c0-0.39,0.319-0.709,0.709-0.709h2.749c0.39,0,0.709,0.319,0.709,0.709V495.958z"
                    fill="#A0DCEF" />
                <path
                    d="M384.012,488.167v7.791c0,0.39,0.319,0.709,0.709,0.709h2.749c0.39,0,0.709-0.319,0.709-0.709v-7.791&#10;&#9;&#9;&#9;&#9;H384.012z"
                    fill="#A0DCEF" />
                <path
                    d="M388.179,486.667v-2.291c0-0.39-0.319-0.709-0.709-0.709h-2.749c-0.39,0-0.709,0.319-0.709,0.709v2.291&#10;&#9;&#9;&#9;&#9;H388.179z"
                    fill="#A0DCEF" />
            </g>
            <path
                d="M369.179,406.458c0,0.39-0.319,0.709-0.709,0.709h-2.749c-0.39,0-0.709-0.319-0.709-0.709v-11.583&#10;&#9;&#9;&#9;c0-0.39,0.319-0.709,0.709-0.709h2.749c0.39,0,0.709,0.319,0.709,0.709V406.458z"
                fill="#A0DCEF" />
            <g>
                <path
                    d="M370.679,438.791c0,0.39-0.319,0.709-0.709,0.709h-22.416c-0.39,0-0.709-0.319-0.709-0.709v-15.916&#10;&#9;&#9;&#9;&#9;c0-0.39,0.319-0.709,0.709-0.709h22.416c0.39,0,0.709,0.319,0.709,0.709V438.791z"
                    fill="#FFFFFF" />
                <path
                    d="M370.679,438.791c0,0.39-0.319,0.709-0.709,0.709h-22.416&#10;&#9;&#9;&#9;&#9;c-0.39,0-0.709-0.319-0.709-0.709v-15.916c0-0.39,0.319-0.709,0.709-0.709h22.416c0.39,0,0.709,0.319,0.709,0.709V438.791z"
                    fill="none" stroke="#B6B8BA" stroke-miterlimit="10" />
            </g>
            <path
                d="M352.179,436.291c0,0.39-0.319,0.709-0.709,0.709h-2.749c-0.39,0-0.709-0.319-0.709-0.709v-11.583&#10;&#9;&#9;&#9;c0-0.39,0.319-0.709,0.709-0.709h2.749c0.39,0,0.709,0.319,0.709,0.709V436.291z"
                fill="#A0DCEF" />
            <path
                d="M357.845,436.291c0,0.39-0.319,0.709-0.709,0.709h-2.749c-0.39,0-0.709-0.319-0.709-0.709v-11.583&#10;&#9;&#9;&#9;c0-0.39,0.319-0.709,0.709-0.709h2.749c0.39,0,0.709,0.319,0.709,0.709V436.291z"
                fill="#A0DCEF" />
            <path
                d="M363.512,436.291c0,0.39-0.319,0.709-0.709,0.709h-2.749c-0.39,0-0.709-0.319-0.709-0.709v-11.583&#10;&#9;&#9;&#9;c0-0.39,0.319-0.709,0.709-0.709h2.749c0.39,0,0.709,0.319,0.709,0.709V436.291z"
                fill="#A0DCEF" />
            <path
                d="M369.179,436.291c0,0.39-0.319,0.709-0.709,0.709h-2.749c-0.39,0-0.709-0.319-0.709-0.709v-11.583&#10;&#9;&#9;&#9;c0-0.39,0.319-0.709,0.709-0.709h2.749c0.39,0,0.709,0.319,0.709,0.709V436.291z"
                fill="#A0DCEF" />
            <g>
                <path
                    d="M370.679,468.625c0,0.39-0.319,0.709-0.709,0.709h-22.416c-0.39,0-0.709-0.319-0.709-0.709v-15.916&#10;&#9;&#9;&#9;&#9;c0-0.39,0.319-0.709,0.709-0.709h22.416c0.39,0,0.709,0.319,0.709,0.709V468.625z"
                    fill="#FFFFFF" />
                <path
                    d="M370.679,468.625c0,0.39-0.319,0.709-0.709,0.709h-22.416&#10;&#9;&#9;&#9;&#9;c-0.39,0-0.709-0.319-0.709-0.709v-15.916c0-0.39,0.319-0.709,0.709-0.709h22.416c0.39,0,0.709,0.319,0.709,0.709V468.625z"
                    fill="none" stroke="#B6B8BA" stroke-miterlimit="10" />
            </g>
            <path
                d="M352.179,466.125c0,0.39-0.319,0.709-0.709,0.709h-2.749c-0.39,0-0.709-0.319-0.709-0.709v-11.583&#10;&#9;&#9;&#9;c0-0.39,0.319-0.709,0.709-0.709h2.749c0.39,0,0.709,0.319,0.709,0.709V466.125z"
                fill="#A0DCEF" />
            <path
                d="M357.845,466.125c0,0.39-0.319,0.709-0.709,0.709h-2.749c-0.39,0-0.709-0.319-0.709-0.709v-11.583&#10;&#9;&#9;&#9;c0-0.39,0.319-0.709,0.709-0.709h2.749c0.39,0,0.709,0.319,0.709,0.709V466.125z"
                fill="#A0DCEF" />
            <path
                d="M363.512,466.125c0,0.39-0.319,0.709-0.709,0.709h-2.749c-0.39,0-0.709-0.319-0.709-0.709v-11.583&#10;&#9;&#9;&#9;c0-0.39,0.319-0.709,0.709-0.709h2.749c0.39,0,0.709,0.319,0.709,0.709V466.125z"
                fill="#A0DCEF" />
            <path
                d="M369.179,466.125c0,0.39-0.319,0.709-0.709,0.709h-2.749c-0.39,0-0.709-0.319-0.709-0.709v-11.583&#10;&#9;&#9;&#9;c0-0.39,0.319-0.709,0.709-0.709h2.749c0.39,0,0.709,0.319,0.709,0.709V466.125z"
                fill="#A0DCEF" />
            <g>
                <path
                    d="M370.679,498.458c0,0.39-0.319,0.709-0.709,0.709h-22.416c-0.39,0-0.709-0.319-0.709-0.709v-15.916&#10;&#9;&#9;&#9;&#9;c0-0.39,0.319-0.709,0.709-0.709h22.416c0.39,0,0.709,0.319,0.709,0.709V498.458z"
                    fill="#FFFFFF" />
                <path
                    d="M370.679,498.458c0,0.39-0.319,0.709-0.709,0.709h-22.416&#10;&#9;&#9;&#9;&#9;c-0.39,0-0.709-0.319-0.709-0.709v-15.916c0-0.39,0.319-0.709,0.709-0.709h22.416c0.39,0,0.709,0.319,0.709,0.709V498.458z"
                    fill="none" stroke="#B6B8BA" stroke-miterlimit="10" />
            </g>
            <path
                d="M352.179,495.958c0,0.39-0.319,0.709-0.709,0.709h-2.749c-0.39,0-0.709-0.319-0.709-0.709v-11.583&#10;&#9;&#9;&#9;c0-0.39,0.319-0.709,0.709-0.709h2.749c0.39,0,0.709,0.319,0.709,0.709V495.958z"
                fill="#A0DCEF" />
            <path
                d="M357.845,495.958c0,0.39-0.319,0.709-0.709,0.709h-2.749c-0.39,0-0.709-0.319-0.709-0.709v-11.583&#10;&#9;&#9;&#9;c0-0.39,0.319-0.709,0.709-0.709h2.749c0.39,0,0.709,0.319,0.709,0.709V495.958z"
                fill="#A0DCEF" />
            <path
                d="M363.512,495.958c0,0.39-0.319,0.709-0.709,0.709h-2.749c-0.39,0-0.709-0.319-0.709-0.709v-11.583&#10;&#9;&#9;&#9;c0-0.39,0.319-0.709,0.709-0.709h2.749c0.39,0,0.709,0.319,0.709,0.709V495.958z"
                fill="#A0DCEF" />
            <path
                d="M369.179,495.958c0,0.39-0.319,0.709-0.709,0.709h-2.749c-0.39,0-0.709-0.319-0.709-0.709v-11.583&#10;&#9;&#9;&#9;c0-0.39,0.319-0.709,0.709-0.709h2.749c0.39,0,0.709,0.319,0.709,0.709V495.958z"
                fill="#A0DCEF" />
            <polygon fill="#ECE5E6"
                points="340.012,382.667 &#10;&#9;&#9;&#9;342.845,386.333 393.845,386.333 393.845,382.667 &#9;&#9;"
                stroke="#B8BABC" stroke-linejoin="round" stroke-miterlimit="10" />
            <rect fill="#B8BABC" height="0.833" width="51.167" x="342.845" y="386.333" />
        </g>
        <g>
            <rect fill="#DDD9D4" height="166.074" stroke="#CBC6BD" stroke-miterlimit="10"
                width="71.778" x="23.58" y="330.494" />
            <g>
                <path
                    d="M56.185,362.336c0,0.549,0.449,0.997,0.997,0.997h31.548c0.549,0,0.997-0.449,0.997-0.997v-22.4&#10;&#9;&#9;&#9;&#9;c0-0.549-0.449-0.997-0.997-0.997H57.182c-0.549,0-0.997,0.449-0.997,0.997V362.336z"
                    fill="#FFFFFF" />
                <path
                    d="M56.185,362.336c0,0.549,0.449,0.997,0.997,0.997h31.548&#10;&#9;&#9;&#9;&#9;c0.549,0,0.997-0.449,0.997-0.997v-22.4c0-0.549-0.449-0.997-0.997-0.997H57.182c-0.549,0-0.997,0.449-0.997,0.997V362.336z"
                    fill="none" stroke="#B6B8BA" stroke-miterlimit="10" />
            </g>
            <path
                d="M82.222,358.817c0,0.549,0.449,0.997,0.997,0.997h3.869c0.549,0,0.997-0.449,0.997-0.997v-16.302&#10;&#9;&#9;&#9;c0-0.549-0.449-0.997-0.997-0.997h-3.869c-0.549,0-0.997,0.449-0.997,0.997V358.817z"
                fill="#A0DCEF" />
            <path
                d="M74.247,358.817c0,0.549,0.449,0.997,0.997,0.997h3.869c0.549,0,0.997-0.449,0.997-0.997v-16.302&#10;&#9;&#9;&#9;c0-0.549-0.449-0.997-0.997-0.997h-3.869c-0.549,0-0.997,0.449-0.997,0.997V358.817z"
                fill="#A0DCEF" />
            <path
                d="M66.271,358.817c0,0.549,0.449,0.997,0.997,0.997h3.869c0.549,0,0.997-0.449,0.997-0.997v-16.302&#10;&#9;&#9;&#9;c0-0.549-0.449-0.997-0.997-0.997h-3.869c-0.549,0-0.997,0.449-0.997,0.997V358.817z"
                fill="#A0DCEF" />
            <g>
                <g>
                    <path
                        d="M28.037,362.362c0,0.534,0.245,0.971,0.544,0.971h17.208c0.299,0,0.544-0.437,0.544-0.971v-21.808&#10;&#9;&#9;&#9;&#9;&#9;c0-0.534-0.245-0.971-0.544-0.971H28.581c-0.299,0-0.544,0.437-0.544,0.971V362.362z"
                        fill="#FFFFFF" />
                    <path
                        d="M28.037,362.362c0,0.534,0.245,0.971,0.544,0.971h17.208&#10;&#9;&#9;&#9;&#9;&#9;c0.299,0,0.544-0.437,0.544-0.971v-21.808c0-0.534-0.245-0.971-0.544-0.971H28.581c-0.299,0-0.544,0.437-0.544,0.971V362.362z"
                        fill="none" stroke="#B6B8BA" stroke-miterlimit="10" />
                </g>
                <path
                    d="M38.827,358.817c0,0.549,0.449,0.997,0.997,0.997h3.869c0.549,0,0.997-0.449,0.997-0.997v-16.302&#10;&#9;&#9;&#9;&#9;c0-0.549-0.449-0.997-0.997-0.997h-3.869c-0.549,0-0.997,0.449-0.997,0.997V358.817z"
                    fill="#A0DCEF" />
                <path
                    d="M36.716,347.852v10.966c0,0.549-0.449,0.997-0.997,0.997h-3.869c-0.549,0-0.997-0.449-0.997-0.997&#10;&#9;&#9;&#9;&#9;v-10.966H36.716z"
                    fill="#A0DCEF" />
                <path
                    d="M30.852,345.741v-3.225c0-0.549,0.449-0.997,0.997-0.997h3.869c0.549,0,0.997,0.449,0.997,0.997v3.225&#10;&#9;&#9;&#9;&#9;H30.852z"
                    fill="#A0DCEF" />
            </g>
            <g>
                <g>
                    <path
                        d="M28.623,404.115c0,0.534,0.245,0.971,0.544,0.971h17.208c0.299,0,0.544-0.437,0.544-0.971v-21.808&#10;&#9;&#9;&#9;&#9;&#9;c0-0.534-0.245-0.971-0.544-0.971H29.167c-0.299,0-0.544,0.437-0.544,0.971V404.115z"
                        fill="#FFFFFF" />
                    <path
                        d="M28.623,404.115c0,0.534,0.245,0.971,0.544,0.971h17.208&#10;&#9;&#9;&#9;&#9;&#9;c0.299,0,0.544-0.437,0.544-0.971v-21.808c0-0.534-0.245-0.971-0.544-0.971H29.167c-0.299,0-0.544,0.437-0.544,0.971V404.115z"
                        fill="none" stroke="#B6B8BA" stroke-miterlimit="10" />
                </g>
                <path
                    d="M39.413,400.571c0,0.549,0.449,0.997,0.997,0.997h3.869c0.549,0,0.997-0.449,0.997-0.997v-16.302&#10;&#9;&#9;&#9;&#9;c0-0.549-0.449-0.997-0.997-0.997h-3.869c-0.549,0-0.997,0.449-0.997,0.997V400.571z"
                    fill="#A0DCEF" />
                <path
                    d="M37.302,389.605v10.966c0,0.549-0.449,0.997-0.997,0.997h-3.869c-0.549,0-0.997-0.449-0.997-0.997&#10;&#9;&#9;&#9;&#9;v-10.966H37.302z"
                    fill="#A0DCEF" />
                <path
                    d="M31.438,387.494v-3.225c0-0.549,0.449-0.997,0.997-0.997h3.869c0.549,0,0.997,0.449,0.997,0.997v3.225&#10;&#9;&#9;&#9;&#9;H31.438z"
                    fill="#A0DCEF" />
            </g>
            <g>
                <g>
                    <path
                        d="M28.037,445.868c0,0.534,0.245,0.971,0.544,0.971h17.208c0.299,0,0.544-0.437,0.544-0.971V424.06&#10;&#9;&#9;&#9;&#9;&#9;c0-0.534-0.245-0.971-0.544-0.971H28.581c-0.299,0-0.544,0.437-0.544,0.971V445.868z"
                        fill="#FFFFFF" />
                    <path
                        d="M28.037,445.868c0,0.534,0.245,0.971,0.544,0.971h17.208&#10;&#9;&#9;&#9;&#9;&#9;c0.299,0,0.544-0.437,0.544-0.971V424.06c0-0.534-0.245-0.971-0.544-0.971H28.581c-0.299,0-0.544,0.437-0.544,0.971V445.868z"
                        fill="none" stroke="#B6B8BA" stroke-miterlimit="10" />
                </g>
                <path
                    d="M38.827,442.324c0,0.549,0.449,0.997,0.997,0.997h3.869c0.549,0,0.997-0.449,0.997-0.997v-16.302&#10;&#9;&#9;&#9;&#9;c0-0.549-0.449-0.997-0.997-0.997h-3.869c-0.549,0-0.997,0.449-0.997,0.997V442.324z"
                    fill="#A0DCEF" />
                <path
                    d="M36.716,431.358v10.966c0,0.549-0.449,0.997-0.997,0.997h-3.869c-0.549,0-0.997-0.449-0.997-0.997&#10;&#9;&#9;&#9;&#9;v-10.966H36.716z"
                    fill="#A0DCEF" />
                <path
                    d="M30.852,429.247v-3.225c0-0.549,0.449-0.997,0.997-0.997h3.869c0.549,0,0.997,0.449,0.997,0.997v3.225&#10;&#9;&#9;&#9;&#9;H30.852z"
                    fill="#A0DCEF" />
            </g>
            <g>
                <g>
                    <path
                        d="M28.741,488.325c0,0.534,0.245,0.971,0.544,0.971h17.208c0.299,0,0.544-0.437,0.544-0.971v-21.808&#10;&#9;&#9;&#9;&#9;&#9;c0-0.534-0.245-0.971-0.544-0.971H29.285c-0.299,0-0.544,0.437-0.544,0.971V488.325z"
                        fill="#FFFFFF" />
                    <path
                        d="M28.741,488.325c0,0.534,0.245,0.971,0.544,0.971h17.208&#10;&#9;&#9;&#9;&#9;&#9;c0.299,0,0.544-0.437,0.544-0.971v-21.808c0-0.534-0.245-0.971-0.544-0.971H29.285c-0.299,0-0.544,0.437-0.544,0.971V488.325z"
                        fill="none" stroke="#B6B8BA" stroke-miterlimit="10" />
                </g>
                <path
                    d="M39.531,484.78c0,0.549,0.449,0.997,0.997,0.997h3.869c0.549,0,0.997-0.449,0.997-0.997v-16.302&#10;&#9;&#9;&#9;&#9;c0-0.549-0.449-0.997-0.997-0.997h-3.869c-0.549,0-0.997,0.449-0.997,0.997V484.78z"
                    fill="#A0DCEF" />
                <path
                    d="M37.42,473.815v10.966c0,0.549-0.449,0.997-0.997,0.997h-3.869c-0.549,0-0.997-0.449-0.997-0.997v-10.966&#10;&#9;&#9;&#9;&#9;H37.42z"
                    fill="#A0DCEF" />
                <path
                    d="M31.555,471.704v-3.225c0-0.549,0.449-0.997,0.997-0.997h3.869c0.549,0,0.997,0.449,0.997,0.997v3.225&#10;&#9;&#9;&#9;&#9;H31.555z"
                    fill="#A0DCEF" />
            </g>
            <path
                d="M58.296,358.817c0,0.549,0.449,0.997,0.997,0.997h3.869c0.549,0,0.997-0.449,0.997-0.997v-16.302&#10;&#9;&#9;&#9;c0-0.549-0.449-0.997-0.997-0.997h-3.869c-0.549,0-0.997,0.449-0.997,0.997V358.817z"
                fill="#A0DCEF" />
            <g>
                <path
                    d="M56.185,404.324c0,0.549,0.449,0.997,0.997,0.997h31.548c0.549,0,0.997-0.449,0.997-0.997v-22.4&#10;&#9;&#9;&#9;&#9;c0-0.549-0.449-0.997-0.997-0.997H57.182c-0.549,0-0.997,0.449-0.997,0.997V404.324z"
                    fill="#FFFFFF" />
                <path
                    d="M56.185,404.324c0,0.549,0.449,0.997,0.997,0.997h31.548&#10;&#9;&#9;&#9;&#9;c0.549,0,0.997-0.449,0.997-0.997v-22.4c0-0.549-0.449-0.997-0.997-0.997H57.182c-0.549,0-0.997,0.449-0.997,0.997V404.324z"
                    fill="none" stroke="#B6B8BA" stroke-miterlimit="10" />
            </g>
            <path
                d="M82.222,400.805c0,0.549,0.449,0.997,0.997,0.997h3.869c0.549,0,0.997-0.449,0.997-0.997v-16.302&#10;&#9;&#9;&#9;c0-0.549-0.449-0.997-0.997-0.997h-3.869c-0.549,0-0.997,0.449-0.997,0.997V400.805z"
                fill="#A0DCEF" />
            <path
                d="M74.247,400.805c0,0.549,0.449,0.997,0.997,0.997h3.869c0.549,0,0.997-0.449,0.997-0.997v-16.302&#10;&#9;&#9;&#9;c0-0.549-0.449-0.997-0.997-0.997h-3.869c-0.549,0-0.997,0.449-0.997,0.997V400.805z"
                fill="#A0DCEF" />
            <path
                d="M66.271,400.805c0,0.549,0.449,0.997,0.997,0.997h3.869c0.549,0,0.997-0.449,0.997-0.997v-16.302&#10;&#9;&#9;&#9;c0-0.549-0.449-0.997-0.997-0.997h-3.869c-0.549,0-0.997,0.449-0.997,0.997V400.805z"
                fill="#A0DCEF" />
            <path
                d="M58.296,400.805c0,0.549,0.449,0.997,0.997,0.997h3.869c0.549,0,0.997-0.449,0.997-0.997v-16.302&#10;&#9;&#9;&#9;c0-0.549-0.449-0.997-0.997-0.997h-3.869c-0.549,0-0.997,0.449-0.997,0.997V400.805z"
                fill="#A0DCEF" />
            <g>
                <path
                    d="M56.185,446.311c0,0.549,0.449,0.997,0.997,0.997h31.548c0.549,0,0.997-0.449,0.997-0.997v-22.4&#10;&#9;&#9;&#9;&#9;c0-0.549-0.449-0.997-0.997-0.997H57.182c-0.549,0-0.997,0.449-0.997,0.997V446.311z"
                    fill="#FFFFFF" />
                <path
                    d="M56.185,446.311c0,0.549,0.449,0.997,0.997,0.997h31.548&#10;&#9;&#9;&#9;&#9;c0.549,0,0.997-0.449,0.997-0.997v-22.4c0-0.549-0.449-0.997-0.997-0.997H57.182c-0.549,0-0.997,0.449-0.997,0.997V446.311z"
                    fill="none" stroke="#B6B8BA" stroke-miterlimit="10" />
            </g>
            <path
                d="M82.222,442.793c0,0.549,0.449,0.997,0.997,0.997h3.869c0.549,0,0.997-0.449,0.997-0.997v-16.302&#10;&#9;&#9;&#9;c0-0.549-0.449-0.997-0.997-0.997h-3.869c-0.549,0-0.997,0.449-0.997,0.997V442.793z"
                fill="#A0DCEF" />
            <path
                d="M74.247,442.793c0,0.549,0.449,0.997,0.997,0.997h3.869c0.549,0,0.997-0.449,0.997-0.997v-16.302&#10;&#9;&#9;&#9;c0-0.549-0.449-0.997-0.997-0.997h-3.869c-0.549,0-0.997,0.449-0.997,0.997V442.793z"
                fill="#A0DCEF" />
            <path
                d="M66.271,442.793c0,0.549,0.449,0.997,0.997,0.997h3.869c0.549,0,0.997-0.449,0.997-0.997v-16.302&#10;&#9;&#9;&#9;c0-0.549-0.449-0.997-0.997-0.997h-3.869c-0.549,0-0.997,0.449-0.997,0.997V442.793z"
                fill="#A0DCEF" />
            <path
                d="M58.296,442.793c0,0.549,0.449,0.997,0.997,0.997h3.869c0.549,0,0.997-0.449,0.997-0.997v-16.302&#10;&#9;&#9;&#9;c0-0.549-0.449-0.997-0.997-0.997h-3.869c-0.549,0-0.997,0.449-0.997,0.997V442.793z"
                fill="#A0DCEF" />
            <g>
                <path
                    d="M56.185,488.299c0,0.549,0.449,0.997,0.997,0.997h31.548c0.549,0,0.997-0.449,0.997-0.997v-22.4&#10;&#9;&#9;&#9;&#9;c0-0.549-0.449-0.997-0.997-0.997H57.182c-0.549,0-0.997,0.449-0.997,0.997V488.299z"
                    fill="#FFFFFF" />
                <path
                    d="M56.185,488.299c0,0.549,0.449,0.997,0.997,0.997h31.548&#10;&#9;&#9;&#9;&#9;c0.549,0,0.997-0.449,0.997-0.997v-22.4c0-0.549-0.449-0.997-0.997-0.997H57.182c-0.549,0-0.997,0.449-0.997,0.997V488.299z"
                    fill="none" stroke="#B6B8BA" stroke-miterlimit="10" />
            </g>
            <path
                d="M82.222,484.78c0,0.549,0.449,0.997,0.997,0.997h3.869c0.549,0,0.997-0.449,0.997-0.997v-16.302&#10;&#9;&#9;&#9;c0-0.549-0.449-0.997-0.997-0.997h-3.869c-0.549,0-0.997,0.449-0.997,0.997V484.78z"
                fill="#A0DCEF" />
            <path
                d="M74.247,484.78c0,0.549,0.449,0.997,0.997,0.997h3.869c0.549,0,0.997-0.449,0.997-0.997v-16.302&#10;&#9;&#9;&#9;c0-0.549-0.449-0.997-0.997-0.997h-3.869c-0.549,0-0.997,0.449-0.997,0.997V484.78z"
                fill="#A0DCEF" />
            <path
                d="M66.271,484.78c0,0.549,0.449,0.997,0.997,0.997h3.869c0.549,0,0.997-0.449,0.997-0.997v-16.302&#10;&#9;&#9;&#9;c0-0.549-0.449-0.997-0.997-0.997h-3.869c-0.549,0-0.997,0.449-0.997,0.997V484.78z"
                fill="#A0DCEF" />
            <path
                d="M58.296,484.78c0,0.549,0.449,0.997,0.997,0.997h3.869c0.549,0,0.997-0.449,0.997-0.997v-16.302&#10;&#9;&#9;&#9;c0-0.549-0.449-0.997-0.997-0.997h-3.869c-0.549,0-0.997,0.449-0.997,0.997V484.78z"
                fill="#A0DCEF" />
            <polygon fill="#ECE5E6"
                points="99.345,325.333 95.358,330.494 &#10;&#9;&#9;&#9;23.58,330.494 23.58,325.333 &#9;&#9;"
                stroke="#B8BABC" stroke-linejoin="round" stroke-miterlimit="10" />
            <rect fill="#B8BABC" height="1.173" width="72.012" x="23.346" y="330.494" />
        </g>
        <g>
            <g>
                <path
                    d="M 297.512 556.412 C 297.512 556.412 298.034 541.547 301.163 529.29 C 304.292 517.033 310.291 507.905 323.591 505.819 C 336.891 503.733 365.317 504.515 365.317 504.515 C 365.317 504.515 368.446 488.085 372.358 478.697 C 376.27 469.309 376.833 467.393 394.277 459.416 C 400.821 456.423 395.797 471.9 396.215 483.666 C 397.217 511.876 394.19 558.694 394.19 558.694 L 299.599 557.976 L 297.512 556.412 Z"
                    fill="#FBAF1E" />
                <circle cx="348.627" cy="552.5" fill="#231F20" r="21.124" />
                <g transform="matrix(1, 0, 0, 1, 24.37019, 22.893209)">
                    <defs>
                        <circle cx="348.627" cy="552.5" id="SVGID_28_" r="15.387" />
                    </defs>
                    <circle style="fill: rgb(174, 176, 179);" cx="324.526" cy="529.493"
                        r="14.481" />
                    <circle style="fill: rgb(133, 135, 138);" cx="324.526" cy="529.493"
                        r="12.763" />
                    <path style="fill: rgb(174, 176, 179);"
                        d="M311.61,523.541l5.891,1.381c0,0,1.381-2.853,4.602-3.774&#10;&#9;&#9;&#9;&#9;&#9;c0.092-2.669,0.184-6.075,0.184-6.075s2.669-0.46,4.602,0.184c0,1.381,0.184,5.706,0.184,5.706s4.234,0.552,5.706,4.05&#10;&#9;&#9;&#9;&#9;&#9;c2.577-0.552,4.97-1.381,4.97-1.381s1.012,1.749,1.289,3.129c-1.841,0.552-5.062,2.117-5.062,2.117s0.736,3.774-2.117,6.811&#10;&#9;&#9;&#9;&#9;&#9;c0.644,1.289,3.221,3.497,3.221,3.497s-1.289,1.657-2.485,2.209c-1.565-1.473-4.326-3.59-4.326-3.59s-3.313,1.565-6.995-0.184&#10;&#9;&#9;&#9;&#9;&#9;c-1.012,1.196-3.866,4.694-3.866,4.694s-1.933-1.196-3.129-2.577c1.381-1.565,3.682-4.234,3.682-4.234s-2.393-2.485-2.209-6.535&#10;&#9;&#9;&#9;&#9;&#9;c-2.761-0.92-5.522-1.933-5.522-1.933S310.413,524.737,311.61,523.541z" />
                    <path
                        d="M311.61,523.541l5.891,1.381c0,0,1.381-2.853,4.602-3.774&#10;&#9;&#9;&#9;&#9;&#9;c0.092-2.669,0.184-6.075,0.184-6.075s2.669-0.46,4.602,0.184c0,1.381,0.184,5.706,0.184,5.706s4.234,0.552,5.706,4.05&#10;&#9;&#9;&#9;&#9;&#9;c2.577-0.552,4.97-1.381,4.97-1.381s1.012,1.749,1.289,3.129c-1.841,0.552-5.062,2.117-5.062,2.117s0.736,3.774-2.117,6.811&#10;&#9;&#9;&#9;&#9;&#9;c0.644,1.289,3.221,3.497,3.221,3.497s-1.289,1.657-2.485,2.209c-1.565-1.473-4.326-3.59-4.326-3.59s-3.313,1.565-6.995-0.184&#10;&#9;&#9;&#9;&#9;&#9;c-1.012,1.196-3.866,4.694-3.866,4.694s-1.933-1.196-3.129-2.577c1.381-1.565,3.682-4.234,3.682-4.234s-2.393-2.485-2.209-6.535&#10;&#9;&#9;&#9;&#9;&#9;c-2.761-0.92-5.522-1.933-5.522-1.933S310.413,524.737,311.61,523.541z" />
                </g>
                <path
                    d="M317.218,512.431c1.703,1.553,0.566,5.572-2.54,8.978c-3.105,3.406-7.003,4.908-8.706,3.355&#10;&#9;&#9;&#9;&#9;disposable-0.566-5.572,2.54-8.978C311.617,512.381,315.515,510.878,317.218,512.431z"
                    fill="#FFFFFF" />
                <path
                    d="M307.517,530.936c1.536,0.721,1.922,3.137,0.862,5.397c-1.061,2.259-3.166,3.506-4.702,2.785&#10;&#9;&#9;&#9;&#9;disposable-1.922-3.137-0.862-5.397C303.875,531.462,305.98,530.215,307.517,530.936z"
                    fill="#FFFFFF" />
                <path
                    d="M 370.794 504.776 L 396.465 504.969 L 397.625 465.059 C 397.625 465.059 390.354 461.224 380.704 475.568 C 373.356 486.49 370.794 504.776 370.794 504.776 Z"
                    fill="#FFFFFF" />
                <ellipse cx="363.492" cy="512.078" fill="#FFFFFF" rx="3.651" ry="2.477" />
                <circle cx="349.018" cy="552.5" fill="none" r="5.803" stroke="#85878A"
                    stroke-miterlimit="10" />
                <circle cx="348.79" cy="552.435" fill="none" r="3.129" stroke="#87898B"
                    stroke-miterlimit="10" />
                <path
                    d="M318.115,557.194c0,0-5.998-29.208,30.251-36.51l0.261,10.692c0,0-22.949-0.261-22.167,26.34&#10;&#9;&#9;&#9;&#9;L318.115,557.194z"
                    fill="#FFFFFF" />
                <path
                    d="M 365.056 525.117 C 365.056 525.117 379.921 534.245 380.182 553.543 C 385.919 553.543 394.774 553.417 394.774 553.417 L 394.774 551.978 L 382.269 551.978 C 382.268 551.979 382.268 531.898 365.056 525.117 Z" />
                <path
                    d="M310.03,557.455c0,0.432-0.35,0.782-0.782,0.782h-14.083c-0.432,0-0.782-0.35-0.782-0.782v-7.302&#10;&#9;&#9;&#9;&#9;c0-0.432,0.35-0.782,0.782-0.782h14.083c0.432,0,0.782,0.35,0.782,0.782V557.455z"
                    fill="#FFFFFF" />
            </g>
        </g>
    </g>
</svg>