<?xml version="1.0" encoding="utf-8"?>
<svg viewBox="0 0 89 119" xmlns="http://www.w3.org/2000/svg">
    <g transform="matrix(1, 0, 0, 1, -312.363983, -489.067993)">
        <g>
            <path
                d="M353.24,559.036c0.792-1.946,1.606-3.882,2.37-5.838c1.881-4.818,3.496-9.718,4.407-14.825&#10;&#9;&#9;&#9;c0.969-5.432,1.119-10.893,0.581-16.379c-0.488-4.979-1.607-9.801-3.511-14.434c-1.533-3.731-3.558-7.162-6.21-10.213&#10;&#9;&#9;&#9;c-0.079-0.091-0.158-0.184-0.226-0.283c-0.021-0.03-0.003-0.086-0.003-0.292c7.068,4.203,12.469,9.536,13.86,18.14&#10;&#9;&#9;&#9;c0.363-0.22,0.718-0.393,1.025-0.629c2.341-1.8,3.85-4.211,4.927-6.905c0.465-1.162,0.768-2.389,1.24-3.586&#10;&#9;&#9;&#9;c-0.125,1.01-0.198,2.03-0.383,3.029c-0.678,3.664-1.69,7.223-3.493,10.516c-1.832,3.346-2.436,6.984-2.501,10.733&#10;&#9;&#9;&#9;c-0.052,2.981-0.01,5.963,0.084,8.951c2.614-3.474,6.506-4.93,10.103-6.79c2.172-1.123,4.188-2.439,6.033-4.031&#10;&#9;&#9;&#9;c2.577-2.224,4.365-4.983,5.526-8.166c0.1-0.273,0.203-0.545,0.311-0.815c0.016-0.039,0.068-0.063,0.252-0.224&#10;&#9;&#9;&#9;c0,0.485,0.02,0.846-0.003,1.204c-0.211,3.19-1.466,6.003-3.154,8.655c-2.016,3.166-4.521,5.942-7.007,8.731&#10;&#9;&#9;&#9;c-0.885,0.992-1.76,1.993-2.623,2.97c2.858,0.909,5.669,1.802,8.48,2.695c-0.019,0.092-0.038,0.185-0.056,0.277&#10;&#9;&#9;&#9;c-0.174,0-0.348,0.007-0.521-0.001c-2.228-0.11-4.454-0.256-6.683-0.326c-3.216-0.101-5.779,1.134-7.676,3.781&#10;&#9;&#9;&#9;c-2.088,2.914-3.483,6.088-3.951,9.659c-0.086,0.658,0.11,0.954,0.756,1.133c3.772,1.047,7.543,0.884,11.299-0.009&#10;&#9;&#9;&#9;c5.479-1.302,10.391-3.75,14.58-7.541c1.76-1.593,3.519-3.213,5.069-5.002c1.044-1.205,1.753-2.71,2.549-4.117&#10;&#9;&#9;&#9;c0.507-0.896,0.898-1.856,1.465-2.735c0.377,4.533-2.285,7.956-4.335,11.71c0.701,0.093,1.288,0.171,1.991,0.264&#10;&#9;&#9;&#9;c-0.153,0.288-0.232,0.577-0.417,0.755c-0.416,0.401-0.845,0.815-1.339,1.105c-3.031,1.78-6.062,3.563-9.132,5.274&#10;&#9;&#9;&#9;c-3.145,1.754-6.478,3.068-9.936,4.087c-3.991,1.177-7.52,3.125-10.156,6.447c-2.083,2.625-3.123,5.656-3.459,8.966&#10;&#9;&#9;&#9;c-0.454,4.473,0.659,8.715,1.824,12.956c1.028,3.743,2.462,7.294,4.655,10.529c0.716,1.056,1.231,2.251,1.802,3.4&#10;&#9;&#9;&#9;c0.165,0.331,0.204,0.725,0.327,1.186c-0.901,0.044-1.694,0.119-2.486,0.117c-7.716-0.018-15.431-0.057-23.147-0.064&#10;&#9;&#9;&#9;c-0.752-0.001-0.797-0.455-0.727-0.943c0.278-1.939,0.43-3.919,0.942-5.797c1.171-4.294,2.051-8.635,2.469-13.059&#10;&#9;&#9;&#9;c0.248-2.629,0.432-5.275,0.433-7.913c0.003-6.829-2.096-13.013-5.995-18.605c-1.625-2.331-3.821-3.748-6.612-4.238&#10;&#9;&#9;&#9;c-2.945-0.517-5.912-1.046-8.854-0.106c-2.237,0.715-4.426,1.582-6.629,2.402c-0.65,0.242-1.275,0.553-1.911,0.832&#10;&#9;&#9;&#9;c-0.069-0.058-0.138-0.117-0.206-0.175c0.301-0.455,0.509-1.032,0.92-1.341c1.176-0.884,2.369-1.785,3.672-2.451&#10;&#9;&#9;&#9;c3.236-1.655,6.656-2.801,10.294-3.194c0.454-0.049,0.917-0.03,1.376-0.018c0.703,0.018,1.405,0.091,2.107,0.079&#10;&#9;&#9;&#9;c1.29-0.023,1.768-0.581,1.362-1.821c-0.373-1.14-0.881-2.264-1.501-3.292c-1.895-3.146-3.772-6.331-4.758-9.868&#10;&#9;&#9;&#9;c-1.49-5.348-1.737-10.758,0.317-16.075c0.186-0.48,0.452-0.929,0.681-1.393c0.075,0.017,0.149,0.034,0.224,0.051&#10;&#9;&#9;&#9;c0,0.3-0.002,0.599,0,0.899c0.057,7.436,1.805,14.401,5.78,20.745c1.618,2.582,3.542,4.922,5.675,7.088&#10;&#9;&#9;&#9;c2.633,2.674,4.67,5.757,6.314,9.111C352.488,555.594,353.107,557.219,353.24,559.036z"
                fill="#7E501C" />
        </g>
        <path
            d="M338.333,552.177c0,0,9.72,1.741,11.751,19.005c2.031,17.264-3.851,24.526-3.739,31.921h3.594&#10;&#9;&#9;c0,0-1.306-5.952,1.016-14.802s-0.364-22.241-2.756-27.71C345.152,553.627,338.333,552.177,338.333,552.177z"
            fill="#653F0F" />
        <path
            d="M332.24,526.063c0,0-0.725,8.124,5.368,15.813C337.608,541.876,332.82,535.348,332.24,526.063z"
            fill="#653F0F" />
        <path
            d="M357.628,507.348c0,0,4.352,6.819,3.917,22.197C361.545,529.544,363.722,515.762,357.628,507.348z"
            fill="#653F0F" />
        <path
            d="M370.685,508.653c0,0-1.741,7.544-5.368,11.896C365.317,520.55,369.235,513.731,370.685,508.653z"
            fill="#653F0F" />
        <path
            d="M365.317,548.985c0,0,1.741-9.14,10.881-8.705C376.198,540.28,368.074,541.151,365.317,548.985z"
            fill="#653F0F" />
        <path
            d="M371.121,538.829c0,0,8.85-4.497,13.202-12.912C384.323,525.918,379.245,533.462,371.121,538.829z"
            fill="#653F0F" />
        <path
            d="M362.561,575.969c0,0,0.145-14.363,13.057-16.394C375.618,559.576,364.592,561.897,362.561,575.969z"
            fill="#653F0F" />
        <path
            d="M382.146,556.819c0,0,9.575-2.321,15.668-12.912C397.815,543.907,392.737,552.612,382.146,556.819z"
            fill="#653F0F" />
        <path
            d="M330.934,605.13c0,0,12.477-8.415,31.047-6.093c18.57,2.321,22.342,8.124,22.342,8.124&#10;&#9;&#9;S352.986,595.265,330.934,605.13z"
            fill="#8DADBD" />
        <path
            d="M380.841,606.001c0,0-30.466-11.026-49.907-0.87c0,0,6.964-1.451,10.155-2.031l-5.803,3.772&#10;&#9;&#9;C335.286,606.871,350.084,600.488,380.841,606.001z"
            fill="#B7D6E5" />
        <path
            d="M371.362,603.196c0,0,0.29-5.223,2.902-6.383c0,0,0.387,1.644-0.774,2.998&#10;&#9;&#9;C372.33,601.165,371.362,603.196,371.362,603.196z"
            fill="#7AC143" />
        <path
            d="M343.024,600.971c0,0.306-1.838-1.451-1.547-3.482C341.476,597.489,343.024,598.843,343.024,600.971z"
            fill="#7AC143" />
        <path
            d="M376.102,602.229c0,0,1.741-4.352,4.062-3.965C380.164,598.263,378.616,601.358,376.102,602.229z"
            fill="#7AC143" />
        <path
            d="M351.438,605.71c0,0-2.708-1.934-2.321-5.997C349.117,599.714,351.245,601.358,351.438,605.71z"
            fill="#7AC143" />
        <path
            d="M362.044,605.067c0,0-3.133-1.123-3.868-5.136C358.176,599.93,360.672,600.932,362.044,605.067z"
            fill="#7AC143" />
        <path
            d="M331.514,524.757c0,0-1.451-4.159-3.965-3.482C327.549,521.275,329,524.95,331.514,524.757z"
            fill="#7AC143" />
        <path
            d="M333.932,520.888c0,0,0.387-4.546,3.482-4.546C337.414,516.342,336.737,519.728,333.932,520.888z"
            fill="#7AC143" />
        <path
            d="M319.811,553.482c0,0-4.933-1.161-7.06,1.257C312.751,554.74,317.393,555.32,319.811,553.482z"
            fill="#4F872D" />
        <path
            d="M317.684,555.9c0,0-4.836-0.29-5.32,3.965C312.364,559.866,315.072,559.092,317.684,555.9z"
            fill="#7AC143" />
        <path
            d="M320.488,556.964c0,0-1.934,2.902,0.87,5.706C321.359,562.671,321.746,558.802,320.488,556.964z"
            fill="#7AC143" />
        <path
            d="M332.772,552.999c0,0-2.031,1.451-0.484,3.095C332.288,556.094,333.642,555.32,332.772,552.999z"
            fill="#4F872D" />
        <path
            d="M330.45,520.018c0,0-2.805-1.354-2.321-4.352C328.129,515.665,329.967,517.6,330.45,520.018z"
            fill="#4F872D" />
        <path
            d="M332.578,516.246c0,0-1.644-3.385,0.677-4.836C333.255,511.41,334.416,512.957,332.578,516.246z"
            fill="#4F872D" />
        <path
            d="M352.406,502.608c0,0-2.418-0.87-5.416,2.128C346.989,504.736,351.245,505.607,352.406,502.608z"
            fill="#4F872D" />
        <path
            d="M365.656,509.862c0,0-1.451-2.902,1.161-3.869C366.817,505.993,367.977,507.348,365.656,509.862z"
            fill="#4F872D" />
        <path
            d="M371.459,510.926c0,0,1.838-4.352,4.546-3.675C376.005,507.251,374.167,510.443,371.459,510.926z"
            fill="#4F872D" />
        <path
            d="M370.298,505.026c0,0-2.805-2.225-1.934-4.352C368.364,500.674,370.395,500.577,370.298,505.026z"
            fill="#4F872D" />
        <path
            d="M378.423,527.078c0,0-1.644-2.805,0.29-4.159C378.713,522.919,380.164,523.983,378.423,527.078z"
            fill="#4F872D" />
        <path
            d="M383.162,531.237c0,0,1.064-3.482,4.062-2.418C387.224,528.819,385.677,531.527,383.162,531.237z"
            fill="#4F872D" />
        <path
            d="M371.266,502.415c0,0-1.644-1.257-0.58-3.095C370.685,499.32,371.749,500.19,371.266,502.415z"
            fill="#7AC143" />
        <path
            d="M372.33,503.285c0,0,0.29-3.675,2.902-3.869C375.231,499.417,376.102,501.254,372.33,503.285z"
            fill="#7AC143" />
        <path
            d="M372.426,505.51c0,0,1.644-3.095,5.513-1.354C377.939,504.156,374.941,506.477,372.426,505.51z"
            fill="#7AC143" />
        <path
            d="M354.34,498.353c0,0-2.225-2.225-0.29-5.029C354.05,493.323,355.887,495.258,354.34,498.353z"
            fill="#7AC143" />
        <path
            d="M351.148,494.581c0,0-2.611-3.385-0.967-5.513C350.181,489.068,351.922,490.228,351.148,494.581z"
            fill="#7AC143" />
        <path
            d="M349.214,497.289c0,0-3.579-0.774-4.449,1.934C344.765,499.223,347.183,500.094,349.214,497.289z"
            fill="#7AC143" />
        <path
            d="M344.668,490.615c0,0,0.29,3.965,4.159,4.159C348.827,494.774,348.053,491.389,344.668,490.615z"
            fill="#4F872D" />
        <path
            d="M384.903,520.888c0,0-2.805-2.611-1.257-5.029C383.646,515.859,386.257,516.342,384.903,520.888z"
            fill="#4F872D" />
        <path
            d="M386.741,516.342c0,0-2.031-3.579,0.29-4.933C387.031,511.41,388.482,513.538,386.741,516.342z"
            fill="#4F872D" />
        <path
            d="M388.868,517.213c0,0-0.29-3.482,3.579-3.869C392.447,513.344,392.35,516.439,388.868,517.213z"
            fill="#7AC143" />
        <path
            d="M388.385,514.215c0,0-1.064-4.159,1.547-5.029C389.932,509.185,390.996,511.893,388.385,514.215z"
            fill="#7AC143" />
        <path
            d="M388.965,520.114c0,0,1.934,2.128,5.029,0C393.995,520.114,391.673,517.6,388.965,520.114z"
            fill="#7AC143" />
        <path
            d="M381.808,542.843c0,0,0.193,3.675,2.418,3.095C384.226,545.938,384.323,543.907,381.808,542.843z"
            fill="#7AC143" />
        <path
            d="M385.87,558.222c0,0-0.193,3.095,1.451,3.288C387.321,561.51,388.288,559.576,385.87,558.222z"
            fill="#7AC143" />
        <path
            d="M370.167,602.667c0,0-0.167-5.833,5.583-8.417l-0.25-0.417C375.5,593.833,369.917,595.5,370.167,602.667z"
            fill="#7AC143" />
        <path d="M375.042,594.25c0,0-0.708-3.208,1.458-4.5C376.5,589.75,376.833,592,375.042,594.25z"
            fill="#00B4F1" />
        <path
            d="M374.792,594.25c0,0,1.083-2.917,3.75-3.667C378.542,590.583,378.208,593.167,374.792,594.25z"
            fill="#00B4F1" />
        <path
            d="M375.167,594.333c0,0,2.458,0,4.458-1.458C379.625,592.875,376.458,592.375,375.167,594.333z"
            fill="#00B4F1" />
        <path
            d="M374.458,594.5c0,0,0.042-1.333,0.458-1.667c0,0,0.25,0.542,0.25,0.75l0.792-0.25L375.667,594&#10;&#9;&#9;c0,0,0.458-0.042,0.875,0.167C376.542,594.167,375,595.125,374.458,594.5z"
            fill="#7AC143" />
        <g>
            <path
                d="M361.7,604.958c0,0,0.167-5.833-5.583-8.417l0.25-0.417C356.367,596.125,361.95,597.792,361.7,604.958z"
                fill="#7AC143" />
            <path
                d="M356.825,596.542c0,0,0.708-3.208-1.458-4.5C355.367,592.042,355.034,594.292,356.825,596.542z"
                fill="#00B4F1" />
            <path
                d="M357.075,596.542c0,0-1.083-2.917-3.75-3.667C353.325,592.875,353.659,595.458,357.075,596.542z"
                fill="#00B4F1" />
            <path
                d="M356.7,596.625c0,0-2.458,0-4.458-1.458C352.242,595.167,355.409,594.667,356.7,596.625z"
                fill="#00B4F1" />
            <path
                d="M357.409,596.792c0,0-0.042-1.333-0.458-1.667c0,0-0.25,0.542-0.25,0.75l-0.792-0.25l0.292,0.667&#10;&#9;&#9;&#9;c0,0-0.458-0.042-0.875,0.167C355.325,596.458,356.867,597.417,357.409,596.792z"
                fill="#7AC143" />
        </g>
        <g>
            <path
                d="M361.746,605.292c0,0-0.09-3.137,3.003-4.527l-0.134-0.224&#10;&#9;&#9;&#9;C364.615,600.541,361.612,601.437,361.746,605.292z"
                fill="#7AC143" />
            <path
                d="M364.368,600.765c0,0-0.381-1.726,0.784-2.42C365.153,598.345,365.332,599.555,364.368,600.765z"
                fill="#00B4F1" />
            <path
                d="M364.234,600.765c0,0,0.583-1.569,2.017-1.972C366.251,598.793,366.071,600.182,364.234,600.765z"
                fill="#00B4F1" />
            <path
                d="M364.435,600.81c0,0,1.322,0,2.398-0.784C366.833,600.025,365.13,599.756,364.435,600.81z"
                fill="#00B4F1" />
            <path
                d="M364.054,600.899c0,0,0.022-0.717,0.247-0.896c0,0,0.134,0.291,0.134,0.403l0.426-0.134l-0.157,0.359&#10;&#9;&#9;&#9;c0,0,0.247-0.022,0.471,0.09C365.175,600.72,364.346,601.235,364.054,600.899z"
                fill="#7AC143" />
        </g>
        <g>
            <path
                d="M343.003,601.042c0,0,0.1-3.497-3.347-5.046l0.15-0.25C339.806,595.746,343.153,596.745,343.003,601.042z"
                fill="#7AC143" />
            <path
                d="M340.081,595.996c0,0,0.425-1.923-0.874-2.698C339.207,593.299,339.007,594.647,340.081,595.996z"
                fill="#00B4F1" />
            <path
                d="M340.231,595.996c0,0-0.649-1.748-2.248-2.198C337.983,593.798,338.183,595.347,340.231,595.996z"
                fill="#00B4F1" />
            <path
                d="M340.006,596.046c0,0-1.474,0-2.673-0.874C337.333,595.172,339.232,594.872,340.006,596.046z"
                fill="#00B4F1" />
            <path
                d="M340.431,596.146c0,0-0.025-0.799-0.275-0.999c0,0-0.15,0.325-0.15,0.45l-0.475-0.15l0.175,0.4&#10;&#9;&#9;&#9;c0,0-0.275-0.025-0.525,0.1C339.182,595.946,340.106,596.521,340.431,596.146z"
                fill="#7AC143" />
        </g>
    </g>
</svg>