<?xml version="1.0" encoding="utf-8"?>
<svg viewBox="0 0 126 134" xmlns="http://www.w3.org/2000/svg">
    <g transform="matrix(1, 0, 0, 1, -298.346985, -320.041992)">
        <g>
            <path
                d="M362.718,405.834c0.792-1.946,1.606-3.882,2.37-5.838c1.881-4.818,3.496-9.718,4.407-14.825&#10;&#9;&#9;&#9;c0.969-5.432,1.119-10.893,0.581-16.379c-0.488-4.979-1.607-9.801-3.511-14.434c-1.533-3.731-3.558-7.162-6.21-10.213&#10;&#9;&#9;&#9;c-0.079-0.091-0.158-0.184-0.226-0.283c-0.021-0.03-0.003-0.086-0.003-0.292c7.068,4.203,12.469,9.536,13.86,18.14&#10;&#9;&#9;&#9;c0.363-0.22,0.718-0.393,1.025-0.629c2.341-1.8,3.85-4.211,4.927-6.905c0.465-1.162,0.768-2.389,1.24-3.586&#10;&#9;&#9;&#9;c-0.125,1.01-0.198,2.03-0.383,3.029c-0.678,3.664-1.69,7.223-3.493,10.516c-1.832,3.345-2.436,6.984-2.501,10.733&#10;&#9;&#9;&#9;c-0.052,2.981-0.01,5.963,0.084,8.951c2.614-3.474,6.506-4.93,10.103-6.79c2.172-1.123,4.188-2.439,6.033-4.031&#10;&#9;&#9;&#9;c2.577-2.224,4.365-4.983,5.526-8.166c0.1-0.273,0.203-0.545,0.311-0.815c0.016-0.039,0.068-0.063,0.252-0.225&#10;&#9;&#9;&#9;c0,0.485,0.02,0.846-0.003,1.204c-0.211,3.19-1.466,6.003-3.154,8.655c-2.016,3.166-4.521,5.942-7.007,8.731&#10;&#9;&#9;&#9;c-0.885,0.992-1.76,1.993-2.623,2.97c2.858,0.909,5.669,1.802,8.48,2.695c-0.019,0.092-0.038,0.184-0.056,0.277&#10;&#9;&#9;&#9;c-0.174,0-0.348,0.007-0.521-0.001c-2.228-0.11-4.454-0.256-6.683-0.326c-3.216-0.101-5.779,1.134-7.676,3.781&#10;&#9;&#9;&#9;c-2.088,2.914-3.483,6.088-3.951,9.659c-0.086,0.658,0.11,0.954,0.756,1.133c3.772,1.047,7.543,0.884,11.299-0.009&#10;&#9;&#9;&#9;c5.479-1.302,10.391-3.75,14.58-7.541c1.76-1.593,3.519-3.213,5.069-5.002c1.044-1.205,1.753-2.71,2.549-4.117&#10;&#9;&#9;&#9;c0.507-0.896,0.898-1.856,1.465-2.735c0.377,4.533-2.285,7.956-4.335,11.71c0.701,0.093,1.288,0.171,1.991,0.264&#10;&#9;&#9;&#9;c-0.153,0.288-0.232,0.577-0.417,0.755c-0.416,0.401-0.845,0.815-1.339,1.105c-3.031,1.78-6.062,3.563-9.132,5.274&#10;&#9;&#9;&#9;c-3.145,1.754-6.478,3.068-9.936,4.087c-3.991,1.177-7.52,3.125-10.156,6.447c-2.083,2.625-3.123,5.656-3.459,8.966&#10;&#9;&#9;&#9;c-0.454,4.473,0.659,8.715,1.824,12.956c1.028,3.743,2.462,7.294,4.655,10.529c0.716,1.056,1.231,2.251,1.802,3.4&#10;&#9;&#9;&#9;c0.165,0.331,0.204,0.725,0.327,1.186c-0.901,0.044-1.694,0.119-2.486,0.117c-7.716-0.018-15.431-0.057-23.147-0.064&#10;&#9;&#9;&#9;c-0.752-0.001-0.797-0.455-0.727-0.943c0.278-1.939,0.43-3.918,0.942-5.797c1.171-4.294,2.051-8.635,2.469-13.059&#10;&#9;&#9;&#9;c0.248-2.629,0.432-5.275,0.433-7.913c0.003-6.829-2.096-13.013-5.995-18.605c-1.625-2.331-3.821-3.748-6.612-4.238&#10;&#9;&#9;&#9;c-2.945-0.517-5.912-1.046-8.854-0.106c-2.237,0.715-4.426,1.582-6.629,2.402c-0.65,0.242-1.275,0.553-1.911,0.832&#10;&#9;&#9;&#9;c-0.069-0.058-0.138-0.117-0.206-0.175c0.301-0.455,0.509-1.032,0.92-1.341c1.176-0.884,2.369-1.785,3.672-2.451&#10;&#9;&#9;&#9;c3.236-1.655,6.656-2.801,10.294-3.194c0.454-0.049,0.917-0.03,1.376-0.018c0.703,0.018,1.405,0.091,2.107,0.079&#10;&#9;&#9;&#9;c1.29-0.023,1.768-0.581,1.362-1.821c-0.373-1.14-0.881-2.264-1.501-3.292c-1.895-3.146-3.772-6.331-4.758-9.868&#10;&#9;&#9;&#9;c-1.49-5.348-1.737-10.758,0.317-16.075c0.186-0.48,0.452-0.929,0.681-1.393c0.075,0.017,0.149,0.034,0.224,0.051&#10;&#9;&#9;&#9;c0,0.3-0.002,0.599,0,0.899c0.057,7.436,1.805,14.401,5.78,20.745c1.618,2.582,3.542,4.922,5.675,7.088&#10;&#9;&#9;&#9;c2.633,2.674,4.67,5.757,6.314,9.112C361.967,402.392,362.586,404.017,362.718,405.834z"
                fill="#7E501C" />
            <path
                d="M342.961,320.042c4.06,1.25,8.008,2.163,11.075,5.04c2.261,2.121,3.7,4.674,3.995,7.782&#10;&#9;&#9;&#9;c0.284,2.983,0.471,5.975,0.708,9.047c-0.236-0.074-0.503-0.143-0.758-0.242c-2.802-1.085-5.577-2.25-8.41-3.247&#10;&#9;&#9;&#9;c-4.404-1.55-6.097-4.909-6.153-8.83c-0.023-1.641,0.178-3.288,0.32-4.928C343.87,323.125,343.893,321.615,342.961,320.042z"
                fill="#E9741F" />
            <path
                d="M311.067,416.948c1.758-4.457,3.218-8.927,7.777-11.323c2.598-1.365,5.279-2.44,8.183-2.919&#10;&#9;&#9;&#9;c0.239-0.039,0.483-0.044,0.724-0.073c0.585-0.07,0.758,0.223,0.622,0.738c-1.05,3.992-2.432,7.779-5.942,10.385&#10;&#9;&#9;&#9;c-1.741,1.293-3.671,2.068-5.77,2.452c-1.597,0.292-3.21,0.499-4.817,0.735C311.633,416.974,311.416,416.948,311.067,416.948z"
                fill="#E9741F" />
            <path
                d="M398.953,353.735c-0.276,2.918-0.751,5.794-1.645,8.58c-0.134-0.014-0.208-0.003-0.22-0.026&#10;&#9;&#9;&#9;c-1.165-2.184-2.304-4.383-2.741-6.854c-0.372-2.103,0.175-3.99,1.444-5.682c0.757-1.009,1.559-1.986,2.274-3.023&#10;&#9;&#9;&#9;c0.761-1.103,1.447-2.258,1.275-3.713c1.642,0.81,3.617,6.178,3.595,9.745c-0.029,4.594-1.428,8.626-4.908,11.802&#10;&#9;&#9;&#9;C399.04,361.008,400.147,357.482,398.953,353.735z"
                fill="#F6CB2B" />
            <path
                d="M298.347,411.631c1.925-4.598,5.395-7.481,10.029-9.034c3.226-1.081,6.467-1.137,9.698,0.088&#10;&#9;&#9;&#9;c-3.607,0.789-7.249,1.423-9.971,4.259c2.709-1.103,5.451-2.078,8.332-2.563c0.043,0.067,0.086,0.133,0.129,0.2&#10;&#9;&#9;&#9;c-0.474,0.66-0.904,1.358-1.433,1.971c-1.042,1.207-2.051,2.464-3.233,3.522c-1.624,1.453-3.62,1.87-5.777,1.551&#10;&#9;&#9;&#9;c-1.604-0.238-3.21-0.474-4.822-0.643C300.274,410.876,299.265,411.026,298.347,411.631z"
                fill="#F6CB2B" />
            <path
                d="M330.995,352.139c3.038,1.32,6.023,2.488,7.887,5.365c1.287,1.986,1.474,4.16,1.333,6.43&#10;&#9;&#9;&#9;c-0.085,1.378-0.103,2.76-0.154,4.141c-0.005,0.139-0.031,0.278-0.056,0.495c-0.243-0.097-0.446-0.156-0.628-0.254&#10;&#9;&#9;&#9;c-1.882-1.004-3.764-2.011-5.641-3.023c-2.58-1.392-3.754-3.659-3.371-6.583c0.119-0.911,0.315-1.814,0.514-2.712&#10;&#9;&#9;&#9;C331.245,354.345,331.281,353.74,330.995,352.139z"
                fill="#F6CB2B" />
            <path
                d="M323.034,434.798c1.401-1.964,2.621-3.875,6.005-5.381c2.337-1.04,4.98-1.467,7.763-1.716&#10;&#9;&#9;&#9;c1.69-0.151,3.38-0.343,5.07-0.515c0.171-0.017,0.342-0.023,0.609-0.04c-0.101,0.156-0.16,0.283-0.266,0.403&#10;&#9;&#9;&#9;c-1.096,1.244-2.195,2.488-3.301,3.73c-1.521,1.707-4.21,2.723-7.808,2.926c-1.122,0.063-2.239,0.081-3.35,0.096&#10;&#9;&#9;&#9;C325.713,434.33,324.971,434.397,323.034,434.798z"
                fill="#F6CB2B" />
            <path
                d="M351.219,342.924c-0.999,1.507-0.72,3.152-0.577,4.759c0.12,1.35,0.409,2.686,0.503,4.036&#10;&#9;&#9;&#9;c0.128,1.857-0.564,3.47-1.752,4.874c-1.555,1.837-3.587,3.079-5.599,4.419c0.42-2.935,1.424-5.667,2.592-8.365&#10;&#9;&#9;&#9;c-1.414,1.235-2.37,2.769-2.921,4.531c-0.547,1.751-0.989,3.536-1.547,5.314c-0.994-2.783-1.03-5.64-0.235-8.47&#10;&#9;&#9;&#9;C343.129,348.871,346.154,345.009,351.219,342.924z"
                fill="#F6CB2B" />
            <path
                d="M380.783,347.82c-1.501-2.389-3.122-4.685-3.531-7.527c-0.268-1.862,0.276-3.542,1.287-5.103&#10;&#9;&#9;&#9;c0.764-1.179,1.534-2.358,2.211-3.587c0.549-0.998,0.98-2.067,0.611-3.281c1.858,0.958,4.168,6.052,4.415,9.7&#10;&#9;&#9;&#9;c0.306,4.511-0.777,8.57-3.938,11.965c0.681-3.628,1.564-7.236,0.027-10.867C381.785,342.049,381.65,344.967,380.783,347.82z"
                fill="#F6CB2B" />
            <path
                d="M425.071,403.645c-2.753,0.788-5.391,1.629-8.218,1.128c-2.163-0.383-3.982-1.388-5.338-3.117&#10;&#9;&#9;&#9;c-1.282-1.634-2.483-3.331-3.765-5.063c0.209-0.062,0.422-0.144,0.644-0.188c2.091-0.409,4.188-0.786,6.274-1.222&#10;&#9;&#9;&#9;c2.77-0.579,4.91,0.399,6.503,2.632c0.615,0.861,1.086,1.83,1.571,2.777C423.567,402.21,423.772,402.516,425.071,403.645z"
                fill="#F6CB2B" />
            <path
                d="M420.185,427.707c-2.374,0.791-4.641,1.589-7.185,1.793c-1.947,0.156-3.638-0.029-4.979-0.622&#10;&#9;&#9;&#9;c-1.267-0.561-2.468-1.163-3.744-1.769c0.18-0.061,0.362-0.132,0.555-0.187c1.818-0.513,3.645-1.012,5.456-1.536&#10;&#9;&#9;&#9;c2.406-0.697,4.379-0.573,5.971,0.218c0.614,0.305,1.11,0.682,1.615,1.047C418.737,427.273,418.943,427.383,420.185,427.707z"
                fill="#F6CB2B" />
            <path
                d="M410.021,381.753c-0.03-0.222-0.069-0.405-0.078-0.59c-0.109-2.103-0.204-4.207-0.322-6.31&#10;&#9;&#9;&#9;c-0.169-3.012,1.045-5.121,3.786-6.402c0.918-0.429,1.897-0.726,2.852-1.075c1.117-0.408,2.252-0.782,3.077-1.882&#10;&#9;&#9;&#9;c0.065,0.251,0.124,0.415,0.148,0.584c0.289,2.087,0.633,4.178,0.269,6.288c-0.473,2.742-1.792,4.955-4.243,6.372&#10;&#9;&#9;&#9;C413.733,379.765,411.912,380.717,410.021,381.753z"
                fill="#E9741F" />
            <path
                d="M334.181,341.746c2.329-2.178,4.529-4.296,7.803-4.678c1.604-0.187,3.093,0.12,4.513,0.819&#10;&#9;&#9;&#9;c1.607,0.791,3.196,1.621,4.886,2.482c-0.179,0.158-0.354,0.33-0.547,0.479c-1.42,1.097-2.855,2.175-4.264,3.286&#10;&#9;&#9;&#9;c-2.378,1.876-4.745,2.04-7.321,0.435c-0.719-0.448-1.388-0.976-2.069-1.483C335.982,342.193,335.45,341.94,334.181,341.746z"
                fill="#F6CB2B" />
            <path
                d="M322.887,366.837c7.21-2.508,15.932,2.537,17.77,8.8c-2.722-2.219-5.253-4.437-8.984-4.761&#10;&#9;&#9;&#9;c1.312,0.762,2.486,1.388,3.6,2.107c1.12,0.722,2.18,1.537,3.205,2.427c-2.709,0.248-5.368,0.673-7.941-0.369&#10;&#9;&#9;&#9;c-1.455-0.589-2.484-1.653-3.247-3.005c-0.524-0.929-1.051-1.858-1.622-2.758C325.012,368.248,324.263,367.298,322.887,366.837z"
                fill="#E9741F" />
            <path
                d="M308.413,425.93c3.537-1.23,7.816,1.245,8.718,4.317c-1.335-1.088-2.577-2.177-4.408-2.336&#10;&#9;&#9;&#9;c0.644,0.374,1.219,0.681,1.766,1.034c0.549,0.354,1.069,0.754,1.572,1.191c-1.329,0.122-2.634,0.33-3.896-0.181&#10;&#9;&#9;&#9;c-0.714-0.289-1.219-0.811-1.593-1.474c-0.257-0.456-0.516-0.912-0.796-1.353C309.456,426.622,309.088,426.156,308.413,425.93z"
                fill="#E9741F" />
            <path
                d="M340.19,405.018c3.537-1.23,7.816,1.245,8.718,4.317c-1.335-1.088-2.577-2.177-4.408-2.336&#10;&#9;&#9;&#9;c0.644,0.374,1.219,0.681,1.766,1.034c0.549,0.354,1.069,0.754,1.572,1.191c-1.329,0.122-2.634,0.33-3.896-0.181&#10;&#9;&#9;&#9;c-0.714-0.289-1.219-0.811-1.593-1.474c-0.257-0.456-0.516-0.912-0.796-1.353C341.232,405.711,340.865,405.244,340.19,405.018z"
                fill="#E9741F" />
            <path
                d="M384.247,436.475c3.537-1.23,7.816,1.245,8.718,4.317c-1.335-1.088-2.577-2.177-4.408-2.336&#10;&#9;&#9;&#9;c0.644,0.374,1.219,0.681,1.766,1.034c0.549,0.354,1.069,0.754,1.572,1.191c-1.329,0.122-2.634,0.33-3.896-0.181&#10;&#9;&#9;&#9;c-0.714-0.289-1.219-0.811-1.593-1.474c-0.257-0.456-0.516-0.912-0.796-1.353C385.29,437.167,384.923,436.701,384.247,436.475z"
                fill="#E9741F" />
            <path
                d="M402.584,411.956c-1.69,3.342-6.488,4.534-9.27,2.95c1.716-0.144,3.366-0.224,4.793-1.381&#10;&#9;&#9;&#9;c-0.723,0.178-1.35,0.357-1.988,0.483c-0.641,0.127-1.293,0.2-1.958,0.235c0.872-1.011,1.665-2.067,2.928-2.576&#10;&#9;&#9;&#9;c0.714-0.288,1.44-0.263,2.17-0.046c0.502,0.149,1.004,0.298,1.513,0.421C401.353,412.182,401.941,412.262,402.584,411.956z"
                fill="#F6CB2B" />
            <path
                d="M346.977,443.432c-1.69,3.342-6.488,4.534-9.27,2.95c1.717-0.144,3.366-0.224,4.793-1.381&#10;&#9;&#9;&#9;c-0.723,0.178-1.35,0.357-1.988,0.483c-0.641,0.127-1.293,0.2-1.958,0.235c0.872-1.011,1.665-2.067,2.928-2.576&#10;&#9;&#9;&#9;c0.714-0.288,1.44-0.263,2.17-0.046c0.502,0.149,1.004,0.298,1.513,0.421C345.746,443.658,346.335,443.738,346.977,443.432z"
                fill="#F6CB2B" />
            <path
                d="M344.658,367.928c0.812-2.557,1.532-5.199,3.692-7.12c1.334-1.186,2.875-1.872,4.657-1.986&#10;&#9;&#9;&#9;c1.807-0.116,3.616-0.205,5.536-0.313c-0.112,0.304-0.198,0.567-0.303,0.821c-0.628,1.523-1.343,3.015-1.875,4.571&#10;&#9;&#9;&#9;c-1.194,3.494-3.922,4.317-6.782,4.075c-0.917-0.077-1.83-0.237-2.747-0.257C346.13,367.704,345.42,367.849,344.658,367.928z"
                fill="#F6CB2B" />
            <path
                d="M393.167,386.6c0.59-1.307,0.362-2.663,0.241-4.008c-0.138-1.54-0.116-3.051,0.556-4.489&#10;&#9;&#9;&#9;c0.572-1.223,1.484-2.089,2.739-2.573c2.012-0.775,4.032-1.529,6.051-2.289c0.087-0.033,0.188-0.031,0.354-0.056&#10;&#9;&#9;&#9;c-0.094,0.963-0.191,1.891-0.273,2.821c-0.079,0.893-0.11,1.791-0.218,2.681c-0.354,2.904-1.914,5.02-4.485,6.295&#10;&#9;&#9;&#9;c-1.543,0.765-3.228,1.244-4.85,1.851C393.243,386.756,393.205,386.678,393.167,386.6z"
                fill="#E9741F" />
            <path
                d="M397.506,368.518c1.117-2.638,2.142-5.341,4.734-7.008c1.209-0.777,2.507-1.255,3.96-1.255&#10;&#9;&#9;&#9;c1.981,0,3.963,0,6.147,0c-0.209,0.447-0.305,0.675-0.42,0.893c-0.837,1.584-1.689,3.161-2.514,4.751&#10;&#9;&#9;&#9;c-1.413,2.723-3.682,3.738-7.02,3.112c-0.404-0.076-0.803-0.186-1.207-0.263c-0.618-0.118-1.235-0.273-1.859-0.314&#10;&#9;&#9;&#9;C398.741,368.395,398.147,368.483,397.506,368.518z"
                fill="#E9741F" />
            <path
                d="M367.215,324.09c0.183,0.239,0.35,0.43,0.488,0.639c2.233,3.373,1.841,7.912-0.996,11.192&#10;&#9;&#9;&#9;c-0.648,0.749-1.386,1.421-2.081,2.13c-0.95,0.969-1.896,1.941-2.848,2.908c-0.401,0.407-0.813,0.804-1.21,1.195&#10;&#9;&#9;&#9;c-0.121-0.093-0.184-0.117-0.19-0.151c-0.285-1.717-0.564-3.436-0.846-5.153c-0.289-1.759,0.228-3.263,1.464-4.519&#10;&#9;&#9;&#9;c1.257-1.278,2.573-2.499,3.805-3.8c1.118-1.18,1.864-2.591,2.244-4.183C367.061,324.285,367.119,324.233,367.215,324.09z"
                fill="#F6CB2B" />
            <path
                d="M407.999,395.307c0.803-2.082,1.481-4.046,2.32-5.939c0.51-1.151,1.545-1.863,2.76-2.218&#10;&#9;&#9;&#9;c1.186-0.347,2.384-0.663,3.591-0.929c2.321-0.511,4.423-1.421,6.206-3.307c0.062,0.482,0.157,0.846,0.149,1.208&#10;&#9;&#9;&#9;c-0.089,3.994-2.043,6.794-5.59,8.491c-0.975,0.467-2.052,0.731-3.098,1.034c-1.723,0.498-3.459,0.955-5.192,1.421&#10;&#9;&#9;&#9;C408.809,395.157,408.461,395.211,407.999,395.307z"
                fill="#F6CB2B" />
            <path
                d="M330.577,398.763c-1.479,1.031-2.891,2.045-4.336,3.013c-1.439,0.964-2.998,1.195-4.648,0.598&#10;&#9;&#9;&#9;c-0.706-0.256-1.418-0.502-2.106-0.801c-2.552-1.11-5.127-2.079-8.113-1.471c0.722-1.577,1.79-2.67,3.133-3.485&#10;&#9;&#9;&#9;c2.436-1.478,5.085-1.823,7.773-0.971c2.699,0.855,5.326,1.941,7.983,2.93C330.371,398.616,330.465,398.695,330.577,398.763z"
                fill="#F6CB2B" />
            <path
                d="M327.704,390.577c1.586,1.878,3.09,3.809,4.301,5.989c-0.147,0.07-0.221,0.137-0.264,0.121&#10;&#9;&#9;&#9;c-1.771-0.649-3.597-1.185-5.294-1.992c-2.08-0.989-3.116-2.818-3.436-5.084c-0.155-1.103-0.368-2.201-0.624-3.284&#10;&#9;&#9;&#9;c-0.234-0.993-0.609-1.937-1.558-2.586c7.251,0.055,13.551,7.616,13.024,13.856C332.218,394.762,330.712,392.007,327.704,390.577z&#10;&#9;&#9;&#9;"
                fill="#F6CB2B" />
            <path
                d="M394.038,367.676c-2.551-1.312-5.191-2.642-6.451-5.606c-0.506-1.191-0.675-2.417-0.526-3.693&#10;&#9;&#9;&#9;c0.196-1.676,0.4-3.352,0.614-5.137c0.274,0.156,0.518,0.283,0.749,0.43c1.285,0.822,2.525,1.723,3.857,2.459&#10;&#9;&#9;&#9;c2.974,1.641,3.378,4.103,2.784,6.712c-0.161,0.706-0.464,1.382-0.611,2.09C394.269,365.812,394.178,366.715,394.038,367.676z"
                fill="#F6CB2B" />
            <path
                d="M381.491,354.814c0.468-1.735,0.86-3.425,1.391-5.07c0.299-0.925,1.036-1.584,1.942-1.966&#10;&#9;&#9;&#9;c0.959-0.404,1.937-0.769,2.921-1.106c1.881-0.644,3.604-1.524,4.935-3.263c0.409,1.433,0.339,2.71-0.044,3.972&#10;&#9;&#9;&#9;c-0.673,2.218-2.134,3.828-4.19,4.777c-2.129,0.983-4.358,1.75-6.545,2.606C381.799,354.804,381.676,354.793,381.491,354.814z"
                fill="#F6CB2B" />
            <path
                d="M405.207,397.993c1.397,0.22,2.511,0.702,3.483,1.49c2.332,1.892,3.065,4.45,2.975,7.327&#10;&#9;&#9;&#9;c-0.056,1.792-0.149,3.583-0.23,5.374c-0.007,0.162-0.046,0.323-0.093,0.632c-1.496-1.219-2.994-2.282-4.279-3.561&#10;&#9;&#9;&#9;c-0.535-0.533-0.759-1.505-0.861-2.311c-0.123-0.973,0.001-1.983,0.074-2.973C406.426,401.938,406.284,399.959,405.207,397.993z"
                fill="#E9741F" />
            <path
                d="M380.265,421.859c1.097-0.892,2.2-1.399,3.436-1.596c2.966-0.472,5.359,0.692,7.439,2.681&#10;&#9;&#9;&#9;c1.296,1.239,2.566,2.505,3.845,3.762c0.116,0.114,0.209,0.25,0.408,0.491c-1.906,0.299-3.698,0.703-5.508,0.805&#10;&#9;&#9;&#9;c-0.754,0.042-1.627-0.441-2.295-0.903c-0.806-0.558-1.475-1.326-2.163-2.042C384.015,423.587,382.447,422.371,380.265,421.859z"
                fill="#E9741F" />
            <path
                d="M365.258,353.713c-1.826,0.164-3.535,0.396-5.25,0.447c-1.547,0.046-2.642-0.838-3.4-2.138&#10;&#9;&#9;&#9;c-0.231-0.396-0.398-0.83-0.589-1.249c-0.435-0.956-0.866-1.914-1.293-2.858c3.553-1.013,7.007-0.573,8.855,2.876&#10;&#9;&#9;&#9;C364.093,351.747,364.659,352.673,365.258,353.713z"
                fill="#F6CB2B" />
            <path
                d="M331.095,414.043c-1.42-1.973-2.807-4.014-2.268-6.71c0.112-0.561,0.299-1.143,0.599-1.623&#10;&#9;&#9;&#9;c0.779-1.247,1.64-2.443,2.462-3.649c0.081,0.02,0.151,0.016,0.166,0.044c0.862,1.513,1.786,2.995,2.557,4.553&#10;&#9;&#9;&#9;c0.648,1.31,0.312,2.617-0.487,3.778c-0.395,0.573-0.923,1.052-1.375,1.588C332.21,412.663,331.687,413.318,331.095,414.043z"
                fill="#F6CB2B" />
            <path
                d="M394.387,396.862c-2.837-0.195-5.528-0.581-7.141-3.283c-0.329-0.552-0.533-1.192-0.714-1.815&#10;&#9;&#9;&#9;c-0.314-1.081-0.564-2.18-0.869-3.379c1.172,0.219,2.255,0.421,3.339,0.623c0.119,0.022,0.237,0.056,0.357,0.066&#10;&#9;&#9;&#9;c3.162,0.254,4.204,2.115,4.44,4.849c0.042,0.482,0.066,0.969,0.159,1.441C394.05,395.832,394.218,396.285,394.387,396.862z"
                fill="#F6CB2B" />
            <path
                d="M352.575,370.065c0.487,1.471,1.025,3.003,0.889,4.659c-0.123,1.497-0.652,2.847-1.807,3.849&#10;&#9;&#9;&#9;c-1.075,0.932-2.219,1.784-3.385,2.714c-0.082-0.171-0.178-0.304-0.211-0.451c-0.319-1.391-0.629-2.785-0.939-4.178&#10;&#9;&#9;&#9;c-0.342-1.538,0.1-2.837,1.269-3.86c0.505-0.442,1.105-0.776,1.673-1.143C350.867,371.135,351.68,370.63,352.575,370.065z"
                fill="#F6CB2B" />
            <path
                d="M368.043,388.203c-0.354-2.303-0.616-4.461-2.19-6.242c0.457,1.724,0.892,3.363,1.369,5.158&#10;&#9;&#9;&#9;c-3.239-1.368-4.779-4.328-4.054-7.396c0.29-1.227,0.55-2.46,0.166-3.735C367.48,377.468,370.088,383.985,368.043,388.203z"
                fill="#E9741F" />
            <path
                d="M380.286,350.922c-1.139-1.543-2.085-3.159-4.001-4.001c1.01,1.207,1.928,2.305,2.918,3.489&#10;&#9;&#9;&#9;c-2.633,0.329-5.348-1.565-5.895-3.931c-0.142-0.614-0.267-1.238-0.484-1.826c-0.205-0.555-0.52-1.068-0.779-1.585&#10;&#9;&#9;&#9;C376.054,342.723,380.444,347.152,380.286,350.922z"
                fill="#F6CB2B" />
            <path
                d="M404.159,389.041c-2.541,2.945-8.989,2.843-11.418-0.159c1.863,0.455,3.652,0.877,5.686,0.268&#10;&#9;&#9;&#9;c-1.629-0.21-3.058-0.394-4.486-0.578c-0.001-0.088-0.002-0.175-0.002-0.263c1.373-0.833,2.744-1.701,4.429-1.749&#10;&#9;&#9;&#9;c0.951-0.027,1.787,0.364,2.553,0.924C401.895,388.196,402.867,388.925,404.159,389.041z"
                fill="#F6CB2B" />
        </g>
        <path
            d="M347.811,398.974c0,0,9.72,1.741,11.751,19.005c2.031,17.264-3.851,24.526-3.739,31.921h3.594&#10;&#9;&#9;c0,0-1.306-5.952,1.016-14.802c2.321-8.85-0.364-22.241-2.756-27.71C354.63,400.425,347.811,398.974,347.811,398.974z"
            fill="#653F0F" />
        <path
            d="M341.718,372.86c0,0-0.725,8.124,5.368,15.813C347.086,388.674,342.298,382.145,341.718,372.86z"
            fill="#653F0F" />
        <path
            d="M367.107,354.145c0,0,4.352,6.819,3.917,22.197C371.024,376.342,373.2,362.56,367.107,354.145z"
            fill="#653F0F" />
        <path
            d="M380.164,355.451c0,0-1.741,7.544-5.368,11.896C374.796,367.347,378.713,360.529,380.164,355.451z"
            fill="#653F0F" />
        <path
            d="M374.796,395.783c0,0,1.741-9.14,10.881-8.705C385.677,387.078,377.552,387.948,374.796,395.783z"
            fill="#653F0F" />
        <path
            d="M380.599,385.627c0,0,8.85-4.497,13.202-12.912C393.801,372.715,388.723,380.259,380.599,385.627z"
            fill="#653F0F" />
        <path
            d="M372.039,422.767c0,0,0.145-14.363,13.057-16.394C385.096,406.373,374.07,408.695,372.039,422.767z"
            fill="#653F0F" />
        <path
            d="M391.625,403.617c0,0,9.575-2.321,15.668-12.912C407.293,390.705,402.216,399.41,391.625,403.617z"
            fill="#653F0F" />
        <path
            d="M340.412,451.928c0,0,12.477-8.415,31.047-6.093c18.57,2.321,22.342,8.124,22.342,8.124&#10;&#9;&#9;S362.464,442.062,340.412,451.928z"
            fill="#E9741F" />
        <path
            d="M390.319,452.798c0,0-30.466-11.026-49.907-0.87c0,0,6.964-1.451,10.155-2.031l-5.803,3.772&#10;&#9;&#9;C344.765,453.669,359.563,447.285,390.319,452.798z"
            fill="#F6CB2B" />
    </g>
</svg>