<?xml version="1.0" encoding="utf-8"?>
<svg viewBox="0 0 199 358" xmlns="http://www.w3.org/2000/svg">
    <g style="" transform="matrix(1, 0, 0, 1, -520, -786.998108)">
        <g>
            <path style="fill: rgb(234, 18, 100);"
                d="M609.667,914.333c0,0,13.667-1.167,30.167-0.167c0,0-10.903-3.764-11.259-3.803&#10;&#9;&#9;c-0.355-0.039-1.776,1.382-3.04,1.224c-1.263-0.158-2.29-0.987-2.29-0.987L609.667,914.333z" />
            <path style="fill: rgb(234, 18, 100);"
                d="M623.273,926.008c14.238,0.138,15.227-6.175,15.227-6.175l1.524-3.913&#10;&#9;&#9;c0,0-1.085,3.421-15.752,3.421c-4.816,0-13.391-0.687-14.773-3.175C609.5,916.167,610.739,925.887,623.273,926.008z" />
        </g>
        <path
            d="M 609.333 914 C 609.333 914 612.499 913.935 625.639 913.969 C 637.333 914 639.667 914 639.667 914 C 639.667 914 639.834 919.333 625.167 919.333 C 609 919.333 609.333 914 609.333 914 Z" />
        <path
            d="M 617.667 914.333 C 617.667 914.333 617.971 916.401 624.895 916.401 C 631.954 916.401 632.667 914.5 632.667 914.5 C 632.667 914.5 631.818 914.333 624.334 914.333 C 619.674 914.333 617.667 914.333 617.667 914.333 Z"
            fill="#FFFFFF" />
        <path
            d="M 614.963 923.638 C 614.963 923.638 625.606 928.675 637.606 923.341 C 637.606 923.342 626.298 930.55 614.963 923.638 Z" />
        <path
            d="M 612.167 913.833 C 612.167 913.833 621.167 910.166 623.667 909.5 C 623.667 909.5 625.707 912.033 629 909.5 C 629 909.5 635 912.333 637.167 913.333 C 637.167 913.333 630.167 910.333 628.582 910.792 C 627.034 911.241 624.85 912.036 623.053 911.068 C 621.255 910.102 612.167 913.833 612.167 913.833 Z" />
        <ellipse cx="622.273" cy="921.008" fill="#FFFFFF" rx="2.833" ry="0.833" />
    </g>
</svg>