<?xml version="1.0" encoding="utf-8"?>
<svg viewBox="0 0 199 358" xmlns="http://www.w3.org/2000/svg">
    <g transform="matrix(1, 0, 0, 1, -155.240997, 31.702999)">
        <path
            d="M 225.574 14.98 C 225.274 14.293 227.741 22.897 242.491 22.897 C 257.241 22.897 258.741 29.897 258.741 29.897 C 258.741 29.897 255.741 18.397 250.241 17.397 C 250.241 17.397 264.241 22.897 273.991 22.897 C 283.741 22.897 301.241 25.647 304.991 32.397 C 304.991 32.397 306.741 40.647 310.741 47.147 C 314.741 53.647 320.241 67.397 318.991 77.397 C 318.991 77.397 325.241 58.147 325.991 45.397 C 326.741 32.647 324.491 21.897 320.241 12.397 C 315.991 2.897 301.991 -7.103 291.491 -8.603 C 291.491 -8.603 274.491 -21.103 251.241 -19.603 C 227.991 -18.103 216.741 -0.603 216.741 -0.603 C 216.741 -0.603 210.241 1.647 207.491 14.147 C 204.741 26.647 199.491 58.647 200.491 62.397 C 204.741 47.897 206.991 40.397 210.741 34.897 C 214.491 29.397 219.241 22.897 219.241 22.897 C 219.241 22.897 216.741 35.147 213.991 38.647 C 213.991 38.647 233.324 32.73 225.574 14.98 Z"
            fill="#F47D20" />
        <path
            d="M 225.741 9.397 C 225.741 9.397 229.741 19.647 236.991 20.897 C 244.241 22.147 253.241 20.897 256.991 26.147 C 251.741 19.147 240.741 18.147 236.491 17.647 C 232.241 17.147 225.741 9.397 225.741 9.397 Z"
            fill="#C35919" />
        <path
            d="M 239.991 7.897 C 239.991 7.897 242.741 17.647 248.741 20.647 C 254.741 23.647 256.991 26.147 256.991 26.147 C 256.991 26.147 254.741 19.897 250.241 17.397 C 255.991 19.147 260.741 21.397 271.991 22.647 C 283.241 23.897 299.241 24.647 306.741 35.147 C 304.241 29.897 303.741 19.647 286.991 18.397 C 270.241 17.147 245.991 17.147 239.991 7.897 Z"
            fill="#C35919" />
        <path
            d="M 293.741 12.147 C 293.741 12.147 302.491 22.647 304.241 31.147 C 306.491 37.397 307.741 40.897 308.741 43.647 C 310.262 47.83 322.574 79.23 312.574 96.98 C 316.324 90.48 324.991 70.647 320.991 60.897 C 319.828 58.061 317.241 53.897 313.991 45.647 C 310.741 37.397 307.741 17.897 293.741 12.147 Z"
            fill="#C35919" />
        <path
            d="M 222.991 8.647 C 222.991 8.647 224.741 19.647 221.241 24.647 C 221.741 17.897 220.741 13.147 219.491 10.897 C 217.991 20.147 210.703 22.458 205.324 35.48 C 200.574 46.98 198.824 53.23 198.241 59.897 C 200.491 62.397 200.491 63.647 200.491 63.647 C 200.491 63.647 202.741 52.147 206.741 44.147 C 210.741 36.147 218.991 24.147 218.991 24.147 C 218.991 24.147 218.241 34.397 213.991 38.647 C 219.491 33.147 228.741 27.647 222.991 8.647 Z"
            fill="#C35919" />
        <path
            d="M 289.741 -9.603 C 289.741 -9.603 298.241 -4.103 303.241 6.147 C 299.741 -4.103 296.241 -6.353 289.741 -9.603 Z"
            fill="#C35919" />
        <path
            d="M 314.241 50.897 C 314.241 50.897 334.241 73.564 330.574 102.23 C 330.574 102.23 331.907 84.897 321.907 68.563 L 314.241 50.897 Z"
            fill="#C35919" />
        <path
            d="M 321.574 73.897 C 321.574 73.897 333.574 102.897 325.574 117.897 C 325.574 117.897 332.241 110.564 321.907 79.23 L 321.574 73.897 Z"
            fill="#C35919" />
    </g>
</svg>