<?xml version="1.0" encoding="utf-8"?>
<svg viewBox="0 0 199 358" xmlns="http://www.w3.org/2000/svg">
    <g transform="matrix(1, 0, 0, 1, -57, -55.921227)">
        <path
            d="M 136.446 250.33 C 136.56 250.616 136.395 251.689 136.015 253.332 C 146.116 257.57 156.992 257.477 167.814 256.592 C 176.253 255.902 185.192 254.907 193.133 251.629 C 192.774 250.657 192.431 249.719 192.113 248.829 C 189.887 242.61 193.613 227.329 194.863 224.079 C 194.196 219.746 189.78 216.662 183.113 216.329 C 176.446 215.996 173.78 213.996 173.78 213.996 C 173.78 213.996 163.78 219.996 153.113 214.996 C 147.113 215.996 132.446 214.996 130.78 225.996 C 130.78 225.997 136.78 241.997 136.446 250.33 Z"
            fill="#E3038C" />
        <path
            d="M 193.481 253.569 C 185.428 256.887 176.371 257.924 167.809 258.593 C 156.867 259.448 145.984 259.527 135.781 255.307 C 133.641 263.933 126.956 284.45 121.113 297.997 C 113.78 314.997 105.113 332.33 105.113 332.33 C 105.113 332.33 140.113 343.33 168.446 341.33 C 196.779 339.33 224.446 328.33 224.446 328.33 C 224.446 328.33 202.91 278.858 193.481 253.569 Z"
            fill="#93268F" stroke="#43003F" stroke-miterlimit="10" />
        <path
            d="M 136.446 250.33 C 136.446 250.33 146.613 253.33 163.863 253.08 C 181.113 252.83 191.613 248.08 191.613 248.08 L 194.613 254.83 C 194.613 254.83 179.363 259.58 164.113 259.83 C 149.596 260.068 135.363 256.33 135.363 256.33 C 135.363 256.33 136.53 254.58 136.446 250.33 Z"
            fill="#43003F" />
        <path
            d="M 170.34 256.822 C 170.34 258.847 168.698 260.489 166.673 260.489 L 160.006 260.489 C 157.981 260.489 156.339 258.847 156.339 256.822 L 156.339 256.822 C 156.339 254.797 157.981 253.155 160.006 253.155 L 166.673 253.155 C 168.698 253.155 170.34 254.797 170.34 256.822 L 170.34 256.822 Z" />
        <path
            d="M 150.363 215.58 C 150.363 215.58 138.007 227.155 136.34 247.822 C 136.34 247.822 131.673 234.489 126.673 232.155 L 128.34 227.822 C 128.34 227.822 125.007 220.489 131.007 215.822 C 137.007 211.155 143.386 210.672 150.363 215.58 Z"
            fill="#93268F" stroke="#43003F" stroke-miterlimit="10" />
        <path
            d="M 175.673 215.489 C 175.673 215.489 190.552 226.339 191.613 248.081 C 191.613 248.081 196.34 235.823 200.34 234.489 L 194.863 224.081 C 194.863 224.081 199.34 215.156 192.34 211.489 C 185.34 207.822 179.34 213.822 175.673 215.489 Z"
            fill="#93268F" stroke="#43003F" stroke-miterlimit="10" />
        <path
            d="M 150.363 215.58 C 150.363 215.58 151.363 221.58 164.363 221.33 C 173.111 221.162 176.863 215.58 176.863 215.58 L 173.78 213.997 C 173.78 213.997 171.113 217.08 163.863 217.08 C 156.613 217.08 153.113 214.997 153.113 214.997 L 150.363 215.58 Z"
            fill="#43003F" />
        <circle cx="162.673" cy="223.489" fill="#43003F" r="1.667" />
    </g>
</svg>