<?xml version="1.0" encoding="utf-8"?>
<svg viewBox="0 0 199 358" xmlns="http://www.w3.org/2000/svg">
    <g style="" transform="matrix(1, 0, 0, 1, -520.853943, -786.998108)">
        <path
            d="M 586 876.667 C 586 876.667 590.333 881 599.333 880.334 C 608.333 879.667 611.5 879.667 611.5 879.667 C 611.5 879.667 610.365 873.261 601.531 872.094 C 592.697 870.927 586 876.667 586 876.667 Z"
            fill="#FFFFFF" />
        <path
            d="M 599.156 880.438 C 600.426 880.386 601.531 880.188 602.875 880.032 C 603.905 878.98 604.667 877.423 604.667 875.834 C 604.667 874.654 604.314 873.557 603.711 872.639 C 600.083 871.917 597.417 871.834 593.94 872.665 C 593.348 873.578 593 874.665 593 875.834 C 593 877.628 593.812 879.232 595.086 880.302 C 595.137 880.278 596.875 880.531 599.156 880.438 Z"
            fill="#7D9AAA" />
        <path
            d="M 586.81 876.442 C 589.81 873.87 592.75 872.674 597.939 872.507 C 605.462 872.265 610.606 874.908 611.606 878.508 C 611.606 878.508 612.498 871.666 598.689 871.478 C 591.124 871.375 590.608 873.665 586.749 874.75 C 582.749 875.875 581.124 874.5 581.124 874.5 C 581.124 874.5 584.881 878.096 586.81 876.442 Z" />
        <circle cx="593.75" cy="875.333" fill="#FFFFFF" r="1.333" />
        <circle cx="598.833" cy="875.833" r="2.5" />
        <path
            d="M 585.667 874.25 C 585.667 874.25 589.834 867.75 600 868.583 C 600 868.583 591.25 868.333 585.667 874.25 Z" />
        <path
            d="M 666.292 876.667 C 666.292 876.667 661.959 881 652.959 880.334 C 643.959 879.667 640.792 879.667 640.792 879.667 C 640.792 879.667 641.927 873.261 650.761 872.094 C 659.594 870.927 666.292 876.667 666.292 876.667 Z"
            fill="#FFFFFF" />
        <path
            d="M 653.135 880.438 C 651.865 880.386 650.76 880.188 649.416 880.032 C 648.386 878.98 647.624 877.423 647.624 875.834 C 647.624 874.654 647.977 873.557 648.58 872.639 C 652.208 871.917 654.874 871.834 658.351 872.665 C 658.943 873.578 659.291 874.665 659.291 875.834 C 659.291 877.628 658.479 879.232 657.205 880.302 C 657.154 880.278 655.417 880.531 653.135 880.438 Z"
            fill="#7D9AAA" />
        <path
            d="M 665.481 876.442 C 662.481 873.87 659.541 872.674 654.352 872.507 C 646.829 872.265 641.685 874.908 640.685 878.508 C 640.685 878.508 639.793 871.666 653.602 871.478 C 661.167 871.375 661.683 873.665 665.542 874.75 C 669.542 875.875 671.167 874.5 671.167 874.5 C 671.167 874.5 667.411 878.096 665.481 876.442 Z" />
        <circle cx="658.542" cy="875.333" fill="#FFFFFF" r="1.333" />
        <circle cx="653.458" cy="875.833" r="2.5" />
        <path
            d="M 666.625 874.25 C 666.625 874.25 662.458 867.75 652.292 868.583 C 652.292 868.583 661.042 868.333 666.625 874.25 Z" />
    </g>
</svg>