<?xml version="1.0" encoding="utf-8"?>
<svg viewBox="0 0 199 358" xmlns="http://www.w3.org/2000/svg">
    <g transform="matrix(1, 0, 0, 1, 124.787003, -62.547993)">
        <path
            d="M -65.484 261.261 C -65.484 261.261 -66.484 255.261 -62.817 250.261 C -59.15 245.261 -56.817 242.594 -56.15 238.261 C -55.483 233.928 -49.817 228.594 -45.483 226.261 C -41.15 223.928 -33.815 223.261 -33.815 223.261 L -32.148 219.261 L -19.815 252.928 L -6.483 218.928 L -5.483 222.928 C -5.483 222.928 9.185 223.928 12.185 228.595 C 15.185 233.262 23.517 243.595 24.852 249.928 C 26.183 256.261 29.516 259.594 30.183 260.594 C 30.85 261.594 30.251 266.102 30.251 266.102 L 17.516 270.261 C 17.516 270.261 9.516 264.928 7.516 257.928 C 7.516 257.928 10.388 271.475 9.055 277.475 C 1.388 277.808 -42.899 278.519 -42.899 278.519 C -42.899 278.519 -44.817 266.262 -42.817 258.928 C -42.817 258.928 -47.484 261.928 -48.817 264.928 C -50.15 267.928 -52.484 270.928 -55.484 270.928 L -65.484 261.261 Z"
            fill="#91D9F8" />
        <path
            d="M -44.146 278.594 C -44.146 278.594 -49.117 293.594 -49.784 308.594 C -50.45 323.594 -48.58 346.158 -48.58 346.158 C -48.58 346.158 -25.15 350.594 -11.484 349.261 C 2.183 347.928 12.592 345.8 12.592 345.8 C 12.592 345.8 23.995 304.928 8.995 277.594 L -44.146 278.594 Z"
            fill="#231F20" />
        <circle cx="-20.15" cy="256.927" fill="#231F20" r="1" />
        <circle cx="-20.15" cy="262.261" fill="#231F20" r="1" />
        <circle cx="-20.15" cy="267.261" fill="#231F20" r="1" />
        <path
            d="M -27.609 219.782 C -27.609 219.782 -27.876 223.194 -28.71 223.769 C -29.546 224.344 -30.296 224.407 -30.296 224.407 C -30.296 224.407 -20.213 250.574 -19.817 252.928 C -20.921 251.032 -25.859 237.47 -27.296 233.657 C -28.733 229.844 -32.234 220.157 -32.234 220.157 L -33.671 223.47 C -33.671 223.47 -41.109 224.22 -44.671 225.97 C -44.671 225.97 -41.046 223.595 -34.296 222.782 C -33.109 220.782 -32.171 218.844 -32.171 218.844 C -32.171 218.844 -28.046 218.531 -27.484 218.594 C -27.484 219.344 -27.609 219.782 -27.609 219.782 Z"
            fill="#6FA5BE" />
        <path
            d="M -34.484 223.282 C -34.484 223.282 -31.796 225.72 -28.046 235.782 C -28.046 235.782 -30.963 227.24 -33.817 223.261 L -34.484 223.282 Z"
            fill="#6FA5BE" />
        <path
            d="M -42.859 255.032 C -42.859 255.032 -42.15 258.386 -42.817 258.928 C -43.484 259.47 -46.671 261.657 -47.671 263.282 C -48.671 264.907 -50.109 268.782 -51.484 269.657 C -52.859 270.532 -54.546 270.907 -54.546 270.907 L -65.421 262.157 L -54.546 269.72 C -54.546 269.72 -52.171 269.97 -51.046 266.907 C -49.921 263.844 -46.171 259.469 -44.734 258.219 C -43.296 256.969 -42.859 255.032 -42.859 255.032 Z"
            fill="#6FA5BE" />
        <path
            d="M -44.671 225.969 C -44.671 225.969 -41.233 228.657 -42.358 252.469 C -42.359 252.469 -41.796 231.844 -44.671 225.969 Z"
            fill="#6FA5BE" />
        <path
            d="M -53.609 233.157 C -53.609 233.157 -54.921 235.095 -55.546 238.157 C -56.171 241.219 -55.382 242.066 -59.546 246.907 C -64.546 252.72 -65.671 256.157 -65.546 259.72 C -65.546 259.72 -66.213 254.803 -62.817 250.262 C -59.421 245.72 -57.796 243.72 -57.234 241.283 C -56.673 238.846 -55.296 234.782 -53.609 233.157 Z"
            fill="#6FA5BE" />
        <path
            d="M -65.484 261.261 C -65.484 261.261 -55.4 268.594 -54.4 270.344 C -55.567 271.511 -58.15 274.677 -58.15 274.677 C -58.15 274.677 -64.734 267.177 -67.817 265.76 C -67.234 264.427 -65.484 261.261 -65.484 261.261 Z"
            fill="#6FA5BE" />
        <path
            d="M -9.984 218.761 C -9.984 218.761 -7.4 218.428 -6.484 218.928 L -5.484 222.928 C -5.484 222.928 3.808 222.886 10.475 226.928 C 10.475 226.928 2.891 223.303 -5.442 223.303 C -6.567 226.553 -16.442 248.095 -16.442 248.095 L -6.234 223.47 C -6.234 223.47 -6.359 219.845 -6.609 219.512 L -19.817 252.929 L -8.751 223.771 C -8.751 223.771 -9.65 223.346 -9.734 222.096 C -9.817 220.846 -9.984 218.761 -9.984 218.761 Z"
            fill="#6FA5BE" />
        <path
            d="M 9.115 277.594 C 9.115 277.594 12.266 269.469 9.016 262.094 C 5.766 254.719 6.641 251.844 6.641 251.844 C 6.641 251.844 6.016 255.344 7.766 261.969 C 9.516 268.594 8.057 276.219 6.807 277.594 L 9.115 277.594 Z"
            fill="#6FA5BE" />
        <path
            d="M 17.516 270.261 L 30.249 266.103 C 30.249 266.103 31.891 268.22 32.891 269.97 C 30.891 270.845 21.016 275.22 21.016 275.22 L 17.516 270.261 Z"
            fill="#6FA5BE" />
        <path
            d="M 7.266 255.469 C 7.266 255.469 10.641 265.594 18.516 270.594 C 18.641 271.094 18.641 271.094 18.641 271.094 C 18.641 271.094 10.891 269.094 7.266 255.469 Z"
            fill="#6FA5BE" />
        <path
            d="M 20.266 240.594 C 20.266 240.594 23.016 243.344 24.516 248.844 C 26.016 254.344 27.516 257.219 29.391 259.094 C 31.266 260.969 31.641 263.969 30.266 266.719 L 29.141 267.094 C 29.141 267.094 30.766 264.219 29.516 261.219 C 28.266 258.219 25.016 256.469 24.141 251.344 C 23.266 246.219 23.141 245.594 20.266 240.594 Z"
            fill="#6FA5BE" />
        <path
            d="M -41.96 278.453 C -41.96 278.453 -42.598 267.005 -43.098 261.38 C -43.098 261.38 -47.242 270.595 -44.075 278.47 L -41.96 278.453 Z"
            fill="#6FA5BE" />
    </g>
</svg>