<?xml version="1.0" encoding="utf-8"?>
<svg viewBox="0 0 199 358" xmlns="http://www.w3.org/2000/svg">
    <g transform="matrix(1, 0, 0, 1, 0.533532, 1.067064)">
        <path
            d="M 104.644 40.526 C 104.644 40.526 84.644 36.526 78.644 41.526 C 72.644 46.526 71.364 53.526 69.311 62.193 C 67.257 70.859 59.977 82.526 59.31 95.859 C 58.643 109.192 60.873 128.539 63.31 146.859 C 67.257 176.526 48.31 177.859 48.31 177.859 C 48.31 177.859 60.31 164.192 57.643 151.859 C 54.977 139.526 40.7 114.894 40.977 101.859 C 41.644 70.526 54.302 75.897 60.31 47.859 C 64.31 29.192 99.644 19.859 104.644 40.526 Z"
            fill="#391400" />
        <path
            d="M 108.977 42.859 C 108.977 42.859 125.31 36.526 132.977 42.192 C 140.644 47.859 143.644 62.525 144.644 69.859 C 145.644 77.192 152.281 92.92 150.977 105.859 C 146.644 148.859 152.644 156.192 165.31 160.192 C 165.31 160.192 151.31 146.192 165.31 116.192 C 176.534 92.141 160.349 68.357 157.31 52.859 C 150.644 18.859 100.644 20.859 108.977 42.859 Z"
            fill="#391400" />
        <path
            d="M 104.119 28.526 C 104.119 28.526 80.599 20.193 62.591 32.193 C 44.583 44.193 43.848 82.193 44.951 97.193 C 46.054 112.193 46.421 140.86 46.421 140.86 C 46.421 140.86 41.643 96.193 41.643 72.527 C 41.643 48.861 54.506 25.859 75.454 22.859 C 96.402 19.859 104.119 28.526 104.119 28.526 Z"
            fill="#391400" />
        <path
            d="M 104.119 26.192 C 104.119 26.192 129.844 12.192 151.527 30.859 C 173.21 49.526 171.372 106.526 169.902 122.192 C 169.902 122.192 169.902 67.525 159.612 47.525 C 149.322 27.525 133.152 17.192 104.119 26.192 Z"
            fill="#391400" />
        <path
            d="M 155.977 43.526 C 155.977 43.526 162.644 70.859 165.977 87.526 C 169.31 104.193 170.644 120.859 165.31 137.526 C 159.977 154.192 167.977 174.859 169.977 175.526 C 169.977 175.526 153.31 160.859 159.977 130.193 C 166.644 99.527 163.977 85.526 159.977 74.193 C 155.977 62.859 155.977 43.526 155.977 43.526 Z"
            fill="#653422" />
        <path
            d="M 72.977 37.192 C 72.977 37.192 62.31 44.525 60.977 62.525 C 59.644 80.525 37.644 92.525 50.31 122.525 C 62.977 152.525 51.643 167.192 51.643 167.192 C 51.643 167.192 68.31 147.192 52.31 115.859 C 36.31 84.526 67.257 88.526 67.257 55.192 C 67.257 55.192 67.644 45.859 72.977 37.192 Z"
            fill="#653422" />
        <path
            d="M 131.977 32.192 C 131.977 32.192 147.856 29.542 151.583 54.534 C 155.31 79.526 165.31 86.192 161.977 106.192 C 158.644 126.192 164.644 150.192 165.977 151.525 C 167.31 152.859 152.644 126.859 158.644 98.859 C 164.644 70.859 152.644 86.859 147.977 62.192 C 143.31 37.525 141.31 32.859 131.977 32.192 Z"
            fill="#653422" />
    </g>
</svg>