<?xml version="1.0" encoding="utf-8"?>
<svg viewBox="0 0 199 358" xmlns="http://www.w3.org/2000/svg">
    <g transform="matrix(1, 0, 0, 1, -203.118591, 58.154991)">
        <g transform="matrix(1, 0, 0, 1, -331.849426, -113.449364)">
            <path style="fill: rgb(255, 0, 0);"
                d="M617.148,383.462c0,0,4,2.625,5.25,8.5c2.625,0.25,11.875-1.875,14.5-4.75&#10;&#9;&#9;c0.375-0.625,0.375-0.625,0.375-0.625s1.875,1,3.25,5.375s-2,7.5-2,7.5s-8.25,1.25-14,2.125s-13.625,4.875-22,3.75&#10;&#9;&#9;disposable-13-3.75-12.125-8.25s5-7.625,18.25-9.875c0.25,0.625,1.125,1-1.125,1.625s-7.375,2.875-7.375,2.875s5.5,2.25,12.75,1.125&#10;&#9;&#9;c1.25-2.625,0.625-5-0.625-7C612.273,385.837,615.023,383.837,617.148,383.462z" />
            <path style="fill: rgb(0, 71, 101);"
                d="M637.273,386.587c0,0-4,5-14.875,5.375c-0.875-3.125-3.5-7.75-5.25-8.5c0.625,0.75,4.625,6.25,4.75,10.375&#10;&#9;&#9;C624.523,393.962,638.023,389.212,637.273,386.587z" />
            <path style="fill: rgb(0, 71, 101);"
                d="M612.273,385.837c0,0,3,2.5,0.625,7c-1.625,0.625-9.125,1.25-13.875-1.25c1.125,0.125,9.625,2,12.875,0.25&#10;&#9;&#9;c1.125-0.75,0.875-4.625-0.5-5.625C611.648,385.837,612.273,385.837,612.273,385.837z" />
            <path style="fill: rgb(0, 71, 101);"
                d="M600.773,391.962c0,0,3.25-2.375,8.125-3.875c-5.625,0.5-8.75,3.625-8.75,3.625L600.773,391.962z" />
            <path style="fill: rgb(0, 71, 101);"
                d="M607.648,387.337c0,0-13.5,1.625-16.25,6.75s-0.875,7-0.875,7s-0.584-3.561,1.875-7.25&#10;&#9;&#9;C595.148,389.712,607.648,387.337,607.648,387.337z" />
            <path style="fill: rgb(0, 71, 101);"
                d="M637.273,386.587c0,0,5.125,4.125,3.125,11.125c-1.25,1.375-1.875,1.75-1.875,1.75s1.375-1.125,1.5-5.25&#10;&#9;&#9;C640.145,390.196,637.273,386.587,637.273,386.587z" />
            <path style="fill: rgb(0, 71, 101);"
                d="M639.898,397.587c0,0-4.375,2.125-9.875,2.625s-11.125,2-14.375,3.375s-19.375,3.75-25.375-3.25&#10;&#9;&#9;c-0.25,1.25,0.5,1.75,0.5,1.75s4.5,6,17.25,4s17.25-5.5,22-4.875S638.898,400.712,639.898,397.587z" />
            <ellipse cx="601.398" cy="395.337" fill="#FFFFFF" rx="1.25" ry="0.625" />
        </g>
        <g transform="matrix(1, 0, 0, 1, -331.849426, -113.449364)">
            <path style="fill: rgb(255, 0, 0);"
                d="M668.19,381.572c0,0-3.766,2.951-4.519,8.91c-2.595,0.469-11.99-0.873-14.847-3.518&#10;&#9;&#9;c-0.426-0.591-0.426-0.591-0.426-0.591s-1.785,1.154-2.788,5.629c-1.003,4.475,2.622,7.306,2.622,7.306s8.326,0.554,14.129,0.944&#10;&#9;&#9;c5.803,0.39,13.986,3.716,22.237,1.892c8.251-1.823,12.64-4.827,11.391-9.237c-1.249-4.411-5.622-7.179-19.014-8.31&#10;&#9;&#9;c-0.197,0.644-1.037,1.091,1.257,1.525s7.59,2.247,7.59,2.247s-5.292,2.703-12.611,2.19c-1.466-2.511-1.042-4.93,0.036-7.028&#10;&#9;&#9;C673.247,383.53,670.339,381.768,668.19,381.572z" />
            <path
                d="M648.398,386.373c0,0,4.405,4.647,15.273,4.109c0.61-3.187,2.838-8.016,4.519-8.91&#10;&#9;&#9;c-0.56,0.8-4.085,6.616-3.863,10.737C661.721,392.654,647.87,389.052,648.398,386.373z"
                fill="#004765" />
            <path
                d="M673.247,383.53c0,0-2.78,2.743-0.036,7.028c1.672,0.487,9.198,0.481,13.721-2.409&#10;&#9;&#9;c-1.111,0.219-9.423,2.8-12.809,1.328c-1.184-0.653-1.26-4.535,0.027-5.647C673.87,383.478,673.247,383.53,673.247,383.53z"
                fill="#004765" />
            <path
                d="M685.22,388.67c0,0-3.438-2.094-8.421-3.18c5.647,0.027,9.023,2.879,9.023,2.879L685.22,388.67z"
                fill="#004765" />
            <path
                d="M677.981,384.637c0,0,13.589,0.488,16.759,5.364c3.17,4.876,1.459,6.902,1.459,6.902&#10;&#9;&#9;s0.284-3.598-2.476-7.067C690.636,385.956,677.981,384.637,677.981,384.637z"
                fill="#004765" />
            <path
                d="M648.398,386.373c0,0-4.761,4.54-2.181,11.348c1.361,1.265,2.015,1.587,2.015,1.587&#10;&#9;&#9;disposable-1.464-1.006-1.935-5.106C645.839,390.211,648.398,386.373,648.398,386.373z"
                fill="#004765" />
            <path
                d="M646.704,397.555c0,0,4.538,1.751,10.06,1.788c5.523,0.037,11.254,1.06,14.607,2.158&#10;&#9;&#9;c3.354,1.098,19.621,2.113,25.013-5.366c0.354,1.225-0.352,1.786-0.352,1.786s-3.981,6.356-16.854,5.432&#10;&#9;&#9;c-12.873-0.924-17.65-4.035-22.331-3.014S647.963,400.585,646.704,397.555z"
                fill="#004765" />
            <ellipse cx="684.88" cy="392.085" fill="#FFFFFF" rx="1.25" ry="0.625"
                transform="matrix(-0.9965 0.0838 -0.0838 -0.9965 1400.2189 725.3741)" />
        </g>
    </g>
</svg>