<?xml version="1.0" encoding="utf-8"?>
<svg viewBox="0 0 199 358" xmlns="http://www.w3.org/2000/svg">
    <g transform="matrix(1, 0, 0, 1, -105.876053, 82.701469)">
        <path
            d="M 209.594 -57.727 C 209.594 -57.727 208.98 -57.916 207.876 -58.184 C 201.807 -59.659 180.941 -63.522 166.186 -51.393 C 148.749 -37.06 148.378 -21.393 149.12 22.274 C 149.442 41.234 153.572 84.274 149.862 100.274 C 149.149 103.35 143.926 119.941 159.508 127.607 C 167.512 131.545 177.316 135.274 188.817 134.274 C 200.318 133.274 256.34 132.274 266.357 126.274 C 276.374 120.274 281.939 119.941 278.971 93.607 C 276.886 75.107 276.003 43.607 276.745 27.274 C 277.487 10.941 271.888 -27.377 265.244 -42.726 C 257.453 -60.727 228.144 -68.06 209.594 -57.727 Z"
            fill="#653422" />
        <path
            d="M 171.386 44.94 C 171.386 44.94 180.719 84.94 170.719 100.607 C 160.719 116.274 176.386 126.607 187.719 129.274 C 199.052 131.941 257.386 127.274 263.719 115.941 C 270.052 104.608 251.719 85.941 250.386 76.608 C 249.053 67.275 252.719 45.275 252.719 45.275 C 255.386 28.275 251.052 6.608 248.719 -7.058 C 246.386 -20.724 242.386 -41.058 221.719 -36.391 L 214.386 -32.724 C 214.386 -32.724 200.719 -35.391 194.719 -35.724 C 188.719 -36.057 183.386 -26.724 181.386 -17.057 C 179.386 -7.39 169.386 14.943 168.719 23.276 C 168.052 31.607 171.386 44.94 171.386 44.94 Z"
            fill="#391400" />
    </g>
</svg>