<?xml version="1.0" encoding="utf-8"?>
<svg viewBox="0 0 199 358" xmlns="http://www.w3.org/2000/svg">
    <g style="" transform="matrix(1, 0, 0, 1, -233.153503, -14.539494)">
        <g transform="matrix(1, 0, 0, 1, 68.363319, -770.94989)">
            <path
                d="M234,878.167c0,0,2.25-6.75,8.5-7s11.5,0.5,13.5,9.25c0,0-8.28,2.25-14.5,1.25S234,878.167,234,878.167z"
                fill="#FFFFFF" />
            <circle cx="245.5" cy="876.667" fill="#653422" r="5.25" />
            <path
                d="M231,876.542c0,0,1.72,1.75,3,1.625c0,0,0.423-0.818,1.28-1.886c1.692-2.111,5.074-5.196,10.22-4.864&#10;&#9;&#9;c7.75,0.5,10.5,9,10.5,9s-1-9.25-10.25-10.125s-12.125,6.125-12.125,6.125L231,876.542z" />
            <circle cx="245.5" cy="876.667" r="2.75" />
            <circle cx="241.75" cy="874.208" fill="#FFFFFF" r="1.375" />
            <path
                d="M234.839,874.79l-0.058-0.192c-0.005-0.016-0.04,0.115-0.213,0.247c-0.092,0.051-0.238,0.105-0.442,0.1&#10;&#9;&#9;c-0.201-0.016-0.454-0.063-0.707-0.179c-0.513-0.213-1.027-0.592-1.381-0.906c-0.359-0.314-0.577-0.56-0.577-0.56&#10;&#9;&#9;s0.045,0.323,0.178,0.806c0.134,0.484,0.356,1.13,0.765,1.763c0.197,0.319,0.467,0.624,0.775,0.894&#10;&#9;&#9;c0.161,0.129,0.34,0.245,0.513,0.352c0.088,0.042,0.174,0.076,0.26,0.111C234.081,876.363,234.399,875.548,234.839,874.79z" />
            <path
                d="M236.087,874.258l0.023-0.199c0.002-0.017-0.082,0.09-0.294,0.142c-0.105,0.011-0.26,0.002-0.446-0.083&#10;&#9;&#9;c-0.178-0.095-0.392-0.238-0.578-0.444c-0.387-0.399-0.708-0.951-0.909-1.379c-0.206-0.431-0.308-0.743-0.308-0.743&#10;&#9;&#9;disposable-0.087,0.314-0.156,0.811c-0.069,0.497-0.121,1.179,0.003,1.922c0.055,0.371,0.181,0.757,0.357,1.128&#10;&#9;&#9;c0.097,0.182,0.215,0.36,0.331,0.527c0.064,0.073,0.129,0.138,0.194,0.205C234.767,875.401,235.382,874.78,236.087,874.258z" />
            <path
                d="M237.618,872.66l-0.001-0.201c0-0.017-0.071,0.099-0.275,0.176c-0.103,0.023-0.258,0.033-0.453-0.03&#10;&#9;&#9;c-0.188-0.073-0.417-0.19-0.627-0.372c-0.431-0.351-0.816-0.86-1.066-1.261c-0.255-0.403-0.394-0.701-0.394-0.701&#10;&#9;&#9;disposable-0.049,0.322-0.059,0.824c-0.009,0.502,0.02,1.185,0.231,1.908c0.098,0.362,0.27,0.731,0.489,1.077&#10;&#9;&#9;c0.118,0.169,0.256,0.332,0.391,0.484c0.072,0.065,0.145,0.122,0.217,0.18C236.444,873.952,236.98,873.262,237.618,872.66z" />
            <path
                d="M239.364,871.41l0.023-0.199c0.002-0.017-0.082,0.09-0.294,0.142c-0.105,0.011-0.26,0.002-0.446-0.083&#10;&#9;&#9;c-0.178-0.095-0.392-0.238-0.578-0.444c-0.387-0.399-0.708-0.951-0.909-1.379c-0.205-0.431-0.308-0.743-0.308-0.743&#10;&#9;&#9;disposable-0.087,0.314-0.156,0.811c-0.069,0.497-0.121,1.179,0.003,1.922c0.055,0.371,0.181,0.757,0.357,1.128&#10;&#9;&#9;c0.097,0.182,0.215,0.36,0.331,0.527c0.064,0.073,0.129,0.138,0.194,0.205C238.045,872.553,238.659,871.932,239.364,871.41z" />
            <path
                d="M234.208,878.417c0,0,1.375,2.417,7.75,3.292c0,0-1.167,1.042-5.042-0.417c-3.875-1.458-3.833,0.417-3.833,0.417&#10;&#9;&#9;disposable-0.113-1.458,1.042-1.708c0,0-1.833-0.25-2.417,0.833c0,0-0.238-1.083,1.667-1.625c0,0-1.792-0.5-2.458,0.167&#10;&#9;&#9;C230.917,879.375,231.458,877.958,234.208,878.417z" />
        </g>
        <g transform="matrix(1, 0, 0, 1, 68.363319, -770.94989)">
            <path
                d="M305.792,878.167c0,0-2.25-6.75-8.5-7s-11.5,0.5-13.5,9.25c0,0,8.28,2.25,14.5,1.25&#10;&#9;&#9;S305.792,878.167,305.792,878.167z"
                fill="#FFFFFF" />
            <circle cx="294.292" cy="876.667" fill="#653422" r="5.25" />
            <path
                d="M308.792,876.542c0,0-1.72,1.75-3,1.625c0,0-0.423-0.818-1.28-1.886c-1.692-2.111-5.074-5.196-10.22-4.864&#10;&#9;&#9;c-7.75,0.5-10.5,9-10.5,9s1-9.25,10.25-10.125s12.125,6.125,12.125,6.125L308.792,876.542z" />
            <circle cx="294.292" cy="876.667" r="2.75" />
            <circle cx="298.042" cy="874.208" fill="#FFFFFF" r="1.375" />
            <path
                d="M304.952,874.79l0.058-0.192c0.005-0.016,0.04,0.115,0.213,0.247c0.092,0.051,0.238,0.105,0.442,0.1&#10;&#9;&#9;c0.201-0.016,0.454-0.063,0.707-0.179c0.513-0.213,1.027-0.592,1.381-0.906c0.359-0.314,0.577-0.56,0.577-0.56&#10;&#9;&#9;disposable-0.045,0.323-0.178,0.806c-0.134,0.484-0.356,1.13-0.765,1.763c-0.197,0.319-0.467,0.624-0.775,0.894&#10;&#9;&#9;c-0.161,0.129-0.34,0.245-0.513,0.352c-0.088,0.042-0.174,0.076-0.26,0.111C305.71,876.363,305.393,875.548,304.952,874.79z" />
            <path
                d="M303.705,874.258l-0.023-0.199c-0.002-0.017,0.082,0.09,0.294,0.142c0.105,0.011,0.26,0.002,0.446-0.083&#10;&#9;&#9;c0.178-0.095,0.392-0.238,0.578-0.444c0.387-0.399,0.708-0.951,0.909-1.379c0.206-0.431,0.308-0.743,0.308-0.743&#10;&#9;&#9;s0.087,0.314,0.156,0.811c0.069,0.497,0.121,1.179-0.003,1.922c-0.055,0.371-0.181,0.757-0.357,1.128&#10;&#9;&#9;c-0.097,0.182-0.215,0.36-0.331,0.527c-0.064,0.073-0.129,0.138-0.194,0.205C305.024,875.401,304.41,874.78,303.705,874.258z" />
            <path
                d="M302.174,872.66l0.001-0.201c0-0.017,0.071,0.099,0.275,0.176c0.103,0.023,0.258,0.033,0.453-0.03&#10;&#9;&#9;c0.188-0.073,0.417-0.19,0.627-0.372c0.431-0.351,0.816-0.86,1.066-1.261c0.255-0.403,0.394-0.701,0.394-0.701&#10;&#9;&#9;s0.049,0.322,0.059,0.824c0.009,0.502-0.02,1.185-0.232,1.908c-0.098,0.362-0.27,0.731-0.489,1.077&#10;&#9;&#9;c-0.118,0.169-0.256,0.332-0.391,0.484c-0.072,0.065-0.145,0.122-0.217,0.18C303.348,873.952,302.812,873.262,302.174,872.66z" />
            <path
                d="M300.428,871.41l-0.023-0.199c-0.002-0.017,0.082,0.09,0.294,0.142c0.105,0.011,0.26,0.002,0.446-0.083&#10;&#9;&#9;c0.178-0.095,0.392-0.238,0.578-0.444c0.387-0.399,0.708-0.951,0.909-1.379c0.206-0.431,0.308-0.743,0.308-0.743&#10;&#9;&#9;s0.087,0.314,0.156,0.811c0.069,0.497,0.121,1.179-0.003,1.922c-0.055,0.371-0.181,0.757-0.357,1.128&#10;&#9;&#9;c-0.097,0.182-0.215,0.36-0.331,0.527c-0.064,0.073-0.129,0.138-0.194,0.205C301.747,872.553,301.133,871.932,300.428,871.41z" />
            <path
                d="M305.583,878.417c0,0-1.375,2.417-7.75,3.292c0,0,1.167,1.042,5.042-0.417c3.875-1.458,3.833,0.417,3.833,0.417&#10;&#9;&#9;s0.113-1.458-1.042-1.708c0,0,1.833-0.25,2.417,0.833c0,0,0.238-1.083-1.667-1.625c0,0,1.792-0.5,2.458,0.167&#10;&#9;&#9;C308.875,879.375,308.333,877.958,305.583,878.417z" />
        </g>
    </g>
</svg>