<?xml version="1.0" encoding="utf-8"?>
<svg viewBox="0 0 199 358" xmlns="http://www.w3.org/2000/svg">
    <path
        d="M 71.03 136.997 C 71.03 136.997 73.697 151.664 69.78 155.497 C 69.78 155.497 74.53 160.997 83.03 162.997 C 91.53 164.997 102.093 153.309 102.093 153.309 C 102.093 153.309 98.03 144.496 101.03 137.996 C 101.03 137.997 77.53 142.497 71.03 136.997 Z"
        fill="#E6B480" />
    <g transform="matrix(1, 0, 0, 1, -730.742676, -59.339996)">
        <path
            d="M756.523,139.17c0,0-1.25,18.75,2.25,29.5s12.5,18,24.25,23s25.25,11.5,36.75,10.25s20.5-4.833,34-11&#10;&#9;&#9;&#9;c11.308-5.166,25.5-24,21.5-47s-16.75-52-19.5-54.5s-27-6.75-44.25-6.75s-39.25,14.5-43,26S756.523,139.17,756.523,139.17z"
            fill="#E6B480" />
        <path
            d="M757.273,142.087c0,0-2.5-8.75-9.5-5.5s-2.75,26.75,6.75,23s7-7.5,7-7.5L757.273,142.087z"
            fill="#E6B480" />
        <path
            d="M873.096,142.087c0,0,2.5-8.75,9.5-5.5s2.75,26.75-6.75,23s-7-7.5-7-7.5L873.096,142.087z"
            fill="#E6B480" />
        <path
            d="M745.773,143.337c0,0,2.75-6.75,7.5-3.25s2,12.5,2,12.5s1.5-9-3-11.5S745.773,143.337,745.773,143.337z" />
        <path
            d="M754.023,145.337c0,0-5.5-1.25-5,2.25C749.023,147.587,749.773,145.837,754.023,145.337z" />
        <path
            d="M884.815,143.337c0,0-2.75-6.75-7.5-3.25s-2,12.5-2,12.5s-1.5-9,3-11.5S884.815,143.337,884.815,143.337z" />
        <path
            d="M876.565,145.337c0,0,5.5-1.25,5,2.25C881.565,147.587,880.815,145.837,876.565,145.337z" />
        <path
            d="M805.773,199.337c0,0,4,4,11.25,3.5s11.5-4.75,11.5-4.75s-6.5,3.5-11.75,3.75S805.773,199.337,805.773,199.337z" />
    </g>
    <g transform="matrix(1, 0, 0, 1, 0.745157, -2.235469)">
        <path
            d="M 123.666 197.646 C 123.666 197.646 126.055 199.026 126.711 201.091 C 127.367 203.156 131.066 212.514 136.312 219.497 C 141.557 226.48 147.236 232.33 147.236 232.33 C 147.236 232.33 147.776 235.723 147.407 238.033 C 147.038 240.343 144.264 245.287 143.83 246.42 C 143.396 247.553 145.128 250.716 147.597 249.259 C 150.066 247.802 151.461 245.247 152.227 244.143 C 152.993 243.039 153.159 243.053 154.992 245.054 C 156.825 247.055 162.9 254.11 165.247 252.14 C 167.594 250.17 161.757 242.299 161.757 242.299 C 161.757 242.299 169.918 250.373 172.533 247.256 C 175.148 244.138 164.942 238.395 164.942 238.395 C 164.942 238.395 174.614 242.586 175.28 238.796 C 175.844 236.168 166.785 234.54 166.785 234.54 C 166.785 234.54 173.484 234.456 173.204 231.922 C 172.924 229.388 163.373 229.557 160.882 229.339 C 158.391 229.121 155.006 227.654 154.25 222.904 C 153.494 218.153 147.857 198.421 143.83 194.723 C 139.803 191.025 138.57 187.906 138.57 187.906 C 138.57 187.906 135.616 193.002 123.666 197.646 Z"
            fill="#E6B480" stroke="#231F20" stroke-miterlimit="10" />
        <path
            d="M 123.666 197.646 C 123.666 197.646 126.055 199.026 126.711 201.091 C 127.367 203.156 131.066 212.514 136.312 219.497 C 141.557 226.48 147.236 232.33 147.236 232.33 C 147.236 232.33 147.776 235.723 147.407 238.033 C 147.038 240.343 144.264 245.287 143.83 246.42 C 143.396 247.553 145.128 250.716 147.597 249.259 C 150.066 247.802 151.461 245.247 152.227 244.143 C 152.993 243.039 153.159 243.053 154.992 245.054 C 156.825 247.055 162.9 254.11 165.247 252.14 C 167.594 250.17 161.757 242.299 161.757 242.299 C 161.757 242.299 169.918 250.373 172.533 247.256 C 175.148 244.138 164.942 238.395 164.942 238.395 C 164.942 238.395 174.614 242.586 175.28 238.796 C 175.844 236.168 166.785 234.54 166.785 234.54 C 166.785 234.54 173.484 234.456 173.204 231.922 C 172.924 229.388 163.373 229.557 160.882 229.339 C 158.391 229.121 155.006 227.654 154.25 222.904 C 153.494 218.153 147.857 198.421 143.83 194.723 C 139.803 191.025 138.57 187.906 138.57 187.906 C 138.57 187.906 135.616 193.002 123.666 197.646 Z"
            fill="#E6B480" />
    </g>
    <path
        d="M 51.639 194.146 C 51.639 194.146 49.25 195.526 48.594 197.591 C 47.938 199.656 44.239 209.014 38.993 215.997 C 33.748 222.98 28.069 228.83 28.069 228.83 C 28.069 228.83 27.529 232.223 27.898 234.533 C 28.267 236.843 31.041 241.787 31.475 242.92 C 31.909 244.053 30.177 247.216 27.708 245.759 C 25.239 244.302 23.844 241.747 23.078 240.643 C 22.312 239.539 22.146 239.553 20.313 241.554 C 18.48 243.555 12.405 250.61 10.058 248.64 C 7.711 246.67 13.548 238.799 13.548 238.799 C 13.548 238.799 5.387 246.873 2.772 243.756 C 0.157 240.638 10.363 234.895 10.363 234.895 C 10.363 234.895 0.691 239.086 0.025 235.296 C -0.539 232.668 8.52 231.04 8.52 231.04 C 8.52 231.04 1.821 230.956 2.101 228.422 C 2.381 225.888 11.932 226.057 14.423 225.839 C 16.914 225.621 20.299 224.154 21.055 219.404 C 21.811 214.653 27.448 194.921 31.475 191.223 C 35.502 187.525 36.735 184.406 36.735 184.406 C 36.735 184.406 39.689 189.502 51.639 194.146 Z"
        fill="none" stroke="#231F20" stroke-miterlimit="10" />
    <path
        d="M 51.639 194.146 C 51.639 194.146 49.25 195.526 48.594 197.591 C 47.938 199.656 44.239 209.014 38.993 215.997 C 33.748 222.98 28.069 228.83 28.069 228.83 C 28.069 228.83 27.529 232.223 27.898 234.533 C 28.267 236.843 31.041 241.787 31.475 242.92 C 31.909 244.053 30.177 247.216 27.708 245.759 C 25.239 244.302 23.844 241.747 23.078 240.643 C 22.312 239.539 22.146 239.553 20.313 241.554 C 18.48 243.555 12.405 250.61 10.058 248.64 C 7.711 246.67 13.548 238.799 13.548 238.799 C 13.548 238.799 5.387 246.873 2.772 243.756 C 0.157 240.638 10.363 234.895 10.363 234.895 C 10.363 234.895 0.691 239.086 0.025 235.296 C -0.539 232.668 8.52 231.04 8.52 231.04 C 8.52 231.04 1.821 230.956 2.101 228.422 C 2.381 225.888 11.932 226.057 14.423 225.839 C 16.914 225.621 20.299 224.154 21.055 219.404 C 21.811 214.653 27.448 194.921 31.475 191.223 C 35.502 187.525 36.735 184.406 36.735 184.406 C 36.735 184.406 39.689 189.502 51.639 194.146 Z"
        fill="#E6B480" />
</svg>