<?xml version="1.0" encoding="utf-8"?>
<svg viewBox="0 0 199 358" xmlns="http://www.w3.org/2000/svg">
    <g style="" transform="matrix(1, 0, 0, 1, -401.836426, -788.200012)">
        <g transform="matrix(1, 0, 0, 1, 3, 0)">
            <path style="fill: rgb(236, 34, 36);"
                d="M487.453,910.115c0,0,17.971,4.562,35.942,0.415c0,0-14.964-1.298-15.32-1.337&#10;&#9;&#9;c-0.355-0.039-1.776,1.382-3.04,1.224s-2.29-0.987-2.29-0.987L487.453,910.115z" />
            <path style="fill: rgb(236, 34, 36);"
                d="M502.773,924.837c14.238,0.138,20.476-7.753,20.476-7.753l1.524-3.913c0,0-6.333,5-21,5&#10;&#9;&#9;c-4.816,0-17.572-1.778-18.954-4.266C484.818,913.904,490.239,924.715,502.773,924.837z" />
        </g>
        <path
            d="M 485.192 909.48 C 485.192 909.48 491.238 912.798 508.139 912.798 C 524.175 912.798 531.086 908.927 531.086 908.927 C 531.086 908.927 523.439 918.17 508.772 918.17 C 490.247 918.17 485.192 909.48 485.192 909.48 Z" />
        <path
            d="M 495.145 913.075 C 495.145 913.075 494.166 915.563 507.725 915.563 C 521.549 915.563 520.305 912.798 520.305 912.798 C 520.305 912.798 520.861 913.627 506.205 913.627 C 497.08 913.628 495.145 913.075 495.145 913.075 Z"
            fill="#FFFFFF" />
        <path
            d="M 486.298 904.227 C 486.298 904.227 487.127 909.756 481.321 912.521 C 481.321 912.522 488.233 910.863 486.298 904.227 Z" />
        <path
            d="M 534.899 912.116 C 534.899 912.116 529.646 910.202 529.992 903.78 C 529.992 903.78 528.145 910.644 534.899 912.116 Z" />
        <path
            d="M 497.463 922.467 C 497.463 922.467 508.107 927.504 520.106 922.17 C 520.106 922.17 508.798 929.379 497.463 922.467 Z" />
        <path
            d="M 496.843 909.76 C 496.843 909.76 504.342 908.803 505.777 909.074 C 505.777 909.074 507.813 911.37 511.106 908.837 C 511.106 908.837 514.261 908.93 518.684 909.483 C 518.684 909.483 512.463 908.792 511.081 909.621 C 509.699 910.45 507.349 910.865 505.551 909.897 C 503.755 908.93 496.843 909.76 496.843 909.76 Z" />
        <ellipse cx="504.773" cy="919.837" fill="#FFFFFF" rx="2.833" ry="0.833" />
    </g>
</svg>