<?xml version="1.0" encoding="utf-8"?>
<svg viewBox="0 0 199 358" xmlns="http://www.w3.org/2000/svg">
    <g style="" transform="matrix(1, 0, 0, 1, -284.725037, -788.63208)">
        <path
            d="M 352.44 876.925 C 352.44 876.925 355.44 869.175 364.44 870.425 C 373.44 871.675 374.94 878.425 375.19 884.175 C 375.44 889.925 375.19 887.175 372.69 886.175 C 370.19 885.175 359.728 889.409 353.5 885 C 347.122 880.485 350.19 879.175 352.44 876.925 Z"
            fill="#FFFFFF" />
        <path
            d="M 350.31 879.325 C 353.31 874.325 356.25 872 361.439 871.675 C 368.962 871.204 374.106 876.342 375.106 883.342 C 375.106 883.342 375.983 870.959 362.189 869.675 C 352.249 868.75 351.749 878.5 347.749 878 C 343.749 877.5 341.499 876.5 341.499 876.5 C 341.499 876.5 348.381 882.541 350.31 879.325 Z" />
        <path
            d="M 353.023 882.842 C 353.023 882.842 353.94 871.925 363.44 872.925 C 372.94 873.925 369.94 885.425 369.94 885.425 C 369.94 885.425 354.5 891 353.023 882.842 Z"
            fill="#008FD5" />
        <circle cx="362" cy="881" fill="#140000" r="4.5" />
        <circle cx="357.606" cy="876.758" fill="#FFFFFF" r="2" />
        <path
            d="M 428.44 876.925 C 428.44 876.925 425.44 869.175 416.44 870.425 C 407.44 871.675 405.94 878.425 405.69 884.175 C 405.44 889.925 405.69 887.175 408.19 886.175 C 410.69 885.175 415.5 888.75 426 884.75 C 433.302 881.968 430.69 879.175 428.44 876.925 Z"
            fill="#FFFFFF" />
        <path
            d="M 430.5 879.75 C 427.5 874.75 423.25 871.5 418.75 871.25 C 411.224 870.832 406.773 876.342 405.773 883.342 C 405.773 883.342 404.867 870.603 418.69 869.675 C 428.75 869 429.19 878.675 433.19 878.175 C 437.19 877.675 439.44 876.675 439.44 876.675 C 439.44 876.675 432.429 882.966 430.5 879.75 Z" />
        <path
            d="M 427.856 883.092 C 427.856 883.092 426.939 872.175 417.439 873.175 C 407.939 874.175 410.939 885.675 410.939 885.675 C 410.939 885.675 421.25 889.75 427.856 883.092 Z"
            fill="#008FD5" />
        <circle cx="419" cy="880.25" fill="#140000" r="4.5" />
        <circle cx="423.273" cy="876.758" fill="#FFFFFF" r="2" />
    </g>
</svg>