<?xml version="1.0" encoding="utf-8"?>
<svg viewBox="0 0 199 358" xmlns="http://www.w3.org/2000/svg">
    <g transform="matrix(1, 0, 0, 1, -1.817615, -2.272018)">
        <path
            d="M 65.33 29.025 C 65.33 29.025 51.08 33.025 45.33 45.525 C 39.58 58.025 37.58 76.025 38.58 84.025 C 39.58 92.025 31.83 113.275 29.83 124.525 C 27.83 135.775 30.83 152.775 44.33 161.275 C 57.83 169.775 75.83 173.525 75.83 173.525 C 75.83 173.525 133.58 180.025 160.08 170.275 C 186.58 160.525 195.08 132.025 192.08 117.525 C 189.08 103.025 182.33 94.775 178.58 78.275 C 174.83 61.775 173.33 54.275 173.33 54.275 L 65.33 29.025 Z"
            fill="#F47D20" />
        <path
            d="M 45.83 104.525 C 45.83 104.525 34.163 133.192 65.163 150.192 C 96.163 167.192 135.83 163.192 152.496 153.525 C 169.163 143.858 180.829 112.525 166.496 89.858 L 45.83 104.525 Z"
            fill="#C35919" />
        <path
            d="M 44.496 113.525 C 44.496 113.525 28.496 145.192 61.163 156.192 C 61.163 156.192 34.496 144.525 45.163 117.192 L 44.496 113.525 Z"
            fill="#C35919" />
    </g>
</svg>