<?xml version="1.0" encoding="utf-8"?>
<svg viewBox="0 0 199 358" xmlns="http://www.w3.org/2000/svg">
    <g style="" transform="matrix(1, 0, 0, 1, -401.836426, -784.199829)">
        <path
            d="M 469.44 874.254 C 469.44 874.254 472.44 866.504 481.44 867.754 C 490.44 869.004 491.94 875.754 492.19 881.504 C 492.44 887.254 492.19 884.504 489.69 883.504 C 487.19 882.504 480.19 879.504 472.44 880.504 C 464.69 881.504 467.19 876.504 469.44 874.254 Z"
            fill="#FFFFFF" />
        <path
            d="M 465.94 881.004 C 468.94 876.004 470.94 869.754 478.44 869.004 C 485.94 868.254 491.107 873.671 492.107 880.671 C 492.107 880.671 493.024 867.754 479.19 867.004 C 466.449 866.313 467.69 878.254 463.69 877.754 C 459.69 877.254 457.44 876.254 457.44 876.254 C 457.44 876.254 464.01 884.219 465.94 881.004 Z" />
        <path
            d="M 471.273 880.17 C 471.273 880.17 472.19 869.253 481.69 870.253 C 491.19 871.253 488.19 882.753 488.19 882.753 C 488.19 882.753 481.773 879.92 471.273 880.17 Z"
            fill="#33B44A" />
        <circle cx="474.606" cy="874.087" fill="#FFFFFF" r="2" />
        <path
            d="M 478.288 880.635 C 479.88 880.785 481.478 881.075 483.02 881.543 C 484.173 880.784 484.94 879.488 484.94 878.004 C 484.94 875.657 483.037 873.754 480.69 873.754 C 478.343 873.754 476.44 875.657 476.44 878.004 C 476.44 878.913 476.752 879.734 477.242 880.422 C 477.592 880.49 477.941 880.56 478.288 880.635 Z" />
        <path
            d="M 465.94 881.004 C 465.94 881.004 484.44 875.504 492.69 886.754 C 492.69 886.754 482.44 877.754 465.94 881.004 Z" />
        <path
            d="M 545.44 874.254 C 545.44 874.254 542.44 866.504 533.44 867.754 C 524.44 869.004 522.94 875.754 522.69 881.504 C 522.44 887.254 522.69 884.504 525.19 883.504 C 527.69 882.504 534.69 879.504 542.44 880.504 C 550.19 881.504 547.69 876.504 545.44 874.254 Z"
            fill="#FFFFFF" />
        <path
            d="M 548.94 881.004 C 545.94 876.004 543.94 869.754 536.44 869.004 C 528.94 868.254 523.773 873.671 522.773 880.671 C 522.773 880.671 521.856 867.754 535.69 867.004 C 548.431 866.313 547.19 878.254 551.19 877.754 C 555.19 877.254 557.44 876.254 557.44 876.254 C 557.44 876.254 550.869 884.219 548.94 881.004 Z" />
        <path
            d="M 543.606 880.17 C 543.606 880.17 542.689 869.253 533.189 870.253 C 523.689 871.253 526.689 882.753 526.689 882.753 C 526.689 882.753 533.106 879.92 543.606 880.17 Z"
            fill="#33B44A" />
        <circle cx="540.273" cy="874.087" fill="#FFFFFF" r="2" />
        <path
            d="M 536.591 880.635 C 534.999 880.785 533.401 881.075 531.859 881.543 C 530.706 880.784 529.939 879.488 529.939 878.004 C 529.939 875.657 531.842 873.754 534.189 873.754 C 536.536 873.754 538.439 875.657 538.439 878.004 C 538.439 878.913 538.127 879.734 537.637 880.422 C 537.287 880.49 536.938 880.56 536.591 880.635 Z" />
        <path
            d="M 548.94 881.004 C 548.94 881.004 530.44 875.504 522.19 886.754 C 522.19 886.754 532.44 877.754 548.94 881.004 Z" />
    </g>
</svg>