<?xml version="1.0" encoding="utf-8"?>
<svg viewBox="0 0 199 358" xmlns="http://www.w3.org/2000/svg">
    <g transform="matrix(1, 0, 0, 1, -57, -55.921227)">
        <g />
        <g>
            <path
                d="M123.606,103.67c0,0-15.408,27.367-19.25,44.25c-8.25,36.25,15.673,47.62,19,49&#10;&#9;&#9;&#9;c10.25,4.25,33.232,13.053,40.5,12.5c7.667-0.583,14.167-2.583,21.667-6.583c5.671-3.025,29-7.25,34.583-25.917&#10;&#9;&#9;&#9;c4.377-14.634,3.25-15.75,2.5-31s-15.25-34.75-16-35.25s-51-13-55-13.5S131.106,93.67,123.606,103.67z"
                fill="#E6B480" />
            <path
                d="M 239.067 300.504 C 252.273 302.837 243.606 297.837 239.273 296.837 C 234.94 295.837 226.734 294.17 224.734 287.504 C 222.734 280.837 216.401 265.504 211.734 258.837 C 207.067 252.17 197.067 226.504 191.401 222.17 C 185.734 217.837 174.401 218.17 172.734 216.503 C 171.067 214.836 171.401 204.836 171.401 204.836 L 162.754 207.078 L 154.107 204.836 C 154.107 204.836 154.44 214.836 152.774 216.503 C 151.107 218.17 139.774 217.836 134.107 222.17 C 128.44 226.503 118.44 252.17 113.774 258.837 C 109.107 265.504 102.774 280.837 100.774 287.504 C 98.774 294.171 91.239 295.668 87.024 297.087 C 78.607 299.92 77.441 302.17 86.441 300.504 C 86.441 300.504 79.274 304.337 79.108 306.171 C 78.741 310.21 89.108 303.838 89.108 303.838 C 89.108 303.838 78.441 311.838 81.775 313.171 C 85.108 314.504 93.108 306.504 93.108 306.504 C 93.108 306.504 87.439 317.816 92.441 317.171 C 95.024 316.838 98.441 306.171 98.441 306.171 C 98.441 306.171 101.108 301.838 104.774 306.171 C 108.441 310.504 108.774 307.838 109.107 306.171 C 109.44 304.504 105.107 296.504 105.107 296.504 C 105.107 296.504 113.44 284.171 119.107 273.504 C 124.774 262.837 136.107 251.837 136.107 251.837 L 189.401 251.837 C 189.401 251.837 200.734 262.837 206.401 273.504 C 212.068 284.171 220.401 296.504 220.401 296.504 C 220.401 296.504 216.068 304.504 216.401 306.171 C 216.734 307.838 217.068 310.504 220.734 306.171 C 224.401 301.838 227.067 306.171 227.067 306.171 C 227.067 306.171 231.484 315.868 233.067 317.171 C 237.523 320.838 232.4 306.504 232.4 306.504 C 232.4 306.504 240.256 312.277 243.733 313.171 C 248.272 314.338 236.4 303.838 236.4 303.838 C 236.4 303.838 249.523 310.088 246.4 306.171 C 243.872 303 239.067 300.504 239.067 300.504 Z"
                fill="#E6B480" />
            <g transform="matrix(1, 0, 0, 1, -7.997995, 0)">
                <path
                    d="M142.023,338.837c0,0-1.25,8.25,1.5,13.75s3.25,11,4.5,22.25&#10;&#9;&#9;&#9;&#9;s1.5,10.25-4.25,11.75s-20.5,6.5-7.75,7.25s29.75-2.5,31-6c0,0-1.5-1.75-0.75-13.25s-1.5-22.5-1.5-22.5l4-11.5L142.023,338.837z"
                    fill="#E6B480" stroke="#000000" stroke-miterlimit="10" />
                <path
                    d="M147.273,371.087c0,0,4.75,1.25,11,0.625s8.625-2.375,8.625-2.375&#10;&#9;&#9;&#9;&#9;disposable-1.5,13.375-0.625,15.625s1.625,2.875,1.625,2.875s-6,5.125-20.375,5.5s-18.5,0.375-16.375-1.875s13.958-5.183,16.375-6.875&#10;&#9;&#9;&#9;&#9;C148.773,383.712,148.023,381.587,147.273,371.087z"
                    fill="none" stroke="#939598" stroke-miterlimit="10" />
                <path
                    d="M147.273,371.087c0,0,4.75,1.25,11,0.625s8.625-2.375,8.625-2.375s-1.5,13.375-0.625,15.625&#10;&#9;&#9;&#9;&#9;s1.625,2.875,1.625,2.875s-6,5.125-20.375,5.5s-18.5,0.375-16.375-1.875s13.958-5.183,16.375-6.875&#10;&#9;&#9;&#9;&#9;C148.773,383.712,148.023,381.587,147.273,371.087z"
                    fill="#FFFFFF" />
                <path
                    d="M137.648,387.337c0,0-13.5,1.625-16.25,6.75s-0.875,7-0.875,7s-0.584-3.561,1.875-7.25&#10;&#9;&#9;&#9;&#9;C125.148,389.712,137.648,387.337,137.648,387.337z"
                    fill="#004765" />
                <path
                    d="M167.273,386.587c0,0,5.125,4.125,3.125,11.125c-1.25,1.375-1.875,1.75-1.875,1.75s1.375-1.125,1.5-5.25&#10;&#9;&#9;&#9;&#9;C170.145,390.196,167.273,386.587,167.273,386.587z"
                    fill="#004765" />
                <ellipse cx="131.398" cy="395.337" fill="#FFFFFF" rx="1.25" ry="0.625" />
            </g>
            <g transform="matrix(1, 0, 0, 1, -7.997995, 0)">
                <path
                    d="M199.556,336.675c0,0,1.937,8.116-0.342,13.827&#10;&#9;&#9;&#9;&#9;disposable-2.316,11.234-2.619,22.549s-0.635,10.34,5.22,11.352c5.855,1.013,20.973,4.759,8.331,6.575&#10;&#9;&#9;&#9;&#9;c-12.642,1.816-29.855,0.003-31.394-3.38c0,0,1.348-1.87-0.363-13.266s-0.392-22.547-0.392-22.547l-4.95-11.124L199.556,336.675z&#10;&#9;&#9;&#9;&#9;"
                    fill="#E6B480" stroke="#000000" stroke-miterlimit="10" />
                <path
                    d="M197.028,369.251c0,0-4.628,1.644-10.909,1.545&#10;&#9;&#9;&#9;&#9;c-6.28-0.099-8.794-1.644-8.794-1.644s2.616,13.202,1.933,15.518c-0.683,2.315-1.378,3.001-1.378,3.001s6.409,4.604,20.764,3.773&#10;&#9;&#9;&#9;&#9;s18.466-1.177,16.16-3.241c-2.306-2.064-14.344-3.995-16.894-5.478C196.592,381.958,197.161,379.777,197.028,369.251z"
                    fill="none" stroke="#939598" stroke-miterlimit="10" />
                <path
                    d="M197.028,369.251c0,0-4.628,1.644-10.909,1.545c-6.28-0.099-8.794-1.644-8.794-1.644&#10;&#9;&#9;&#9;&#9;s2.616,13.202,1.933,15.518c-0.683,2.315-1.378,3.001-1.378,3.001s6.409,4.604,20.764,3.773s18.466-1.177,16.16-3.241&#10;&#9;&#9;&#9;&#9;c-2.306-2.064-14.344-3.995-16.894-5.478C196.592,381.958,197.161,379.777,197.028,369.251z"
                    fill="#FFFFFF" />
                <path
                    d="M215.22,388.67c0,0-3.438-2.094-8.421-3.18c5.647,0.027,9.023,2.879,9.023,2.879L215.22,388.67z"
                    fill="#004765" />
                <path
                    d="M207.981,384.637c0,0,13.589,0.488,16.759,5.364c3.17,4.876,1.459,6.902,1.459,6.902&#10;&#9;&#9;&#9;&#9;s0.284-3.598-2.476-7.067C220.636,385.956,207.981,384.637,207.981,384.637z"
                    fill="#004765" />
                <path
                    d="M178.398,386.373c0,0-4.761,4.54-2.181,11.348c1.361,1.265,2.015,1.587,2.015,1.587&#10;&#9;&#9;&#9;&#9;disposable-1.464-1.006-1.935-5.106C175.839,390.211,178.398,386.373,178.398,386.373z"
                    fill="#004765" />
                <path
                    d="M176.704,397.555c0,0,4.538,1.751,10.06,1.788c5.523,0.037,11.253,1.06,14.607,2.158&#10;&#9;&#9;&#9;&#9;c3.354,1.098,19.621,2.113,25.013-5.366c0.354,1.225-0.352,1.786-0.352,1.786s-3.981,6.356-16.854,5.432&#10;&#9;&#9;&#9;&#9;c-12.873-0.924-17.65-4.035-22.331-3.014C182.167,401.36,177.963,400.585,176.704,397.555z"
                    fill="#004765" />
                <ellipse cx="214.88" cy="392.085" fill="#FFFFFF" rx="1.25" ry="0.625"
                    transform="matrix(-0.9965 0.0838 -0.0838 -0.9965 461.8733 764.7758)" />
            </g>
        </g>
        <path
            d="M152.773,204.837c0,0,2.246,3.05,9,3.5c7.5,0.5,12-3.75,12-3.75s-1.583,4.167-9.917,4.833&#10;&#9;&#9;C155.523,210.087,152.773,204.837,152.773,204.837z" />
    </g>
</svg>