<?xml version="1.0" encoding="utf-8"?>
<svg viewBox="0 0 199 358" xmlns="http://www.w3.org/2000/svg">
    <g transform="matrix(1, 0, 0, 1, -57, -55.921227)">
        <g />
        <g transform="matrix(1, 0, 0, 1, -1, 0)">
            <path style="fill: rgb(201, 136, 82);"
                d="M 124.61 103.67 C 124.61 103.67 109.202 131.037 105.36 147.92 C 97.11 184.17 121.033 195.54 124.36 196.92 C 134.61 201.17 157.592 209.973 164.86 209.42 C 172.527 208.837 179.027 206.837 186.527 202.837 C 192.198 199.812 215.527 195.587 221.11 176.92 C 225.487 162.286 224.36 161.17 223.61 145.92 C 222.86 130.67 208.36 111.17 207.61 110.67 C 206.86 110.17 156.61 97.67 152.61 97.17 C 148.61 96.67 132.11 93.67 124.61 103.67 Z" />
            <path style="fill: rgb(201, 136, 82);"
                d="M 240.069 300.504 C 253.275 302.837 244.608 297.837 240.275 296.837 C 235.942 295.837 227.736 294.17 225.736 287.504 C 223.736 280.837 217.403 265.504 212.736 258.837 C 208.069 252.17 198.069 226.504 192.403 222.17 C 186.736 217.837 175.403 218.17 173.736 216.503 C 172.069 214.836 172.403 204.836 172.403 204.836 L 163.756 207.078 L 155.109 204.836 C 155.109 204.836 155.442 214.836 153.776 216.503 C 152.109 218.17 140.776 217.836 135.109 222.17 C 129.442 226.503 119.442 252.17 114.776 258.837 C 110.109 265.504 103.776 280.837 101.776 287.504 C 99.776 294.171 92.241 295.668 88.026 297.087 C 79.609 299.92 78.443 302.17 87.443 300.504 C 87.443 300.504 80.276 304.337 80.11 306.171 C 79.743 310.21 90.11 303.838 90.11 303.838 C 90.11 303.838 79.443 311.838 82.777 313.171 C 86.11 314.504 94.11 306.504 94.11 306.504 C 94.11 306.504 88.441 317.816 93.443 317.171 C 96.026 316.838 99.443 306.171 99.443 306.171 C 99.443 306.171 102.11 301.838 105.776 306.171 C 109.443 310.504 109.776 307.838 110.109 306.171 C 110.442 304.504 106.109 296.504 106.109 296.504 C 106.109 296.504 114.442 284.171 120.109 273.504 C 125.776 262.837 137.109 251.837 137.109 251.837 L 190.403 251.837 C 190.403 251.837 201.736 262.837 207.403 273.504 C 213.07 284.171 221.403 296.504 221.403 296.504 C 221.403 296.504 217.07 304.504 217.403 306.171 C 217.736 307.838 218.07 310.504 221.736 306.171 C 225.403 301.838 228.069 306.171 228.069 306.171 C 228.069 306.171 232.486 315.868 234.069 317.171 C 238.525 320.838 233.402 306.504 233.402 306.504 C 233.402 306.504 241.258 312.277 244.735 313.171 C 249.274 314.338 237.402 303.838 237.402 303.838 C 237.402 303.838 250.525 310.088 247.402 306.171 C 244.874 303 240.069 300.504 240.069 300.504 Z" />
            <g transform="matrix(1, 0, 0, 1, -7, 0)">
                <path style="fill: rgb(201, 136, 82);"
                    d="M142.023,338.837c0,0-1.25,8.25,1.5,13.75s3.25,11,4.5,22.25&#10;&#9;&#9;&#9;&#9;s1.5,10.25-4.25,11.75s-20.5,6.5-7.75,7.25s29.75-2.5,31-6c0,0-1.5-1.75-0.75-13.25s-1.5-22.5-1.5-22.5l4-11.5L142.023,338.837z"
                    stroke="#000000" stroke-miterlimit="10" />
                <path style="fill: rgb(201, 136, 82);"
                    d="M147.273,371.087c0,0,4.75,1.25,11,0.625s8.625-2.375,8.625-2.375&#10;&#9;&#9;&#9;&#9;disposable-1.5,13.375-0.625,15.625s1.625,2.875,1.625,2.875s-6,5.125-20.375,5.5s-18.5,0.375-16.375-1.875s13.958-5.183,16.375-6.875&#10;&#9;&#9;&#9;&#9;C148.773,383.712,148.023,381.587,147.273,371.087z"
                    stroke="#939598" stroke-miterlimit="10" />
                <path style="fill: rgb(201, 136, 82);"
                    d="M147.273,371.087c0,0,4.75,1.25,11,0.625s8.625-2.375,8.625-2.375s-1.5,13.375-0.625,15.625&#10;&#9;&#9;&#9;&#9;s1.625,2.875,1.625,2.875s-6,5.125-20.375,5.5s-18.5,0.375-16.375-1.875s13.958-5.183,16.375-6.875&#10;&#9;&#9;&#9;&#9;C148.773,383.712,148.023,381.587,147.273,371.087z" />
                <path style="fill: rgb(201, 136, 82);"
                    d="M137.648,387.337c0,0-13.5,1.625-16.25,6.75s-0.875,7-0.875,7s-0.584-3.561,1.875-7.25&#10;&#9;&#9;&#9;&#9;C125.148,389.712,137.648,387.337,137.648,387.337z" />
                <path style="fill: rgb(201, 136, 82);"
                    d="M167.273,386.587c0,0,5.125,4.125,3.125,11.125c-1.25,1.375-1.875,1.75-1.875,1.75s1.375-1.125,1.5-5.25&#10;&#9;&#9;&#9;&#9;C170.145,390.196,167.273,386.587,167.273,386.587z" />
                <ellipse style="fill: rgb(201, 136, 82);" cx="131.398" cy="395.337" rx="1.25"
                    ry="0.625" />
            </g>
            <g transform="matrix(1, 0, 0, 1, -7, 0)">
                <path style="fill: rgb(201, 136, 82);"
                    d="M199.556,336.675c0,0,1.937,8.116-0.342,13.827&#10;&#9;&#9;&#9;&#9;disposable-2.316,11.234-2.619,22.549s-0.635,10.34,5.22,11.352c5.855,1.013,20.973,4.759,8.331,6.575&#10;&#9;&#9;&#9;&#9;c-12.642,1.816-29.855,0.003-31.394-3.38c0,0,1.348-1.87-0.363-13.266s-0.392-22.547-0.392-22.547l-4.95-11.124L199.556,336.675z&#10;&#9;&#9;&#9;&#9;"
                    stroke="#000000" stroke-miterlimit="10" />
                <path style="fill: rgb(201, 136, 82);"
                    d="M197.028,369.251c0,0-4.628,1.644-10.909,1.545&#10;&#9;&#9;&#9;&#9;c-6.28-0.099-8.794-1.644-8.794-1.644s2.616,13.202,1.933,15.518c-0.683,2.315-1.378,3.001-1.378,3.001s6.409,4.604,20.764,3.773&#10;&#9;&#9;&#9;&#9;s18.466-1.177,16.16-3.241c-2.306-2.064-14.344-3.995-16.894-5.478C196.592,381.958,197.161,379.777,197.028,369.251z"
                    stroke="#939598" stroke-miterlimit="10" />
                <path style="fill: rgb(201, 136, 82);"
                    d="M197.028,369.251c0,0-4.628,1.644-10.909,1.545c-6.28-0.099-8.794-1.644-8.794-1.644&#10;&#9;&#9;&#9;&#9;s2.616,13.202,1.933,15.518c-0.683,2.315-1.378,3.001-1.378,3.001s6.409,4.604,20.764,3.773s18.466-1.177,16.16-3.241&#10;&#9;&#9;&#9;&#9;c-2.306-2.064-14.344-3.995-16.894-5.478C196.592,381.958,197.161,379.777,197.028,369.251z" />
                <path style="fill: rgb(201, 136, 82);"
                    d="M215.22,388.67c0,0-3.438-2.094-8.421-3.18c5.647,0.027,9.023,2.879,9.023,2.879L215.22,388.67z" />
                <path style="fill: rgb(201, 136, 82);"
                    d="M207.981,384.637c0,0,13.589,0.488,16.759,5.364c3.17,4.876,1.459,6.902,1.459,6.902&#10;&#9;&#9;&#9;&#9;s0.284-3.598-2.476-7.067C220.636,385.956,207.981,384.637,207.981,384.637z" />
                <path style="fill: rgb(201, 136, 82);"
                    d="M178.398,386.373c0,0-4.761,4.54-2.181,11.348c1.361,1.265,2.015,1.587,2.015,1.587&#10;&#9;&#9;&#9;&#9;disposable-1.464-1.006-1.935-5.106C175.839,390.211,178.398,386.373,178.398,386.373z" />
                <path style="fill: rgb(201, 136, 82);"
                    d="M176.704,397.555c0,0,4.538,1.751,10.06,1.788c5.523,0.037,11.253,1.06,14.607,2.158&#10;&#9;&#9;&#9;&#9;c3.354,1.098,19.621,2.113,25.013-5.366c0.354,1.225-0.352,1.786-0.352,1.786s-3.981,6.356-16.854,5.432&#10;&#9;&#9;&#9;&#9;c-12.873-0.924-17.65-4.035-22.331-3.014C182.167,401.36,177.963,400.585,176.704,397.555z" />
                <ellipse style="fill: rgb(201, 136, 82);" cx="214.88" cy="392.085" rx="1.25"
                    ry="0.625"
                    transform="matrix(-0.9965 0.0838 -0.0838 -0.9965 461.8733 764.7758)" />
            </g>
        </g>
        <path
            d="M152.773,204.837c0,0,2.246,3.05,9,3.5c7.5,0.5,12-3.75,12-3.75s-1.583,4.167-9.917,4.833&#10;&#9;&#9;C155.523,210.087,152.773,204.837,152.773,204.837z" />
        <path
            d="M 139.296 371.135 C 139.296 371.135 144.046 372.385 150.296 371.76 C 156.546 371.135 158.921 369.385 158.921 369.385 C 158.921 369.385 157.421 382.76 158.296 385.01 C 159.171 387.26 159.921 387.885 159.921 387.885 C 159.921 387.885 153.921 393.01 139.546 393.385 C 125.171 393.76 121.046 393.76 123.171 391.51 C 125.296 389.26 137.129 386.327 139.546 384.635 C 140.796 383.76 140.046 381.635 139.296 371.135 Z"
            fill="#FFFFFF" />
        <path
            d="M 189.088 369.4 C 189.088 369.4 184.46 371.044 178.179 370.945 C 171.899 370.846 169.385 369.301 169.385 369.301 C 169.385 369.301 172.001 382.503 171.318 384.819 C 170.635 387.134 169.94 387.82 169.94 387.82 C 169.94 387.82 176.349 392.424 190.704 391.593 C 205.059 390.762 209.17 390.416 206.864 388.352 C 204.558 386.288 192.52 384.357 189.97 382.874 C 188.652 382.107 189.221 379.926 189.088 369.4 Z"
            fill="#FFFFFF" />
    </g>
</svg>