<?xml version="1.0" encoding="utf-8"?>
<svg viewBox="0 0 199 358" xmlns="http://www.w3.org/2000/svg">
    <g style="" transform="matrix(1, 0, 0, 1, -284.725037, -790.632996)">
        <g transform="matrix(1, 0, 0, 1, 3, 0)">
            <path style="fill: rgb(234, 18, 100);"
                d="M370.453,912.786c0,0,17.971,4.562,35.942,0.415c0,0-14.964-1.298-15.32-1.337&#10;&#9;&#9;c-0.355-0.039-1.776,1.382-3.04,1.224c-1.263-0.158-2.29-0.987-2.29-0.987L370.453,912.786z" />
            <path style="fill: rgb(234, 18, 100);"
                d="M385.773,927.508c14.238,0.138,20.476-7.753,20.476-7.753l1.524-3.913c0,0-6.333,5-21,5&#10;&#9;&#9;c-4.816,0-17.572-1.778-18.954-4.266C367.818,916.575,373.239,927.387,385.773,927.508z" />
        </g>
        <path
            d="M 368.192 912.152 C 368.192 912.152 374.238 915.47 391.139 915.47 C 407.175 915.47 414.086 911.599 414.086 911.599 C 414.086 911.599 406.439 920.842 391.772 920.842 C 373.247 920.842 368.192 912.152 368.192 912.152 Z" />
        <path
            d="M 378.145 915.746 C 378.145 915.746 377.166 918.234 390.725 918.234 C 404.549 918.234 403.305 915.469 403.305 915.469 C 403.305 915.469 403.861 916.298 389.205 916.298 C 380.08 916.299 378.145 915.746 378.145 915.746 Z"
            fill="#FFFFFF" />
        <path
            d="M 380.463 925.138 C 380.463 925.138 391.107 930.175 403.107 924.841 C 403.106 924.842 391.798 932.05 380.463 925.138 Z" />
        <path
            d="M 379.843 912.431 C 379.843 912.431 387.342 911.474 388.777 911.745 C 388.777 911.745 390.813 914.041 394.106 911.508 C 394.106 911.508 397.261 911.601 401.684 912.154 C 401.684 912.154 395.463 911.463 394.081 912.292 C 392.699 913.121 390.349 913.536 388.551 912.568 C 386.755 911.602 379.843 912.431 379.843 912.431 Z" />
        <ellipse cx="387.773" cy="922.508" fill="#FFFFFF" rx="2.833" ry="0.833" />
    </g>
</svg>