<?xml version="1.0" encoding="utf-8"?>
<svg viewBox="0 0 199 358" xmlns="http://www.w3.org/2000/svg">
    <g transform="matrix(1, 0, 0, 1, 3.361999, -22.096998)">
        <path style=""
            d="M 53.638 87.907 C 53.638 87.907 68.638 78.407 111.138 79.907 C 153.638 81.407 151.638 86.907 151.638 86.907 C 151.638 86.907 151.638 53.907 128.638 41.907 C 105.638 29.907 54.138 31.407 53.638 87.907 Z"
            fill="#F7CC69" />
        <path
            d="M 61.888 70.907 C 61.888 70.907 66.138 54.907 75.638 48.407 L 70.138 57.907 C 70.138 57.907 75.138 50.907 82.138 45.407 C 82.138 45.407 73.888 55.907 73.388 57.907 C 73.388 57.907 85.638 42.407 93.138 40.407 C 93.138 40.407 71.138 56.907 68.138 75.407 L 69.138 63.907 C 69.138 63.907 65.638 69.907 63.638 77.407 C 63.638 77.407 63.138 71.907 68.638 61.407 C 68.638 61.407 64.388 66.407 61.888 70.907 Z"
            fill="#FFFFFF" />
        <path style=""
            d="M 115.305 38.74 C 115.305 38.74 145.638 40.073 152.305 83.407 C 152.305 83.407 147.305 47.074 115.305 38.74 Z"
            fill="#FFFFFF" />
        <path style=""
            d="M 53.638 84.74 C 53.638 84.74 56.305 42.74 88.305 38.407 C 88.305 38.407 60.638 42.074 53.638 84.74 Z"
            fill="#FFFFFF" />
    </g>
</svg>