<?xml version="1.0" encoding="utf-8"?>
<svg viewBox="0 0 199 358" xmlns="http://www.w3.org/2000/svg">
    <g transform="matrix(1, 0, 0, 1, -57, -55.921227)">
        <g>
            <path style="fill: rgb(45, 49, 145);"
                d="M 130.325 227.386 C 130.325 227.386 136.325 243.386 135.992 251.719 C 136.659 253.386 127.992 281.386 120.659 298.386 C 113.326 315.386 104.659 332.719 104.659 332.719 C 104.659 332.719 139.659 343.719 167.992 341.719 C 196.325 339.719 223.992 328.719 223.992 328.719 C 223.992 328.719 200.159 273.969 191.659 250.219 C 189.433 244 193.159 228.719 194.409 225.469 C 193.742 221.136 189.326 218.052 182.659 217.719 C 175.992 217.386 173.326 215.386 173.326 215.386 C 173.326 215.386 163.326 221.386 152.659 216.386 C 146.658 217.386 131.991 216.386 130.325 227.386 Z"
                stroke="#900D10" stroke-miterlimit="10" />
            <path style="fill: rgb(35, 31, 32);"
                d="M 149.908 216.969 C 149.908 216.969 150.908 222.969 163.908 222.719 C 172.656 222.551 176.408 216.969 176.408 216.969 L 173.325 215.386 C 173.325 215.386 170.658 218.469 163.408 218.469 C 156.158 218.469 152.658 216.386 152.658 216.386 L 149.908 216.969 Z" />
            <path style="fill: rgb(35, 31, 32);"
                d="M 135.991 251.719 C 135.991 251.719 146.158 254.719 163.408 254.469 C 180.658 254.219 191.158 249.469 191.158 249.469 L 194.158 256.219 C 194.158 256.219 178.908 260.969 163.658 261.219 C 149.141 261.457 134.908 257.719 134.908 257.719 C 134.908 257.719 136.075 255.969 135.991 251.719 Z" />
        </g>
    </g>
</svg>