<?xml version="1.0" encoding="utf-8"?>
<svg viewBox="0 0 199 358" xmlns="http://www.w3.org/2000/svg">
    <g style="" transform="matrix(1, 0, 0, 1, -233.153503, -14.539494)">
        <path style="fill: rgb(214, 25, 33);"
            d="M 323.22 142.427 C 323.22 142.427 325.926 149.297 340.535 149.092 C 355.144 148.887 356.407 141.402 356.407 141.402 C 356.407 141.402 350.455 139.659 343.601 141.812 C 340.895 142.325 339.092 142.325 338.551 142.017 C 338.01 141.709 328.811 140.274 322.498 141.709 C 322.679 141.71 323.22 142.427 323.22 142.427 Z" />
        <path style="fill: rgb(214, 25, 33);"
            d="M 322.679 141.607 C 322.679 141.607 335.846 133.814 339.814 139.659 C 339.814 139.659 341.077 133.61 356.588 140.889 C 356.588 140.889 352.44 140.889 349.554 140.889 C 346.668 140.889 340.355 142.427 340.355 142.427 C 340.355 142.427 328.992 140.479 322.679 141.607 Z" />
        <path
            d="M 322.499 141.71 C 322.499 141.71 333.682 139.864 340.536 141.505 C 340.536 141.505 348.112 140.07 356.048 140.89 C 356.048 140.89 343.783 141.505 340.176 142.941 C 340.175 142.94 331.878 140.479 322.499 141.71 Z" />
        <path
            d="M 319.613 140.889 C 319.613 140.889 319.613 142.119 322.499 141.709 C 325.385 141.299 327.549 141.094 327.549 141.094 C 327.549 141.094 323.401 140.786 322.138 141.094 C 320.876 141.402 319.974 139.761 319.613 140.889 Z" />
        <path
            d="M 358.704 140.582 C 358.704 140.582 358.704 141.812 356.408 141.402 C 354.112 140.992 352.391 140.787 352.391 140.787 C 352.391 140.787 355.691 140.479 356.695 140.787 C 357.7 141.094 358.417 139.454 358.704 140.582 Z" />
        <path
            d="M 335.534 143.406 C 335.284 143.836 333.97 143.976 332.598 143.719 C 331.226 143.462 330.317 142.904 330.566 142.474 C 330.816 142.044 332.13 141.904 333.502 142.161 C 334.874 142.418 335.784 142.975 335.534 143.406 Z"
            fill="#FFFFFF" />
    </g>
</svg>