<?xml version="1.0" encoding="utf-8"?>
<svg viewBox="0 0 177 337" xmlns="http://www.w3.org/2000/svg">
    <g transform="matrix(1, 0, 0, 1, -730.742676, -59.339996)">
        <g transform="matrix(1, 0, 0, 1, -53.700546, 185.83963)">
            <path
                d="M 864.535 -32.263 C 864.535 -32.263 860.281 -31.876 860.612 -33.082 C 860.943 -34.287 864.535 -32.263 864.535 -32.263 Z" />
            <path
                d="M 871.495 -32.306 C 871.495 -32.306 874.995 -34.306 875.245 -33.056 C 875.495 -31.806 871.495 -32.306 871.495 -32.306 Z" />
            <ellipse cx="813.386" cy="147.102" fill="#FFFFFF" rx="2.152" ry="1.103"
                transform="matrix(0.986358, -0.164495, 0.164513, 0.986374, 40.501557, -50.04175)" />
        </g>
    </g>
    <path
        d="M 77.704 86.408 C 77.704 86.408 76.621 88.658 75.287 90.075 C 73.954 91.492 73.787 94.158 75.87 94.992 C 75.87 94.992 74.037 92.742 75.87 90.575 C 77.704 88.408 77.704 86.408 77.704 86.408 Z" />
    <path
        d="M 89.459 86.408 C 89.459 86.408 90.542 88.658 91.876 90.075 C 93.209 91.492 93.376 94.158 91.293 94.992 C 91.293 94.992 93.126 92.742 91.293 90.575 C 89.459 88.408 89.459 86.408 89.459 86.408 Z" />
</svg>