<?xml version="1.0" encoding="utf-8"?>
<svg viewBox="0 0 177 337" xmlns="http://www.w3.org/2000/svg">
    <g transform="matrix(1, 0, 0, 1, -260.250916, -59.337002)">
        <g>
            <g transform="matrix(1, 0, 0, 1, -470, 0)">
                <g>
                    <path
                        d="M757.023,145.587c0,0-7-28.5-4.75-39.25c-4,6.75-4,6.75-4,6.75s2.5-23.75,18.5-31.5c0,0-5-0.5-7,0.75&#10;&#9;&#9;&#9;c0,0,13-22.75,56.75-17c0,0,27.5-5.75,42.25,4.75c11.987,8.533,18.5,16.75,20.75,25.5l-3.75-3.25c0,0,8,9.25,5.5,24.25&#10;&#9;&#9;&#9;disposable-5.75,21.5-5.75,21.5l-2.5,7.25c0,0-1.75-10-2-11s-7.25-23.75-11.25-29.5l1,6.25c0,0-2.25-9.75-7.75-15.25v3.5&#10;&#9;&#9;&#9;c0,0-4.75-9-14.5-13.25c0,0-14.5,2-28.25,8s-33.5,12.5-39.5,25.25c0,0,2.25-10.75,5.5-14.25&#10;&#9;&#9;&#9;C776.273,105.087,758.273,121.837,757.023,145.587z"
                        fill="#231F20" />
                    <path
                        d="M838.523,86.087c0,0-57.5,14.75-66.25,31.25c0,0,3-9.25,19-16.5S828.773,86.587,838.523,86.087z" />
                    <path
                        d="M875.773,92.337c0,0,7,5.5,5.75,20s-7,28.75-7,28.75s6.25-21.25,6.25-30.25S875.773,92.337,875.773,92.337z" />
                    <path
                        d="M817.773,65.337c0,0,21.75-5.25,37.5,2.75s24,22,24.25,27.5C876.773,90.087,864.773,59.337,817.773,65.337z" />
                    <path
                        d="M838.023,84.837c0,0,12.25,8.75,15,14.5C852.273,94.837,844.773,87.337,838.023,84.837z" />
                    <path
                        d="M853.023,95.837c0,0,6.75,8,7.75,15.25C859.773,101.837,853.023,95.837,853.023,95.837z" />
                    <path
                        d="M861.273,106.837c0,0,11,28.25,11.75,38.5C871.773,134.087,867.773,120.587,861.273,106.837z" />
                    <path
                        d="M757.023,145.587c0,0,2.25-22.5,19.25-40.5C759.523,122.087,757.023,136.087,757.023,145.587z" />
                    <path
                        d="M754.273,102.837c0,0-5.25,6.25,2,37.75C750.023,120.587,749.523,108.587,754.273,102.837z" />
                    <path
                        d="M748.273,113.087c0,0,5.5-25.5,18.5-31.5C754.523,86.087,749.023,101.087,748.273,113.087z" />
                    <path
                        d="M760.773,80.837c0,0,18.25-20.25,55.75-15.5C808.523,60.587,774.773,62.587,760.773,80.837z" />
                </g>
            </g>
        </g>
    </g>
</svg>