<?xml version="1.0" encoding="utf-8"?>
<svg viewBox="0 0 177 337" xmlns="http://www.w3.org/2000/svg">
    <g transform="matrix(1, 0, 0, 1, -720.90979, -446.867279)">
        <g>
            <path
                d="M789.125,524c-0.063,1.841-9.952,2.786-15.875,1.25c-6.75-1.75-7.25-4.125-7.125-4.875&#10;&#9;&#9;&#9;&#9;c0.303-1.817,6.168-4.548,12.25-3.875S789.25,520.375,789.125,524z"
                fill="#FFFFFF" />
            <path
                d="M771.59,523.232c0.147,0.551,0.295,1.545,1.035,1.852c1.208,0.5,8.708,1.75,9.928,0.564&#10;&#9;&#9;&#9;&#9;c1.417-1.377,1.794-3.609,1.247-5.664c-0.112-0.422-0.492-1.868-0.759-2.192c-0.792-0.958-8.63-1.763-9.542-0.917&#10;&#9;&#9;&#9;&#9;C772.101,518.174,771.061,521.245,771.59,523.232z"
                fill="#35773C" />
            <g>
                <path
                    d="M765.575,520.782c-0.027-0.006-0.053-0.012-0.08-0.019c-0.339-0.093-2.381-0.362-2.245-0.513&#10;&#9;&#9;&#9;&#9;&#9;c0.081-0.089,4.048-3.794,9.25-4.375c3.952-0.442,6.749-0.688,12.125,2c2.25,1.125,3.898,3.353,3.75,3.5&#10;&#9;&#9;&#9;&#9;&#9;c-0.148,0.147-3.25-5.25-14-4.25c-5.602,0.521-8,3.515-8.018,3.534C766.231,520.798,765.893,520.848,765.575,520.782z" />
            </g>
        </g>
        <circle cx="777.82" cy="521.608" r="3.228" />
        <circle cx="775" cy="519.375" fill="#FFFFFF" r="1.125" />
        <path
            d="M767.125,519.375c0,0,0.125,4.625,9.625,5.125c11.03,0.581,12-2.417,12-2.417s0.833,1.5,0.208,2.375&#10;&#9;&#9;&#9;disposable-7,2.333-13.5,1.25c-5.716-0.953-9.375-3-9.458-5.458L767.125,519.375z"
            fill="#CBCCCE" />
    </g>
    <g transform="matrix(1, 0, 0, 1, -720.90979, -446.867279)">
        <g>
            <path
                d="M820.059,524c0.063,1.841,9.952,2.786,15.875,1.25c6.75-1.75,7.25-4.125,7.125-4.875&#10;&#9;&#9;&#9;&#9;c-0.303-1.817-6.168-4.548-12.25-3.875S819.934,520.375,820.059,524z"
                fill="#FFFFFF" />
            <path
                d="M837.595,523.232c-0.147,0.551-0.295,1.545-1.035,1.852c-1.208,0.5-8.708,1.75-9.928,0.564&#10;&#9;&#9;&#9;&#9;c-1.417-1.377-1.794-3.609-1.247-5.664c0.112-0.422,0.492-1.868,0.759-2.192c0.792-0.958,8.63-1.763,9.542-0.917&#10;&#9;&#9;&#9;&#9;C837.083,518.174,838.123,521.245,837.595,523.232z"
                fill="#35773C" />
            <g>
                <path
                    d="M843.609,520.782c0.027-0.006,0.053-0.012,0.08-0.019c0.339-0.093,2.381-0.362,2.245-0.513&#10;&#9;&#9;&#9;&#9;&#9;c-0.081-0.089-4.048-3.794-9.25-4.375c-3.952-0.442-6.749-0.688-12.125,2c-2.25,1.125-3.898,3.353-3.75,3.5&#10;&#9;&#9;&#9;&#9;&#9;c0.148,0.147,3.25-5.25,14-4.25c5.602,0.521,8,3.515,8.018,3.534C842.953,520.798,843.291,520.848,843.609,520.782z" />
            </g>
        </g>
        <circle cx="831.364" cy="521.608" r="3.228" />
        <circle cx="834.184" cy="519.375" fill="#FFFFFF" r="1.125" />
        <path
            d="M842.059,519.375c0,0-0.123,4.22-10.059,5.375c-10.75,1.25-11.566-2.667-11.566-2.667&#10;&#9;&#9;&#9;disposable-0.833,1.5-0.208,2.375s7,2.333,13.5,1.25c5.716-0.953,9.375-3,9.458-5.458L842.059,519.375z"
            fill="#CBCCCE" />
    </g>
</svg>