<?xml version="1.0" encoding="utf-8"?>
<svg viewBox="0 0 177 337" xmlns="http://www.w3.org/2000/svg">
    <path style="fill: rgb(35, 31, 32);"
        d="M 49.138 242.39 C 49.138 242.39 48.133 252.057 48.437 263.39 C 48.741 274.723 50.34 293.39 50.34 293.39 C 50.578 300.057 51.272 312.057 51.272 312.057 C 51.272 312.057 54.548 317.224 69.31 316.39 C 84.072 315.557 81.067 313.557 81.067 313.557 C 81.067 313.557 79.249 302.057 79.54 295.724 C 79.831 289.391 81.322 279.557 82.184 274.057 C 83.046 268.557 83.147 263.89 83.147 263.89 L 85.676 264.223 C 85.676 264.223 86.332 277.723 86.579 288.39 C 86.826 299.057 87.64 308.557 88.858 313.057 C 92.667 314.724 101.715 317.224 113.815 312.557 C 112.911 300.057 114.892 292.057 116.074 286.39 C 117.255 280.723 124.705 252.89 122.867 245.057 C 116.61 247.89 100.795 250.057 85.724 249.224 C 70.652 248.39 49.138 242.39 49.138 242.39 Z" />
    <path
        d="M 55.348 314.89 C 55.348 314.89 54.435 298.39 53.788 288.89 C 53.141 279.39 51.386 253.057 52.057 249.223 C 58.657 250.39 71.562 251.223 87.771 251.723 C 103.98 252.223 116.7 250.89 119.919 249.556 C 119.671 256.389 116.484 271.723 115.103 280.889 C 113.721 290.056 113.092 311.889 113.092 311.889 C 113.092 311.889 115.355 287.722 117.794 279.222 C 120.233 270.722 123.443 253.722 123.372 247.055 C 123.244 245.555 122.867 245.055 122.867 245.055 C 122.867 245.055 116.767 249.722 86.767 249.722 C 56.767 249.722 48.877 243.222 48.877 243.222 C 48.877 243.222 47.809 261.889 48.942 277.055 C 50.075 292.221 50.997 312.722 50.997 312.722 C 50.997 312.722 52.596 313.89 55.348 314.89 Z"
        fill="#161616" />
    <path
        d="M 74.937 257.557 C 74.937 257.557 81.999 260.224 83.218 264.724 C 83.246 265.057 77.885 258.89 74.937 257.557 Z" />
    <path
        d="M 82.852 250.724 C 82.852 250.724 83.999 260.224 83.785 263.557 C 83.127 261.724 82.852 250.724 82.852 250.724 Z" />
    <path
        d="M 86.185 250.724 C 86.185 250.724 87.332 260.224 87.118 263.557 C 86.461 261.724 86.185 250.724 86.185 250.724 Z" />
    <path
        d="M 85.675 264.224 C 85.675 264.224 91.642 261.891 94.142 256.057 C 92.699 262.557 88.704 264.557 85.675 264.224 Z" />
    <path
        d="M 79.862 315.057 C 79.862 315.057 76.844 301.224 78.668 291.39 C 75.844 301.224 77.358 313.057 79.862 315.057 Z" />
    <path
        d="M 52.382 311.39 C 52.382 311.39 55.934 315.89 66.863 315.057 C 77.792 314.224 79.844 312.89 79.844 312.89 C 79.844 312.89 70.665 314.41 65.987 314.557 C 55.348 314.89 52.382 311.39 52.382 311.39 Z" />
    <path
        d="M 89.048 311.39 C 89.048 311.39 91.581 313.723 100.481 312.557 C 109.381 311.391 112.919 309.89 112.919 309.89 C 112.919 309.89 107.676 312.89 100.914 313.723 C 94.153 314.557 89.048 311.39 89.048 311.39 Z" />
    <path
        d="M 50.19 312.454 C 50.19 312.454 53.742 316.954 64.671 316.121 C 75.6 315.288 77.652 313.954 77.652 313.954 C 77.652 313.954 68.473 315.474 63.795 315.621 C 53.156 315.954 50.19 312.454 50.19 312.454 Z" />
    <path
        d="M 86.856 312.454 C 86.856 312.454 89.389 314.787 98.289 313.621 C 107.189 312.455 110.727 310.954 110.727 310.954 C 110.727 310.954 105.484 313.954 98.722 314.787 C 91.961 315.621 86.856 312.454 86.856 312.454 Z" />
</svg>