<?xml version="1.0" encoding="utf-8"?>
<svg viewBox="0 0 177 337" xmlns="http://www.w3.org/2000/svg">
    <g>
        <path
            d="M 36.739 327.492 C 36.739 327.492 35.439 329.825 35.777 331.825 C 35.777 331.825 35.353 334.658 41.953 335.825 C 48.553 336.992 59.42 333.492 63.168 332.492 C 66.916 331.492 77.178 330.659 79.411 329.492 C 81.644 328.325 84.527 326.978 83.94 323.992 C 83.645 322.492 81.935 321.992 81.935 321.992 C 81.935 321.992 81.53 326.992 71.754 327.659 C 68.101 327.907 40.958 331.992 36.739 327.492 Z"
            fill="#FFFFFF" />
        <path
            d="M 36.139 330.7 C 36.139 330.7 37.385 333.575 43.074 334.325 C 48.763 335.075 55.653 332.325 59.099 331.7 C 62.545 331.075 73.417 329.575 75.863 328.95 C 78.309 328.325 83.656 326.533 83.938 323.992 C 82.581 328.575 79.813 329.825 75.741 330.45 C 71.67 331.075 60.059 332.7 57.28 333.825 C 54.501 334.95 42.548 336.95 37.312 334.2 C 36.049 332.575 36.139 330.7 36.139 330.7 Z"
            fill="#C0C2C4" />
        <path
            d="M 54.611 314.325 C 54.611 314.325 50.29 313.643 45.64 314.658 C 41.059 315.658 34.525 319.158 35.882 329.158 C 35.882 329.158 41.782 333.825 53.22 331.158 C 68.028 327.706 72.934 327.825 77.044 327.158 C 81.154 326.491 82.559 321.491 82.559 321.491 L 80.031 315.324 C 80.03 315.325 64.04 319.325 54.611 314.325 Z"
            fill="#FF0000" />
        <path
            d="M 53.404 314.825 C 53.404 314.825 56.157 316.325 58.272 316.2 C 60.387 316.075 58.783 316.325 58.672 317.95 C 58.561 319.575 59.353 324.308 62.186 323.95 C 64.165 323.7 64.868 321.7 64.436 319.575 C 64.004 317.45 64.808 318.075 66.183 318.075 C 67.488 318.075 79.879 317.45 80.43 316.575 C 79.416 314.95 79.416 314.95 79.416 314.95 C 79.416 314.95 56.112 314.325 54.434 313.7 C 52.754 313.075 53.404 314.825 53.404 314.825 Z"
            fill="#AD1215" />
        <path
            d="M 43.516 315.158 C 43.516 315.158 48.868 317.325 52.968 324.325 C 57.068 331.325 53.525 330.407 51.401 331.325 C 47.544 332.992 40.625 331.992 37.287 329.992 C 34.642 328.407 36.654 320.659 38.483 318.659 C 40.311 316.658 43.516 315.158 43.516 315.158 Z"
            fill="#FFFFFF" />
        <path
            d="M 54.611 314.325 C 54.611 314.325 44.04 313.492 40.768 316.158 C 37.496 318.825 34.525 324.991 36.562 329.325 C 40.957 331.992 46.043 332.992 51.4 331.325 C 56.757 329.658 62.853 328.825 69.614 327.992 C 76.376 327.159 80.166 326.659 81.548 323.325 C 82.929 319.992 82.015 320.992 81.496 318.825 C 80.977 316.658 80.03 315.325 80.03 315.325"
            fill="none" stroke="#000000" stroke-miterlimit="10" stroke-width="0.75" />
        <path
            d="M 42.8 315.075 C 42.8 315.075 47.363 315.325 51.81 322.492 C 56.257 329.659 53.995 330.492 53.995 330.492"
            fill="none" stroke="#000000" stroke-miterlimit="10" stroke-width="0.75" />
        <path
            d="M 59.392 315.658 C 59.392 315.658 56.963 322.325 60.782 322.158 C 64.601 321.991 61.74 315.825 61.74 315.825"
            fill="none" stroke="#231F20" stroke-miterlimit="10" stroke-width="2" />
        <path
            d="M 59.392 315.658 C 59.392 315.658 56.963 322.325 60.782 322.158 C 64.601 321.991 61.74 315.825 61.74 315.825"
            fill="none" stroke="#FFFFFF" stroke-miterlimit="10" />
        <path
            d="M 82.558 321.492 C 82.558 321.492 85.772 323.992 82.905 327.492 C 80.038 330.992 70.552 331.159 63.167 332.492 C 55.781 333.825 53.576 335.325 45.938 335.659 C 38.3 335.992 35.933 333.659 35.776 331.826 C 35.619 329.993 36.1 327.826 36.1 327.826"
            fill="none" stroke="#000000" stroke-miterlimit="10" stroke-width="0.75" />
        <path
            d="M 35.9 326.45 C 35.9 326.45 39.096 330.2 44.096 330.2 C 49.096 330.2 52.25 329.075 55.539 328.075 C 58.828 327.075 70.286 326.575 73.982 325.95 C 77.678 325.325 81.189 321.075 81.425 319.45 C 82.896 320.575 82.457 324.2 78.857 325.95 C 75.257 327.7 62.539 328.075 58.928 329.7 C 55.317 331.325 44.756 334.992 35.882 329.158 C 35.725 327.325 35.9 326.45 35.9 326.45 Z"
            fill="#C0C2C4" />
        <path
            d="M 133.003 325.645 C 133.003 325.645 134.644 327.972 134.665 329.973 C 134.665 329.973 135.556 332.804 129.462 333.997 C 123.368 335.191 112.403 331.737 108.658 330.753 C 104.913 329.769 94.982 328.979 92.652 327.822 C 90.322 326.665 87.341 325.33 87.388 322.343 C 87.412 320.842 88.956 320.335 88.956 320.335 C 88.956 320.335 90.201 325.331 99.639 325.957 C 103.164 326.191 129.752 330.161 133.003 325.645 Z"
            fill="#FFFFFF" />
        <path
            d="M 134.378 329.075 C 134.378 329.075 133.655 331.95 128.268 332.7 C 122.881 333.45 115.741 330.7 112.296 330.075 C 108.851 329.45 98.062 327.95 95.586 327.325 C 93.11 326.7 87.626 324.908 86.924 322.367 C 89.012 326.95 91.906 328.2 95.957 328.825 C 100.008 329.45 111.534 331.075 114.416 332.2 C 117.298 333.325 129.22 335.325 133.83 332.575 C 134.781 330.95 134.378 329.075 134.378 329.075 Z"
            fill="#C0C2C4" />
        <path
            d="M 113.697 312.558 C 113.697 312.558 117.701 311.858 122.31 312.854 C 126.851 313.835 133.682 317.306 134.106 327.308 C 134.106 327.308 129.281 331.998 117.914 329.379 C 103.199 325.989 98.54 326.129 94.506 325.48 C 90.472 324.831 88.274 319.838 88.274 319.838 L 89.626 313.663 C 89.627 313.663 105.564 317.595 113.697 312.558 Z"
            fill="#FF0000" />
        <path
            d="M 114.342 313.45 C 114.342 313.45 111.979 314.95 109.952 314.825 C 109.952 314.825 110.291 314.825 110.668 316.45 C 111.044 318.075 112.325 321.2 108.639 321.95 C 106.794 322.325 104.611 320.325 104.666 318.2 C 104.721 316.075 104.063 316.7 102.758 316.7 C 101.52 316.7 89.656 316.075 88.988 315.2 C 89.679 313.575 89.679 313.575 89.679 313.575 C 89.679 313.575 111.689 312.95 113.178 312.325 C 114.667 311.7 114.342 313.45 114.342 313.45 Z"
            fill="#AD1215" />
        <path
            d="M 124.422 313.345 C 124.422 313.345 119.69 315.533 116.982 322.548 C 114.274 329.562 117.495 328.63 119.678 329.539 C 123.643 331.189 130.07 330.161 132.91 328.147 C 135.16 326.552 131.911 318.814 129.824 316.823 C 127.737 314.832 124.422 313.345 124.422 313.345 Z"
            fill="#FFFFFF" />
        <path
            d="M 113.697 312.558 C 113.697 312.558 123.636 311.681 127.214 314.333 C 130.792 316.985 134.685 323.137 133.485 327.477 C 129.751 330.161 125.073 331.182 119.678 329.538 C 114.283 327.894 108.327 327.087 101.735 326.282 C 95.143 325.477 91.442 324.993 89.553 321.667 C 87.663 318.341 88.707 319.336 88.83 317.168 C 88.953 315 89.628 313.663 89.628 313.663"
            fill="none" stroke="#000000" stroke-miterlimit="10" stroke-width="0.75" />
        <path
            d="M 125.276 313.325 C 125.276 313.325 120.782 313.527 117.771 320.71 C 114.76 327.893 117.061 328.716 117.061 328.716"
            fill="none" stroke="#000000" stroke-miterlimit="10" stroke-width="0.75" />
        <path
            d="M 109.367 313.911 C 109.367 313.911 112.828 320.565 109.157 320.414 C 105.486 320.263 107.156 314.087 107.156 314.087"
            fill="none" stroke="#231F20" stroke-miterlimit="10" stroke-width="2" />
        <path
            d="M 109.367 313.911 C 109.367 313.911 112.828 320.565 109.157 320.414 C 105.486 320.263 107.156 314.087 107.156 314.087"
            fill="none" stroke="#FFFFFF" stroke-miterlimit="10" />
        <path
            d="M 88.275 319.838 C 88.275 319.838 85.639 322.35 88.974 325.837 C 92.309 329.324 101.384 329.451 108.657 330.753 C 115.93 332.055 118.29 333.545 125.632 333.847 C 132.974 334.149 134.83 331.806 134.665 329.973 C 134.5 328.14 133.669 325.976 133.669 325.976"
            fill="none" stroke="#000000" stroke-miterlimit="10" stroke-width="0.75" />
        <path
            d="M 133.343 324.325 C 133.343 324.325 131.429 328.575 126.583 328.575 C 121.737 328.575 118.492 327.45 115.136 326.45 C 111.78 325.45 100.593 324.95 96.905 324.325 C 93.217 323.7 89.518 319.2 89.015 317.575 C 87.779 318.7 88.397 322.575 92.181 324.325 C 95.965 326.075 108.353 326.45 112.126 328.075 C 115.899 329.7 126.752 333.367 134.368 327.533 C 134.211 325.7 133.343 324.325 133.343 324.325 Z"
            fill="#C0C2C4" />
    </g>
</svg>