<?xml version="1.0" encoding="utf-8"?>
<svg viewBox="0 0 177 337" xmlns="http://www.w3.org/2000/svg">
    <g transform="matrix(1, 0, 0, 1, -730.845764, -59.34341)">
        <g>
            <path
                d="M799.5,136.5c0,1-6.887,2.451-13,2.167c-7.167-0.333-9.869-3.117-10.333-6.833&#10;&#9;&#9;&#9;&#9;&#9;c-0.167-1.333,6.049-4.303,12.167-4.167C795.833,127.833,799.5,132.602,799.5,136.5z"
                fill="#FFFFFF" />
            <path
                d="M790.82,128.27c-1.639-0.103-3.277-0.208-4.916-0.314c-2.014,0.708-3.624,2.414-4.095,4.656&#10;&#9;&#9;&#9;&#9;&#9;c-0.478,2.272,0.335,4.512,1.936,5.97c2.892,0.294,5.819,0.603,8.626-0.169c0.022-0.006,0.041-0.005,0.063-0.011&#10;&#9;&#9;&#9;&#9;&#9;c0.852-0.841,1.476-1.931,1.741-3.19C794.778,132.342,793.325,129.524,790.82,128.27z"
                fill="#7B9BAB" />
        </g>
        <circle cx="787.991" cy="133.912" r="3.751" />
        <circle cx="785" cy="132" fill="#FFFFFF" r="1.649" />
        <path
            d="M776.167,131.833c0,0,1-3,9.833-3.333s10.667,3.167,13.5,7c0,0-0.833-5.833-6.833-8&#10;&#9;&#9;&#9;&#9;c-2.697-0.974-8.333-1.333-13.333,0.167c-4.178,1.253-5.667,2-5.667,2S773.833,130.167,776.167,131.833z" />
        <path
            d="M777,134.5c0,0,1.907,3.993,15.37,3.913C792.37,138.413,779.333,140.833,777,134.5z" />
    </g>
    <g transform="matrix(1, 0, 0, 1, -730.845764, -59.34341)">
        <g>
            <path
                d="M829.333,136.5c0,1,6.887,2.451,13,2.167c7.167-0.333,9.869-3.117,10.333-6.833&#10;&#9;&#9;&#9;&#9;&#9;c0.167-1.333-6.049-4.303-12.167-4.167C833,127.833,829.333,132.602,829.333,136.5z"
                fill="#FFFFFF" />
            <path
                d="M838.014,128.27c1.639-0.103,3.277-0.208,4.916-0.314c2.014,0.708,3.624,2.414,4.095,4.656&#10;&#9;&#9;&#9;&#9;&#9;c0.478,2.272-0.335,4.512-1.936,5.97c-2.892,0.294-5.819,0.603-8.626-0.169c-0.022-0.006-0.041-0.005-0.063-0.011&#10;&#9;&#9;&#9;&#9;&#9;c-0.852-0.841-1.476-1.931-1.741-3.19C834.056,132.342,835.508,129.524,838.014,128.27z"
                fill="#7B9BAB" />
        </g>
        <circle cx="840.842" cy="133.912" r="3.751" />
        <circle cx="843.833" cy="132" fill="#FFFFFF" r="1.649" />
        <path
            d="M852.667,131.833c0,0-1-3-9.833-3.333c-8.833-0.333-10.667,3.167-13.5,7c0,0,0.833-5.833,6.833-8&#10;&#9;&#9;&#9;&#9;c2.697-0.974,8.333-1.333,13.333,0.167c4.178,1.253,5.667,2,5.667,2S855,130.167,852.667,131.833z" />
        <path
            d="M851.833,134.5c0,0-1.907,3.993-15.37,3.913C836.463,138.413,849.5,140.833,851.833,134.5z" />
    </g>
</svg>