<?xml version="1.0" encoding="utf-8"?>
<svg viewBox="0 0 177 337" xmlns="http://www.w3.org/2000/svg">
    <g transform="matrix(1, 0, 0, 1, -730.742676, -59.339996)">
        <g transform="matrix(1, 0, 0, 1, 10.267648, -387.665161)">
            <g>
                <path style="fill: rgb(243, 126, 93);"
                    d="M795.583,558.667c0,0,9.75,1.083,18.75-0.167c0,0-7.096-2.044-7.25-2.083&#10;&#9;&#9;&#9;c-0.154-0.039-1.416,1.155-3,1.083c-1.833-0.083-2.421-1.233-2.421-1.233L795.583,558.667z" />
                <path style="fill: rgb(243, 126, 93);"
                    d="M804.125,565.875c12.322,0.301,12.375-2.125,16.875-5c0.3-0.192-1.375-0.375-1.375-0.375&#10;&#9;&#9;&#9;disposable-1.373,1.951-15.75,1.625c-4.813-0.109-7.625-0.25-13-1.625c-1.237-0.316-3.125-0.25-1.625,1.125&#10;&#9;&#9;&#9;C789.833,562.159,793.875,565.625,804.125,565.875z" />
            </g>
            <path
                d="M789.25,558.5c0,0-0.429,0.803,16.473,0.803c16.036,0,14.277-0.553,14.277-0.553s2.365,3.276-14.5,3&#10;&#9;&#9;C786.977,561.446,789.25,558.5,789.25,558.5z" />
            <path
                d="M789.687,556.056c0,0,0.484,3.23-2.907,4.845C786.78,560.901,790.817,559.932,789.687,556.056z" />
            <path
                d="M822.732,560.747c0,0-3.069-1.118-2.866-4.869C819.866,555.878,818.787,559.887,822.732,560.747z" />
            <path
                d="M794.25,564.637c0,0,11.362,4.16,25.25-1.387C819.5,563.25,807.191,569.589,794.25,564.637z" />
            <path
                d="M793.167,558.75c0,0,7.061-2.754,8.495-2.483c0,0,2.036,2.296,5.329-0.237c0,0,4.925,1.137,8.675,3.303&#10;&#9;&#9;c0,0-7.318-3.348-8.7-2.519c-1.382,0.829-3.732,1.244-5.529,0.276C799.64,556.123,793.167,558.75,793.167,558.75z" />
        </g>
    </g>
</svg>