<?xml version="1.0" encoding="utf-8"?>
<svg viewBox="0 0 177 337" xmlns="http://www.w3.org/2000/svg">
    <g transform="matrix(1, 0, 0, 1, -8.286001, 64.192001)">
        <path
            d="M 45.03 263.299 C 45.03 263.299 43.73 265.632 44.068 267.632 C 44.068 267.632 43.644 270.465 50.244 271.632 C 56.844 272.799 67.711 269.299 71.459 268.299 C 75.207 267.299 85.469 266.466 87.702 265.299 C 89.935 264.132 92.818 262.785 92.231 259.799 C 91.936 258.299 90.226 257.799 90.226 257.799 C 90.226 257.799 89.821 262.799 80.045 263.466 C 76.392 263.715 49.249 267.799 45.03 263.299 Z"
            fill="#FFFFFF" />
        <path
            d="M 44.43 266.507 C 44.43 266.507 45.676 269.382 51.365 270.132 C 57.054 270.882 63.944 268.132 67.39 267.507 C 70.836 266.882 81.708 265.382 84.154 264.757 C 86.6 264.132 91.947 262.34 92.229 259.799 C 90.872 264.382 88.104 265.632 84.032 266.257 C 79.961 266.882 68.35 268.507 65.571 269.632 C 62.792 270.757 50.839 272.757 45.603 270.007 C 44.34 268.382 44.43 266.507 44.43 266.507 Z"
            fill="#C0C2C4" />
        <path
            d="M 62.902 250.132 C 62.902 250.132 58.581 249.45 53.931 250.465 C 49.35 251.465 42.816 254.965 44.173 264.965 C 44.173 264.965 50.073 269.632 61.511 266.965 C 76.319 263.513 81.225 263.632 85.335 262.965 C 89.445 262.298 90.85 257.298 90.85 257.298 L 88.322 251.131 C 88.321 251.132 72.331 255.132 62.902 250.132 Z"
            fill="#231F20" />
        <path
            d="M 61.695 250.632 C 61.695 250.632 64.448 252.132 66.563 252.007 C 68.678 251.882 67.074 252.132 66.963 253.757 C 66.852 255.382 67.644 260.115 70.477 259.757 C 72.456 259.507 73.159 257.507 72.727 255.382 C 72.295 253.257 73.099 253.882 74.474 253.882 C 75.779 253.882 88.17 253.257 88.721 252.382 C 87.707 250.757 87.707 250.757 87.707 250.757 C 87.707 250.757 64.403 250.132 62.725 249.507 C 61.045 248.882 61.695 250.632 61.695 250.632 Z" />
        <path
            d="M 51.807 250.966 C 51.807 250.966 57.159 253.133 61.259 260.133 C 65.359 267.133 61.816 266.215 59.692 267.133 C 55.835 268.8 48.916 267.8 45.578 265.8 C 42.933 264.215 44.945 256.467 46.774 254.467 C 48.602 252.466 51.807 250.966 51.807 250.966 Z"
            fill="#FFFFFF" />
        <path
            d="M 62.902 250.132 C 62.902 250.132 52.331 249.299 49.059 251.965 C 45.787 254.632 42.816 260.798 44.853 265.132 C 49.248 267.799 54.334 268.799 59.691 267.132 C 65.048 265.465 71.144 264.632 77.905 263.799 C 84.667 262.966 88.457 262.466 89.839 259.132 C 91.22 255.799 90.306 256.799 89.787 254.632 C 89.268 252.465 88.321 251.132 88.321 251.132"
            fill="none" stroke="#000000" stroke-miterlimit="10" stroke-width="0.75" />
        <path
            d="M 51.091 250.882 C 51.091 250.882 55.654 251.132 60.101 258.299 C 64.548 265.466 62.286 266.299 62.286 266.299"
            fill="none" stroke="#000000" stroke-miterlimit="10" stroke-width="0.75" />
        <path
            d="M 67.683 251.466 C 67.683 251.466 65.254 258.133 69.073 257.966 C 72.892 257.799 70.031 251.633 70.031 251.633"
            fill="none" stroke="#231F20" stroke-miterlimit="10" stroke-width="2" />
        <path
            d="M 67.683 251.466 C 67.683 251.466 65.254 258.133 69.073 257.966 C 72.892 257.799 70.031 251.633 70.031 251.633"
            fill="none" stroke="#FFFFFF" stroke-miterlimit="10" />
        <path
            d="M 90.849 257.299 C 90.849 257.299 94.063 259.799 91.196 263.299 C 88.329 266.799 78.843 266.966 71.458 268.299 C 64.072 269.632 61.867 271.132 54.229 271.466 C 46.591 271.799 44.224 269.466 44.067 267.633 C 43.91 265.8 44.391 263.633 44.391 263.633"
            fill="none" stroke="#000000" stroke-miterlimit="10" stroke-width="0.75" />
        <path
            d="M 141.294 261.453 C 141.294 261.453 142.935 263.78 142.956 265.781 C 142.956 265.781 143.847 268.612 137.753 269.805 C 131.659 270.999 120.694 267.545 116.949 266.561 C 113.204 265.577 103.273 264.787 100.943 263.63 C 98.613 262.473 95.632 261.138 95.679 258.151 C 95.703 256.65 97.247 256.143 97.247 256.143 C 97.247 256.143 98.492 261.139 107.93 261.765 C 111.455 261.999 138.043 265.969 141.294 261.453 Z"
            fill="#FFFFFF" />
        <path
            d="M 142.669 264.882 C 142.669 264.882 141.946 267.757 136.559 268.507 C 131.172 269.257 124.032 266.507 120.587 265.882 C 117.142 265.257 106.353 263.757 103.877 263.132 C 101.401 262.507 95.917 260.715 95.215 258.174 C 97.303 262.757 100.197 264.007 104.248 264.632 C 108.299 265.257 119.825 266.882 122.707 268.007 C 125.589 269.132 137.511 271.132 142.121 268.382 C 143.072 266.757 142.669 264.882 142.669 264.882 Z"
            fill="#C0C2C4" />
        <path
            d="M 121.988 248.365 C 121.988 248.365 125.992 247.665 130.601 248.661 C 135.142 249.642 141.973 253.113 142.397 263.115 C 142.397 263.115 137.572 267.805 126.205 265.186 C 111.49 261.796 106.831 261.936 102.797 261.287 C 98.763 260.638 96.565 255.645 96.565 255.645 L 97.917 249.47 C 97.918 249.47 113.855 253.403 121.988 248.365 Z"
            fill="#231F20" />
        <path
            d="M 122.633 249.257 C 122.633 249.257 120.27 250.757 118.243 250.632 C 118.243 250.632 118.582 250.632 118.959 252.257 C 119.335 253.882 120.616 257.007 116.93 257.757 C 115.085 258.132 112.902 256.132 112.957 254.007 C 113.012 251.882 112.354 252.507 111.049 252.507 C 109.811 252.507 97.947 251.882 97.279 251.007 C 97.97 249.382 97.97 249.382 97.97 249.382 C 97.97 249.382 119.98 248.757 121.469 248.132 C 122.958 247.507 122.633 249.257 122.633 249.257 Z" />
        <path
            d="M 132.713 249.152 C 132.713 249.152 127.981 251.34 125.273 258.355 C 122.565 265.37 125.786 264.437 127.969 265.346 C 131.934 266.996 138.361 265.968 141.201 263.954 C 143.451 262.359 140.202 254.621 138.115 252.63 C 136.027 250.638 132.713 249.152 132.713 249.152 Z"
            fill="#FFFFFF" />
        <path
            d="M 121.988 248.365 C 121.988 248.365 131.927 247.488 135.505 250.14 C 139.083 252.792 142.976 258.944 141.776 263.284 C 138.042 265.968 133.364 266.989 127.969 265.345 C 122.574 263.701 116.618 262.894 110.026 262.089 C 103.434 261.284 99.733 260.8 97.844 257.474 C 95.954 254.148 96.998 255.143 97.121 252.975 C 97.244 250.807 97.919 249.47 97.919 249.47"
            fill="none" stroke="#000000" stroke-miterlimit="10" stroke-width="0.75" />
        <path
            d="M 133.567 249.132 C 133.567 249.132 129.073 249.334 126.062 256.517 C 123.051 263.7 125.352 264.523 125.352 264.523"
            fill="none" stroke="#000000" stroke-miterlimit="10" stroke-width="0.75" />
        <path
            d="M 117.658 249.718 C 117.658 249.718 121.119 256.372 117.448 256.221 C 113.777 256.07 115.447 249.894 115.447 249.894"
            fill="none" stroke="#231F20" stroke-miterlimit="10" stroke-width="2" />
        <path
            d="M 117.658 249.718 C 117.658 249.718 121.119 256.372 117.448 256.221 C 113.777 256.07 115.447 249.894 115.447 249.894"
            fill="none" stroke="#FFFFFF" stroke-miterlimit="10" />
        <path
            d="M 96.566 255.645 C 96.566 255.645 93.93 258.157 97.265 261.644 C 100.6 265.131 109.675 265.258 116.948 266.56 C 124.221 267.862 126.581 269.352 133.923 269.654 C 141.265 269.955 143.121 267.613 142.956 265.78 C 142.791 263.947 141.96 261.783 141.96 261.783"
            fill="none" stroke="#000000" stroke-miterlimit="10" stroke-width="0.75" />
        <path
            d="M 44.191 262.257 C 44.191 262.257 47.387 266.007 52.387 266.007 C 57.387 266.007 60.541 264.882 63.83 263.882 C 67.119 262.882 78.577 262.382 82.273 261.757 C 85.969 261.132 89.48 256.882 89.716 255.257 C 91.187 256.382 90.748 260.007 87.148 261.757 C 83.548 263.507 70.83 263.882 67.219 265.507 C 63.608 267.132 53.047 270.799 44.173 264.965 C 44.016 263.132 44.191 262.257 44.191 262.257 Z"
            fill="#C0C2C4" />
        <path
            d="M 141.634 260.132 C 141.634 260.132 139.72 264.382 134.874 264.382 C 130.028 264.382 126.783 263.257 123.427 262.257 C 120.071 261.257 108.884 260.757 105.196 260.132 C 101.508 259.507 97.809 255.007 97.306 253.382 C 96.07 254.507 96.688 258.382 100.472 260.132 C 104.256 261.882 116.644 262.257 120.417 263.882 C 124.19 265.507 135.043 269.174 142.659 263.34 C 142.502 261.507 141.634 260.132 141.634 260.132 Z"
            fill="#C0C2C4" />
    </g>
</svg>