<?xml version="1.0" encoding="utf-8"?>
<svg viewBox="0 0 177 337" xmlns="http://www.w3.org/2000/svg">
    <path style=""
        d="M 43.948 161.428 C 40.074 163.792 129.692 162.659 124.916 158.006 C 124.329 157.35 123.707 156.717 123.066 156.161 C 120.025 153.521 104.613 149.094 102.108 148.387 C 101.545 146.579 100.566 145.661 100.566 145.661 C 100.566 145.661 100.439 145.986 100.162 146.512 C 99.87 144.637 99.779 142.561 100.151 140.546 C 106.982 138.652 113.809 135.758 122.503 131.786 C 131.25 127.79 141.716 115.613 144.159 99.658 C 144.452 99.784 144.756 99.911 145.076 100.036 C 154.576 103.786 158.826 80.286 151.826 77.036 C 148.785 75.624 146.595 76.478 145.088 77.893 C 145.15 77.715 145.213 77.529 145.278 77.338 C 146.297 74.85 148.613 68.376 150.503 57.035 C 151.012 53.981 151.081 51.17 150.875 48.621 C 150.643 38.265 145.99 33.656 145.146 32.909 L 148.753 36.035 C 148.518 30.865 141.208 18.184 127.247 10.036 C 124.635 8.321 121.674 7.065 118.551 6.178 C 109.748 3.529 100.231 3.9 93.976 4.631 C 89.053 5.097 85.752 5.785 85.752 5.785 C 77.752 1.035 44.002 3.035 30.002 21.285 C 30.002 21.285 30.092 21.187 30.257 21.018 C 29.398 22.102 29.002 22.785 29.002 22.785 C 31.002 21.535 36.002 22.035 36.002 22.035 C 35.542 22.258 35.097 22.497 34.66 22.745 C 35.099 22.488 35.545 22.247 36.002 22.035 C 23.752 26.535 18.252 41.535 17.502 53.535 C 17.502 53.535 17.502 53.535 21.502 46.785 C 21.488 46.852 21.479 46.926 21.466 46.994 C 19.337 52.994 20.183 62.652 24.203 76.68 C 24.359 77.462 24.513 78.212 24.662 78.922 C 23.185 76.98 20.733 75.303 17.003 77.036 C 10.003 80.286 14.253 103.786 23.753 100.036 C 24.411 99.775 25.006 99.516 25.554 99.258 C 25.921 102.919 26.527 106.538 27.503 109.536 C 31.003 120.286 40.003 127.536 51.753 132.536 C 58.031 135.208 64.808 138.297 71.514 140.415 C 71.709 142.148 71.885 144.311 71.888 146.477 C 71.719 146.167 71.628 145.973 71.628 145.973 C 71.381 145.727 71.282 145.859 71.245 146.079 C 71.023 146.501 70.719 147.712 70.429 149.116 C 68.869 149.693 62.616 152.014 54.627 155.036 C 48.984 157.171 45.677 159.743 43.948 161.428 Z M 107.73 150.505 C 108.343 150.676 108.987 150.859 109.647 151.051 C 109.023 150.876 108.388 150.695 107.73 150.505 Z"
        stroke-linejoin="round" stroke-miterlimit="10" stroke-width="11" />
    <path
        d="M 71.03 136.997 C 71.03 136.997 73.697 151.664 69.78 155.497 C 69.78 155.497 74.53 160.997 83.03 162.997 C 91.53 164.997 102.093 153.309 102.093 153.309 C 102.093 153.309 98.03 144.496 101.03 137.996 C 101.03 137.997 77.53 142.497 71.03 136.997 Z"
        fill="#E6B480" />
    <g transform="matrix(1, 0, 0, 1, -730.742676, -59.339996)">
        <path
            d="M756.523,139.17c0,0-1.25,18.75,2.25,29.5s12.5,18,24.25,23s25.25,11.5,36.75,10.25s20.5-4.833,34-11&#10;&#9;&#9;&#9;c11.308-5.166,25.5-24,21.5-47s-16.75-52-19.5-54.5s-27-6.75-44.25-6.75s-39.25,14.5-43,26S756.523,139.17,756.523,139.17z"
            fill="#E6B480" />
        <path
            d="M757.273,142.087c0,0-2.5-8.75-9.5-5.5s-2.75,26.75,6.75,23s7-7.5,7-7.5L757.273,142.087z"
            fill="#E6B480" />
        <path
            d="M873.096,142.087c0,0,2.5-8.75,9.5-5.5s2.75,26.75-6.75,23s-7-7.5-7-7.5L873.096,142.087z"
            fill="#E6B480" />
        <path
            d="M745.773,143.337c0,0,2.75-6.75,7.5-3.25s2,12.5,2,12.5s1.5-9-3-11.5S745.773,143.337,745.773,143.337z" />
        <path
            d="M754.023,145.337c0,0-5.5-1.25-5,2.25C749.023,147.587,749.773,145.837,754.023,145.337z" />
        <path
            d="M884.815,143.337c0,0-2.75-6.75-7.5-3.25s-2,12.5-2,12.5s-1.5-9,3-11.5S884.815,143.337,884.815,143.337z" />
        <path
            d="M876.565,145.337c0,0,5.5-1.25,5,2.25C881.565,147.587,880.815,145.837,876.565,145.337z" />
        <path
            d="M805.773,199.337c0,0,4,4,11.25,3.5s11.5-4.75,11.5-4.75s-6.5,3.5-11.75,3.75S805.773,199.337,805.773,199.337z" />
    </g>
</svg>