<?xml version="1.0" encoding="utf-8"?>
<svg viewBox="0 0 177 337" xmlns="http://www.w3.org/2000/svg">
    <path
        d="M 71.429 151.115 C 71.429 151.115 58.266 155.193 49.179 160.115 C 43.179 163.365 40.179 167.865 38.679 172.615 C 36.433 179.729 32.929 185.115 34.179 186.115 C 43.608 193.658 52.679 197.365 52.679 197.365 L 56.679 185.615 C 56.679 185.615 54.179 204.365 49.929 214.615 C 45.679 224.865 42.429 243.615 42.429 243.615 C 42.429 243.615 53.429 252.365 87.679 253.365 C 121.929 254.365 127.429 248.115 127.429 248.115 C 127.429 248.115 122.429 230.115 122.179 220.615 C 121.929 211.115 118.429 191.615 118.429 191.615 L 122.929 200.615 C 122.929 200.615 138.429 195.365 142.179 185.365 C 138.179 178.865 128.679 163.115 124.179 158.865 C 119.679 154.615 112.929 154.115 102.679 150.615 C 102.679 150.615 96.929 160.365 86.429 160.365 C 75.929 160.365 71.429 151.115 71.429 151.115 Z"
        fill="#0078BC" />
    <path
        d="M 71.679 148.615 C 71.679 148.615 77.179 157.365 87.179 156.865 C 97.179 156.365 101.179 148.115 101.179 148.115 C 101.179 148.115 102.992 150.928 102.492 154.928 C 102.311 156.374 101.179 165.116 86.679 165.116 C 72.179 165.116 70.179 157.116 70.179 157.116 L 71.679 148.615 Z"
        fill="#00A1DD" />
    <path
        d="M 72.054 147.803 C 72.054 147.803 76.054 156.741 86.742 156.678 C 97.43 156.615 100.992 147.49 100.992 147.49 C 100.992 147.49 101.367 148.053 101.367 148.615 C 101.367 149.177 98.117 157.428 86.742 157.303 C 75.367 157.178 71.679 148.615 71.679 148.615 C 71.679 148.615 71.491 147.24 72.054 147.803 Z"
        fill="#003860" />
    <path
        d="M 72.054 148.24 C 72.054 148.24 71.054 152.803 70.741 154.553 C 70.428 156.303 70.428 157.428 70.929 158.491 C 70.929 158.491 69.991 157.803 69.991 156.491 C 69.991 155.179 71.304 147.866 71.804 147.741 L 72.054 148.24 Z"
        fill="#003860" />
    <path
        d="M 100.991 147.49 C 100.991 147.49 103.616 149.928 102.741 154.74 C 101.866 159.552 99.928 161.553 97.928 162.553 C 97.928 162.553 101.741 159.865 102.241 154.865 C 102.741 149.865 101.303 148.99 100.678 149.677 L 100.991 147.49 Z"
        fill="#003860" />
    <path
        d="M 74.991 162.428 C 74.991 162.428 82.429 166.741 93.991 164.241 C 93.991 164.24 84.116 168.49 74.991 162.428 Z"
        fill="#003860" />
    <path
        d="M 70.866 151.928 C 70.866 151.928 55.741 156.928 50.491 159.678 C 45.241 162.428 43.053 164.741 42.803 165.053 C 42.803 165.053 45.803 160.365 55.053 156.865 C 64.303 153.365 71.241 150.802 71.241 150.802 L 70.866 151.928 Z"
        fill="#003860" />
    <path
        d="M 102.491 150.865 C 102.491 150.865 119.866 154.928 123.429 158.49 C 126.992 162.052 129.617 165.74 129.617 165.74 C 129.617 165.74 126.804 160.865 123.492 157.99 C 120.18 155.115 102.179 150.115 102.179 150.115 L 102.491 150.865 Z"
        fill="#003860" />
    <path
        d="M 100.804 149.365 C 100.804 149.365 101.929 150.803 102.054 153.24 C 102.054 153.24 101.866 148.928 100.804 149.365 Z"
        fill="#003860" />
    <path
        d="M 99.991 150.74 C 99.991 150.74 101.179 152.053 100.991 155.553 C 100.991 155.553 101.554 151.49 99.991 150.74 Z"
        fill="#003860" />
    <path
        d="M 99.491 151.428 C 99.491 151.428 100.679 152.741 100.491 156.241 C 100.491 156.24 101.054 152.178 99.491 151.428 Z"
        fill="#003860" />
    <path
        d="M 100.429 149.99 C 100.429 149.99 101.617 151.303 101.429 154.803 C 101.429 154.803 101.991 150.74 100.429 149.99 Z"
        fill="#003860" />
    <path
        d="M 44.929 162.948 C 44.929 162.948 41.096 166.615 37.929 175.448 C 34.762 184.281 34.262 185.448 34.262 185.448 C 34.262 185.448 42.595 192.781 52.595 196.615 C 53.595 192.782 57.095 184.615 57.095 184.615 L 53.428 198.282 C 53.428 198.282 41.928 194.615 33.261 185.949 L 37.761 174.116 C 37.762 174.115 40.762 164.782 44.929 162.948 Z"
        fill="#003860" />
    <path
        d="M 56.262 186.948 C 56.262 186.948 56.262 195.948 52.929 205.781 C 49.596 215.614 43.262 235.614 42.929 242.948 C 49.762 246.948 58.262 250.615 86.929 252.615 C 115.596 254.615 126.762 247.948 126.762 247.948 C 126.762 247.948 122.595 255.615 86.762 254.281 C 50.929 252.948 41.262 243.448 41.262 243.448 C 41.262 243.448 49.262 210.615 51.429 205.948 C 53.596 201.282 56.262 186.948 56.262 186.948 Z"
        fill="#003860" />
    <path
        d="M 114.262 184.615 C 114.262 184.615 121.929 195.448 123.429 199.948 C 125.262 199.115 130.596 197.115 135.096 193.448 C 139.596 189.781 141.596 185.448 141.596 185.448 C 141.596 185.448 141.929 188.781 134.929 194.948 C 127.929 201.115 122.429 201.615 122.429 201.615 C 122.429 201.615 117.429 189.448 114.262 184.615 Z"
        fill="#003860" />
    <path
        d="M 118.429 191.615 C 118.429 191.615 122.429 208.448 122.429 219.615 C 122.429 230.782 127.429 248.115 127.429 248.115 C 127.429 248.115 126.096 248.615 122.429 250.282 L 125.929 247.282 C 125.929 247.282 122.929 235.282 121.262 220.615 C 119.595 205.948 117.095 189.782 117.095 189.782 L 118.429 191.615 Z"
        fill="#003860" />
    <path
        d="M 136.596 192.948 C 136.596 192.948 140.763 189.115 142.179 185.365 C 138.762 178.948 129.596 163.615 124.929 159.448 C 127.929 164.448 141.262 183.281 140.762 186.281 C 140.262 189.281 136.596 192.948 136.596 192.948 Z"
        fill="#003860" />
    <path
        d="M 55.929 157.115 C 55.929 157.115 58.096 162.615 57.762 172.282 C 57.762 172.282 58.596 159.282 55.929 157.115 Z"
        fill="#003860" />
    <path
        d="M 121.429 157.282 C 121.429 157.282 115.762 165.449 115.096 177.949 C 115.096 177.948 115.096 164.282 121.429 157.282 Z"
        fill="#003860" />
    <path
        d="M 57.262 187.282 C 57.262 187.282 58.595 197.282 54.262 210.615 C 54.262 210.615 58.096 194.448 57.262 187.282 Z"
        fill="#003860" />
    <path
        d="M 46.429 245.782 C 46.429 245.782 50.429 229.449 52.929 220.115 C 52.929 220.115 44.096 246.448 46.429 245.782 Z"
        fill="#003860" />
</svg>