<?xml version="1.0" encoding="utf-8"?>
<svg viewBox="0 0 177 337" xmlns="http://www.w3.org/2000/svg">
    <g transform="matrix(1, 0, 0, 1, -260.250916, -59.337002)">
        <g>
            <path
                d="M287.023,145.587c0,0-7-28.5-4.75-39.25c-4,6.75-4,6.75-4,6.75s2.5-23.75,18.5-31.5c0,0-5-0.5-7,0.75&#10;&#9;&#9;&#9;c0,0,13-22.75,56.75-17c0,0,27.5-5.75,42.25,4.75c11.987,8.533,18.5,16.75,20.75,25.5l-3.75-3.25c0,0,8,9.25,5.5,24.25&#10;&#9;&#9;&#9;disposable-5.75,21.5-5.75,21.5l-2.5,7.25c0,0-1.75-10-2-11s-7.25-23.75-11.25-29.5l1,6.25c0,0-2.25-9.75-7.75-15.25v3.5&#10;&#9;&#9;&#9;c0,0-4.75-9-14.5-13.25c0,0-14.5,2-28.25,8s-33.5,12.5-39.5,25.25c0,0,2.25-10.75,5.5-14.25&#10;&#9;&#9;&#9;C306.273,105.087,288.273,121.837,287.023,145.587z"
                fill="#623911" />
            <path
                d="M368.523,86.087c0,0-57.5,14.75-66.25,31.25c0,0,3-9.25,19-16.5S358.773,86.587,368.523,86.087z" />
            <path
                d="M405.773,92.337c0,0,7,5.5,5.75,20s-7,28.75-7,28.75s6.25-21.25,6.25-30.25S405.773,92.337,405.773,92.337z" />
            <path
                d="M347.773,65.337c0,0,21.75-5.25,37.5,2.75s24,22,24.25,27.5C406.773,90.087,394.773,59.337,347.773,65.337z" />
            <path
                d="M368.023,84.837c0,0,12.25,8.75,15,14.5C382.273,94.837,374.773,87.337,368.023,84.837z" />
            <path
                d="M383.023,95.837c0,0,6.75,8,7.75,15.25C389.773,101.837,383.023,95.837,383.023,95.837z" />
            <path
                d="M391.273,106.837c0,0,11,28.25,11.75,38.5C401.773,134.087,397.773,120.587,391.273,106.837z" />
            <path
                d="M287.023,145.587c0,0,2.25-22.5,19.25-40.5C289.523,122.087,287.023,136.087,287.023,145.587z" />
            <path
                d="M284.273,102.837c0,0-5.25,6.25,2,37.75C280.023,120.587,279.523,108.587,284.273,102.837z" />
            <path
                d="M278.273,113.087c0,0,5.5-25.5,18.5-31.5C284.523,86.087,279.023,101.087,278.273,113.087z" />
            <path
                d="M290.773,80.837c0,0,18.25-20.25,55.75-15.5C338.523,60.587,304.773,62.587,290.773,80.837z" />
        </g>
    </g>
</svg>