<?xml version="1.0" encoding="utf-8"?>
<svg viewBox="0 0 177 337" xmlns="http://www.w3.org/2000/svg">
    <g transform="matrix(1, 0, 0, 1, -260.009033, -59.764004)">
        <ellipse cx="317.938" cy="133.708" fill="#FFFFFF" rx="11.08" ry="7.058"
            transform="matrix(1 0.0095 -0.0095 1 1.2825 -3.0096)" />
        <circle cx="317.991" cy="133.912" fill="#623911" r="6.318" />
        <circle cx="322.278" cy="131.303" fill="#FFFFFF" r="1.649" />
        <g>
            <path
                d="M305.62,135.194c-0.027-0.006-0.054-0.013-0.082-0.022c-0.346-0.12-0.531-0.497-0.411-0.844&#10;&#9;&#9;&#9;&#9;&#9;c0.071-0.206,1.797-5.076,6.908-7.461c3.883-1.813,8.611-1.676,14.046,0.408c0.343,0.131,0.514,0.516,0.383,0.859&#10;&#9;&#9;&#9;&#9;&#9;c-0.131,0.343-0.517,0.517-0.859,0.383c-5.076-1.945-9.449-2.099-12.99-0.452c-4.599,2.137-6.215,6.652-6.231,6.698&#10;&#9;&#9;&#9;&#9;&#9;C306.273,135.08,305.942,135.262,305.62,135.194z" />
        </g>
        <g>
            <path
                d="M306.762,132.776c-0.038-0.005-0.077-0.015-0.115-0.029c-2.403-0.871-4.889-3.173-4.994-3.271&#10;&#9;&#9;&#9;&#9;&#9;c-0.184-0.172-0.177-0.432,0.015-0.582c0.192-0.15,0.498-0.133,0.683,0.04c0.024,0.023,2.442,2.26,4.638,3.056&#10;&#9;&#9;&#9;&#9;&#9;c0.25,0.09,0.375,0.333,0.28,0.542C307.19,132.71,306.977,132.806,306.762,132.776z" />
        </g>
        <g>
            <path
                d="M307.67,131.481c-0.034-0.005-0.068-0.012-0.101-0.023c-2.808-0.935-4.711-3.399-4.791-3.503&#10;&#9;&#9;&#9;&#9;&#9;c-0.149-0.195-0.09-0.448,0.132-0.566c0.222-0.116,0.522-0.055,0.67,0.138c0.018,0.023,1.807,2.333,4.304,3.164&#10;&#9;&#9;&#9;&#9;&#9;c0.252,0.084,0.386,0.324,0.299,0.536C308.108,131.41,307.891,131.512,307.67,131.481z" />
        </g>
        <g>
            <path
                d="M309.1,130.51c-0.052-0.007-0.104-0.022-0.154-0.045c-2.777-1.26-4.058-3.868-4.111-3.979&#10;&#9;&#9;&#9;&#9;&#9;c-0.103-0.214,0.013-0.45,0.258-0.529c0.247-0.079,0.529,0.031,0.633,0.245c0.011,0.024,1.2,2.43,3.642,3.538&#10;&#9;&#9;&#9;&#9;&#9;c0.24,0.109,0.34,0.359,0.223,0.559C309.499,130.458,309.299,130.537,309.1,130.51z" />
        </g>
    </g>
    <circle cx="57.982" cy="74.148" r="3.751" />
    <g transform="matrix(1, 0, 0, 1, -260.009033, -59.764004)">
        <ellipse cx="370.988" cy="134.604" fill="#FFFFFF" rx="11.08" ry="7.058"
            transform="matrix(-0.9981 0.0621 -0.0621 -0.9981 749.6216 245.9013)" />
        <circle cx="370.945" cy="134.811" fill="#623911" r="6.318" />
        <circle cx="366.527" cy="132.431" fill="#FFFFFF" r="1.649" />
        <g>
            <path
                d="M383.367,135.44c0.027-0.007,0.054-0.016,0.08-0.027c0.34-0.138,0.504-0.524,0.366-0.865&#10;&#9;&#9;&#9;&#9;&#9;c-0.082-0.202-2.062-4.974-7.292-7.087c-3.973-1.606-8.687-1.22-14.005,1.147c-0.335,0.149-0.486,0.542-0.337,0.878&#10;&#9;&#9;&#9;&#9;&#9;c0.149,0.335,0.543,0.489,0.878,0.337c4.966-2.209,9.325-2.593,12.948-1.136c4.705,1.892,6.557,6.316,6.575,6.361&#10;&#9;&#9;&#9;&#9;&#9;C382.709,135.361,383.049,135.524,383.367,135.44z" />
        </g>
        <g>
            <path
                d="M382.099,133.085c0.038-0.007,0.076-0.019,0.113-0.035c2.354-0.997,4.715-3.426,4.815-3.53&#10;&#9;&#9;&#9;&#9;&#9;c0.175-0.181,0.154-0.441-0.046-0.58c-0.2-0.139-0.504-0.106-0.68,0.076c-0.023,0.024-2.32,2.385-4.471,3.296&#10;&#9;&#9;&#9;&#9;&#9;c-0.244,0.103-0.357,0.353-0.251,0.556C381.669,133.042,381.886,133.127,382.099,133.085z" />
        </g>
        <g>
            <path
                d="M381.124,131.84c0.033-0.006,0.067-0.016,0.1-0.029c2.755-1.082,4.526-3.642,4.6-3.751&#10;&#9;&#9;&#9;&#9;&#9;c0.138-0.202,0.066-0.452-0.161-0.559c-0.228-0.105-0.524-0.028-0.662,0.173c-0.017,0.024-1.682,2.425-4.132,3.386&#10;&#9;&#9;&#9;&#9;&#9;c-0.247,0.097-0.368,0.344-0.27,0.551C380.684,131.792,380.905,131.882,381.124,131.84z" />
        </g>
        <g>
            <path
                d="M379.645,130.945c0.052-0.01,0.103-0.027,0.152-0.053c2.707-1.404,3.849-4.077,3.896-4.19&#10;&#9;&#9;&#9;&#9;&#9;c0.091-0.219-0.037-0.449-0.286-0.514c-0.251-0.066-0.527,0.059-0.619,0.278c-0.01,0.025-1.07,2.49-3.451,3.725&#10;&#9;&#9;&#9;&#9;&#9;c-0.234,0.122-0.321,0.377-0.193,0.57C379.244,130.915,379.448,130.983,379.645,130.945z" />
        </g>
    </g>
    <circle cx="110.936" cy="75.047" r="3.751" />
    <path
        d="M 46.981 72.227 C 46.981 72.227 50.014 78.573 59.264 78.323 C 68.514 78.073 68.514 75.823 68.514 75.823 C 68.514 75.823 65.014 83.073 55.264 81.073 C 45.514 79.073 46.981 72.227 46.981 72.227 Z"
        fill="#CBCCCE" opacity="0.4" />
    <path
        d="M 122.181 72.977 C 122.181 72.977 118.973 79.323 109.188 79.073 C 99.403 78.823 99.403 76.573 99.403 76.573 C 99.403 76.573 103.105 83.823 113.419 81.823 C 123.733 79.823 122.181 72.977 122.181 72.977 Z"
        fill="#CBCCCE" opacity="0.4" />
</svg>