<?xml version="1.0" encoding="utf-8"?>
<svg viewBox="0 0 177 337" xmlns="http://www.w3.org/2000/svg">
    <g transform="matrix(1, 0, 0, 1, -8.484747, 50.112007)">
        <path
            d="M 45.226 277.379 C 45.226 277.379 43.926 279.712 44.264 281.712 C 44.264 281.712 43.84 284.545 50.44 285.712 C 57.04 286.879 67.907 283.379 71.654 282.379 C 75.401 281.379 85.664 280.546 87.897 279.379 C 90.13 278.212 93.014 276.865 92.426 273.879 C 92.131 272.379 90.421 271.879 90.421 271.879 C 90.421 271.879 90.016 276.879 80.24 277.546 C 76.588 277.795 49.445 281.879 45.226 277.379 Z"
            fill="#FFFFFF" />
        <path
            d="M 63.312 263.829 C 63.312 263.829 59.441 264.686 54.687 264.454 C 50.247 264.237 43.012 269.046 44.369 279.046 C 44.369 279.046 50.269 283.713 61.707 281.046 C 76.515 277.594 81.421 277.713 85.531 277.046 C 89.641 276.379 91.046 271.379 91.046 271.379 L 88.518 265.212 C 88.517 265.212 72.187 268.329 63.312 263.829 Z"
            fill="#ED1C24" />
        <path
            d="M 63.098 264.212 C 63.098 264.212 52.527 263.379 49.255 266.045 C 45.983 268.712 43.012 274.878 45.049 279.212 C 49.444 281.879 54.53 282.879 59.887 281.212 C 65.244 279.545 71.34 278.712 78.102 277.879 C 84.864 277.046 88.654 276.546 90.036 273.212 C 91.418 269.878 90.503 270.879 89.984 268.712 C 89.465 266.545 88.518 265.212 88.518 265.212"
            fill="none" stroke="#000000" stroke-miterlimit="10" stroke-width="0.75" />
        <path
            d="M 91.045 271.379 C 91.045 271.379 94.259 273.879 91.392 277.379 C 88.525 280.879 79.039 281.046 71.654 282.379 C 64.268 283.712 62.063 285.212 54.425 285.546 C 46.787 285.879 44.42 283.546 44.263 281.713 C 44.106 279.88 44.587 277.713 44.587 277.713"
            fill="none" stroke="#000000" stroke-miterlimit="10" stroke-width="0.75" />
        <path
            d="M 141.49 275.533 C 141.49 275.533 143.131 277.86 143.152 279.861 C 143.152 279.861 144.043 282.692 137.949 283.885 C 131.855 285.079 120.89 281.625 117.145 280.641 C 113.399 279.657 103.469 278.867 101.139 277.71 C 98.809 276.553 95.828 275.218 95.876 272.231 C 95.9 270.73 97.444 270.223 97.444 270.223 C 97.444 270.223 98.689 275.219 108.127 275.845 C 111.651 276.079 138.239 280.049 141.49 275.533 Z"
            fill="#FFFFFF" />
        <path
            d="M 122.184 262.445 C 122.184 262.445 126.188 261.745 130.797 262.741 C 135.338 263.722 142.169 267.193 142.593 277.195 C 142.593 277.195 137.768 281.885 126.401 279.266 C 111.686 275.876 107.027 276.016 102.993 275.367 C 98.959 274.718 96.761 269.725 96.761 269.725 L 98.113 263.55 C 98.114 263.55 114.051 267.483 122.184 262.445 Z"
            fill="#ED1C24" />
        <path
            d="M 122.184 262.445 C 122.184 262.445 132.123 261.568 135.701 264.22 C 139.279 266.872 143.172 273.024 141.972 277.364 C 138.238 280.048 133.56 281.069 128.165 279.425 C 122.77 277.781 116.814 276.974 110.222 276.169 C 103.63 275.364 99.929 274.88 98.04 271.554 C 96.151 268.228 97.194 269.223 97.317 267.055 C 97.44 264.887 98.115 263.55 98.115 263.55"
            fill="none" stroke="#000000" stroke-miterlimit="10" stroke-width="0.75" />
        <path
            d="M 96.762 269.725 C 96.762 269.725 94.126 272.237 97.461 275.724 C 100.796 279.211 109.871 279.338 117.144 280.64 C 124.417 281.942 126.777 283.432 134.119 283.734 C 141.461 284.035 143.317 281.693 143.152 279.86 C 142.987 278.027 142.156 275.863 142.156 275.863"
            fill="none" stroke="#000000" stroke-miterlimit="10" stroke-width="0.75" />
        <path
            d="M 44.387 276.337 C 44.387 276.337 47.583 280.087 52.583 280.087 C 57.583 280.087 60.737 278.962 64.026 277.962 C 67.315 276.962 78.773 276.462 82.469 275.837 C 86.165 275.212 89.676 270.962 89.912 269.337 C 91.383 270.462 90.944 274.087 87.344 275.837 C 83.744 277.587 71.07 278.555 67.187 279.329 C 60.959 280.571 53.243 284.879 44.369 279.046 C 44.212 277.212 44.387 276.337 44.387 276.337 Z"
            fill="#C0C2C4" />
        <path
            d="M 141.83 274.212 C 141.83 274.212 139.916 278.462 135.07 278.462 C 130.225 278.462 126.979 277.337 123.623 276.337 C 120.267 275.337 109.08 274.837 105.392 274.212 C 101.704 273.587 98.005 269.087 97.502 267.462 C 96.266 268.587 96.884 272.462 100.668 274.212 C 104.452 275.962 116.573 277.217 120.613 277.962 C 125.313 278.829 135.239 283.254 142.855 277.42 C 142.697 275.587 141.83 274.212 141.83 274.212 Z"
            fill="#C0C2C4" />
        <g transform="matrix(1, 0, 0, 1, -712.313599, -499.796112)">
            <g>
                <path d="M794.625,777.25c0,0-0.018-0.179-0.03-0.496" fill="none" stroke="#000000"
                    stroke-linejoin="round" stroke-width="0.25" />
                <path d="&#10;&#9;&#9;&#9;M794.592,775.755c0.067-2.474,0.736-7.404,4.779-10.005"
                    fill="none" stroke="#000000" stroke-dasharray="1.0032,1.0032"
                    stroke-linejoin="round" stroke-width="0.25" />
                <path d="M799.806,765.487&#10;&#9;&#9;&#9;c0.144-0.082,0.292-0.161,0.444-0.237"
                    fill="none" stroke="#000000" stroke-linejoin="round" stroke-width="0.25" />
            </g>
        </g>
        <path d="M 102.187 264.954 C 102.187 264.954 107.437 267.579 106.062 275.704" fill="none"
            stroke="#000000" stroke-dasharray="1" stroke-linejoin="round" stroke-miterlimit="10"
            stroke-width="0.25" />
        <path
            d="M 120.437 277.579 C 120.437 277.579 120.312 272.454 125.312 273.954 C 130.312 275.454 137.437 278.079 141.562 273.579"
            fill="none" stroke="#000000" stroke-dasharray="1" stroke-linejoin="round"
            stroke-miterlimit="10" stroke-width="0.25" />
        <path
            d="M 44.187 272.954 C 44.187 272.954 46.937 277.204 53.312 277.079 C 59.687 276.954 65.187 274.704 65.812 279.204"
            fill="none" stroke="#000000" stroke-dasharray="1" stroke-linejoin="round"
            stroke-miterlimit="10" stroke-width="0.25" />
        <path
            d="M 48.812 267.079 C 48.812 267.079 50.812 269.704 53.062 269.454 C 55.312 269.204 60.562 267.954 64.812 267.954 C 69.062 267.954 72.562 266.704 72.562 266.704"
            fill="none" stroke="#000000" stroke-dasharray="1" stroke-linejoin="round"
            stroke-miterlimit="10" stroke-width="0.25" />
        <path
            d="M 110.937 265.454 C 110.937 265.454 119.187 266.329 121.812 266.579 C 124.437 266.829 127.687 267.954 128.937 267.579 C 130.187 267.204 133.737 263.259 133.737 263.259"
            fill="none" stroke="#000000" stroke-dasharray="1" stroke-linejoin="round"
            stroke-miterlimit="10" stroke-width="0.25" />
        <path
            d="M 116.562 264.329 C 116.562 264.329 124.937 266.079 128.312 265.329 C 128.934 265.191 130.937 263.579 130.937 263.579 L 121.187 262.829 C 121.187 262.829 118.187 264.204 116.562 264.329 Z" />
        <circle cx="116.312" cy="265.142" r="0.375" />
        <circle cx="118.75" cy="265.392" r="0.375" />
        <circle cx="121.562" cy="265.767" r="0.375" />
        <circle cx="123.937" cy="266.017" r="0.375" />
        <circle cx="126.5" cy="266.392" r="0.375" />
        <circle cx="130.187" cy="262.954" r="0.375" />
        <circle cx="106.265" cy="297.789" r="0.375"
            transform="matrix(1.00002, 0, 0, 1, 21.607372, -35.022339)" />
        <circle cx="125.062" cy="262.642" r="0.375" />
        <path
            d="M 55.187 264.579 L 56.562 266.267 C 56.562 266.267 62.75 265.329 67 265.954 C 67 265.954 64.151 265.321 63.625 264.766 C 63.625 264.767 60.812 264.142 55.187 264.579 Z" />
        <circle cx="45.64" cy="301.664" r="0.313"
            transform="matrix(1.000012, 0, 0, 1, 21.608978, -35.022339)" />
        <circle cx="43.577" cy="301.601" r="0.313"
            transform="matrix(0.999988, 0, 0, 1, 21.610069, -35.022339)" />
        <circle cx="41.39" cy="301.601" r="0.313"
            transform="matrix(1.000012, 0, 0, 1, 21.609032, -35.022339)" />
        <circle cx="39.14" cy="301.664" r="0.313"
            transform="matrix(1.000012, 0, 0, 1, 21.609058, -35.022339)" />
        <circle cx="37.265" cy="302.039" r="0.313"
            transform="matrix(1.000012, 0, 0, 1, 21.609081, -35.022339)" />
    </g>
</svg>