<?xml version="1.0" encoding="utf-8"?>
<svg viewBox="0 0 177 337" xmlns="http://www.w3.org/2000/svg">
    <g transform="matrix(1, 0, 0, 1, -260.004883, -447.431427)">
        <ellipse cx="317.938" cy="521.379" fill="#FFFFFF" rx="11.08" ry="7.058"
            transform="matrix(1 0.0095 -0.0095 1 4.9595 -2.9921)" />
        <circle cx="317.991" cy="521.584" fill="#008BB9" r="6.318" />
        <circle cx="322.278" cy="518.974" fill="#FFFFFF" r="1.649" />
        <g>
            <path
                d="M305.62,522.865c-0.027-0.006-0.054-0.013-0.082-0.022c-0.346-0.12-0.531-0.497-0.411-0.844&#10;&#9;&#9;&#9;&#9;c0.071-0.206,1.797-5.076,6.908-7.461c3.883-1.813,8.611-1.676,14.046,0.408c0.343,0.131,0.514,0.516,0.383,0.859&#10;&#9;&#9;&#9;&#9;c-0.131,0.343-0.517,0.517-0.859,0.383c-5.076-1.945-9.449-2.099-12.99-0.452c-4.599,2.137-6.215,6.652-6.231,6.698&#10;&#9;&#9;&#9;&#9;C306.273,522.752,305.942,522.933,305.62,522.865z" />
        </g>
        <g>
            <path
                d="M306.762,520.447c-0.038-0.005-0.077-0.015-0.115-0.029c-2.403-0.872-4.889-3.173-4.994-3.271&#10;&#9;&#9;&#9;&#9;c-0.184-0.172-0.177-0.432,0.015-0.582c0.192-0.15,0.498-0.133,0.683,0.04c0.024,0.023,2.442,2.26,4.638,3.056&#10;&#9;&#9;&#9;&#9;c0.25,0.09,0.375,0.333,0.28,0.542C307.19,520.382,306.977,520.477,306.762,520.447z" />
        </g>
        <g>
            <path
                d="M307.67,519.152c-0.034-0.005-0.068-0.012-0.101-0.023c-2.808-0.935-4.711-3.399-4.791-3.503&#10;&#9;&#9;&#9;&#9;c-0.149-0.195-0.09-0.448,0.132-0.566c0.222-0.116,0.522-0.055,0.67,0.138c0.018,0.023,1.807,2.333,4.304,3.164&#10;&#9;&#9;&#9;&#9;c0.252,0.084,0.386,0.324,0.299,0.536C308.108,519.081,307.891,519.183,307.67,519.152z" />
        </g>
        <g>
            <path
                d="M309.1,518.181c-0.052-0.007-0.104-0.022-0.154-0.045c-2.777-1.26-4.058-3.868-4.111-3.979&#10;&#9;&#9;&#9;&#9;c-0.103-0.214,0.013-0.45,0.258-0.529c0.247-0.079,0.529,0.031,0.633,0.245c0.011,0.024,1.2,2.43,3.642,3.538&#10;&#9;&#9;&#9;&#9;c0.24,0.109,0.34,0.359,0.223,0.559C309.499,518.129,309.299,518.209,309.1,518.181z" />
        </g>
    </g>
    <circle cx="57.986" cy="74.153" r="3.751" />
    <g transform="matrix(1, 0, 0, 1, -260.004883, -447.431427)">
        <ellipse cx="370.988" cy="522.275" fill="#FFFFFF" rx="11.08" ry="7.058"
            transform="matrix(-0.9981 0.0621 -0.0621 -0.9981 773.7046 1020.4951)" />
        <circle cx="370.945" cy="522.483" fill="#008BB9" r="6.318" />
        <circle cx="366.527" cy="520.102" fill="#FFFFFF" r="1.649" />
        <g>
            <path
                d="M383.367,523.111c0.027-0.007,0.054-0.016,0.08-0.027c0.34-0.138,0.504-0.524,0.366-0.865&#10;&#9;&#9;&#9;&#9;c-0.082-0.202-2.062-4.974-7.292-7.087c-3.973-1.606-8.687-1.22-14.005,1.147c-0.335,0.149-0.486,0.542-0.337,0.878&#10;&#9;&#9;&#9;&#9;c0.149,0.335,0.543,0.489,0.878,0.337c4.966-2.209,9.325-2.593,12.948-1.136c4.705,1.892,6.557,6.316,6.575,6.361&#10;&#9;&#9;&#9;&#9;C382.709,523.032,383.049,523.196,383.367,523.111z" />
        </g>
        <g>
            <path
                d="M382.099,520.757c0.038-0.007,0.076-0.019,0.113-0.035c2.354-0.997,4.715-3.426,4.815-3.53&#10;&#9;&#9;&#9;&#9;c0.175-0.181,0.154-0.441-0.046-0.58c-0.2-0.139-0.504-0.106-0.68,0.076c-0.023,0.024-2.32,2.385-4.471,3.296&#10;&#9;&#9;&#9;&#9;c-0.244,0.103-0.357,0.353-0.251,0.556C381.669,520.714,381.886,520.798,382.099,520.757z" />
        </g>
        <g>
            <path
                d="M381.124,519.511c0.033-0.006,0.067-0.016,0.1-0.029c2.755-1.082,4.526-3.642,4.6-3.751&#10;&#9;&#9;&#9;&#9;c0.138-0.202,0.066-0.452-0.161-0.559c-0.228-0.105-0.524-0.028-0.662,0.173c-0.017,0.024-1.682,2.425-4.132,3.386&#10;&#9;&#9;&#9;&#9;c-0.247,0.097-0.368,0.344-0.27,0.551C380.684,519.463,380.905,519.554,381.124,519.511z" />
        </g>
        <g>
            <path
                d="M379.645,518.616c0.052-0.01,0.103-0.027,0.152-0.053c2.707-1.404,3.849-4.077,3.896-4.19&#10;&#9;&#9;&#9;&#9;c0.091-0.219-0.037-0.449-0.286-0.514c-0.251-0.066-0.527,0.059-0.619,0.278c-0.01,0.025-1.07,2.49-3.451,3.725&#10;&#9;&#9;&#9;&#9;c-0.234,0.122-0.321,0.377-0.193,0.57C379.244,518.586,379.448,518.655,379.645,518.616z" />
        </g>
    </g>
    <circle cx="110.94" cy="75.052" r="3.751" />
    <path
        d="M 46.985 72.231 C 46.985 72.231 50.018 78.577 59.268 78.327 C 68.518 78.077 68.518 75.827 68.518 75.827 C 68.518 75.827 65.018 83.077 55.268 81.077 C 45.518 79.077 46.985 72.231 46.985 72.231 Z"
        fill="#CBCCCE" opacity="0.4" />
    <path
        d="M 122.185 72.981 C 122.185 72.981 118.977 79.327 109.192 79.077 C 99.407 78.827 99.407 76.577 99.407 76.577 C 99.407 76.577 103.109 83.827 113.423 81.827 C 123.737 79.827 122.185 72.981 122.185 72.981 Z"
        fill="#CBCCCE" opacity="0.4" />
</svg>