<?xml version="1.0" encoding="utf-8"?>
<svg viewBox="0 0 177 337" xmlns="http://www.w3.org/2000/svg">
    <g transform="matrix(1, 0, 0, 1, -208.012558, 8.041534)">
        <g transform="matrix(1, 0, 0, 1, -52.240444, -455.04953)">
            <path
                d="M287.023,533.258c0,0-7-28.5-4.75-39.25c-4,6.75-4,6.75-4,6.75s2.5-23.75,18.5-31.5c0,0-5-0.5-7,0.75&#10;&#9;&#9;c0,0,13-22.75,56.75-17c0,0,27.5-5.75,42.25,4.75c11.987,8.533,18.5,16.75,20.75,25.5l-3.75-3.25c0,0,8,9.25,5.5,24.25&#10;&#9;&#9;disposable-5.75,21.5-5.75,21.5l-2.5,7.25c0,0-1.75-10-2-11s-7.25-23.75-11.25-29.5l1,6.25c0,0-2.25-9.75-7.75-15.25v3.5&#10;&#9;&#9;c0,0-4.75-9-14.5-13.25c0,0-14.5,2-28.25,8s-33.5,12.5-39.5,25.25c0,0,2.25-10.75,5.5-14.25&#10;&#9;&#9;C306.273,492.758,288.273,509.508,287.023,533.258z"
                fill="#FEC148" />
            <path
                d="M368.523,473.758c0,0-57.5,14.75-66.25,31.25c0,0,3-9.25,19-16.5S358.773,474.258,368.523,473.758z" />
            <path
                d="M405.773,480.008c0,0,7,5.5,5.75,20s-7,28.75-7,28.75s6.25-21.25,6.25-30.25S405.773,480.008,405.773,480.008z" />
            <path
                d="M347.773,453.008c0,0,21.75-5.25,37.5,2.75s24,22,24.25,27.5C406.773,477.758,394.773,447.008,347.773,453.008z" />
            <path
                d="M368.023,472.508c0,0,12.25,8.75,15,14.5C382.273,482.508,374.773,475.008,368.023,472.508z" />
            <path
                d="M383.023,483.508c0,0,6.75,8,7.75,15.25C389.773,489.508,383.023,483.508,383.023,483.508z" />
            <path
                d="M391.273,494.508c0,0,11,28.25,11.75,38.5C401.773,521.758,397.773,508.258,391.273,494.508z" />
            <path
                d="M287.023,533.258c0,0,2.25-22.5,19.25-40.5C289.523,509.758,287.023,523.758,287.023,533.258z" />
            <path
                d="M284.273,490.508c0,0-5.25,6.25,2,37.75C280.023,508.258,279.523,496.258,284.273,490.508z" />
            <path
                d="M278.273,500.758c0,0,5.5-25.5,18.5-31.5C284.523,473.758,279.023,488.758,278.273,500.758z" />
            <path
                d="M290.773,468.508c0,0,18.25-20.25,55.75-15.5C338.523,448.258,304.773,450.258,290.773,468.508z" />
        </g>
        <g transform="matrix(1, 0, 0, 1, -43.219074, -107.302536)">
            <path
                d="M 304.729 139.503 C 304.729 139.503 334.479 123.503 356.979 123.253 C 356.979 123.253 319.229 123.503 304.729 139.503 Z"
                fill="#FFE993" />
            <path
                d="M 298.479 139.253 C 298.479 139.253 312.979 123.253 339.229 122.503 C 339.229 122.503 306.729 122.503 298.479 139.253 Z"
                fill="#FFE993" />
            <path
                d="M 291.229 145.753 C 291.229 145.753 294.479 129.003 319.229 122.753 C 319.229 122.753 297.979 129.253 291.229 145.753 Z"
                fill="#FFE993" />
            <path
                d="M 367.979 122.753 C 367.979 122.753 387.729 128.503 391.479 154.003 C 391.479 154.003 385.729 131.503 367.979 122.753 Z"
                fill="#FFE993" />
            <path
                d="M 366.979 118.503 C 366.979 118.503 390.979 121.753 393.979 149.003 C 393.979 149.003 391.479 127.253 366.979 118.503 Z"
                fill="#FFE993" />
        </g>
    </g>
</svg>