<?xml version="1.0" encoding="utf-8"?>
<svg viewBox="0 0 177 337" xmlns="http://www.w3.org/2000/svg">
    <g>
        <g transform="matrix(1, 0, 0, 1, -260.460205, -59.388996)">
            <path style="fill: rgb(243, 126, 93);"
                d="M326.119,167.781c0,0,17.971,4.562,35.942,0.415c0,0-14.965-1.298-15.32-1.337&#10;&#9;&#9;&#9;&#9;c-0.355-0.039-1.776,1.382-3.04,1.224c-1.263-0.158-2.29-0.987-2.29-0.987L326.119,167.781z" />
            <path style="fill: rgb(243, 126, 93);"
                d="M343.676,183.402c14.238,0.138,19.906-8.985,19.906-8.985l0.968-1.659&#10;&#9;&#9;&#9;&#9;c0,0-6.221,8.294-20.597,7.741c-4.813-0.185-9.538-1.659-14.653-5.253c-1.18-0.829-2.765-1.521-4.147-4.009&#10;&#9;&#9;&#9;&#9;C325.152,171.237,331.142,183.281,343.676,183.402z" />
        </g>
        <path
            d="M 62.065 107.425 C 62.065 107.425 68.111 110.743 85.012 110.743 C 101.048 110.743 107.959 106.872 107.959 106.872 C 107.959 106.872 102.429 121.525 85.564 121.249 C 67.042 120.945 62.065 107.425 62.065 107.425 Z" />
        <path
            d="M 72.018 111.019 C 72.018 111.019 71.039 113.507 84.598 113.507 C 98.422 113.507 97.178 110.742 97.178 110.742 C 97.178 110.742 97.734 111.571 83.078 111.571 C 73.954 111.572 72.018 111.019 72.018 111.019 Z"
            fill="#FFFFFF" />
        <path
            d="M 76.485 118.287 C 76.485 118.287 81.967 115.016 87.45 115.234 C 87.45 115.234 84.578 116.76 84.317 118.287 C 84.317 118.287 89.016 113.708 97.632 114.798 C 97.632 114.798 101.026 116.542 92.411 119.159 C 83.795 121.776 76.485 118.287 76.485 118.287 Z"
            fill="#D80F54" />
        <path
            d="M 63.171 102.172 C 63.171 102.172 64 107.702 58.194 110.466 C 58.195 110.466 65.106 108.807 63.171 102.172 Z" />
        <path
            d="M 111.772 110.06 C 111.772 110.06 106.519 108.146 106.865 101.724 C 106.865 101.724 105.019 108.588 111.772 110.06 Z" />
        <path
            d="M 75.336 122.078 C 75.336 122.078 85.289 127.884 97.454 120.143 C 97.454 120.143 86.672 128.99 75.336 122.078 Z" />
        <path
            d="M 72.018 108.392 C 72.018 108.392 79.517 107.435 80.952 107.706 C 80.952 107.706 82.988 110.002 86.281 107.469 C 86.281 107.469 89.436 107.562 93.859 108.115 C 93.859 108.115 87.638 107.424 86.256 108.253 C 84.874 109.082 82.524 109.497 80.726 108.529 C 78.93 107.563 72.018 108.392 72.018 108.392 Z" />
    </g>
</svg>