<?xml version="1.0" encoding="utf-8"?>
<svg viewBox="0 0 177 337" xmlns="http://www.w3.org/2000/svg">
    <g transform="matrix(1, 0, 0, 1, 0.420004, -9.029998)">
        <g transform="matrix(1, 0, 0, 1, -101.987999, 4.028994)">
            <path
                d="M 150.697 247.391 C 150.697 247.391 149.692 257.058 149.996 268.391 C 150.3 279.724 151.899 298.391 151.899 298.391 C 152.137 305.058 152.831 317.058 152.831 317.058 C 152.831 317.058 156.107 322.225 170.869 321.391 C 185.631 320.558 182.626 318.558 182.626 318.558 C 182.626 318.558 180.808 307.058 181.099 300.725 C 181.39 294.392 182.881 284.558 183.743 279.058 C 184.605 273.558 184.706 268.891 184.706 268.891 L 187.235 269.224 C 187.235 269.224 187.891 282.724 188.138 293.391 C 188.385 304.058 189.199 313.558 190.417 318.058 C 194.226 319.725 203.274 322.225 215.374 317.558 C 214.47 305.058 216.451 297.058 217.633 291.391 C 218.814 285.724 226.264 257.891 224.426 250.058 C 218.169 252.891 202.354 255.058 187.283 254.225 C 172.211 253.391 150.697 247.391 150.697 247.391 Z"
                fill="#21204A" />
            <path
                d="M 156.907 319.891 C 156.907 319.891 155.994 303.391 155.347 293.891 C 154.7 284.391 152.945 258.058 153.616 254.224 C 160.216 255.391 173.121 256.224 189.33 256.724 C 205.539 257.224 218.259 255.891 221.478 254.557 C 221.23 261.39 218.043 276.724 216.662 285.89 C 215.28 295.057 214.651 316.89 214.651 316.89 C 214.651 316.89 216.914 292.723 219.353 284.223 C 221.792 275.723 225.002 258.723 224.931 252.056 C 224.803 250.556 224.426 250.056 224.426 250.056 C 224.426 250.056 218.326 254.723 188.326 254.723 C 158.326 254.723 150.436 248.223 150.436 248.223 C 150.436 248.223 149.368 266.89 150.501 282.056 C 151.634 297.222 152.556 317.723 152.556 317.723 C 152.556 317.723 154.155 318.891 156.907 319.891 Z"
                fill="#100935" />
            <path
                d="M 176.496 262.557 C 176.496 262.557 183.558 265.224 184.777 269.724 C 184.805 270.057 179.444 263.891 176.496 262.557 Z" />
            <path
                d="M 184.411 255.724 C 184.411 255.724 185.558 265.224 185.344 268.557 C 184.686 266.724 184.411 255.724 184.411 255.724 Z" />
            <path
                d="M 187.744 255.724 C 187.744 255.724 188.891 265.224 188.677 268.557 C 188.02 266.724 187.744 255.724 187.744 255.724 Z" />
            <path
                d="M 187.234 269.224 C 187.234 269.224 193.201 266.891 195.701 261.057 C 194.258 267.557 190.263 269.557 187.234 269.224 Z" />
            <path
                d="M 181.421 320.057 C 181.421 320.057 178.403 306.224 180.227 296.39 C 177.403 306.224 178.917 318.057 181.421 320.057 Z" />
            <path
                d="M 153.941 316.391 C 153.941 316.391 157.493 320.891 168.422 320.058 C 179.351 319.225 181.403 317.891 181.403 317.891 C 181.403 317.891 172.224 319.411 167.546 319.558 C 156.907 319.891 153.941 316.391 153.941 316.391 Z" />
            <path
                d="M 190.607 316.391 C 190.607 316.391 193.14 318.724 202.04 317.558 C 210.94 316.392 214.478 314.891 214.478 314.891 C 214.478 314.891 209.235 317.891 202.473 318.724 C 195.712 319.557 190.607 316.391 190.607 316.391 Z" />
        </g>
    </g>
</svg>