<?xml version="1.0" encoding="utf-8"?>
<svg viewBox="0 0 177 337" xmlns="http://www.w3.org/2000/svg">
    <g transform="matrix(1, 0, 0, 1, -720.354187, -447.41333)">
        <path d="M797.185,538.264c0,0,4.225,0.632,3.618,1.724S797.185,538.264,797.185,538.264z" />
        <path
            d="M810.951,538.316c0,0-2.727,2.969-3.345,1.854C806.988,539.055,810.951,538.316,810.951,538.316z" />
        <ellipse cx="801.944" cy="534.412" fill="#FFFFFF" rx="1.371" ry="0.703"
            transform="matrix(0.9864 -0.1645 0.1645 0.9864 -76.9766 139.1791)" />
        <path d="M796,541.25c0,0-3.25-3,0.25-4.5C796.25,536.75,790.5,537.75,796,541.25z" />
        <path d="M811.75,537c0,0,3.25,2-0.75,4.5C811,541.5,816.5,538.5,811.75,537z" />
    </g>
</svg>