<?xml version="1.0" encoding="utf-8"?>
<svg viewBox="0 0 177 337" xmlns="http://www.w3.org/2000/svg">
    <g transform="matrix(1, 0, 0, 1, -712.752991, -447.010498)">
        <g transform="matrix(1, 0, 0, 1, -7.491021, 0.0025)">
            <path
                d="M 747.023 533.258 C 747.023 533.258 740.023 504.758 742.273 494.008 C 738.273 500.758 738.273 500.758 738.273 500.758 C 738.273 500.758 740.773 477.008 756.773 469.258 C 756.773 469.258 751.773 468.758 749.773 470.008 C 749.773 470.008 762.773 447.258 806.523 453.008 C 806.523 453.008 834.023 447.258 848.773 457.758 C 860.76 466.291 867.273 474.508 869.523 483.258 L 865.773 480.008 C 865.773 480.008 873.773 489.258 871.273 504.258 C 868.773 519.258 865.523 525.758 865.523 525.758 L 863.023 533.008 C 863.023 533.008 861.273 523.008 861.023 522.008 C 860.773 521.008 853.773 498.258 849.773 492.508 L 850.773 498.758 C 850.773 498.758 848.523 489.008 843.023 483.508 L 843.023 487.008 C 843.023 487.008 838.273 478.008 828.523 473.758 C 828.523 473.758 814.023 475.758 800.273 481.758 C 786.523 487.758 766.773 494.258 760.773 507.008 C 760.773 507.008 763.023 496.258 766.273 492.758 C 766.273 492.758 748.273 509.508 747.023 533.258 Z"
                fill="#F36E21" />
            <path
                d="M 828.523 473.758 C 828.523 473.758 771.023 488.508 762.273 505.008 C 762.273 505.008 765.273 495.758 781.273 488.508 C 797.273 481.258 818.773 474.258 828.523 473.758 Z" />
            <path
                d="M 865.773 480.008 C 865.773 480.008 872.773 485.508 871.523 500.008 C 870.273 514.508 864.523 528.758 864.523 528.758 C 864.523 528.758 870.773 507.508 870.773 498.508 C 870.773 489.508 865.773 480.008 865.773 480.008 Z" />
            <path
                d="M 807.773 453.008 C 807.773 453.008 829.523 447.758 845.273 455.758 C 861.023 463.758 869.273 477.758 869.523 483.258 C 866.773 477.758 854.773 447.008 807.773 453.008 Z" />
            <path
                d="M 828.023 472.508 C 828.023 472.508 840.273 481.258 843.023 487.008 C 842.273 482.508 834.773 475.008 828.023 472.508 Z" />
            <path
                d="M 843.023 483.508 C 843.023 483.508 849.773 491.508 850.773 498.758 C 849.773 489.508 843.023 483.508 843.023 483.508 Z" />
            <path
                d="M 851.273 494.508 C 851.273 494.508 862.273 522.758 863.023 533.008 C 861.773 521.758 857.773 508.258 851.273 494.508 Z" />
            <path
                d="M 747.023 533.258 C 747.023 533.258 749.273 510.758 766.273 492.758 C 749.523 509.758 747.023 523.758 747.023 533.258 Z" />
            <path
                d="M 744.273 490.508 C 744.273 490.508 739.023 496.758 746.273 528.258 C 740.023 508.258 739.523 496.258 744.273 490.508 Z" />
            <path
                d="M 738.273 500.758 C 738.273 500.758 743.773 475.258 756.773 469.258 C 744.523 473.758 739.023 488.758 738.273 500.758 Z" />
            <path
                d="M 750.773 468.508 C 750.773 468.508 769.023 448.258 806.523 453.008 C 798.523 448.258 764.773 450.258 750.773 468.508 Z" />
        </g>
    </g>
    <path
        d="M 60.997 40.24 C 60.997 40.24 90.747 24.24 113.247 23.99 C 113.247 23.99 75.497 24.24 60.997 40.24 Z"
        fill="#CB5F1B" />
    <path
        d="M 54.747 39.99 C 54.747 39.99 69.247 23.99 95.497 23.24 C 95.497 23.24 62.997 23.24 54.747 39.99 Z"
        fill="#CB5F1B" />
    <path
        d="M 47.497 46.49 C 47.497 46.49 50.747 29.74 75.497 23.49 C 75.497 23.49 54.247 29.99 47.497 46.49 Z"
        fill="#CB5F1B" />
    <path
        d="M 124.247 23.49 C 124.247 23.49 143.997 29.24 147.747 54.74 C 147.747 54.74 141.997 32.24 124.247 23.49 Z"
        fill="#CB5F1B" />
    <path
        d="M 123.247 19.24 C 123.247 19.24 147.247 22.49 150.247 49.74 C 150.247 49.74 147.747 27.99 123.247 19.24 Z"
        fill="#CB5F1B" />
</svg>