<?xml version="1.0" encoding="utf-8"?>
<svg viewBox="0 0 177 337" xmlns="http://www.w3.org/2000/svg">
    <path
        d="M 74.992 160.334 C 74.992 160.334 82.43 164.647 93.992 162.147 C 93.992 162.146 84.117 166.396 74.992 160.334 Z"
        fill="#003860" />
    <path
        d="M 57.263 185.188 C 57.263 185.188 58.596 195.188 54.263 208.521 C 54.263 208.521 58.097 192.354 57.263 185.188 Z"
        fill="#003860" />
    <path
        d="M 71.95 148.55 C 71.95 148.55 77.45 155.05 86.45 155.05 C 95.45 155.05 101.7 148.05 101.7 148.05 C 101.7 148.05 101.7 148.8 103.95 150.8 C 106.2 152.8 107.95 155.05 107.95 155.05 C 107.95 155.05 100.2 165.8 93.95 168.55 L 87.2 156.8 L 79.7 168.8 C 79.7 168.8 70.95 163.55 66.7 156.3 L 71.95 148.55 Z"
        fill="#ED1C24" />
    <path
        d="M 71.2 154.05 C 71.2 154.05 59.45 152.3 54.45 157.55 C 49.45 162.8 38.95 175.05 36.7 179.8 C 34.45 184.55 29.2 188.8 27.95 193.3 C 26.7 197.8 21.7 209.8 21.45 214.3 C 23.7 216.3 33.2 223.05 33.2 223.05 C 33.2 223.05 41.45 215.8 44.95 208.55 C 48.45 201.3 49.95 198.3 51.95 195.3 C 53.95 192.3 55.7 188.3 55.7 188.3 C 55.7 188.3 50.45 209.55 50.45 217.3 C 50.45 225.05 48.162 238.483 50.056 242.392 C 55.95 244.55 63.2 249.3 85.45 249.8 C 107.7 250.3 123.785 245.058 123.785 245.058 C 123.785 245.058 124.95 214.3 122.7 203.3 C 120.45 192.3 120.95 191.05 120.95 191.05 C 120.95 191.05 124.2 195.8 126.45 198.55 C 128.7 201.3 128.95 212.05 142.7 224.55 C 148.7 221.3 155.7 217.3 155.7 217.3 C 155.7 217.3 152.2 200.55 148.2 194.3 C 144.2 188.05 140.45 185.55 139.2 181.05 C 137.95 176.55 124.7 158.3 116.95 157.05 C 109.2 155.8 105.95 154.8 105.95 154.8 C 105.95 154.8 83.2 158.55 71.2 154.05 Z"
        fill="#ED1C24" />
    <polygon fill="#ED1C24" points="21.45 214.3 18.95 221.05 28.95 228.3 33.2 223.05" />
    <polygon fill="#ED1C24" points="142.7 224.55 147.2 229.55 157.45 223.3 155.7 217.3" />
    <path
        d="M 68.575 154.05 C 68.575 154.05 74.2 163.55 80.825 167.425 L 86.825 156.05 L 80.575 166.05 C 80.575 166.05 74.325 162.675 68.575 154.05 Z"
        fill="#8C0708" />
    <path
        d="M 87.7 156.175 L 93.45 167.3 C 93.45 167.3 102.825 161.55 107.95 155.05 C 107.95 155.05 98.2 164.05 94.075 166.175 L 87.7 156.175 Z"
        fill="#8C0708" />
    <polygon fill="#8C0708" points="87.2 156.8 87.513 249.863 86.825 249.738 86.575 158.175" />
    <path
        d="M 21.45 214.3 C 21.45 214.3 29.95 221.55 33.2 223.05 C 33.2 223.05 25.2 219.425 21.45 214.3 Z"
        fill="#8C0708" />
    <path
        d="M 142.825 223.925 C 142.825 223.925 150.075 221.175 155.7 216.425 C 155.7 216.425 146.7 221.925 142.825 223.925 Z"
        fill="#8C0708" />
    <circle cx="85.075" cy="164.55" fill="#8C0708" r="0.875" />
    <circle cx="85.075" cy="173.925" fill="#8C0708" r="0.875" />
    <circle cx="85.075" cy="183.3" fill="#8C0708" r="0.875" />
    <circle cx="85.075" cy="192.675" fill="#8C0708" r="0.875" />
    <circle cx="85.075" cy="202.05" fill="#8C0708" r="0.875" />
    <circle cx="85.075" cy="211.425" fill="#8C0708" r="0.875" />
    <circle cx="85.075" cy="220.8" fill="#8C0708" r="0.875" />
    <circle cx="85.075" cy="230.175" fill="#8C0708" r="0.875" />
    <circle cx="85.075" cy="239.55" fill="#8C0708" r="0.875" />
    <circle cx="21.95" cy="218.8" fill="#8C0708" r="1" />
    <circle cx="153.95" cy="221.05" fill="#8C0708" r="1.25" />
    <path
        d="M 57.95 155.55 C 57.95 155.55 58.11 156.047 58.317 156.936 C 58.515 157.826 58.815 159.099 59.032 160.651 C 59.15 161.426 59.259 162.267 59.354 163.161 C 59.469 164.053 59.53 164.999 59.597 165.977 C 59.635 166.956 59.69 167.97 59.686 169.001 C 59.66 170.031 59.684 171.08 59.604 172.125 C 59.539 173.171 59.472 174.217 59.337 175.24 C 59.276 175.752 59.215 176.26 59.155 176.762 C 59.067 177.26 58.981 177.752 58.896 178.237 C 58.808 178.72 58.722 179.195 58.637 179.66 C 58.521 180.119 58.407 180.568 58.297 181.004 C 58.075 181.877 57.88 182.704 57.616 183.446 C 57.38 184.195 57.143 184.874 56.933 185.474 C 56.682 186.06 56.463 186.57 56.283 186.991 C 55.912 187.824 55.7 188.299 55.7 188.299 C 55.7 188.299 55.846 187.799 56.1 186.923 C 56.233 186.489 56.394 185.963 56.578 185.359 C 56.718 184.742 56.877 184.047 57.072 183.298 C 57.283 182.552 57.421 181.722 57.583 180.85 C 57.663 180.414 57.746 179.966 57.83 179.509 C 57.894 179.048 57.959 178.577 58.026 178.098 C 58.094 177.62 58.162 177.133 58.232 176.641 C 58.28 176.146 58.328 175.645 58.377 175.139 C 58.5 174.131 58.552 173.101 58.607 172.071 C 58.697 171.043 58.684 170.01 58.722 168.995 C 58.721 167.979 58.721 166.978 58.72 166.01 C 58.674 165.043 58.688 164.104 58.631 163.217 C 58.596 162.328 58.543 161.489 58.476 160.715 C 58.35 159.167 58.245 157.872 58.127 156.97 C 58.014 156.066 57.95 155.55 57.95 155.55 Z"
        fill="#8C0708" />
    <path
        d="M 116.95 157.05 C 116.95 157.05 117.1 159.198 117.324 162.419 C 117.434 164.027 117.562 165.903 117.699 167.913 C 117.85 169.919 118.011 172.059 118.172 174.199 C 118.267 175.267 118.363 176.334 118.456 177.385 C 118.583 178.431 118.644 179.47 118.782 180.464 C 118.92 181.457 118.994 182.428 119.144 183.334 C 119.281 184.243 119.387 185.109 119.56 185.89 C 119.726 186.673 119.828 187.407 120.007 188.031 C 120.179 188.657 120.276 189.227 120.45 189.659 C 120.768 190.544 120.95 191.05 120.95 191.05 C 120.95 191.05 120.702 190.57 120.269 189.729 C 120.046 189.306 119.892 188.753 119.651 188.136 C 119.399 187.52 119.219 186.799 119.012 186.013 C 118.785 185.23 118.623 184.368 118.426 183.458 C 118.216 182.55 118.07 181.582 117.911 180.581 C 117.595 178.579 117.375 176.43 117.177 174.281 C 117.016 172.13 116.881 169.977 116.823 167.957 C 116.755 165.937 116.764 164.05 116.765 162.435 C 116.761 160.819 116.839 159.472 116.867 158.53 C 116.906 157.588 116.95 157.05 116.95 157.05 Z"
        fill="#8C0708" />
    <polygon fill="#231F20"
        points="85.2 159.8 88.95 159.55 92.45 166.05 90.45 169.8 83.45 169.8 81.7 166.3" />
    <polygon fill="#231F20"
        points="83.575 169.8 80.825 198.8 87.2 207.8 93.575 198.8 90.45 169.675" />
</svg>