<?xml version="1.0" encoding="utf-8"?>
<svg viewBox="0 0 177 337" xmlns="http://www.w3.org/2000/svg">
    <path
        d="M 70.436 148.55 C 70.436 148.55 75.936 155.05 84.936 155.05 C 93.936 155.05 100.186 148.05 100.186 148.05 C 100.186 148.05 100.186 148.8 102.436 150.8 C 104.686 152.8 106.436 155.05 106.436 155.05 C 106.436 155.05 98.686 165.8 92.436 168.55 L 85.686 156.8 L 78.186 168.8 C 78.186 168.8 69.436 163.55 65.186 156.3 L 70.436 148.55 Z"
        fill="#91D9F8" />
    <path
        d="M 71.2 154.05 C 71.2 154.05 59.45 152.3 54.45 157.55 C 49.45 162.8 38.95 175.05 36.7 179.8 C 34.45 184.55 29.2 188.8 27.95 193.3 C 26.7 197.8 21.7 209.8 21.45 214.3 C 23.7 216.3 33.2 223.05 33.2 223.05 C 33.2 223.05 41.45 215.8 44.95 208.55 C 48.45 201.3 49.95 198.3 51.95 195.3 C 53.95 192.3 55.7 188.3 55.7 188.3 C 55.7 188.3 50.45 209.55 50.45 217.3 C 50.45 225.05 48.162 238.483 50.056 242.392 C 55.95 244.55 63.2 249.3 85.45 249.8 C 107.7 250.3 123.785 245.058 123.785 245.058 C 123.785 245.058 124.95 214.3 122.7 203.3 C 120.45 192.3 120.95 191.05 120.95 191.05 C 120.95 191.05 124.2 195.8 126.45 198.55 C 128.7 201.3 128.95 212.05 142.7 224.55 C 148.7 221.3 155.7 217.3 155.7 217.3 C 155.7 217.3 152.2 200.55 148.2 194.3 C 144.2 188.05 140.45 185.55 139.2 181.05 C 137.95 176.55 124.7 158.3 116.95 157.05 C 109.2 155.8 105.95 154.8 105.95 154.8 C 105.95 154.8 83.2 158.55 71.2 154.05 Z"
        fill="#91D9F8" />
    <polygon fill="#91D9F8" points="21.45 214.3 18.95 221.05 28.95 228.3 33.2 223.05" />
    <polygon fill="#91D9F8" points="142.7 224.55 147.2 229.55 157.45 223.3 155.7 217.3" />
    <path
        d="M 68.575 154.05 C 68.575 154.05 74.2 163.55 80.825 167.425 L 86.825 156.05 L 80.575 166.05 C 80.575 166.05 74.325 162.675 68.575 154.05 Z"
        fill="#6192A8" />
    <path
        d="M 87.7 156.175 L 93.45 167.3 C 93.45 167.3 102.825 161.55 107.95 155.05 C 107.95 155.05 98.2 164.05 94.075 166.175 L 87.7 156.175 Z"
        fill="#6192A8" />
    <polygon fill="#6192A8" points="87.2 156.8 87.513 249.863 86.825 249.738 86.575 158.175" />
    <path
        d="M 21.45 214.3 C 21.45 214.3 29.95 221.55 33.2 223.05 C 33.2 223.05 25.2 219.425 21.45 214.3 Z"
        fill="#6192A8" />
    <path
        d="M 142.825 223.925 C 142.825 223.925 150.075 221.175 155.7 216.425 C 155.7 216.425 146.7 221.925 142.825 223.925 Z"
        fill="#6192A8" />
    <circle cx="85.075" cy="164.55" fill="#6192A8" r="0.875" />
    <circle cx="85.075" cy="173.925" fill="#6192A8" r="0.875" />
    <circle cx="85.075" cy="183.3" fill="#6192A8" r="0.875" />
    <circle cx="85.075" cy="192.675" fill="#6192A8" r="0.875" />
    <circle cx="85.075" cy="202.05" fill="#6192A8" r="0.875" />
    <circle cx="85.075" cy="211.425" fill="#6192A8" r="0.875" />
    <circle cx="85.075" cy="220.8" fill="#6192A8" r="0.875" />
    <circle cx="85.075" cy="230.175" fill="#6192A8" r="0.875" />
    <circle cx="85.075" cy="239.55" fill="#6192A8" r="0.875" />
    <circle cx="21.95" cy="218.8" fill="#6192A8" r="1" />
    <circle cx="153.95" cy="221.05" fill="#6192A8" r="1.25" />
    <g transform="matrix(1, 0, 0, 1, -260.049774, -449.95047)">
        <path
            d="M318,605.5c0,0,0.16,0.497,0.367,1.386c0.198,0.89,0.498,2.163,0.715,3.715&#10;&#9;&#9;c0.118,0.775,0.227,1.616,0.322,2.51c0.115,0.892,0.176,1.838,0.243,2.816c0.039,0.979,0.093,1.993,0.089,3.024&#10;&#9;&#9;c-0.026,1.03-0.002,2.079-0.082,3.124c-0.065,1.046-0.132,2.092-0.267,3.115c-0.061,0.512-0.122,1.02-0.182,1.522&#10;&#9;&#9;c-0.088,0.498-0.174,0.99-0.259,1.475c-0.088,0.483-0.174,0.958-0.259,1.423c-0.116,0.459-0.23,0.908-0.34,1.344&#10;&#9;&#9;c-0.222,0.873-0.417,1.7-0.681,2.442c-0.236,0.749-0.473,1.428-0.683,2.028c-0.251,0.586-0.47,1.096-0.65,1.517&#10;&#9;&#9;c-0.371,0.833-0.583,1.308-0.583,1.308s0.146-0.5,0.4-1.376c0.133-0.434,0.294-0.96,0.478-1.564&#10;&#9;&#9;c0.14-0.617,0.299-1.312,0.494-2.061c0.211-0.746,0.349-1.576,0.511-2.448c0.08-0.436,0.163-0.884,0.247-1.341&#10;&#9;&#9;c0.064-0.461,0.129-0.932,0.196-1.411c0.068-0.478,0.136-0.965,0.206-1.457c0.048-0.495,0.096-0.996,0.145-1.502&#10;&#9;&#9;c0.122-1.008,0.175-2.038,0.23-3.068c0.09-1.028,0.077-2.061,0.115-3.076c-0.001-1.016-0.001-2.017-0.002-2.985&#10;&#9;&#9;c-0.046-0.967-0.032-1.906-0.089-2.793c-0.035-0.889-0.088-1.728-0.155-2.502c-0.126-1.548-0.231-2.843-0.349-3.745&#10;&#9;&#9;C318.064,606.016,318,605.5,318,605.5z"
            fill="#6192A8" />
    </g>
    <g transform="matrix(1, 0, 0, 1, -260.049774, -449.95047)">
        <path
            d="M377,607c0,0,0.15,2.148,0.374,5.369c0.11,1.608,0.238,3.484,0.375,5.494&#10;&#9;&#9;c0.151,2.006,0.312,4.146,0.473,6.286c0.095,1.068,0.191,2.135,0.284,3.186c0.127,1.046,0.188,2.085,0.326,3.079&#10;&#9;&#9;c0.138,0.993,0.212,1.964,0.362,2.87c0.137,0.909,0.243,1.775,0.416,2.556c0.166,0.783,0.268,1.517,0.447,2.141&#10;&#9;&#9;c0.172,0.626,0.269,1.196,0.443,1.628C380.818,640.494,381,641,381,641s-0.248-0.48-0.681-1.321&#10;&#9;&#9;c-0.223-0.423-0.377-0.976-0.618-1.593c-0.252-0.616-0.432-1.337-0.639-2.123c-0.227-0.783-0.389-1.645-0.586-2.555&#10;&#9;&#9;c-0.21-0.908-0.356-1.876-0.516-2.877c-0.316-2.002-0.536-4.151-0.734-6.3c-0.161-2.151-0.296-4.304-0.354-6.324&#10;&#9;&#9;c-0.068-2.02-0.059-3.907-0.058-5.522c-0.004-1.616,0.074-2.963,0.102-3.905C376.956,607.538,377,607,377,607z"
            fill="#6192A8" />
    </g>
</svg>