<?xml version="1.0" encoding="utf-8"?>
<svg viewBox="0 0 177 337" xmlns="http://www.w3.org/2000/svg">
    <g transform="matrix(1, 0, 0, 1, -89.242928, -28.806261)">
        <g transform="matrix(1, 0, 0, 1, -171.667633, -418.625153)">
            <path style="fill: rgb(243, 126, 93);"
                d="M326.369,556.953c0,0,17.971,4.562,35.942,0.415c0,0-14.965-1.298-15.32-1.337&#10;&#9;&#9;&#9;c-0.355-0.039-1.776,1.382-3.04,1.224c-1.263-0.158-2.29-0.987-2.29-0.987L326.369,556.953z" />
            <path style="fill: rgb(243, 126, 93);"
                d="M343.676,565.324c14.238,0.081,19.906-5.293,19.906-5.293l0.968-0.977&#10;&#9;&#9;&#9;c0,0-6.173,4.021-20.549,3.696c-4.813-0.109-9.586-0.113-14.701-2.23c-1.18-0.488-2.765-0.896-4.147-2.361&#10;&#9;&#9;&#9;C325.152,558.159,331.142,565.253,343.676,565.324z" />
        </g>
        <path
            d="M 151.107 137.36 C 151.107 137.36 157.153 140.678 174.054 140.678 C 190.09 140.678 197.001 136.807 197.001 136.807 C 197.001 136.807 190.696 143.401 173.831 143.125 C 155.309 142.821 151.107 137.36 151.107 137.36 Z" />
        <path
            d="M 152.213 132.107 C 152.213 132.107 153.042 137.636 147.236 140.401 C 147.237 140.401 154.148 138.742 152.213 132.107 Z" />
        <path
            d="M 200.814 139.995 C 200.814 139.995 195.561 138.081 195.907 131.659 C 195.907 131.66 194.061 138.524 200.814 139.995 Z" />
        <path
            d="M 162.582 146.012 C 162.582 146.012 173.944 150.172 187.832 144.625 C 187.832 144.625 175.523 150.964 162.582 146.012 Z" />
        <path
            d="M 161.06 138.328 C 161.06 138.328 168.559 137.371 169.994 137.642 C 169.994 137.642 172.03 139.938 175.323 137.405 C 175.323 137.405 178.478 137.498 182.901 138.051 C 182.901 138.051 176.68 137.36 175.298 138.189 C 173.916 139.018 171.566 139.433 169.768 138.465 C 167.972 137.498 161.06 138.328 161.06 138.328 Z" />
    </g>
</svg>