<?xml version="1.0" encoding="utf-8"?>
<svg viewBox="0 0 177 337" xmlns="http://www.w3.org/2000/svg">
    <g transform="matrix(1, 0, 0, 1, -0.02375, 3.225922)">
        <g transform="matrix(1, 0, 0, 1, -730.618713, -62.622417)">
            <path style="fill: rgb(243, 126, 93);"
                d="M800.25,170.667c0,0,11.779,4.23,29.75,0.083c0,0-11.403-2.352-11.759-2.391&#10;&#9;&#9;&#9;&#9;disposable-1.776,1.382-3.04,1.224c-1.263-0.158-2.29-0.987-2.29-0.987L800.25,170.667z" />
            <path style="fill: rgb(243, 126, 93);"
                d="M814,176.083c13.5-0.083,15.667-4.417,15.667-4.417s0.448-0.596,0-0.5&#10;&#9;&#9;&#9;&#9;c-2.333,0.5-4.989,2-15.917,2c-5.083,0-7.167-0.167-12.167-1.333c-1.404-0.328-1.25-0.75-0.167,0.5&#10;&#9;&#9;&#9;&#9;C801.417,172.333,801.466,176.161,814,176.083z" />
        </g>
        <path
            d="M 70.881 110.545 C 70.881 110.545 82.464 117.462 99.048 110.045 C 99.048 110.045 83.048 119.211 70.881 110.545 Z" />
        <path
            d="M 70.714 108.045 C 70.714 108.045 80.858 105.703 82.293 105.974 C 82.293 105.974 84.329 108.27 87.622 105.737 C 87.622 105.737 94.464 106.545 98.547 108.045 C 98.547 108.045 88.979 105.692 87.597 106.522 C 86.215 107.351 83.865 107.766 82.068 106.798 C 80.271 105.83 70.714 108.045 70.714 108.045 Z" />
        <path
            d="M 68.881 108.045 C 68.881 108.045 74.548 110.545 83.381 110.295 C 91.461 110.066 96.464 109.212 99.381 108.128 C 99.381 108.128 91.881 109.711 83.798 109.461 C 75.714 109.211 68.881 108.045 68.881 108.045 Z" />
    </g>
</svg>